%TF.GenerationSoftware,KiCad,Pcbnew,8.0.8-8.0.8-0~ubuntu22.04.1*%
%TF.CreationDate,2025-02-19T20:52:00+01:00*%
%TF.ProjectId,LO_synth_ADF4351_module,4c4f5f73-796e-4746-985f-414446343335,rev?*%
%TF.SameCoordinates,Original*%
%TF.FileFunction,Soldermask,Bot*%
%TF.FilePolarity,Negative*%
%FSLAX46Y46*%
G04 Gerber Fmt 4.6, Leading zero omitted, Abs format (unit mm)*
G04 Created by KiCad (PCBNEW 8.0.8-8.0.8-0~ubuntu22.04.1) date 2025-02-19 20:52:00*
%MOMM*%
%LPD*%
G01*
G04 APERTURE LIST*
G04 Aperture macros list*
%AMRoundRect*
0 Rectangle with rounded corners*
0 $1 Rounding radius*
0 $2 $3 $4 $5 $6 $7 $8 $9 X,Y pos of 4 corners*
0 Add a 4 corners polygon primitive as box body*
4,1,4,$2,$3,$4,$5,$6,$7,$8,$9,$2,$3,0*
0 Add four circle primitives for the rounded corners*
1,1,$1+$1,$2,$3*
1,1,$1+$1,$4,$5*
1,1,$1+$1,$6,$7*
1,1,$1+$1,$8,$9*
0 Add four rect primitives between the rounded corners*
20,1,$1+$1,$2,$3,$4,$5,0*
20,1,$1+$1,$4,$5,$6,$7,0*
20,1,$1+$1,$6,$7,$8,$9,0*
20,1,$1+$1,$8,$9,$2,$3,0*%
G04 Aperture macros list end*
%ADD10C,5.050000*%
%ADD11C,2.286000*%
%ADD12R,1.700000X1.700000*%
%ADD13O,1.700000X1.700000*%
%ADD14RoundRect,0.250000X-0.450000X0.350000X-0.450000X-0.350000X0.450000X-0.350000X0.450000X0.350000X0*%
%ADD15RoundRect,0.237500X0.237500X-0.300000X0.237500X0.300000X-0.237500X0.300000X-0.237500X-0.300000X0*%
%ADD16RoundRect,0.237500X-0.250000X-0.237500X0.250000X-0.237500X0.250000X0.237500X-0.250000X0.237500X0*%
%ADD17RoundRect,0.237500X-0.237500X0.250000X-0.237500X-0.250000X0.237500X-0.250000X0.237500X0.250000X0*%
%ADD18RoundRect,0.237500X-0.300000X-0.237500X0.300000X-0.237500X0.300000X0.237500X-0.300000X0.237500X0*%
%ADD19RoundRect,0.150000X0.512500X0.150000X-0.512500X0.150000X-0.512500X-0.150000X0.512500X-0.150000X0*%
%ADD20RoundRect,0.237500X-0.237500X0.300000X-0.237500X-0.300000X0.237500X-0.300000X0.237500X0.300000X0*%
%ADD21RoundRect,0.237500X0.300000X0.237500X-0.300000X0.237500X-0.300000X-0.237500X0.300000X-0.237500X0*%
%ADD22RoundRect,0.237500X-0.237500X0.287500X-0.237500X-0.287500X0.237500X-0.287500X0.237500X0.287500X0*%
%ADD23C,2.240000*%
%ADD24C,2.740000*%
%ADD25RoundRect,0.160000X0.197500X0.160000X-0.197500X0.160000X-0.197500X-0.160000X0.197500X-0.160000X0*%
%ADD26RoundRect,0.237500X0.287500X0.237500X-0.287500X0.237500X-0.287500X-0.237500X0.287500X-0.237500X0*%
G04 APERTURE END LIST*
D10*
X144525000Y-41000000D02*
G75*
G02*
X139475000Y-41000000I-2525000J0D01*
G01*
X139475000Y-41000000D02*
G75*
G02*
X144525000Y-41000000I2525000J0D01*
G01*
X72525000Y-82000000D02*
G75*
G02*
X67475000Y-82000000I-2525000J0D01*
G01*
X67475000Y-82000000D02*
G75*
G02*
X72525000Y-82000000I2525000J0D01*
G01*
X144525000Y-82000000D02*
G75*
G02*
X139475000Y-82000000I-2525000J0D01*
G01*
X139475000Y-82000000D02*
G75*
G02*
X144525000Y-82000000I2525000J0D01*
G01*
D11*
%TO.C,J3*%
X104200000Y-37900000D03*
X121100000Y-85900000D03*
%TD*%
D12*
%TO.C,J1*%
X72000000Y-43000000D03*
D13*
X74540000Y-43000000D03*
X72000000Y-45540000D03*
X74540000Y-45540000D03*
X72000000Y-48080000D03*
X74540000Y-48080000D03*
X72000000Y-50620000D03*
X74540000Y-50620000D03*
X72000000Y-53160000D03*
X74540000Y-53160000D03*
X72000000Y-55700000D03*
X74540000Y-55700000D03*
X72000000Y-58240000D03*
X74540000Y-58240000D03*
X72000000Y-60780000D03*
X74540000Y-60780000D03*
X72000000Y-63320000D03*
X74540000Y-63320000D03*
X72000000Y-65860000D03*
X74540000Y-65860000D03*
%TD*%
D14*
%TO.C,R31*%
X87100000Y-68687500D03*
X87100000Y-70687500D03*
%TD*%
D15*
%TO.C,C110*%
X88600000Y-40662500D03*
X88600000Y-38937500D03*
%TD*%
D16*
%TO.C,R41*%
X90487500Y-40200000D03*
X92312500Y-40200000D03*
%TD*%
D14*
%TO.C,R27*%
X83300000Y-68687500D03*
X83300000Y-70687500D03*
%TD*%
D17*
%TO.C,R39*%
X100400000Y-39687500D03*
X100400000Y-41512500D03*
%TD*%
D18*
%TO.C,C23*%
X71025000Y-69000000D03*
X72750000Y-69000000D03*
%TD*%
D17*
%TO.C,R9*%
X72787500Y-70687500D03*
X72787500Y-72512500D03*
%TD*%
D14*
%TO.C,R30*%
X87100000Y-64600000D03*
X87100000Y-66600000D03*
%TD*%
D19*
%TO.C,U10*%
X86675000Y-38850000D03*
X86675000Y-39800000D03*
X86675000Y-40750000D03*
X84400000Y-40750000D03*
X84400000Y-39800000D03*
X84400000Y-38850000D03*
%TD*%
D15*
%TO.C,C51*%
X119150000Y-77862500D03*
X119150000Y-76137500D03*
%TD*%
D20*
%TO.C,C88*%
X111800000Y-73137500D03*
X111800000Y-74862500D03*
%TD*%
D21*
%TO.C,C116*%
X87462500Y-44000000D03*
X85737500Y-44000000D03*
%TD*%
D15*
%TO.C,C114*%
X82400000Y-42662500D03*
X82400000Y-40937500D03*
%TD*%
D18*
%TO.C,C36*%
X70925000Y-74200000D03*
X72650000Y-74200000D03*
%TD*%
D14*
%TO.C,R28*%
X79500000Y-64600000D03*
X79500000Y-66600000D03*
%TD*%
%TO.C,R29*%
X79500000Y-68687500D03*
X79500000Y-70687500D03*
%TD*%
D22*
%TO.C,FB13*%
X91200000Y-46325000D03*
X91200000Y-48075000D03*
%TD*%
D16*
%TO.C,R43*%
X78800000Y-40800000D03*
X80625000Y-40800000D03*
%TD*%
D20*
%TO.C,C113*%
X77000000Y-37537500D03*
X77000000Y-39262500D03*
%TD*%
D14*
%TO.C,R26*%
X83300000Y-64600000D03*
X83300000Y-66600000D03*
%TD*%
D22*
%TO.C,FB10*%
X97800000Y-41925000D03*
X97800000Y-43675000D03*
%TD*%
D23*
%TO.C,J2*%
X96500000Y-75750000D03*
D24*
X93960000Y-73210000D03*
X93960000Y-78290000D03*
X99040000Y-73210000D03*
X99040000Y-78290000D03*
%TD*%
D16*
%TO.C,R42*%
X78800000Y-39200000D03*
X80625000Y-39200000D03*
%TD*%
D21*
%TO.C,C117*%
X87462500Y-42400000D03*
X85737500Y-42400000D03*
%TD*%
D25*
%TO.C,R104*%
X117797500Y-74800000D03*
X116602500Y-74800000D03*
%TD*%
D15*
%TO.C,C112*%
X77000000Y-42662500D03*
X77000000Y-40937500D03*
%TD*%
D25*
%TO.C,R103*%
X114497500Y-74800000D03*
X113302500Y-74800000D03*
%TD*%
D26*
%TO.C,FB9*%
X115275000Y-76300000D03*
X113525000Y-76300000D03*
%TD*%
D20*
%TO.C,C115*%
X82400000Y-37475000D03*
X82400000Y-39200000D03*
%TD*%
M02*
