%TF.GenerationSoftware,KiCad,Pcbnew,8.0.8-8.0.8-0~ubuntu22.04.1*%
%TF.CreationDate,2025-02-19T20:52:00+01:00*%
%TF.ProjectId,LO_synth_ADF4351_module,4c4f5f73-796e-4746-985f-414446343335,rev?*%
%TF.SameCoordinates,Original*%
%TF.FileFunction,Copper,L3,Inr*%
%TF.FilePolarity,Positive*%
%FSLAX46Y46*%
G04 Gerber Fmt 4.6, Leading zero omitted, Abs format (unit mm)*
G04 Created by KiCad (PCBNEW 8.0.8-8.0.8-0~ubuntu22.04.1) date 2025-02-19 20:52:00*
%MOMM*%
%LPD*%
G01*
G04 APERTURE LIST*
%TA.AperFunction,ComponentPad*%
%ADD10C,2.286000*%
%TD*%
%TA.AperFunction,HeatsinkPad*%
%ADD11C,0.600000*%
%TD*%
%TA.AperFunction,ComponentPad*%
%ADD12R,1.700000X1.700000*%
%TD*%
%TA.AperFunction,ComponentPad*%
%ADD13O,1.700000X1.700000*%
%TD*%
%TA.AperFunction,ComponentPad*%
%ADD14C,2.240000*%
%TD*%
%TA.AperFunction,ComponentPad*%
%ADD15C,2.740000*%
%TD*%
%TA.AperFunction,ViaPad*%
%ADD16C,0.700000*%
%TD*%
%TA.AperFunction,ViaPad*%
%ADD17C,1.000000*%
%TD*%
%TA.AperFunction,ViaPad*%
%ADD18C,1.500000*%
%TD*%
%TA.AperFunction,ViaPad*%
%ADD19C,0.800000*%
%TD*%
%TA.AperFunction,ViaPad*%
%ADD20C,0.600000*%
%TD*%
%TA.AperFunction,ViaPad*%
%ADD21C,5.000000*%
%TD*%
%TA.AperFunction,ViaPad*%
%ADD22C,1.200000*%
%TD*%
%TA.AperFunction,Conductor*%
%ADD23C,0.200000*%
%TD*%
%TA.AperFunction,Conductor*%
%ADD24C,0.381000*%
%TD*%
%TA.AperFunction,Conductor*%
%ADD25C,0.508000*%
%TD*%
%TA.AperFunction,Conductor*%
%ADD26C,0.254000*%
%TD*%
%TA.AperFunction,Conductor*%
%ADD27C,0.700000*%
%TD*%
%TA.AperFunction,Conductor*%
%ADD28C,0.507000*%
%TD*%
G04 APERTURE END LIST*
D10*
%TO.N,GND*%
%TO.C,J3*%
X104200000Y-37900000D03*
X121100000Y-85900000D03*
%TD*%
D11*
%TO.N,GND*%
%TO.C,U2*%
X106300000Y-51112500D03*
X106300000Y-54012500D03*
X107750000Y-51112500D03*
X107750000Y-54012500D03*
X109200000Y-51112500D03*
X109200000Y-54012500D03*
%TD*%
D12*
%TO.N,GND*%
%TO.C,J1*%
X72000000Y-43000000D03*
D13*
%TO.N,Net-(J1-Pin_2)*%
X74540000Y-43000000D03*
%TO.N,GND*%
X72000000Y-45540000D03*
%TO.N,Fref_IN*%
X74540000Y-45540000D03*
%TO.N,Mute_RF*%
X72000000Y-48080000D03*
%TO.N,LD*%
X74540000Y-48080000D03*
%TO.N,DATA*%
X72000000Y-50620000D03*
%TO.N,CLK*%
X74540000Y-50620000D03*
%TO.N,CE*%
X72000000Y-53160000D03*
%TO.N,LE*%
X74540000Y-53160000D03*
%TO.N,Net-(J1-Pin_11)*%
X72000000Y-55700000D03*
%TO.N,MUX*%
X74540000Y-55700000D03*
%TO.N,GND*%
X72000000Y-58240000D03*
X74540000Y-58240000D03*
%TO.N,LO_Buff_EN*%
X72000000Y-60780000D03*
%TO.N,~{RX_{EN}}*%
X74540000Y-60780000D03*
%TO.N,I2C_SCL*%
X72000000Y-63320000D03*
%TO.N,I2C_SDA*%
X74540000Y-63320000D03*
%TO.N,GND*%
X72000000Y-65860000D03*
X74540000Y-65860000D03*
%TD*%
D14*
%TO.N,Net-(J2-In)*%
%TO.C,J2*%
X96500000Y-75750000D03*
D15*
%TO.N,GND*%
X93960000Y-73210000D03*
X93960000Y-78290000D03*
X99040000Y-73210000D03*
X99040000Y-78290000D03*
%TD*%
D16*
%TO.N,GND*%
X109200000Y-52600000D03*
X107700000Y-52600000D03*
X106400000Y-52600000D03*
D17*
%TO.N,/3V8*%
X69037500Y-66600000D03*
X75262500Y-38862500D03*
%TO.N,GND*%
X101000000Y-70000000D03*
X89800000Y-58250000D03*
X126100000Y-72000000D03*
D18*
X124414433Y-86250000D03*
X145000000Y-71441176D03*
D17*
X78000000Y-58600000D03*
X105050000Y-80950000D03*
X75400000Y-70600000D03*
D18*
X116891658Y-35600000D03*
D19*
X97800000Y-35400000D03*
D17*
X100500000Y-44062500D03*
D18*
X116365380Y-67500000D03*
X67000000Y-42382352D03*
D20*
X128750000Y-40250000D03*
D17*
X88250000Y-79500000D03*
D18*
X145000000Y-56676464D03*
D17*
X102400000Y-51500000D03*
D20*
X83750000Y-54500000D03*
D17*
X119500000Y-62250000D03*
X120800000Y-73500000D03*
D20*
X85750000Y-51750000D03*
D18*
X117897057Y-86500000D03*
D17*
X124250000Y-82350000D03*
D18*
X129304807Y-86250000D03*
X118576918Y-67500000D03*
X113400000Y-79200000D03*
D17*
X98800000Y-40200000D03*
D20*
X85500000Y-57000000D03*
D17*
X98700000Y-56000000D03*
X105050000Y-77550000D03*
D18*
X103225935Y-86500000D03*
D20*
X81203284Y-37994963D03*
D18*
X90500000Y-83500000D03*
D17*
X124500000Y-70750000D03*
D18*
X76650000Y-86500000D03*
X114323528Y-38000000D03*
D17*
X118750000Y-46000000D03*
X88250000Y-81250000D03*
X82000000Y-72900000D03*
D18*
X116764704Y-38000000D03*
D17*
X67125000Y-62900000D03*
D18*
X107000000Y-38000000D03*
D17*
X128550000Y-70200000D03*
X102000000Y-72750000D03*
D20*
X106000000Y-49000000D03*
D17*
X89750000Y-50500000D03*
D18*
X90500000Y-69356618D03*
D17*
X102000000Y-80550000D03*
D21*
X142000000Y-41000000D03*
D17*
X104300000Y-61000000D03*
X80600000Y-63500000D03*
X105600000Y-44200000D03*
X67200000Y-66700000D03*
D18*
X67000000Y-52147056D03*
D17*
X99250000Y-70000000D03*
X92500000Y-82500000D03*
D20*
X83600000Y-38200000D03*
X108250000Y-41250000D03*
D18*
X65000000Y-54764712D03*
D19*
X88248152Y-35400000D03*
D20*
X85750000Y-54500000D03*
D18*
X134500000Y-73544120D03*
X117350000Y-69250000D03*
X123250000Y-63250000D03*
X109727772Y-35600000D03*
X128882360Y-38000000D03*
D20*
X122300000Y-75700000D03*
X82000000Y-59750000D03*
D18*
X76650000Y-84500000D03*
X114503696Y-35600000D03*
X114153842Y-67500000D03*
X104900000Y-69900000D03*
D20*
X108627000Y-48500000D03*
D17*
X71000000Y-75750000D03*
D20*
X102000000Y-48500000D03*
D17*
X89750000Y-52750000D03*
X111500000Y-48800000D03*
X99500000Y-82500000D03*
D18*
X134500000Y-39250000D03*
X121667582Y-35600000D03*
X90500000Y-78952206D03*
X130750000Y-75058824D03*
X107339810Y-35600000D03*
D20*
X127250000Y-45500000D03*
D17*
X121750000Y-47500000D03*
X110300000Y-44900000D03*
D20*
X117900000Y-57300000D03*
D18*
X130750000Y-65000000D03*
D20*
X117750000Y-46250000D03*
D18*
X119279620Y-35600000D03*
X100884614Y-67500000D03*
X105671122Y-86500000D03*
X111882352Y-38000000D03*
D17*
X77400000Y-61200000D03*
D18*
X121647056Y-38000000D03*
X130750000Y-72441176D03*
D20*
X128750000Y-43500000D03*
D17*
X76500000Y-50500000D03*
D18*
X133607392Y-35600000D03*
D17*
X100800000Y-61000000D03*
D18*
X145000000Y-69000000D03*
D17*
X131050000Y-62100000D03*
D18*
X65000000Y-66970592D03*
X134500000Y-85750000D03*
D20*
X100500000Y-48500000D03*
D17*
X102000000Y-71050000D03*
D18*
X130750000Y-77500000D03*
D17*
X115500000Y-57500000D03*
X131750000Y-49000000D03*
D18*
X65000000Y-44882352D03*
D17*
X94750000Y-61500000D03*
D18*
X109441176Y-38000000D03*
D17*
X109800000Y-82600000D03*
D19*
X83472228Y-35400000D03*
D17*
X77887500Y-50500000D03*
X131000000Y-59850000D03*
D18*
X134500000Y-63779416D03*
X126441176Y-38000000D03*
X93445187Y-86500000D03*
X107600000Y-69250000D03*
D20*
X128750000Y-48750000D03*
X84800000Y-71800000D03*
D17*
X126000000Y-79650000D03*
D18*
X65000000Y-64529416D03*
X125000000Y-65250000D03*
D19*
X71532418Y-35400000D03*
D18*
X130750000Y-67441176D03*
D17*
X94250000Y-82500000D03*
D18*
X65000000Y-69411768D03*
D17*
X113900000Y-62000000D03*
X95750000Y-62500000D03*
X124500000Y-62250000D03*
D18*
X120788456Y-67500000D03*
D17*
X67225000Y-55800000D03*
X110400000Y-77300000D03*
X96200000Y-51519000D03*
X102600000Y-61000000D03*
D18*
X124500000Y-58000000D03*
D17*
X102000000Y-74150000D03*
D18*
X69000000Y-36426472D03*
D17*
X116200000Y-46200000D03*
X76500000Y-47750000D03*
X113500000Y-57500000D03*
D18*
X108116309Y-86500000D03*
D19*
X100187962Y-35400000D03*
D18*
X145000000Y-49352936D03*
D17*
X125500000Y-81200000D03*
D18*
X88400000Y-86500000D03*
X76500000Y-80000000D03*
D17*
X120500000Y-44500000D03*
X128250000Y-53000000D03*
X97500000Y-70000000D03*
D18*
X65000000Y-42441176D03*
D20*
X122750000Y-43500000D03*
D17*
X126500000Y-53000000D03*
X92250000Y-70000000D03*
D18*
X134500000Y-51455880D03*
D20*
X82250000Y-49000000D03*
X84000000Y-57000000D03*
D17*
X67200000Y-69900000D03*
D18*
X90500000Y-66957721D03*
X98335561Y-86500000D03*
X145000000Y-46911760D03*
X67000000Y-37500000D03*
D17*
X110500000Y-73750000D03*
D18*
X145000000Y-66558824D03*
D17*
X95750000Y-70000000D03*
D18*
X65000000Y-62088240D03*
X119450000Y-69250000D03*
X112115734Y-35600000D03*
X65000000Y-40000000D03*
D17*
X102000000Y-44062500D03*
X89500000Y-55800000D03*
X104050000Y-78500000D03*
X75400000Y-69000000D03*
D18*
X91000000Y-86500000D03*
D17*
X88250000Y-77750000D03*
D18*
X145000000Y-61676472D03*
D17*
X123000000Y-51500000D03*
D20*
X81000000Y-42200000D03*
D18*
X117200000Y-79150000D03*
D17*
X126500000Y-44000000D03*
D20*
X123550000Y-77750000D03*
D18*
X86050000Y-76293750D03*
D17*
X78000000Y-55600000D03*
D18*
X65000000Y-49764704D03*
X123000000Y-67500000D03*
X67000000Y-49705880D03*
X134500000Y-75985296D03*
D17*
X99600000Y-51400000D03*
D18*
X68500000Y-74250000D03*
X90500000Y-74154412D03*
D17*
X110400000Y-46600000D03*
D18*
X123000000Y-69250000D03*
X90500000Y-81351103D03*
D17*
X90000000Y-47750000D03*
D18*
X72500000Y-76750000D03*
X113006683Y-86500000D03*
D17*
X125000000Y-56250000D03*
D18*
X122500000Y-79100000D03*
D17*
X93800000Y-39200000D03*
D21*
X142000000Y-82000000D03*
D20*
X84900000Y-68300000D03*
D17*
X91400000Y-39200000D03*
X115750000Y-56250000D03*
D20*
X85750000Y-59750000D03*
D17*
X119500000Y-64000000D03*
D18*
X134500000Y-49014704D03*
X109730766Y-67500000D03*
D19*
X95412038Y-35400000D03*
D18*
X104400000Y-56200000D03*
D17*
X82300000Y-81700000D03*
D19*
X90636114Y-35400000D03*
D18*
X145000000Y-51794112D03*
D17*
X89912500Y-61200000D03*
D18*
X67000000Y-39941176D03*
D20*
X81000000Y-43200000D03*
X118500000Y-41000000D03*
D17*
X126000000Y-78100000D03*
D18*
X110561496Y-86500000D03*
D17*
X110300000Y-43100000D03*
X126500000Y-51500000D03*
D20*
X114500000Y-46250000D03*
D17*
X88250000Y-74500000D03*
D18*
X100780748Y-86500000D03*
X120800000Y-77600000D03*
X126859620Y-86250000D03*
D17*
X103500000Y-82500000D03*
X100800000Y-81500000D03*
D18*
X90500000Y-71755515D03*
X128831468Y-35600000D03*
D20*
X78200000Y-37600000D03*
D18*
X113450000Y-69300000D03*
D17*
X88250000Y-72750000D03*
D18*
X134500000Y-46573528D03*
X119205880Y-38000000D03*
D20*
X104141720Y-49027070D03*
D18*
X98673076Y-67500000D03*
X95890374Y-86500000D03*
D17*
X77912500Y-47700000D03*
D20*
X81750000Y-51750000D03*
D18*
X86150000Y-86500000D03*
D19*
X76308342Y-35400000D03*
D20*
X84000000Y-59750000D03*
D18*
X111000000Y-55500000D03*
X65000000Y-71852944D03*
D17*
X120500000Y-46000000D03*
X83800000Y-83000000D03*
D18*
X65000000Y-59647064D03*
D17*
X77000000Y-45000000D03*
D18*
X90500000Y-76553309D03*
X134500000Y-80867648D03*
D17*
X87450000Y-83050000D03*
X91250000Y-60500000D03*
D18*
X126443506Y-35600000D03*
D17*
X103000000Y-79500000D03*
X97400000Y-40200000D03*
D18*
X90500000Y-64558824D03*
D17*
X103250000Y-41077000D03*
D18*
X115451870Y-86500000D03*
X104951848Y-35600000D03*
D17*
X94750000Y-54750000D03*
D20*
X82000000Y-57000000D03*
D17*
X107800000Y-73500000D03*
D18*
X134500000Y-68661768D03*
X134500000Y-71102944D03*
D17*
X103750000Y-44062500D03*
X126150000Y-73750000D03*
D20*
X84800000Y-38000000D03*
D18*
X134500000Y-61338240D03*
X131750000Y-86250000D03*
X134500000Y-41691176D03*
D17*
X115700000Y-62000000D03*
D18*
X108050000Y-78300000D03*
X134500000Y-78426472D03*
D17*
X71000000Y-70500000D03*
X77250000Y-70750000D03*
D18*
X96461538Y-67500000D03*
D20*
X82250000Y-46250000D03*
D17*
X110400000Y-41300000D03*
X77250000Y-69000000D03*
D18*
X67000000Y-47264704D03*
D17*
X121750000Y-49000000D03*
D18*
X145000000Y-54235288D03*
D19*
X81084266Y-35400000D03*
D17*
X105700000Y-59600000D03*
D18*
X102563886Y-35600000D03*
D17*
X124750000Y-51500000D03*
D18*
X130750000Y-82441176D03*
X67000000Y-44823528D03*
D20*
X115700000Y-55300000D03*
D18*
X105307690Y-67500000D03*
D17*
X94000000Y-70000000D03*
X97200000Y-56000000D03*
D18*
X111942304Y-67500000D03*
X115350000Y-77850000D03*
X65000000Y-52205880D03*
D17*
X90600000Y-43400000D03*
X79950000Y-79700000D03*
D20*
X85750000Y-49000000D03*
D19*
X73920380Y-35400000D03*
D17*
X115300000Y-82600000D03*
D18*
X130750000Y-70000000D03*
X116750000Y-63000000D03*
X131219430Y-35600000D03*
X116000000Y-53000000D03*
X118750000Y-60250000D03*
D20*
X81750000Y-54500000D03*
D17*
X102350000Y-83750000D03*
X85600000Y-83000000D03*
X99100000Y-61000000D03*
D18*
X67000000Y-72250000D03*
D17*
X67125000Y-60600000D03*
X102100000Y-56000000D03*
D18*
X131250000Y-38000000D03*
D17*
X90600000Y-41800000D03*
D18*
X79198130Y-86500000D03*
D20*
X104700000Y-72250000D03*
D17*
X123350000Y-73450000D03*
D18*
X145000000Y-64117648D03*
X134500000Y-66220592D03*
D20*
X124250000Y-41000000D03*
D18*
X103096152Y-67500000D03*
X94250000Y-67500000D03*
D17*
X76500000Y-72500000D03*
D20*
X121500000Y-46250000D03*
X84000000Y-46250000D03*
D17*
X97750000Y-82500000D03*
D18*
X81650000Y-86500000D03*
D17*
X122700000Y-83250000D03*
X127200000Y-77250000D03*
D20*
X97750000Y-48500000D03*
X117000000Y-40500000D03*
X84000000Y-49000000D03*
D18*
X107519228Y-67500000D03*
D17*
X78600000Y-42400000D03*
D21*
X70000000Y-82000000D03*
D18*
X111600000Y-69300000D03*
D17*
X79000000Y-72500000D03*
D18*
X134500000Y-44132352D03*
X145000000Y-76323528D03*
X65000000Y-47323528D03*
X134500000Y-58897064D03*
D20*
X85750000Y-46250000D03*
D17*
X126250000Y-62250000D03*
D18*
X74750000Y-78500000D03*
X124055544Y-35600000D03*
D17*
X100400000Y-56000000D03*
X82000000Y-78000000D03*
D20*
X85800000Y-38000000D03*
D18*
X134500000Y-53897056D03*
D17*
X88250000Y-76250000D03*
X97600000Y-59600000D03*
D18*
X84088504Y-86500000D03*
X145000000Y-73882352D03*
D17*
X111200000Y-62000000D03*
X103600000Y-74200000D03*
X81150000Y-80650000D03*
D20*
X106000000Y-57600000D03*
X119000000Y-43300000D03*
D18*
X111550000Y-79200000D03*
D17*
X109250000Y-72450000D03*
D20*
X84000000Y-51750000D03*
D17*
X83750000Y-78000000D03*
D18*
X76650000Y-82050000D03*
D20*
X99250000Y-48500000D03*
D18*
X145000000Y-59235296D03*
D19*
X85860190Y-35400000D03*
D18*
X124000000Y-38000000D03*
D17*
X115400000Y-72500000D03*
D18*
X120750000Y-56500000D03*
X65000000Y-57205888D03*
X130750000Y-80000000D03*
D20*
X111825001Y-65325001D03*
X105500000Y-73050000D03*
D17*
X96000000Y-82500000D03*
X120950000Y-83250000D03*
D18*
X112750000Y-63000000D03*
D17*
X80250000Y-78000000D03*
D18*
X134500000Y-56338232D03*
X134500000Y-83308824D03*
D20*
X112000000Y-41250000D03*
D19*
X78696304Y-35400000D03*
D17*
X77987500Y-53200000D03*
D19*
X93024076Y-35400000D03*
D20*
%TO.N,Net-(U2-LD)*%
X110313137Y-49391962D03*
X88700000Y-43450000D03*
%TO.N,3V3_ADF*%
X88300000Y-62800000D03*
D18*
X93300000Y-54100000D03*
X93250000Y-55800000D03*
X86200000Y-72700000D03*
X86200000Y-74400000D03*
X122250000Y-58500000D03*
D20*
X103000000Y-72000000D03*
%TO.N,Net-(U2-MUXOUT)*%
X88500000Y-59800000D03*
X106048624Y-48201376D03*
%TO.N,Net-(U2-PDB_{RF})*%
X109500000Y-48700000D03*
X88500000Y-46500000D03*
%TO.N,Net-(U2-CE)*%
X95544902Y-50763453D03*
X88500000Y-57200000D03*
%TO.N,Net-(U2-LE)*%
X88500000Y-54750000D03*
X95685421Y-49900000D03*
%TO.N,Net-(U2-DATA)*%
X96338193Y-49300000D03*
X88500000Y-51700000D03*
%TO.N,Net-(U2-CLK)*%
X95945142Y-48603211D03*
X88500000Y-49200000D03*
D17*
%TO.N,Net-(U2-REF_{IN})*%
X95950420Y-45950420D03*
X105925000Y-45619000D03*
D20*
%TO.N,Net-(C36-Pad2)*%
X112200000Y-77300000D03*
X76950000Y-78450000D03*
%TO.N,Net-(U101-Vcc)*%
X120600000Y-76100000D03*
D22*
%TO.N,Net-(U2-CP_{OUT})*%
X120750000Y-54750000D03*
X103750000Y-54750000D03*
D20*
%TO.N,LO_Buff_EN*%
X114031843Y-41470646D03*
D22*
%TO.N,/5V6*%
X74600000Y-37000000D03*
X120500000Y-40500000D03*
%TO.N,Net-(U2-SW)*%
X103496325Y-52403675D03*
X123500000Y-56000000D03*
D20*
%TO.N,Net-(U7-A2)*%
X84900000Y-67100000D03*
%TO.N,Net-(U7-A1)*%
X84900000Y-69400000D03*
%TO.N,Net-(U7-A0)*%
X85100000Y-70600000D03*
D17*
%TO.N,V_VCTCXO*%
X95800000Y-40200000D03*
%TO.N,Net-(U8-VDD)*%
X99131679Y-42531379D03*
D20*
%TO.N,3V3_VCTCXO*%
X87702297Y-38223000D03*
%TO.N,/3V3_LS*%
X110400000Y-74900000D03*
%TD*%
D23*
%TO.N,Net-(U2-LE)*%
X95027024Y-49900000D02*
G75*
G03*
X93903061Y-50365546I-24J-1589500D01*
G01*
X89878768Y-54389860D02*
X89878767Y-54389860D01*
X89009314Y-54750000D02*
X88500000Y-54750000D01*
X89878767Y-54389860D02*
G75*
G02*
X89009314Y-54750007I-869467J869460D01*
G01*
X95685421Y-49900000D02*
X95027024Y-49900000D01*
X93903071Y-50365556D02*
X93903071Y-50365557D01*
X93903071Y-50365557D02*
X89878768Y-54389860D01*
D24*
%TO.N,Net-(U2-SW)*%
X104370442Y-51783000D02*
G75*
G03*
X104108488Y-51891488I-42J-370400D01*
G01*
D23*
X103631680Y-52368319D02*
G75*
G02*
X103546325Y-52403702I-85380J85319D01*
G01*
D24*
X120793792Y-53293792D02*
G75*
G03*
X116946036Y-51699989I-3847792J-3847808D01*
G01*
X109619420Y-51700000D02*
G75*
G03*
X109519218Y-51741487I-20J-141700D01*
G01*
X109519231Y-51741500D02*
G75*
G02*
X109419041Y-51783026I-100231J100200D01*
G01*
X104108500Y-51891500D02*
X103891500Y-52108500D01*
D25*
%TO.N,/5V6*%
X74963676Y-36786963D02*
G75*
G03*
X74706538Y-36893501I24J-363637D01*
G01*
X120084500Y-40084500D02*
G75*
G03*
X119081394Y-39669002I-1003100J-1003100D01*
G01*
X100727981Y-38227981D02*
G75*
G03*
X97249055Y-36786992I-3478881J-3478919D01*
G01*
X100727981Y-38227981D02*
G75*
G03*
X104206907Y-39669008I3478919J3478881D01*
G01*
D26*
%TO.N,LO_Buff_EN*%
X100487323Y-38808981D02*
G75*
G03*
X103966249Y-40250049I3478977J3478881D01*
G01*
X77414213Y-39185786D02*
G75*
G02*
X74000000Y-40600007I-3414213J3414186D01*
G01*
X71250000Y-41350000D02*
G75*
G03*
X70499954Y-43160660I1810600J-1810700D01*
G01*
X113421520Y-40860323D02*
G75*
G03*
X111948069Y-40250029I-1473420J-1473477D01*
G01*
X100487323Y-38808981D02*
G75*
G03*
X97008397Y-37367963I-3478923J-3478919D01*
G01*
X81486000Y-37367963D02*
G75*
G03*
X77638247Y-38961758I0J-5441537D01*
G01*
X70500000Y-58219339D02*
G75*
G03*
X71250012Y-60029988I2560700J39D01*
G01*
X73060660Y-40600000D02*
G75*
G03*
X71250032Y-41350032I40J-2560600D01*
G01*
D24*
%TO.N,Net-(U2-CP_{OUT})*%
X104359099Y-54340900D02*
G75*
G02*
X103975000Y-54499999I-384099J384100D01*
G01*
X106176829Y-53342000D02*
G75*
G03*
X104778991Y-53920991I-29J-1976800D01*
G01*
X112296000Y-53796000D02*
G75*
G03*
X113392052Y-54250019I1096100J1096100D01*
G01*
X103875000Y-54500000D02*
G75*
G03*
X103750000Y-54625000I0J-125000D01*
G01*
X112296000Y-53796000D02*
G75*
G03*
X111199947Y-53341951I-1096100J-1096000D01*
G01*
X120500000Y-54500000D02*
G75*
G03*
X119896446Y-54250022I-603500J-603500D01*
G01*
D26*
%TO.N,Net-(C36-Pad2)*%
X111750000Y-76850000D02*
G75*
G03*
X110663603Y-76399998I-1086400J-1086400D01*
G01*
X109640686Y-76400000D02*
G75*
G03*
X106808074Y-77573327I14J-4005900D01*
G01*
X81706207Y-83206207D02*
G75*
G03*
X85553963Y-84800011I3847793J3847807D01*
G01*
X101175164Y-83206207D02*
G75*
G02*
X97327407Y-84799990I-3847764J3847807D01*
G01*
X104697538Y-79683832D02*
X101383832Y-82997538D01*
D23*
%TO.N,Net-(U2-REF_{IN})*%
X96516189Y-45619000D02*
G75*
G03*
X96116129Y-45784709I11J-565800D01*
G01*
%TO.N,Net-(U2-CLK)*%
X95529816Y-48676605D02*
G75*
G02*
X95352626Y-48750013I-177216J177205D01*
G01*
X95707006Y-48603211D02*
G75*
G03*
X95529812Y-48676601I-6J-250589D01*
G01*
X91984924Y-48750000D02*
G75*
G03*
X91381370Y-48999999I-24J-853500D01*
G01*
X88525000Y-49225000D02*
G75*
G03*
X88585355Y-49250018I60400J60400D01*
G01*
X91381371Y-49000000D02*
G75*
G02*
X90777817Y-49249999I-603571J603600D01*
G01*
%TO.N,Net-(U2-DATA)*%
X91207106Y-50992892D02*
G75*
G02*
X89500000Y-51700003I-1707106J1707092D01*
G01*
X94619096Y-49250000D02*
G75*
G03*
X91769763Y-50430222I4J-4029600D01*
G01*
X96313193Y-49275000D02*
G75*
G03*
X96252837Y-49249986I-60393J-60400D01*
G01*
%TO.N,Net-(U2-CE)*%
X89828337Y-56853032D02*
G75*
G02*
X88990685Y-57199994I-837637J837632D01*
G01*
X91203033Y-53631280D02*
G75*
G03*
X90550031Y-55207842I1576567J-1576520D01*
G01*
X90550000Y-55375736D02*
G75*
G02*
X90015675Y-56665675I-1824300J36D01*
G01*
X94807881Y-50763453D02*
G75*
G03*
X93549713Y-51284610I19J-1779347D01*
G01*
D26*
%TO.N,Net-(U2-PDB_{RF})*%
X104030037Y-47349376D02*
G75*
G03*
X103546420Y-47549666I-37J-683924D01*
G01*
X109024688Y-47824688D02*
G75*
G03*
X107877183Y-47349390I-1147488J-1147512D01*
G01*
X91125000Y-47125000D02*
G75*
G03*
X89616116Y-46499993I-1508900J-1508900D01*
G01*
X103546442Y-47549688D02*
G75*
G02*
X103062846Y-47750035I-483642J483588D01*
G01*
X91125000Y-47125000D02*
G75*
G03*
X92633883Y-47750007I1508900J1508900D01*
G01*
X109358578Y-48158578D02*
G75*
G02*
X109500013Y-48500000I-341378J-341422D01*
G01*
D23*
%TO.N,Net-(U2-MUXOUT)*%
X103768198Y-48250000D02*
G75*
G03*
X103225001Y-48475001I2J-768200D01*
G01*
X101434314Y-51234314D02*
G75*
G02*
X97654415Y-52800006I-3779914J3779914D01*
G01*
X106024312Y-48225688D02*
G75*
G02*
X105965617Y-48250014I-58712J58688D01*
G01*
X91800000Y-53600000D02*
G75*
G03*
X91000029Y-55531326I1931300J-1931300D01*
G01*
X90166726Y-59364644D02*
G75*
G02*
X89115685Y-59799988I-1051026J1051044D01*
G01*
X103225000Y-48475000D02*
G75*
G03*
X102999999Y-49018198I543200J-543200D01*
G01*
X93731377Y-52800000D02*
G75*
G03*
X91800009Y-53600009I23J-2731400D01*
G01*
X103000000Y-49184314D02*
G75*
G02*
X102657522Y-50011076I-1169200J14D01*
G01*
X91000000Y-57634314D02*
G75*
G02*
X90365681Y-59165681I-2165700J14D01*
G01*
D26*
%TO.N,3V3_ADF*%
X102000000Y-67692893D02*
G75*
G03*
X102499998Y-68900002I1707100J-7D01*
G01*
X93250000Y-56925000D02*
G75*
G03*
X94045493Y-58845497I2716000J0D01*
G01*
D25*
X95400000Y-57150000D02*
G75*
G03*
X98659188Y-58500005I3259200J3259200D01*
G01*
D26*
X102500000Y-68900000D02*
G75*
G02*
X102999997Y-70107106I-1207100J-1207100D01*
G01*
D25*
X94332842Y-56082842D02*
G75*
G03*
X93650000Y-55800004I-682842J-682858D01*
G01*
D26*
X101434314Y-66234314D02*
G75*
G02*
X101999991Y-67600000I-1365714J-1365686D01*
G01*
%TO.N,Net-(U2-LD)*%
X109042041Y-47142041D02*
G75*
G03*
X108446538Y-46895336I-595541J-595459D01*
G01*
X103381389Y-47072688D02*
G75*
G02*
X102953319Y-47250009I-428089J428088D01*
G01*
X103809458Y-46895376D02*
G75*
G03*
X103381422Y-47072721I42J-605324D01*
G01*
X91500000Y-46750000D02*
G75*
G03*
X92707106Y-47249997I1207100J1207100D01*
G01*
X90674888Y-45005333D02*
G75*
G02*
X90999984Y-45790222I-784888J-784867D01*
G01*
X109967070Y-48067070D02*
G75*
G02*
X110313105Y-48902549I-835470J-835430D01*
G01*
X91000000Y-45790222D02*
G75*
G03*
X91325122Y-46575100I1110000J22D01*
G01*
X89267890Y-43598335D02*
G75*
G03*
X88909777Y-43450031I-358090J-358165D01*
G01*
D25*
%TO.N,GND*%
X104341421Y-53358578D02*
G75*
G02*
X104000000Y-53499983I-341421J341478D01*
G01*
D23*
X115800000Y-52800000D02*
G75*
G03*
X115317157Y-52600018I-482800J-482800D01*
G01*
D27*
X105736396Y-52600000D02*
G75*
G03*
X104650001Y-53050001I4J-1536400D01*
G01*
D26*
X102499999Y-53899999D02*
G75*
G03*
X102099993Y-54865685I965701J-965701D01*
G01*
D25*
X103350000Y-53500000D02*
G75*
G03*
X102581801Y-53818198I0J-1086400D01*
G01*
X104000000Y-53500000D02*
X103600000Y-53500000D01*
D28*
%TO.N,/3V8*%
X70587499Y-40412499D02*
G75*
G03*
X69037511Y-44154531I3742001J-3742001D01*
G01*
X73700000Y-38862500D02*
G75*
G03*
X71032647Y-39967356I0J-3772200D01*
G01*
D27*
%TO.N,GND*%
X105736396Y-52600000D02*
X106400000Y-52600000D01*
D25*
X104341421Y-53358578D02*
X104650000Y-53050000D01*
D24*
%TO.N,Net-(U2-CP_{OUT})*%
X120750000Y-54750000D02*
X120500000Y-54500000D01*
X113392052Y-54250000D02*
X119896446Y-54250000D01*
X106176829Y-53342000D02*
X111199947Y-53342000D01*
X104359099Y-54340900D02*
X104779000Y-53921000D01*
X103975000Y-54500000D02*
X103875000Y-54500000D01*
D27*
%TO.N,GND*%
X107700000Y-52600000D02*
X109200000Y-52600000D01*
X107700000Y-52600000D02*
X106400000Y-52600000D01*
D24*
%TO.N,Net-(U2-SW)*%
X123500000Y-56000000D02*
X120793792Y-53293792D01*
X116946036Y-51700000D02*
X109619420Y-51700000D01*
X104370442Y-51783000D02*
X109419041Y-51783000D01*
D23*
%TO.N,GND*%
X115800000Y-52800000D02*
X116000000Y-53000000D01*
D27*
X115317157Y-52600000D02*
X109200000Y-52600000D01*
D25*
X103600000Y-53500000D02*
X103350000Y-53500000D01*
D26*
X102499999Y-53899999D02*
X102581801Y-53818198D01*
X102100000Y-56000000D02*
X102100000Y-54865685D01*
D28*
%TO.N,/3V8*%
X70587499Y-40412499D02*
X71032645Y-39967354D01*
X75262500Y-38862500D02*
X73700000Y-38862500D01*
X69037500Y-44154531D02*
X69037500Y-66600000D01*
D26*
%TO.N,Net-(U2-LD)*%
X108446538Y-46895376D02*
X103809458Y-46895376D01*
X88700000Y-43450000D02*
X88909777Y-43450000D01*
X109042041Y-47142041D02*
X109967070Y-48067070D01*
X102953319Y-47250000D02*
X92707106Y-47250000D01*
X110313137Y-49391962D02*
X110313137Y-48902549D01*
X90674888Y-45005333D02*
X89267890Y-43598335D01*
X91500000Y-46750000D02*
X91325111Y-46575111D01*
D25*
%TO.N,3V3_ADF*%
X98659188Y-58500000D02*
X122250000Y-58500000D01*
D26*
X94045495Y-58845495D02*
X101434314Y-66234314D01*
D25*
X95400000Y-57150000D02*
X94332842Y-56082842D01*
D26*
X102000000Y-67692893D02*
X102000000Y-67600000D01*
X93250000Y-56925000D02*
X93250000Y-55800000D01*
D25*
X93250000Y-55800000D02*
X93650000Y-55800000D01*
D26*
X103000000Y-70107106D02*
X103000000Y-72000000D01*
D23*
%TO.N,Net-(U2-MUXOUT)*%
X97654415Y-52800000D02*
X93731377Y-52800000D01*
X101434314Y-51234314D02*
X102657537Y-50011091D01*
X103768198Y-48250000D02*
X105965617Y-48250000D01*
X91000000Y-55531326D02*
X91000000Y-57634314D01*
X103000000Y-49018198D02*
X103000000Y-49184314D01*
X106024312Y-48225688D02*
X106048624Y-48201376D01*
X88500000Y-59800000D02*
X89115685Y-59800000D01*
X90166726Y-59364644D02*
X90365685Y-59165685D01*
D26*
%TO.N,Net-(U2-PDB_{RF})*%
X104030037Y-47349376D02*
X107877183Y-47349376D01*
X88500000Y-46500000D02*
X89616116Y-46500000D01*
X103062846Y-47750000D02*
X92633883Y-47750000D01*
X109024688Y-47824688D02*
X109358578Y-48158578D01*
X109500000Y-48700000D02*
X109500000Y-48500000D01*
D23*
%TO.N,Net-(U2-CE)*%
X91203033Y-53631280D02*
X93549708Y-51284605D01*
X90550000Y-55207842D02*
X90550000Y-55375736D01*
X89828337Y-56853032D02*
X90015685Y-56665685D01*
X95544902Y-50763453D02*
X94807881Y-50763453D01*
X88990685Y-57200000D02*
X88500000Y-57200000D01*
%TO.N,Net-(U2-DATA)*%
X89500000Y-51700000D02*
X88500000Y-51700000D01*
X91207106Y-50992892D02*
X91769770Y-50430229D01*
X94619096Y-49250000D02*
X96252837Y-49250000D01*
X96338193Y-49300000D02*
X96313193Y-49275000D01*
%TO.N,Net-(U2-CLK)*%
X88500000Y-49200000D02*
X88525000Y-49225000D01*
X95945142Y-48603211D02*
X95707006Y-48603211D01*
X95352626Y-48750000D02*
X91984924Y-48750000D01*
X88585355Y-49250000D02*
X90777817Y-49250000D01*
%TO.N,Net-(U2-REF_{IN})*%
X95950420Y-45950420D02*
X96116130Y-45784710D01*
X96516189Y-45619000D02*
X105900000Y-45619000D01*
D26*
%TO.N,Net-(C36-Pad2)*%
X81706207Y-83206207D02*
X76950000Y-78450000D01*
X85553963Y-84800000D02*
X97327407Y-84800000D01*
X104697538Y-79683832D02*
X106808059Y-77573312D01*
X101383832Y-82997538D02*
X101175164Y-83206207D01*
X111750000Y-76850000D02*
X112200000Y-77300000D01*
X110663603Y-76400000D02*
X109640686Y-76400000D01*
D25*
%TO.N,Net-(U2-CP_{OUT})*%
X103750000Y-54750000D02*
X103750000Y-54625000D01*
D26*
%TO.N,LO_Buff_EN*%
X97008397Y-37367963D02*
X81486000Y-37367963D01*
X70500000Y-43160660D02*
X70500000Y-58219339D01*
X103966249Y-40250000D02*
X111948069Y-40250000D01*
X71250000Y-60030000D02*
X72000000Y-60780000D01*
X74000000Y-40600000D02*
X73060660Y-40600000D01*
X77414213Y-39185786D02*
X77638244Y-38961755D01*
X114031843Y-41470646D02*
X113421520Y-40860323D01*
D25*
%TO.N,/5V6*%
X74963676Y-36786963D02*
X97249055Y-36786963D01*
X120084500Y-40084500D02*
X120500000Y-40500000D01*
X119081394Y-39669000D02*
X104206907Y-39669000D01*
X74706518Y-36893481D02*
X74600000Y-37000000D01*
D23*
%TO.N,Net-(U2-SW)*%
X103546325Y-52403675D02*
X103496325Y-52403675D01*
X103631680Y-52368319D02*
X103891500Y-52108500D01*
%TD*%
%TA.AperFunction,Conductor*%
%TO.N,GND*%
G36*
X102433576Y-48397185D02*
G01*
X102479331Y-48449989D01*
X102489275Y-48519147D01*
X102481098Y-48548951D01*
X102478487Y-48555255D01*
X102469356Y-48577299D01*
X102422918Y-48750607D01*
X102399500Y-48928479D01*
X102399500Y-49178211D01*
X102398903Y-49190367D01*
X102389768Y-49283102D01*
X102385025Y-49306945D01*
X102359750Y-49390257D01*
X102350447Y-49412714D01*
X102309405Y-49489494D01*
X102295900Y-49509705D01*
X102278978Y-49530324D01*
X102236973Y-49581505D01*
X102236650Y-49581898D01*
X102228493Y-49590897D01*
X102223914Y-49595477D01*
X102223914Y-49595478D01*
X102178967Y-49640421D01*
X102178931Y-49640459D01*
X101033928Y-50785464D01*
X101033926Y-50785466D01*
X101011418Y-50807973D01*
X101007910Y-50811346D01*
X100739679Y-51059296D01*
X100732276Y-51065619D01*
X100447331Y-51290252D01*
X100439454Y-51295975D01*
X100137760Y-51497561D01*
X100129467Y-51502642D01*
X99850101Y-51659096D01*
X99812896Y-51679932D01*
X99804221Y-51684352D01*
X99474704Y-51836262D01*
X99465709Y-51839988D01*
X99125288Y-51965577D01*
X99116028Y-51968585D01*
X98766820Y-52067072D01*
X98757352Y-52069345D01*
X98401485Y-52140132D01*
X98391869Y-52141655D01*
X98031548Y-52184303D01*
X98021842Y-52185067D01*
X97656983Y-52199404D01*
X97652114Y-52199500D01*
X93783410Y-52199500D01*
X93716371Y-52179815D01*
X93670616Y-52127011D01*
X93660672Y-52057853D01*
X93689697Y-51994297D01*
X93695729Y-51987819D01*
X93819434Y-51864114D01*
X93970894Y-51712653D01*
X93978017Y-51706068D01*
X94107577Y-51595415D01*
X94123297Y-51583994D01*
X94264398Y-51497527D01*
X94281709Y-51488706D01*
X94434594Y-51425378D01*
X94453090Y-51419368D01*
X94613991Y-51380738D01*
X94633201Y-51377695D01*
X94802945Y-51364335D01*
X94812675Y-51363953D01*
X94962490Y-51363953D01*
X95029529Y-51383638D01*
X95039805Y-51391008D01*
X95042638Y-51393267D01*
X95042640Y-51393269D01*
X95195380Y-51489242D01*
X95365647Y-51548821D01*
X95365652Y-51548822D01*
X95544898Y-51569018D01*
X95544902Y-51569018D01*
X95544906Y-51569018D01*
X95724151Y-51548822D01*
X95724154Y-51548821D01*
X95724157Y-51548821D01*
X95894424Y-51489242D01*
X96047164Y-51393269D01*
X96174718Y-51265715D01*
X96270691Y-51112975D01*
X96330270Y-50942708D01*
X96330271Y-50942702D01*
X96350467Y-50763456D01*
X96350467Y-50763449D01*
X96330271Y-50584203D01*
X96330269Y-50584193D01*
X96303725Y-50508337D01*
X96300162Y-50438558D01*
X96315771Y-50401410D01*
X96411210Y-50249522D01*
X96442118Y-50161188D01*
X96482839Y-50104414D01*
X96518202Y-50085104D01*
X96687715Y-50025789D01*
X96840455Y-49929816D01*
X96968009Y-49802262D01*
X97063982Y-49649522D01*
X97123561Y-49479255D01*
X97129585Y-49425789D01*
X97143758Y-49300003D01*
X97143758Y-49299996D01*
X97123562Y-49120750D01*
X97123561Y-49120745D01*
X97087679Y-49018200D01*
X97063982Y-48950478D01*
X97063323Y-48949430D01*
X97003412Y-48854082D01*
X96968009Y-48797738D01*
X96840455Y-48670184D01*
X96840453Y-48670182D01*
X96840450Y-48670180D01*
X96802553Y-48646368D01*
X96756261Y-48594034D01*
X96745304Y-48555259D01*
X96740811Y-48515380D01*
X96752867Y-48446560D01*
X96800217Y-48395181D01*
X96864032Y-48377500D01*
X102366537Y-48377500D01*
X102433576Y-48397185D01*
G37*
%TD.AperFunction*%
%TA.AperFunction,Conductor*%
G36*
X74139901Y-57932993D02*
G01*
X74074075Y-58047007D01*
X74040000Y-58174174D01*
X74040000Y-58305826D01*
X74074075Y-58432993D01*
X74139901Y-58547007D01*
X74207894Y-58615000D01*
X72332106Y-58615000D01*
X72400099Y-58547007D01*
X72465925Y-58432993D01*
X72500000Y-58305826D01*
X72500000Y-58174174D01*
X72465925Y-58047007D01*
X72400099Y-57932993D01*
X72332106Y-57865000D01*
X74207894Y-57865000D01*
X74139901Y-57932993D01*
G37*
%TD.AperFunction*%
%TA.AperFunction,Conductor*%
G36*
X72375000Y-45207894D02*
G01*
X72307007Y-45139901D01*
X72192993Y-45074075D01*
X72065826Y-45040000D01*
X71934174Y-45040000D01*
X71807007Y-45074075D01*
X71692993Y-45139901D01*
X71625000Y-45207894D01*
X71625000Y-43332106D01*
X71692993Y-43400099D01*
X71807007Y-43465925D01*
X71934174Y-43500000D01*
X72065826Y-43500000D01*
X72192993Y-43465925D01*
X72307007Y-43400099D01*
X72375000Y-43332106D01*
X72375000Y-45207894D01*
G37*
%TD.AperFunction*%
%TA.AperFunction,Conductor*%
G36*
X78102316Y-37561148D02*
G01*
X78148071Y-37613952D01*
X78158015Y-37683110D01*
X78128990Y-37746666D01*
X78102316Y-37769779D01*
X78022473Y-37821090D01*
X77675432Y-38080884D01*
X77347814Y-38364767D01*
X77347789Y-38364790D01*
X77241348Y-38471232D01*
X77024379Y-38688200D01*
X77024373Y-38688204D01*
X76972414Y-38740165D01*
X76968505Y-38743907D01*
X76704301Y-38986007D01*
X76696015Y-38992961D01*
X76444714Y-39185792D01*
X76379545Y-39210986D01*
X76311100Y-39196948D01*
X76261110Y-39148134D01*
X76245446Y-39080043D01*
X76247612Y-39063215D01*
X76248524Y-39058631D01*
X76253967Y-39003368D01*
X76267841Y-38862500D01*
X76248524Y-38666368D01*
X76191314Y-38477773D01*
X76191311Y-38477769D01*
X76191311Y-38477766D01*
X76098413Y-38303967D01*
X76098409Y-38303960D01*
X75973383Y-38151616D01*
X75821039Y-38026590D01*
X75821032Y-38026586D01*
X75647228Y-37933686D01*
X75513571Y-37893141D01*
X75455133Y-37854844D01*
X75426676Y-37791031D01*
X75437237Y-37721964D01*
X75450605Y-37699765D01*
X75532942Y-37590734D01*
X75589051Y-37549100D01*
X75631895Y-37541463D01*
X78035277Y-37541463D01*
X78102316Y-37561148D01*
G37*
%TD.AperFunction*%
%TA.AperFunction,Conductor*%
G36*
X116948473Y-52391095D02*
G01*
X117313904Y-52405456D01*
X117323577Y-52406217D01*
X117684360Y-52448920D01*
X117693934Y-52450436D01*
X118050265Y-52521317D01*
X118059696Y-52523581D01*
X118409347Y-52622195D01*
X118418576Y-52625193D01*
X118759416Y-52750936D01*
X118768411Y-52754662D01*
X118975635Y-52850194D01*
X119098317Y-52906751D01*
X119106988Y-52911170D01*
X119423937Y-53088671D01*
X119432221Y-53093746D01*
X119719435Y-53285657D01*
X119734286Y-53295580D01*
X119742144Y-53301288D01*
X119785585Y-53335535D01*
X119826044Y-53392494D01*
X119829286Y-53462289D01*
X119794279Y-53522756D01*
X119732139Y-53554699D01*
X119712789Y-53556848D01*
X119675163Y-53558054D01*
X119661765Y-53559000D01*
X113396940Y-53559000D01*
X113387208Y-53558617D01*
X113267416Y-53549186D01*
X113248198Y-53546142D01*
X113136097Y-53519226D01*
X113117592Y-53513213D01*
X113011084Y-53469094D01*
X112993748Y-53460261D01*
X112895448Y-53400021D01*
X112879706Y-53388583D01*
X112788130Y-53310368D01*
X112780982Y-53303760D01*
X112724910Y-53247688D01*
X112724304Y-53247146D01*
X112695617Y-53218456D01*
X112695612Y-53218452D01*
X112695610Y-53218450D01*
X112498823Y-53061503D01*
X112498821Y-53061502D01*
X112498819Y-53061500D01*
X112285704Y-52927578D01*
X112058926Y-52818357D01*
X112058919Y-52818354D01*
X111821346Y-52735215D01*
X111821345Y-52735214D01*
X111821343Y-52735214D01*
X111821340Y-52735213D01*
X111821332Y-52735211D01*
X111575954Y-52679196D01*
X111575949Y-52679195D01*
X111575947Y-52679195D01*
X111325822Y-52651004D01*
X111325820Y-52651003D01*
X111325818Y-52651003D01*
X111274147Y-52651002D01*
X111274103Y-52651000D01*
X111268005Y-52651000D01*
X111199968Y-52651000D01*
X111122111Y-52650998D01*
X111122110Y-52650998D01*
X111115346Y-52650998D01*
X111115310Y-52651000D01*
X109787505Y-52651000D01*
X109720466Y-52631315D01*
X109674711Y-52578511D01*
X109664767Y-52509353D01*
X109693792Y-52445797D01*
X109734966Y-52416097D01*
X109734488Y-52415159D01*
X109755344Y-52404527D01*
X109811661Y-52391000D01*
X116943605Y-52391000D01*
X116948473Y-52391095D01*
G37*
%TD.AperFunction*%
%TA.AperFunction,Conductor*%
G36*
X105618265Y-52493685D02*
G01*
X105664020Y-52546489D01*
X105673964Y-52615647D01*
X105644939Y-52679203D01*
X105586161Y-52716977D01*
X105578818Y-52718891D01*
X105437123Y-52751230D01*
X105437115Y-52751232D01*
X105154292Y-52850194D01*
X104884330Y-52980198D01*
X104884314Y-52980207D01*
X104630600Y-53139625D01*
X104630598Y-53139627D01*
X104617060Y-53150422D01*
X104552372Y-53176826D01*
X104483677Y-53164066D01*
X104432787Y-53116192D01*
X104415858Y-53048404D01*
X104433565Y-52990688D01*
X104433443Y-52990627D01*
X104433810Y-52989888D01*
X104434335Y-52988180D01*
X104435988Y-52985508D01*
X104435998Y-52985496D01*
X104526907Y-52802925D01*
X104582722Y-52606758D01*
X104584594Y-52586557D01*
X104610381Y-52521620D01*
X104667182Y-52480933D01*
X104708065Y-52474000D01*
X105551226Y-52474000D01*
X105618265Y-52493685D01*
G37*
%TD.AperFunction*%
%TA.AperFunction,Conductor*%
G36*
X144809367Y-34502947D02*
G01*
X144825050Y-34504692D01*
X144825071Y-34504469D01*
X144833155Y-34505202D01*
X144833164Y-34505204D01*
X144886389Y-34503050D01*
X144891392Y-34502950D01*
X144921995Y-34502950D01*
X144923894Y-34502967D01*
X145179330Y-34507342D01*
X145193530Y-34508405D01*
X145464370Y-34544423D01*
X145478376Y-34547113D01*
X145743279Y-34613992D01*
X145756885Y-34618273D01*
X146012354Y-34715129D01*
X146025377Y-34720944D01*
X146268039Y-34846498D01*
X146280307Y-34853769D01*
X146506946Y-35006356D01*
X146518288Y-35014981D01*
X146725911Y-35192590D01*
X146736198Y-35202470D01*
X146922038Y-35402732D01*
X146931122Y-35413727D01*
X147092748Y-35634020D01*
X147100510Y-35645986D01*
X147235759Y-35883364D01*
X147242096Y-35896142D01*
X147349198Y-36147494D01*
X147354025Y-36160915D01*
X147430156Y-36418179D01*
X147431553Y-36422898D01*
X147434807Y-36436785D01*
X147481737Y-36705936D01*
X147483375Y-36720104D01*
X147499295Y-36996441D01*
X147499500Y-37003573D01*
X147499500Y-85996249D01*
X147499274Y-86003736D01*
X147481728Y-86293794D01*
X147479923Y-86308659D01*
X147428219Y-86590798D01*
X147424635Y-86605336D01*
X147339306Y-86879167D01*
X147333997Y-86893168D01*
X147216275Y-87154736D01*
X147209316Y-87167995D01*
X147060928Y-87413459D01*
X147052422Y-87425782D01*
X146875526Y-87651573D01*
X146865596Y-87662781D01*
X146662781Y-87865596D01*
X146651573Y-87875526D01*
X146425782Y-88052422D01*
X146413459Y-88060928D01*
X146167995Y-88209316D01*
X146154736Y-88216275D01*
X145893168Y-88333997D01*
X145879167Y-88339306D01*
X145605336Y-88424635D01*
X145590798Y-88428219D01*
X145308659Y-88479923D01*
X145293794Y-88481728D01*
X145003736Y-88499274D01*
X144996249Y-88499500D01*
X66190733Y-88499500D01*
X66175055Y-88497757D01*
X66175035Y-88497980D01*
X66166941Y-88497246D01*
X66166935Y-88497246D01*
X66113704Y-88499399D01*
X66108695Y-88499500D01*
X66078287Y-88499500D01*
X66076164Y-88499482D01*
X66063077Y-88499257D01*
X65820498Y-88495103D01*
X65806275Y-88494039D01*
X65535166Y-88457984D01*
X65521160Y-88455294D01*
X65255984Y-88388346D01*
X65242378Y-88384065D01*
X64986641Y-88287108D01*
X64973618Y-88281293D01*
X64730717Y-88155616D01*
X64718446Y-88148343D01*
X64491571Y-87995594D01*
X64480218Y-87986962D01*
X64338342Y-87865596D01*
X64272386Y-87809174D01*
X64262102Y-87799297D01*
X64076066Y-87598823D01*
X64066982Y-87587828D01*
X63905197Y-87367318D01*
X63897435Y-87355352D01*
X63790685Y-87167995D01*
X63762037Y-87117715D01*
X63755706Y-87104947D01*
X63648494Y-86853333D01*
X63643670Y-86839922D01*
X63566055Y-86577650D01*
X63562806Y-86563782D01*
X63515825Y-86294341D01*
X63514188Y-86280175D01*
X63500705Y-86046121D01*
X63500500Y-86038990D01*
X63500500Y-85900000D01*
X119451920Y-85900000D01*
X119472211Y-86157820D01*
X119532582Y-86409285D01*
X119631549Y-86648213D01*
X119703707Y-86765962D01*
X120255839Y-86213830D01*
X120302430Y-86326310D01*
X120400924Y-86473717D01*
X120526283Y-86599076D01*
X120673690Y-86697570D01*
X120786168Y-86744160D01*
X120234036Y-87296291D01*
X120234036Y-87296292D01*
X120351786Y-87368450D01*
X120590714Y-87467417D01*
X120842179Y-87527788D01*
X121100000Y-87548079D01*
X121357820Y-87527788D01*
X121609285Y-87467417D01*
X121848209Y-87368451D01*
X121965961Y-87296291D01*
X121413830Y-86744160D01*
X121526310Y-86697570D01*
X121673717Y-86599076D01*
X121799076Y-86473717D01*
X121897570Y-86326310D01*
X121944160Y-86213830D01*
X122496291Y-86765961D01*
X122568451Y-86648209D01*
X122667417Y-86409285D01*
X122727788Y-86157820D01*
X122748079Y-85900000D01*
X122727788Y-85642179D01*
X122667417Y-85390714D01*
X122568450Y-85151786D01*
X122496291Y-85034036D01*
X121944160Y-85586168D01*
X121897570Y-85473690D01*
X121799076Y-85326283D01*
X121673717Y-85200924D01*
X121526310Y-85102430D01*
X121413830Y-85055839D01*
X121965962Y-84503707D01*
X121848213Y-84431549D01*
X121609285Y-84332582D01*
X121357820Y-84272211D01*
X121100000Y-84251920D01*
X120842179Y-84272211D01*
X120590714Y-84332582D01*
X120351786Y-84431549D01*
X120234036Y-84503707D01*
X120786169Y-85055839D01*
X120673690Y-85102430D01*
X120526283Y-85200924D01*
X120400924Y-85326283D01*
X120302430Y-85473690D01*
X120255839Y-85586168D01*
X119703707Y-85034036D01*
X119631549Y-85151786D01*
X119532582Y-85390714D01*
X119472211Y-85642179D01*
X119451920Y-85900000D01*
X63500500Y-85900000D01*
X63500500Y-78449996D01*
X76144435Y-78449996D01*
X76144435Y-78450003D01*
X76164630Y-78629249D01*
X76164631Y-78629254D01*
X76224211Y-78799523D01*
X76244520Y-78831844D01*
X76320184Y-78952262D01*
X76447738Y-79079816D01*
X76600478Y-79175789D01*
X76770745Y-79235368D01*
X76814635Y-79240313D01*
X76879048Y-79267378D01*
X76888433Y-79275852D01*
X81310661Y-83698081D01*
X81310831Y-83698234D01*
X81415776Y-83803179D01*
X81543823Y-83914132D01*
X81743410Y-84087076D01*
X82090442Y-84346860D01*
X82090447Y-84346863D01*
X82455141Y-84581238D01*
X82835625Y-84788999D01*
X83229961Y-84969087D01*
X83636140Y-85120585D01*
X83909746Y-85200924D01*
X84052093Y-85242722D01*
X84475690Y-85334872D01*
X84475694Y-85334872D01*
X84475696Y-85334873D01*
X84904795Y-85396570D01*
X85306273Y-85425286D01*
X85337202Y-85427499D01*
X85337203Y-85427499D01*
X85477718Y-85427499D01*
X85477726Y-85427500D01*
X85492160Y-85427500D01*
X85553959Y-85427500D01*
X85630151Y-85427501D01*
X85630155Y-85427500D01*
X97251215Y-85427500D01*
X97327408Y-85427500D01*
X97389210Y-85427500D01*
X97395232Y-85427500D01*
X97395435Y-85427490D01*
X97544164Y-85427490D01*
X97976572Y-85396564D01*
X98405672Y-85334868D01*
X98405673Y-85334867D01*
X98405678Y-85334867D01*
X98829269Y-85242721D01*
X98829272Y-85242720D01*
X98829277Y-85242719D01*
X99138968Y-85151786D01*
X99245213Y-85120590D01*
X99245216Y-85120588D01*
X99245229Y-85120585D01*
X99651409Y-84969088D01*
X100045746Y-84789002D01*
X100426232Y-84581243D01*
X100790926Y-84346869D01*
X101137972Y-84087077D01*
X101465600Y-83803188D01*
X101575171Y-83693618D01*
X101575173Y-83693617D01*
X101643752Y-83625038D01*
X101672748Y-83596043D01*
X101672749Y-83596041D01*
X101679808Y-83588982D01*
X101679814Y-83588975D01*
X101871244Y-83397545D01*
X105184949Y-80083840D01*
X105243508Y-80025281D01*
X105243521Y-80025266D01*
X107187685Y-78081103D01*
X107187695Y-78081096D01*
X107226726Y-78042064D01*
X107249627Y-78019162D01*
X107253994Y-78015004D01*
X107492925Y-77798447D01*
X107502306Y-77790747D01*
X107758839Y-77600485D01*
X107768945Y-77593732D01*
X108042895Y-77429530D01*
X108053597Y-77423810D01*
X108342318Y-77287253D01*
X108353539Y-77282605D01*
X108654259Y-77175004D01*
X108665861Y-77171484D01*
X108975699Y-77093872D01*
X108987590Y-77091507D01*
X109303519Y-77044641D01*
X109315621Y-77043449D01*
X109637228Y-77027648D01*
X109643313Y-77027500D01*
X109716881Y-77027500D01*
X110587409Y-77027500D01*
X110658727Y-77027500D01*
X110668455Y-77027881D01*
X110796057Y-77037924D01*
X110815272Y-77040967D01*
X110826853Y-77043748D01*
X110934979Y-77069707D01*
X110953483Y-77075720D01*
X110997319Y-77093877D01*
X111067216Y-77122829D01*
X111084547Y-77131659D01*
X111187799Y-77194933D01*
X111189519Y-77195987D01*
X111205260Y-77207424D01*
X111302602Y-77290562D01*
X111309751Y-77297171D01*
X111367231Y-77354651D01*
X111367237Y-77354656D01*
X111374146Y-77361565D01*
X111407631Y-77422888D01*
X111409685Y-77435361D01*
X111414630Y-77479249D01*
X111474210Y-77649521D01*
X111483705Y-77664632D01*
X111570184Y-77802262D01*
X111697738Y-77929816D01*
X111726259Y-77947737D01*
X111848959Y-78024835D01*
X111850478Y-78025789D01*
X111979381Y-78070894D01*
X112020745Y-78085368D01*
X112020750Y-78085369D01*
X112199996Y-78105565D01*
X112200000Y-78105565D01*
X112200004Y-78105565D01*
X112379249Y-78085369D01*
X112379252Y-78085368D01*
X112379255Y-78085368D01*
X112549522Y-78025789D01*
X112702262Y-77929816D01*
X112829816Y-77802262D01*
X112925789Y-77649522D01*
X112985368Y-77479255D01*
X112991719Y-77422888D01*
X113005565Y-77300003D01*
X113005565Y-77299996D01*
X112985369Y-77120750D01*
X112985368Y-77120745D01*
X112975136Y-77091503D01*
X112925789Y-76950478D01*
X112829816Y-76797738D01*
X112702262Y-76670184D01*
X112594165Y-76602262D01*
X112549521Y-76574210D01*
X112379249Y-76514630D01*
X112335361Y-76509685D01*
X112270947Y-76482617D01*
X112261565Y-76474146D01*
X112254656Y-76467237D01*
X112254654Y-76467234D01*
X112176272Y-76388852D01*
X112176268Y-76388849D01*
X112150008Y-76362589D01*
X112150007Y-76362588D01*
X112145676Y-76358257D01*
X112145660Y-76358243D01*
X112107783Y-76320364D01*
X112022434Y-76252301D01*
X111917761Y-76168827D01*
X111808217Y-76099996D01*
X119794435Y-76099996D01*
X119794435Y-76100003D01*
X119814630Y-76279249D01*
X119814631Y-76279254D01*
X119874211Y-76449523D01*
X119908962Y-76504828D01*
X119970184Y-76602262D01*
X120097738Y-76729816D01*
X120188080Y-76786582D01*
X120205833Y-76797737D01*
X120250478Y-76825789D01*
X120420745Y-76885368D01*
X120420750Y-76885369D01*
X120599996Y-76905565D01*
X120600000Y-76905565D01*
X120600004Y-76905565D01*
X120779249Y-76885369D01*
X120779252Y-76885368D01*
X120779255Y-76885368D01*
X120949522Y-76825789D01*
X121102262Y-76729816D01*
X121229816Y-76602262D01*
X121325789Y-76449522D01*
X121385368Y-76279255D01*
X121397810Y-76168827D01*
X121405565Y-76100003D01*
X121405565Y-76099996D01*
X121385369Y-75920750D01*
X121385368Y-75920745D01*
X121361941Y-75853794D01*
X121325789Y-75750478D01*
X121229816Y-75597738D01*
X121102262Y-75470184D01*
X120949523Y-75374211D01*
X120779254Y-75314631D01*
X120779249Y-75314630D01*
X120600004Y-75294435D01*
X120599996Y-75294435D01*
X120420750Y-75314630D01*
X120420745Y-75314631D01*
X120250476Y-75374211D01*
X120097737Y-75470184D01*
X119970184Y-75597737D01*
X119874211Y-75750476D01*
X119814631Y-75920745D01*
X119814630Y-75920750D01*
X119794435Y-76099996D01*
X111808217Y-76099996D01*
X111711970Y-76039520D01*
X111711967Y-76039518D01*
X111492999Y-75934068D01*
X111263602Y-75853798D01*
X111263590Y-75853794D01*
X111061835Y-75807745D01*
X111026641Y-75799712D01*
X111026638Y-75799711D01*
X111026626Y-75799709D01*
X110909093Y-75786467D01*
X110844679Y-75759401D01*
X110805123Y-75701806D01*
X110802986Y-75631969D01*
X110838944Y-75572062D01*
X110857000Y-75558255D01*
X110902262Y-75529816D01*
X111029816Y-75402262D01*
X111125789Y-75249522D01*
X111185368Y-75079255D01*
X111192942Y-75012033D01*
X111205565Y-74900003D01*
X111205565Y-74899996D01*
X111185369Y-74720750D01*
X111185368Y-74720745D01*
X111125789Y-74550478D01*
X111029816Y-74397738D01*
X110902262Y-74270184D01*
X110749523Y-74174211D01*
X110579254Y-74114631D01*
X110579249Y-74114630D01*
X110400004Y-74094435D01*
X110399996Y-74094435D01*
X110220750Y-74114630D01*
X110220745Y-74114631D01*
X110050476Y-74174211D01*
X109897737Y-74270184D01*
X109770184Y-74397737D01*
X109674211Y-74550476D01*
X109614631Y-74720745D01*
X109614630Y-74720750D01*
X109594435Y-74899996D01*
X109594435Y-74900003D01*
X109614630Y-75079249D01*
X109614631Y-75079254D01*
X109674211Y-75249523D01*
X109715122Y-75314632D01*
X109770184Y-75402262D01*
X109897738Y-75529816D01*
X109919526Y-75543506D01*
X109965817Y-75595841D01*
X109976465Y-75664894D01*
X109948090Y-75728743D01*
X109889701Y-75767115D01*
X109853554Y-75772500D01*
X109692067Y-75772500D01*
X109691995Y-75772479D01*
X109438382Y-75772479D01*
X109438381Y-75772480D01*
X109035316Y-75807745D01*
X108636870Y-75878004D01*
X108636863Y-75878005D01*
X108322700Y-75962187D01*
X108246051Y-75982726D01*
X108246048Y-75982727D01*
X108246046Y-75982727D01*
X107865849Y-76121111D01*
X107499153Y-76292106D01*
X107148758Y-76494411D01*
X106817334Y-76726481D01*
X106507396Y-76986554D01*
X106408052Y-77085900D01*
X106408051Y-77085901D01*
X104280089Y-79213861D01*
X104280088Y-79213862D01*
X100983823Y-82510128D01*
X100785333Y-82708619D01*
X100785332Y-82708620D01*
X100733194Y-82760757D01*
X100729685Y-82764132D01*
X100457449Y-83015781D01*
X100450045Y-83022104D01*
X100160869Y-83250070D01*
X100152992Y-83255792D01*
X99846793Y-83460386D01*
X99838492Y-83465474D01*
X99517183Y-83645414D01*
X99508508Y-83649834D01*
X99174090Y-83804002D01*
X99165094Y-83807728D01*
X98819602Y-83935186D01*
X98810342Y-83938195D01*
X98455901Y-84038157D01*
X98446434Y-84040429D01*
X98085266Y-84112270D01*
X98075650Y-84113793D01*
X97709951Y-84157077D01*
X97700244Y-84157841D01*
X97329579Y-84172404D01*
X97324711Y-84172500D01*
X85556393Y-84172500D01*
X85551524Y-84172404D01*
X85181129Y-84157848D01*
X85171423Y-84157084D01*
X84805726Y-84113800D01*
X84796109Y-84112277D01*
X84434927Y-84040431D01*
X84425460Y-84038158D01*
X84425456Y-84038157D01*
X84071043Y-83938200D01*
X84061784Y-83935193D01*
X83716282Y-83807729D01*
X83707287Y-83804003D01*
X83372852Y-83649826D01*
X83364177Y-83645405D01*
X83042892Y-83465476D01*
X83034590Y-83460389D01*
X82728393Y-83255795D01*
X82720516Y-83250072D01*
X82431319Y-83022087D01*
X82423916Y-83015764D01*
X82151507Y-82763953D01*
X82147997Y-82760578D01*
X77775852Y-78388433D01*
X77742367Y-78327110D01*
X77740314Y-78314648D01*
X77735368Y-78270745D01*
X77675789Y-78100478D01*
X77666295Y-78085369D01*
X77624708Y-78019183D01*
X77579816Y-77947738D01*
X77452262Y-77820184D01*
X77299523Y-77724211D01*
X77129254Y-77664631D01*
X77129249Y-77664630D01*
X76950004Y-77644435D01*
X76949996Y-77644435D01*
X76770750Y-77664630D01*
X76770745Y-77664631D01*
X76600476Y-77724211D01*
X76447737Y-77820184D01*
X76320184Y-77947737D01*
X76224211Y-78100476D01*
X76164631Y-78270745D01*
X76164630Y-78270750D01*
X76144435Y-78449996D01*
X63500500Y-78449996D01*
X63500500Y-72699997D01*
X84944723Y-72699997D01*
X84944723Y-72700002D01*
X84963793Y-72917975D01*
X84963793Y-72917979D01*
X85020422Y-73129322D01*
X85020424Y-73129326D01*
X85020425Y-73129330D01*
X85058041Y-73209998D01*
X85112897Y-73327638D01*
X85112898Y-73327639D01*
X85218797Y-73478878D01*
X85241123Y-73545081D01*
X85224113Y-73612849D01*
X85218796Y-73621122D01*
X85112900Y-73772357D01*
X85112898Y-73772361D01*
X85020426Y-73970668D01*
X85020422Y-73970677D01*
X84963793Y-74182020D01*
X84963793Y-74182023D01*
X84961866Y-74204047D01*
X84944723Y-74399997D01*
X84944723Y-74400002D01*
X84963793Y-74617975D01*
X84963793Y-74617979D01*
X85020422Y-74829322D01*
X85020424Y-74829326D01*
X85020425Y-74829330D01*
X85060539Y-74915354D01*
X85112897Y-75027638D01*
X85112898Y-75027639D01*
X85238402Y-75206877D01*
X85393123Y-75361598D01*
X85572361Y-75487102D01*
X85770670Y-75579575D01*
X85982023Y-75636207D01*
X86164926Y-75652208D01*
X86199998Y-75655277D01*
X86200000Y-75655277D01*
X86200002Y-75655277D01*
X86228254Y-75652805D01*
X86417977Y-75636207D01*
X86629330Y-75579575D01*
X86827639Y-75487102D01*
X87006877Y-75361598D01*
X87161598Y-75206877D01*
X87287102Y-75027639D01*
X87379575Y-74829330D01*
X87436207Y-74617977D01*
X87455277Y-74400000D01*
X87436207Y-74182023D01*
X87379575Y-73970670D01*
X87287102Y-73772362D01*
X87287100Y-73772359D01*
X87287099Y-73772357D01*
X87181203Y-73621122D01*
X87158876Y-73554916D01*
X87175886Y-73487149D01*
X87181190Y-73478896D01*
X87287102Y-73327639D01*
X87341959Y-73209998D01*
X92085223Y-73209998D01*
X92085223Y-73210001D01*
X92104306Y-73476810D01*
X92104307Y-73476817D01*
X92161163Y-73738181D01*
X92254643Y-73988812D01*
X92254645Y-73988816D01*
X92382833Y-74223575D01*
X92397072Y-74242596D01*
X93154107Y-73485561D01*
X93206740Y-73612626D01*
X93299762Y-73751844D01*
X93418156Y-73870238D01*
X93557374Y-73963260D01*
X93684437Y-74015891D01*
X92927401Y-74772926D01*
X92946423Y-74787166D01*
X93181183Y-74915354D01*
X93181187Y-74915356D01*
X93431818Y-75008836D01*
X93693182Y-75065692D01*
X93693189Y-75065693D01*
X93959999Y-75084777D01*
X93960001Y-75084777D01*
X94226810Y-75065693D01*
X94226817Y-75065692D01*
X94488181Y-75008836D01*
X94738812Y-74915356D01*
X94738816Y-74915354D01*
X94889912Y-74832849D01*
X94958184Y-74817997D01*
X95023649Y-74842413D01*
X95065521Y-74898347D01*
X95070505Y-74968038D01*
X95055071Y-75006463D01*
X95051659Y-75012030D01*
X95051656Y-75012036D01*
X94954049Y-75247681D01*
X94954044Y-75247698D01*
X94894502Y-75495710D01*
X94874489Y-75750000D01*
X94894502Y-76004289D01*
X94954044Y-76252301D01*
X94954049Y-76252318D01*
X95051656Y-76487963D01*
X95051658Y-76487966D01*
X95055068Y-76493531D01*
X95073310Y-76560977D01*
X95052193Y-76627579D01*
X94998420Y-76672191D01*
X94929064Y-76680649D01*
X94889912Y-76667150D01*
X94738816Y-76584645D01*
X94738812Y-76584643D01*
X94488181Y-76491163D01*
X94226817Y-76434307D01*
X94226810Y-76434306D01*
X93960001Y-76415223D01*
X93959999Y-76415223D01*
X93693189Y-76434306D01*
X93693182Y-76434307D01*
X93431818Y-76491163D01*
X93181187Y-76584643D01*
X93181183Y-76584645D01*
X92946418Y-76712837D01*
X92946415Y-76712839D01*
X92927402Y-76727071D01*
X92927401Y-76727072D01*
X93684437Y-77484108D01*
X93557374Y-77536740D01*
X93418156Y-77629762D01*
X93299762Y-77748156D01*
X93206740Y-77887374D01*
X93154108Y-78014437D01*
X92397072Y-77257401D01*
X92397071Y-77257402D01*
X92382839Y-77276415D01*
X92382837Y-77276418D01*
X92254645Y-77511183D01*
X92254643Y-77511187D01*
X92161163Y-77761818D01*
X92104307Y-78023182D01*
X92104306Y-78023189D01*
X92085223Y-78289998D01*
X92085223Y-78290001D01*
X92104306Y-78556810D01*
X92104307Y-78556817D01*
X92161163Y-78818181D01*
X92254643Y-79068812D01*
X92254645Y-79068816D01*
X92382833Y-79303575D01*
X92397072Y-79322596D01*
X93154107Y-78565561D01*
X93206740Y-78692626D01*
X93299762Y-78831844D01*
X93418156Y-78950238D01*
X93557374Y-79043260D01*
X93684437Y-79095891D01*
X92927401Y-79852926D01*
X92946423Y-79867166D01*
X93181183Y-79995354D01*
X93181187Y-79995356D01*
X93431818Y-80088836D01*
X93693182Y-80145692D01*
X93693189Y-80145693D01*
X93959999Y-80164777D01*
X93960001Y-80164777D01*
X94226810Y-80145693D01*
X94226817Y-80145692D01*
X94488181Y-80088836D01*
X94738812Y-79995356D01*
X94738816Y-79995354D01*
X94973582Y-79867162D01*
X94992597Y-79852927D01*
X94235561Y-79095891D01*
X94362626Y-79043260D01*
X94501844Y-78950238D01*
X94620238Y-78831844D01*
X94713260Y-78692626D01*
X94765891Y-78565561D01*
X95522927Y-79322597D01*
X95537162Y-79303582D01*
X95665354Y-79068816D01*
X95665356Y-79068812D01*
X95758836Y-78818181D01*
X95815692Y-78556817D01*
X95815693Y-78556810D01*
X95834777Y-78290001D01*
X95834777Y-78289998D01*
X95815693Y-78023189D01*
X95815692Y-78023182D01*
X95758836Y-77761818D01*
X95665356Y-77511187D01*
X95665354Y-77511183D01*
X95582849Y-77360087D01*
X95567997Y-77291814D01*
X95592414Y-77226350D01*
X95648347Y-77184478D01*
X95718039Y-77179494D01*
X95756471Y-77194933D01*
X95762033Y-77198341D01*
X95762036Y-77198343D01*
X95997681Y-77295950D01*
X95997683Y-77295950D01*
X95997689Y-77295953D01*
X96245714Y-77355498D01*
X96500000Y-77375511D01*
X96754286Y-77355498D01*
X97002311Y-77295953D01*
X97109459Y-77251571D01*
X97237963Y-77198343D01*
X97237964Y-77198341D01*
X97237967Y-77198341D01*
X97243523Y-77194935D01*
X97310968Y-77176688D01*
X97377571Y-77197801D01*
X97422187Y-77251571D01*
X97430651Y-77320926D01*
X97417150Y-77360087D01*
X97334645Y-77511183D01*
X97334643Y-77511187D01*
X97241163Y-77761818D01*
X97184307Y-78023182D01*
X97184306Y-78023189D01*
X97165223Y-78289998D01*
X97165223Y-78290001D01*
X97184306Y-78556810D01*
X97184307Y-78556817D01*
X97241163Y-78818181D01*
X97334643Y-79068812D01*
X97334645Y-79068816D01*
X97462833Y-79303575D01*
X97477072Y-79322596D01*
X98234107Y-78565561D01*
X98286740Y-78692626D01*
X98379762Y-78831844D01*
X98498156Y-78950238D01*
X98637374Y-79043260D01*
X98764437Y-79095891D01*
X98007401Y-79852926D01*
X98026423Y-79867166D01*
X98261183Y-79995354D01*
X98261187Y-79995356D01*
X98511818Y-80088836D01*
X98773182Y-80145692D01*
X98773189Y-80145693D01*
X99039999Y-80164777D01*
X99040001Y-80164777D01*
X99306810Y-80145693D01*
X99306817Y-80145692D01*
X99568181Y-80088836D01*
X99818812Y-79995356D01*
X99818816Y-79995354D01*
X100053582Y-79867162D01*
X100072597Y-79852927D01*
X99315561Y-79095891D01*
X99442626Y-79043260D01*
X99581844Y-78950238D01*
X99700238Y-78831844D01*
X99793260Y-78692626D01*
X99845891Y-78565561D01*
X100602927Y-79322597D01*
X100617162Y-79303582D01*
X100745354Y-79068816D01*
X100745356Y-79068812D01*
X100838836Y-78818181D01*
X100895692Y-78556817D01*
X100895693Y-78556810D01*
X100914777Y-78290001D01*
X100914777Y-78289998D01*
X100895693Y-78023189D01*
X100895692Y-78023182D01*
X100838836Y-77761818D01*
X100745356Y-77511187D01*
X100745354Y-77511183D01*
X100617166Y-77276424D01*
X100617166Y-77276423D01*
X100602926Y-77257401D01*
X99845891Y-78014436D01*
X99793260Y-77887374D01*
X99700238Y-77748156D01*
X99581844Y-77629762D01*
X99442626Y-77536740D01*
X99315561Y-77484107D01*
X100072596Y-76727072D01*
X100053575Y-76712833D01*
X99818816Y-76584645D01*
X99818812Y-76584643D01*
X99568181Y-76491163D01*
X99306817Y-76434307D01*
X99306810Y-76434306D01*
X99040001Y-76415223D01*
X99039999Y-76415223D01*
X98773189Y-76434306D01*
X98773182Y-76434307D01*
X98511818Y-76491163D01*
X98261187Y-76584643D01*
X98261183Y-76584645D01*
X98110087Y-76667150D01*
X98041814Y-76682002D01*
X97976349Y-76657585D01*
X97934478Y-76601651D01*
X97929494Y-76531960D01*
X97944936Y-76493523D01*
X97948343Y-76487963D01*
X98045950Y-76252318D01*
X98045949Y-76252318D01*
X98045953Y-76252311D01*
X98105498Y-76004286D01*
X98125511Y-75750000D01*
X98105498Y-75495714D01*
X98045953Y-75247689D01*
X97978473Y-75084777D01*
X97948343Y-75012036D01*
X97948341Y-75012033D01*
X97944933Y-75006471D01*
X97926688Y-74939025D01*
X97947804Y-74872423D01*
X98001576Y-74827809D01*
X98070932Y-74819349D01*
X98110087Y-74832849D01*
X98261183Y-74915354D01*
X98261187Y-74915356D01*
X98511818Y-75008836D01*
X98773182Y-75065692D01*
X98773189Y-75065693D01*
X99039999Y-75084777D01*
X99040001Y-75084777D01*
X99306810Y-75065693D01*
X99306817Y-75065692D01*
X99568181Y-75008836D01*
X99818812Y-74915356D01*
X99818816Y-74915354D01*
X100053582Y-74787162D01*
X100072597Y-74772927D01*
X99315561Y-74015891D01*
X99442626Y-73963260D01*
X99581844Y-73870238D01*
X99700238Y-73751844D01*
X99793260Y-73612626D01*
X99845891Y-73485561D01*
X100602927Y-74242597D01*
X100617162Y-74223582D01*
X100745354Y-73988816D01*
X100745356Y-73988812D01*
X100838836Y-73738181D01*
X100895692Y-73476817D01*
X100895693Y-73476810D01*
X100914777Y-73210001D01*
X100914777Y-73209998D01*
X100895693Y-72943189D01*
X100895692Y-72943182D01*
X100838836Y-72681818D01*
X100745356Y-72431187D01*
X100745354Y-72431183D01*
X100617166Y-72196424D01*
X100617166Y-72196423D01*
X100602926Y-72177401D01*
X99845891Y-72934436D01*
X99793260Y-72807374D01*
X99700238Y-72668156D01*
X99581844Y-72549762D01*
X99442626Y-72456740D01*
X99315562Y-72404108D01*
X100072597Y-71647072D01*
X100053575Y-71632833D01*
X99818816Y-71504645D01*
X99818812Y-71504643D01*
X99568181Y-71411163D01*
X99306817Y-71354307D01*
X99306810Y-71354306D01*
X99040001Y-71335223D01*
X99039999Y-71335223D01*
X98773189Y-71354306D01*
X98773182Y-71354307D01*
X98511818Y-71411163D01*
X98261187Y-71504643D01*
X98261183Y-71504645D01*
X98026418Y-71632837D01*
X98026415Y-71632839D01*
X98007402Y-71647071D01*
X98007401Y-71647072D01*
X98764437Y-72404108D01*
X98637374Y-72456740D01*
X98498156Y-72549762D01*
X98379762Y-72668156D01*
X98286740Y-72807374D01*
X98234108Y-72934437D01*
X97477072Y-72177401D01*
X97477071Y-72177402D01*
X97462839Y-72196415D01*
X97462837Y-72196418D01*
X97334645Y-72431183D01*
X97334643Y-72431187D01*
X97241163Y-72681818D01*
X97184307Y-72943182D01*
X97184306Y-72943189D01*
X97165223Y-73209998D01*
X97165223Y-73210001D01*
X97184306Y-73476810D01*
X97184307Y-73476817D01*
X97241163Y-73738181D01*
X97334643Y-73988812D01*
X97334645Y-73988816D01*
X97417150Y-74139912D01*
X97432002Y-74208185D01*
X97407585Y-74273649D01*
X97351652Y-74315521D01*
X97281960Y-74320505D01*
X97243531Y-74305068D01*
X97237966Y-74301658D01*
X97237963Y-74301656D01*
X97002318Y-74204049D01*
X97002301Y-74204044D01*
X96754289Y-74144502D01*
X96500000Y-74124489D01*
X96245710Y-74144502D01*
X95997698Y-74204044D01*
X95997681Y-74204049D01*
X95762036Y-74301656D01*
X95762030Y-74301659D01*
X95756463Y-74305071D01*
X95689016Y-74323310D01*
X95622415Y-74302190D01*
X95577806Y-74248414D01*
X95569351Y-74179058D01*
X95582849Y-74139912D01*
X95665354Y-73988816D01*
X95665356Y-73988812D01*
X95758836Y-73738181D01*
X95815692Y-73476817D01*
X95815693Y-73476810D01*
X95834777Y-73210001D01*
X95834777Y-73209998D01*
X95815693Y-72943189D01*
X95815692Y-72943182D01*
X95758836Y-72681818D01*
X95665356Y-72431187D01*
X95665354Y-72431183D01*
X95537166Y-72196424D01*
X95537166Y-72196423D01*
X95522926Y-72177401D01*
X94765891Y-72934437D01*
X94713260Y-72807374D01*
X94620238Y-72668156D01*
X94501844Y-72549762D01*
X94362626Y-72456740D01*
X94235562Y-72404108D01*
X94992597Y-71647072D01*
X94973575Y-71632833D01*
X94738816Y-71504645D01*
X94738812Y-71504643D01*
X94488181Y-71411163D01*
X94226817Y-71354307D01*
X94226810Y-71354306D01*
X93960001Y-71335223D01*
X93959999Y-71335223D01*
X93693189Y-71354306D01*
X93693182Y-71354307D01*
X93431818Y-71411163D01*
X93181187Y-71504643D01*
X93181183Y-71504645D01*
X92946418Y-71632837D01*
X92946415Y-71632839D01*
X92927402Y-71647071D01*
X92927401Y-71647072D01*
X93684437Y-72404108D01*
X93557374Y-72456740D01*
X93418156Y-72549762D01*
X93299762Y-72668156D01*
X93206740Y-72807374D01*
X93154108Y-72934437D01*
X92397072Y-72177401D01*
X92397071Y-72177402D01*
X92382839Y-72196415D01*
X92382837Y-72196418D01*
X92254645Y-72431183D01*
X92254643Y-72431187D01*
X92161163Y-72681818D01*
X92104307Y-72943182D01*
X92104306Y-72943189D01*
X92085223Y-73209998D01*
X87341959Y-73209998D01*
X87379575Y-73129330D01*
X87436207Y-72917977D01*
X87455277Y-72700000D01*
X87453498Y-72679670D01*
X87442133Y-72549762D01*
X87436207Y-72482023D01*
X87379575Y-72270670D01*
X87287102Y-72072362D01*
X87287100Y-72072359D01*
X87287099Y-72072357D01*
X87161599Y-71893124D01*
X87089220Y-71820745D01*
X87006877Y-71738402D01*
X86827639Y-71612898D01*
X86827640Y-71612898D01*
X86827638Y-71612897D01*
X86728484Y-71566661D01*
X86629330Y-71520425D01*
X86629326Y-71520424D01*
X86629322Y-71520422D01*
X86417977Y-71463793D01*
X86200002Y-71444723D01*
X86199998Y-71444723D01*
X86054682Y-71457436D01*
X85982023Y-71463793D01*
X85982020Y-71463793D01*
X85770677Y-71520422D01*
X85770668Y-71520426D01*
X85572361Y-71612898D01*
X85572357Y-71612900D01*
X85393121Y-71738402D01*
X85238402Y-71893121D01*
X85112900Y-72072357D01*
X85112898Y-72072361D01*
X85020426Y-72270668D01*
X85020422Y-72270677D01*
X84963793Y-72482020D01*
X84963793Y-72482024D01*
X84944723Y-72699997D01*
X63500500Y-72699997D01*
X63500500Y-69399996D01*
X84094435Y-69399996D01*
X84094435Y-69400003D01*
X84114630Y-69579249D01*
X84114631Y-69579254D01*
X84174211Y-69749523D01*
X84270184Y-69902262D01*
X84398514Y-70030592D01*
X84431999Y-70091915D01*
X84427015Y-70161607D01*
X84415827Y-70184244D01*
X84374212Y-70250474D01*
X84314631Y-70420745D01*
X84314630Y-70420750D01*
X84294435Y-70599996D01*
X84294435Y-70600003D01*
X84314630Y-70779249D01*
X84314631Y-70779254D01*
X84374211Y-70949523D01*
X84470184Y-71102262D01*
X84597738Y-71229816D01*
X84750478Y-71325789D01*
X84831975Y-71354306D01*
X84920745Y-71385368D01*
X84920750Y-71385369D01*
X85099996Y-71405565D01*
X85100000Y-71405565D01*
X85100004Y-71405565D01*
X85279249Y-71385369D01*
X85279252Y-71385368D01*
X85279255Y-71385368D01*
X85449522Y-71325789D01*
X85602262Y-71229816D01*
X85729816Y-71102262D01*
X85825789Y-70949522D01*
X85885368Y-70779255D01*
X85905565Y-70600000D01*
X85885368Y-70420745D01*
X85825789Y-70250478D01*
X85825786Y-70250474D01*
X85784171Y-70184244D01*
X85729816Y-70097738D01*
X85602262Y-69970184D01*
X85601485Y-69969407D01*
X85568000Y-69908084D01*
X85572984Y-69838392D01*
X85584173Y-69815753D01*
X85625788Y-69749524D01*
X85625789Y-69749522D01*
X85685368Y-69579255D01*
X85685369Y-69579249D01*
X85705565Y-69400003D01*
X85705565Y-69399996D01*
X85685369Y-69220750D01*
X85685368Y-69220745D01*
X85625788Y-69050476D01*
X85529815Y-68897737D01*
X85402262Y-68770184D01*
X85249523Y-68674211D01*
X85079254Y-68614631D01*
X85079249Y-68614630D01*
X84900004Y-68594435D01*
X84899996Y-68594435D01*
X84720750Y-68614630D01*
X84720745Y-68614631D01*
X84550476Y-68674211D01*
X84397737Y-68770184D01*
X84270184Y-68897737D01*
X84174211Y-69050476D01*
X84114631Y-69220745D01*
X84114630Y-69220750D01*
X84094435Y-69399996D01*
X63500500Y-69399996D01*
X63500500Y-66600000D01*
X68032159Y-66600000D01*
X68051475Y-66796129D01*
X68108688Y-66984733D01*
X68201586Y-67158532D01*
X68201590Y-67158539D01*
X68326616Y-67310883D01*
X68478960Y-67435909D01*
X68478967Y-67435913D01*
X68652766Y-67528811D01*
X68652769Y-67528811D01*
X68652773Y-67528814D01*
X68841368Y-67586024D01*
X69037500Y-67605341D01*
X69233632Y-67586024D01*
X69422227Y-67528814D01*
X69596038Y-67435910D01*
X69748383Y-67310883D01*
X69873410Y-67158538D01*
X69966314Y-66984727D01*
X70023524Y-66796132D01*
X70042841Y-66600000D01*
X70023524Y-66403868D01*
X69991270Y-66297544D01*
X69986675Y-66275099D01*
X69986408Y-66272662D01*
X69976700Y-66235000D01*
X70702858Y-66235000D01*
X70726566Y-66323483D01*
X70726570Y-66323492D01*
X70826399Y-66537578D01*
X70961894Y-66731082D01*
X71128917Y-66898105D01*
X71322421Y-67033600D01*
X71536507Y-67133429D01*
X71536516Y-67133433D01*
X71624999Y-67157142D01*
X72375000Y-67157142D01*
X72463483Y-67133433D01*
X72463492Y-67133429D01*
X72677578Y-67033600D01*
X72871082Y-66898105D01*
X73038105Y-66731082D01*
X73168425Y-66544968D01*
X73223002Y-66501344D01*
X73292501Y-66494151D01*
X73354855Y-66525673D01*
X73371575Y-66544968D01*
X73501894Y-66731082D01*
X73668917Y-66898105D01*
X73862421Y-67033600D01*
X74076507Y-67133429D01*
X74076516Y-67133433D01*
X74164999Y-67157142D01*
X74915000Y-67157142D01*
X75003483Y-67133433D01*
X75003492Y-67133429D01*
X75075190Y-67099996D01*
X84094435Y-67099996D01*
X84094435Y-67100003D01*
X84114630Y-67279249D01*
X84114631Y-67279254D01*
X84174211Y-67449523D01*
X84226221Y-67532296D01*
X84270184Y-67602262D01*
X84397738Y-67729816D01*
X84445448Y-67759794D01*
X84547638Y-67824005D01*
X84550478Y-67825789D01*
X84653343Y-67861783D01*
X84720745Y-67885368D01*
X84720750Y-67885369D01*
X84899996Y-67905565D01*
X84900000Y-67905565D01*
X84900004Y-67905565D01*
X85079249Y-67885369D01*
X85079252Y-67885368D01*
X85079255Y-67885368D01*
X85249522Y-67825789D01*
X85402262Y-67729816D01*
X85529816Y-67602262D01*
X85625789Y-67449522D01*
X85685368Y-67279255D01*
X85695643Y-67188062D01*
X85705565Y-67100003D01*
X85705565Y-67099996D01*
X85685369Y-66920750D01*
X85685368Y-66920745D01*
X85625788Y-66750476D01*
X85572375Y-66665470D01*
X85529816Y-66597738D01*
X85402262Y-66470184D01*
X85249523Y-66374211D01*
X85079254Y-66314631D01*
X85079249Y-66314630D01*
X84900004Y-66294435D01*
X84899996Y-66294435D01*
X84720750Y-66314630D01*
X84720745Y-66314631D01*
X84550476Y-66374211D01*
X84397737Y-66470184D01*
X84270184Y-66597737D01*
X84174211Y-66750476D01*
X84114631Y-66920745D01*
X84114630Y-66920750D01*
X84094435Y-67099996D01*
X75075190Y-67099996D01*
X75217578Y-67033600D01*
X75411082Y-66898105D01*
X75578105Y-66731082D01*
X75713600Y-66537578D01*
X75813429Y-66323492D01*
X75813433Y-66323483D01*
X75837142Y-66235000D01*
X74915000Y-66235000D01*
X74915000Y-67157142D01*
X74164999Y-67157142D01*
X74165000Y-67157141D01*
X74165000Y-66235000D01*
X72375000Y-66235000D01*
X72375000Y-67157142D01*
X71624999Y-67157142D01*
X71625000Y-67157141D01*
X71625000Y-66235000D01*
X70702858Y-66235000D01*
X69976700Y-66235000D01*
X69795425Y-65531728D01*
X69791500Y-65500777D01*
X69791500Y-59261198D01*
X69811185Y-59194159D01*
X69863989Y-59148404D01*
X69933147Y-59138460D01*
X69996703Y-59167485D01*
X70034160Y-59225202D01*
X70055239Y-59294691D01*
X70175120Y-59584101D01*
X70322784Y-59860356D01*
X70322790Y-59860366D01*
X70496812Y-60120807D01*
X70496822Y-60120821D01*
X70668751Y-60330316D01*
X70696064Y-60394626D01*
X70692673Y-60441073D01*
X70664939Y-60544583D01*
X70664936Y-60544596D01*
X70644341Y-60779999D01*
X70644341Y-60780000D01*
X70664936Y-61015403D01*
X70664938Y-61015413D01*
X70726094Y-61243655D01*
X70726096Y-61243659D01*
X70726097Y-61243663D01*
X70730000Y-61252032D01*
X70825965Y-61457830D01*
X70825967Y-61457834D01*
X70934281Y-61612521D01*
X70961501Y-61651396D01*
X70961506Y-61651402D01*
X71128597Y-61818493D01*
X71128603Y-61818498D01*
X71314158Y-61948425D01*
X71357783Y-62003002D01*
X71364977Y-62072500D01*
X71333454Y-62134855D01*
X71314158Y-62151575D01*
X71128597Y-62281505D01*
X70961505Y-62448597D01*
X70825965Y-62642169D01*
X70825964Y-62642171D01*
X70726098Y-62856335D01*
X70726094Y-62856344D01*
X70664938Y-63084586D01*
X70664936Y-63084596D01*
X70644341Y-63319999D01*
X70644341Y-63320000D01*
X70664936Y-63555403D01*
X70664938Y-63555413D01*
X70726094Y-63783655D01*
X70726096Y-63783659D01*
X70726097Y-63783663D01*
X70730000Y-63792032D01*
X70825965Y-63997830D01*
X70825967Y-63997834D01*
X70934281Y-64152521D01*
X70961501Y-64191396D01*
X70961506Y-64191402D01*
X71128597Y-64358493D01*
X71128603Y-64358498D01*
X71314594Y-64488730D01*
X71358219Y-64543307D01*
X71365413Y-64612805D01*
X71333890Y-64675160D01*
X71314595Y-64691880D01*
X71128922Y-64821890D01*
X71128920Y-64821891D01*
X70961891Y-64988920D01*
X70961886Y-64988926D01*
X70826400Y-65182420D01*
X70826399Y-65182422D01*
X70726570Y-65396507D01*
X70726566Y-65396516D01*
X70702857Y-65484999D01*
X70702858Y-65485000D01*
X71667894Y-65485000D01*
X71599901Y-65552993D01*
X71534075Y-65667007D01*
X71500000Y-65794174D01*
X71500000Y-65925826D01*
X71534075Y-66052993D01*
X71599901Y-66167007D01*
X71692993Y-66260099D01*
X71807007Y-66325925D01*
X71934174Y-66360000D01*
X72065826Y-66360000D01*
X72192993Y-66325925D01*
X72307007Y-66260099D01*
X72400099Y-66167007D01*
X72465925Y-66052993D01*
X72500000Y-65925826D01*
X72500000Y-65794174D01*
X72465925Y-65667007D01*
X72400099Y-65552993D01*
X72332106Y-65485000D01*
X74207894Y-65485000D01*
X74139901Y-65552993D01*
X74074075Y-65667007D01*
X74040000Y-65794174D01*
X74040000Y-65925826D01*
X74074075Y-66052993D01*
X74139901Y-66167007D01*
X74232993Y-66260099D01*
X74347007Y-66325925D01*
X74474174Y-66360000D01*
X74605826Y-66360000D01*
X74732993Y-66325925D01*
X74847007Y-66260099D01*
X74940099Y-66167007D01*
X75005925Y-66052993D01*
X75040000Y-65925826D01*
X75040000Y-65794174D01*
X75005925Y-65667007D01*
X74940099Y-65552993D01*
X74872106Y-65485000D01*
X75837142Y-65485000D01*
X75837142Y-65484999D01*
X75813433Y-65396516D01*
X75813429Y-65396507D01*
X75713600Y-65182422D01*
X75713599Y-65182420D01*
X75578113Y-64988926D01*
X75578108Y-64988920D01*
X75411078Y-64821890D01*
X75225405Y-64691879D01*
X75181780Y-64637302D01*
X75174588Y-64567804D01*
X75206110Y-64505449D01*
X75225406Y-64488730D01*
X75411401Y-64358495D01*
X75578495Y-64191401D01*
X75714035Y-63997830D01*
X75813903Y-63783663D01*
X75875063Y-63555408D01*
X75895659Y-63320000D01*
X75875063Y-63084592D01*
X75813903Y-62856337D01*
X75787631Y-62799996D01*
X87494435Y-62799996D01*
X87494435Y-62800003D01*
X87514630Y-62979249D01*
X87514631Y-62979254D01*
X87574211Y-63149523D01*
X87670184Y-63302262D01*
X87797738Y-63429816D01*
X87950478Y-63525789D01*
X88035139Y-63555413D01*
X88120745Y-63585368D01*
X88120750Y-63585369D01*
X88299996Y-63605565D01*
X88300000Y-63605565D01*
X88300004Y-63605565D01*
X88479249Y-63585369D01*
X88479252Y-63585368D01*
X88479255Y-63585368D01*
X88649522Y-63525789D01*
X88802262Y-63429816D01*
X88929816Y-63302262D01*
X89025789Y-63149522D01*
X89085368Y-62979255D01*
X89099217Y-62856344D01*
X89105565Y-62800003D01*
X89105565Y-62799996D01*
X89085369Y-62620750D01*
X89085368Y-62620745D01*
X89025788Y-62450476D01*
X88929815Y-62297737D01*
X88802262Y-62170184D01*
X88649523Y-62074211D01*
X88479254Y-62014631D01*
X88479249Y-62014630D01*
X88300004Y-61994435D01*
X88299996Y-61994435D01*
X88120750Y-62014630D01*
X88120745Y-62014631D01*
X87950476Y-62074211D01*
X87797737Y-62170184D01*
X87670184Y-62297737D01*
X87574211Y-62450476D01*
X87514631Y-62620745D01*
X87514630Y-62620750D01*
X87494435Y-62799996D01*
X75787631Y-62799996D01*
X75714035Y-62642171D01*
X75708425Y-62634158D01*
X75578494Y-62448597D01*
X75411402Y-62281506D01*
X75411396Y-62281501D01*
X75225842Y-62151575D01*
X75182217Y-62096998D01*
X75175023Y-62027500D01*
X75206546Y-61965145D01*
X75225842Y-61948425D01*
X75248026Y-61932891D01*
X75411401Y-61818495D01*
X75578495Y-61651401D01*
X75714035Y-61457830D01*
X75813903Y-61243663D01*
X75875063Y-61015408D01*
X75895659Y-60780000D01*
X75875063Y-60544592D01*
X75815445Y-60322091D01*
X75813905Y-60316344D01*
X75813904Y-60316343D01*
X75813903Y-60316337D01*
X75714035Y-60102171D01*
X75708425Y-60094158D01*
X75578494Y-59908597D01*
X75411402Y-59741506D01*
X75411401Y-59741505D01*
X75225405Y-59611269D01*
X75181781Y-59556692D01*
X75174588Y-59487193D01*
X75206110Y-59424839D01*
X75225405Y-59408119D01*
X75411082Y-59278105D01*
X75578105Y-59111082D01*
X75713600Y-58917578D01*
X75813429Y-58703492D01*
X75813433Y-58703483D01*
X75837142Y-58615000D01*
X74872106Y-58615000D01*
X74940099Y-58547007D01*
X75005925Y-58432993D01*
X75040000Y-58305826D01*
X75040000Y-58174174D01*
X75005925Y-58047007D01*
X74940099Y-57932993D01*
X74872106Y-57865000D01*
X75837142Y-57865000D01*
X75837142Y-57864999D01*
X75813433Y-57776516D01*
X75813429Y-57776507D01*
X75713600Y-57562422D01*
X75713599Y-57562420D01*
X75578113Y-57368926D01*
X75578108Y-57368920D01*
X75411078Y-57201890D01*
X75225405Y-57071879D01*
X75181780Y-57017302D01*
X75174588Y-56947804D01*
X75206110Y-56885449D01*
X75225406Y-56868730D01*
X75411401Y-56738495D01*
X75578495Y-56571401D01*
X75714035Y-56377830D01*
X75813903Y-56163663D01*
X75875063Y-55935408D01*
X75895659Y-55700000D01*
X75875063Y-55464592D01*
X75819466Y-55257097D01*
X75813905Y-55236344D01*
X75813904Y-55236343D01*
X75813903Y-55236337D01*
X75714035Y-55022171D01*
X75708425Y-55014158D01*
X75578494Y-54828597D01*
X75411402Y-54661506D01*
X75411396Y-54661501D01*
X75225842Y-54531575D01*
X75182217Y-54476998D01*
X75175023Y-54407500D01*
X75206546Y-54345145D01*
X75225842Y-54328425D01*
X75271263Y-54296621D01*
X75411401Y-54198495D01*
X75578495Y-54031401D01*
X75714035Y-53837830D01*
X75813903Y-53623663D01*
X75875063Y-53395408D01*
X75895659Y-53160000D01*
X75875063Y-52924592D01*
X75813903Y-52696337D01*
X75714035Y-52482171D01*
X75713169Y-52480933D01*
X75578494Y-52288597D01*
X75411402Y-52121506D01*
X75411396Y-52121501D01*
X75225842Y-51991575D01*
X75182217Y-51936998D01*
X75175023Y-51867500D01*
X75206546Y-51805145D01*
X75225842Y-51788425D01*
X75316369Y-51725037D01*
X75411401Y-51658495D01*
X75578495Y-51491401D01*
X75714035Y-51297830D01*
X75813903Y-51083663D01*
X75875063Y-50855408D01*
X75895659Y-50620000D01*
X75875063Y-50384592D01*
X75813903Y-50156337D01*
X75714035Y-49942171D01*
X75708425Y-49934158D01*
X75578494Y-49748597D01*
X75411402Y-49581506D01*
X75411396Y-49581501D01*
X75225842Y-49451575D01*
X75182217Y-49396998D01*
X75175023Y-49327500D01*
X75206546Y-49265145D01*
X75225842Y-49248425D01*
X75291769Y-49202262D01*
X75411401Y-49118495D01*
X75578495Y-48951401D01*
X75714035Y-48757830D01*
X75813903Y-48543663D01*
X75875063Y-48315408D01*
X75895659Y-48080000D01*
X75875063Y-47844592D01*
X75815582Y-47622602D01*
X75813905Y-47616344D01*
X75813904Y-47616343D01*
X75813903Y-47616337D01*
X75714035Y-47402171D01*
X75708425Y-47394158D01*
X75578494Y-47208597D01*
X75411402Y-47041506D01*
X75411396Y-47041501D01*
X75225842Y-46911575D01*
X75182217Y-46856998D01*
X75175023Y-46787500D01*
X75206546Y-46725145D01*
X75225842Y-46708425D01*
X75267502Y-46679254D01*
X75411401Y-46578495D01*
X75489900Y-46499996D01*
X87694435Y-46499996D01*
X87694435Y-46500003D01*
X87714630Y-46679249D01*
X87714631Y-46679254D01*
X87774211Y-46849523D01*
X87870184Y-47002262D01*
X87997738Y-47129816D01*
X88150478Y-47225789D01*
X88320745Y-47285368D01*
X88320750Y-47285369D01*
X88499996Y-47305565D01*
X88500000Y-47305565D01*
X88500004Y-47305565D01*
X88679249Y-47285369D01*
X88679252Y-47285368D01*
X88679255Y-47285368D01*
X88849522Y-47225789D01*
X88975700Y-47146505D01*
X89041672Y-47127500D01*
X89539919Y-47127500D01*
X89612058Y-47127500D01*
X89620168Y-47127765D01*
X89804625Y-47139857D01*
X89820700Y-47141973D01*
X89998023Y-47177245D01*
X90013685Y-47181442D01*
X90184885Y-47239558D01*
X90199868Y-47245764D01*
X90362013Y-47325726D01*
X90376061Y-47333836D01*
X90526386Y-47434281D01*
X90539247Y-47444149D01*
X90614701Y-47510321D01*
X90678305Y-47566100D01*
X90684228Y-47571648D01*
X90740247Y-47627668D01*
X90740346Y-47627756D01*
X90777219Y-47664629D01*
X90829112Y-47707216D01*
X90986949Y-47836749D01*
X91212539Y-47987484D01*
X91290810Y-48029321D01*
X91363034Y-48067926D01*
X91412878Y-48116889D01*
X91428338Y-48185027D01*
X91404506Y-48250706D01*
X91352036Y-48291844D01*
X91340437Y-48296648D01*
X91340429Y-48296652D01*
X91175363Y-48391954D01*
X91175349Y-48391963D01*
X91024139Y-48507995D01*
X91024127Y-48508006D01*
X90962513Y-48569621D01*
X90950316Y-48580318D01*
X90917297Y-48605653D01*
X90889267Y-48621835D01*
X90858388Y-48634626D01*
X90827121Y-48643005D01*
X90808909Y-48645402D01*
X90785847Y-48648439D01*
X90769663Y-48649500D01*
X89132940Y-48649500D01*
X89065901Y-48629815D01*
X89045259Y-48613181D01*
X89002262Y-48570184D01*
X88849523Y-48474211D01*
X88679254Y-48414631D01*
X88679249Y-48414630D01*
X88500004Y-48394435D01*
X88499996Y-48394435D01*
X88320750Y-48414630D01*
X88320745Y-48414631D01*
X88150476Y-48474211D01*
X87997737Y-48570184D01*
X87870184Y-48697737D01*
X87774211Y-48850476D01*
X87714631Y-49020745D01*
X87714630Y-49020750D01*
X87694435Y-49199996D01*
X87694435Y-49200003D01*
X87714630Y-49379249D01*
X87714631Y-49379254D01*
X87774211Y-49549523D01*
X87837045Y-49649522D01*
X87870184Y-49702262D01*
X87997738Y-49829816D01*
X88150478Y-49925789D01*
X88273219Y-49968738D01*
X88320745Y-49985368D01*
X88320750Y-49985369D01*
X88499996Y-50005565D01*
X88500000Y-50005565D01*
X88500004Y-50005565D01*
X88679249Y-49985369D01*
X88679251Y-49985368D01*
X88679255Y-49985368D01*
X88679258Y-49985366D01*
X88679262Y-49985366D01*
X88770460Y-49953454D01*
X88849522Y-49925789D01*
X88939096Y-49869505D01*
X89005068Y-49850500D01*
X90704911Y-49850500D01*
X90704915Y-49850501D01*
X90777829Y-49850500D01*
X90856874Y-49850500D01*
X90866118Y-49850500D01*
X90866172Y-49850496D01*
X90873124Y-49850496D01*
X90873130Y-49850496D01*
X91062102Y-49825615D01*
X91246210Y-49776283D01*
X91246218Y-49776279D01*
X91247631Y-49775901D01*
X91317481Y-49777564D01*
X91375343Y-49816726D01*
X91402848Y-49880954D01*
X91391262Y-49949857D01*
X91367406Y-49983357D01*
X91362597Y-49988166D01*
X91362591Y-49988170D01*
X91313099Y-50037664D01*
X91313098Y-50037665D01*
X90816604Y-50534157D01*
X90816602Y-50534160D01*
X90785365Y-50565397D01*
X90779443Y-50570944D01*
X90610227Y-50719344D01*
X90597359Y-50729218D01*
X90413612Y-50851994D01*
X90399565Y-50860104D01*
X90201365Y-50957846D01*
X90186379Y-50964053D01*
X89977116Y-51035088D01*
X89961449Y-51039286D01*
X89744707Y-51082399D01*
X89728627Y-51084516D01*
X89521749Y-51098076D01*
X89504088Y-51099234D01*
X89495979Y-51099500D01*
X89082412Y-51099500D01*
X89015373Y-51079815D01*
X89005097Y-51072445D01*
X89002263Y-51070185D01*
X89002262Y-51070184D01*
X88908791Y-51011452D01*
X88849523Y-50974211D01*
X88679254Y-50914631D01*
X88679249Y-50914630D01*
X88500004Y-50894435D01*
X88499996Y-50894435D01*
X88320750Y-50914630D01*
X88320745Y-50914631D01*
X88150476Y-50974211D01*
X87997737Y-51070184D01*
X87870184Y-51197737D01*
X87774211Y-51350476D01*
X87714631Y-51520745D01*
X87714630Y-51520750D01*
X87694435Y-51699996D01*
X87694435Y-51700003D01*
X87714630Y-51879249D01*
X87714631Y-51879254D01*
X87774211Y-52049523D01*
X87832102Y-52141655D01*
X87870184Y-52202262D01*
X87997738Y-52329816D01*
X88016779Y-52341780D01*
X88119332Y-52406219D01*
X88150478Y-52425789D01*
X88320745Y-52485368D01*
X88320750Y-52485369D01*
X88499996Y-52505565D01*
X88500000Y-52505565D01*
X88500004Y-52505565D01*
X88679249Y-52485369D01*
X88679252Y-52485368D01*
X88679255Y-52485368D01*
X88849522Y-52425789D01*
X89002262Y-52329816D01*
X89002267Y-52329810D01*
X89005097Y-52327555D01*
X89007275Y-52326665D01*
X89008158Y-52326111D01*
X89008255Y-52326265D01*
X89069783Y-52301145D01*
X89082412Y-52300500D01*
X89427086Y-52300500D01*
X89448636Y-52300500D01*
X89448643Y-52300502D01*
X89500000Y-52300502D01*
X89648101Y-52300502D01*
X89648104Y-52300502D01*
X89942884Y-52271469D01*
X90233400Y-52213681D01*
X90516853Y-52127696D01*
X90790512Y-52014342D01*
X91051743Y-51874710D01*
X91298030Y-51710146D01*
X91527001Y-51522233D01*
X91598219Y-51451014D01*
X92192249Y-50856985D01*
X92196616Y-50852827D01*
X92404117Y-50664761D01*
X92467008Y-50634327D01*
X92536371Y-50642726D01*
X92590182Y-50687291D01*
X92611357Y-50753875D01*
X92593173Y-50821337D01*
X92575069Y-50844322D01*
X89513178Y-53906213D01*
X89513162Y-53906228D01*
X89458450Y-53960939D01*
X89449435Y-53969110D01*
X89368257Y-54035732D01*
X89348046Y-54049237D01*
X89260822Y-54095860D01*
X89238365Y-54105162D01*
X89143727Y-54133872D01*
X89119884Y-54138615D01*
X89085770Y-54141975D01*
X89017124Y-54128956D01*
X89007644Y-54123566D01*
X88978354Y-54105162D01*
X88936381Y-54078788D01*
X88849523Y-54024211D01*
X88679254Y-53964631D01*
X88679249Y-53964630D01*
X88500004Y-53944435D01*
X88499996Y-53944435D01*
X88320750Y-53964630D01*
X88320745Y-53964631D01*
X88150476Y-54024211D01*
X87997737Y-54120184D01*
X87870184Y-54247737D01*
X87774211Y-54400476D01*
X87714631Y-54570745D01*
X87714630Y-54570750D01*
X87694435Y-54749996D01*
X87694435Y-54750003D01*
X87714630Y-54929249D01*
X87714631Y-54929254D01*
X87774211Y-55099523D01*
X87819979Y-55172362D01*
X87870184Y-55252262D01*
X87997738Y-55379816D01*
X87997740Y-55379817D01*
X88144557Y-55472069D01*
X88150478Y-55475789D01*
X88319119Y-55534799D01*
X88320745Y-55535368D01*
X88320750Y-55535369D01*
X88499996Y-55555565D01*
X88500000Y-55555565D01*
X88500004Y-55555565D01*
X88679249Y-55535369D01*
X88679252Y-55535368D01*
X88679255Y-55535368D01*
X88849522Y-55475789D01*
X89002262Y-55379816D01*
X89002264Y-55379813D01*
X89005087Y-55377563D01*
X89007260Y-55376675D01*
X89008159Y-55376111D01*
X89008257Y-55376268D01*
X89069773Y-55351151D01*
X89082405Y-55350506D01*
X89129265Y-55350506D01*
X89129271Y-55350506D01*
X89367119Y-55319190D01*
X89598845Y-55257097D01*
X89778048Y-55182866D01*
X89847516Y-55175398D01*
X89909995Y-55206672D01*
X89945648Y-55266761D01*
X89949500Y-55297428D01*
X89949500Y-55370845D01*
X89949118Y-55380576D01*
X89935195Y-55557440D01*
X89932150Y-55576658D01*
X89891877Y-55744394D01*
X89885865Y-55762899D01*
X89819842Y-55922289D01*
X89811008Y-55939625D01*
X89720872Y-56086712D01*
X89709435Y-56102454D01*
X89594105Y-56237488D01*
X89587500Y-56244634D01*
X89574104Y-56258031D01*
X89484586Y-56347548D01*
X89437835Y-56394298D01*
X89408027Y-56424106D01*
X89399011Y-56432278D01*
X89324648Y-56493306D01*
X89304436Y-56506811D01*
X89224988Y-56549277D01*
X89202529Y-56558580D01*
X89160261Y-56571402D01*
X89116333Y-56584727D01*
X89092479Y-56589470D01*
X89083219Y-56590381D01*
X89014574Y-56577355D01*
X89005106Y-56571971D01*
X88849523Y-56474211D01*
X88679254Y-56414631D01*
X88679249Y-56414630D01*
X88500004Y-56394435D01*
X88499996Y-56394435D01*
X88320750Y-56414630D01*
X88320745Y-56414631D01*
X88150476Y-56474211D01*
X87997737Y-56570184D01*
X87870184Y-56697737D01*
X87774211Y-56850476D01*
X87714631Y-57020745D01*
X87714630Y-57020750D01*
X87694435Y-57199996D01*
X87694435Y-57200003D01*
X87714630Y-57379249D01*
X87714631Y-57379254D01*
X87774211Y-57549523D01*
X87827487Y-57634310D01*
X87870184Y-57702262D01*
X87997738Y-57829816D01*
X88053733Y-57865000D01*
X88144385Y-57921961D01*
X88150478Y-57925789D01*
X88320745Y-57985368D01*
X88320750Y-57985369D01*
X88499996Y-58005565D01*
X88500000Y-58005565D01*
X88500004Y-58005565D01*
X88679249Y-57985369D01*
X88679252Y-57985368D01*
X88679255Y-57985368D01*
X88849522Y-57925789D01*
X89002262Y-57829816D01*
X89002268Y-57829809D01*
X89005101Y-57827551D01*
X89007286Y-57826658D01*
X89008158Y-57826111D01*
X89008253Y-57826263D01*
X89069786Y-57801139D01*
X89082416Y-57800494D01*
X89107681Y-57800495D01*
X89339686Y-57769953D01*
X89550855Y-57713373D01*
X89565717Y-57709391D01*
X89565720Y-57709390D01*
X89781903Y-57619845D01*
X89781903Y-57619844D01*
X89781915Y-57619840D01*
X89984567Y-57502840D01*
X89984571Y-57502838D01*
X90090419Y-57421617D01*
X90170222Y-57360382D01*
X90187817Y-57342787D01*
X90249139Y-57309300D01*
X90318831Y-57314283D01*
X90374765Y-57356153D01*
X90399184Y-57421617D01*
X90399500Y-57430466D01*
X90399500Y-57630256D01*
X90399234Y-57638367D01*
X90386639Y-57830496D01*
X90384522Y-57846577D01*
X90347750Y-58031438D01*
X90343552Y-58047105D01*
X90282966Y-58225584D01*
X90276759Y-58240569D01*
X90193395Y-58409613D01*
X90185286Y-58423659D01*
X90080572Y-58580376D01*
X90070697Y-58593245D01*
X89943692Y-58738066D01*
X89938145Y-58743988D01*
X89745572Y-58936562D01*
X89738422Y-58943172D01*
X89643825Y-59023964D01*
X89628083Y-59035401D01*
X89526198Y-59097835D01*
X89508861Y-59106668D01*
X89398461Y-59152396D01*
X89379955Y-59158409D01*
X89263764Y-59186303D01*
X89244546Y-59189347D01*
X89120379Y-59199118D01*
X89110651Y-59199500D01*
X89082412Y-59199500D01*
X89015373Y-59179815D01*
X89005097Y-59172445D01*
X89002263Y-59170185D01*
X89002262Y-59170184D01*
X88934552Y-59127639D01*
X88849523Y-59074211D01*
X88679254Y-59014631D01*
X88679249Y-59014630D01*
X88500004Y-58994435D01*
X88499996Y-58994435D01*
X88320750Y-59014630D01*
X88320745Y-59014631D01*
X88150476Y-59074211D01*
X87997737Y-59170184D01*
X87870184Y-59297737D01*
X87774211Y-59450476D01*
X87714631Y-59620745D01*
X87714630Y-59620750D01*
X87694435Y-59799996D01*
X87694435Y-59800003D01*
X87714630Y-59979249D01*
X87714631Y-59979254D01*
X87774211Y-60149523D01*
X87834001Y-60244677D01*
X87870184Y-60302262D01*
X87997738Y-60429816D01*
X88150478Y-60525789D01*
X88320745Y-60585368D01*
X88320750Y-60585369D01*
X88499996Y-60605565D01*
X88500000Y-60605565D01*
X88500004Y-60605565D01*
X88679249Y-60585369D01*
X88679252Y-60585368D01*
X88679255Y-60585368D01*
X88849522Y-60525789D01*
X89002262Y-60429816D01*
X89002267Y-60429810D01*
X89005097Y-60427555D01*
X89007275Y-60426665D01*
X89008158Y-60426111D01*
X89008255Y-60426265D01*
X89069783Y-60401145D01*
X89082412Y-60400500D01*
X89203388Y-60400500D01*
X89203565Y-60400487D01*
X89232876Y-60400488D01*
X89439533Y-60377205D01*
X89465789Y-60374247D01*
X89465789Y-60374246D01*
X89465797Y-60374246D01*
X89694315Y-60322091D01*
X89915557Y-60244677D01*
X90126740Y-60142979D01*
X90325209Y-60018276D01*
X90508467Y-59872135D01*
X90528362Y-59852240D01*
X90528374Y-59852229D01*
X90535438Y-59845164D01*
X90535442Y-59845163D01*
X90846205Y-59534401D01*
X90846206Y-59534398D01*
X90852783Y-59527822D01*
X90852835Y-59527761D01*
X90886390Y-59494208D01*
X91058810Y-59284113D01*
X91209807Y-59058131D01*
X91337928Y-58818436D01*
X91441937Y-58567338D01*
X91520833Y-58307254D01*
X91573858Y-58040690D01*
X91600499Y-57770211D01*
X91600499Y-57727813D01*
X91600500Y-57727804D01*
X91600500Y-55534799D01*
X91600695Y-55527848D01*
X91602131Y-55502270D01*
X91613506Y-55299681D01*
X91615060Y-55285890D01*
X91652754Y-55064028D01*
X91655847Y-55050477D01*
X91660752Y-55033454D01*
X91718144Y-54834235D01*
X91722736Y-54821115D01*
X91732568Y-54797378D01*
X91808847Y-54613221D01*
X91814878Y-54600697D01*
X91884812Y-54474159D01*
X91934467Y-54425008D01*
X92002815Y-54410505D01*
X92068154Y-54435255D01*
X92109740Y-54491401D01*
X92113113Y-54502046D01*
X92120421Y-54529319D01*
X92120423Y-54529326D01*
X92120425Y-54529330D01*
X92148075Y-54588626D01*
X92212897Y-54727638D01*
X92212898Y-54727639D01*
X92294002Y-54843468D01*
X92316329Y-54909672D01*
X92299319Y-54977440D01*
X92291420Y-54988627D01*
X92291507Y-54988688D01*
X92162900Y-55172357D01*
X92162898Y-55172361D01*
X92070426Y-55370668D01*
X92070422Y-55370677D01*
X92013793Y-55582020D01*
X92013793Y-55582023D01*
X92011748Y-55605397D01*
X91994723Y-55799997D01*
X91994723Y-55800002D01*
X92013793Y-56017975D01*
X92013793Y-56017979D01*
X92070422Y-56229322D01*
X92070424Y-56229327D01*
X92070425Y-56229330D01*
X92112484Y-56319526D01*
X92115603Y-56326817D01*
X92123699Y-56347545D01*
X92123699Y-56347546D01*
X92131781Y-56361822D01*
X92136253Y-56370502D01*
X92162896Y-56427637D01*
X92162898Y-56427640D01*
X92191578Y-56468599D01*
X92197911Y-56478632D01*
X92626196Y-57235144D01*
X92641691Y-57284078D01*
X92654703Y-57416185D01*
X92654706Y-57416200D01*
X92718786Y-57738360D01*
X92718789Y-57738371D01*
X92814153Y-58052746D01*
X92938932Y-58353990D01*
X92939868Y-58356249D01*
X92965528Y-58404255D01*
X93094725Y-58645969D01*
X93209964Y-58818436D01*
X93268253Y-58905673D01*
X93277238Y-58919119D01*
X93485638Y-59173056D01*
X93601756Y-59289176D01*
X93601770Y-59289189D01*
X93601784Y-59289203D01*
X93619458Y-59306877D01*
X93662727Y-59350147D01*
X93662734Y-59350153D01*
X100987155Y-66674574D01*
X100993754Y-66681712D01*
X101117138Y-66826181D01*
X101128572Y-66841918D01*
X101225281Y-66999734D01*
X101234114Y-67017071D01*
X101304940Y-67188062D01*
X101310953Y-67206568D01*
X101354159Y-67386539D01*
X101357203Y-67405756D01*
X101372118Y-67595259D01*
X101372500Y-67604988D01*
X101372500Y-67759794D01*
X101372502Y-67759843D01*
X101372502Y-67824005D01*
X101401857Y-68084553D01*
X101401860Y-68084571D01*
X101460207Y-68340211D01*
X101460211Y-68340223D01*
X101546814Y-68587718D01*
X101546817Y-68587726D01*
X101660580Y-68823959D01*
X101660584Y-68823965D01*
X101800092Y-69045992D01*
X101963582Y-69251002D01*
X101963584Y-69251004D01*
X101963585Y-69251005D01*
X101998073Y-69285493D01*
X101998082Y-69285503D01*
X102052841Y-69340261D01*
X102059450Y-69347410D01*
X102155434Y-69459792D01*
X102159974Y-69465107D01*
X102171412Y-69480850D01*
X102249731Y-69608656D01*
X102258564Y-69625993D01*
X102315922Y-69764469D01*
X102321935Y-69782974D01*
X102356927Y-69928727D01*
X102359971Y-69947945D01*
X102372118Y-70102284D01*
X102372500Y-70112013D01*
X102372500Y-71458328D01*
X102353494Y-71524300D01*
X102274211Y-71650476D01*
X102214631Y-71820745D01*
X102214630Y-71820750D01*
X102194435Y-71999996D01*
X102194435Y-72000003D01*
X102214630Y-72179249D01*
X102214631Y-72179254D01*
X102274211Y-72349523D01*
X102357465Y-72482020D01*
X102370184Y-72502262D01*
X102497738Y-72629816D01*
X102650478Y-72725789D01*
X102820745Y-72785368D01*
X102820750Y-72785369D01*
X102999996Y-72805565D01*
X103000000Y-72805565D01*
X103000004Y-72805565D01*
X103179249Y-72785369D01*
X103179252Y-72785368D01*
X103179255Y-72785368D01*
X103349522Y-72725789D01*
X103502262Y-72629816D01*
X103629816Y-72502262D01*
X103725789Y-72349522D01*
X103785368Y-72179255D01*
X103797412Y-72072361D01*
X103805565Y-72000003D01*
X103805565Y-71999996D01*
X103785369Y-71820750D01*
X103785368Y-71820745D01*
X103725788Y-71650476D01*
X103646506Y-71524300D01*
X103627500Y-71458328D01*
X103627500Y-70038289D01*
X103627497Y-70038237D01*
X103627497Y-70029816D01*
X103627498Y-69975999D01*
X103605750Y-69782974D01*
X103598141Y-69715435D01*
X103598140Y-69715434D01*
X103598140Y-69715431D01*
X103539791Y-69459787D01*
X103453187Y-69212284D01*
X103339415Y-68976034D01*
X103199907Y-68754008D01*
X103036418Y-68548998D01*
X103004653Y-68517234D01*
X103004651Y-68517231D01*
X102947158Y-68459738D01*
X102940549Y-68452588D01*
X102840024Y-68334888D01*
X102828587Y-68319147D01*
X102750271Y-68191347D01*
X102741437Y-68174010D01*
X102704389Y-68084568D01*
X102684073Y-68035520D01*
X102678062Y-68017020D01*
X102643072Y-67871272D01*
X102640028Y-67852054D01*
X102632771Y-67759843D01*
X102627881Y-67697708D01*
X102627500Y-67687985D01*
X102627501Y-67616703D01*
X102627500Y-67616698D01*
X102627500Y-67538197D01*
X102627500Y-67532296D01*
X102627491Y-67532110D01*
X102627491Y-67456295D01*
X102627490Y-67456291D01*
X102626727Y-67449523D01*
X102607543Y-67279254D01*
X102595313Y-67170707D01*
X102595313Y-67170706D01*
X102592534Y-67158532D01*
X102531360Y-66890501D01*
X102436437Y-66619224D01*
X102436434Y-66619217D01*
X102311742Y-66360288D01*
X102311740Y-66360284D01*
X102243216Y-66251227D01*
X102158832Y-66116927D01*
X101979640Y-65892223D01*
X101928792Y-65841374D01*
X101928789Y-65841370D01*
X101874760Y-65787341D01*
X101819828Y-65732407D01*
X101819807Y-65732388D01*
X94491674Y-58404255D01*
X94486895Y-58399201D01*
X94448511Y-58356249D01*
X94337776Y-58232336D01*
X94329113Y-58221472D01*
X94201646Y-58041821D01*
X94194248Y-58030048D01*
X94136626Y-57925789D01*
X94087691Y-57837248D01*
X94081662Y-57824726D01*
X94071624Y-57800493D01*
X94044935Y-57736058D01*
X93997367Y-57621218D01*
X93992774Y-57608094D01*
X93983046Y-57574326D01*
X93931790Y-57396413D01*
X93928699Y-57382867D01*
X93928525Y-57381841D01*
X93901821Y-57224676D01*
X93909998Y-57155289D01*
X93916725Y-57141832D01*
X93949705Y-57084818D01*
X94000310Y-57036648D01*
X94051952Y-57023014D01*
X94145598Y-57019172D01*
X94213388Y-57036092D01*
X94238362Y-57055387D01*
X94923876Y-57740900D01*
X94923941Y-57740958D01*
X95015507Y-57832524D01*
X95024144Y-57839901D01*
X95335995Y-58106248D01*
X95336002Y-58106253D01*
X95676986Y-58353992D01*
X95676990Y-58353994D01*
X95676995Y-58353998D01*
X96036339Y-58574205D01*
X96036345Y-58574208D01*
X96036356Y-58574215D01*
X96411897Y-58765563D01*
X96801292Y-58926856D01*
X97202143Y-59057101D01*
X97611976Y-59155494D01*
X98028266Y-59221429D01*
X98448446Y-59254499D01*
X98570434Y-59254499D01*
X98570442Y-59254500D01*
X98584876Y-59254500D01*
X98659186Y-59254500D01*
X98738487Y-59254500D01*
X120625796Y-59254500D01*
X120667987Y-59261899D01*
X121633519Y-59611269D01*
X121780490Y-59664449D01*
X121796621Y-59669533D01*
X121811738Y-59675410D01*
X121820670Y-59679575D01*
X122032023Y-59736207D01*
X122214926Y-59752208D01*
X122249998Y-59755277D01*
X122250000Y-59755277D01*
X122250002Y-59755277D01*
X122278254Y-59752805D01*
X122467977Y-59736207D01*
X122679330Y-59679575D01*
X122877639Y-59587102D01*
X123056877Y-59461598D01*
X123211598Y-59306877D01*
X123337102Y-59127639D01*
X123429575Y-58929330D01*
X123486207Y-58717977D01*
X123505277Y-58500000D01*
X123486207Y-58282023D01*
X123439111Y-58106258D01*
X123429577Y-58070677D01*
X123429576Y-58070676D01*
X123429575Y-58070670D01*
X123337102Y-57872362D01*
X123337100Y-57872359D01*
X123337099Y-57872357D01*
X123211599Y-57693124D01*
X123138309Y-57619834D01*
X123056877Y-57538402D01*
X122882355Y-57416200D01*
X122877638Y-57412897D01*
X122727285Y-57342787D01*
X122679330Y-57320425D01*
X122679326Y-57320424D01*
X122679322Y-57320422D01*
X122467977Y-57263793D01*
X122250002Y-57244723D01*
X122249998Y-57244723D01*
X122104682Y-57257436D01*
X122032023Y-57263793D01*
X121820673Y-57320424D01*
X121820663Y-57320427D01*
X121807512Y-57326559D01*
X121784686Y-57334134D01*
X121784746Y-57334345D01*
X121780478Y-57335552D01*
X120667985Y-57738101D01*
X120625794Y-57745500D01*
X98661896Y-57745500D01*
X98656487Y-57745382D01*
X98328639Y-57731067D01*
X98317862Y-57730124D01*
X97995203Y-57687644D01*
X97984550Y-57685766D01*
X97666807Y-57615324D01*
X97656358Y-57612524D01*
X97345970Y-57514658D01*
X97335805Y-57510958D01*
X97316206Y-57502840D01*
X97099065Y-57412897D01*
X97035127Y-57386413D01*
X97025323Y-57381841D01*
X96736654Y-57231568D01*
X96727286Y-57226160D01*
X96452795Y-57051290D01*
X96443934Y-57045085D01*
X96231374Y-56881982D01*
X96185741Y-56846966D01*
X96177458Y-56840016D01*
X95935425Y-56618234D01*
X95931517Y-56614493D01*
X95111685Y-55794660D01*
X95104210Y-55786486D01*
X95081770Y-55759621D01*
X95033658Y-55716384D01*
X95028860Y-55711836D01*
X94926756Y-55609731D01*
X94926747Y-55609721D01*
X94917765Y-55600739D01*
X94907849Y-55590823D01*
X94907843Y-55590813D01*
X94866350Y-55549321D01*
X94866351Y-55549321D01*
X94786626Y-55469598D01*
X94607730Y-55332329D01*
X94604511Y-55329859D01*
X94604621Y-55329715D01*
X94595581Y-55322688D01*
X94337553Y-55090802D01*
X94293562Y-55051268D01*
X94256858Y-54991817D01*
X94258122Y-54921959D01*
X94274872Y-54887919D01*
X94387102Y-54727639D01*
X94479575Y-54529330D01*
X94536207Y-54317977D01*
X94553823Y-54116620D01*
X94555277Y-54100002D01*
X94555277Y-54099997D01*
X94549449Y-54033382D01*
X94536207Y-53882023D01*
X94479575Y-53670670D01*
X94435850Y-53576903D01*
X94425359Y-53507828D01*
X94453878Y-53444044D01*
X94512355Y-53405804D01*
X94548233Y-53400500D01*
X97581503Y-53400500D01*
X97603050Y-53400500D01*
X97603067Y-53400504D01*
X97654417Y-53400504D01*
X97654417Y-53400505D01*
X97866782Y-53400504D01*
X98290429Y-53370203D01*
X98710836Y-53309757D01*
X98710841Y-53309756D01*
X99125851Y-53219475D01*
X99125854Y-53219474D01*
X99125859Y-53219473D01*
X99533384Y-53099812D01*
X99931334Y-52951384D01*
X100317682Y-52774944D01*
X100690458Y-52571393D01*
X100841758Y-52474158D01*
X100951434Y-52403674D01*
X102391110Y-52403674D01*
X102391110Y-52403675D01*
X102409927Y-52606757D01*
X102465742Y-52802922D01*
X102465747Y-52802935D01*
X102556652Y-52985496D01*
X102679562Y-53148256D01*
X102830283Y-53285655D01*
X102830285Y-53285657D01*
X102870195Y-53310368D01*
X103003688Y-53393023D01*
X103193869Y-53466699D01*
X103315359Y-53489409D01*
X103377638Y-53521076D01*
X103412912Y-53581388D01*
X103409979Y-53651196D01*
X103369770Y-53708336D01*
X103343244Y-53724471D01*
X103297933Y-53744758D01*
X103292060Y-53747209D01*
X103257362Y-53760652D01*
X103083957Y-53868020D01*
X102933237Y-54005418D01*
X102810327Y-54168178D01*
X102719422Y-54350739D01*
X102719417Y-54350752D01*
X102663602Y-54546917D01*
X102644785Y-54749999D01*
X102644785Y-54750000D01*
X102663602Y-54953082D01*
X102719417Y-55149247D01*
X102719422Y-55149260D01*
X102810327Y-55331821D01*
X102933237Y-55494581D01*
X103083958Y-55631980D01*
X103083960Y-55631982D01*
X103183141Y-55693392D01*
X103257363Y-55739348D01*
X103447544Y-55813024D01*
X103648024Y-55850500D01*
X103648026Y-55850500D01*
X103851974Y-55850500D01*
X103851976Y-55850500D01*
X104052456Y-55813024D01*
X104242637Y-55739348D01*
X104416041Y-55631981D01*
X104566764Y-55494579D01*
X104689673Y-55331821D01*
X104726494Y-55257871D01*
X104736982Y-55240528D01*
X104739385Y-55237202D01*
X104739916Y-55236344D01*
X105040726Y-54750337D01*
X105986424Y-54750337D01*
X106120858Y-54797377D01*
X106120861Y-54797378D01*
X106299997Y-54817562D01*
X106300003Y-54817562D01*
X106479138Y-54797378D01*
X106479141Y-54797377D01*
X106613574Y-54750337D01*
X107436424Y-54750337D01*
X107570858Y-54797377D01*
X107570861Y-54797378D01*
X107749997Y-54817562D01*
X107750003Y-54817562D01*
X107929138Y-54797378D01*
X107929141Y-54797377D01*
X108063574Y-54750337D01*
X108886424Y-54750337D01*
X109020858Y-54797377D01*
X109020861Y-54797378D01*
X109199997Y-54817562D01*
X109200003Y-54817562D01*
X109379138Y-54797378D01*
X109379141Y-54797377D01*
X109513573Y-54750337D01*
X109200001Y-54436764D01*
X109200000Y-54436764D01*
X108886424Y-54750337D01*
X108063574Y-54750337D01*
X107750001Y-54436764D01*
X107750000Y-54436764D01*
X107436424Y-54750337D01*
X106613574Y-54750337D01*
X106300001Y-54436764D01*
X106300000Y-54436764D01*
X105986424Y-54750337D01*
X105040726Y-54750337D01*
X105218066Y-54463816D01*
X105235810Y-54441410D01*
X105264193Y-54413028D01*
X105271292Y-54406466D01*
X105379151Y-54314346D01*
X105442907Y-54285778D01*
X105511993Y-54296215D01*
X105540277Y-54321079D01*
X105562160Y-54326074D01*
X105771614Y-54116620D01*
X105830346Y-54083729D01*
X105966192Y-54051117D01*
X105985389Y-54048076D01*
X106135405Y-54036271D01*
X106150000Y-54035123D01*
X106150000Y-54042337D01*
X106172836Y-54097468D01*
X106215032Y-54139664D01*
X106270163Y-54162500D01*
X106329837Y-54162500D01*
X106384968Y-54139664D01*
X106427164Y-54097468D01*
X106450000Y-54042337D01*
X106450000Y-54033000D01*
X106693402Y-54033000D01*
X106760441Y-54052685D01*
X106781083Y-54069319D01*
X107025000Y-54313236D01*
X107268917Y-54069319D01*
X107330240Y-54035834D01*
X107356598Y-54033000D01*
X107600000Y-54033000D01*
X107600000Y-54042337D01*
X107622836Y-54097468D01*
X107665032Y-54139664D01*
X107720163Y-54162500D01*
X107779837Y-54162500D01*
X107834968Y-54139664D01*
X107877164Y-54097468D01*
X107900000Y-54042337D01*
X107900000Y-54033000D01*
X108143402Y-54033000D01*
X108210441Y-54052685D01*
X108231083Y-54069319D01*
X108475000Y-54313236D01*
X108718917Y-54069319D01*
X108780240Y-54035834D01*
X108806598Y-54033000D01*
X109050000Y-54033000D01*
X109050000Y-54042337D01*
X109072836Y-54097468D01*
X109115032Y-54139664D01*
X109170163Y-54162500D01*
X109229837Y-54162500D01*
X109284968Y-54139664D01*
X109327164Y-54097468D01*
X109350000Y-54042337D01*
X109350000Y-54033000D01*
X109593402Y-54033000D01*
X109660441Y-54052685D01*
X109681083Y-54069319D01*
X109937837Y-54326073D01*
X109984877Y-54191641D01*
X109984878Y-54191637D01*
X109990345Y-54143117D01*
X110017411Y-54078703D01*
X110075006Y-54039148D01*
X110113565Y-54033000D01*
X111195058Y-54033000D01*
X111204765Y-54033381D01*
X111324590Y-54042815D01*
X111343784Y-54045855D01*
X111455891Y-54072774D01*
X111474391Y-54078787D01*
X111580897Y-54122908D01*
X111598223Y-54131737D01*
X111648419Y-54162500D01*
X111696515Y-54191976D01*
X111712255Y-54203412D01*
X111800250Y-54278574D01*
X111804107Y-54281868D01*
X111811252Y-54288474D01*
X111818394Y-54295616D01*
X111862418Y-54339644D01*
X111862419Y-54339644D01*
X111867207Y-54344433D01*
X111867507Y-54344701D01*
X111896394Y-54373588D01*
X112093185Y-54530526D01*
X112160350Y-54572729D01*
X112306308Y-54664442D01*
X112533085Y-54773655D01*
X112770663Y-54856792D01*
X113016056Y-54912808D01*
X113190176Y-54932430D01*
X113266175Y-54940996D01*
X113266178Y-54940996D01*
X113315714Y-54940996D01*
X113315752Y-54941000D01*
X113392031Y-54941000D01*
X113469888Y-54941002D01*
X113469892Y-54941000D01*
X113476652Y-54941001D01*
X113476689Y-54941000D01*
X119419333Y-54941000D01*
X119486372Y-54960685D01*
X119514966Y-54986068D01*
X119673328Y-55177938D01*
X119914052Y-55469598D01*
X119916092Y-55472069D01*
X119919413Y-55476275D01*
X119933232Y-55494575D01*
X119933235Y-55494577D01*
X119933236Y-55494579D01*
X119936888Y-55497908D01*
X119942303Y-55503336D01*
X119942309Y-55503331D01*
X119942315Y-55503337D01*
X119942381Y-55503273D01*
X119944042Y-55504967D01*
X120000626Y-55558379D01*
X120006070Y-55562489D01*
X120005867Y-55562756D01*
X120017400Y-55571305D01*
X120083959Y-55631981D01*
X120257363Y-55739348D01*
X120447544Y-55813024D01*
X120648024Y-55850500D01*
X120648026Y-55850500D01*
X120851974Y-55850500D01*
X120851976Y-55850500D01*
X121052456Y-55813024D01*
X121242637Y-55739348D01*
X121416041Y-55631981D01*
X121566764Y-55494579D01*
X121674762Y-55351566D01*
X121730866Y-55309934D01*
X121800578Y-55305241D01*
X121861393Y-55338615D01*
X122072729Y-55549951D01*
X122097930Y-55586313D01*
X122480825Y-56428544D01*
X122501240Y-56468599D01*
X122501328Y-56468771D01*
X122501331Y-56468775D01*
X122501335Y-56468781D01*
X122501426Y-56468899D01*
X122502976Y-56471369D01*
X122504442Y-56473681D01*
X122504431Y-56473687D01*
X122514371Y-56489529D01*
X122560327Y-56581821D01*
X122683237Y-56744581D01*
X122833958Y-56881980D01*
X122833960Y-56881982D01*
X122900703Y-56923307D01*
X123007363Y-56989348D01*
X123197544Y-57063024D01*
X123398024Y-57100500D01*
X123398026Y-57100500D01*
X123601974Y-57100500D01*
X123601976Y-57100500D01*
X123802456Y-57063024D01*
X123992637Y-56989348D01*
X124166041Y-56881981D01*
X124316764Y-56744579D01*
X124439673Y-56581821D01*
X124530582Y-56399250D01*
X124586397Y-56203083D01*
X124605215Y-56000000D01*
X124586397Y-55796917D01*
X124530582Y-55600750D01*
X124523393Y-55586313D01*
X124486272Y-55511764D01*
X124439673Y-55418179D01*
X124354386Y-55305241D01*
X124316762Y-55255418D01*
X124166042Y-55118020D01*
X124166041Y-55118019D01*
X123992637Y-55010652D01*
X123959894Y-54997966D01*
X123937838Y-54986775D01*
X123928534Y-54980819D01*
X123928533Y-54980818D01*
X123086314Y-54597930D01*
X123049951Y-54572729D01*
X121229941Y-52752719D01*
X121229763Y-52752558D01*
X121127520Y-52650315D01*
X120843866Y-52404527D01*
X120796464Y-52363453D01*
X120445794Y-52100945D01*
X120445770Y-52100928D01*
X120077291Y-51864122D01*
X120077278Y-51864114D01*
X119744341Y-51682317D01*
X119692816Y-51654182D01*
X119619068Y-51620502D01*
X119294361Y-51472212D01*
X119294358Y-51472211D01*
X119294354Y-51472209D01*
X118883925Y-51319126D01*
X118633533Y-51245603D01*
X118463612Y-51195709D01*
X118035590Y-51102597D01*
X117601996Y-51040254D01*
X117165065Y-51009000D01*
X117014095Y-51009000D01*
X117014094Y-51009000D01*
X110099329Y-51009000D01*
X110032290Y-50989315D01*
X109986535Y-50936511D01*
X109982287Y-50925954D01*
X109937837Y-50798925D01*
X109764084Y-50972681D01*
X109702761Y-51006166D01*
X109676402Y-51009000D01*
X109551362Y-51009000D01*
X109543341Y-51010595D01*
X109538537Y-51011452D01*
X109424537Y-51029491D01*
X109339424Y-51057131D01*
X109327164Y-51027532D01*
X109284968Y-50985336D01*
X109229837Y-50962500D01*
X109170163Y-50962500D01*
X109115032Y-50985336D01*
X109072836Y-51027532D01*
X109050000Y-51082663D01*
X109050000Y-51092000D01*
X108806598Y-51092000D01*
X108739559Y-51072315D01*
X108718917Y-51055681D01*
X108475000Y-50811764D01*
X108231083Y-51055681D01*
X108169760Y-51089166D01*
X108143402Y-51092000D01*
X107900000Y-51092000D01*
X107900000Y-51082663D01*
X107877164Y-51027532D01*
X107834968Y-50985336D01*
X107779837Y-50962500D01*
X107720163Y-50962500D01*
X107665032Y-50985336D01*
X107622836Y-51027532D01*
X107600000Y-51082663D01*
X107600000Y-51092000D01*
X107356598Y-51092000D01*
X107289559Y-51072315D01*
X107268917Y-51055681D01*
X107025000Y-50811764D01*
X106781083Y-51055681D01*
X106719760Y-51089166D01*
X106693402Y-51092000D01*
X106450000Y-51092000D01*
X106450000Y-51082663D01*
X106427164Y-51027532D01*
X106384968Y-50985336D01*
X106329837Y-50962500D01*
X106270163Y-50962500D01*
X106215032Y-50985336D01*
X106172836Y-51027532D01*
X106150000Y-51082663D01*
X106150000Y-51092000D01*
X105906598Y-51092000D01*
X105839559Y-51072315D01*
X105818917Y-51055681D01*
X105562160Y-50798924D01*
X105515122Y-50933357D01*
X105515122Y-50933358D01*
X105509655Y-50981883D01*
X105482589Y-51046297D01*
X105424994Y-51085852D01*
X105386435Y-51092000D01*
X104296810Y-51092000D01*
X104296598Y-51092009D01*
X104286972Y-51092009D01*
X104121943Y-51118132D01*
X104121941Y-51118133D01*
X103963027Y-51169755D01*
X103814149Y-51245603D01*
X103814145Y-51245606D01*
X103757793Y-51286546D01*
X103750138Y-51292107D01*
X103684330Y-51315584D01*
X103654473Y-51313675D01*
X103598301Y-51303175D01*
X103394349Y-51303175D01*
X103193869Y-51340651D01*
X103193866Y-51340651D01*
X103193866Y-51340652D01*
X103003689Y-51414326D01*
X103003682Y-51414330D01*
X102830285Y-51521692D01*
X102830283Y-51521694D01*
X102679562Y-51659093D01*
X102556652Y-51821853D01*
X102465747Y-52004414D01*
X102465742Y-52004427D01*
X102409927Y-52200592D01*
X102391110Y-52403674D01*
X100951434Y-52403674D01*
X101047743Y-52341780D01*
X101047767Y-52341763D01*
X101387769Y-52087242D01*
X101411046Y-52067072D01*
X101708766Y-51809096D01*
X101792820Y-51725040D01*
X101792825Y-51725037D01*
X101803028Y-51714833D01*
X101803030Y-51714833D01*
X101822611Y-51695250D01*
X101822618Y-51695247D01*
X101858932Y-51658932D01*
X101897363Y-51620500D01*
X103138057Y-50379807D01*
X103138057Y-50379806D01*
X103143204Y-50374660D01*
X105986424Y-50374660D01*
X106300000Y-50688236D01*
X106300001Y-50688236D01*
X106613574Y-50374661D01*
X106613573Y-50374660D01*
X107436424Y-50374660D01*
X107750000Y-50688236D01*
X107750001Y-50688236D01*
X108063574Y-50374661D01*
X108063573Y-50374660D01*
X108886424Y-50374660D01*
X109200000Y-50688236D01*
X109200001Y-50688236D01*
X109513574Y-50374661D01*
X109513573Y-50374660D01*
X109379142Y-50327622D01*
X109200003Y-50307438D01*
X109199997Y-50307438D01*
X109020857Y-50327622D01*
X108886424Y-50374660D01*
X108063573Y-50374660D01*
X107929142Y-50327622D01*
X107750003Y-50307438D01*
X107749997Y-50307438D01*
X107570857Y-50327622D01*
X107436424Y-50374660D01*
X106613573Y-50374660D01*
X106479142Y-50327622D01*
X106300003Y-50307438D01*
X106299997Y-50307438D01*
X106120857Y-50327622D01*
X105986424Y-50374660D01*
X103143204Y-50374660D01*
X103143836Y-50374028D01*
X103144030Y-50373807D01*
X103151121Y-50366715D01*
X103164149Y-50353689D01*
X103305382Y-50169643D01*
X103421382Y-49968736D01*
X103510166Y-49754407D01*
X103570214Y-49530322D01*
X103600498Y-49300316D01*
X103600498Y-49275212D01*
X103600500Y-49275191D01*
X103600500Y-49026325D01*
X103601559Y-49010153D01*
X103604084Y-48990975D01*
X103612459Y-48959719D01*
X103616724Y-48949421D01*
X103632905Y-48921399D01*
X103639683Y-48912566D01*
X103662566Y-48889683D01*
X103665562Y-48887384D01*
X103671399Y-48882905D01*
X103699421Y-48866724D01*
X103709719Y-48862459D01*
X103740975Y-48854084D01*
X103760152Y-48851559D01*
X103776326Y-48850500D01*
X105541366Y-48850500D01*
X105607338Y-48869506D01*
X105699101Y-48927165D01*
X105699105Y-48927166D01*
X105869361Y-48986742D01*
X105869367Y-48986743D01*
X105869369Y-48986744D01*
X105869370Y-48986744D01*
X105869374Y-48986745D01*
X106048620Y-49006941D01*
X106048624Y-49006941D01*
X106048628Y-49006941D01*
X106227873Y-48986745D01*
X106227876Y-48986744D01*
X106227879Y-48986744D01*
X106398146Y-48927165D01*
X106550886Y-48831192D01*
X106678440Y-48703638D01*
X106774413Y-48550898D01*
X106833992Y-48380631D01*
X106840843Y-48319826D01*
X106854189Y-48201379D01*
X106854189Y-48201373D01*
X106844430Y-48114760D01*
X106856484Y-48045938D01*
X106903833Y-47994558D01*
X106967650Y-47976876D01*
X107800993Y-47976876D01*
X107800997Y-47976877D01*
X107872317Y-47976876D01*
X107882044Y-47977257D01*
X108023171Y-47988363D01*
X108042376Y-47991404D01*
X108175276Y-48023309D01*
X108193769Y-48029317D01*
X108320052Y-48081624D01*
X108337374Y-48090451D01*
X108453909Y-48161862D01*
X108469647Y-48173297D01*
X108577154Y-48265114D01*
X108584305Y-48271724D01*
X108690304Y-48377723D01*
X108723789Y-48439046D01*
X108719667Y-48506351D01*
X108714633Y-48520739D01*
X108714630Y-48520751D01*
X108694435Y-48699996D01*
X108694435Y-48700003D01*
X108714630Y-48879249D01*
X108714631Y-48879254D01*
X108774211Y-49049523D01*
X108836448Y-49148572D01*
X108870184Y-49202262D01*
X108997738Y-49329816D01*
X109030660Y-49350502D01*
X109148596Y-49424607D01*
X109150478Y-49425789D01*
X109294447Y-49476166D01*
X109320745Y-49485368D01*
X109320750Y-49485369D01*
X109427568Y-49497404D01*
X109491982Y-49524470D01*
X109530726Y-49579669D01*
X109536254Y-49595466D01*
X109587347Y-49741483D01*
X109625537Y-49802262D01*
X109683321Y-49894224D01*
X109810875Y-50021778D01*
X109963615Y-50117751D01*
X110087757Y-50161190D01*
X110133882Y-50177330D01*
X110133887Y-50177331D01*
X110313133Y-50197527D01*
X110313137Y-50197527D01*
X110313141Y-50197527D01*
X110492386Y-50177331D01*
X110492389Y-50177330D01*
X110492392Y-50177330D01*
X110662659Y-50117751D01*
X110815399Y-50021778D01*
X110942953Y-49894224D01*
X111038926Y-49741484D01*
X111098505Y-49571217D01*
X111098506Y-49571211D01*
X111118702Y-49391965D01*
X111118702Y-49391958D01*
X111098506Y-49212712D01*
X111098505Y-49212707D01*
X111038925Y-49042438D01*
X110959643Y-48916262D01*
X110940637Y-48850290D01*
X110940637Y-48834845D01*
X110940606Y-48834231D01*
X110940606Y-48831191D01*
X110940609Y-48784004D01*
X110909665Y-48548889D01*
X110848296Y-48319826D01*
X110757553Y-48100732D01*
X110638988Y-47895357D01*
X110494630Y-47707216D01*
X110494627Y-47707213D01*
X110494624Y-47707209D01*
X110458829Y-47671413D01*
X110458790Y-47671370D01*
X110401093Y-47613674D01*
X110401090Y-47613671D01*
X110352597Y-47565176D01*
X110352574Y-47565155D01*
X109437977Y-46650557D01*
X109437429Y-46650060D01*
X109417651Y-46630281D01*
X109417650Y-46630280D01*
X109417643Y-46630273D01*
X109417638Y-46630269D01*
X109264814Y-46512986D01*
X109264807Y-46512981D01*
X109097976Y-46416648D01*
X109097955Y-46416638D01*
X108919990Y-46342910D01*
X108919987Y-46342909D01*
X108733898Y-46293037D01*
X108733897Y-46293036D01*
X108542887Y-46267880D01*
X108542894Y-46267880D01*
X108514118Y-46267879D01*
X108514048Y-46267876D01*
X108508341Y-46267876D01*
X108446567Y-46267876D01*
X108446555Y-46267875D01*
X108370374Y-46267872D01*
X108370372Y-46267872D01*
X108362808Y-46267872D01*
X108362742Y-46267876D01*
X106919505Y-46267876D01*
X106852466Y-46248191D01*
X106806711Y-46195387D01*
X106796767Y-46126229D01*
X106810147Y-46085423D01*
X106853811Y-46003732D01*
X106853814Y-46003727D01*
X106911024Y-45815132D01*
X106930341Y-45619000D01*
X106911024Y-45422868D01*
X106853814Y-45234273D01*
X106853811Y-45234269D01*
X106853811Y-45234266D01*
X106760913Y-45060467D01*
X106760909Y-45060460D01*
X106635883Y-44908116D01*
X106483539Y-44783090D01*
X106483532Y-44783086D01*
X106309733Y-44690188D01*
X106309727Y-44690186D01*
X106121132Y-44632976D01*
X106121129Y-44632975D01*
X105925000Y-44613659D01*
X105728865Y-44632976D01*
X105540275Y-44690185D01*
X105540261Y-44690190D01*
X105537852Y-44691479D01*
X105520187Y-44698627D01*
X105520344Y-44699057D01*
X105516180Y-44700574D01*
X104830036Y-45007680D01*
X104779378Y-45018500D01*
X96897407Y-45018500D01*
X96870337Y-45015509D01*
X96864366Y-45014173D01*
X96001987Y-44947400D01*
X95983000Y-44946288D01*
X95982397Y-44946264D01*
X95982133Y-44946254D01*
X95982130Y-44946254D01*
X95982129Y-44946254D01*
X95975398Y-44946474D01*
X95959198Y-44945943D01*
X95950423Y-44945079D01*
X95950419Y-44945079D01*
X95920776Y-44947998D01*
X95912696Y-44948527D01*
X95909103Y-44948646D01*
X95902494Y-44949579D01*
X95902462Y-44949358D01*
X95896605Y-44950378D01*
X95754291Y-44964395D01*
X95565686Y-45021608D01*
X95391887Y-45114506D01*
X95391880Y-45114510D01*
X95239536Y-45239536D01*
X95114510Y-45391880D01*
X95114506Y-45391887D01*
X95021608Y-45565686D01*
X94964395Y-45754290D01*
X94945079Y-45950420D01*
X94964395Y-46146549D01*
X94964396Y-46146552D01*
X95011815Y-46302872D01*
X95021608Y-46335153D01*
X95077675Y-46440047D01*
X95091917Y-46508450D01*
X95066917Y-46573694D01*
X95010611Y-46615064D01*
X94968317Y-46622500D01*
X92711978Y-46622500D01*
X92702250Y-46622118D01*
X92681763Y-46620505D01*
X92547943Y-46609974D01*
X92528725Y-46606930D01*
X92382976Y-46571939D01*
X92364470Y-46565926D01*
X92225987Y-46508564D01*
X92208650Y-46499730D01*
X92080850Y-46421414D01*
X92065109Y-46409977D01*
X91947443Y-46309481D01*
X91940293Y-46302872D01*
X91885515Y-46248094D01*
X91885492Y-46248073D01*
X91828077Y-46190658D01*
X91828062Y-46190641D01*
X91812008Y-46174588D01*
X91773115Y-46135696D01*
X91764945Y-46126681D01*
X91716554Y-46067718D01*
X91703051Y-46047510D01*
X91669971Y-45985624D01*
X91660672Y-45963176D01*
X91640300Y-45896024D01*
X91635560Y-45872198D01*
X91628139Y-45796876D01*
X91627546Y-45783825D01*
X91627846Y-45742425D01*
X91627499Y-45739133D01*
X91627499Y-45706521D01*
X91627485Y-45706295D01*
X91627485Y-45696081D01*
X91627486Y-45676353D01*
X91597761Y-45450537D01*
X91538816Y-45230534D01*
X91451658Y-45020107D01*
X91450730Y-45018500D01*
X91367242Y-44873890D01*
X91337779Y-44822856D01*
X91235984Y-44690190D01*
X91199128Y-44642156D01*
X91166643Y-44609671D01*
X91166615Y-44609640D01*
X91115334Y-44558360D01*
X91115332Y-44558357D01*
X91115332Y-44558358D01*
X91064728Y-44507752D01*
X91064727Y-44507751D01*
X91060403Y-44503427D01*
X91060382Y-44503408D01*
X89770851Y-43213877D01*
X89770759Y-43213773D01*
X89765436Y-43208451D01*
X89765435Y-43208449D01*
X89747899Y-43190917D01*
X89747848Y-43190823D01*
X89648463Y-43091457D01*
X89504061Y-42986563D01*
X89504059Y-42986562D01*
X89345030Y-42905549D01*
X89345027Y-42905548D01*
X89288324Y-42887128D01*
X89238954Y-42856876D01*
X89202262Y-42820184D01*
X89049523Y-42724211D01*
X88879254Y-42664631D01*
X88879249Y-42664630D01*
X88700004Y-42644435D01*
X88699996Y-42644435D01*
X88520750Y-42664630D01*
X88520745Y-42664631D01*
X88350476Y-42724211D01*
X88197737Y-42820184D01*
X88070184Y-42947737D01*
X87974211Y-43100476D01*
X87914631Y-43270745D01*
X87914630Y-43270750D01*
X87894435Y-43449996D01*
X87894435Y-43450003D01*
X87914630Y-43629249D01*
X87914631Y-43629254D01*
X87974211Y-43799523D01*
X88040233Y-43904595D01*
X88070184Y-43952262D01*
X88197738Y-44079816D01*
X88217266Y-44092086D01*
X88347686Y-44174035D01*
X88350478Y-44175789D01*
X88440217Y-44207190D01*
X88520745Y-44235368D01*
X88520750Y-44235369D01*
X88699996Y-44255565D01*
X88700000Y-44255565D01*
X88700004Y-44255565D01*
X88879246Y-44235369D01*
X88879245Y-44235369D01*
X88879255Y-44235368D01*
X88908128Y-44225264D01*
X88977901Y-44221702D01*
X89036761Y-44254625D01*
X90226858Y-45444722D01*
X90235031Y-45453739D01*
X90283428Y-45512712D01*
X90296931Y-45532922D01*
X90314443Y-45565686D01*
X90330003Y-45594798D01*
X90339304Y-45617254D01*
X90359669Y-45684392D01*
X90364411Y-45708234D01*
X90371887Y-45784150D01*
X90372484Y-45796302D01*
X90372484Y-45817761D01*
X90352799Y-45884800D01*
X90299995Y-45930555D01*
X90230837Y-45940499D01*
X90224292Y-45939378D01*
X90021793Y-45899097D01*
X90021798Y-45899097D01*
X89959867Y-45892997D01*
X89751778Y-45872501D01*
X89751775Y-45872500D01*
X89751765Y-45872500D01*
X89677921Y-45872500D01*
X89677919Y-45872500D01*
X89616122Y-45872500D01*
X89616110Y-45872499D01*
X89539928Y-45872499D01*
X89539927Y-45872499D01*
X89532333Y-45872499D01*
X89532317Y-45872500D01*
X89041672Y-45872500D01*
X88975700Y-45853494D01*
X88849523Y-45774211D01*
X88679254Y-45714631D01*
X88679249Y-45714630D01*
X88500004Y-45694435D01*
X88499996Y-45694435D01*
X88320750Y-45714630D01*
X88320745Y-45714631D01*
X88150476Y-45774211D01*
X87997737Y-45870184D01*
X87870184Y-45997737D01*
X87774211Y-46150476D01*
X87714631Y-46320745D01*
X87714630Y-46320750D01*
X87694435Y-46499996D01*
X75489900Y-46499996D01*
X75578495Y-46411401D01*
X75714035Y-46217830D01*
X75813903Y-46003663D01*
X75875063Y-45775408D01*
X75895659Y-45540000D01*
X75894097Y-45522152D01*
X75875063Y-45304596D01*
X75875063Y-45304592D01*
X75813903Y-45076337D01*
X75714035Y-44862171D01*
X75708731Y-44854595D01*
X75578494Y-44668597D01*
X75411402Y-44501506D01*
X75411396Y-44501501D01*
X75225842Y-44371575D01*
X75182217Y-44316998D01*
X75175023Y-44247500D01*
X75206546Y-44185145D01*
X75225842Y-44168425D01*
X75334865Y-44092086D01*
X75411401Y-44038495D01*
X75578495Y-43871401D01*
X75714035Y-43677830D01*
X75813903Y-43463663D01*
X75875063Y-43235408D01*
X75895659Y-43000000D01*
X75894483Y-42986564D01*
X75875063Y-42764596D01*
X75875063Y-42764592D01*
X75813903Y-42536337D01*
X75811591Y-42531379D01*
X98126338Y-42531379D01*
X98145654Y-42727508D01*
X98202867Y-42916112D01*
X98295765Y-43089911D01*
X98295769Y-43089918D01*
X98420795Y-43242262D01*
X98573139Y-43367288D01*
X98573146Y-43367292D01*
X98746945Y-43460190D01*
X98746948Y-43460190D01*
X98746952Y-43460193D01*
X98935547Y-43517403D01*
X99131679Y-43536720D01*
X99327811Y-43517403D01*
X99516406Y-43460193D01*
X99535484Y-43449996D01*
X99690211Y-43367292D01*
X99690217Y-43367289D01*
X99842562Y-43242262D01*
X99967589Y-43089917D01*
X100043586Y-42947737D01*
X100060490Y-42916112D01*
X100060490Y-42916111D01*
X100060493Y-42916106D01*
X100117703Y-42727511D01*
X100137020Y-42531379D01*
X100117703Y-42335247D01*
X100060493Y-42146652D01*
X100060490Y-42146648D01*
X100060490Y-42146645D01*
X99967592Y-41972846D01*
X99967588Y-41972839D01*
X99842562Y-41820495D01*
X99690218Y-41695469D01*
X99690211Y-41695465D01*
X99516412Y-41602567D01*
X99516406Y-41602565D01*
X99327811Y-41545355D01*
X99327808Y-41545354D01*
X99131679Y-41526038D01*
X98935549Y-41545354D01*
X98746945Y-41602567D01*
X98573146Y-41695465D01*
X98573139Y-41695469D01*
X98420795Y-41820495D01*
X98295769Y-41972839D01*
X98295765Y-41972846D01*
X98202867Y-42146645D01*
X98145654Y-42335249D01*
X98126338Y-42531379D01*
X75811591Y-42531379D01*
X75714035Y-42322171D01*
X75667713Y-42256015D01*
X75578494Y-42128597D01*
X75411402Y-41961506D01*
X75411395Y-41961501D01*
X75217834Y-41825967D01*
X75217830Y-41825965D01*
X75148753Y-41793754D01*
X75003663Y-41726097D01*
X75003659Y-41726096D01*
X75003655Y-41726094D01*
X74775413Y-41664938D01*
X74775403Y-41664936D01*
X74540001Y-41644341D01*
X74539999Y-41644341D01*
X74304596Y-41664936D01*
X74304586Y-41664938D01*
X74076344Y-41726094D01*
X74076335Y-41726098D01*
X73862171Y-41825964D01*
X73862169Y-41825965D01*
X73668600Y-41961503D01*
X73546284Y-42083819D01*
X73484961Y-42117303D01*
X73415269Y-42112319D01*
X73359336Y-42070447D01*
X73342421Y-42039470D01*
X73293354Y-41907913D01*
X73293350Y-41907906D01*
X73207190Y-41792812D01*
X73207187Y-41792809D01*
X73092093Y-41706649D01*
X73092086Y-41706645D01*
X72957379Y-41656403D01*
X72957372Y-41656401D01*
X72897844Y-41650000D01*
X72294281Y-41650000D01*
X72227242Y-41630315D01*
X72181487Y-41577511D01*
X72171543Y-41508353D01*
X72200568Y-41444797D01*
X72239432Y-41414790D01*
X72313606Y-41378209D01*
X72328567Y-41372012D01*
X72552642Y-41295944D01*
X72568283Y-41291752D01*
X72800375Y-41245582D01*
X72816449Y-41243466D01*
X73055927Y-41227766D01*
X73064039Y-41227500D01*
X73923808Y-41227500D01*
X73948631Y-41227500D01*
X73948655Y-41227507D01*
X74000000Y-41227507D01*
X74214356Y-41227507D01*
X74214364Y-41227507D01*
X74641771Y-41193870D01*
X75065221Y-41126801D01*
X75482104Y-41026716D01*
X75889849Y-40894231D01*
X76285942Y-40730163D01*
X76667941Y-40535523D01*
X77033492Y-40311512D01*
X77186974Y-40200000D01*
X94794659Y-40200000D01*
X94813975Y-40396129D01*
X94813976Y-40396132D01*
X94868177Y-40574809D01*
X94871188Y-40584733D01*
X94964086Y-40758532D01*
X94964090Y-40758539D01*
X95089116Y-40910883D01*
X95241460Y-41035909D01*
X95241467Y-41035913D01*
X95415266Y-41128811D01*
X95415269Y-41128811D01*
X95415273Y-41128814D01*
X95603868Y-41186024D01*
X95800000Y-41205341D01*
X95996132Y-41186024D01*
X96184727Y-41128814D01*
X96358538Y-41035910D01*
X96510883Y-40910883D01*
X96635910Y-40758538D01*
X96728814Y-40584727D01*
X96786024Y-40396132D01*
X96805341Y-40200000D01*
X96786024Y-40003868D01*
X96728814Y-39815273D01*
X96728811Y-39815269D01*
X96728811Y-39815266D01*
X96635913Y-39641467D01*
X96635909Y-39641460D01*
X96510883Y-39489116D01*
X96358539Y-39364090D01*
X96358532Y-39364086D01*
X96184733Y-39271188D01*
X96184727Y-39271186D01*
X95996132Y-39213976D01*
X95996129Y-39213975D01*
X95800000Y-39194659D01*
X95603870Y-39213975D01*
X95415266Y-39271188D01*
X95241467Y-39364086D01*
X95241460Y-39364090D01*
X95089116Y-39489116D01*
X94964090Y-39641460D01*
X94964086Y-39641467D01*
X94871188Y-39815266D01*
X94813975Y-40003870D01*
X94794659Y-40200000D01*
X77186974Y-40200000D01*
X77380340Y-40059511D01*
X77706347Y-39781073D01*
X77857924Y-39629494D01*
X77911800Y-39575618D01*
X78080247Y-39407171D01*
X78083669Y-39403879D01*
X78355977Y-39152159D01*
X78363343Y-39145869D01*
X78652550Y-38917876D01*
X78660409Y-38912166D01*
X78966640Y-38707549D01*
X78974901Y-38702487D01*
X79296222Y-38522538D01*
X79304869Y-38518131D01*
X79639333Y-38363940D01*
X79648304Y-38360225D01*
X79993821Y-38232757D01*
X80003059Y-38229756D01*
X80357504Y-38129792D01*
X80366952Y-38127524D01*
X80728149Y-38055677D01*
X80737745Y-38054157D01*
X81103475Y-38010870D01*
X81113141Y-38010109D01*
X81483481Y-37995559D01*
X81488349Y-37995463D01*
X81562192Y-37995463D01*
X86783613Y-37995463D01*
X86850652Y-38015148D01*
X86896407Y-38067952D01*
X86906833Y-38133346D01*
X86896732Y-38222996D01*
X86896732Y-38223003D01*
X86916927Y-38402249D01*
X86916928Y-38402254D01*
X86976508Y-38572523D01*
X87049196Y-38688204D01*
X87072481Y-38725262D01*
X87200035Y-38852816D01*
X87352775Y-38948789D01*
X87498282Y-38999704D01*
X87523042Y-39008368D01*
X87523047Y-39008369D01*
X87702293Y-39028565D01*
X87702297Y-39028565D01*
X87702301Y-39028565D01*
X87881546Y-39008369D01*
X87881549Y-39008368D01*
X87881552Y-39008368D01*
X88051819Y-38948789D01*
X88204559Y-38852816D01*
X88332113Y-38725262D01*
X88428086Y-38572522D01*
X88487665Y-38402255D01*
X88487666Y-38402249D01*
X88507862Y-38223003D01*
X88507862Y-38222996D01*
X88497761Y-38133346D01*
X88509816Y-38064525D01*
X88557165Y-38013145D01*
X88620981Y-37995463D01*
X96932205Y-37995463D01*
X97005691Y-37995463D01*
X97011099Y-37995581D01*
X97022519Y-37996079D01*
X97377120Y-38011561D01*
X97387857Y-38012501D01*
X97748417Y-38059970D01*
X97759036Y-38061842D01*
X98114096Y-38140556D01*
X98124508Y-38143345D01*
X98471354Y-38252706D01*
X98481489Y-38256395D01*
X98817469Y-38395563D01*
X98827261Y-38400129D01*
X99149811Y-38568038D01*
X99159178Y-38573445D01*
X99369699Y-38707562D01*
X99465873Y-38768831D01*
X99474734Y-38775036D01*
X99763239Y-38996414D01*
X99771520Y-39003363D01*
X99855202Y-39080043D01*
X100041616Y-39250860D01*
X100045501Y-39254578D01*
X100097489Y-39306567D01*
X100102573Y-39311651D01*
X100103161Y-39312172D01*
X100197751Y-39406764D01*
X100197767Y-39406778D01*
X100529231Y-39689884D01*
X100744439Y-39846245D01*
X100881892Y-39946113D01*
X100881910Y-39946124D01*
X100881913Y-39946126D01*
X101253551Y-40173873D01*
X101253562Y-40173879D01*
X101253570Y-40173884D01*
X101253579Y-40173888D01*
X101253587Y-40173893D01*
X101641964Y-40371788D01*
X101641970Y-40371790D01*
X101641973Y-40371792D01*
X102044707Y-40538615D01*
X102459288Y-40673326D01*
X102883160Y-40775094D01*
X103313710Y-40843291D01*
X103748284Y-40877498D01*
X103894449Y-40877498D01*
X103894457Y-40877500D01*
X103966242Y-40877500D01*
X104042435Y-40877501D01*
X104042439Y-40877500D01*
X111871882Y-40877500D01*
X111871886Y-40877501D01*
X111944013Y-40877500D01*
X111952122Y-40877765D01*
X112130063Y-40889425D01*
X112146126Y-40891539D01*
X112317028Y-40925531D01*
X112332686Y-40929726D01*
X112497689Y-40985735D01*
X112512665Y-40991938D01*
X112601834Y-41035909D01*
X112668933Y-41068997D01*
X112682980Y-41077106D01*
X112827862Y-41173909D01*
X112840730Y-41183783D01*
X112974450Y-41301047D01*
X112980374Y-41306596D01*
X113205989Y-41532211D01*
X113239474Y-41593534D01*
X113241528Y-41606007D01*
X113246473Y-41649895D01*
X113246474Y-41649900D01*
X113246475Y-41649901D01*
X113248750Y-41656403D01*
X113306053Y-41820167D01*
X113361183Y-41907906D01*
X113402027Y-41972908D01*
X113529581Y-42100462D01*
X113574358Y-42128597D01*
X113678620Y-42194110D01*
X113682321Y-42196435D01*
X113818260Y-42244002D01*
X113852588Y-42256014D01*
X113852593Y-42256015D01*
X114031839Y-42276211D01*
X114031843Y-42276211D01*
X114031847Y-42276211D01*
X114211092Y-42256015D01*
X114211095Y-42256014D01*
X114211098Y-42256014D01*
X114381365Y-42196435D01*
X114534105Y-42100462D01*
X114661659Y-41972908D01*
X114757632Y-41820168D01*
X114817211Y-41649901D01*
X114817212Y-41649895D01*
X114837408Y-41470649D01*
X114837408Y-41470642D01*
X114817212Y-41291396D01*
X114817211Y-41291391D01*
X114794857Y-41227506D01*
X114757632Y-41121124D01*
X114661659Y-40968384D01*
X114534105Y-40840830D01*
X114403140Y-40758539D01*
X114381364Y-40744856D01*
X114211092Y-40685276D01*
X114167204Y-40680331D01*
X114102790Y-40653263D01*
X114093408Y-40644792D01*
X114083797Y-40635181D01*
X114050312Y-40573858D01*
X114055296Y-40504166D01*
X114097168Y-40448233D01*
X114162632Y-40423816D01*
X114171478Y-40423500D01*
X119002096Y-40423500D01*
X119075305Y-40423500D01*
X119087458Y-40424097D01*
X119096423Y-40424979D01*
X119198808Y-40435063D01*
X119222642Y-40439804D01*
X119242517Y-40445833D01*
X119314241Y-40467591D01*
X119372679Y-40505888D01*
X119401136Y-40569701D01*
X119401716Y-40574809D01*
X119413602Y-40703082D01*
X119469417Y-40899247D01*
X119469422Y-40899260D01*
X119560327Y-41081821D01*
X119683237Y-41244581D01*
X119833958Y-41381980D01*
X119833960Y-41381982D01*
X119886946Y-41414789D01*
X120007363Y-41489348D01*
X120197544Y-41563024D01*
X120398024Y-41600500D01*
X120398026Y-41600500D01*
X120601974Y-41600500D01*
X120601976Y-41600500D01*
X120802456Y-41563024D01*
X120992637Y-41489348D01*
X121166041Y-41381981D01*
X121316764Y-41244579D01*
X121439673Y-41081821D01*
X121530582Y-40899250D01*
X121586397Y-40703083D01*
X121605215Y-40500000D01*
X121586397Y-40296917D01*
X121530582Y-40100750D01*
X121439673Y-39918179D01*
X121336139Y-39781078D01*
X121316762Y-39755418D01*
X121166041Y-39618019D01*
X121166039Y-39618017D01*
X120992642Y-39510655D01*
X120992635Y-39510651D01*
X120897546Y-39473814D01*
X120802456Y-39436976D01*
X120601976Y-39399500D01*
X120601974Y-39399500D01*
X120493361Y-39399500D01*
X120426322Y-39379815D01*
X120416049Y-39372447D01*
X120340896Y-39312515D01*
X120340892Y-39312512D01*
X120134220Y-39182652D01*
X119914316Y-39076752D01*
X119683933Y-38996139D01*
X119683927Y-38996137D01*
X119445976Y-38941827D01*
X119445959Y-38941824D01*
X119203436Y-38914500D01*
X119203430Y-38914500D01*
X119155706Y-38914500D01*
X105726687Y-38914500D01*
X105659648Y-38894815D01*
X105613893Y-38842011D01*
X105603949Y-38772853D01*
X105620960Y-38725710D01*
X105668450Y-38648213D01*
X105767417Y-38409285D01*
X105827788Y-38157820D01*
X105848079Y-37900000D01*
X105827788Y-37642179D01*
X105767417Y-37390714D01*
X105668450Y-37151786D01*
X105596291Y-37034036D01*
X105044159Y-37586167D01*
X104997570Y-37473690D01*
X104899076Y-37326283D01*
X104773717Y-37200924D01*
X104626310Y-37102430D01*
X104513830Y-37055839D01*
X105065962Y-36503707D01*
X104948213Y-36431549D01*
X104709285Y-36332582D01*
X104457820Y-36272211D01*
X104200000Y-36251920D01*
X103942179Y-36272211D01*
X103690714Y-36332582D01*
X103451786Y-36431549D01*
X103334036Y-36503707D01*
X103886169Y-37055839D01*
X103773690Y-37102430D01*
X103626283Y-37200924D01*
X103500924Y-37326283D01*
X103402430Y-37473690D01*
X103355839Y-37586168D01*
X102803707Y-37034036D01*
X102731549Y-37151786D01*
X102632582Y-37390714D01*
X102572211Y-37642179D01*
X102551920Y-37900000D01*
X102572212Y-38157821D01*
X102626959Y-38385865D01*
X102623468Y-38455647D01*
X102582804Y-38512464D01*
X102517877Y-38538277D01*
X102458935Y-38529373D01*
X102451518Y-38526301D01*
X102441711Y-38521728D01*
X102314771Y-38455647D01*
X102128981Y-38358930D01*
X102119635Y-38353535D01*
X101822270Y-38164091D01*
X101813417Y-38157892D01*
X101533711Y-37943263D01*
X101525425Y-37936310D01*
X101389064Y-37811358D01*
X101263887Y-37696654D01*
X101259988Y-37692921D01*
X101103875Y-37536811D01*
X101103862Y-37536799D01*
X101103860Y-37536797D01*
X100764793Y-37247209D01*
X100404050Y-36985118D01*
X100404046Y-36985115D01*
X100404041Y-36985112D01*
X100023859Y-36752140D01*
X100023856Y-36752138D01*
X100023850Y-36752135D01*
X100023836Y-36752127D01*
X99626563Y-36549710D01*
X99626531Y-36549695D01*
X99214593Y-36379069D01*
X99214586Y-36379066D01*
X98790535Y-36241288D01*
X98790498Y-36241278D01*
X98356946Y-36137194D01*
X98183724Y-36109760D01*
X97916525Y-36067442D01*
X97916513Y-36067441D01*
X97732302Y-36052945D01*
X97471998Y-36032461D01*
X97471997Y-36032461D01*
X97249048Y-36032463D01*
X75163144Y-36032463D01*
X75097869Y-36013891D01*
X75092637Y-36010652D01*
X75092634Y-36010651D01*
X75092635Y-36010651D01*
X74997546Y-35973814D01*
X74902456Y-35936976D01*
X74701976Y-35899500D01*
X74498024Y-35899500D01*
X74297544Y-35936976D01*
X74297541Y-35936976D01*
X74297541Y-35936977D01*
X74107364Y-36010651D01*
X74107357Y-36010655D01*
X73933960Y-36118017D01*
X73933958Y-36118019D01*
X73783237Y-36255418D01*
X73660327Y-36418178D01*
X73569422Y-36600739D01*
X73569417Y-36600752D01*
X73513602Y-36796917D01*
X73494785Y-36999999D01*
X73494785Y-37000000D01*
X73513602Y-37203082D01*
X73569417Y-37399247D01*
X73569422Y-37399260D01*
X73660327Y-37581821D01*
X73783237Y-37744581D01*
X73933958Y-37881980D01*
X73938535Y-37885437D01*
X73936890Y-37887614D01*
X73975852Y-37931004D01*
X73987015Y-37999976D01*
X73959118Y-38064035D01*
X73901016Y-38102841D01*
X73863985Y-38108500D01*
X73751365Y-38108500D01*
X73751355Y-38108497D01*
X73700000Y-38108497D01*
X73502381Y-38108497D01*
X73502377Y-38108497D01*
X73108645Y-38142944D01*
X72719420Y-38211576D01*
X72719417Y-38211576D01*
X72719415Y-38211577D01*
X72719410Y-38211578D01*
X72719407Y-38211579D01*
X72337651Y-38313869D01*
X71966240Y-38449052D01*
X71966225Y-38449058D01*
X71608046Y-38616081D01*
X71608030Y-38616089D01*
X71265759Y-38813700D01*
X71265744Y-38813709D01*
X70941985Y-39040409D01*
X70639226Y-39294456D01*
X70639214Y-39294467D01*
X70544931Y-39388750D01*
X70544930Y-39388749D01*
X70544925Y-39388755D01*
X70092973Y-39840705D01*
X70092974Y-39840706D01*
X70092208Y-39841472D01*
X70090704Y-39842976D01*
X70090646Y-39843008D01*
X70090651Y-39843013D01*
X69901664Y-40031998D01*
X69901640Y-40032024D01*
X69618827Y-40358408D01*
X69360021Y-40704132D01*
X69360018Y-40704137D01*
X69126529Y-41067456D01*
X68919561Y-41446490D01*
X68740157Y-41839335D01*
X68589232Y-42243983D01*
X68589226Y-42244002D01*
X68467563Y-42658354D01*
X68467562Y-42658360D01*
X68375765Y-43080349D01*
X68314306Y-43507828D01*
X68283499Y-43938596D01*
X68283499Y-43938600D01*
X68283500Y-44080269D01*
X68283500Y-65500777D01*
X68279575Y-65531728D01*
X68088590Y-66272665D01*
X68084367Y-66290359D01*
X68084094Y-66292124D01*
X68080222Y-66309104D01*
X68051475Y-66403869D01*
X68032159Y-66600000D01*
X63500500Y-66600000D01*
X63500500Y-36997092D01*
X63501074Y-36985176D01*
X63516673Y-36823596D01*
X63526045Y-36726512D01*
X63528224Y-36712451D01*
X63552160Y-36600752D01*
X63588389Y-36431687D01*
X63592159Y-36417985D01*
X63684113Y-36145939D01*
X63689434Y-36132750D01*
X63696385Y-36118017D01*
X63811954Y-35873051D01*
X63818741Y-35860573D01*
X63970225Y-35616612D01*
X63978392Y-35605003D01*
X64156841Y-35380005D01*
X64166288Y-35369405D01*
X64369351Y-35166336D01*
X64379948Y-35156892D01*
X64604930Y-34978445D01*
X64616550Y-34970269D01*
X64860504Y-34818779D01*
X64872986Y-34811988D01*
X65132683Y-34689461D01*
X65145878Y-34684139D01*
X65417901Y-34592182D01*
X65431610Y-34588409D01*
X65712391Y-34528232D01*
X65726434Y-34526057D01*
X65985135Y-34501073D01*
X65997052Y-34500500D01*
X144809367Y-34502947D01*
G37*
%TD.AperFunction*%
%TD*%
%TA.AperFunction,Conductor*%
%TO.N,Net-(U2-CP_{OUT})*%
G36*
X104548010Y-53887697D02*
G01*
X104550766Y-53889742D01*
X104808662Y-54147639D01*
X104812089Y-54155912D01*
X104810338Y-54162070D01*
X104309555Y-54971164D01*
X104302287Y-54976395D01*
X104295145Y-54975822D01*
X103753792Y-54752562D01*
X103747451Y-54746240D01*
X103747437Y-54746207D01*
X103525305Y-54207589D01*
X103525319Y-54198634D01*
X103531660Y-54192312D01*
X103532708Y-54191937D01*
X104539098Y-53886818D01*
X104548010Y-53887697D01*
G37*
%TD.AperFunction*%
%TD*%
%TA.AperFunction,Conductor*%
%TO.N,Net-(U2-CP_{OUT})*%
G36*
X119732839Y-54060617D02*
G01*
X120739341Y-54149063D01*
X120747283Y-54153201D01*
X120750017Y-54160699D01*
X120750991Y-54745135D01*
X120747578Y-54753413D01*
X120747554Y-54753437D01*
X120334838Y-55165183D01*
X120326561Y-55168600D01*
X120318292Y-55165163D01*
X120317552Y-55164348D01*
X119722795Y-54443743D01*
X119720118Y-54436295D01*
X119720118Y-54072273D01*
X119723545Y-54064000D01*
X119731818Y-54060573D01*
X119732839Y-54060617D01*
G37*
%TD.AperFunction*%
%TD*%
%TA.AperFunction,Conductor*%
%TO.N,Net-(U2-REF_{IN})*%
G36*
X95962975Y-45451392D02*
G01*
X96825340Y-45518164D01*
X96833324Y-45522219D01*
X96836137Y-45529829D01*
X96836137Y-45714474D01*
X96833092Y-45722347D01*
X96312215Y-46294912D01*
X96304112Y-46298726D01*
X96295687Y-46295694D01*
X96295311Y-46295335D01*
X95952867Y-45953857D01*
X95949429Y-45945592D01*
X95950394Y-45463033D01*
X95953837Y-45454768D01*
X95962117Y-45451358D01*
X95962975Y-45451392D01*
G37*
%TD.AperFunction*%
%TD*%
%TA.AperFunction,Conductor*%
%TO.N,3V3_ADF*%
G36*
X93788569Y-55277074D02*
G01*
X94743881Y-56135601D01*
X94747743Y-56143680D01*
X94744762Y-56152124D01*
X94744333Y-56152576D01*
X94397079Y-56499830D01*
X94389286Y-56503247D01*
X93262168Y-56549500D01*
X93253761Y-56546415D01*
X93249998Y-56538290D01*
X93249988Y-56537847D01*
X93249297Y-55804152D01*
X93252715Y-55795879D01*
X93772487Y-55277491D01*
X93780764Y-55274076D01*
X93788569Y-55277074D01*
G37*
%TD.AperFunction*%
%TD*%
%TA.AperFunction,Conductor*%
%TO.N,GND*%
G36*
X116001000Y-53000000D02*
G01*
X115469670Y-53530330D01*
X114631546Y-52950000D01*
X114631546Y-52250000D01*
X116000000Y-52250000D01*
X116001000Y-53000000D01*
G37*
%TD.AperFunction*%
%TD*%
%TA.AperFunction,Conductor*%
%TO.N,Net-(U2-SW)*%
G36*
X122793554Y-55020123D02*
G01*
X123719330Y-55440998D01*
X123725443Y-55447542D01*
X123725304Y-55456110D01*
X123502562Y-55996207D01*
X123496240Y-56002548D01*
X123496207Y-56002562D01*
X122956110Y-56225304D01*
X122947155Y-56225290D01*
X122940998Y-56219330D01*
X122520123Y-55293555D01*
X122519820Y-55284608D01*
X122522500Y-55280444D01*
X122780443Y-55022501D01*
X122788715Y-55019075D01*
X122793554Y-55020123D01*
G37*
%TD.AperFunction*%
%TD*%
%TA.AperFunction,Conductor*%
%TO.N,GND*%
G36*
X102561940Y-55808658D02*
G01*
X102100000Y-56001000D01*
X101638060Y-55808658D01*
X101973000Y-55000000D01*
X102227000Y-55000000D01*
X102561940Y-55808658D01*
G37*
%TD.AperFunction*%
%TD*%
%TA.AperFunction,Conductor*%
%TO.N,/3V8*%
G36*
X69290206Y-65603427D02*
G01*
X69293263Y-65608780D01*
X69496908Y-66398836D01*
X69495654Y-66407702D01*
X69490075Y-66412557D01*
X69041997Y-66599127D01*
X69033043Y-66599144D01*
X69033003Y-66599127D01*
X68584924Y-66412557D01*
X68578603Y-66406213D01*
X68578091Y-66398838D01*
X68781737Y-65608780D01*
X68787121Y-65601624D01*
X68793067Y-65600000D01*
X69281933Y-65600000D01*
X69290206Y-65603427D01*
G37*
%TD.AperFunction*%
%TD*%
%TA.AperFunction,Conductor*%
%TO.N,3V3_ADF*%
G36*
X121961433Y-57811297D02*
G01*
X121967272Y-57817400D01*
X122249133Y-58495509D01*
X122249144Y-58504464D01*
X122249133Y-58504491D01*
X121967272Y-59182599D01*
X121960932Y-59188923D01*
X121952487Y-59189110D01*
X120757719Y-58756793D01*
X120751106Y-58750756D01*
X120750000Y-58745791D01*
X120750000Y-58254208D01*
X120753427Y-58245935D01*
X120757715Y-58243208D01*
X121952487Y-57810889D01*
X121961433Y-57811297D01*
G37*
%TD.AperFunction*%
%TD*%
%TA.AperFunction,Conductor*%
%TO.N,3V3_ADF*%
G36*
X93930595Y-56081895D02*
G01*
X93936919Y-56088233D01*
X93936908Y-56097188D01*
X93936232Y-56098556D01*
X93381191Y-57058085D01*
X93374082Y-57063531D01*
X93372373Y-57063853D01*
X93133518Y-57090765D01*
X93124913Y-57088286D01*
X93122026Y-57084903D01*
X92563598Y-56098509D01*
X92562505Y-56089621D01*
X92568016Y-56082563D01*
X92569279Y-56081945D01*
X93245400Y-55800872D01*
X93254352Y-55800862D01*
X93930595Y-56081895D01*
G37*
%TD.AperFunction*%
%TD*%
%TA.AperFunction,Conductor*%
%TO.N,Net-(U2-REF_{IN})*%
G36*
X105738153Y-45167866D02*
G01*
X105738275Y-45168149D01*
X105924127Y-45614503D01*
X105924144Y-45623457D01*
X105924127Y-45623497D01*
X105738275Y-46069850D01*
X105731931Y-46076171D01*
X105722977Y-46076154D01*
X105722694Y-46076032D01*
X104931920Y-45722097D01*
X104925769Y-45715589D01*
X104925000Y-45711418D01*
X104925000Y-45526581D01*
X104928427Y-45518308D01*
X104931916Y-45515904D01*
X105722694Y-45161966D01*
X105731645Y-45161715D01*
X105738153Y-45167866D01*
G37*
%TD.AperFunction*%
%TD*%
M02*
