M48
; DRILL file {KiCad 8.0.8-8.0.8-0~ubuntu22.04.1} date 2025-02-19T20:51:56+0100
; FORMAT={-:-/ absolute / inch / decimal}
; #@! TF.CreationDate,2025-02-19T20:51:56+01:00
; #@! TF.GenerationSoftware,Kicad,Pcbnew,8.0.8-8.0.8-0~ubuntu22.04.1
; #@! TF.FileFunction,Plated,1,4,PTH
FMAT,2
INCH
; #@! TA.AperFunction,Plated,PTH,ViaDrill
T1C0.0118
; #@! TA.AperFunction,Plated,PTH,ComponentDrill
T2C0.0118
; #@! TA.AperFunction,Plated,PTH,ViaDrill
T3C0.0157
; #@! TA.AperFunction,Plated,PTH,ViaDrill
T4C0.0197
; #@! TA.AperFunction,Plated,PTH,ViaDrill
T5C0.0236
; #@! TA.AperFunction,Plated,PTH,ViaDrill
T6C0.0295
; #@! TA.AperFunction,Plated,PTH,ComponentDrill
T7C0.0394
; #@! TA.AperFunction,Plated,PTH,ComponentDrill
T8C0.0472
; #@! TA.AperFunction,Plated,PTH,ComponentDrill
T9C0.0669
; #@! TA.AperFunction,Plated,PTH,ComponentDrill
T10C0.0709
; #@! TA.AperFunction,Plated,PTH,ViaDrill
T11C0.1260
%
G90
G05
T1
X3.0295Y-3.0886
X3.0787Y-1.4803
X3.189Y-1.6614
X3.189Y-1.7008
X3.197Y-1.4959
X3.2185Y-2.0374
X3.2185Y-2.1457
X3.2283Y-2.2441
X3.2283Y-2.3524
X3.2382Y-1.8209
X3.2382Y-1.9291
X3.2913Y-1.5039
X3.2972Y-2.1457
X3.3071Y-1.8209
X3.3071Y-1.9291
X3.3071Y-2.0374
X3.3071Y-2.2441
X3.3071Y-2.3524
X3.3386Y-1.4961
X3.3386Y-2.8268
X3.3425Y-2.6417
X3.3425Y-2.689
X3.3425Y-2.7323
X3.3504Y-2.7795
X3.3661Y-2.2441
X3.376Y-1.8209
X3.376Y-1.9291
X3.376Y-2.0374
X3.376Y-2.1457
X3.376Y-2.3524
X3.378Y-1.4961
X3.4528Y-1.5048
X3.4764Y-2.4724
X3.4843Y-1.8307
X3.4843Y-1.937
X3.4843Y-2.0354
X3.4843Y-2.1555
X3.4843Y-2.252
X3.4843Y-2.3543
X3.4921Y-1.7106
X3.7616Y-1.9986
X3.7671Y-1.9646
X3.7774Y-1.9135
X3.7928Y-1.9409
X3.8484Y-1.9094
X3.9075Y-1.9094
X3.9567Y-1.9094
X4.0157Y-1.9094
X4.0551Y-2.8346
X4.1001Y-1.9302
X4.122Y-2.8445
X4.1535Y-2.876
X4.1732Y-1.9291
X4.1732Y-2.2677
X4.1751Y-1.8977
X4.2618Y-1.624
X4.2767Y-1.9094
X4.311Y-1.9173
X4.343Y-1.9446
X4.3465Y-2.9488
X4.4026Y-2.5719
X4.4094Y-1.624
X4.4173Y-3.0433
X4.4894Y-1.6327
X4.5079Y-1.8209
X4.5551Y-2.1772
X4.6063Y-1.5945
X4.6358Y-1.8209
X4.6417Y-2.2559
X4.6654Y-1.6142
X4.685Y-1.7047
X4.748Y-2.9961
X4.7835Y-1.8209
X4.815Y-2.9803
X4.8327Y-1.7126
X4.8642Y-3.061
X4.8917Y-1.6142
X5.0098Y-1.7913
X5.0689Y-1.5846
X5.0689Y-1.7126
X5.0689Y-1.9193
T2
X4.185Y-2.0123
X4.185Y-2.1265
X4.2421Y-2.0123
X4.2421Y-2.1265
X4.2992Y-2.0123
X4.2992Y-2.1265
T3
X2.8162Y-1.3937
X2.9103Y-1.3937
X3.0043Y-1.3937
X3.0983Y-1.3937
X3.1923Y-1.3937
X3.2863Y-1.3937
X3.3803Y-1.3937
X3.4743Y-1.3937
X3.5684Y-1.3937
X3.6624Y-1.3937
X3.7564Y-1.3937
X3.8504Y-1.3937
X3.9444Y-1.3937
X4.189Y-2.0709
X4.2402Y-2.0709
X4.2992Y-2.0709
T4
X2.6427Y-2.3858
X2.6427Y-2.4764
X2.6457Y-2.626
X2.6457Y-2.752
X2.6467Y-2.1969
X2.718Y-2.622
X2.7953Y-2.7756
X2.7953Y-2.9823
X2.9631Y-1.53
X2.9685Y-2.7165
X2.9685Y-2.7795
X3.0118Y-1.8799
X3.0118Y-1.9882
X3.0118Y-2.8543
X3.0315Y-1.7717
X3.0413Y-2.7165
X3.0413Y-2.7854
X3.0472Y-2.4094
X3.0664Y-1.9882
X3.0674Y-1.878
X3.0704Y-2.0945
X3.0709Y-2.189
X3.0709Y-2.3071
X3.0945Y-1.6693
X3.1102Y-2.8543
X3.1476Y-3.1378
X3.1594Y-3.0709
X3.1732Y-2.5
X3.1949Y-3.1752
X3.2283Y-2.8701
X3.2283Y-3.0709
X3.2402Y-3.2165
X3.2972Y-3.0709
X3.2992Y-3.2677
X3.3701Y-3.2677
X3.4429Y-3.2697
X3.4744Y-2.8642
X3.4744Y-2.9331
X3.4744Y-3.002
X3.4744Y-3.061
X3.4744Y-3.1299
X3.4744Y-3.1988
X3.5236Y-2.1969
X3.5335Y-1.9882
X3.5335Y-2.0768
X3.5354Y-2.2933
X3.5399Y-2.4094
X3.5433Y-1.8799
X3.5669Y-1.6457
X3.5669Y-1.7087
X3.5925Y-2.3819
X3.5984Y-1.5433
X3.6319Y-2.7559
X3.6417Y-3.248
X3.6929Y-1.5433
X3.7008Y-2.7559
X3.7106Y-3.248
X3.7303Y-2.1555
X3.7303Y-2.4213
X3.7697Y-2.4606
X3.7697Y-2.7559
X3.7717Y-1.5827
X3.7776Y-1.8091
X3.7795Y-3.248
X3.7874Y-2.0283
X3.8268Y-2.2047
X3.8346Y-1.5827
X3.8386Y-2.7559
X3.8425Y-2.3465
X3.8484Y-3.248
X3.8858Y-2.2047
X3.8898Y-1.5827
X3.9016Y-2.4016
X3.9028Y-1.6745
X3.9075Y-2.7559
X3.9173Y-3.248
X3.9213Y-2.0236
X3.9528Y-2.2047
X3.9567Y-1.7347
X3.9685Y-2.4016
X3.9685Y-3.2087
X3.9764Y-2.7559
X4.0157Y-1.7347
X4.0157Y-2.7972
X4.0157Y-2.8642
X4.0157Y-2.9193
X4.0157Y-3.1713
X4.0197Y-2.2047
X4.0295Y-3.2972
X4.0315Y-2.0276
X4.0394Y-2.4016
X4.0551Y-3.1299
X4.065Y-1.6172
X4.0748Y-3.248
X4.0787Y-2.9213
X4.0846Y-1.7347
X4.0965Y-3.0906
X4.1063Y-2.4016
X4.1358Y-3.0531
X4.1358Y-3.187
X4.1575Y-1.7402
X4.1614Y-2.3465
X4.1703Y-1.796
X4.2441Y-2.8937
X4.3012Y-2.8524
X4.3228Y-3.252
X4.3425Y-1.6969
X4.3425Y-1.7677
X4.3465Y-1.626
X4.3465Y-1.8346
X4.3465Y-3.0433
X4.3504Y-2.9035
X4.378Y-2.4409
X4.3898Y-1.9213
X4.4685Y-2.2638
X4.4843Y-2.4409
X4.5394Y-3.252
X4.5433Y-2.8543
X4.5472Y-2.2638
X4.5551Y-2.4409
X4.5571Y-2.2146
X4.5748Y-1.8189
X4.6752Y-1.811
X4.7047Y-2.4508
X4.7047Y-2.5197
X4.7441Y-1.752
X4.7441Y-1.811
X4.7559Y-2.8937
X4.7618Y-3.2776
X4.7933Y-1.8701
X4.7933Y-1.9291
X4.8307Y-3.2776
X4.8425Y-2.0276
X4.8563Y-2.8917
X4.8917Y-3.2421
X4.9016Y-2.4508
X4.9016Y-2.7854
X4.9114Y-2.0276
X4.9213Y-2.2146
X4.9409Y-3.1969
X4.9606Y-3.0748
X4.9606Y-3.1358
X4.9646Y-2.8346
X4.9665Y-2.9035
X4.9705Y-2.4508
X4.9803Y-1.7323
X4.9803Y-2.0276
X4.9803Y-2.0866
X5.0079Y-3.0413
X5.0492Y-2.0866
X5.061Y-2.7638
X5.1575Y-2.3563
X5.1594Y-2.4449
X5.187Y-1.9291
T5
X2.937Y-1.4567
X4.7441Y-1.5945
T6
X2.5591Y-1.5748
X2.5591Y-1.6709
X2.5591Y-1.767
X2.5591Y-1.8631
X2.5591Y-1.9592
X2.5591Y-2.0553
X2.5591Y-2.1561
X2.5591Y-2.2522
X2.5591Y-2.3483
X2.5591Y-2.4444
X2.5591Y-2.5405
X2.5591Y-2.6366
X2.5591Y-2.7327
X2.5591Y-2.8289
X2.6378Y-1.4764
X2.6378Y-1.5725
X2.6378Y-1.6686
X2.6378Y-1.7647
X2.6378Y-1.8608
X2.6378Y-1.9569
X2.6378Y-2.053
X2.6378Y-2.8445
X2.6969Y-2.9232
X2.7165Y-1.4341
X2.8543Y-3.0217
X2.9429Y-3.0906
X3.0118Y-3.1496
X3.0177Y-3.2303
X3.0177Y-3.3268
X3.0177Y-3.4055
X3.118Y-3.4055
X3.2146Y-3.4055
X3.3106Y-3.4055
X3.3878Y-3.0037
X3.3917Y-3.4055
X3.3937Y-2.8622
X3.3937Y-2.9291
X3.4803Y-3.4055
X3.563Y-2.5417
X3.563Y-2.6361
X3.563Y-2.7306
X3.563Y-2.825
X3.563Y-2.9195
X3.563Y-3.0139
X3.563Y-3.1084
X3.563Y-3.2028
X3.563Y-3.2874
X3.5827Y-3.4055
X3.6713Y-2.1969
X3.6732Y-2.1299
X3.6789Y-3.4055
X3.7106Y-2.6575
X3.7752Y-3.4055
X3.7977Y-2.6575
X3.8715Y-3.4055
X3.8848Y-2.6575
X3.9677Y-3.4055
X3.9718Y-2.6575
X4.0379Y-1.4016
X4.0589Y-2.6575
X4.064Y-3.4055
X4.0747Y-2.0631
X4.0846Y-2.1555
X4.1102Y-2.2126
X4.1299Y-2.752
X4.132Y-1.4016
X4.146Y-2.6575
X4.1603Y-3.4055
X4.2126Y-1.4961
X4.226Y-1.4016
X4.233Y-2.6575
X4.2362Y-2.7264
X4.2539Y-3.0827
X4.2565Y-3.4055
X4.3087Y-1.4961
X4.32Y-1.4016
X4.3201Y-2.6575
X4.3528Y-3.4055
X4.3701Y-2.185
X4.3917Y-3.1181
X4.3937Y-2.7283
X4.4048Y-1.4961
X4.4072Y-2.6575
X4.414Y-1.4016
X4.439Y-2.4803
X4.4491Y-3.4055
X4.4646Y-3.1181
X4.4665Y-2.7283
X4.4942Y-2.6575
X4.5009Y-1.4961
X4.508Y-1.4016
X4.5413Y-3.065
X4.5453Y-3.4055
X4.5669Y-2.0866
X4.5813Y-2.6575
X4.5965Y-2.4803
X4.597Y-1.4961
X4.602Y-1.4016
X4.6142Y-3.1161
X4.6201Y-2.7264
X4.6416Y-3.4055
X4.6684Y-2.6575
X4.6752Y-2.372
X4.6931Y-1.4961
X4.696Y-1.4016
X4.7028Y-2.7264
X4.7539Y-2.1555
X4.7539Y-2.2244
X4.7555Y-2.6575
X4.7559Y-3.0551
X4.7893Y-1.4961
X4.7901Y-1.4016
X4.813Y-2.3031
X4.8228Y-3.1142
X4.8425Y-2.6575
X4.8425Y-2.7264
X4.8524Y-2.4902
X4.8622Y-2.2047
X4.8819Y-1.4961
X4.8841Y-1.4016
X4.8982Y-3.3957
X4.9016Y-2.2835
X4.9213Y-2.5689
X4.978Y-1.4961
X4.9781Y-1.4016
X4.9945Y-3.3957
X5.0721Y-1.4016
X5.0741Y-1.4961
X5.0907Y-3.3957
X5.1476Y-2.5591
X5.1476Y-2.6552
X5.1476Y-2.7559
X5.1476Y-2.852
X5.1476Y-2.9551
X5.1476Y-3.0512
X5.1476Y-3.1496
X5.1476Y-3.2457
X5.1661Y-1.4016
X5.1673Y-1.4961
X5.187Y-3.3957
X5.2601Y-1.4016
X5.2953Y-1.5453
X5.2953Y-1.6414
X5.2953Y-1.7375
X5.2953Y-1.8336
X5.2953Y-1.9297
X5.2953Y-2.0258
X5.2953Y-2.1219
X5.2953Y-2.218
X5.2953Y-2.3188
X5.2953Y-2.4149
X5.2953Y-2.511
X5.2953Y-2.6071
X5.2953Y-2.7032
X5.2953Y-2.7993
X5.2953Y-2.8954
X5.2953Y-2.9915
X5.2953Y-3.0877
X5.2953Y-3.1838
X5.2953Y-3.2799
X5.2953Y-3.376
X5.7087Y-1.8469
X5.7087Y-1.943
X5.7087Y-2.0391
X5.7087Y-2.1352
X5.7087Y-2.2314
X5.7087Y-2.3321
X5.7087Y-2.4282
X5.7087Y-2.5243
X5.7087Y-2.6204
X5.7087Y-2.7165
X5.7087Y-2.8126
X5.7087Y-2.9088
X5.7087Y-3.0049
T7
X2.8346Y-1.6929
X2.8346Y-1.7929
X2.8346Y-1.8929
X2.8346Y-1.9929
X2.8346Y-2.0929
X2.8346Y-2.1929
X2.8346Y-2.2929
X2.8346Y-2.3929
X2.8346Y-2.4929
X2.8346Y-2.5929
X2.9346Y-1.6929
X2.9346Y-1.7929
X2.9346Y-1.8929
X2.9346Y-1.9929
X2.9346Y-2.0929
X2.9346Y-2.1929
X2.9346Y-2.2929
X2.9346Y-2.3929
X2.9346Y-2.4929
X2.9346Y-2.5929
T8
X3.7992Y-2.9823
T9
X3.6992Y-2.8823
X3.6992Y-3.0823
X3.8992Y-2.8823
X3.8992Y-3.0823
T10
X4.1024Y-1.4921
X4.7677Y-3.3819
T11
X2.7559Y-3.2283
X5.5906Y-1.6142
X5.5906Y-3.2283
M30
