%TF.GenerationSoftware,KiCad,Pcbnew,8.0.8-8.0.8-0~ubuntu22.04.1*%
%TF.CreationDate,2025-02-19T20:51:55+01:00*%
%TF.ProjectId,LO_synth_ADF4351_module,4c4f5f73-796e-4746-985f-414446343335,rev?*%
%TF.SameCoordinates,Original*%
%TF.FileFunction,Drillmap*%
%TF.FilePolarity,Positive*%
%FSLAX45Y45*%
G04 Gerber Fmt 4.5, Leading zero omitted, Abs format (unit mm)*
G04 Created by KiCad (PCBNEW 8.0.8-8.0.8-0~ubuntu22.04.1) date 2025-02-19 20:51:55*
%MOMM*%
%LPD*%
G01*
G04 APERTURE LIST*
%ADD10C,0.050000*%
%ADD11C,0.200000*%
G04 APERTURE END LIST*
D10*
X6299764Y-3700000D02*
G75*
G02*
X6599991Y-3399765I312366J-12130D01*
G01*
X14487878Y-3400245D02*
G75*
G02*
X14800000Y-3700000I12122J-299755D01*
G01*
X14800000Y-8600000D02*
G75*
G02*
X14500000Y-8900000I-300000J0D01*
G01*
X14500000Y-8900000D02*
X6612132Y-8900000D01*
X6300000Y-8600000D02*
X6300000Y-3700000D01*
X14800000Y-3700000D02*
X14800000Y-8600000D01*
X6600000Y-3400000D02*
X14487878Y-3400245D01*
X6612132Y-8900000D02*
G75*
G02*
X6299755Y-8600000I-12132J300000D01*
G01*
D11*
X6558032Y-9214229D02*
X6558032Y-9014229D01*
X6558032Y-9014229D02*
X6605651Y-9014229D01*
X6605651Y-9014229D02*
X6634222Y-9023753D01*
X6634222Y-9023753D02*
X6653270Y-9042800D01*
X6653270Y-9042800D02*
X6662793Y-9061848D01*
X6662793Y-9061848D02*
X6672317Y-9099943D01*
X6672317Y-9099943D02*
X6672317Y-9128515D01*
X6672317Y-9128515D02*
X6662793Y-9166610D01*
X6662793Y-9166610D02*
X6653270Y-9185658D01*
X6653270Y-9185658D02*
X6634222Y-9204705D01*
X6634222Y-9204705D02*
X6605651Y-9214229D01*
X6605651Y-9214229D02*
X6558032Y-9214229D01*
X6758032Y-9214229D02*
X6758032Y-9080896D01*
X6758032Y-9118991D02*
X6767555Y-9099943D01*
X6767555Y-9099943D02*
X6777079Y-9090419D01*
X6777079Y-9090419D02*
X6796127Y-9080896D01*
X6796127Y-9080896D02*
X6815174Y-9080896D01*
X6881841Y-9214229D02*
X6881841Y-9080896D01*
X6881841Y-9014229D02*
X6872317Y-9023753D01*
X6872317Y-9023753D02*
X6881841Y-9033277D01*
X6881841Y-9033277D02*
X6891365Y-9023753D01*
X6891365Y-9023753D02*
X6881841Y-9014229D01*
X6881841Y-9014229D02*
X6881841Y-9033277D01*
X7005651Y-9214229D02*
X6986603Y-9204705D01*
X6986603Y-9204705D02*
X6977079Y-9185658D01*
X6977079Y-9185658D02*
X6977079Y-9014229D01*
X7110412Y-9214229D02*
X7091365Y-9204705D01*
X7091365Y-9204705D02*
X7081841Y-9185658D01*
X7081841Y-9185658D02*
X7081841Y-9014229D01*
X7338984Y-9214229D02*
X7338984Y-9014229D01*
X7338984Y-9014229D02*
X7405651Y-9157086D01*
X7405651Y-9157086D02*
X7472317Y-9014229D01*
X7472317Y-9014229D02*
X7472317Y-9214229D01*
X7653270Y-9214229D02*
X7653270Y-9109467D01*
X7653270Y-9109467D02*
X7643746Y-9090419D01*
X7643746Y-9090419D02*
X7624698Y-9080896D01*
X7624698Y-9080896D02*
X7586603Y-9080896D01*
X7586603Y-9080896D02*
X7567555Y-9090419D01*
X7653270Y-9204705D02*
X7634222Y-9214229D01*
X7634222Y-9214229D02*
X7586603Y-9214229D01*
X7586603Y-9214229D02*
X7567555Y-9204705D01*
X7567555Y-9204705D02*
X7558032Y-9185658D01*
X7558032Y-9185658D02*
X7558032Y-9166610D01*
X7558032Y-9166610D02*
X7567555Y-9147562D01*
X7567555Y-9147562D02*
X7586603Y-9138039D01*
X7586603Y-9138039D02*
X7634222Y-9138039D01*
X7634222Y-9138039D02*
X7653270Y-9128515D01*
X7748508Y-9080896D02*
X7748508Y-9280896D01*
X7748508Y-9090419D02*
X7767555Y-9080896D01*
X7767555Y-9080896D02*
X7805651Y-9080896D01*
X7805651Y-9080896D02*
X7824698Y-9090419D01*
X7824698Y-9090419D02*
X7834222Y-9099943D01*
X7834222Y-9099943D02*
X7843746Y-9118991D01*
X7843746Y-9118991D02*
X7843746Y-9176134D01*
X7843746Y-9176134D02*
X7834222Y-9195181D01*
X7834222Y-9195181D02*
X7824698Y-9204705D01*
X7824698Y-9204705D02*
X7805651Y-9214229D01*
X7805651Y-9214229D02*
X7767555Y-9214229D01*
X7767555Y-9214229D02*
X7748508Y-9204705D01*
X7929460Y-9195181D02*
X7938984Y-9204705D01*
X7938984Y-9204705D02*
X7929460Y-9214229D01*
X7929460Y-9214229D02*
X7919936Y-9204705D01*
X7919936Y-9204705D02*
X7929460Y-9195181D01*
X7929460Y-9195181D02*
X7929460Y-9214229D01*
X7929460Y-9090419D02*
X7938984Y-9099943D01*
X7938984Y-9099943D02*
X7929460Y-9109467D01*
X7929460Y-9109467D02*
X7919936Y-9099943D01*
X7919936Y-9099943D02*
X7929460Y-9090419D01*
X7929460Y-9090419D02*
X7929460Y-9109467D01*
M02*
