%TF.GenerationSoftware,KiCad,Pcbnew,8.0.9-8.0.9-0~ubuntu22.04.1*%
%TF.CreationDate,2026-02-07T13:51:36+01:00*%
%TF.ProjectId,HW_0008_PrestoLO_rev01b,48575f30-3030-4385-9f50-726573746f4c,rev?*%
%TF.SameCoordinates,Original*%
%TF.FileFunction,Paste,Bot*%
%TF.FilePolarity,Positive*%
%FSLAX46Y46*%
G04 Gerber Fmt 4.6, Leading zero omitted, Abs format (unit mm)*
G04 Created by KiCad (PCBNEW 8.0.9-8.0.9-0~ubuntu22.04.1) date 2026-02-07 13:51:36*
%MOMM*%
%LPD*%
G01*
G04 APERTURE LIST*
G04 Aperture macros list*
%AMRoundRect*
0 Rectangle with rounded corners*
0 $1 Rounding radius*
0 $2 $3 $4 $5 $6 $7 $8 $9 X,Y pos of 4 corners*
0 Add a 4 corners polygon primitive as box body*
4,1,4,$2,$3,$4,$5,$6,$7,$8,$9,$2,$3,0*
0 Add four circle primitives for the rounded corners*
1,1,$1+$1,$2,$3*
1,1,$1+$1,$4,$5*
1,1,$1+$1,$6,$7*
1,1,$1+$1,$8,$9*
0 Add four rect primitives between the rounded corners*
20,1,$1+$1,$2,$3,$4,$5,0*
20,1,$1+$1,$4,$5,$6,$7,0*
20,1,$1+$1,$6,$7,$8,$9,0*
20,1,$1+$1,$8,$9,$2,$3,0*%
G04 Aperture macros list end*
%ADD10RoundRect,0.250000X-0.450000X0.350000X-0.450000X-0.350000X0.450000X-0.350000X0.450000X0.350000X0*%
%ADD11RoundRect,0.237500X0.237500X-0.300000X0.237500X0.300000X-0.237500X0.300000X-0.237500X-0.300000X0*%
%ADD12RoundRect,0.237500X-0.250000X-0.237500X0.250000X-0.237500X0.250000X0.237500X-0.250000X0.237500X0*%
%ADD13RoundRect,0.237500X-0.237500X0.250000X-0.237500X-0.250000X0.237500X-0.250000X0.237500X0.250000X0*%
%ADD14RoundRect,0.237500X-0.300000X-0.237500X0.300000X-0.237500X0.300000X0.237500X-0.300000X0.237500X0*%
%ADD15RoundRect,0.150000X0.512500X0.150000X-0.512500X0.150000X-0.512500X-0.150000X0.512500X-0.150000X0*%
%ADD16RoundRect,0.237500X-0.237500X0.300000X-0.237500X-0.300000X0.237500X-0.300000X0.237500X0.300000X0*%
%ADD17RoundRect,0.237500X0.300000X0.237500X-0.300000X0.237500X-0.300000X-0.237500X0.300000X-0.237500X0*%
%ADD18RoundRect,0.237500X0.250000X0.237500X-0.250000X0.237500X-0.250000X-0.237500X0.250000X-0.237500X0*%
%ADD19RoundRect,0.237500X-0.237500X0.287500X-0.237500X-0.287500X0.237500X-0.287500X0.237500X0.287500X0*%
%ADD20RoundRect,0.160000X0.197500X0.160000X-0.197500X0.160000X-0.197500X-0.160000X0.197500X-0.160000X0*%
%ADD21RoundRect,0.237500X0.287500X0.237500X-0.287500X0.237500X-0.287500X-0.237500X0.287500X-0.237500X0*%
G04 APERTURE END LIST*
D10*
%TO.C,R31*%
X87100000Y-68687500D03*
X87100000Y-70687500D03*
%TD*%
D11*
%TO.C,C110*%
X88600000Y-40662500D03*
X88600000Y-38937500D03*
%TD*%
D12*
%TO.C,R41*%
X90487500Y-40200000D03*
X92312500Y-40200000D03*
%TD*%
D10*
%TO.C,R27*%
X83300000Y-68687500D03*
X83300000Y-70687500D03*
%TD*%
D13*
%TO.C,R39*%
X100200000Y-39387500D03*
X100200000Y-41212500D03*
%TD*%
D14*
%TO.C,C23*%
X71025000Y-69000000D03*
X72750000Y-69000000D03*
%TD*%
D13*
%TO.C,R9*%
X72787500Y-70687500D03*
X72787500Y-72512500D03*
%TD*%
D10*
%TO.C,R30*%
X87100000Y-64600000D03*
X87100000Y-66600000D03*
%TD*%
D15*
%TO.C,U10*%
X86675000Y-38850000D03*
X86675000Y-39800000D03*
X86675000Y-40750000D03*
X84400000Y-40750000D03*
X84400000Y-39800000D03*
X84400000Y-38850000D03*
%TD*%
D11*
%TO.C,C51*%
X119150000Y-77862500D03*
X119150000Y-76137500D03*
%TD*%
D16*
%TO.C,C88*%
X111800000Y-73137500D03*
X111800000Y-74862500D03*
%TD*%
D17*
%TO.C,C116*%
X87462500Y-43900000D03*
X85737500Y-43900000D03*
%TD*%
D11*
%TO.C,C114*%
X82400000Y-42662500D03*
X82400000Y-40937500D03*
%TD*%
%TO.C,C127*%
X87000000Y-47262500D03*
X87000000Y-45537500D03*
%TD*%
D14*
%TO.C,C36*%
X70925000Y-74200000D03*
X72650000Y-74200000D03*
%TD*%
D10*
%TO.C,R28*%
X79500000Y-64600000D03*
X79500000Y-66600000D03*
%TD*%
D18*
%TO.C,R106*%
X103012500Y-42800000D03*
X101187500Y-42800000D03*
%TD*%
D10*
%TO.C,R29*%
X79500000Y-68687500D03*
X79500000Y-70687500D03*
%TD*%
D19*
%TO.C,FB13*%
X91200000Y-46325000D03*
X91200000Y-48075000D03*
%TD*%
D12*
%TO.C,R43*%
X78800000Y-40800000D03*
X80625000Y-40800000D03*
%TD*%
D16*
%TO.C,C113*%
X77000000Y-37537500D03*
X77000000Y-39262500D03*
%TD*%
D10*
%TO.C,R26*%
X83300000Y-64600000D03*
X83300000Y-66600000D03*
%TD*%
D19*
%TO.C,FB10*%
X97800000Y-41925000D03*
X97800000Y-43675000D03*
%TD*%
D12*
%TO.C,R42*%
X78800000Y-39200000D03*
X80625000Y-39200000D03*
%TD*%
D17*
%TO.C,C117*%
X87462500Y-42300000D03*
X85737500Y-42300000D03*
%TD*%
D20*
%TO.C,R104*%
X117797500Y-74800000D03*
X116602500Y-74800000D03*
%TD*%
D17*
%TO.C,C44*%
X104362500Y-45600000D03*
X102637500Y-45600000D03*
%TD*%
D11*
%TO.C,C112*%
X77000000Y-42662500D03*
X77000000Y-40937500D03*
%TD*%
D13*
%TO.C,R107*%
X86750000Y-60837500D03*
X86750000Y-62662500D03*
%TD*%
D20*
%TO.C,R103*%
X114497500Y-74800000D03*
X113302500Y-74800000D03*
%TD*%
D21*
%TO.C,FB9*%
X115275000Y-76300000D03*
X113525000Y-76300000D03*
%TD*%
D16*
%TO.C,C115*%
X82400000Y-37475000D03*
X82400000Y-39200000D03*
%TD*%
M02*
