%TF.GenerationSoftware,KiCad,Pcbnew,8.0.9-8.0.9-0~ubuntu22.04.1*%
%TF.CreationDate,2026-02-07T13:51:36+01:00*%
%TF.ProjectId,HW_0008_PrestoLO_rev01b,48575f30-3030-4385-9f50-726573746f4c,rev?*%
%TF.SameCoordinates,Original*%
%TF.FileFunction,Copper,L3,Inr*%
%TF.FilePolarity,Positive*%
%FSLAX46Y46*%
G04 Gerber Fmt 4.6, Leading zero omitted, Abs format (unit mm)*
G04 Created by KiCad (PCBNEW 8.0.9-8.0.9-0~ubuntu22.04.1) date 2026-02-07 13:51:36*
%MOMM*%
%LPD*%
G01*
G04 APERTURE LIST*
%TA.AperFunction,ComponentPad*%
%ADD10C,2.286000*%
%TD*%
%TA.AperFunction,HeatsinkPad*%
%ADD11C,0.600000*%
%TD*%
%TA.AperFunction,ComponentPad*%
%ADD12R,1.700000X1.700000*%
%TD*%
%TA.AperFunction,ComponentPad*%
%ADD13O,1.700000X1.700000*%
%TD*%
%TA.AperFunction,ComponentPad*%
%ADD14C,2.240000*%
%TD*%
%TA.AperFunction,ComponentPad*%
%ADD15C,2.740000*%
%TD*%
%TA.AperFunction,ViaPad*%
%ADD16C,1.800000*%
%TD*%
%TA.AperFunction,ViaPad*%
%ADD17C,1.000000*%
%TD*%
%TA.AperFunction,ViaPad*%
%ADD18C,1.500000*%
%TD*%
%TA.AperFunction,ViaPad*%
%ADD19C,0.800000*%
%TD*%
%TA.AperFunction,ViaPad*%
%ADD20C,0.600000*%
%TD*%
%TA.AperFunction,ViaPad*%
%ADD21C,5.000000*%
%TD*%
%TA.AperFunction,ViaPad*%
%ADD22C,0.700000*%
%TD*%
%TA.AperFunction,ViaPad*%
%ADD23C,1.200000*%
%TD*%
%TA.AperFunction,Conductor*%
%ADD24C,0.507000*%
%TD*%
%TA.AperFunction,Conductor*%
%ADD25C,0.508000*%
%TD*%
%TA.AperFunction,Conductor*%
%ADD26C,0.700000*%
%TD*%
%TA.AperFunction,Conductor*%
%ADD27C,0.200000*%
%TD*%
%TA.AperFunction,Conductor*%
%ADD28C,0.254000*%
%TD*%
%TA.AperFunction,Conductor*%
%ADD29C,0.381000*%
%TD*%
G04 APERTURE END LIST*
D10*
%TO.N,GND*%
%TO.C,J3*%
X104150000Y-37800000D03*
X121050000Y-85800000D03*
%TD*%
D11*
%TO.N,GND*%
%TO.C,U2*%
X106300000Y-51112500D03*
X106300000Y-54012500D03*
X107750000Y-51112500D03*
X107750000Y-54012500D03*
X109200000Y-51112500D03*
X109200000Y-54012500D03*
%TD*%
D12*
%TO.N,GND*%
%TO.C,J1*%
X72000000Y-43000000D03*
D13*
%TO.N,unconnected-(J1-Pin_2-Pad2)*%
X74540000Y-43000000D03*
%TO.N,GND*%
X72000000Y-45540000D03*
%TO.N,Fref_IN*%
X74540000Y-45540000D03*
%TO.N,Mute_RF*%
X72000000Y-48080000D03*
%TO.N,LD*%
X74540000Y-48080000D03*
%TO.N,DATA*%
X72000000Y-50620000D03*
%TO.N,CLK*%
X74540000Y-50620000D03*
%TO.N,CE*%
X72000000Y-53160000D03*
%TO.N,LE*%
X74540000Y-53160000D03*
%TO.N,unconnected-(J1-Pin_11-Pad11)*%
X72000000Y-55700000D03*
%TO.N,MUX*%
X74540000Y-55700000D03*
%TO.N,GND*%
X72000000Y-58240000D03*
X74540000Y-58240000D03*
%TO.N,LO_Buff_EN*%
X72000000Y-60780000D03*
%TO.N,~{RX_{EN}}*%
X74540000Y-60780000D03*
%TO.N,I2C_SCL*%
X72000000Y-63320000D03*
%TO.N,I2C_SDA*%
X74540000Y-63320000D03*
%TO.N,GND*%
X72000000Y-65860000D03*
X74540000Y-65860000D03*
%TD*%
D12*
%TO.N,Net-(J101-Pin_1)*%
%TO.C,J101*%
X142675000Y-58375000D03*
D13*
%TO.N,GND*%
X142675000Y-55835000D03*
X140135000Y-58375000D03*
%TO.N,Net-(J101-Pin_4)*%
X140135000Y-55835000D03*
%TD*%
D14*
%TO.N,Net-(J2-In)*%
%TO.C,J2*%
X96500000Y-75750000D03*
D15*
%TO.N,GND*%
X93960000Y-73210000D03*
X93960000Y-78290000D03*
X99040000Y-73210000D03*
X99040000Y-78290000D03*
%TD*%
D16*
%TO.N,/3V8*%
X85336136Y-85500000D03*
X137400000Y-85350000D03*
D17*
X69037500Y-66600000D03*
X74600000Y-38862500D03*
D16*
X137500000Y-83250000D03*
D17*
%TO.N,GND*%
X101000000Y-70000000D03*
X89800000Y-58250000D03*
X126100000Y-72000000D03*
D18*
X124414433Y-85800000D03*
D17*
X85000000Y-89000000D03*
X78000000Y-58600000D03*
X83500000Y-89000000D03*
D18*
X145700000Y-45100000D03*
D17*
X105050000Y-80950000D03*
X75400000Y-70600000D03*
D18*
X116891658Y-35600000D03*
D17*
X121000000Y-89000000D03*
D19*
X97800000Y-35400000D03*
D17*
X100500000Y-44062500D03*
D18*
X116365380Y-67800000D03*
D20*
X107500000Y-66300000D03*
D17*
X89500000Y-89000000D03*
D18*
X67000000Y-42382352D03*
D17*
X88250000Y-79500000D03*
D18*
X138241176Y-35600000D03*
D17*
X102400000Y-51500000D03*
D20*
X83750000Y-54500000D03*
D17*
X120169700Y-62230300D03*
X109000000Y-89000000D03*
X120800000Y-73500000D03*
X84700000Y-78500000D03*
D20*
X85750000Y-51750000D03*
D18*
X117797057Y-85900000D03*
D17*
X124250000Y-82350000D03*
D18*
X129304807Y-85800000D03*
X118576918Y-67800000D03*
X113400000Y-79200000D03*
D17*
X98800000Y-40200000D03*
D20*
X85500000Y-57000000D03*
D17*
X98700000Y-56000000D03*
X105050000Y-77550000D03*
X80500000Y-81500000D03*
D18*
X103125935Y-85900000D03*
D20*
X81203284Y-37994963D03*
D17*
X124500000Y-70750000D03*
D18*
X145700000Y-53400000D03*
D17*
X73000000Y-89000000D03*
D18*
X76650000Y-86500000D03*
X114323528Y-38000000D03*
D17*
X118750000Y-46000000D03*
X94000000Y-89000000D03*
X88250000Y-81250000D03*
X82000000Y-72900000D03*
D18*
X116764704Y-38000000D03*
D17*
X67125000Y-62900000D03*
D18*
X107000000Y-38000000D03*
D17*
X128550000Y-70200000D03*
X102000000Y-72750000D03*
D20*
X106000000Y-49000000D03*
D17*
X89750000Y-50500000D03*
D18*
X90500000Y-69356618D03*
D17*
X114600000Y-41300000D03*
X102000000Y-80550000D03*
D21*
X142500000Y-40000000D03*
D17*
X104300000Y-61000000D03*
X80600000Y-63500000D03*
X91900000Y-59000000D03*
X105600000Y-44200000D03*
X67200000Y-66700000D03*
D18*
X67000000Y-52147056D03*
D17*
X99250000Y-70000000D03*
X103700000Y-77200000D03*
X120100000Y-40500000D03*
X92400000Y-81500000D03*
X139000000Y-89000000D03*
D20*
X83600000Y-38200000D03*
D18*
X143300000Y-77600000D03*
D20*
X108250000Y-41250000D03*
D18*
X65000000Y-54764712D03*
X117250000Y-76550000D03*
D19*
X88248152Y-35400000D03*
D20*
X85750000Y-54500000D03*
D18*
X134500000Y-73544120D03*
X117350000Y-69250000D03*
X123919700Y-63230300D03*
X109727772Y-35600000D03*
X128882360Y-38000000D03*
D20*
X122300000Y-75700000D03*
X82000000Y-59750000D03*
D18*
X74400000Y-84500000D03*
D17*
X80500000Y-89000000D03*
D18*
X114503696Y-35600000D03*
D17*
X96400000Y-59400000D03*
D18*
X114153842Y-67800000D03*
D17*
X88000000Y-89000000D03*
D18*
X143400000Y-68600000D03*
X145700000Y-58282352D03*
D20*
X112900000Y-63900000D03*
D18*
X145600000Y-77600000D03*
X104900000Y-69900000D03*
D20*
X108627000Y-48500000D03*
D17*
X69000000Y-72800000D03*
D20*
X102000000Y-48500000D03*
D17*
X117950000Y-44100000D03*
X89750000Y-52750000D03*
X111500000Y-48800000D03*
X99400000Y-81500000D03*
D18*
X134400000Y-37900000D03*
X121667582Y-35600000D03*
D17*
X137500000Y-89000000D03*
X76000000Y-89000000D03*
D18*
X90500000Y-78952206D03*
X130750000Y-75058824D03*
X107339810Y-35600000D03*
D17*
X121750000Y-47500000D03*
X82500000Y-81500000D03*
X110300000Y-44900000D03*
X83900000Y-43900000D03*
X96500000Y-78300000D03*
D20*
X117900000Y-57300000D03*
D18*
X145700000Y-73200000D03*
X130750000Y-65000000D03*
D20*
X117750000Y-46250000D03*
D18*
X119279620Y-35600000D03*
D17*
X101600000Y-79000000D03*
D18*
X100884614Y-67500000D03*
D17*
X127000000Y-89000000D03*
D18*
X105571122Y-85900000D03*
X111882352Y-38000000D03*
D17*
X77400000Y-61200000D03*
D18*
X121647056Y-38000000D03*
X130750000Y-72441176D03*
D17*
X76500000Y-50500000D03*
D18*
X133607392Y-35600000D03*
D17*
X100800000Y-61000000D03*
X121400000Y-44100000D03*
X82000000Y-89000000D03*
X80500000Y-80200000D03*
X131050000Y-62100000D03*
D18*
X65000000Y-66970592D03*
X134500000Y-85750000D03*
D20*
X100500000Y-48500000D03*
D17*
X102000000Y-71050000D03*
D18*
X130750000Y-77500000D03*
D17*
X115500000Y-57500000D03*
X126800000Y-40300000D03*
X132300000Y-49600000D03*
D18*
X65000000Y-44882352D03*
D17*
X94750000Y-61500000D03*
D18*
X109441176Y-38000000D03*
D17*
X133000000Y-89000000D03*
X109800000Y-82600000D03*
D19*
X83472228Y-35400000D03*
D17*
X77887500Y-50500000D03*
X112000000Y-89000000D03*
X131000000Y-59850000D03*
D18*
X134500000Y-63779416D03*
X126441176Y-38000000D03*
X93345187Y-85900000D03*
X107600000Y-69250000D03*
D20*
X128300000Y-48400000D03*
X84800000Y-71800000D03*
D17*
X126000000Y-79650000D03*
D18*
X65000000Y-64529416D03*
D17*
X116500000Y-89000000D03*
D18*
X125516060Y-65320300D03*
D19*
X71532418Y-35400000D03*
D18*
X130750000Y-67441176D03*
D17*
X86500000Y-89000000D03*
X94150000Y-81500000D03*
D18*
X65000000Y-69411768D03*
D17*
X98500000Y-80400000D03*
X97000000Y-89000000D03*
X112100000Y-61700000D03*
X140500000Y-89000000D03*
X95750000Y-62500000D03*
X125169700Y-62230300D03*
D18*
X120788456Y-67800000D03*
D17*
X67225000Y-55800000D03*
X110400000Y-77300000D03*
X96200000Y-51519000D03*
X89900000Y-84300000D03*
X102600000Y-61000000D03*
D18*
X124500000Y-58000000D03*
D17*
X102000000Y-74150000D03*
D18*
X69000000Y-36426472D03*
X145700000Y-60723528D03*
D17*
X116200000Y-46200000D03*
X76500000Y-47750000D03*
X113500000Y-57500000D03*
X115600000Y-61700000D03*
D18*
X108016309Y-85900000D03*
D17*
X134500000Y-89000000D03*
X93800000Y-75800000D03*
D19*
X100187962Y-35400000D03*
D17*
X125500000Y-81200000D03*
D18*
X88300000Y-85900000D03*
D17*
X128250000Y-53000000D03*
X113500000Y-89000000D03*
X97500000Y-70000000D03*
D18*
X65000000Y-42441176D03*
D17*
X110500000Y-89000000D03*
X126500000Y-53000000D03*
D20*
X115500000Y-65200000D03*
D17*
X92250000Y-70000000D03*
D18*
X134500000Y-51455880D03*
D20*
X82250000Y-49000000D03*
D17*
X95500000Y-89000000D03*
D18*
X143400000Y-73200000D03*
D17*
X124800000Y-46500000D03*
X125500000Y-89000000D03*
D20*
X84000000Y-57000000D03*
D18*
X145700000Y-55841176D03*
D17*
X67200000Y-69900000D03*
D18*
X90500000Y-66957721D03*
X98235561Y-85900000D03*
X145700000Y-47800000D03*
X67000000Y-37500000D03*
D17*
X110500000Y-73750000D03*
X95750000Y-70000000D03*
D18*
X145700000Y-68600000D03*
X143200000Y-47800000D03*
D17*
X117400000Y-61700000D03*
D18*
X65000000Y-62088240D03*
X119450000Y-69250000D03*
D22*
X109200000Y-52600000D03*
D17*
X70000000Y-87000000D03*
D18*
X112115734Y-35600000D03*
X65000000Y-40000000D03*
D17*
X102000000Y-44062500D03*
X89500000Y-55800000D03*
X136000000Y-89000000D03*
X104050000Y-78500000D03*
X91000000Y-89000000D03*
X75400000Y-69000000D03*
D18*
X90900000Y-85900000D03*
D17*
X88250000Y-77750000D03*
X123000000Y-51500000D03*
D20*
X81000000Y-42200000D03*
X110800000Y-65100000D03*
D18*
X117200000Y-79150000D03*
D20*
X123550000Y-77750000D03*
D17*
X106000000Y-89000000D03*
D18*
X86400000Y-76293750D03*
D17*
X78000000Y-55600000D03*
D18*
X65000000Y-49764704D03*
X123000000Y-67500000D03*
D17*
X79000000Y-89000000D03*
D18*
X67000000Y-49705880D03*
X134500000Y-75985296D03*
D17*
X99600000Y-51400000D03*
D18*
X68600000Y-75800000D03*
X120400000Y-64600000D03*
X90500000Y-74154412D03*
D17*
X110400000Y-46600000D03*
D18*
X123000000Y-69250000D03*
X90500000Y-81351103D03*
D17*
X90000000Y-47750000D03*
D18*
X70900000Y-77400000D03*
X112906683Y-85900000D03*
D17*
X125000000Y-56250000D03*
D18*
X122500000Y-79100000D03*
D17*
X93800000Y-39200000D03*
D21*
X142500000Y-83000000D03*
D17*
X124000000Y-89000000D03*
D20*
X84900000Y-68300000D03*
D17*
X91400000Y-39200000D03*
X115750000Y-56250000D03*
X102700000Y-78100000D03*
D20*
X85750000Y-59750000D03*
D18*
X134500000Y-49014704D03*
D17*
X103000000Y-89000000D03*
D18*
X109730766Y-67800000D03*
D19*
X95412038Y-35400000D03*
D18*
X104400000Y-56200000D03*
D19*
X90636114Y-35400000D03*
D17*
X89912500Y-61200000D03*
D18*
X67000000Y-39941176D03*
D20*
X81000000Y-43200000D03*
D17*
X119500000Y-89000000D03*
X142000000Y-88100000D03*
X125750000Y-77950000D03*
D18*
X110461496Y-85900000D03*
D17*
X110300000Y-43100000D03*
X126500000Y-51500000D03*
D20*
X114500000Y-46250000D03*
D17*
X88250000Y-74500000D03*
D18*
X100680748Y-85900000D03*
X120800000Y-77600000D03*
D17*
X100000000Y-89000000D03*
X122500000Y-89000000D03*
D18*
X126859620Y-85800000D03*
D17*
X103500000Y-82500000D03*
X100800000Y-81500000D03*
D18*
X90500000Y-71755515D03*
X128831468Y-35600000D03*
D17*
X74500000Y-89000000D03*
D20*
X78200000Y-37600000D03*
D17*
X95000000Y-80500000D03*
D18*
X113450000Y-69400000D03*
D17*
X91500000Y-84300000D03*
X88250000Y-72750000D03*
D18*
X134500000Y-46573528D03*
X119205880Y-38000000D03*
D20*
X104141720Y-49027070D03*
D18*
X98673076Y-67500000D03*
X95790374Y-85900000D03*
D17*
X78000000Y-47800000D03*
D20*
X81750000Y-51750000D03*
D17*
X118000000Y-89000000D03*
X119700000Y-44100000D03*
D19*
X76308342Y-35400000D03*
D17*
X77000000Y-44300000D03*
D20*
X84000000Y-59750000D03*
D17*
X71500000Y-88000000D03*
X74000000Y-76000000D03*
D18*
X111000000Y-55500000D03*
X65000000Y-71852944D03*
D17*
X98500000Y-89000000D03*
X120500000Y-46000000D03*
X84500000Y-81800000D03*
D18*
X65000000Y-59647064D03*
X90500000Y-76553309D03*
X134500000Y-80867648D03*
D17*
X101500000Y-89000000D03*
X91250000Y-60500000D03*
D18*
X126443506Y-35600000D03*
D17*
X103000000Y-79500000D03*
X97400000Y-40200000D03*
D18*
X90500000Y-64558824D03*
D17*
X101800000Y-40700000D03*
D18*
X115351870Y-85900000D03*
X145600000Y-75600000D03*
X104951848Y-35600000D03*
D17*
X77500000Y-89000000D03*
X94750000Y-54750000D03*
D20*
X82000000Y-57000000D03*
D17*
X128700000Y-45000000D03*
X107800000Y-73500000D03*
D18*
X134500000Y-68661768D03*
D17*
X96500000Y-73100000D03*
D18*
X134500000Y-71102944D03*
D17*
X103750000Y-44062500D03*
X126200000Y-74050000D03*
D20*
X84800000Y-38000000D03*
D18*
X134500000Y-61338240D03*
X131750000Y-85800000D03*
X134500000Y-41691176D03*
D17*
X113800000Y-61700000D03*
D18*
X108050000Y-78300000D03*
X134500000Y-78426472D03*
D17*
X71000000Y-70500000D03*
X124900000Y-50100000D03*
D22*
X107700000Y-52600000D03*
D17*
X91500000Y-43900000D03*
X124700000Y-40300000D03*
X77250000Y-70750000D03*
D18*
X96461538Y-67500000D03*
D17*
X131500000Y-89000000D03*
D20*
X82250000Y-46250000D03*
D17*
X110400000Y-41300000D03*
X77250000Y-69000000D03*
D18*
X67000000Y-47264704D03*
D17*
X121750000Y-49000000D03*
D18*
X135800000Y-35600000D03*
D19*
X81084266Y-35400000D03*
D17*
X105700000Y-59600000D03*
D18*
X102563886Y-35600000D03*
D17*
X96700000Y-80500000D03*
X124750000Y-51500000D03*
D18*
X130750000Y-82441176D03*
D22*
X106400000Y-52600000D03*
D18*
X67000000Y-44823528D03*
D20*
X115700000Y-55300000D03*
D18*
X105307690Y-67800000D03*
D17*
X94000000Y-70000000D03*
X97200000Y-56000000D03*
D18*
X145700000Y-66000000D03*
X111942304Y-67800000D03*
X115350000Y-77850000D03*
X65000000Y-52205880D03*
D17*
X90300000Y-43900000D03*
X128500000Y-89000000D03*
D20*
X85750000Y-49000000D03*
D17*
X115000000Y-89000000D03*
D19*
X73920380Y-35400000D03*
D17*
X115300000Y-82600000D03*
D18*
X130750000Y-70000000D03*
X118300000Y-62800000D03*
X131219430Y-35600000D03*
X116000000Y-53000000D03*
X118750000Y-60250000D03*
D20*
X81750000Y-54500000D03*
D17*
X102350000Y-83750000D03*
D20*
X114500000Y-65200000D03*
D17*
X86300000Y-81800000D03*
X99100000Y-61000000D03*
D18*
X66600000Y-74000000D03*
D17*
X67125000Y-60600000D03*
X137000000Y-37900000D03*
X102100000Y-56000000D03*
D18*
X131250000Y-38000000D03*
D17*
X90600000Y-41500000D03*
D18*
X79198130Y-86500000D03*
D20*
X104700000Y-72250000D03*
D17*
X123350000Y-73450000D03*
D18*
X134500000Y-66220592D03*
X143300000Y-66000000D03*
D20*
X109900000Y-65100000D03*
D18*
X143300000Y-75600000D03*
D17*
X92500000Y-89000000D03*
D18*
X103096152Y-67500000D03*
X143500000Y-52700000D03*
X94250000Y-67500000D03*
D17*
X130000000Y-89000000D03*
X76500000Y-72500000D03*
D20*
X121500000Y-46250000D03*
X84000000Y-46250000D03*
D17*
X97650000Y-81500000D03*
X82900000Y-78600000D03*
D18*
X81650000Y-86500000D03*
D17*
X122700000Y-82700000D03*
X80500000Y-78700000D03*
X126950000Y-77100000D03*
D20*
X97750000Y-48500000D03*
X117000000Y-40500000D03*
X84000000Y-49000000D03*
D18*
X107519228Y-67800000D03*
D17*
X78600000Y-42400000D03*
D21*
X69500000Y-83000000D03*
D18*
X111600000Y-69400000D03*
D17*
X79000000Y-72500000D03*
D18*
X134500000Y-44132352D03*
X65000000Y-47323528D03*
X134500000Y-58897064D03*
D20*
X85750000Y-46250000D03*
D17*
X126250000Y-62250000D03*
X143500000Y-87000000D03*
X116300000Y-44100000D03*
D18*
X73600000Y-79400000D03*
X124055544Y-35600000D03*
D17*
X100400000Y-56000000D03*
X82050000Y-77300000D03*
D20*
X85800000Y-38000000D03*
D18*
X134500000Y-53897056D03*
D17*
X88250000Y-76250000D03*
X97600000Y-59900000D03*
D18*
X84000000Y-87500000D03*
D17*
X110300000Y-61600000D03*
X103600000Y-74200000D03*
D20*
X106000000Y-57600000D03*
D18*
X111550000Y-79200000D03*
D17*
X109250000Y-72450000D03*
D20*
X84000000Y-51750000D03*
D17*
X83800000Y-77300000D03*
D18*
X74400000Y-81900000D03*
D20*
X99250000Y-48500000D03*
D19*
X85860190Y-35400000D03*
D18*
X124000000Y-38000000D03*
D17*
X115400000Y-72500000D03*
D18*
X120750000Y-56500000D03*
X65000000Y-57205888D03*
D17*
X104500000Y-89000000D03*
X130800000Y-48100000D03*
D18*
X130750000Y-80000000D03*
D17*
X107500000Y-89000000D03*
D20*
X110900000Y-63300000D03*
X105500000Y-73050000D03*
D17*
X95900000Y-81500000D03*
X120950000Y-82700000D03*
D18*
X114700000Y-62800000D03*
D17*
X80500000Y-77200000D03*
D18*
X134500000Y-56338232D03*
X134500000Y-83308824D03*
D17*
X137500000Y-87200000D03*
D20*
X112000000Y-41250000D03*
D19*
X78696304Y-35400000D03*
D17*
X77987500Y-53200000D03*
D19*
X93024076Y-35400000D03*
D20*
%TO.N,Net-(U2-LD)*%
X110313137Y-49391962D03*
X88700000Y-43700000D03*
D19*
%TO.N,3V3_ADF*%
X88300000Y-62800000D03*
D18*
X93300000Y-54100000D03*
X93250000Y-55800000D03*
X86200000Y-72700000D03*
X86200000Y-74400000D03*
X122250000Y-58500000D03*
D20*
X103000000Y-72000000D03*
%TO.N,Net-(U2-MUXOUT)*%
X88500000Y-59800000D03*
X106048624Y-48201376D03*
%TO.N,Net-(U2-PDB_{RF})*%
X109500000Y-48700000D03*
X88500000Y-46500000D03*
%TO.N,Net-(U2-CE)*%
X95544902Y-50763453D03*
X88500000Y-57200000D03*
%TO.N,Net-(U2-LE)*%
X88500000Y-54750000D03*
X95685421Y-49900000D03*
%TO.N,Net-(U2-DATA)*%
X96338193Y-49300000D03*
X88500000Y-51700000D03*
%TO.N,Net-(U2-CLK)*%
X95945142Y-48603211D03*
X88500000Y-49200000D03*
D17*
%TO.N,Net-(U2-REF_{IN})*%
X105925000Y-45619000D03*
D20*
%TO.N,Net-(C36-Pad2)*%
X112200000Y-77300000D03*
X74000000Y-77500000D03*
%TO.N,Net-(U101-Vcc)*%
X120600000Y-76100000D03*
D23*
%TO.N,Net-(U2-CP_{OUT})*%
X120750000Y-54750000D03*
X103750000Y-54750000D03*
D20*
%TO.N,LO_Buff_EN*%
X116450000Y-41350000D03*
D23*
%TO.N,/5V6*%
X132000000Y-42000000D03*
X136950000Y-39350000D03*
%TO.N,Net-(U2-SW)*%
X103496325Y-52403675D03*
X123500000Y-56000000D03*
D20*
%TO.N,Net-(U7-A2)*%
X84900000Y-67100000D03*
%TO.N,Net-(U7-A1)*%
X84900000Y-69400000D03*
%TO.N,Net-(U7-A0)*%
X85100000Y-70600000D03*
%TO.N,Fref_IN*%
X101900000Y-41800000D03*
D17*
%TO.N,V_VCTCXO*%
X95800000Y-40200000D03*
%TO.N,Net-(U8-VDD)*%
X99131679Y-42531379D03*
%TO.N,VCTCXO_Out*%
X96000000Y-45600000D03*
D20*
%TO.N,3V3_VCTCXO*%
X87702297Y-38223000D03*
%TO.N,/3V3_LS*%
X110400000Y-74900000D03*
%TD*%
D24*
%TO.N,/3V8*%
X74598979Y-38863521D02*
X74600000Y-38862500D01*
X69037500Y-44154531D02*
X69037500Y-66600000D01*
X71032645Y-39967354D02*
X70587499Y-40412499D01*
X74596514Y-38864542D02*
X73514784Y-38864542D01*
X74598979Y-38863521D02*
G75*
G02*
X74596514Y-38864536I-2479J2521D01*
G01*
X69037500Y-44154531D02*
G75*
G02*
X70587491Y-40412491I5292000J31D01*
G01*
X71032645Y-39967354D02*
G75*
G02*
X73514783Y-38864528I2678155J-2683046D01*
G01*
D25*
%TO.N,GND*%
X103850000Y-53500000D02*
X103600000Y-53500000D01*
X103850000Y-53500000D02*
X104000000Y-53500000D01*
D26*
X115317157Y-52600000D02*
X109200000Y-52600000D01*
D25*
X103537500Y-53500000D02*
X103412500Y-53500000D01*
D27*
X116000000Y-53000000D02*
X115800000Y-52800000D01*
D25*
X103350000Y-53500000D02*
X103412500Y-53500000D01*
X103600000Y-53500000D02*
X103537500Y-53500000D01*
D28*
X102581801Y-53818198D02*
X102499999Y-53899999D01*
D26*
X107700000Y-52600000D02*
X109200000Y-52600000D01*
D25*
X104650000Y-53050000D02*
X104341421Y-53358578D01*
D26*
X106400000Y-52600000D02*
X107700000Y-52600000D01*
D28*
X102100000Y-54865685D02*
X102100000Y-56000000D01*
D26*
X106400000Y-52600000D02*
X105736396Y-52600000D01*
X104650000Y-53050000D02*
G75*
G02*
X105736396Y-52599998I1086400J-1086400D01*
G01*
D28*
X102100000Y-54865685D02*
G75*
G02*
X102500004Y-53900004I1365700J-15D01*
G01*
D27*
X115317157Y-52600000D02*
G75*
G02*
X115800013Y-52799987I43J-682800D01*
G01*
D25*
X104000000Y-53500000D02*
G75*
G03*
X104341433Y-53358590I0J482900D01*
G01*
X102581801Y-53818198D02*
G75*
G02*
X103350000Y-53500000I768199J-768202D01*
G01*
D28*
%TO.N,Net-(U2-LD)*%
X88700000Y-43700000D02*
X88700000Y-43825000D01*
X88788388Y-44038388D02*
X91500000Y-46750000D01*
X108446538Y-46895376D02*
X103809458Y-46895376D01*
X109967070Y-48067070D02*
X109042041Y-47142041D01*
X102953319Y-47250000D02*
X92707106Y-47250000D01*
X110313137Y-49391962D02*
X110313137Y-48902549D01*
X108446538Y-46895376D02*
G75*
G02*
X109042013Y-47142069I-38J-842124D01*
G01*
X92707106Y-47250000D02*
G75*
G02*
X91499998Y-46750002I-6J1707100D01*
G01*
X110313137Y-48902549D02*
G75*
G03*
X109967093Y-48067047I-1181537J49D01*
G01*
X103381389Y-47072688D02*
G75*
G02*
X103809458Y-46895330I428111J-428012D01*
G01*
X88788388Y-44038388D02*
G75*
G02*
X88700007Y-43825000I213412J213388D01*
G01*
X103381389Y-47072688D02*
G75*
G02*
X102953319Y-47250009I-428089J428088D01*
G01*
D25*
%TO.N,3V3_ADF*%
X122250000Y-58500000D02*
X98659188Y-58500000D01*
D28*
X94045495Y-58845495D02*
X101434314Y-66234314D01*
D25*
X95400000Y-57150000D02*
X94332842Y-56082842D01*
D28*
X102000000Y-67692893D02*
X102000000Y-67600000D01*
X93250000Y-55800000D02*
X93250000Y-56925000D01*
D25*
X93250000Y-55800000D02*
X93650000Y-55800000D01*
D28*
X103000000Y-70107106D02*
X103000000Y-72000000D01*
D25*
X94332842Y-56082842D02*
G75*
G03*
X93650000Y-55800004I-682842J-682858D01*
G01*
D28*
X101434314Y-66234314D02*
G75*
G02*
X101999991Y-67600000I-1365714J-1365686D01*
G01*
D25*
X95400000Y-57150000D02*
G75*
G03*
X98659188Y-58500005I3259200J3259200D01*
G01*
D28*
X102000000Y-67692893D02*
G75*
G03*
X102499998Y-68900002I1707100J-7D01*
G01*
X94045495Y-58845495D02*
G75*
G02*
X93250003Y-56925000I1920505J1920495D01*
G01*
X103000000Y-70107106D02*
G75*
G03*
X102500002Y-68899998I-1707100J6D01*
G01*
D27*
%TO.N,Net-(U2-MUXOUT)*%
X97654415Y-52800000D02*
X93731377Y-52800000D01*
X102657537Y-50011091D02*
X101434314Y-51234314D01*
X105965617Y-48250000D02*
X103768198Y-48250000D01*
X91000000Y-57634314D02*
X91000000Y-55531326D01*
X103000000Y-49184314D02*
X103000000Y-49018198D01*
X106048624Y-48201376D02*
X106024312Y-48225688D01*
X88500000Y-59800000D02*
X89115685Y-59800000D01*
X90166726Y-59364644D02*
X90365685Y-59165685D01*
X91800000Y-53600000D02*
G75*
G03*
X91000029Y-55531326I1931300J-1931300D01*
G01*
X91000000Y-57634314D02*
G75*
G02*
X90365681Y-59165681I-2165700J14D01*
G01*
X103000000Y-49184314D02*
G75*
G02*
X102657522Y-50011076I-1169200J14D01*
G01*
X91800000Y-53600000D02*
G75*
G02*
X93731377Y-52799988I1931400J-1931400D01*
G01*
X103225000Y-48475000D02*
G75*
G02*
X103768198Y-48249999I543200J-543200D01*
G01*
X103225000Y-48475000D02*
G75*
G03*
X102999999Y-49018198I543200J-543200D01*
G01*
X90166726Y-59364644D02*
G75*
G02*
X89115685Y-59799988I-1051026J1051044D01*
G01*
X105965617Y-48250000D02*
G75*
G03*
X106024302Y-48225678I-17J83000D01*
G01*
X97654415Y-52800000D02*
G75*
G03*
X101434310Y-51234310I-15J5345600D01*
G01*
D28*
%TO.N,Net-(U2-PDB_{RF})*%
X107877183Y-47349376D02*
X104030037Y-47349376D01*
X89616116Y-46500000D02*
X88500000Y-46500000D01*
X103062846Y-47750000D02*
X92633883Y-47750000D01*
X109024688Y-47824688D02*
X109358578Y-48158578D01*
X109500000Y-48500000D02*
X109500000Y-48700000D01*
X109500000Y-48500000D02*
G75*
G03*
X109358569Y-48158587I-482800J0D01*
G01*
X91125000Y-47125000D02*
G75*
G03*
X92633883Y-47750007I1508900J1508900D01*
G01*
X91125000Y-47125000D02*
G75*
G03*
X89616116Y-46499993I-1508900J-1508900D01*
G01*
X107877183Y-47349376D02*
G75*
G02*
X109024698Y-47824678I17J-1622824D01*
G01*
X103546442Y-47549688D02*
G75*
G02*
X104030037Y-47349408I483558J-483612D01*
G01*
X103062846Y-47750000D02*
G75*
G03*
X103546417Y-47549663I-46J683900D01*
G01*
D27*
%TO.N,Net-(U2-CE)*%
X93549708Y-51284605D02*
X91203033Y-53631280D01*
X90550000Y-55375736D02*
X90550000Y-55207842D01*
X90015685Y-56665685D02*
X89828337Y-56853032D01*
X95544902Y-50763453D02*
X94807881Y-50763453D01*
X88990685Y-57200000D02*
X88500000Y-57200000D01*
X93549708Y-51284605D02*
G75*
G02*
X94807881Y-50763446I1258192J-1258195D01*
G01*
X90550000Y-55207842D02*
G75*
G02*
X91203011Y-53631258I2229600J42D01*
G01*
X90550000Y-55375736D02*
G75*
G02*
X90015675Y-56665675I-1824300J36D01*
G01*
X88990685Y-57200000D02*
G75*
G03*
X89828341Y-56853036I15J1184600D01*
G01*
%TO.N,Net-(U2-LE)*%
X93903071Y-50365557D02*
X89878768Y-54389860D01*
X95027024Y-49900000D02*
X95685421Y-49900000D01*
X93903071Y-50365556D02*
X93903071Y-50365557D01*
X89878768Y-54389860D02*
X89878767Y-54389860D01*
X89009314Y-54750000D02*
X88500000Y-54750000D01*
X95027024Y-49900000D02*
G75*
G03*
X93903061Y-50365546I-24J-1589500D01*
G01*
X89009314Y-54750000D02*
G75*
G03*
X89878762Y-54389855I-14J1229600D01*
G01*
%TO.N,Net-(U2-DATA)*%
X89500000Y-51700000D02*
X88500000Y-51700000D01*
X91207106Y-50992892D02*
X91769770Y-50430229D01*
X96252837Y-49250000D02*
X94619096Y-49250000D01*
X96338193Y-49300000D02*
X96313193Y-49275000D01*
X91769770Y-50430229D02*
G75*
G02*
X94619096Y-49250010I2849330J-2849371D01*
G01*
X96252837Y-49250000D02*
G75*
G02*
X96313183Y-49275010I-37J-85400D01*
G01*
X91207106Y-50992892D02*
G75*
G02*
X89500000Y-51700003I-1707106J1707092D01*
G01*
%TO.N,Net-(U2-CLK)*%
X88500000Y-49200000D02*
X88525000Y-49225000D01*
X95945142Y-48603211D02*
X95707006Y-48603211D01*
X91984924Y-48750000D02*
X95352626Y-48750000D01*
X88585355Y-49250000D02*
X90777817Y-49250000D01*
X95529816Y-48676605D02*
G75*
G02*
X95352626Y-48750013I-177216J177205D01*
G01*
X91381371Y-49000000D02*
G75*
G02*
X90777817Y-49249999I-603571J603600D01*
G01*
X95529816Y-48676605D02*
G75*
G02*
X95707006Y-48603216I177184J-177195D01*
G01*
X88585355Y-49250000D02*
G75*
G02*
X88525013Y-49224987I45J85400D01*
G01*
X91984924Y-48750000D02*
G75*
G03*
X91381370Y-48999999I-24J-853500D01*
G01*
D28*
%TO.N,Net-(C36-Pad2)*%
X111770070Y-76870070D02*
X112200000Y-77300000D01*
X77813207Y-81313207D02*
X74000000Y-77500000D01*
X109640685Y-76440140D02*
X110732127Y-76440140D01*
X103068162Y-81313207D02*
X106739533Y-77641836D01*
X99220406Y-82907000D02*
X81660963Y-82907000D01*
X77813207Y-81313207D02*
G75*
G03*
X81660963Y-82907011I3847793J3847807D01*
G01*
X109640685Y-76440140D02*
G75*
G03*
X106739538Y-77641841I15J-4102860D01*
G01*
X99220406Y-82907000D02*
G75*
G03*
X103068170Y-81313215I-6J5441600D01*
G01*
X111770070Y-76870070D02*
G75*
G03*
X110732127Y-76440117I-1037970J-1037930D01*
G01*
D29*
%TO.N,Net-(U2-CP_{OUT})*%
X119896446Y-54250000D02*
X113392052Y-54250000D01*
X120750000Y-54750000D02*
X120500000Y-54500000D01*
X104779000Y-53921000D02*
X104359099Y-54340900D01*
X103875000Y-54500000D02*
X103975000Y-54500000D01*
D25*
X103750000Y-54750000D02*
X103750000Y-54625000D01*
D29*
X106176829Y-53342000D02*
X111199947Y-53342000D01*
X106176829Y-53342000D02*
G75*
G03*
X104778991Y-53920991I-29J-1976800D01*
G01*
X111199947Y-53342000D02*
G75*
G02*
X112295966Y-53796034I-47J-1550000D01*
G01*
X103875000Y-54500000D02*
G75*
G03*
X103750000Y-54625000I0J-125000D01*
G01*
X103975000Y-54500000D02*
G75*
G03*
X104359100Y-54340901I0J543200D01*
G01*
X119896446Y-54250000D02*
G75*
G02*
X120500016Y-54499984I54J-853500D01*
G01*
X113392052Y-54250000D02*
G75*
G02*
X112296014Y-53795986I48J1550100D01*
G01*
D28*
%TO.N,LO_Buff_EN*%
X74000000Y-40600000D02*
X73060660Y-40600000D01*
X103966249Y-40250000D02*
X111250000Y-40250000D01*
X115900000Y-40800000D02*
X116450000Y-41350000D01*
X114572182Y-40250000D02*
X114448591Y-40250000D01*
X113300000Y-40250000D02*
X111250000Y-40250000D01*
X77638244Y-38961755D02*
X77414213Y-39185786D01*
X97008397Y-37367963D02*
X81486000Y-37367963D01*
X116450000Y-41350000D02*
X116500000Y-41400000D01*
X70500000Y-43160660D02*
X70500000Y-58219339D01*
X114448591Y-40250000D02*
X114201409Y-40250000D01*
X71250000Y-60030000D02*
X72000000Y-60780000D01*
X113300000Y-40250000D02*
X114201409Y-40250000D01*
X70500000Y-43160660D02*
G75*
G02*
X71250032Y-41350032I2560600J-40D01*
G01*
X114572182Y-40250000D02*
G75*
G02*
X115900005Y-40799995I18J-1877800D01*
G01*
X73060660Y-40600000D02*
G75*
G03*
X71250032Y-41350032I40J-2560600D01*
G01*
X97008397Y-37367963D02*
G75*
G02*
X100487323Y-38808981I3J-4919937D01*
G01*
X77638244Y-38961755D02*
G75*
G02*
X81486000Y-37367959I3847756J-3847745D01*
G01*
X103966249Y-40250000D02*
G75*
G02*
X100487357Y-38808947I51J4919900D01*
G01*
X71250000Y-60030000D02*
G75*
G02*
X70499984Y-58219339I1810700J1810700D01*
G01*
X74000000Y-40600000D02*
G75*
G03*
X77414208Y-39185781I0J4828400D01*
G01*
D27*
%TO.N,Net-(U2-SW)*%
X103496325Y-52403675D02*
X103546325Y-52403675D01*
X103631680Y-52368319D02*
X103707339Y-52292659D01*
D29*
X104108500Y-51891500D02*
X104054250Y-51945750D01*
X103945749Y-52054249D02*
X103858659Y-52141339D01*
X109619420Y-51700000D02*
X116946036Y-51700000D01*
X120793792Y-53293792D02*
X123500000Y-56000000D01*
X104370442Y-51783000D02*
X109419041Y-51783000D01*
X103858659Y-52141339D02*
X103707339Y-52292659D01*
X104054250Y-51945750D02*
X103945749Y-52054249D01*
X104370442Y-51783000D02*
G75*
G03*
X104108488Y-51891488I-42J-370400D01*
G01*
X109419041Y-51783000D02*
G75*
G03*
X109519213Y-51741482I-41J141700D01*
G01*
D27*
X103631680Y-52368319D02*
G75*
G02*
X103546325Y-52403702I-85380J85319D01*
G01*
D29*
X120793792Y-53293792D02*
G75*
G03*
X116946036Y-51699989I-3847792J-3847808D01*
G01*
X109619420Y-51700000D02*
G75*
G03*
X109519218Y-51741487I-20J-141700D01*
G01*
D28*
%TO.N,Fref_IN*%
X77524942Y-45540000D02*
X74540000Y-45540000D01*
X101862189Y-41762189D02*
X101900000Y-41800000D01*
X90474647Y-42720786D02*
X84331127Y-42720786D01*
X92880187Y-41724379D02*
X101770906Y-41724379D01*
X101862189Y-41762189D02*
G75*
G03*
X101770906Y-41724382I-91289J-91311D01*
G01*
X90474647Y-42720786D02*
G75*
G03*
X91677396Y-42222561I-47J1700986D01*
G01*
X91677417Y-42222582D02*
G75*
G02*
X92880187Y-41724354I1202783J-1202718D01*
G01*
X84331127Y-42720786D02*
G75*
G03*
X80928018Y-44130376I-27J-4812714D01*
G01*
X77524942Y-45540000D02*
G75*
G03*
X80928014Y-44130372I-42J4812700D01*
G01*
%TD*%
%TA.AperFunction,Conductor*%
%TO.N,GND*%
G36*
X74139901Y-57932993D02*
G01*
X74074075Y-58047007D01*
X74040000Y-58174174D01*
X74040000Y-58305826D01*
X74074075Y-58432993D01*
X74139901Y-58547007D01*
X74207894Y-58615000D01*
X72332106Y-58615000D01*
X72400099Y-58547007D01*
X72465925Y-58432993D01*
X72500000Y-58305826D01*
X72500000Y-58174174D01*
X72465925Y-58047007D01*
X72400099Y-57932993D01*
X72332106Y-57865000D01*
X74207894Y-57865000D01*
X74139901Y-57932993D01*
G37*
%TD.AperFunction*%
%TA.AperFunction,Conductor*%
G36*
X102433576Y-48397185D02*
G01*
X102479331Y-48449989D01*
X102489275Y-48519147D01*
X102481098Y-48548951D01*
X102478487Y-48555255D01*
X102469356Y-48577299D01*
X102422918Y-48750607D01*
X102399500Y-48928479D01*
X102399500Y-49178211D01*
X102398903Y-49190367D01*
X102389768Y-49283102D01*
X102385025Y-49306945D01*
X102359750Y-49390257D01*
X102350447Y-49412714D01*
X102309405Y-49489494D01*
X102295900Y-49509705D01*
X102278978Y-49530324D01*
X102236973Y-49581505D01*
X102236650Y-49581898D01*
X102228493Y-49590897D01*
X102223914Y-49595477D01*
X102223914Y-49595478D01*
X102178967Y-49640421D01*
X102178931Y-49640459D01*
X101033928Y-50785464D01*
X101033926Y-50785466D01*
X101011418Y-50807973D01*
X101007910Y-50811346D01*
X100739679Y-51059296D01*
X100732276Y-51065619D01*
X100447331Y-51290252D01*
X100439454Y-51295975D01*
X100137760Y-51497561D01*
X100129467Y-51502642D01*
X99850101Y-51659096D01*
X99812896Y-51679932D01*
X99804221Y-51684352D01*
X99474704Y-51836262D01*
X99465709Y-51839988D01*
X99125288Y-51965577D01*
X99116028Y-51968585D01*
X98766820Y-52067072D01*
X98757352Y-52069345D01*
X98401485Y-52140132D01*
X98391869Y-52141655D01*
X98031548Y-52184303D01*
X98021842Y-52185067D01*
X97656983Y-52199404D01*
X97652114Y-52199500D01*
X93783410Y-52199500D01*
X93716371Y-52179815D01*
X93670616Y-52127011D01*
X93660672Y-52057853D01*
X93689697Y-51994297D01*
X93695729Y-51987819D01*
X93819434Y-51864114D01*
X93970894Y-51712653D01*
X93978017Y-51706068D01*
X94107577Y-51595415D01*
X94123297Y-51583994D01*
X94264398Y-51497527D01*
X94281709Y-51488706D01*
X94434594Y-51425378D01*
X94453090Y-51419368D01*
X94613991Y-51380738D01*
X94633201Y-51377695D01*
X94802945Y-51364335D01*
X94812675Y-51363953D01*
X94962490Y-51363953D01*
X95029529Y-51383638D01*
X95039805Y-51391008D01*
X95042638Y-51393267D01*
X95042640Y-51393269D01*
X95195380Y-51489242D01*
X95365647Y-51548821D01*
X95365652Y-51548822D01*
X95544898Y-51569018D01*
X95544902Y-51569018D01*
X95544906Y-51569018D01*
X95724151Y-51548822D01*
X95724154Y-51548821D01*
X95724157Y-51548821D01*
X95894424Y-51489242D01*
X96047164Y-51393269D01*
X96174718Y-51265715D01*
X96270691Y-51112975D01*
X96330270Y-50942708D01*
X96330271Y-50942702D01*
X96350467Y-50763456D01*
X96350467Y-50763449D01*
X96330271Y-50584203D01*
X96330269Y-50584193D01*
X96303725Y-50508337D01*
X96300162Y-50438558D01*
X96315771Y-50401410D01*
X96411210Y-50249522D01*
X96442118Y-50161188D01*
X96482839Y-50104414D01*
X96518202Y-50085104D01*
X96687715Y-50025789D01*
X96840455Y-49929816D01*
X96968009Y-49802262D01*
X97063982Y-49649522D01*
X97123561Y-49479255D01*
X97129585Y-49425789D01*
X97143758Y-49300003D01*
X97143758Y-49299996D01*
X97123562Y-49120750D01*
X97123561Y-49120745D01*
X97087679Y-49018200D01*
X97063982Y-48950478D01*
X97063323Y-48949430D01*
X97003412Y-48854082D01*
X96968009Y-48797738D01*
X96840455Y-48670184D01*
X96840453Y-48670182D01*
X96840450Y-48670180D01*
X96802553Y-48646368D01*
X96756261Y-48594034D01*
X96745304Y-48555259D01*
X96740811Y-48515380D01*
X96752867Y-48446560D01*
X96800217Y-48395181D01*
X96864032Y-48377500D01*
X102366537Y-48377500D01*
X102433576Y-48397185D01*
G37*
%TD.AperFunction*%
%TA.AperFunction,Conductor*%
G36*
X72375000Y-45207894D02*
G01*
X72307007Y-45139901D01*
X72192993Y-45074075D01*
X72065826Y-45040000D01*
X71934174Y-45040000D01*
X71807007Y-45074075D01*
X71692993Y-45139901D01*
X71625000Y-45207894D01*
X71625000Y-43332106D01*
X71692993Y-43400099D01*
X71807007Y-43465925D01*
X71934174Y-43500000D01*
X72065826Y-43500000D01*
X72192993Y-43465925D01*
X72307007Y-43400099D01*
X72375000Y-43332106D01*
X72375000Y-45207894D01*
G37*
%TD.AperFunction*%
%TA.AperFunction,Conductor*%
G36*
X116948473Y-52391095D02*
G01*
X117313904Y-52405456D01*
X117323577Y-52406217D01*
X117684360Y-52448920D01*
X117693934Y-52450436D01*
X118050265Y-52521317D01*
X118059696Y-52523581D01*
X118409347Y-52622195D01*
X118418576Y-52625193D01*
X118759416Y-52750936D01*
X118768411Y-52754662D01*
X118975635Y-52850194D01*
X119098317Y-52906751D01*
X119106988Y-52911170D01*
X119423937Y-53088671D01*
X119432221Y-53093746D01*
X119719435Y-53285657D01*
X119734286Y-53295580D01*
X119742144Y-53301288D01*
X119785585Y-53335535D01*
X119826044Y-53392494D01*
X119829286Y-53462289D01*
X119794279Y-53522756D01*
X119732139Y-53554699D01*
X119712789Y-53556848D01*
X119675171Y-53558054D01*
X119661772Y-53559000D01*
X113396940Y-53559000D01*
X113387208Y-53558617D01*
X113267416Y-53549186D01*
X113248198Y-53546142D01*
X113136097Y-53519226D01*
X113117592Y-53513213D01*
X113011084Y-53469094D01*
X112993748Y-53460261D01*
X112895448Y-53400021D01*
X112879706Y-53388583D01*
X112788130Y-53310368D01*
X112780982Y-53303760D01*
X112724910Y-53247688D01*
X112724304Y-53247146D01*
X112695617Y-53218456D01*
X112695612Y-53218452D01*
X112695610Y-53218450D01*
X112498823Y-53061503D01*
X112498821Y-53061502D01*
X112498819Y-53061500D01*
X112285704Y-52927578D01*
X112058926Y-52818357D01*
X112058919Y-52818354D01*
X111821346Y-52735215D01*
X111821345Y-52735214D01*
X111821343Y-52735214D01*
X111821340Y-52735213D01*
X111821332Y-52735211D01*
X111575954Y-52679196D01*
X111575949Y-52679195D01*
X111575947Y-52679195D01*
X111325822Y-52651004D01*
X111325820Y-52651003D01*
X111325818Y-52651003D01*
X111274147Y-52651002D01*
X111274103Y-52651000D01*
X111268005Y-52651000D01*
X111199968Y-52651000D01*
X111122111Y-52650998D01*
X111122110Y-52650998D01*
X111115346Y-52650998D01*
X111115310Y-52651000D01*
X109787505Y-52651000D01*
X109720466Y-52631315D01*
X109674711Y-52578511D01*
X109664767Y-52509353D01*
X109693792Y-52445797D01*
X109734966Y-52416097D01*
X109734488Y-52415159D01*
X109755344Y-52404527D01*
X109811661Y-52391000D01*
X116943605Y-52391000D01*
X116948473Y-52391095D01*
G37*
%TD.AperFunction*%
%TA.AperFunction,Conductor*%
G36*
X105618265Y-52493685D02*
G01*
X105664020Y-52546489D01*
X105673964Y-52615647D01*
X105644939Y-52679203D01*
X105586161Y-52716977D01*
X105578818Y-52718891D01*
X105437123Y-52751230D01*
X105437115Y-52751232D01*
X105154292Y-52850194D01*
X104884330Y-52980198D01*
X104884314Y-52980207D01*
X104630600Y-53139625D01*
X104630598Y-53139627D01*
X104617060Y-53150422D01*
X104552372Y-53176826D01*
X104483677Y-53164066D01*
X104432787Y-53116192D01*
X104415858Y-53048404D01*
X104433565Y-52990688D01*
X104433443Y-52990628D01*
X104433810Y-52989890D01*
X104434335Y-52988180D01*
X104435991Y-52985504D01*
X104435998Y-52985496D01*
X104526907Y-52802925D01*
X104530481Y-52790360D01*
X104535103Y-52778244D01*
X104534710Y-52778088D01*
X104536340Y-52773987D01*
X104536344Y-52773981D01*
X104542472Y-52754662D01*
X104604051Y-52560511D01*
X104643082Y-52502560D01*
X104707248Y-52474911D01*
X104722248Y-52474000D01*
X105551226Y-52474000D01*
X105618265Y-52493685D01*
G37*
%TD.AperFunction*%
%TA.AperFunction,Conductor*%
G36*
X144809367Y-33500497D02*
G01*
X144825049Y-33502242D01*
X144825070Y-33502019D01*
X144833155Y-33502752D01*
X144833164Y-33502754D01*
X144886388Y-33500600D01*
X144891391Y-33500500D01*
X144921994Y-33500500D01*
X144923893Y-33500517D01*
X145179333Y-33504892D01*
X145193532Y-33505955D01*
X145464376Y-33541973D01*
X145478380Y-33544662D01*
X145743299Y-33611545D01*
X145756885Y-33615820D01*
X146012372Y-33712681D01*
X146025384Y-33718491D01*
X146268054Y-33844048D01*
X146280323Y-33851320D01*
X146506957Y-34003903D01*
X146518306Y-34012531D01*
X146725936Y-34190145D01*
X146736214Y-34200016D01*
X146922068Y-34400290D01*
X146931143Y-34411272D01*
X147007462Y-34515291D01*
X147092773Y-34631567D01*
X147100535Y-34643533D01*
X147235795Y-34880923D01*
X147242131Y-34893701D01*
X147349234Y-35145048D01*
X147354061Y-35158469D01*
X147431591Y-35420445D01*
X147434846Y-35434331D01*
X147481784Y-35703494D01*
X147483422Y-35717663D01*
X147499295Y-35993132D01*
X147499500Y-36000265D01*
X147499500Y-86996249D01*
X147499274Y-87003736D01*
X147481728Y-87293794D01*
X147479923Y-87308659D01*
X147428219Y-87590798D01*
X147424635Y-87605336D01*
X147339306Y-87879167D01*
X147333997Y-87893168D01*
X147216275Y-88154736D01*
X147209316Y-88167995D01*
X147060928Y-88413459D01*
X147052422Y-88425782D01*
X146875526Y-88651573D01*
X146865596Y-88662781D01*
X146662781Y-88865596D01*
X146651573Y-88875526D01*
X146425782Y-89052422D01*
X146413459Y-89060928D01*
X146167995Y-89209316D01*
X146154736Y-89216275D01*
X145893168Y-89333997D01*
X145879167Y-89339306D01*
X145605336Y-89424635D01*
X145590798Y-89428219D01*
X145308659Y-89479923D01*
X145293794Y-89481728D01*
X145003736Y-89499274D01*
X144996249Y-89499500D01*
X66190733Y-89499500D01*
X66175055Y-89497757D01*
X66175035Y-89497980D01*
X66166941Y-89497246D01*
X66166935Y-89497246D01*
X66113704Y-89499399D01*
X66108695Y-89499500D01*
X66078287Y-89499500D01*
X66076164Y-89499482D01*
X66063077Y-89499257D01*
X65820498Y-89495103D01*
X65806275Y-89494039D01*
X65535166Y-89457984D01*
X65521160Y-89455294D01*
X65255984Y-89388346D01*
X65242378Y-89384065D01*
X64986641Y-89287108D01*
X64973618Y-89281293D01*
X64730717Y-89155616D01*
X64718446Y-89148343D01*
X64491571Y-88995594D01*
X64480218Y-88986962D01*
X64338342Y-88865596D01*
X64272386Y-88809174D01*
X64262102Y-88799297D01*
X64076066Y-88598823D01*
X64066982Y-88587828D01*
X63905197Y-88367318D01*
X63897435Y-88355352D01*
X63790685Y-88167995D01*
X63762037Y-88117715D01*
X63755706Y-88104947D01*
X63648494Y-87853333D01*
X63643670Y-87839922D01*
X63566055Y-87577650D01*
X63562806Y-87563782D01*
X63515825Y-87294341D01*
X63514188Y-87280175D01*
X63500705Y-87046121D01*
X63500500Y-87038990D01*
X63500500Y-85499993D01*
X83930836Y-85499993D01*
X83930836Y-85500006D01*
X83950000Y-85731297D01*
X83950002Y-85731308D01*
X84006978Y-85956300D01*
X84100211Y-86168848D01*
X84227152Y-86363147D01*
X84227155Y-86363151D01*
X84227157Y-86363153D01*
X84384352Y-86533913D01*
X84384355Y-86533915D01*
X84384358Y-86533918D01*
X84567501Y-86676464D01*
X84567507Y-86676468D01*
X84567510Y-86676470D01*
X84771633Y-86786936D01*
X84885623Y-86826068D01*
X84991151Y-86862297D01*
X84991153Y-86862297D01*
X84991155Y-86862298D01*
X85220087Y-86900500D01*
X85220088Y-86900500D01*
X85452184Y-86900500D01*
X85452185Y-86900500D01*
X85681117Y-86862298D01*
X85900639Y-86786936D01*
X86104762Y-86676470D01*
X86155556Y-86636936D01*
X86269552Y-86548209D01*
X86287920Y-86533913D01*
X86445115Y-86363153D01*
X86572060Y-86168849D01*
X86665293Y-85956300D01*
X86704874Y-85800000D01*
X119401920Y-85800000D01*
X119422211Y-86057820D01*
X119482582Y-86309285D01*
X119581549Y-86548213D01*
X119653707Y-86665962D01*
X120205839Y-86113830D01*
X120252430Y-86226310D01*
X120350924Y-86373717D01*
X120476283Y-86499076D01*
X120623690Y-86597570D01*
X120736168Y-86644160D01*
X120184036Y-87196291D01*
X120184036Y-87196292D01*
X120301786Y-87268450D01*
X120540714Y-87367417D01*
X120792179Y-87427788D01*
X121050000Y-87448079D01*
X121307820Y-87427788D01*
X121559285Y-87367417D01*
X121798209Y-87268451D01*
X121915961Y-87196291D01*
X121363830Y-86644160D01*
X121476310Y-86597570D01*
X121623717Y-86499076D01*
X121749076Y-86373717D01*
X121847570Y-86226310D01*
X121894160Y-86113830D01*
X122446291Y-86665961D01*
X122518451Y-86548209D01*
X122617417Y-86309285D01*
X122677788Y-86057820D01*
X122698079Y-85800000D01*
X122677788Y-85542179D01*
X122631649Y-85349993D01*
X135994700Y-85349993D01*
X135994700Y-85350006D01*
X136013864Y-85581297D01*
X136013866Y-85581308D01*
X136070842Y-85806300D01*
X136164075Y-86018848D01*
X136291016Y-86213147D01*
X136291019Y-86213151D01*
X136291021Y-86213153D01*
X136448216Y-86383913D01*
X136448219Y-86383915D01*
X136448222Y-86383918D01*
X136631365Y-86526464D01*
X136631371Y-86526468D01*
X136631374Y-86526470D01*
X136835497Y-86636936D01*
X136918451Y-86665414D01*
X137055015Y-86712297D01*
X137055017Y-86712297D01*
X137055019Y-86712298D01*
X137283951Y-86750500D01*
X137283952Y-86750500D01*
X137516048Y-86750500D01*
X137516049Y-86750500D01*
X137744981Y-86712298D01*
X137964503Y-86636936D01*
X138168626Y-86526470D01*
X138351784Y-86383913D01*
X138508979Y-86213153D01*
X138635924Y-86018849D01*
X138729157Y-85806300D01*
X138786134Y-85581305D01*
X138789376Y-85542179D01*
X138805300Y-85350006D01*
X138805300Y-85349993D01*
X138786135Y-85118702D01*
X138786133Y-85118691D01*
X138729157Y-84893699D01*
X138635924Y-84681151D01*
X138508980Y-84486849D01*
X138508979Y-84486847D01*
X138464285Y-84438296D01*
X138433363Y-84375642D01*
X138441224Y-84306215D01*
X138464280Y-84270338D01*
X138608979Y-84113153D01*
X138735924Y-83918849D01*
X138829157Y-83706300D01*
X138886134Y-83481305D01*
X138886135Y-83481297D01*
X138905300Y-83250006D01*
X138905300Y-83249993D01*
X138886135Y-83018702D01*
X138886133Y-83018691D01*
X138829157Y-82793699D01*
X138735924Y-82581151D01*
X138608983Y-82386852D01*
X138608980Y-82386849D01*
X138608979Y-82386847D01*
X138451784Y-82216087D01*
X138451779Y-82216083D01*
X138451777Y-82216081D01*
X138268634Y-82073535D01*
X138268628Y-82073531D01*
X138064504Y-81963064D01*
X138064495Y-81963061D01*
X137844984Y-81887702D01*
X137673282Y-81859050D01*
X137616049Y-81849500D01*
X137383951Y-81849500D01*
X137338164Y-81857140D01*
X137155015Y-81887702D01*
X136935504Y-81963061D01*
X136935495Y-81963064D01*
X136731371Y-82073531D01*
X136731365Y-82073535D01*
X136548222Y-82216081D01*
X136548219Y-82216084D01*
X136548216Y-82216086D01*
X136548216Y-82216087D01*
X136504039Y-82264076D01*
X136391016Y-82386852D01*
X136264075Y-82581151D01*
X136170842Y-82793699D01*
X136113866Y-83018691D01*
X136113864Y-83018702D01*
X136094700Y-83249993D01*
X136094700Y-83250006D01*
X136113864Y-83481297D01*
X136113866Y-83481308D01*
X136170842Y-83706300D01*
X136264075Y-83918848D01*
X136264076Y-83918849D01*
X136391021Y-84113153D01*
X136413620Y-84137702D01*
X136435714Y-84161703D01*
X136466636Y-84224358D01*
X136458775Y-84293784D01*
X136435714Y-84329667D01*
X136291018Y-84486849D01*
X136164075Y-84681151D01*
X136070842Y-84893699D01*
X136013866Y-85118691D01*
X136013864Y-85118702D01*
X135994700Y-85349993D01*
X122631649Y-85349993D01*
X122617417Y-85290714D01*
X122518450Y-85051786D01*
X122446291Y-84934036D01*
X121894160Y-85486168D01*
X121847570Y-85373690D01*
X121749076Y-85226283D01*
X121623717Y-85100924D01*
X121476310Y-85002430D01*
X121363830Y-84955839D01*
X121915962Y-84403707D01*
X121798213Y-84331549D01*
X121559285Y-84232582D01*
X121307820Y-84172211D01*
X121050000Y-84151920D01*
X120792179Y-84172211D01*
X120540714Y-84232582D01*
X120301786Y-84331549D01*
X120184036Y-84403707D01*
X120736169Y-84955839D01*
X120623690Y-85002430D01*
X120476283Y-85100924D01*
X120350924Y-85226283D01*
X120252430Y-85373690D01*
X120205839Y-85486168D01*
X119653707Y-84934036D01*
X119581549Y-85051786D01*
X119482582Y-85290714D01*
X119422211Y-85542179D01*
X119401920Y-85800000D01*
X86704874Y-85800000D01*
X86722270Y-85731305D01*
X86734700Y-85581297D01*
X86741436Y-85500006D01*
X86741436Y-85499993D01*
X86722271Y-85268702D01*
X86722269Y-85268691D01*
X86665293Y-85043699D01*
X86572060Y-84831151D01*
X86445119Y-84636852D01*
X86445116Y-84636849D01*
X86445115Y-84636847D01*
X86287920Y-84466087D01*
X86287915Y-84466083D01*
X86287913Y-84466081D01*
X86104770Y-84323535D01*
X86104764Y-84323531D01*
X85900640Y-84213064D01*
X85900631Y-84213061D01*
X85681120Y-84137702D01*
X85509418Y-84109050D01*
X85452185Y-84099500D01*
X85220087Y-84099500D01*
X85174300Y-84107140D01*
X84991151Y-84137702D01*
X84771640Y-84213061D01*
X84771631Y-84213064D01*
X84567507Y-84323531D01*
X84567501Y-84323535D01*
X84384358Y-84466081D01*
X84384355Y-84466084D01*
X84227152Y-84636852D01*
X84100211Y-84831151D01*
X84006978Y-85043699D01*
X83950002Y-85268691D01*
X83950000Y-85268702D01*
X83930836Y-85499993D01*
X63500500Y-85499993D01*
X63500500Y-77499996D01*
X73194435Y-77499996D01*
X73194435Y-77500003D01*
X73214630Y-77679249D01*
X73214631Y-77679254D01*
X73274211Y-77849523D01*
X73281172Y-77860601D01*
X73370184Y-78002262D01*
X73497738Y-78129816D01*
X73650478Y-78225789D01*
X73820745Y-78285368D01*
X73864635Y-78290313D01*
X73929048Y-78317378D01*
X73938433Y-78325852D01*
X77417661Y-81805081D01*
X77417831Y-81805234D01*
X77522776Y-81910179D01*
X77583809Y-81963064D01*
X77850410Y-82194076D01*
X78197442Y-82453860D01*
X78197444Y-82453861D01*
X78197447Y-82453863D01*
X78562141Y-82688238D01*
X78942625Y-82895999D01*
X79336961Y-83076087D01*
X79743140Y-83227585D01*
X80026382Y-83310753D01*
X80159093Y-83349722D01*
X80582690Y-83441872D01*
X80582694Y-83441872D01*
X80582696Y-83441873D01*
X81011795Y-83503570D01*
X81413273Y-83532286D01*
X81444202Y-83534499D01*
X81444203Y-83534499D01*
X81584718Y-83534499D01*
X81584726Y-83534500D01*
X81599160Y-83534500D01*
X81660959Y-83534500D01*
X81737151Y-83534501D01*
X81737155Y-83534500D01*
X99144214Y-83534500D01*
X99220407Y-83534500D01*
X99282209Y-83534500D01*
X99288221Y-83534500D01*
X99288444Y-83534489D01*
X99437163Y-83534489D01*
X99869571Y-83503563D01*
X100298670Y-83441868D01*
X100298671Y-83441867D01*
X100298676Y-83441867D01*
X100722268Y-83349720D01*
X100722271Y-83349719D01*
X100722276Y-83349718D01*
X100962470Y-83279190D01*
X101138212Y-83227589D01*
X101138215Y-83227587D01*
X101138228Y-83227584D01*
X101544407Y-83076088D01*
X101938745Y-82896002D01*
X102319230Y-82688242D01*
X102683925Y-82453869D01*
X103030970Y-82194077D01*
X103353357Y-81914730D01*
X103358582Y-81910203D01*
X103358585Y-81910199D01*
X103358599Y-81910188D01*
X103511869Y-81756919D01*
X103565745Y-81703043D01*
X107119155Y-78149631D01*
X107119165Y-78149624D01*
X107129367Y-78139422D01*
X107181098Y-78087689D01*
X107185461Y-78083534D01*
X107431440Y-77860592D01*
X107440825Y-77852889D01*
X107705009Y-77656956D01*
X107715102Y-77650213D01*
X107997210Y-77481124D01*
X108007896Y-77475411D01*
X108305248Y-77334773D01*
X108316452Y-77330133D01*
X108626119Y-77219333D01*
X108637730Y-77215809D01*
X108956773Y-77135892D01*
X108968703Y-77133519D01*
X109294020Y-77085262D01*
X109306119Y-77084070D01*
X109637512Y-77067788D01*
X109643597Y-77067640D01*
X109716880Y-77067640D01*
X110727236Y-77067640D01*
X110736967Y-77068022D01*
X110853859Y-77077224D01*
X110873063Y-77080266D01*
X110982312Y-77106496D01*
X111000814Y-77112509D01*
X111051535Y-77133519D01*
X111104616Y-77155507D01*
X111121947Y-77164338D01*
X111142100Y-77176688D01*
X111217744Y-77223046D01*
X111233484Y-77234482D01*
X111322846Y-77310806D01*
X111329995Y-77317415D01*
X111374148Y-77361569D01*
X111407633Y-77422892D01*
X111409686Y-77435365D01*
X111414630Y-77479249D01*
X111474210Y-77649521D01*
X111536187Y-77748156D01*
X111570184Y-77802262D01*
X111697738Y-77929816D01*
X111788080Y-77986582D01*
X111848959Y-78024835D01*
X111850478Y-78025789D01*
X112015438Y-78083511D01*
X112020745Y-78085368D01*
X112020750Y-78085369D01*
X112199996Y-78105565D01*
X112200000Y-78105565D01*
X112200004Y-78105565D01*
X112379249Y-78085369D01*
X112379252Y-78085368D01*
X112379255Y-78085368D01*
X112549522Y-78025789D01*
X112702262Y-77929816D01*
X112829816Y-77802262D01*
X112925789Y-77649522D01*
X112985368Y-77479255D01*
X112989791Y-77440000D01*
X113005565Y-77300003D01*
X113005565Y-77299996D01*
X112985369Y-77120750D01*
X112985368Y-77120745D01*
X112982486Y-77112509D01*
X112925789Y-76950478D01*
X112829816Y-76797738D01*
X112702262Y-76670184D01*
X112601408Y-76606813D01*
X112549521Y-76574210D01*
X112379249Y-76514630D01*
X112335361Y-76509685D01*
X112270948Y-76482617D01*
X112261566Y-76474146D01*
X112166018Y-76378598D01*
X112165681Y-76378292D01*
X112130568Y-76343178D01*
X112130567Y-76343177D01*
X112130566Y-76343176D01*
X111946568Y-76196437D01*
X111793090Y-76099996D01*
X119794435Y-76099996D01*
X119794435Y-76100003D01*
X119814630Y-76279249D01*
X119814631Y-76279254D01*
X119874211Y-76449523D01*
X119908962Y-76504828D01*
X119970184Y-76602262D01*
X120097738Y-76729816D01*
X120168392Y-76774211D01*
X120249704Y-76825303D01*
X120250478Y-76825789D01*
X120377352Y-76870184D01*
X120420745Y-76885368D01*
X120420750Y-76885369D01*
X120599996Y-76905565D01*
X120600000Y-76905565D01*
X120600004Y-76905565D01*
X120779249Y-76885369D01*
X120779252Y-76885368D01*
X120779255Y-76885368D01*
X120949522Y-76825789D01*
X121102262Y-76729816D01*
X121229816Y-76602262D01*
X121325789Y-76449522D01*
X121385368Y-76279255D01*
X121388405Y-76252301D01*
X121405565Y-76100003D01*
X121405565Y-76099996D01*
X121385369Y-75920750D01*
X121385368Y-75920745D01*
X121357744Y-75841800D01*
X121325789Y-75750478D01*
X121229816Y-75597738D01*
X121102262Y-75470184D01*
X120949523Y-75374211D01*
X120779254Y-75314631D01*
X120779249Y-75314630D01*
X120600004Y-75294435D01*
X120599996Y-75294435D01*
X120420750Y-75314630D01*
X120420745Y-75314631D01*
X120250476Y-75374211D01*
X120097737Y-75470184D01*
X119970184Y-75597737D01*
X119874211Y-75750476D01*
X119814631Y-75920745D01*
X119814630Y-75920750D01*
X119794435Y-76099996D01*
X111793090Y-76099996D01*
X111747297Y-76071221D01*
X111608319Y-76004289D01*
X111535259Y-75969103D01*
X111313123Y-75891370D01*
X111313112Y-75891367D01*
X111083697Y-75838999D01*
X111083678Y-75838996D01*
X111083677Y-75838996D01*
X111056592Y-75835943D01*
X110864754Y-75814325D01*
X110800340Y-75787257D01*
X110760787Y-75729661D01*
X110758650Y-75659824D01*
X110794610Y-75599919D01*
X110812662Y-75586114D01*
X110902262Y-75529816D01*
X111029816Y-75402262D01*
X111125789Y-75249522D01*
X111185368Y-75079255D01*
X111192942Y-75012033D01*
X111205565Y-74900003D01*
X111205565Y-74899996D01*
X111185369Y-74720750D01*
X111185368Y-74720745D01*
X111125789Y-74550478D01*
X111029816Y-74397738D01*
X110902262Y-74270184D01*
X110749523Y-74174211D01*
X110579254Y-74114631D01*
X110579249Y-74114630D01*
X110400004Y-74094435D01*
X110399996Y-74094435D01*
X110220750Y-74114630D01*
X110220745Y-74114631D01*
X110050476Y-74174211D01*
X109897737Y-74270184D01*
X109770184Y-74397737D01*
X109674211Y-74550476D01*
X109614631Y-74720745D01*
X109614630Y-74720750D01*
X109594435Y-74899996D01*
X109594435Y-74900003D01*
X109614630Y-75079249D01*
X109614631Y-75079254D01*
X109674211Y-75249523D01*
X109715122Y-75314632D01*
X109770184Y-75402262D01*
X109897738Y-75529816D01*
X109976926Y-75579573D01*
X109983408Y-75583646D01*
X110029699Y-75635981D01*
X110040347Y-75705034D01*
X110011972Y-75768883D01*
X109953582Y-75807255D01*
X109917436Y-75812640D01*
X109692052Y-75812640D01*
X109692028Y-75812633D01*
X109640683Y-75812633D01*
X109454827Y-75812633D01*
X109454821Y-75812633D01*
X109084270Y-75841798D01*
X109084252Y-75841800D01*
X108717131Y-75899947D01*
X108717128Y-75899947D01*
X108717126Y-75899948D01*
X108355685Y-75986724D01*
X108355681Y-75986725D01*
X108355678Y-75986726D01*
X108002166Y-76101590D01*
X108002154Y-76101594D01*
X107658762Y-76243833D01*
X107658749Y-76243839D01*
X107327546Y-76412596D01*
X107327535Y-76412602D01*
X107010625Y-76606805D01*
X107010614Y-76606813D01*
X106709902Y-76825293D01*
X106709888Y-76825303D01*
X106427249Y-77066701D01*
X106427235Y-77066714D01*
X102678331Y-80815619D01*
X102678330Y-80815620D01*
X102626178Y-80867771D01*
X102622669Y-80871145D01*
X102350463Y-81122767D01*
X102343059Y-81129091D01*
X102053851Y-81357081D01*
X102045974Y-81362803D01*
X101739800Y-81567381D01*
X101731499Y-81572469D01*
X101410187Y-81752411D01*
X101401512Y-81756831D01*
X101067084Y-81911004D01*
X101058088Y-81914730D01*
X100712602Y-82042185D01*
X100703342Y-82045194D01*
X100348900Y-82145156D01*
X100339433Y-82147428D01*
X99978265Y-82219269D01*
X99968649Y-82220792D01*
X99602950Y-82264076D01*
X99593243Y-82264840D01*
X99222552Y-82279404D01*
X99217684Y-82279500D01*
X81663393Y-82279500D01*
X81658524Y-82279404D01*
X81288129Y-82264848D01*
X81278423Y-82264084D01*
X80912726Y-82220800D01*
X80903109Y-82219277D01*
X80541927Y-82147431D01*
X80532460Y-82145158D01*
X80178044Y-82045201D01*
X80168784Y-82042193D01*
X79823282Y-81914729D01*
X79814287Y-81911003D01*
X79479852Y-81756826D01*
X79471177Y-81752405D01*
X79149892Y-81572476D01*
X79141590Y-81567389D01*
X78835393Y-81362795D01*
X78827516Y-81357072D01*
X78538319Y-81129087D01*
X78530916Y-81122764D01*
X78258507Y-80870953D01*
X78254997Y-80867578D01*
X74825852Y-77438433D01*
X74792367Y-77377110D01*
X74790314Y-77364648D01*
X74785368Y-77320745D01*
X74725789Y-77150478D01*
X74707106Y-77120745D01*
X74673738Y-77067640D01*
X74629816Y-76997738D01*
X74502262Y-76870184D01*
X74431608Y-76825789D01*
X74349523Y-76774211D01*
X74179254Y-76714631D01*
X74179249Y-76714630D01*
X74000004Y-76694435D01*
X73999996Y-76694435D01*
X73820750Y-76714630D01*
X73820745Y-76714631D01*
X73650476Y-76774211D01*
X73497737Y-76870184D01*
X73370184Y-76997737D01*
X73274211Y-77150476D01*
X73214631Y-77320745D01*
X73214630Y-77320750D01*
X73194435Y-77499996D01*
X63500500Y-77499996D01*
X63500500Y-72699997D01*
X84944723Y-72699997D01*
X84944723Y-72700002D01*
X84963793Y-72917975D01*
X84963793Y-72917979D01*
X85020422Y-73129322D01*
X85020424Y-73129326D01*
X85020425Y-73129330D01*
X85058041Y-73209998D01*
X85112897Y-73327638D01*
X85112898Y-73327639D01*
X85218797Y-73478878D01*
X85241123Y-73545081D01*
X85224113Y-73612849D01*
X85218796Y-73621122D01*
X85112900Y-73772357D01*
X85112898Y-73772361D01*
X85020426Y-73970668D01*
X85020422Y-73970677D01*
X84963793Y-74182020D01*
X84963793Y-74182023D01*
X84961866Y-74204047D01*
X84944723Y-74399997D01*
X84944723Y-74400002D01*
X84963793Y-74617975D01*
X84963793Y-74617979D01*
X85020422Y-74829322D01*
X85020424Y-74829326D01*
X85020425Y-74829330D01*
X85060539Y-74915354D01*
X85112897Y-75027638D01*
X85112898Y-75027639D01*
X85238402Y-75206877D01*
X85393123Y-75361598D01*
X85572361Y-75487102D01*
X85770670Y-75579575D01*
X85982023Y-75636207D01*
X86164926Y-75652208D01*
X86199998Y-75655277D01*
X86200000Y-75655277D01*
X86200002Y-75655277D01*
X86228254Y-75652805D01*
X86417977Y-75636207D01*
X86629330Y-75579575D01*
X86827639Y-75487102D01*
X87006877Y-75361598D01*
X87161598Y-75206877D01*
X87287102Y-75027639D01*
X87379575Y-74829330D01*
X87436207Y-74617977D01*
X87455277Y-74400000D01*
X87436207Y-74182023D01*
X87379575Y-73970670D01*
X87287102Y-73772362D01*
X87287100Y-73772359D01*
X87287099Y-73772357D01*
X87181203Y-73621122D01*
X87158876Y-73554916D01*
X87175886Y-73487149D01*
X87181190Y-73478896D01*
X87287102Y-73327639D01*
X87341959Y-73209998D01*
X92085223Y-73209998D01*
X92085223Y-73210001D01*
X92104306Y-73476810D01*
X92104307Y-73476817D01*
X92161163Y-73738181D01*
X92254643Y-73988812D01*
X92254645Y-73988816D01*
X92382833Y-74223575D01*
X92397072Y-74242596D01*
X93154107Y-73485561D01*
X93206740Y-73612626D01*
X93299762Y-73751844D01*
X93418156Y-73870238D01*
X93557374Y-73963260D01*
X93684437Y-74015891D01*
X92927401Y-74772926D01*
X92946423Y-74787166D01*
X93181183Y-74915354D01*
X93181187Y-74915356D01*
X93431818Y-75008836D01*
X93693182Y-75065692D01*
X93693189Y-75065693D01*
X93959999Y-75084777D01*
X93960001Y-75084777D01*
X94226810Y-75065693D01*
X94226817Y-75065692D01*
X94488181Y-75008836D01*
X94738812Y-74915356D01*
X94738816Y-74915354D01*
X94889912Y-74832849D01*
X94958184Y-74817997D01*
X95023649Y-74842413D01*
X95065521Y-74898347D01*
X95070505Y-74968038D01*
X95055071Y-75006463D01*
X95051659Y-75012030D01*
X95051656Y-75012036D01*
X94954049Y-75247681D01*
X94954044Y-75247698D01*
X94894502Y-75495710D01*
X94874489Y-75750000D01*
X94894502Y-76004289D01*
X94954044Y-76252301D01*
X94954049Y-76252318D01*
X95051656Y-76487963D01*
X95051658Y-76487966D01*
X95055068Y-76493531D01*
X95073310Y-76560977D01*
X95052193Y-76627579D01*
X94998420Y-76672191D01*
X94929064Y-76680649D01*
X94889912Y-76667150D01*
X94738816Y-76584645D01*
X94738812Y-76584643D01*
X94488181Y-76491163D01*
X94226817Y-76434307D01*
X94226810Y-76434306D01*
X93960001Y-76415223D01*
X93959999Y-76415223D01*
X93693189Y-76434306D01*
X93693182Y-76434307D01*
X93431818Y-76491163D01*
X93181187Y-76584643D01*
X93181183Y-76584645D01*
X92946418Y-76712837D01*
X92946415Y-76712839D01*
X92927402Y-76727071D01*
X92927401Y-76727072D01*
X93684437Y-77484108D01*
X93557374Y-77536740D01*
X93418156Y-77629762D01*
X93299762Y-77748156D01*
X93206740Y-77887374D01*
X93154108Y-78014437D01*
X92397072Y-77257401D01*
X92397071Y-77257402D01*
X92382839Y-77276415D01*
X92382837Y-77276418D01*
X92254645Y-77511183D01*
X92254643Y-77511187D01*
X92161163Y-77761818D01*
X92104307Y-78023182D01*
X92104306Y-78023189D01*
X92085223Y-78289998D01*
X92085223Y-78290001D01*
X92104306Y-78556810D01*
X92104307Y-78556817D01*
X92161163Y-78818181D01*
X92254643Y-79068812D01*
X92254645Y-79068816D01*
X92382833Y-79303575D01*
X92397072Y-79322596D01*
X93154107Y-78565561D01*
X93206740Y-78692626D01*
X93299762Y-78831844D01*
X93418156Y-78950238D01*
X93557374Y-79043260D01*
X93684437Y-79095891D01*
X92927401Y-79852926D01*
X92946423Y-79867166D01*
X93181183Y-79995354D01*
X93181187Y-79995356D01*
X93431818Y-80088836D01*
X93693182Y-80145692D01*
X93693189Y-80145693D01*
X93959999Y-80164777D01*
X93960001Y-80164777D01*
X94226810Y-80145693D01*
X94226817Y-80145692D01*
X94488181Y-80088836D01*
X94738812Y-79995356D01*
X94738816Y-79995354D01*
X94973582Y-79867162D01*
X94992597Y-79852927D01*
X94235561Y-79095891D01*
X94362626Y-79043260D01*
X94501844Y-78950238D01*
X94620238Y-78831844D01*
X94713260Y-78692626D01*
X94765891Y-78565561D01*
X95522927Y-79322597D01*
X95537162Y-79303582D01*
X95665354Y-79068816D01*
X95665356Y-79068812D01*
X95758836Y-78818181D01*
X95815692Y-78556817D01*
X95815693Y-78556810D01*
X95834777Y-78290001D01*
X95834777Y-78289998D01*
X95815693Y-78023189D01*
X95815692Y-78023182D01*
X95758836Y-77761818D01*
X95665356Y-77511187D01*
X95665354Y-77511183D01*
X95582849Y-77360087D01*
X95567997Y-77291814D01*
X95592414Y-77226350D01*
X95648347Y-77184478D01*
X95718039Y-77179494D01*
X95756471Y-77194933D01*
X95762033Y-77198341D01*
X95762036Y-77198343D01*
X95997681Y-77295950D01*
X95997683Y-77295950D01*
X95997689Y-77295953D01*
X96245714Y-77355498D01*
X96500000Y-77375511D01*
X96754286Y-77355498D01*
X97002311Y-77295953D01*
X97150715Y-77234482D01*
X97237963Y-77198343D01*
X97237964Y-77198341D01*
X97237967Y-77198341D01*
X97243523Y-77194935D01*
X97310968Y-77176688D01*
X97377571Y-77197801D01*
X97422187Y-77251571D01*
X97430651Y-77320926D01*
X97417150Y-77360087D01*
X97334645Y-77511183D01*
X97334643Y-77511187D01*
X97241163Y-77761818D01*
X97184307Y-78023182D01*
X97184306Y-78023189D01*
X97165223Y-78289998D01*
X97165223Y-78290001D01*
X97184306Y-78556810D01*
X97184307Y-78556817D01*
X97241163Y-78818181D01*
X97334643Y-79068812D01*
X97334645Y-79068816D01*
X97462833Y-79303575D01*
X97477072Y-79322596D01*
X98234107Y-78565561D01*
X98286740Y-78692626D01*
X98379762Y-78831844D01*
X98498156Y-78950238D01*
X98637374Y-79043260D01*
X98764437Y-79095891D01*
X98007401Y-79852926D01*
X98026423Y-79867166D01*
X98261183Y-79995354D01*
X98261187Y-79995356D01*
X98511818Y-80088836D01*
X98773182Y-80145692D01*
X98773189Y-80145693D01*
X99039999Y-80164777D01*
X99040001Y-80164777D01*
X99306810Y-80145693D01*
X99306817Y-80145692D01*
X99568181Y-80088836D01*
X99818812Y-79995356D01*
X99818816Y-79995354D01*
X100053582Y-79867162D01*
X100072597Y-79852927D01*
X99315561Y-79095891D01*
X99442626Y-79043260D01*
X99581844Y-78950238D01*
X99700238Y-78831844D01*
X99793260Y-78692626D01*
X99845891Y-78565561D01*
X100602927Y-79322597D01*
X100617162Y-79303582D01*
X100745354Y-79068816D01*
X100745356Y-79068812D01*
X100838836Y-78818181D01*
X100895692Y-78556817D01*
X100895693Y-78556810D01*
X100914777Y-78290001D01*
X100914777Y-78289998D01*
X100895693Y-78023189D01*
X100895692Y-78023182D01*
X100838836Y-77761818D01*
X100745356Y-77511187D01*
X100745354Y-77511183D01*
X100617166Y-77276424D01*
X100617166Y-77276423D01*
X100602926Y-77257401D01*
X99845891Y-78014436D01*
X99793260Y-77887374D01*
X99700238Y-77748156D01*
X99581844Y-77629762D01*
X99442626Y-77536740D01*
X99315561Y-77484107D01*
X100072596Y-76727072D01*
X100053575Y-76712833D01*
X99818816Y-76584645D01*
X99818812Y-76584643D01*
X99568181Y-76491163D01*
X99306817Y-76434307D01*
X99306810Y-76434306D01*
X99040001Y-76415223D01*
X99039999Y-76415223D01*
X98773189Y-76434306D01*
X98773182Y-76434307D01*
X98511818Y-76491163D01*
X98261187Y-76584643D01*
X98261183Y-76584645D01*
X98110087Y-76667150D01*
X98041814Y-76682002D01*
X97976349Y-76657585D01*
X97934478Y-76601651D01*
X97929494Y-76531960D01*
X97944936Y-76493523D01*
X97948343Y-76487963D01*
X98045950Y-76252318D01*
X98045949Y-76252318D01*
X98045953Y-76252311D01*
X98105498Y-76004286D01*
X98125511Y-75750000D01*
X98105498Y-75495714D01*
X98045953Y-75247689D01*
X97978473Y-75084777D01*
X97948343Y-75012036D01*
X97948341Y-75012033D01*
X97944933Y-75006471D01*
X97926688Y-74939025D01*
X97947804Y-74872423D01*
X98001576Y-74827809D01*
X98070932Y-74819349D01*
X98110087Y-74832849D01*
X98261183Y-74915354D01*
X98261187Y-74915356D01*
X98511818Y-75008836D01*
X98773182Y-75065692D01*
X98773189Y-75065693D01*
X99039999Y-75084777D01*
X99040001Y-75084777D01*
X99306810Y-75065693D01*
X99306817Y-75065692D01*
X99568181Y-75008836D01*
X99818812Y-74915356D01*
X99818816Y-74915354D01*
X100053582Y-74787162D01*
X100072597Y-74772927D01*
X99315561Y-74015891D01*
X99442626Y-73963260D01*
X99581844Y-73870238D01*
X99700238Y-73751844D01*
X99793260Y-73612626D01*
X99845891Y-73485561D01*
X100602927Y-74242597D01*
X100617162Y-74223582D01*
X100745354Y-73988816D01*
X100745356Y-73988812D01*
X100838836Y-73738181D01*
X100895692Y-73476817D01*
X100895693Y-73476810D01*
X100914777Y-73210001D01*
X100914777Y-73209998D01*
X100895693Y-72943189D01*
X100895692Y-72943182D01*
X100838836Y-72681818D01*
X100745356Y-72431187D01*
X100745354Y-72431183D01*
X100617166Y-72196424D01*
X100617166Y-72196423D01*
X100602926Y-72177401D01*
X99845891Y-72934436D01*
X99793260Y-72807374D01*
X99700238Y-72668156D01*
X99581844Y-72549762D01*
X99442626Y-72456740D01*
X99315562Y-72404108D01*
X100072597Y-71647072D01*
X100053575Y-71632833D01*
X99818816Y-71504645D01*
X99818812Y-71504643D01*
X99568181Y-71411163D01*
X99306817Y-71354307D01*
X99306810Y-71354306D01*
X99040001Y-71335223D01*
X99039999Y-71335223D01*
X98773189Y-71354306D01*
X98773182Y-71354307D01*
X98511818Y-71411163D01*
X98261187Y-71504643D01*
X98261183Y-71504645D01*
X98026418Y-71632837D01*
X98026415Y-71632839D01*
X98007402Y-71647071D01*
X98007401Y-71647072D01*
X98764437Y-72404108D01*
X98637374Y-72456740D01*
X98498156Y-72549762D01*
X98379762Y-72668156D01*
X98286740Y-72807374D01*
X98234108Y-72934437D01*
X97477072Y-72177401D01*
X97477071Y-72177402D01*
X97462839Y-72196415D01*
X97462837Y-72196418D01*
X97334645Y-72431183D01*
X97334643Y-72431187D01*
X97241163Y-72681818D01*
X97184307Y-72943182D01*
X97184306Y-72943189D01*
X97165223Y-73209998D01*
X97165223Y-73210001D01*
X97184306Y-73476810D01*
X97184307Y-73476817D01*
X97241163Y-73738181D01*
X97334643Y-73988812D01*
X97334645Y-73988816D01*
X97417150Y-74139912D01*
X97432002Y-74208185D01*
X97407585Y-74273649D01*
X97351652Y-74315521D01*
X97281960Y-74320505D01*
X97243531Y-74305068D01*
X97237966Y-74301658D01*
X97237963Y-74301656D01*
X97002318Y-74204049D01*
X97002301Y-74204044D01*
X96754289Y-74144502D01*
X96500000Y-74124489D01*
X96245710Y-74144502D01*
X95997698Y-74204044D01*
X95997681Y-74204049D01*
X95762036Y-74301656D01*
X95762030Y-74301659D01*
X95756463Y-74305071D01*
X95689016Y-74323310D01*
X95622415Y-74302190D01*
X95577806Y-74248414D01*
X95569351Y-74179058D01*
X95582849Y-74139912D01*
X95665354Y-73988816D01*
X95665356Y-73988812D01*
X95758836Y-73738181D01*
X95815692Y-73476817D01*
X95815693Y-73476810D01*
X95834777Y-73210001D01*
X95834777Y-73209998D01*
X95815693Y-72943189D01*
X95815692Y-72943182D01*
X95758836Y-72681818D01*
X95665356Y-72431187D01*
X95665354Y-72431183D01*
X95537166Y-72196424D01*
X95537166Y-72196423D01*
X95522926Y-72177401D01*
X94765891Y-72934437D01*
X94713260Y-72807374D01*
X94620238Y-72668156D01*
X94501844Y-72549762D01*
X94362626Y-72456740D01*
X94235562Y-72404108D01*
X94992597Y-71647072D01*
X94973575Y-71632833D01*
X94738816Y-71504645D01*
X94738812Y-71504643D01*
X94488181Y-71411163D01*
X94226817Y-71354307D01*
X94226810Y-71354306D01*
X93960001Y-71335223D01*
X93959999Y-71335223D01*
X93693189Y-71354306D01*
X93693182Y-71354307D01*
X93431818Y-71411163D01*
X93181187Y-71504643D01*
X93181183Y-71504645D01*
X92946418Y-71632837D01*
X92946415Y-71632839D01*
X92927402Y-71647071D01*
X92927401Y-71647072D01*
X93684437Y-72404108D01*
X93557374Y-72456740D01*
X93418156Y-72549762D01*
X93299762Y-72668156D01*
X93206740Y-72807374D01*
X93154108Y-72934437D01*
X92397072Y-72177401D01*
X92397071Y-72177402D01*
X92382839Y-72196415D01*
X92382837Y-72196418D01*
X92254645Y-72431183D01*
X92254643Y-72431187D01*
X92161163Y-72681818D01*
X92104307Y-72943182D01*
X92104306Y-72943189D01*
X92085223Y-73209998D01*
X87341959Y-73209998D01*
X87379575Y-73129330D01*
X87436207Y-72917977D01*
X87455277Y-72700000D01*
X87453498Y-72679670D01*
X87442133Y-72549762D01*
X87436207Y-72482023D01*
X87379575Y-72270670D01*
X87287102Y-72072362D01*
X87287100Y-72072359D01*
X87287099Y-72072357D01*
X87161599Y-71893124D01*
X87089220Y-71820745D01*
X87006877Y-71738402D01*
X86827639Y-71612898D01*
X86827640Y-71612898D01*
X86827638Y-71612897D01*
X86728484Y-71566661D01*
X86629330Y-71520425D01*
X86629326Y-71520424D01*
X86629322Y-71520422D01*
X86417977Y-71463793D01*
X86200002Y-71444723D01*
X86199998Y-71444723D01*
X86054682Y-71457436D01*
X85982023Y-71463793D01*
X85982020Y-71463793D01*
X85770677Y-71520422D01*
X85770668Y-71520426D01*
X85572361Y-71612898D01*
X85572357Y-71612900D01*
X85393121Y-71738402D01*
X85238402Y-71893121D01*
X85112900Y-72072357D01*
X85112898Y-72072361D01*
X85020426Y-72270668D01*
X85020422Y-72270677D01*
X84963793Y-72482020D01*
X84963793Y-72482024D01*
X84944723Y-72699997D01*
X63500500Y-72699997D01*
X63500500Y-69399996D01*
X84094435Y-69399996D01*
X84094435Y-69400003D01*
X84114630Y-69579249D01*
X84114631Y-69579254D01*
X84174211Y-69749523D01*
X84270184Y-69902262D01*
X84398514Y-70030592D01*
X84431999Y-70091915D01*
X84427015Y-70161607D01*
X84415827Y-70184244D01*
X84374212Y-70250474D01*
X84314631Y-70420745D01*
X84314630Y-70420750D01*
X84294435Y-70599996D01*
X84294435Y-70600003D01*
X84314630Y-70779249D01*
X84314631Y-70779254D01*
X84374211Y-70949523D01*
X84470184Y-71102262D01*
X84597738Y-71229816D01*
X84750478Y-71325789D01*
X84831975Y-71354306D01*
X84920745Y-71385368D01*
X84920750Y-71385369D01*
X85099996Y-71405565D01*
X85100000Y-71405565D01*
X85100004Y-71405565D01*
X85279249Y-71385369D01*
X85279252Y-71385368D01*
X85279255Y-71385368D01*
X85449522Y-71325789D01*
X85602262Y-71229816D01*
X85729816Y-71102262D01*
X85825789Y-70949522D01*
X85885368Y-70779255D01*
X85905565Y-70600000D01*
X85885368Y-70420745D01*
X85825789Y-70250478D01*
X85825786Y-70250474D01*
X85784171Y-70184244D01*
X85729816Y-70097738D01*
X85602262Y-69970184D01*
X85601485Y-69969407D01*
X85568000Y-69908084D01*
X85572984Y-69838392D01*
X85584173Y-69815753D01*
X85625788Y-69749524D01*
X85625789Y-69749522D01*
X85685368Y-69579255D01*
X85685369Y-69579249D01*
X85705565Y-69400003D01*
X85705565Y-69399996D01*
X85685369Y-69220750D01*
X85685368Y-69220745D01*
X85625788Y-69050476D01*
X85529815Y-68897737D01*
X85402262Y-68770184D01*
X85249523Y-68674211D01*
X85079254Y-68614631D01*
X85079249Y-68614630D01*
X84900004Y-68594435D01*
X84899996Y-68594435D01*
X84720750Y-68614630D01*
X84720745Y-68614631D01*
X84550476Y-68674211D01*
X84397737Y-68770184D01*
X84270184Y-68897737D01*
X84174211Y-69050476D01*
X84114631Y-69220745D01*
X84114630Y-69220750D01*
X84094435Y-69399996D01*
X63500500Y-69399996D01*
X63500500Y-66600000D01*
X68032159Y-66600000D01*
X68051475Y-66796129D01*
X68108688Y-66984733D01*
X68201586Y-67158532D01*
X68201590Y-67158539D01*
X68326616Y-67310883D01*
X68478960Y-67435909D01*
X68478967Y-67435913D01*
X68652766Y-67528811D01*
X68652769Y-67528811D01*
X68652773Y-67528814D01*
X68841368Y-67586024D01*
X69037500Y-67605341D01*
X69233632Y-67586024D01*
X69422227Y-67528814D01*
X69596038Y-67435910D01*
X69748383Y-67310883D01*
X69873410Y-67158538D01*
X69966314Y-66984727D01*
X70023524Y-66796132D01*
X70042841Y-66600000D01*
X70023524Y-66403868D01*
X69991270Y-66297544D01*
X69986675Y-66275099D01*
X69986408Y-66272662D01*
X69976700Y-66235000D01*
X70702858Y-66235000D01*
X70726566Y-66323483D01*
X70726570Y-66323492D01*
X70826399Y-66537578D01*
X70961894Y-66731082D01*
X71128917Y-66898105D01*
X71322421Y-67033600D01*
X71536507Y-67133429D01*
X71536516Y-67133433D01*
X71624999Y-67157142D01*
X72375000Y-67157142D01*
X72463483Y-67133433D01*
X72463492Y-67133429D01*
X72677578Y-67033600D01*
X72871082Y-66898105D01*
X73038105Y-66731082D01*
X73168425Y-66544968D01*
X73223002Y-66501344D01*
X73292501Y-66494151D01*
X73354855Y-66525673D01*
X73371575Y-66544968D01*
X73501894Y-66731082D01*
X73668917Y-66898105D01*
X73862421Y-67033600D01*
X74076507Y-67133429D01*
X74076516Y-67133433D01*
X74164999Y-67157142D01*
X74915000Y-67157142D01*
X75003483Y-67133433D01*
X75003492Y-67133429D01*
X75075190Y-67099996D01*
X84094435Y-67099996D01*
X84094435Y-67100003D01*
X84114630Y-67279249D01*
X84114631Y-67279254D01*
X84174211Y-67449523D01*
X84226221Y-67532296D01*
X84270184Y-67602262D01*
X84397738Y-67729816D01*
X84445448Y-67759794D01*
X84547638Y-67824005D01*
X84550478Y-67825789D01*
X84653343Y-67861783D01*
X84720745Y-67885368D01*
X84720750Y-67885369D01*
X84899996Y-67905565D01*
X84900000Y-67905565D01*
X84900004Y-67905565D01*
X85079249Y-67885369D01*
X85079252Y-67885368D01*
X85079255Y-67885368D01*
X85249522Y-67825789D01*
X85402262Y-67729816D01*
X85529816Y-67602262D01*
X85625789Y-67449522D01*
X85685368Y-67279255D01*
X85695643Y-67188062D01*
X85705565Y-67100003D01*
X85705565Y-67099996D01*
X85685369Y-66920750D01*
X85685368Y-66920745D01*
X85625788Y-66750476D01*
X85572375Y-66665470D01*
X85529816Y-66597738D01*
X85402262Y-66470184D01*
X85249523Y-66374211D01*
X85079254Y-66314631D01*
X85079249Y-66314630D01*
X84900004Y-66294435D01*
X84899996Y-66294435D01*
X84720750Y-66314630D01*
X84720745Y-66314631D01*
X84550476Y-66374211D01*
X84397737Y-66470184D01*
X84270184Y-66597737D01*
X84174211Y-66750476D01*
X84114631Y-66920745D01*
X84114630Y-66920750D01*
X84094435Y-67099996D01*
X75075190Y-67099996D01*
X75217578Y-67033600D01*
X75411082Y-66898105D01*
X75578105Y-66731082D01*
X75713600Y-66537578D01*
X75813429Y-66323492D01*
X75813433Y-66323483D01*
X75837142Y-66235000D01*
X74915000Y-66235000D01*
X74915000Y-67157142D01*
X74164999Y-67157142D01*
X74165000Y-67157141D01*
X74165000Y-66235000D01*
X72375000Y-66235000D01*
X72375000Y-67157142D01*
X71624999Y-67157142D01*
X71625000Y-67157141D01*
X71625000Y-66235000D01*
X70702858Y-66235000D01*
X69976700Y-66235000D01*
X69795425Y-65531728D01*
X69791500Y-65500777D01*
X69791500Y-59261198D01*
X69811185Y-59194159D01*
X69863989Y-59148404D01*
X69933147Y-59138460D01*
X69996703Y-59167485D01*
X70034160Y-59225202D01*
X70055239Y-59294691D01*
X70175120Y-59584101D01*
X70322784Y-59860356D01*
X70322790Y-59860366D01*
X70496812Y-60120807D01*
X70496822Y-60120821D01*
X70668751Y-60330316D01*
X70696064Y-60394626D01*
X70692673Y-60441073D01*
X70664939Y-60544583D01*
X70664936Y-60544596D01*
X70644341Y-60779999D01*
X70644341Y-60780000D01*
X70664936Y-61015403D01*
X70664938Y-61015413D01*
X70726094Y-61243655D01*
X70726096Y-61243659D01*
X70726097Y-61243663D01*
X70730000Y-61252032D01*
X70825965Y-61457830D01*
X70825967Y-61457834D01*
X70934281Y-61612521D01*
X70961501Y-61651396D01*
X70961506Y-61651402D01*
X71128597Y-61818493D01*
X71128603Y-61818498D01*
X71314158Y-61948425D01*
X71357783Y-62003002D01*
X71364977Y-62072500D01*
X71333454Y-62134855D01*
X71314158Y-62151575D01*
X71128597Y-62281505D01*
X70961505Y-62448597D01*
X70825965Y-62642169D01*
X70825964Y-62642171D01*
X70726098Y-62856335D01*
X70726094Y-62856344D01*
X70664938Y-63084586D01*
X70664936Y-63084596D01*
X70644341Y-63319999D01*
X70644341Y-63320000D01*
X70664936Y-63555403D01*
X70664938Y-63555413D01*
X70726094Y-63783655D01*
X70726096Y-63783659D01*
X70726097Y-63783663D01*
X70730000Y-63792032D01*
X70825965Y-63997830D01*
X70825967Y-63997834D01*
X70934281Y-64152521D01*
X70961501Y-64191396D01*
X70961506Y-64191402D01*
X71128597Y-64358493D01*
X71128603Y-64358498D01*
X71314594Y-64488730D01*
X71358219Y-64543307D01*
X71365413Y-64612805D01*
X71333890Y-64675160D01*
X71314595Y-64691880D01*
X71128922Y-64821890D01*
X71128920Y-64821891D01*
X70961891Y-64988920D01*
X70961886Y-64988926D01*
X70826400Y-65182420D01*
X70826399Y-65182422D01*
X70726570Y-65396507D01*
X70726566Y-65396516D01*
X70702857Y-65484999D01*
X70702858Y-65485000D01*
X71667894Y-65485000D01*
X71599901Y-65552993D01*
X71534075Y-65667007D01*
X71500000Y-65794174D01*
X71500000Y-65925826D01*
X71534075Y-66052993D01*
X71599901Y-66167007D01*
X71692993Y-66260099D01*
X71807007Y-66325925D01*
X71934174Y-66360000D01*
X72065826Y-66360000D01*
X72192993Y-66325925D01*
X72307007Y-66260099D01*
X72400099Y-66167007D01*
X72465925Y-66052993D01*
X72500000Y-65925826D01*
X72500000Y-65794174D01*
X72465925Y-65667007D01*
X72400099Y-65552993D01*
X72332106Y-65485000D01*
X74207894Y-65485000D01*
X74139901Y-65552993D01*
X74074075Y-65667007D01*
X74040000Y-65794174D01*
X74040000Y-65925826D01*
X74074075Y-66052993D01*
X74139901Y-66167007D01*
X74232993Y-66260099D01*
X74347007Y-66325925D01*
X74474174Y-66360000D01*
X74605826Y-66360000D01*
X74732993Y-66325925D01*
X74847007Y-66260099D01*
X74940099Y-66167007D01*
X75005925Y-66052993D01*
X75040000Y-65925826D01*
X75040000Y-65794174D01*
X75005925Y-65667007D01*
X74940099Y-65552993D01*
X74872106Y-65485000D01*
X75837142Y-65485000D01*
X75837142Y-65484999D01*
X75813433Y-65396516D01*
X75813429Y-65396507D01*
X75713600Y-65182422D01*
X75713599Y-65182420D01*
X75578113Y-64988926D01*
X75578108Y-64988920D01*
X75411078Y-64821890D01*
X75225405Y-64691879D01*
X75181780Y-64637302D01*
X75174588Y-64567804D01*
X75206110Y-64505449D01*
X75225406Y-64488730D01*
X75411401Y-64358495D01*
X75578495Y-64191401D01*
X75714035Y-63997830D01*
X75813903Y-63783663D01*
X75875063Y-63555408D01*
X75895659Y-63320000D01*
X75875063Y-63084592D01*
X75813903Y-62856337D01*
X75787632Y-62800000D01*
X87394540Y-62800000D01*
X87414326Y-62988256D01*
X87414327Y-62988259D01*
X87472818Y-63168277D01*
X87472821Y-63168284D01*
X87567467Y-63332216D01*
X87694129Y-63472888D01*
X87847265Y-63584148D01*
X87847270Y-63584151D01*
X88020192Y-63661142D01*
X88020197Y-63661144D01*
X88205354Y-63700500D01*
X88205355Y-63700500D01*
X88394644Y-63700500D01*
X88394646Y-63700500D01*
X88579803Y-63661144D01*
X88752730Y-63584151D01*
X88905871Y-63472888D01*
X89032533Y-63332216D01*
X89127179Y-63168284D01*
X89185674Y-62988256D01*
X89205460Y-62800000D01*
X89185674Y-62611744D01*
X89127179Y-62431716D01*
X89032533Y-62267784D01*
X88905871Y-62127112D01*
X88905870Y-62127111D01*
X88752734Y-62015851D01*
X88752729Y-62015848D01*
X88579807Y-61938857D01*
X88579802Y-61938855D01*
X88434001Y-61907865D01*
X88394646Y-61899500D01*
X88205354Y-61899500D01*
X88172897Y-61906398D01*
X88020197Y-61938855D01*
X88020192Y-61938857D01*
X87847270Y-62015848D01*
X87847265Y-62015851D01*
X87694129Y-62127111D01*
X87567466Y-62267785D01*
X87472821Y-62431715D01*
X87472818Y-62431722D01*
X87414327Y-62611740D01*
X87414326Y-62611744D01*
X87394540Y-62800000D01*
X75787632Y-62800000D01*
X75714035Y-62642171D01*
X75708425Y-62634158D01*
X75578494Y-62448597D01*
X75411402Y-62281506D01*
X75411396Y-62281501D01*
X75225842Y-62151575D01*
X75182217Y-62096998D01*
X75175023Y-62027500D01*
X75206546Y-61965145D01*
X75225842Y-61948425D01*
X75295714Y-61899500D01*
X75411401Y-61818495D01*
X75578495Y-61651401D01*
X75714035Y-61457830D01*
X75813903Y-61243663D01*
X75875063Y-61015408D01*
X75895659Y-60780000D01*
X75875063Y-60544592D01*
X75815445Y-60322091D01*
X75813905Y-60316344D01*
X75813904Y-60316343D01*
X75813903Y-60316337D01*
X75714035Y-60102171D01*
X75708425Y-60094158D01*
X75578494Y-59908597D01*
X75411402Y-59741506D01*
X75411401Y-59741505D01*
X75225405Y-59611269D01*
X75181781Y-59556692D01*
X75174588Y-59487193D01*
X75206110Y-59424839D01*
X75225405Y-59408119D01*
X75411082Y-59278105D01*
X75578105Y-59111082D01*
X75713600Y-58917578D01*
X75813429Y-58703492D01*
X75813433Y-58703483D01*
X75837142Y-58615000D01*
X74872106Y-58615000D01*
X74940099Y-58547007D01*
X75005925Y-58432993D01*
X75040000Y-58305826D01*
X75040000Y-58174174D01*
X75005925Y-58047007D01*
X74940099Y-57932993D01*
X74872106Y-57865000D01*
X75837142Y-57865000D01*
X75837142Y-57864999D01*
X75813433Y-57776516D01*
X75813429Y-57776507D01*
X75713600Y-57562422D01*
X75713599Y-57562420D01*
X75578113Y-57368926D01*
X75578108Y-57368920D01*
X75411078Y-57201890D01*
X75225405Y-57071879D01*
X75181780Y-57017302D01*
X75174588Y-56947804D01*
X75206110Y-56885449D01*
X75225406Y-56868730D01*
X75243031Y-56856389D01*
X75411401Y-56738495D01*
X75578495Y-56571401D01*
X75714035Y-56377830D01*
X75813903Y-56163663D01*
X75875063Y-55935408D01*
X75895659Y-55700000D01*
X75875063Y-55464592D01*
X75819466Y-55257097D01*
X75813905Y-55236344D01*
X75813904Y-55236343D01*
X75813903Y-55236337D01*
X75714035Y-55022171D01*
X75708425Y-55014158D01*
X75578494Y-54828597D01*
X75411402Y-54661506D01*
X75411396Y-54661501D01*
X75225842Y-54531575D01*
X75182217Y-54476998D01*
X75175023Y-54407500D01*
X75206546Y-54345145D01*
X75225842Y-54328425D01*
X75248026Y-54312891D01*
X75411401Y-54198495D01*
X75578495Y-54031401D01*
X75714035Y-53837830D01*
X75813903Y-53623663D01*
X75875063Y-53395408D01*
X75895659Y-53160000D01*
X75875063Y-52924592D01*
X75813903Y-52696337D01*
X75714035Y-52482171D01*
X75708425Y-52474158D01*
X75578494Y-52288597D01*
X75411402Y-52121506D01*
X75411396Y-52121501D01*
X75225842Y-51991575D01*
X75182217Y-51936998D01*
X75175023Y-51867500D01*
X75206546Y-51805145D01*
X75225842Y-51788425D01*
X75316369Y-51725037D01*
X75411401Y-51658495D01*
X75578495Y-51491401D01*
X75714035Y-51297830D01*
X75813903Y-51083663D01*
X75875063Y-50855408D01*
X75895659Y-50620000D01*
X75875063Y-50384592D01*
X75813903Y-50156337D01*
X75714035Y-49942171D01*
X75708425Y-49934158D01*
X75578494Y-49748597D01*
X75411402Y-49581506D01*
X75411396Y-49581501D01*
X75225842Y-49451575D01*
X75182217Y-49396998D01*
X75175023Y-49327500D01*
X75206546Y-49265145D01*
X75225842Y-49248425D01*
X75291769Y-49202262D01*
X75411401Y-49118495D01*
X75578495Y-48951401D01*
X75714035Y-48757830D01*
X75813903Y-48543663D01*
X75875063Y-48315408D01*
X75895659Y-48080000D01*
X75875063Y-47844592D01*
X75815582Y-47622602D01*
X75813905Y-47616344D01*
X75813904Y-47616343D01*
X75813903Y-47616337D01*
X75714035Y-47402171D01*
X75708425Y-47394158D01*
X75578494Y-47208597D01*
X75411402Y-47041506D01*
X75411396Y-47041501D01*
X75225842Y-46911575D01*
X75182217Y-46856998D01*
X75175023Y-46787500D01*
X75206546Y-46725145D01*
X75225842Y-46708425D01*
X75267502Y-46679254D01*
X75411401Y-46578495D01*
X75578495Y-46411401D01*
X75712252Y-46220375D01*
X75766829Y-46176752D01*
X75813827Y-46167500D01*
X77448751Y-46167500D01*
X77448755Y-46167501D01*
X77473554Y-46167500D01*
X77473650Y-46167528D01*
X77524947Y-46167527D01*
X77524947Y-46167529D01*
X77738694Y-46167527D01*
X78164869Y-46133982D01*
X78587098Y-46067104D01*
X79002778Y-45967305D01*
X79409347Y-45835199D01*
X79804298Y-45671602D01*
X80185196Y-45477521D01*
X80549692Y-45254154D01*
X80895539Y-45002878D01*
X81220606Y-44725241D01*
X81332187Y-44613659D01*
X81369830Y-44576016D01*
X81373688Y-44572322D01*
X81636957Y-44331082D01*
X81645213Y-44324155D01*
X81926308Y-44108467D01*
X81935152Y-44102275D01*
X82233963Y-43911914D01*
X82243324Y-43906510D01*
X82386417Y-43832021D01*
X82557599Y-43742910D01*
X82567371Y-43738353D01*
X82894701Y-43602771D01*
X82904864Y-43599072D01*
X83242773Y-43492532D01*
X83253176Y-43489744D01*
X83599108Y-43413055D01*
X83609731Y-43411182D01*
X83960990Y-43364940D01*
X83971764Y-43363998D01*
X84025986Y-43361630D01*
X84328975Y-43348404D01*
X84334383Y-43348286D01*
X84407316Y-43348287D01*
X84407320Y-43348286D01*
X87800216Y-43348286D01*
X87867255Y-43367971D01*
X87913010Y-43420775D01*
X87922954Y-43489933D01*
X87917257Y-43513242D01*
X87914632Y-43520741D01*
X87914630Y-43520750D01*
X87894435Y-43699996D01*
X87894435Y-43700003D01*
X87914630Y-43879249D01*
X87914631Y-43879254D01*
X87974211Y-44049523D01*
X88070184Y-44202262D01*
X88197740Y-44329818D01*
X88218241Y-44342699D01*
X88252589Y-44374809D01*
X88292944Y-44430358D01*
X88292948Y-44430362D01*
X88296259Y-44433673D01*
X88296303Y-44433722D01*
X88344648Y-44482067D01*
X88344651Y-44482074D01*
X88344653Y-44482073D01*
X88404057Y-44541484D01*
X88404124Y-44541543D01*
X89523400Y-45660819D01*
X89556885Y-45722142D01*
X89551901Y-45791834D01*
X89510029Y-45847767D01*
X89444565Y-45872184D01*
X89435719Y-45872500D01*
X89041672Y-45872500D01*
X88975700Y-45853494D01*
X88849523Y-45774211D01*
X88679254Y-45714631D01*
X88679249Y-45714630D01*
X88500004Y-45694435D01*
X88499996Y-45694435D01*
X88320750Y-45714630D01*
X88320745Y-45714631D01*
X88150476Y-45774211D01*
X87997737Y-45870184D01*
X87870184Y-45997737D01*
X87774211Y-46150476D01*
X87714631Y-46320745D01*
X87714630Y-46320750D01*
X87694435Y-46499996D01*
X87694435Y-46500003D01*
X87714630Y-46679249D01*
X87714631Y-46679254D01*
X87774211Y-46849523D01*
X87870184Y-47002262D01*
X87997738Y-47129816D01*
X88150478Y-47225789D01*
X88320745Y-47285368D01*
X88320750Y-47285369D01*
X88499996Y-47305565D01*
X88500000Y-47305565D01*
X88500004Y-47305565D01*
X88679249Y-47285369D01*
X88679252Y-47285368D01*
X88679255Y-47285368D01*
X88849522Y-47225789D01*
X88975700Y-47146505D01*
X89041672Y-47127500D01*
X89539919Y-47127500D01*
X89612058Y-47127500D01*
X89620168Y-47127765D01*
X89804625Y-47139857D01*
X89820700Y-47141973D01*
X89998023Y-47177245D01*
X90013685Y-47181442D01*
X90184885Y-47239558D01*
X90199868Y-47245764D01*
X90362013Y-47325726D01*
X90376061Y-47333836D01*
X90526386Y-47434281D01*
X90539247Y-47444149D01*
X90614701Y-47510321D01*
X90678305Y-47566100D01*
X90684228Y-47571648D01*
X90740247Y-47627668D01*
X90740346Y-47627756D01*
X90777219Y-47664629D01*
X90829112Y-47707216D01*
X90986949Y-47836749D01*
X91212539Y-47987484D01*
X91290810Y-48029321D01*
X91363034Y-48067926D01*
X91412878Y-48116889D01*
X91428338Y-48185027D01*
X91404506Y-48250706D01*
X91352036Y-48291844D01*
X91340437Y-48296648D01*
X91340429Y-48296652D01*
X91175363Y-48391954D01*
X91175349Y-48391963D01*
X91024139Y-48507995D01*
X91024127Y-48508006D01*
X90962513Y-48569621D01*
X90950316Y-48580318D01*
X90917297Y-48605653D01*
X90889267Y-48621835D01*
X90858388Y-48634626D01*
X90827121Y-48643005D01*
X90808909Y-48645402D01*
X90785847Y-48648439D01*
X90769663Y-48649500D01*
X89132940Y-48649500D01*
X89065901Y-48629815D01*
X89045259Y-48613181D01*
X89002262Y-48570184D01*
X88849523Y-48474211D01*
X88679254Y-48414631D01*
X88679249Y-48414630D01*
X88500004Y-48394435D01*
X88499996Y-48394435D01*
X88320750Y-48414630D01*
X88320745Y-48414631D01*
X88150476Y-48474211D01*
X87997737Y-48570184D01*
X87870184Y-48697737D01*
X87774211Y-48850476D01*
X87714631Y-49020745D01*
X87714630Y-49020750D01*
X87694435Y-49199996D01*
X87694435Y-49200003D01*
X87714630Y-49379249D01*
X87714631Y-49379254D01*
X87774211Y-49549523D01*
X87837045Y-49649522D01*
X87870184Y-49702262D01*
X87997738Y-49829816D01*
X88150478Y-49925789D01*
X88273219Y-49968738D01*
X88320745Y-49985368D01*
X88320750Y-49985369D01*
X88499996Y-50005565D01*
X88500000Y-50005565D01*
X88500004Y-50005565D01*
X88679249Y-49985369D01*
X88679251Y-49985368D01*
X88679255Y-49985368D01*
X88679258Y-49985366D01*
X88679262Y-49985366D01*
X88770460Y-49953454D01*
X88849522Y-49925789D01*
X88939096Y-49869505D01*
X89005068Y-49850500D01*
X90704911Y-49850500D01*
X90704915Y-49850501D01*
X90777829Y-49850500D01*
X90856874Y-49850500D01*
X90866118Y-49850500D01*
X90866172Y-49850496D01*
X90873124Y-49850496D01*
X90873130Y-49850496D01*
X91062102Y-49825615D01*
X91246210Y-49776283D01*
X91246218Y-49776279D01*
X91247631Y-49775901D01*
X91317481Y-49777564D01*
X91375343Y-49816726D01*
X91402848Y-49880954D01*
X91391262Y-49949857D01*
X91367406Y-49983357D01*
X91362597Y-49988166D01*
X91362591Y-49988170D01*
X91313099Y-50037664D01*
X91313098Y-50037665D01*
X90816604Y-50534157D01*
X90816602Y-50534160D01*
X90785365Y-50565397D01*
X90779443Y-50570944D01*
X90610227Y-50719344D01*
X90597359Y-50729218D01*
X90413612Y-50851994D01*
X90399565Y-50860104D01*
X90201365Y-50957846D01*
X90186379Y-50964053D01*
X89977116Y-51035088D01*
X89961449Y-51039286D01*
X89744707Y-51082399D01*
X89728627Y-51084516D01*
X89521749Y-51098076D01*
X89504088Y-51099234D01*
X89495979Y-51099500D01*
X89082412Y-51099500D01*
X89015373Y-51079815D01*
X89005097Y-51072445D01*
X89002263Y-51070185D01*
X89002262Y-51070184D01*
X88908791Y-51011452D01*
X88849523Y-50974211D01*
X88679254Y-50914631D01*
X88679249Y-50914630D01*
X88500004Y-50894435D01*
X88499996Y-50894435D01*
X88320750Y-50914630D01*
X88320745Y-50914631D01*
X88150476Y-50974211D01*
X87997737Y-51070184D01*
X87870184Y-51197737D01*
X87774211Y-51350476D01*
X87714631Y-51520745D01*
X87714630Y-51520750D01*
X87694435Y-51699996D01*
X87694435Y-51700003D01*
X87714630Y-51879249D01*
X87714631Y-51879254D01*
X87774211Y-52049523D01*
X87832102Y-52141655D01*
X87870184Y-52202262D01*
X87997738Y-52329816D01*
X88016779Y-52341780D01*
X88119332Y-52406219D01*
X88150478Y-52425789D01*
X88320745Y-52485368D01*
X88320750Y-52485369D01*
X88499996Y-52505565D01*
X88500000Y-52505565D01*
X88500004Y-52505565D01*
X88679249Y-52485369D01*
X88679252Y-52485368D01*
X88679255Y-52485368D01*
X88849522Y-52425789D01*
X89002262Y-52329816D01*
X89002267Y-52329810D01*
X89005097Y-52327555D01*
X89007275Y-52326665D01*
X89008158Y-52326111D01*
X89008255Y-52326265D01*
X89069783Y-52301145D01*
X89082412Y-52300500D01*
X89427086Y-52300500D01*
X89448636Y-52300500D01*
X89448643Y-52300502D01*
X89500000Y-52300502D01*
X89648101Y-52300502D01*
X89648104Y-52300502D01*
X89942884Y-52271469D01*
X90233400Y-52213681D01*
X90516853Y-52127696D01*
X90790512Y-52014342D01*
X91051743Y-51874710D01*
X91298030Y-51710146D01*
X91527001Y-51522233D01*
X91598894Y-51450339D01*
X92192249Y-50856985D01*
X92196616Y-50852827D01*
X92404117Y-50664761D01*
X92467008Y-50634327D01*
X92536371Y-50642726D01*
X92590182Y-50687291D01*
X92611357Y-50753875D01*
X92593173Y-50821337D01*
X92575069Y-50844322D01*
X89513178Y-53906213D01*
X89513162Y-53906228D01*
X89458450Y-53960939D01*
X89449435Y-53969110D01*
X89368257Y-54035732D01*
X89348046Y-54049237D01*
X89260822Y-54095860D01*
X89238365Y-54105162D01*
X89143727Y-54133872D01*
X89119884Y-54138615D01*
X89085770Y-54141975D01*
X89017124Y-54128956D01*
X89007644Y-54123566D01*
X88978354Y-54105162D01*
X88936381Y-54078788D01*
X88849523Y-54024211D01*
X88679254Y-53964631D01*
X88679249Y-53964630D01*
X88500004Y-53944435D01*
X88499996Y-53944435D01*
X88320750Y-53964630D01*
X88320745Y-53964631D01*
X88150476Y-54024211D01*
X87997737Y-54120184D01*
X87870184Y-54247737D01*
X87774211Y-54400476D01*
X87714631Y-54570745D01*
X87714630Y-54570750D01*
X87694435Y-54749996D01*
X87694435Y-54750003D01*
X87714630Y-54929249D01*
X87714631Y-54929254D01*
X87774211Y-55099523D01*
X87819979Y-55172362D01*
X87870184Y-55252262D01*
X87997738Y-55379816D01*
X87997740Y-55379817D01*
X88147853Y-55474140D01*
X88150478Y-55475789D01*
X88319119Y-55534799D01*
X88320745Y-55535368D01*
X88320750Y-55535369D01*
X88499996Y-55555565D01*
X88500000Y-55555565D01*
X88500004Y-55555565D01*
X88679249Y-55535369D01*
X88679252Y-55535368D01*
X88679255Y-55535368D01*
X88849522Y-55475789D01*
X89002262Y-55379816D01*
X89002264Y-55379813D01*
X89005087Y-55377563D01*
X89007260Y-55376675D01*
X89008159Y-55376111D01*
X89008257Y-55376268D01*
X89069773Y-55351151D01*
X89082405Y-55350506D01*
X89129265Y-55350506D01*
X89129271Y-55350506D01*
X89367119Y-55319190D01*
X89598845Y-55257097D01*
X89778048Y-55182866D01*
X89847516Y-55175398D01*
X89909995Y-55206672D01*
X89945648Y-55266761D01*
X89949500Y-55297428D01*
X89949500Y-55370845D01*
X89949118Y-55380576D01*
X89935195Y-55557440D01*
X89932150Y-55576658D01*
X89891877Y-55744394D01*
X89885865Y-55762899D01*
X89819842Y-55922289D01*
X89811008Y-55939625D01*
X89720872Y-56086712D01*
X89709435Y-56102454D01*
X89594105Y-56237488D01*
X89587500Y-56244634D01*
X89574104Y-56258031D01*
X89484586Y-56347548D01*
X89437835Y-56394298D01*
X89408027Y-56424106D01*
X89399011Y-56432278D01*
X89324648Y-56493306D01*
X89304436Y-56506811D01*
X89224988Y-56549277D01*
X89202529Y-56558580D01*
X89160261Y-56571402D01*
X89116333Y-56584727D01*
X89092479Y-56589470D01*
X89083219Y-56590381D01*
X89014574Y-56577355D01*
X89005106Y-56571971D01*
X88849523Y-56474211D01*
X88679254Y-56414631D01*
X88679249Y-56414630D01*
X88500004Y-56394435D01*
X88499996Y-56394435D01*
X88320750Y-56414630D01*
X88320745Y-56414631D01*
X88150476Y-56474211D01*
X87997737Y-56570184D01*
X87870184Y-56697737D01*
X87774211Y-56850476D01*
X87714631Y-57020745D01*
X87714630Y-57020750D01*
X87694435Y-57199996D01*
X87694435Y-57200003D01*
X87714630Y-57379249D01*
X87714631Y-57379254D01*
X87774211Y-57549523D01*
X87827487Y-57634310D01*
X87870184Y-57702262D01*
X87997738Y-57829816D01*
X88053733Y-57865000D01*
X88144385Y-57921961D01*
X88150478Y-57925789D01*
X88290832Y-57974901D01*
X88320745Y-57985368D01*
X88320750Y-57985369D01*
X88499996Y-58005565D01*
X88500000Y-58005565D01*
X88500004Y-58005565D01*
X88679249Y-57985369D01*
X88679252Y-57985368D01*
X88679255Y-57985368D01*
X88849522Y-57925789D01*
X89002262Y-57829816D01*
X89002268Y-57829809D01*
X89005101Y-57827551D01*
X89007286Y-57826658D01*
X89008158Y-57826111D01*
X89008253Y-57826263D01*
X89069786Y-57801139D01*
X89082416Y-57800494D01*
X89107681Y-57800495D01*
X89339686Y-57769953D01*
X89550855Y-57713373D01*
X89565717Y-57709391D01*
X89565720Y-57709390D01*
X89781903Y-57619845D01*
X89781903Y-57619844D01*
X89781915Y-57619840D01*
X89984567Y-57502840D01*
X89984571Y-57502838D01*
X90026672Y-57470532D01*
X90170222Y-57360382D01*
X90187817Y-57342787D01*
X90249139Y-57309300D01*
X90318831Y-57314283D01*
X90374765Y-57356153D01*
X90399184Y-57421617D01*
X90399500Y-57430466D01*
X90399500Y-57630256D01*
X90399234Y-57638367D01*
X90386639Y-57830496D01*
X90384522Y-57846577D01*
X90347750Y-58031438D01*
X90343552Y-58047105D01*
X90282966Y-58225584D01*
X90276759Y-58240569D01*
X90193395Y-58409613D01*
X90185286Y-58423659D01*
X90080572Y-58580376D01*
X90070697Y-58593245D01*
X89943692Y-58738066D01*
X89938145Y-58743988D01*
X89745572Y-58936562D01*
X89738422Y-58943172D01*
X89643825Y-59023964D01*
X89628083Y-59035401D01*
X89526198Y-59097835D01*
X89508861Y-59106668D01*
X89398461Y-59152396D01*
X89379955Y-59158409D01*
X89263764Y-59186303D01*
X89244546Y-59189347D01*
X89120379Y-59199118D01*
X89110651Y-59199500D01*
X89082412Y-59199500D01*
X89015373Y-59179815D01*
X89005097Y-59172445D01*
X89002263Y-59170185D01*
X89002262Y-59170184D01*
X88934552Y-59127639D01*
X88849523Y-59074211D01*
X88679254Y-59014631D01*
X88679249Y-59014630D01*
X88500004Y-58994435D01*
X88499996Y-58994435D01*
X88320750Y-59014630D01*
X88320745Y-59014631D01*
X88150476Y-59074211D01*
X87997737Y-59170184D01*
X87870184Y-59297737D01*
X87774211Y-59450476D01*
X87714631Y-59620745D01*
X87714630Y-59620750D01*
X87694435Y-59799996D01*
X87694435Y-59800003D01*
X87714630Y-59979249D01*
X87714631Y-59979254D01*
X87774211Y-60149523D01*
X87834001Y-60244677D01*
X87870184Y-60302262D01*
X87997738Y-60429816D01*
X88150478Y-60525789D01*
X88320745Y-60585368D01*
X88320750Y-60585369D01*
X88499996Y-60605565D01*
X88500000Y-60605565D01*
X88500004Y-60605565D01*
X88679249Y-60585369D01*
X88679252Y-60585368D01*
X88679255Y-60585368D01*
X88849522Y-60525789D01*
X89002262Y-60429816D01*
X89002267Y-60429810D01*
X89005097Y-60427555D01*
X89007275Y-60426665D01*
X89008158Y-60426111D01*
X89008255Y-60426265D01*
X89069783Y-60401145D01*
X89082412Y-60400500D01*
X89203388Y-60400500D01*
X89203565Y-60400487D01*
X89232876Y-60400488D01*
X89439533Y-60377205D01*
X89465789Y-60374247D01*
X89465789Y-60374246D01*
X89465797Y-60374246D01*
X89694315Y-60322091D01*
X89915557Y-60244677D01*
X90126740Y-60142979D01*
X90325209Y-60018276D01*
X90508467Y-59872135D01*
X90528362Y-59852240D01*
X90528374Y-59852229D01*
X90535438Y-59845164D01*
X90535442Y-59845163D01*
X90846205Y-59534401D01*
X90846206Y-59534398D01*
X90852783Y-59527822D01*
X90852835Y-59527761D01*
X90886390Y-59494208D01*
X91058810Y-59284113D01*
X91209807Y-59058131D01*
X91337928Y-58818436D01*
X91441937Y-58567338D01*
X91520833Y-58307254D01*
X91573858Y-58040690D01*
X91600499Y-57770211D01*
X91600499Y-57727813D01*
X91600500Y-57727804D01*
X91600500Y-55534799D01*
X91600695Y-55527848D01*
X91601965Y-55505221D01*
X91613506Y-55299681D01*
X91615060Y-55285890D01*
X91652754Y-55064028D01*
X91655847Y-55050477D01*
X91660752Y-55033454D01*
X91718144Y-54834235D01*
X91722736Y-54821115D01*
X91732568Y-54797378D01*
X91808847Y-54613221D01*
X91814878Y-54600697D01*
X91884812Y-54474159D01*
X91934467Y-54425008D01*
X92002815Y-54410505D01*
X92068154Y-54435255D01*
X92109740Y-54491401D01*
X92113113Y-54502046D01*
X92120421Y-54529319D01*
X92120423Y-54529326D01*
X92120425Y-54529330D01*
X92148075Y-54588626D01*
X92212897Y-54727638D01*
X92212898Y-54727639D01*
X92294002Y-54843468D01*
X92316329Y-54909672D01*
X92299319Y-54977440D01*
X92291420Y-54988627D01*
X92291507Y-54988688D01*
X92162900Y-55172357D01*
X92162898Y-55172361D01*
X92070426Y-55370668D01*
X92070422Y-55370677D01*
X92013793Y-55582020D01*
X92013793Y-55582023D01*
X92011748Y-55605397D01*
X91994723Y-55799997D01*
X91994723Y-55800002D01*
X92013793Y-56017975D01*
X92013793Y-56017979D01*
X92070422Y-56229322D01*
X92070424Y-56229327D01*
X92070425Y-56229330D01*
X92102756Y-56298664D01*
X92112484Y-56319526D01*
X92115603Y-56326817D01*
X92123699Y-56347545D01*
X92123699Y-56347546D01*
X92131781Y-56361822D01*
X92136253Y-56370502D01*
X92162896Y-56427637D01*
X92162898Y-56427640D01*
X92191578Y-56468599D01*
X92197911Y-56478632D01*
X92626196Y-57235144D01*
X92641691Y-57284078D01*
X92654703Y-57416185D01*
X92654706Y-57416200D01*
X92718786Y-57738360D01*
X92718789Y-57738371D01*
X92814153Y-58052746D01*
X92920369Y-58309174D01*
X92939868Y-58356249D01*
X92965528Y-58404255D01*
X93094725Y-58645969D01*
X93181007Y-58775099D01*
X93268253Y-58905673D01*
X93277238Y-58919119D01*
X93485638Y-59173056D01*
X93601756Y-59289176D01*
X93601770Y-59289189D01*
X93601784Y-59289203D01*
X93647981Y-59335401D01*
X93662727Y-59350147D01*
X93662734Y-59350153D01*
X100987155Y-66674574D01*
X100993754Y-66681712D01*
X101117138Y-66826181D01*
X101128572Y-66841918D01*
X101225281Y-66999734D01*
X101234114Y-67017071D01*
X101304940Y-67188062D01*
X101310953Y-67206568D01*
X101354159Y-67386539D01*
X101357203Y-67405756D01*
X101372118Y-67595259D01*
X101372500Y-67604988D01*
X101372500Y-67759794D01*
X101372502Y-67759843D01*
X101372502Y-67824005D01*
X101401857Y-68084553D01*
X101401860Y-68084571D01*
X101460207Y-68340211D01*
X101460211Y-68340223D01*
X101546814Y-68587718D01*
X101546817Y-68587726D01*
X101660580Y-68823959D01*
X101660584Y-68823965D01*
X101800092Y-69045992D01*
X101963582Y-69251002D01*
X101963584Y-69251004D01*
X101963585Y-69251005D01*
X101998073Y-69285493D01*
X101998082Y-69285503D01*
X102052841Y-69340261D01*
X102059450Y-69347410D01*
X102155434Y-69459792D01*
X102159974Y-69465107D01*
X102171412Y-69480850D01*
X102249731Y-69608656D01*
X102258564Y-69625993D01*
X102315922Y-69764469D01*
X102321935Y-69782974D01*
X102356927Y-69928727D01*
X102359971Y-69947945D01*
X102372118Y-70102284D01*
X102372500Y-70112013D01*
X102372500Y-71458328D01*
X102353494Y-71524300D01*
X102274211Y-71650476D01*
X102214631Y-71820745D01*
X102214630Y-71820750D01*
X102194435Y-71999996D01*
X102194435Y-72000003D01*
X102214630Y-72179249D01*
X102214631Y-72179254D01*
X102274211Y-72349523D01*
X102357465Y-72482020D01*
X102370184Y-72502262D01*
X102497738Y-72629816D01*
X102650478Y-72725789D01*
X102820745Y-72785368D01*
X102820750Y-72785369D01*
X102999996Y-72805565D01*
X103000000Y-72805565D01*
X103000004Y-72805565D01*
X103179249Y-72785369D01*
X103179252Y-72785368D01*
X103179255Y-72785368D01*
X103349522Y-72725789D01*
X103502262Y-72629816D01*
X103629816Y-72502262D01*
X103725789Y-72349522D01*
X103785368Y-72179255D01*
X103797412Y-72072361D01*
X103805565Y-72000003D01*
X103805565Y-71999996D01*
X103785369Y-71820750D01*
X103785368Y-71820745D01*
X103725788Y-71650476D01*
X103646506Y-71524300D01*
X103627500Y-71458328D01*
X103627500Y-70038289D01*
X103627497Y-70038237D01*
X103627497Y-70029816D01*
X103627498Y-69975999D01*
X103605750Y-69782974D01*
X103598141Y-69715435D01*
X103598140Y-69715434D01*
X103598140Y-69715431D01*
X103539791Y-69459787D01*
X103453187Y-69212284D01*
X103339415Y-68976034D01*
X103199907Y-68754008D01*
X103036418Y-68548998D01*
X103004653Y-68517234D01*
X103004651Y-68517231D01*
X102947158Y-68459738D01*
X102940549Y-68452588D01*
X102840024Y-68334888D01*
X102828587Y-68319147D01*
X102750271Y-68191347D01*
X102741437Y-68174010D01*
X102704389Y-68084568D01*
X102684073Y-68035520D01*
X102678062Y-68017020D01*
X102643072Y-67871272D01*
X102640028Y-67852054D01*
X102632771Y-67759843D01*
X102627881Y-67697708D01*
X102627500Y-67687985D01*
X102627501Y-67616703D01*
X102627500Y-67616698D01*
X102627500Y-67538197D01*
X102627500Y-67532296D01*
X102627491Y-67532110D01*
X102627491Y-67456295D01*
X102627490Y-67456291D01*
X102626727Y-67449523D01*
X102607543Y-67279254D01*
X102595313Y-67170707D01*
X102595313Y-67170706D01*
X102592534Y-67158532D01*
X102531360Y-66890501D01*
X102436437Y-66619224D01*
X102436434Y-66619217D01*
X102311742Y-66360288D01*
X102311740Y-66360284D01*
X102243216Y-66251227D01*
X102158832Y-66116927D01*
X101979640Y-65892223D01*
X101928792Y-65841374D01*
X101928789Y-65841370D01*
X101874760Y-65787341D01*
X101819828Y-65732407D01*
X101819807Y-65732388D01*
X94491674Y-58404255D01*
X94486895Y-58399201D01*
X94448511Y-58356249D01*
X94337776Y-58232336D01*
X94329113Y-58221472D01*
X94201646Y-58041821D01*
X94194248Y-58030048D01*
X94136626Y-57925789D01*
X94087691Y-57837248D01*
X94081662Y-57824726D01*
X94071624Y-57800493D01*
X94044935Y-57736058D01*
X93997367Y-57621218D01*
X93992774Y-57608094D01*
X93983046Y-57574326D01*
X93931790Y-57396413D01*
X93928699Y-57382867D01*
X93928525Y-57381841D01*
X93901821Y-57224676D01*
X93909998Y-57155289D01*
X93916725Y-57141832D01*
X93949705Y-57084818D01*
X94000310Y-57036648D01*
X94051952Y-57023014D01*
X94145598Y-57019172D01*
X94213388Y-57036092D01*
X94238362Y-57055387D01*
X94923876Y-57740900D01*
X94923941Y-57740958D01*
X95015507Y-57832524D01*
X95024144Y-57839901D01*
X95335995Y-58106248D01*
X95336002Y-58106253D01*
X95676986Y-58353992D01*
X95676990Y-58353994D01*
X95676995Y-58353998D01*
X96036339Y-58574205D01*
X96036345Y-58574208D01*
X96036356Y-58574215D01*
X96411897Y-58765563D01*
X96801292Y-58926856D01*
X97202143Y-59057101D01*
X97611976Y-59155494D01*
X98028266Y-59221429D01*
X98448446Y-59254499D01*
X98570434Y-59254499D01*
X98570442Y-59254500D01*
X98584876Y-59254500D01*
X98659186Y-59254500D01*
X98738487Y-59254500D01*
X120625796Y-59254500D01*
X120667987Y-59261899D01*
X121736227Y-59648433D01*
X121780490Y-59664449D01*
X121796621Y-59669533D01*
X121811738Y-59675410D01*
X121820670Y-59679575D01*
X122032023Y-59736207D01*
X122214926Y-59752208D01*
X122249998Y-59755277D01*
X122250000Y-59755277D01*
X122250002Y-59755277D01*
X122278254Y-59752805D01*
X122467977Y-59736207D01*
X122679330Y-59679575D01*
X122877639Y-59587102D01*
X123056877Y-59461598D01*
X123211598Y-59306877D01*
X123337102Y-59127639D01*
X123429575Y-58929330D01*
X123477626Y-58750000D01*
X138837858Y-58750000D01*
X138861566Y-58838483D01*
X138861570Y-58838492D01*
X138961399Y-59052578D01*
X139096894Y-59246082D01*
X139263917Y-59413105D01*
X139457421Y-59548600D01*
X139671507Y-59648429D01*
X139671516Y-59648433D01*
X139759999Y-59672142D01*
X139760000Y-59672141D01*
X139760000Y-58750000D01*
X138837858Y-58750000D01*
X123477626Y-58750000D01*
X123486207Y-58717977D01*
X123505277Y-58500000D01*
X123486207Y-58282023D01*
X123439111Y-58106258D01*
X123429577Y-58070677D01*
X123429576Y-58070676D01*
X123429575Y-58070670D01*
X123337102Y-57872362D01*
X123337100Y-57872359D01*
X123337099Y-57872357D01*
X123211599Y-57693124D01*
X123138309Y-57619834D01*
X123056877Y-57538402D01*
X122884236Y-57417517D01*
X122877638Y-57412897D01*
X122714639Y-57336890D01*
X122679330Y-57320425D01*
X122679326Y-57320424D01*
X122679322Y-57320422D01*
X122467977Y-57263793D01*
X122250002Y-57244723D01*
X122249998Y-57244723D01*
X122104682Y-57257436D01*
X122032023Y-57263793D01*
X121820673Y-57320424D01*
X121820663Y-57320427D01*
X121807512Y-57326559D01*
X121784686Y-57334134D01*
X121784746Y-57334345D01*
X121780478Y-57335552D01*
X120667985Y-57738101D01*
X120625794Y-57745500D01*
X98661896Y-57745500D01*
X98656487Y-57745382D01*
X98328639Y-57731067D01*
X98317862Y-57730124D01*
X97995203Y-57687644D01*
X97984550Y-57685766D01*
X97666807Y-57615324D01*
X97656358Y-57612524D01*
X97345970Y-57514658D01*
X97335805Y-57510958D01*
X97318828Y-57503926D01*
X97120117Y-57421617D01*
X97035127Y-57386413D01*
X97025323Y-57381841D01*
X96736654Y-57231568D01*
X96727286Y-57226160D01*
X96452795Y-57051290D01*
X96443934Y-57045085D01*
X96231374Y-56881982D01*
X96185741Y-56846966D01*
X96177458Y-56840016D01*
X95935425Y-56618234D01*
X95931517Y-56614493D01*
X95111685Y-55794660D01*
X95104210Y-55786486D01*
X95081770Y-55759621D01*
X95033658Y-55716384D01*
X95028860Y-55711836D01*
X94926756Y-55609731D01*
X94926747Y-55609721D01*
X94917765Y-55600739D01*
X94907849Y-55590823D01*
X94907843Y-55590813D01*
X94866350Y-55549321D01*
X94866351Y-55549321D01*
X94786626Y-55469598D01*
X94607730Y-55332329D01*
X94604511Y-55329859D01*
X94604621Y-55329715D01*
X94595581Y-55322688D01*
X94337553Y-55090802D01*
X94293562Y-55051268D01*
X94256858Y-54991817D01*
X94258122Y-54921959D01*
X94274872Y-54887919D01*
X94387102Y-54727639D01*
X94479575Y-54529330D01*
X94536207Y-54317977D01*
X94553823Y-54116620D01*
X94555277Y-54100002D01*
X94555277Y-54099997D01*
X94549449Y-54033382D01*
X94536207Y-53882023D01*
X94479575Y-53670670D01*
X94435850Y-53576903D01*
X94425359Y-53507828D01*
X94453878Y-53444044D01*
X94512355Y-53405804D01*
X94548233Y-53400500D01*
X97581503Y-53400500D01*
X97603050Y-53400500D01*
X97603067Y-53400504D01*
X97654417Y-53400504D01*
X97654417Y-53400505D01*
X97866782Y-53400504D01*
X98290429Y-53370203D01*
X98710836Y-53309757D01*
X98710841Y-53309756D01*
X99125851Y-53219475D01*
X99125854Y-53219474D01*
X99125859Y-53219473D01*
X99533384Y-53099812D01*
X99931334Y-52951384D01*
X100317682Y-52774944D01*
X100690458Y-52571393D01*
X100841758Y-52474158D01*
X100951434Y-52403674D01*
X102391110Y-52403674D01*
X102391110Y-52403675D01*
X102409927Y-52606757D01*
X102465742Y-52802922D01*
X102465747Y-52802935D01*
X102556652Y-52985496D01*
X102679562Y-53148256D01*
X102830283Y-53285655D01*
X102830285Y-53285657D01*
X102870195Y-53310368D01*
X103003688Y-53393023D01*
X103193869Y-53466699D01*
X103315359Y-53489409D01*
X103377638Y-53521076D01*
X103412912Y-53581388D01*
X103409979Y-53651196D01*
X103369770Y-53708336D01*
X103343244Y-53724471D01*
X103297933Y-53744758D01*
X103292060Y-53747209D01*
X103257362Y-53760652D01*
X103083957Y-53868020D01*
X102933237Y-54005418D01*
X102810327Y-54168178D01*
X102719422Y-54350739D01*
X102719417Y-54350752D01*
X102663602Y-54546917D01*
X102644785Y-54749999D01*
X102644785Y-54750000D01*
X102663602Y-54953082D01*
X102719417Y-55149247D01*
X102719422Y-55149260D01*
X102810327Y-55331821D01*
X102933237Y-55494581D01*
X103083958Y-55631980D01*
X103083960Y-55631982D01*
X103183141Y-55693392D01*
X103257363Y-55739348D01*
X103447544Y-55813024D01*
X103648024Y-55850500D01*
X103648026Y-55850500D01*
X103851974Y-55850500D01*
X103851976Y-55850500D01*
X104052456Y-55813024D01*
X104242637Y-55739348D01*
X104416041Y-55631981D01*
X104556888Y-55503582D01*
X104566762Y-55494581D01*
X104580590Y-55476271D01*
X104689673Y-55331821D01*
X104726494Y-55257871D01*
X104736982Y-55240528D01*
X104739385Y-55237202D01*
X104739916Y-55236344D01*
X105040726Y-54750337D01*
X105986424Y-54750337D01*
X106120858Y-54797377D01*
X106120861Y-54797378D01*
X106299997Y-54817562D01*
X106300003Y-54817562D01*
X106479138Y-54797378D01*
X106479141Y-54797377D01*
X106613574Y-54750337D01*
X107436424Y-54750337D01*
X107570858Y-54797377D01*
X107570861Y-54797378D01*
X107749997Y-54817562D01*
X107750003Y-54817562D01*
X107929138Y-54797378D01*
X107929141Y-54797377D01*
X108063573Y-54750337D01*
X108886424Y-54750337D01*
X109020858Y-54797377D01*
X109020861Y-54797378D01*
X109199997Y-54817562D01*
X109200003Y-54817562D01*
X109379138Y-54797378D01*
X109379141Y-54797377D01*
X109513574Y-54750337D01*
X109200001Y-54436764D01*
X109200000Y-54436764D01*
X108886424Y-54750337D01*
X108063573Y-54750337D01*
X107750001Y-54436764D01*
X107750000Y-54436764D01*
X107436424Y-54750337D01*
X106613574Y-54750337D01*
X106300001Y-54436764D01*
X106300000Y-54436764D01*
X105986424Y-54750337D01*
X105040726Y-54750337D01*
X105218066Y-54463816D01*
X105235810Y-54441410D01*
X105264193Y-54413028D01*
X105271292Y-54406466D01*
X105379151Y-54314346D01*
X105442907Y-54285778D01*
X105511993Y-54296215D01*
X105540277Y-54321079D01*
X105562160Y-54326074D01*
X105771614Y-54116620D01*
X105830346Y-54083729D01*
X105966192Y-54051117D01*
X105985389Y-54048076D01*
X106135405Y-54036271D01*
X106150000Y-54035123D01*
X106150000Y-54042337D01*
X106172836Y-54097468D01*
X106215032Y-54139664D01*
X106270163Y-54162500D01*
X106329837Y-54162500D01*
X106384968Y-54139664D01*
X106427164Y-54097468D01*
X106450000Y-54042337D01*
X106450000Y-54033000D01*
X106693402Y-54033000D01*
X106760441Y-54052685D01*
X106781083Y-54069319D01*
X107025000Y-54313236D01*
X107268917Y-54069319D01*
X107330240Y-54035834D01*
X107356598Y-54033000D01*
X107600000Y-54033000D01*
X107600000Y-54042337D01*
X107622836Y-54097468D01*
X107665032Y-54139664D01*
X107720163Y-54162500D01*
X107779837Y-54162500D01*
X107834968Y-54139664D01*
X107877164Y-54097468D01*
X107900000Y-54042337D01*
X107900000Y-54033000D01*
X108143402Y-54033000D01*
X108210441Y-54052685D01*
X108231083Y-54069319D01*
X108475000Y-54313236D01*
X108718917Y-54069319D01*
X108780240Y-54035834D01*
X108806598Y-54033000D01*
X109050000Y-54033000D01*
X109050000Y-54042337D01*
X109072836Y-54097468D01*
X109115032Y-54139664D01*
X109170163Y-54162500D01*
X109229837Y-54162500D01*
X109284968Y-54139664D01*
X109327164Y-54097468D01*
X109350000Y-54042337D01*
X109350000Y-54033000D01*
X109593402Y-54033000D01*
X109660441Y-54052685D01*
X109681083Y-54069319D01*
X109937837Y-54326073D01*
X109984877Y-54191641D01*
X109984878Y-54191637D01*
X109990345Y-54143117D01*
X110017411Y-54078703D01*
X110075006Y-54039148D01*
X110113565Y-54033000D01*
X111195058Y-54033000D01*
X111204765Y-54033381D01*
X111324590Y-54042815D01*
X111343784Y-54045855D01*
X111455891Y-54072774D01*
X111474391Y-54078787D01*
X111580897Y-54122908D01*
X111598223Y-54131737D01*
X111648419Y-54162500D01*
X111696515Y-54191976D01*
X111712255Y-54203412D01*
X111800250Y-54278574D01*
X111804107Y-54281868D01*
X111811252Y-54288474D01*
X111813862Y-54291084D01*
X111867198Y-54344425D01*
X111867507Y-54344701D01*
X111896394Y-54373588D01*
X112093185Y-54530526D01*
X112160350Y-54572729D01*
X112306308Y-54664442D01*
X112533085Y-54773655D01*
X112770663Y-54856792D01*
X113016056Y-54912808D01*
X113190176Y-54932430D01*
X113266175Y-54940996D01*
X113266178Y-54940996D01*
X113315714Y-54940996D01*
X113315752Y-54941000D01*
X113392031Y-54941000D01*
X113469888Y-54941002D01*
X113469892Y-54941000D01*
X113476652Y-54941001D01*
X113476689Y-54941000D01*
X119419339Y-54941000D01*
X119486378Y-54960685D01*
X119514971Y-54986067D01*
X119665864Y-55168890D01*
X119916092Y-55472070D01*
X119919410Y-55476271D01*
X119933237Y-55494580D01*
X119936886Y-55497906D01*
X119942555Y-55503582D01*
X119942611Y-55503528D01*
X119944272Y-55505220D01*
X119944273Y-55505221D01*
X119968261Y-55527848D01*
X120000624Y-55558376D01*
X120006061Y-55562479D01*
X120005857Y-55562748D01*
X120017397Y-55571302D01*
X120083959Y-55631981D01*
X120083961Y-55631982D01*
X120083962Y-55631983D01*
X120141760Y-55667770D01*
X120257363Y-55739348D01*
X120447544Y-55813024D01*
X120648024Y-55850500D01*
X120648026Y-55850500D01*
X120851974Y-55850500D01*
X120851976Y-55850500D01*
X121052456Y-55813024D01*
X121242637Y-55739348D01*
X121416041Y-55631981D01*
X121566764Y-55494579D01*
X121674762Y-55351566D01*
X121730866Y-55309934D01*
X121800578Y-55305241D01*
X121861393Y-55338615D01*
X122072729Y-55549951D01*
X122097930Y-55586313D01*
X122480825Y-56428544D01*
X122501240Y-56468599D01*
X122501328Y-56468771D01*
X122501331Y-56468775D01*
X122501335Y-56468781D01*
X122501426Y-56468899D01*
X122502976Y-56471369D01*
X122504442Y-56473681D01*
X122504431Y-56473687D01*
X122514371Y-56489529D01*
X122560327Y-56581821D01*
X122683237Y-56744581D01*
X122833958Y-56881980D01*
X122833960Y-56881982D01*
X122846033Y-56889457D01*
X123007363Y-56989348D01*
X123197544Y-57063024D01*
X123398024Y-57100500D01*
X123398026Y-57100500D01*
X123601974Y-57100500D01*
X123601976Y-57100500D01*
X123802456Y-57063024D01*
X123992637Y-56989348D01*
X124166041Y-56881981D01*
X124316764Y-56744579D01*
X124439673Y-56581821D01*
X124530582Y-56399250D01*
X124586397Y-56203083D01*
X124605215Y-56000000D01*
X124589926Y-55834999D01*
X138779341Y-55834999D01*
X138779341Y-55835000D01*
X138799936Y-56070403D01*
X138799938Y-56070413D01*
X138861094Y-56298655D01*
X138861096Y-56298659D01*
X138861097Y-56298663D01*
X138942712Y-56473687D01*
X138960965Y-56512830D01*
X138960967Y-56512834D01*
X139069281Y-56667521D01*
X139096501Y-56706396D01*
X139096506Y-56706402D01*
X139263597Y-56873493D01*
X139263603Y-56873498D01*
X139280671Y-56885449D01*
X139429048Y-56989344D01*
X139449594Y-57003730D01*
X139493219Y-57058307D01*
X139500413Y-57127805D01*
X139468890Y-57190160D01*
X139449595Y-57206880D01*
X139263922Y-57336890D01*
X139263920Y-57336891D01*
X139096891Y-57503920D01*
X139096886Y-57503926D01*
X138961400Y-57697420D01*
X138961399Y-57697422D01*
X138861570Y-57911507D01*
X138861566Y-57911516D01*
X138837857Y-57999999D01*
X138837858Y-58000000D01*
X139802894Y-58000000D01*
X139734901Y-58067993D01*
X139669075Y-58182007D01*
X139635000Y-58309174D01*
X139635000Y-58440826D01*
X139669075Y-58567993D01*
X139734901Y-58682007D01*
X139827993Y-58775099D01*
X139942007Y-58840925D01*
X140069174Y-58875000D01*
X140200826Y-58875000D01*
X140327993Y-58840925D01*
X140442007Y-58775099D01*
X140510000Y-58707106D01*
X140510000Y-59672142D01*
X140598483Y-59648433D01*
X140598492Y-59648429D01*
X140812578Y-59548600D01*
X141006078Y-59413108D01*
X141128133Y-59291053D01*
X141189456Y-59257568D01*
X141259148Y-59262552D01*
X141315082Y-59304423D01*
X141331997Y-59335401D01*
X141381202Y-59467328D01*
X141381206Y-59467335D01*
X141467452Y-59582544D01*
X141467455Y-59582547D01*
X141582664Y-59668793D01*
X141582671Y-59668797D01*
X141717517Y-59719091D01*
X141717516Y-59719091D01*
X141724444Y-59719835D01*
X141777127Y-59725500D01*
X143572872Y-59725499D01*
X143632483Y-59719091D01*
X143767331Y-59668796D01*
X143882546Y-59582546D01*
X143968796Y-59467331D01*
X144019091Y-59332483D01*
X144025500Y-59272873D01*
X144025499Y-57477128D01*
X144019091Y-57417517D01*
X144018594Y-57416185D01*
X143968797Y-57282671D01*
X143968793Y-57282664D01*
X143882547Y-57167455D01*
X143882544Y-57167452D01*
X143767335Y-57081206D01*
X143767328Y-57081202D01*
X143635401Y-57031997D01*
X143579467Y-56990126D01*
X143555050Y-56924662D01*
X143569902Y-56856389D01*
X143591053Y-56828133D01*
X143713108Y-56706078D01*
X143848600Y-56512578D01*
X143948429Y-56298492D01*
X143948433Y-56298483D01*
X143972142Y-56210000D01*
X143007106Y-56210000D01*
X143075099Y-56142007D01*
X143140925Y-56027993D01*
X143175000Y-55900826D01*
X143175000Y-55769174D01*
X143140925Y-55642007D01*
X143075099Y-55527993D01*
X143007106Y-55460000D01*
X143050000Y-55460000D01*
X143972142Y-55460000D01*
X143972142Y-55459999D01*
X143948433Y-55371516D01*
X143948429Y-55371507D01*
X143848600Y-55157422D01*
X143848599Y-55157420D01*
X143713113Y-54963926D01*
X143713108Y-54963920D01*
X143546082Y-54796894D01*
X143352578Y-54661399D01*
X143138490Y-54561568D01*
X143138487Y-54561567D01*
X143050000Y-54537856D01*
X143050000Y-55460000D01*
X143007106Y-55460000D01*
X142982007Y-55434901D01*
X142867993Y-55369075D01*
X142740826Y-55335000D01*
X142609174Y-55335000D01*
X142482007Y-55369075D01*
X142367993Y-55434901D01*
X142300000Y-55502894D01*
X142300000Y-54537857D01*
X142299999Y-54537856D01*
X142211512Y-54561567D01*
X142211509Y-54561568D01*
X141997422Y-54661399D01*
X141997420Y-54661400D01*
X141803926Y-54796886D01*
X141803920Y-54796891D01*
X141636891Y-54963920D01*
X141636890Y-54963922D01*
X141506880Y-55149595D01*
X141452303Y-55193219D01*
X141382804Y-55200412D01*
X141320450Y-55168890D01*
X141303730Y-55149594D01*
X141173494Y-54963597D01*
X141006402Y-54796506D01*
X141006395Y-54796501D01*
X140812834Y-54660967D01*
X140812830Y-54660965D01*
X140812828Y-54660964D01*
X140598663Y-54561097D01*
X140598659Y-54561096D01*
X140598655Y-54561094D01*
X140370413Y-54499938D01*
X140370403Y-54499936D01*
X140135001Y-54479341D01*
X140134999Y-54479341D01*
X139899596Y-54499936D01*
X139899586Y-54499938D01*
X139671344Y-54561094D01*
X139671335Y-54561098D01*
X139457171Y-54660964D01*
X139457169Y-54660965D01*
X139263597Y-54796505D01*
X139096505Y-54963597D01*
X138960965Y-55157169D01*
X138960964Y-55157171D01*
X138861098Y-55371335D01*
X138861094Y-55371344D01*
X138799938Y-55599586D01*
X138799936Y-55599596D01*
X138779341Y-55834999D01*
X124589926Y-55834999D01*
X124586397Y-55796917D01*
X124530582Y-55600750D01*
X124530007Y-55599596D01*
X124486272Y-55511764D01*
X124439673Y-55418179D01*
X124354386Y-55305241D01*
X124316762Y-55255418D01*
X124166042Y-55118020D01*
X124166041Y-55118019D01*
X123992637Y-55010652D01*
X123959894Y-54997966D01*
X123937838Y-54986775D01*
X123928534Y-54980819D01*
X123928533Y-54980818D01*
X123086314Y-54597930D01*
X123049951Y-54572729D01*
X121229941Y-52752719D01*
X121229763Y-52752558D01*
X121127520Y-52650315D01*
X120843866Y-52404527D01*
X120796464Y-52363453D01*
X120445794Y-52100945D01*
X120445770Y-52100928D01*
X120077291Y-51864122D01*
X120077278Y-51864114D01*
X119744341Y-51682317D01*
X119692816Y-51654182D01*
X119619068Y-51620502D01*
X119294361Y-51472212D01*
X119294358Y-51472211D01*
X119294354Y-51472209D01*
X118883925Y-51319126D01*
X118633543Y-51245606D01*
X118463612Y-51195709D01*
X118035590Y-51102597D01*
X117601996Y-51040254D01*
X117165065Y-51009000D01*
X117014095Y-51009000D01*
X117014094Y-51009000D01*
X110099329Y-51009000D01*
X110032290Y-50989315D01*
X109986535Y-50936511D01*
X109982287Y-50925954D01*
X109937837Y-50798925D01*
X109764084Y-50972681D01*
X109702761Y-51006166D01*
X109676402Y-51009000D01*
X109551362Y-51009000D01*
X109543341Y-51010595D01*
X109538537Y-51011452D01*
X109424537Y-51029491D01*
X109339424Y-51057131D01*
X109327164Y-51027532D01*
X109284968Y-50985336D01*
X109229837Y-50962500D01*
X109170163Y-50962500D01*
X109115032Y-50985336D01*
X109072836Y-51027532D01*
X109050000Y-51082663D01*
X109050000Y-51092000D01*
X108806598Y-51092000D01*
X108739559Y-51072315D01*
X108718917Y-51055681D01*
X108475000Y-50811764D01*
X108231083Y-51055681D01*
X108169760Y-51089166D01*
X108143402Y-51092000D01*
X107900000Y-51092000D01*
X107900000Y-51082663D01*
X107877164Y-51027532D01*
X107834968Y-50985336D01*
X107779837Y-50962500D01*
X107720163Y-50962500D01*
X107665032Y-50985336D01*
X107622836Y-51027532D01*
X107600000Y-51082663D01*
X107600000Y-51092000D01*
X107356598Y-51092000D01*
X107289559Y-51072315D01*
X107268917Y-51055681D01*
X107025000Y-50811764D01*
X106781083Y-51055681D01*
X106719760Y-51089166D01*
X106693402Y-51092000D01*
X106450000Y-51092000D01*
X106450000Y-51082663D01*
X106427164Y-51027532D01*
X106384968Y-50985336D01*
X106329837Y-50962500D01*
X106270163Y-50962500D01*
X106215032Y-50985336D01*
X106172836Y-51027532D01*
X106150000Y-51082663D01*
X106150000Y-51092000D01*
X105906598Y-51092000D01*
X105839559Y-51072315D01*
X105818917Y-51055681D01*
X105562160Y-50798924D01*
X105515122Y-50933357D01*
X105515122Y-50933358D01*
X105509655Y-50981883D01*
X105482589Y-51046297D01*
X105424994Y-51085852D01*
X105386435Y-51092000D01*
X104296810Y-51092000D01*
X104296598Y-51092009D01*
X104286972Y-51092009D01*
X104121943Y-51118132D01*
X104121941Y-51118133D01*
X103963027Y-51169755D01*
X103814142Y-51245606D01*
X103811249Y-51247709D01*
X103750493Y-51270789D01*
X103500699Y-51295314D01*
X103457473Y-51299559D01*
X103457469Y-51299559D01*
X103457464Y-51299560D01*
X103436876Y-51302182D01*
X103421213Y-51303175D01*
X103394349Y-51303175D01*
X103193869Y-51340651D01*
X103193866Y-51340651D01*
X103193866Y-51340652D01*
X103003689Y-51414326D01*
X103003682Y-51414330D01*
X102830285Y-51521692D01*
X102830283Y-51521694D01*
X102679562Y-51659093D01*
X102556652Y-51821853D01*
X102465747Y-52004414D01*
X102465742Y-52004427D01*
X102409927Y-52200592D01*
X102391110Y-52403674D01*
X100951434Y-52403674D01*
X101047743Y-52341780D01*
X101047767Y-52341763D01*
X101387769Y-52087242D01*
X101411046Y-52067072D01*
X101708766Y-51809096D01*
X101792820Y-51725040D01*
X101792825Y-51725037D01*
X101803028Y-51714833D01*
X101803030Y-51714833D01*
X101822611Y-51695250D01*
X101822618Y-51695247D01*
X101858932Y-51658932D01*
X101897363Y-51620500D01*
X103138057Y-50379807D01*
X103138057Y-50379806D01*
X103143204Y-50374660D01*
X105986424Y-50374660D01*
X106300000Y-50688236D01*
X106300001Y-50688236D01*
X106613574Y-50374661D01*
X106613573Y-50374660D01*
X107436424Y-50374660D01*
X107750000Y-50688236D01*
X107750001Y-50688236D01*
X108063574Y-50374661D01*
X108063573Y-50374660D01*
X108886424Y-50374660D01*
X109200000Y-50688236D01*
X109200001Y-50688236D01*
X109513574Y-50374661D01*
X109513573Y-50374660D01*
X109379142Y-50327622D01*
X109200003Y-50307438D01*
X109199997Y-50307438D01*
X109020857Y-50327622D01*
X108886424Y-50374660D01*
X108063573Y-50374660D01*
X107929142Y-50327622D01*
X107750003Y-50307438D01*
X107749997Y-50307438D01*
X107570857Y-50327622D01*
X107436424Y-50374660D01*
X106613573Y-50374660D01*
X106479142Y-50327622D01*
X106300003Y-50307438D01*
X106299997Y-50307438D01*
X106120857Y-50327622D01*
X105986424Y-50374660D01*
X103143204Y-50374660D01*
X103143836Y-50374028D01*
X103144030Y-50373807D01*
X103151121Y-50366715D01*
X103164149Y-50353689D01*
X103305382Y-50169643D01*
X103421382Y-49968736D01*
X103510166Y-49754407D01*
X103570214Y-49530322D01*
X103600498Y-49300316D01*
X103600498Y-49275212D01*
X103600500Y-49275191D01*
X103600500Y-49026325D01*
X103601559Y-49010153D01*
X103604084Y-48990975D01*
X103612459Y-48959719D01*
X103616724Y-48949421D01*
X103632905Y-48921399D01*
X103639683Y-48912566D01*
X103662566Y-48889683D01*
X103665562Y-48887384D01*
X103671399Y-48882905D01*
X103699421Y-48866724D01*
X103709719Y-48862459D01*
X103740975Y-48854084D01*
X103760152Y-48851559D01*
X103776326Y-48850500D01*
X105541366Y-48850500D01*
X105607338Y-48869506D01*
X105699101Y-48927165D01*
X105699105Y-48927166D01*
X105869361Y-48986742D01*
X105869367Y-48986743D01*
X105869369Y-48986744D01*
X105869370Y-48986744D01*
X105869374Y-48986745D01*
X106048620Y-49006941D01*
X106048624Y-49006941D01*
X106048628Y-49006941D01*
X106227873Y-48986745D01*
X106227876Y-48986744D01*
X106227879Y-48986744D01*
X106398146Y-48927165D01*
X106550886Y-48831192D01*
X106678440Y-48703638D01*
X106774413Y-48550898D01*
X106833992Y-48380631D01*
X106840843Y-48319826D01*
X106854189Y-48201379D01*
X106854189Y-48201373D01*
X106844430Y-48114760D01*
X106856484Y-48045938D01*
X106903833Y-47994558D01*
X106967650Y-47976876D01*
X107800993Y-47976876D01*
X107800997Y-47976877D01*
X107872317Y-47976876D01*
X107882044Y-47977257D01*
X108023171Y-47988363D01*
X108042376Y-47991404D01*
X108175276Y-48023309D01*
X108193769Y-48029317D01*
X108320052Y-48081624D01*
X108337374Y-48090451D01*
X108453909Y-48161862D01*
X108469647Y-48173297D01*
X108577154Y-48265114D01*
X108584305Y-48271724D01*
X108690304Y-48377723D01*
X108723789Y-48439046D01*
X108719667Y-48506351D01*
X108714633Y-48520739D01*
X108714630Y-48520751D01*
X108694435Y-48699996D01*
X108694435Y-48700003D01*
X108714630Y-48879249D01*
X108714631Y-48879254D01*
X108774211Y-49049523D01*
X108836448Y-49148572D01*
X108870184Y-49202262D01*
X108997738Y-49329816D01*
X109030660Y-49350502D01*
X109148596Y-49424607D01*
X109150478Y-49425789D01*
X109294447Y-49476166D01*
X109320745Y-49485368D01*
X109320750Y-49485369D01*
X109427568Y-49497404D01*
X109491982Y-49524470D01*
X109530726Y-49579669D01*
X109536254Y-49595466D01*
X109587347Y-49741483D01*
X109625537Y-49802262D01*
X109683321Y-49894224D01*
X109810875Y-50021778D01*
X109963615Y-50117751D01*
X110087757Y-50161190D01*
X110133882Y-50177330D01*
X110133887Y-50177331D01*
X110313133Y-50197527D01*
X110313137Y-50197527D01*
X110313141Y-50197527D01*
X110492386Y-50177331D01*
X110492389Y-50177330D01*
X110492392Y-50177330D01*
X110662659Y-50117751D01*
X110815399Y-50021778D01*
X110942953Y-49894224D01*
X111038926Y-49741484D01*
X111098505Y-49571217D01*
X111098506Y-49571211D01*
X111118702Y-49391965D01*
X111118702Y-49391958D01*
X111098506Y-49212712D01*
X111098505Y-49212707D01*
X111038925Y-49042438D01*
X110959643Y-48916262D01*
X110940637Y-48850290D01*
X110940637Y-48834845D01*
X110940606Y-48834231D01*
X110940606Y-48831191D01*
X110940609Y-48784004D01*
X110909665Y-48548889D01*
X110848296Y-48319826D01*
X110757553Y-48100732D01*
X110638988Y-47895357D01*
X110494630Y-47707216D01*
X110494627Y-47707213D01*
X110494624Y-47707209D01*
X110458829Y-47671413D01*
X110458790Y-47671370D01*
X110401093Y-47613674D01*
X110401090Y-47613671D01*
X110352597Y-47565176D01*
X110352574Y-47565155D01*
X109437977Y-46650557D01*
X109437429Y-46650060D01*
X109417651Y-46630281D01*
X109417650Y-46630280D01*
X109417643Y-46630273D01*
X109417638Y-46630269D01*
X109264814Y-46512986D01*
X109264807Y-46512981D01*
X109097976Y-46416648D01*
X109097955Y-46416638D01*
X108919990Y-46342910D01*
X108919987Y-46342909D01*
X108733898Y-46293037D01*
X108733897Y-46293036D01*
X108542887Y-46267880D01*
X108542894Y-46267880D01*
X108514118Y-46267879D01*
X108514048Y-46267876D01*
X108508341Y-46267876D01*
X108446567Y-46267876D01*
X108446555Y-46267875D01*
X108370374Y-46267872D01*
X108370372Y-46267872D01*
X108362808Y-46267872D01*
X108362742Y-46267876D01*
X106919505Y-46267876D01*
X106852466Y-46248191D01*
X106806711Y-46195387D01*
X106796767Y-46126229D01*
X106810147Y-46085423D01*
X106853811Y-46003732D01*
X106853814Y-46003727D01*
X106911024Y-45815132D01*
X106930341Y-45619000D01*
X106911024Y-45422868D01*
X106853814Y-45234273D01*
X106853811Y-45234269D01*
X106853811Y-45234266D01*
X106760913Y-45060467D01*
X106760909Y-45060460D01*
X106635883Y-44908116D01*
X106483539Y-44783090D01*
X106483532Y-44783086D01*
X106309733Y-44690188D01*
X106309727Y-44690186D01*
X106121132Y-44632976D01*
X106121129Y-44632975D01*
X105925000Y-44613659D01*
X105728870Y-44632975D01*
X105540266Y-44690188D01*
X105366467Y-44783086D01*
X105366460Y-44783090D01*
X105214116Y-44908116D01*
X105089090Y-45060460D01*
X105089086Y-45060467D01*
X104996188Y-45234266D01*
X104938975Y-45422870D01*
X104919659Y-45619000D01*
X104938975Y-45815129D01*
X104938976Y-45815132D01*
X104994369Y-45997738D01*
X104996188Y-46003732D01*
X105039853Y-46085423D01*
X105054095Y-46153825D01*
X105029095Y-46219069D01*
X104972790Y-46260440D01*
X104930495Y-46267876D01*
X103893246Y-46267876D01*
X103893163Y-46267871D01*
X103885607Y-46267871D01*
X103878875Y-46267871D01*
X103860820Y-46267872D01*
X103860663Y-46267826D01*
X103712385Y-46267836D01*
X103520700Y-46298212D01*
X103336132Y-46358200D01*
X103163229Y-46446319D01*
X103163227Y-46446321D01*
X103006231Y-46560412D01*
X102980477Y-46586172D01*
X102919158Y-46619664D01*
X102892787Y-46622500D01*
X96677734Y-46622500D01*
X96610695Y-46602815D01*
X96564940Y-46550011D01*
X96554996Y-46480853D01*
X96584021Y-46417297D01*
X96599069Y-46402647D01*
X96710883Y-46310883D01*
X96752281Y-46260440D01*
X96835910Y-46158538D01*
X96899270Y-46040000D01*
X96928811Y-45984733D01*
X96928811Y-45984732D01*
X96928814Y-45984727D01*
X96986024Y-45796132D01*
X97005341Y-45600000D01*
X96986024Y-45403868D01*
X96928814Y-45215273D01*
X96928811Y-45215269D01*
X96928811Y-45215266D01*
X96835913Y-45041467D01*
X96835909Y-45041460D01*
X96710883Y-44889116D01*
X96558539Y-44764090D01*
X96558532Y-44764086D01*
X96384733Y-44671188D01*
X96384727Y-44671186D01*
X96196132Y-44613976D01*
X96196129Y-44613975D01*
X96000000Y-44594659D01*
X95803870Y-44613975D01*
X95615266Y-44671188D01*
X95441467Y-44764086D01*
X95441460Y-44764090D01*
X95289116Y-44889116D01*
X95164090Y-45041460D01*
X95164086Y-45041467D01*
X95071188Y-45215266D01*
X95013975Y-45403870D01*
X94994659Y-45600000D01*
X95013975Y-45796129D01*
X95013976Y-45796132D01*
X95065900Y-45967303D01*
X95071188Y-45984733D01*
X95164086Y-46158532D01*
X95164090Y-46158539D01*
X95289116Y-46310883D01*
X95400931Y-46402647D01*
X95440265Y-46460392D01*
X95442136Y-46530237D01*
X95405948Y-46590005D01*
X95343193Y-46620721D01*
X95322266Y-46622500D01*
X92711978Y-46622500D01*
X92702250Y-46622118D01*
X92681763Y-46620505D01*
X92547943Y-46609974D01*
X92528725Y-46606930D01*
X92382976Y-46571939D01*
X92364470Y-46565926D01*
X92225987Y-46508564D01*
X92208650Y-46499730D01*
X92080850Y-46421414D01*
X92065109Y-46409977D01*
X91947443Y-46309481D01*
X91940293Y-46302872D01*
X91885515Y-46248094D01*
X91885492Y-46248073D01*
X89530763Y-43893344D01*
X89497278Y-43832021D01*
X89495224Y-43791779D01*
X89505565Y-43700002D01*
X89505565Y-43699996D01*
X89485369Y-43520750D01*
X89485367Y-43520741D01*
X89482743Y-43513242D01*
X89479180Y-43443464D01*
X89513908Y-43382836D01*
X89575901Y-43350608D01*
X89599784Y-43348286D01*
X90390855Y-43348286D01*
X90390887Y-43348287D01*
X90398468Y-43348287D01*
X90398472Y-43348288D01*
X90423272Y-43348287D01*
X90423369Y-43348315D01*
X90474664Y-43348314D01*
X90474664Y-43348315D01*
X90605423Y-43348312D01*
X90605431Y-43348312D01*
X90658075Y-43342378D01*
X90865312Y-43319023D01*
X91120283Y-43260821D01*
X91367134Y-43174438D01*
X91602761Y-43060960D01*
X91824201Y-42921815D01*
X92028670Y-42758751D01*
X92055338Y-42732079D01*
X92055352Y-42732070D01*
X92117691Y-42669728D01*
X92124827Y-42663129D01*
X92241818Y-42563204D01*
X92257533Y-42551786D01*
X92384539Y-42473953D01*
X92401855Y-42465130D01*
X92539452Y-42408133D01*
X92557954Y-42402120D01*
X92702777Y-42367349D01*
X92721990Y-42364306D01*
X92875021Y-42352261D01*
X92884751Y-42351879D01*
X92956384Y-42351879D01*
X98007204Y-42351879D01*
X98074243Y-42371564D01*
X98119998Y-42424368D01*
X98130607Y-42488032D01*
X98126338Y-42531378D01*
X98145654Y-42727508D01*
X98202867Y-42916112D01*
X98295765Y-43089911D01*
X98295769Y-43089918D01*
X98420795Y-43242262D01*
X98573139Y-43367288D01*
X98573146Y-43367292D01*
X98746945Y-43460190D01*
X98746948Y-43460190D01*
X98746952Y-43460193D01*
X98935547Y-43517403D01*
X99131679Y-43536720D01*
X99327811Y-43517403D01*
X99516406Y-43460193D01*
X99690217Y-43367289D01*
X99842562Y-43242262D01*
X99967589Y-43089917D01*
X100021346Y-42989344D01*
X100060490Y-42916112D01*
X100060490Y-42916111D01*
X100060493Y-42916106D01*
X100117703Y-42727511D01*
X100137020Y-42531379D01*
X100137020Y-42531378D01*
X100132751Y-42488032D01*
X100145770Y-42419386D01*
X100193835Y-42368676D01*
X100256154Y-42351879D01*
X101268439Y-42351879D01*
X101335478Y-42371564D01*
X101356120Y-42388198D01*
X101397738Y-42429816D01*
X101550478Y-42525789D01*
X101657441Y-42563217D01*
X101720745Y-42585368D01*
X101720750Y-42585369D01*
X101899996Y-42605565D01*
X101900000Y-42605565D01*
X101900004Y-42605565D01*
X102079249Y-42585369D01*
X102079252Y-42585368D01*
X102079255Y-42585368D01*
X102249522Y-42525789D01*
X102402262Y-42429816D01*
X102529816Y-42302262D01*
X102625789Y-42149522D01*
X102685368Y-41979255D01*
X102687368Y-41961503D01*
X102705565Y-41800003D01*
X102705565Y-41799996D01*
X102685369Y-41620750D01*
X102685368Y-41620745D01*
X102653352Y-41529249D01*
X102625789Y-41450478D01*
X102622219Y-41444797D01*
X102529815Y-41297737D01*
X102402262Y-41170184D01*
X102249523Y-41074211D01*
X102079254Y-41014631D01*
X102079249Y-41014630D01*
X101900004Y-40994435D01*
X101899996Y-40994435D01*
X101720750Y-41014630D01*
X101720737Y-41014633D01*
X101550481Y-41074209D01*
X101550473Y-41074212D01*
X101544652Y-41077871D01*
X101478678Y-41096879D01*
X96620417Y-41096879D01*
X96553378Y-41077194D01*
X96507623Y-41024390D01*
X96497679Y-40955232D01*
X96524564Y-40894214D01*
X96635909Y-40758539D01*
X96635913Y-40758532D01*
X96728811Y-40584733D01*
X96728811Y-40584732D01*
X96728814Y-40584727D01*
X96786024Y-40396132D01*
X96805341Y-40200000D01*
X96786024Y-40003868D01*
X96728814Y-39815273D01*
X96728811Y-39815269D01*
X96728811Y-39815266D01*
X96635913Y-39641467D01*
X96635909Y-39641460D01*
X96510883Y-39489116D01*
X96358539Y-39364090D01*
X96358532Y-39364086D01*
X96184733Y-39271188D01*
X96184727Y-39271186D01*
X95996132Y-39213976D01*
X95996129Y-39213975D01*
X95800000Y-39194659D01*
X95603870Y-39213975D01*
X95415266Y-39271188D01*
X95241467Y-39364086D01*
X95241460Y-39364090D01*
X95089116Y-39489116D01*
X94964090Y-39641460D01*
X94964086Y-39641467D01*
X94871188Y-39815266D01*
X94813975Y-40003870D01*
X94794659Y-40200000D01*
X94813975Y-40396129D01*
X94819100Y-40413024D01*
X94852809Y-40524148D01*
X94871188Y-40584733D01*
X94964086Y-40758532D01*
X94964090Y-40758539D01*
X95075436Y-40894214D01*
X95102749Y-40958524D01*
X95090958Y-41027392D01*
X95043806Y-41078952D01*
X94979583Y-41096879D01*
X92963986Y-41096879D01*
X92963970Y-41096878D01*
X92931568Y-41096878D01*
X92931486Y-41096854D01*
X92749412Y-41096854D01*
X92489538Y-41126138D01*
X92489537Y-41126138D01*
X92412555Y-41143709D01*
X92234555Y-41184340D01*
X92234551Y-41184341D01*
X92234548Y-41184342D01*
X91987701Y-41270721D01*
X91987699Y-41270722D01*
X91752069Y-41384201D01*
X91752066Y-41384203D01*
X91530633Y-41523345D01*
X91530627Y-41523349D01*
X91326160Y-41686415D01*
X91270136Y-41742442D01*
X91270134Y-41742442D01*
X91270135Y-41742443D01*
X91237142Y-41775437D01*
X91229991Y-41782047D01*
X91113030Y-41881943D01*
X91097290Y-41893379D01*
X90970305Y-41971199D01*
X90952968Y-41980033D01*
X90815372Y-42037031D01*
X90796867Y-42043044D01*
X90652048Y-42077816D01*
X90632830Y-42080860D01*
X90479863Y-42092903D01*
X90470131Y-42093286D01*
X84263692Y-42093286D01*
X84263207Y-42093309D01*
X84117377Y-42093309D01*
X83691224Y-42126845D01*
X83268987Y-42193718D01*
X82853316Y-42293509D01*
X82853285Y-42293518D01*
X82446743Y-42425608D01*
X82446737Y-42425611D01*
X82051781Y-42589204D01*
X82051778Y-42589206D01*
X81670904Y-42783267D01*
X81670881Y-42783280D01*
X81482302Y-42898839D01*
X81306388Y-43006639D01*
X81306384Y-43006641D01*
X81306374Y-43006648D01*
X80960546Y-43257903D01*
X80635476Y-43535536D01*
X80540631Y-43630377D01*
X80540630Y-43630376D01*
X80540623Y-43630384D01*
X80486255Y-43684753D01*
X80482347Y-43688495D01*
X80219120Y-43929700D01*
X80210833Y-43936653D01*
X79929769Y-44152325D01*
X79920908Y-44158530D01*
X79622108Y-44348889D01*
X79612740Y-44354298D01*
X79298482Y-44517893D01*
X79288678Y-44522465D01*
X78961366Y-44658045D01*
X78951201Y-44661745D01*
X78613306Y-44768286D01*
X78602856Y-44771085D01*
X78256979Y-44847767D01*
X78246326Y-44849646D01*
X77895070Y-44895893D01*
X77884294Y-44896836D01*
X77528303Y-44912382D01*
X77522893Y-44912500D01*
X75813826Y-44912500D01*
X75746787Y-44892815D01*
X75712251Y-44859623D01*
X75578494Y-44668597D01*
X75411402Y-44501506D01*
X75411396Y-44501501D01*
X75225842Y-44371575D01*
X75182217Y-44316998D01*
X75175023Y-44247500D01*
X75206546Y-44185145D01*
X75225842Y-44168425D01*
X75248835Y-44152325D01*
X75411401Y-44038495D01*
X75578495Y-43871401D01*
X75714035Y-43677830D01*
X75813903Y-43463663D01*
X75875063Y-43235408D01*
X75895659Y-43000000D01*
X75875063Y-42764592D01*
X75828069Y-42589206D01*
X75813905Y-42536344D01*
X75813904Y-42536343D01*
X75813903Y-42536337D01*
X75714035Y-42322171D01*
X75659288Y-42243983D01*
X75578494Y-42128597D01*
X75411402Y-41961506D01*
X75411395Y-41961501D01*
X75217834Y-41825967D01*
X75217830Y-41825965D01*
X75162139Y-41799996D01*
X75003663Y-41726097D01*
X75003659Y-41726096D01*
X75003655Y-41726094D01*
X74775413Y-41664938D01*
X74775403Y-41664936D01*
X74540001Y-41644341D01*
X74539999Y-41644341D01*
X74304596Y-41664936D01*
X74304586Y-41664938D01*
X74076344Y-41726094D01*
X74076335Y-41726098D01*
X73862171Y-41825964D01*
X73862169Y-41825965D01*
X73668600Y-41961503D01*
X73546284Y-42083819D01*
X73484961Y-42117303D01*
X73415269Y-42112319D01*
X73359336Y-42070447D01*
X73342421Y-42039470D01*
X73293354Y-41907913D01*
X73293350Y-41907906D01*
X73207190Y-41792812D01*
X73207187Y-41792809D01*
X73092093Y-41706649D01*
X73092086Y-41706645D01*
X72957379Y-41656403D01*
X72957372Y-41656401D01*
X72897844Y-41650000D01*
X72294281Y-41650000D01*
X72227242Y-41630315D01*
X72181487Y-41577511D01*
X72171543Y-41508353D01*
X72200568Y-41444797D01*
X72239432Y-41414790D01*
X72313606Y-41378209D01*
X72328567Y-41372012D01*
X72552642Y-41295944D01*
X72568283Y-41291752D01*
X72800375Y-41245582D01*
X72816449Y-41243466D01*
X73055927Y-41227766D01*
X73064039Y-41227500D01*
X73923808Y-41227500D01*
X73948631Y-41227500D01*
X73948655Y-41227507D01*
X74000000Y-41227507D01*
X74214356Y-41227507D01*
X74214364Y-41227507D01*
X74641771Y-41193870D01*
X75065221Y-41126801D01*
X75482104Y-41026716D01*
X75889849Y-40894231D01*
X76285942Y-40730163D01*
X76667941Y-40535523D01*
X77033492Y-40311512D01*
X77380340Y-40059511D01*
X77706347Y-39781073D01*
X77857924Y-39629494D01*
X77911800Y-39575618D01*
X78080247Y-39407171D01*
X78083669Y-39403879D01*
X78355977Y-39152159D01*
X78363343Y-39145869D01*
X78652550Y-38917876D01*
X78660409Y-38912166D01*
X78966640Y-38707549D01*
X78974901Y-38702487D01*
X79296222Y-38522538D01*
X79304869Y-38518131D01*
X79639333Y-38363940D01*
X79648304Y-38360225D01*
X79993821Y-38232757D01*
X80003059Y-38229756D01*
X80357504Y-38129792D01*
X80366952Y-38127524D01*
X80728149Y-38055677D01*
X80737745Y-38054157D01*
X81103475Y-38010870D01*
X81113141Y-38010109D01*
X81483481Y-37995559D01*
X81488349Y-37995463D01*
X81562192Y-37995463D01*
X86783613Y-37995463D01*
X86850652Y-38015148D01*
X86896407Y-38067952D01*
X86906833Y-38133346D01*
X86896732Y-38222996D01*
X86896732Y-38223003D01*
X86916927Y-38402249D01*
X86916928Y-38402254D01*
X86976508Y-38572523D01*
X87049196Y-38688204D01*
X87072481Y-38725262D01*
X87200035Y-38852816D01*
X87352775Y-38948789D01*
X87498282Y-38999704D01*
X87523042Y-39008368D01*
X87523047Y-39008369D01*
X87702293Y-39028565D01*
X87702297Y-39028565D01*
X87702301Y-39028565D01*
X87881546Y-39008369D01*
X87881549Y-39008368D01*
X87881552Y-39008368D01*
X88051819Y-38948789D01*
X88204559Y-38852816D01*
X88332113Y-38725262D01*
X88428086Y-38572522D01*
X88487665Y-38402255D01*
X88487666Y-38402249D01*
X88507862Y-38223003D01*
X88507862Y-38222996D01*
X88497761Y-38133346D01*
X88509816Y-38064525D01*
X88557165Y-38013145D01*
X88620981Y-37995463D01*
X96932205Y-37995463D01*
X97005691Y-37995463D01*
X97011099Y-37995581D01*
X97022519Y-37996079D01*
X97377120Y-38011561D01*
X97387857Y-38012501D01*
X97748417Y-38059970D01*
X97759036Y-38061842D01*
X98114096Y-38140556D01*
X98124508Y-38143345D01*
X98471354Y-38252706D01*
X98481489Y-38256395D01*
X98817469Y-38395563D01*
X98827261Y-38400129D01*
X99149811Y-38568038D01*
X99159178Y-38573445D01*
X99464849Y-38768179D01*
X99465873Y-38768831D01*
X99474734Y-38775036D01*
X99763239Y-38996414D01*
X99771520Y-39003363D01*
X99996459Y-39209481D01*
X100041616Y-39250860D01*
X100045501Y-39254578D01*
X100062109Y-39271186D01*
X100102573Y-39311651D01*
X100103161Y-39312172D01*
X100197751Y-39406764D01*
X100197767Y-39406778D01*
X100529231Y-39689884D01*
X100747576Y-39848524D01*
X100881892Y-39946113D01*
X100881910Y-39946124D01*
X100881913Y-39946126D01*
X101253551Y-40173873D01*
X101253562Y-40173879D01*
X101253570Y-40173884D01*
X101253579Y-40173888D01*
X101253587Y-40173893D01*
X101641964Y-40371788D01*
X101641970Y-40371790D01*
X101641973Y-40371792D01*
X102044707Y-40538615D01*
X102459288Y-40673326D01*
X102883160Y-40775094D01*
X103313710Y-40843291D01*
X103748284Y-40877498D01*
X103894449Y-40877498D01*
X103894457Y-40877500D01*
X103966242Y-40877500D01*
X104042435Y-40877501D01*
X104042439Y-40877500D01*
X114495992Y-40877500D01*
X114495996Y-40877501D01*
X114567313Y-40877500D01*
X114577042Y-40877882D01*
X114758060Y-40892127D01*
X114777263Y-40895168D01*
X114949071Y-40936414D01*
X114967574Y-40942427D01*
X115130802Y-41010037D01*
X115148140Y-41018871D01*
X115298783Y-41111185D01*
X115314524Y-41122621D01*
X115370214Y-41170184D01*
X115437330Y-41227506D01*
X115452512Y-41240472D01*
X115459662Y-41247082D01*
X115510167Y-41297587D01*
X115510168Y-41297587D01*
X115624148Y-41411568D01*
X115657632Y-41472891D01*
X115659686Y-41485363D01*
X115664632Y-41529254D01*
X115724210Y-41699521D01*
X115787347Y-41800003D01*
X115820184Y-41852262D01*
X115947738Y-41979816D01*
X116100478Y-42075789D01*
X116251395Y-42128597D01*
X116270745Y-42135368D01*
X116270750Y-42135369D01*
X116449996Y-42155565D01*
X116450000Y-42155565D01*
X116450004Y-42155565D01*
X116629249Y-42135369D01*
X116629252Y-42135368D01*
X116629255Y-42135368D01*
X116799522Y-42075789D01*
X116920141Y-41999999D01*
X130894785Y-41999999D01*
X130894785Y-42000000D01*
X130913602Y-42203082D01*
X130969417Y-42399247D01*
X130969422Y-42399260D01*
X131060327Y-42581821D01*
X131183237Y-42744581D01*
X131333958Y-42881980D01*
X131333960Y-42881982D01*
X131398290Y-42921813D01*
X131507363Y-42989348D01*
X131697544Y-43063024D01*
X131898024Y-43100500D01*
X131898026Y-43100500D01*
X132101974Y-43100500D01*
X132101976Y-43100500D01*
X132302456Y-43063024D01*
X132492637Y-42989348D01*
X132666041Y-42881981D01*
X132816764Y-42744579D01*
X132939673Y-42581821D01*
X133030582Y-42399250D01*
X133086397Y-42203083D01*
X133105215Y-42000000D01*
X133086397Y-41796917D01*
X133030582Y-41600750D01*
X133019010Y-41577511D01*
X132952927Y-41444797D01*
X132939673Y-41418179D01*
X132848606Y-41297587D01*
X132816762Y-41255418D01*
X132666041Y-41118019D01*
X132666039Y-41118017D01*
X132492642Y-41010655D01*
X132492635Y-41010651D01*
X132349580Y-40955232D01*
X132302456Y-40936976D01*
X132101976Y-40899500D01*
X131898024Y-40899500D01*
X131697544Y-40936976D01*
X131697541Y-40936976D01*
X131697541Y-40936977D01*
X131507364Y-41010651D01*
X131507357Y-41010655D01*
X131333960Y-41118017D01*
X131333958Y-41118019D01*
X131183237Y-41255418D01*
X131060327Y-41418178D01*
X130969422Y-41600739D01*
X130969417Y-41600752D01*
X130913602Y-41796917D01*
X130894785Y-41999999D01*
X116920141Y-41999999D01*
X116952262Y-41979816D01*
X117079816Y-41852262D01*
X117175789Y-41699522D01*
X117235368Y-41529255D01*
X117235369Y-41529249D01*
X117255565Y-41350003D01*
X117255565Y-41349996D01*
X117235369Y-41170750D01*
X117235368Y-41170745D01*
X117202633Y-41077194D01*
X117175789Y-41000478D01*
X117079816Y-40847738D01*
X116952262Y-40720184D01*
X116926723Y-40704137D01*
X116799521Y-40624210D01*
X116686683Y-40584727D01*
X116629255Y-40564632D01*
X116614546Y-40562974D01*
X116585363Y-40559686D01*
X116520949Y-40532618D01*
X116511568Y-40524148D01*
X116397587Y-40410168D01*
X116397587Y-40410167D01*
X116380034Y-40392614D01*
X116380021Y-40392591D01*
X116244221Y-40256791D01*
X116089255Y-40133211D01*
X116024226Y-40081353D01*
X115900909Y-40003868D01*
X115785964Y-39931643D01*
X115613362Y-39848524D01*
X115532437Y-39809553D01*
X115532434Y-39809552D01*
X115532430Y-39809550D01*
X115266834Y-39716616D01*
X115266828Y-39716614D01*
X114992499Y-39654002D01*
X114992481Y-39653999D01*
X114712876Y-39622498D01*
X114712872Y-39622498D01*
X114572176Y-39622500D01*
X104644460Y-39622500D01*
X104577421Y-39602815D01*
X104531666Y-39550011D01*
X104521722Y-39480853D01*
X104550747Y-39417297D01*
X104609525Y-39379523D01*
X104615513Y-39377926D01*
X104659285Y-39367417D01*
X104701336Y-39349999D01*
X135844785Y-39349999D01*
X135844785Y-39350000D01*
X135863602Y-39553082D01*
X135919417Y-39749247D01*
X135919422Y-39749260D01*
X136010327Y-39931821D01*
X136133237Y-40094581D01*
X136283958Y-40231980D01*
X136283960Y-40231982D01*
X136324040Y-40256798D01*
X136457363Y-40339348D01*
X136647544Y-40413024D01*
X136848024Y-40450500D01*
X136848026Y-40450500D01*
X137051974Y-40450500D01*
X137051976Y-40450500D01*
X137252456Y-40413024D01*
X137442637Y-40339348D01*
X137616041Y-40231981D01*
X137766764Y-40094579D01*
X137889673Y-39931821D01*
X137980582Y-39749250D01*
X138036397Y-39553083D01*
X138055215Y-39350000D01*
X138051190Y-39306567D01*
X138036397Y-39146917D01*
X138036096Y-39145858D01*
X137980582Y-38950750D01*
X137979605Y-38948788D01*
X137891447Y-38771742D01*
X137889673Y-38768179D01*
X137829276Y-38688200D01*
X137766762Y-38605418D01*
X137616041Y-38468019D01*
X137616039Y-38468017D01*
X137442642Y-38360655D01*
X137442635Y-38360651D01*
X137347546Y-38323814D01*
X137252456Y-38286976D01*
X137051976Y-38249500D01*
X136848024Y-38249500D01*
X136647544Y-38286976D01*
X136647541Y-38286976D01*
X136647541Y-38286977D01*
X136457364Y-38360651D01*
X136457357Y-38360655D01*
X136283960Y-38468017D01*
X136283958Y-38468019D01*
X136133237Y-38605418D01*
X136010327Y-38768178D01*
X135919422Y-38950739D01*
X135919417Y-38950752D01*
X135863602Y-39146917D01*
X135844785Y-39349999D01*
X104701336Y-39349999D01*
X104898209Y-39268451D01*
X105015961Y-39196291D01*
X104463830Y-38644160D01*
X104576310Y-38597570D01*
X104723717Y-38499076D01*
X104849076Y-38373717D01*
X104947570Y-38226310D01*
X104994160Y-38113830D01*
X105546291Y-38665961D01*
X105618451Y-38548209D01*
X105717417Y-38309285D01*
X105777788Y-38057820D01*
X105798079Y-37800000D01*
X105777788Y-37542179D01*
X105717417Y-37290714D01*
X105618450Y-37051786D01*
X105546291Y-36934036D01*
X104994160Y-37486168D01*
X104947570Y-37373690D01*
X104849076Y-37226283D01*
X104723717Y-37100924D01*
X104576310Y-37002430D01*
X104463830Y-36955839D01*
X105015962Y-36403707D01*
X104898213Y-36331549D01*
X104659285Y-36232582D01*
X104407820Y-36172211D01*
X104150000Y-36151920D01*
X103892179Y-36172211D01*
X103640714Y-36232582D01*
X103401786Y-36331549D01*
X103284036Y-36403707D01*
X103836169Y-36955839D01*
X103723690Y-37002430D01*
X103576283Y-37100924D01*
X103450924Y-37226283D01*
X103352430Y-37373690D01*
X103305839Y-37486168D01*
X102753707Y-36934036D01*
X102681549Y-37051786D01*
X102582582Y-37290714D01*
X102522211Y-37542179D01*
X102501920Y-37800000D01*
X102522211Y-38057820D01*
X102582582Y-38309285D01*
X102681549Y-38548213D01*
X102753707Y-38665962D01*
X103305839Y-38113830D01*
X103352430Y-38226310D01*
X103450924Y-38373717D01*
X103576283Y-38499076D01*
X103723690Y-38597570D01*
X103836168Y-38644160D01*
X103284036Y-39196291D01*
X103284036Y-39196292D01*
X103401787Y-39268450D01*
X103401790Y-39268452D01*
X103638095Y-39366332D01*
X103692499Y-39410173D01*
X103714564Y-39476467D01*
X103697285Y-39544166D01*
X103646148Y-39591777D01*
X103577388Y-39604183D01*
X103574457Y-39603832D01*
X103226250Y-39557987D01*
X103215596Y-39556108D01*
X102860581Y-39477398D01*
X102850132Y-39474598D01*
X102503327Y-39365246D01*
X102493169Y-39361549D01*
X102157193Y-39222378D01*
X102147411Y-39217817D01*
X102131398Y-39209481D01*
X102011218Y-39146917D01*
X101824858Y-39049901D01*
X101815490Y-39044492D01*
X101508799Y-38849103D01*
X101499937Y-38842898D01*
X101211447Y-38621526D01*
X101203161Y-38614572D01*
X100932240Y-38366312D01*
X100928332Y-38362571D01*
X100872838Y-38307076D01*
X100872827Y-38307066D01*
X100776919Y-38211158D01*
X100776912Y-38211151D01*
X100542415Y-38010872D01*
X100445442Y-37928049D01*
X100445428Y-37928038D01*
X100092771Y-37671818D01*
X100092770Y-37671817D01*
X99953888Y-37586710D01*
X99721104Y-37444059D01*
X99721093Y-37444053D01*
X99721092Y-37444052D01*
X99721088Y-37444050D01*
X99332681Y-37246146D01*
X99203649Y-37192699D01*
X98929938Y-37079324D01*
X98634962Y-36983481D01*
X98515360Y-36944621D01*
X98515348Y-36944618D01*
X98091482Y-36842856D01*
X97660933Y-36774665D01*
X97226361Y-36740463D01*
X97226356Y-36740463D01*
X97070200Y-36740463D01*
X81537365Y-36740463D01*
X81537355Y-36740460D01*
X81486000Y-36740460D01*
X81269243Y-36740460D01*
X81269240Y-36740460D01*
X80836833Y-36771386D01*
X80407726Y-36833082D01*
X79984134Y-36925229D01*
X79984124Y-36925232D01*
X79568190Y-37047362D01*
X79568182Y-37047364D01*
X79568174Y-37047367D01*
X79568165Y-37047370D01*
X79568163Y-37047371D01*
X79161990Y-37198865D01*
X78767659Y-37378951D01*
X78387177Y-37586710D01*
X78022473Y-37821090D01*
X77675432Y-38080884D01*
X77347814Y-38364767D01*
X77347789Y-38364790D01*
X77241348Y-38471232D01*
X77024379Y-38688200D01*
X77024373Y-38688204D01*
X76972414Y-38740165D01*
X76968505Y-38743907D01*
X76704301Y-38986007D01*
X76696015Y-38992961D01*
X76413842Y-39209481D01*
X76404981Y-39215685D01*
X76105027Y-39406779D01*
X76095658Y-39412188D01*
X75780192Y-39576409D01*
X75770388Y-39580981D01*
X75522141Y-39683810D01*
X75452672Y-39691279D01*
X75390193Y-39660004D01*
X75354540Y-39599916D01*
X75357033Y-39530091D01*
X75378835Y-39490584D01*
X75435909Y-39421039D01*
X75435913Y-39421032D01*
X75437910Y-39417297D01*
X75494379Y-39311651D01*
X75528811Y-39247233D01*
X75528811Y-39247232D01*
X75528814Y-39247227D01*
X75586024Y-39058632D01*
X75605341Y-38862500D01*
X75586024Y-38666368D01*
X75528814Y-38477773D01*
X75528811Y-38477769D01*
X75528811Y-38477766D01*
X75435913Y-38303967D01*
X75435909Y-38303960D01*
X75310883Y-38151616D01*
X75158539Y-38026590D01*
X75158532Y-38026586D01*
X74984733Y-37933688D01*
X74984727Y-37933686D01*
X74796132Y-37876476D01*
X74796129Y-37876475D01*
X74600000Y-37857159D01*
X74403867Y-37876476D01*
X74296504Y-37909043D01*
X74274377Y-37913604D01*
X74271436Y-37913934D01*
X74271426Y-37913936D01*
X73533940Y-38105990D01*
X73509107Y-38109826D01*
X73504896Y-38110044D01*
X73498485Y-38110376D01*
X73492076Y-38110542D01*
X73440514Y-38110542D01*
X73430188Y-38112596D01*
X73412409Y-38114812D01*
X73341150Y-38118495D01*
X73290922Y-38121092D01*
X73290916Y-38121092D01*
X73290912Y-38121093D01*
X73290905Y-38121093D01*
X72923960Y-38170242D01*
X72562202Y-38249076D01*
X72562195Y-38249078D01*
X72208073Y-38357063D01*
X72208040Y-38357074D01*
X71863873Y-38493503D01*
X71863864Y-38493507D01*
X71531922Y-38657478D01*
X71214407Y-38847906D01*
X70913429Y-39063529D01*
X70630976Y-39302922D01*
X70556727Y-39377048D01*
X70555719Y-39377961D01*
X70500053Y-39433629D01*
X70499973Y-39433709D01*
X70439912Y-39493661D01*
X70438928Y-39494752D01*
X70092955Y-39840724D01*
X70090685Y-39842995D01*
X70090648Y-39843015D01*
X69901664Y-40031998D01*
X69901640Y-40032024D01*
X69618827Y-40358408D01*
X69360021Y-40704132D01*
X69360018Y-40704137D01*
X69126529Y-41067456D01*
X68919561Y-41446490D01*
X68760973Y-41793754D01*
X68740156Y-41839337D01*
X68687680Y-41980033D01*
X68589232Y-42243983D01*
X68589226Y-42244002D01*
X68467563Y-42658354D01*
X68467562Y-42658360D01*
X68375765Y-43080349D01*
X68314306Y-43507828D01*
X68283499Y-43938596D01*
X68283499Y-43938600D01*
X68283500Y-44080269D01*
X68283500Y-65500777D01*
X68279575Y-65531728D01*
X68088590Y-66272665D01*
X68084367Y-66290359D01*
X68084094Y-66292124D01*
X68080222Y-66309104D01*
X68051475Y-66403869D01*
X68032159Y-66600000D01*
X63500500Y-66600000D01*
X63500500Y-36000385D01*
X63501074Y-35988469D01*
X63526136Y-35728867D01*
X63528315Y-35714801D01*
X63580749Y-35470117D01*
X63588480Y-35434038D01*
X63592251Y-35420332D01*
X63684205Y-35148287D01*
X63689520Y-35135110D01*
X63812041Y-34875406D01*
X63818825Y-34862934D01*
X63970319Y-34618959D01*
X63978493Y-34607341D01*
X64156927Y-34382361D01*
X64166375Y-34371759D01*
X64369442Y-34168686D01*
X64380039Y-34159242D01*
X64605021Y-33980796D01*
X64616641Y-33972620D01*
X64860595Y-33821130D01*
X64873077Y-33814339D01*
X65132774Y-33691812D01*
X65145969Y-33686490D01*
X65417992Y-33594533D01*
X65431701Y-33590760D01*
X65712479Y-33530584D01*
X65726527Y-33528408D01*
X66015911Y-33500462D01*
X66022963Y-33499984D01*
X66070316Y-33498144D01*
X66075076Y-33498053D01*
X144809367Y-33500497D01*
G37*
%TD.AperFunction*%
%TD*%
%TA.AperFunction,Conductor*%
%TO.N,3V3_ADF*%
G36*
X93930595Y-56081895D02*
G01*
X93936919Y-56088233D01*
X93936908Y-56097188D01*
X93936232Y-56098556D01*
X93381191Y-57058085D01*
X93374082Y-57063531D01*
X93372373Y-57063853D01*
X93133518Y-57090765D01*
X93124913Y-57088286D01*
X93122026Y-57084903D01*
X92563598Y-56098509D01*
X92562505Y-56089621D01*
X92568016Y-56082563D01*
X92569279Y-56081945D01*
X93245400Y-55800872D01*
X93254352Y-55800862D01*
X93930595Y-56081895D01*
G37*
%TD.AperFunction*%
%TD*%
%TA.AperFunction,Conductor*%
%TO.N,Net-(U2-SW)*%
G36*
X122793554Y-55020123D02*
G01*
X123719330Y-55440998D01*
X123725443Y-55447542D01*
X123725304Y-55456110D01*
X123502562Y-55996207D01*
X123496240Y-56002548D01*
X123496207Y-56002562D01*
X122956110Y-56225304D01*
X122947155Y-56225290D01*
X122940998Y-56219330D01*
X122520123Y-55293555D01*
X122519820Y-55284608D01*
X122522500Y-55280444D01*
X122780443Y-55022501D01*
X122788715Y-55019075D01*
X122793554Y-55020123D01*
G37*
%TD.AperFunction*%
%TD*%
%TA.AperFunction,Conductor*%
%TO.N,/3V8*%
G36*
X74407686Y-38404353D02*
G01*
X74412566Y-38409947D01*
X74599127Y-38858003D01*
X74599144Y-38866957D01*
X74599127Y-38866997D01*
X74412548Y-39315096D01*
X74406204Y-39321417D01*
X74398852Y-39321935D01*
X73609211Y-39120290D01*
X73602043Y-39114923D01*
X73600406Y-39108954D01*
X73600406Y-38620085D01*
X73603833Y-38611812D01*
X73609157Y-38608763D01*
X74398818Y-38403122D01*
X74407686Y-38404353D01*
G37*
%TD.AperFunction*%
%TD*%
%TA.AperFunction,Conductor*%
%TO.N,GND*%
G36*
X116001000Y-53000000D02*
G01*
X115469670Y-53530330D01*
X114631555Y-52950000D01*
X114631555Y-52250000D01*
X116000000Y-52250000D01*
X116001000Y-53000000D01*
G37*
%TD.AperFunction*%
%TD*%
%TA.AperFunction,Conductor*%
%TO.N,Net-(U2-CP_{OUT})*%
G36*
X104548010Y-53887697D02*
G01*
X104550766Y-53889742D01*
X104808662Y-54147639D01*
X104812089Y-54155912D01*
X104810338Y-54162070D01*
X104309555Y-54971164D01*
X104302287Y-54976395D01*
X104295145Y-54975822D01*
X103753792Y-54752562D01*
X103747451Y-54746240D01*
X103747437Y-54746207D01*
X103525305Y-54207589D01*
X103525319Y-54198634D01*
X103531660Y-54192312D01*
X103532708Y-54191937D01*
X104539098Y-53886818D01*
X104548010Y-53887697D01*
G37*
%TD.AperFunction*%
%TD*%
%TA.AperFunction,Conductor*%
%TO.N,Net-(U2-SW)*%
G36*
X103976860Y-51759939D02*
G01*
X103977708Y-51760708D01*
X104238173Y-52021173D01*
X104241600Y-52029446D01*
X104241052Y-52032983D01*
X104054500Y-52621153D01*
X104048733Y-52628003D01*
X104039811Y-52628768D01*
X104038887Y-52628432D01*
X103502866Y-52407371D01*
X103496525Y-52401049D01*
X103495627Y-52396541D01*
X103496069Y-52021173D01*
X103496312Y-51814267D01*
X103499749Y-51806000D01*
X103506866Y-51802640D01*
X103968293Y-51757337D01*
X103976860Y-51759939D01*
G37*
%TD.AperFunction*%
%TD*%
%TA.AperFunction,Conductor*%
%TO.N,Net-(U2-CP_{OUT})*%
G36*
X119732846Y-54060617D02*
G01*
X120739341Y-54149063D01*
X120747283Y-54153201D01*
X120750017Y-54160699D01*
X120750991Y-54745135D01*
X120747578Y-54753413D01*
X120747554Y-54753437D01*
X120334838Y-55165182D01*
X120326561Y-55168599D01*
X120318292Y-55165162D01*
X120317551Y-55164347D01*
X119722801Y-54443742D01*
X119720125Y-54436294D01*
X119720125Y-54072273D01*
X119723552Y-54064000D01*
X119731825Y-54060573D01*
X119732846Y-54060617D01*
G37*
%TD.AperFunction*%
%TD*%
%TA.AperFunction,Conductor*%
%TO.N,3V3_ADF*%
G36*
X121961433Y-57811297D02*
G01*
X121967272Y-57817400D01*
X122249133Y-58495509D01*
X122249144Y-58504464D01*
X122249133Y-58504491D01*
X121967272Y-59182599D01*
X121960932Y-59188923D01*
X121952487Y-59189110D01*
X120757719Y-58756793D01*
X120751106Y-58750756D01*
X120750000Y-58745791D01*
X120750000Y-58254208D01*
X120753427Y-58245935D01*
X120757715Y-58243208D01*
X121952487Y-57810889D01*
X121961433Y-57811297D01*
G37*
%TD.AperFunction*%
%TD*%
%TA.AperFunction,Conductor*%
%TO.N,/3V8*%
G36*
X69290206Y-65603427D02*
G01*
X69293263Y-65608780D01*
X69496908Y-66398836D01*
X69495654Y-66407702D01*
X69490075Y-66412557D01*
X69041997Y-66599127D01*
X69033043Y-66599144D01*
X69033003Y-66599127D01*
X68584924Y-66412557D01*
X68578603Y-66406213D01*
X68578091Y-66398838D01*
X68781737Y-65608780D01*
X68787121Y-65601624D01*
X68793067Y-65600000D01*
X69281933Y-65600000D01*
X69290206Y-65603427D01*
G37*
%TD.AperFunction*%
%TD*%
%TA.AperFunction,Conductor*%
%TO.N,3V3_ADF*%
G36*
X93788569Y-55277074D02*
G01*
X94743881Y-56135601D01*
X94747743Y-56143680D01*
X94744762Y-56152124D01*
X94744333Y-56152576D01*
X94397079Y-56499830D01*
X94389286Y-56503247D01*
X93262168Y-56549500D01*
X93253761Y-56546415D01*
X93249998Y-56538290D01*
X93249988Y-56537847D01*
X93249297Y-55804152D01*
X93252715Y-55795879D01*
X93772487Y-55277491D01*
X93780764Y-55274076D01*
X93788569Y-55277074D01*
G37*
%TD.AperFunction*%
%TD*%
%TA.AperFunction,Conductor*%
%TO.N,GND*%
G36*
X102561940Y-55808658D02*
G01*
X102100000Y-56001000D01*
X101638060Y-55808658D01*
X101973000Y-55000000D01*
X102227000Y-55000000D01*
X102561940Y-55808658D01*
G37*
%TD.AperFunction*%
%TD*%
M02*
