%TF.GenerationSoftware,KiCad,Pcbnew,8.0.9-8.0.9-0~ubuntu22.04.1*%
%TF.CreationDate,2026-02-07T13:51:36+01:00*%
%TF.ProjectId,HW_0008_PrestoLO_rev01b,48575f30-3030-4385-9f50-726573746f4c,rev?*%
%TF.SameCoordinates,Original*%
%TF.FileFunction,Copper,L2,Inr*%
%TF.FilePolarity,Positive*%
%FSLAX46Y46*%
G04 Gerber Fmt 4.6, Leading zero omitted, Abs format (unit mm)*
G04 Created by KiCad (PCBNEW 8.0.9-8.0.9-0~ubuntu22.04.1) date 2026-02-07 13:51:36*
%MOMM*%
%LPD*%
G01*
G04 APERTURE LIST*
%TA.AperFunction,ComponentPad*%
%ADD10C,2.286000*%
%TD*%
%TA.AperFunction,HeatsinkPad*%
%ADD11C,0.600000*%
%TD*%
%TA.AperFunction,ComponentPad*%
%ADD12R,1.700000X1.700000*%
%TD*%
%TA.AperFunction,ComponentPad*%
%ADD13O,1.700000X1.700000*%
%TD*%
%TA.AperFunction,ComponentPad*%
%ADD14C,2.240000*%
%TD*%
%TA.AperFunction,ComponentPad*%
%ADD15C,2.740000*%
%TD*%
%TA.AperFunction,ViaPad*%
%ADD16C,1.800000*%
%TD*%
%TA.AperFunction,ViaPad*%
%ADD17C,1.000000*%
%TD*%
%TA.AperFunction,ViaPad*%
%ADD18C,1.500000*%
%TD*%
%TA.AperFunction,ViaPad*%
%ADD19C,0.800000*%
%TD*%
%TA.AperFunction,ViaPad*%
%ADD20C,0.600000*%
%TD*%
%TA.AperFunction,ViaPad*%
%ADD21C,5.000000*%
%TD*%
%TA.AperFunction,ViaPad*%
%ADD22C,0.700000*%
%TD*%
%TA.AperFunction,ViaPad*%
%ADD23C,1.200000*%
%TD*%
%TA.AperFunction,Conductor*%
%ADD24C,1.000000*%
%TD*%
%TA.AperFunction,Conductor*%
%ADD25C,0.520000*%
%TD*%
%TA.AperFunction,Conductor*%
%ADD26C,0.762000*%
%TD*%
%TA.AperFunction,Conductor*%
%ADD27C,0.254000*%
%TD*%
G04 APERTURE END LIST*
D10*
%TO.N,GND*%
%TO.C,J3*%
X104150000Y-37800000D03*
X121050000Y-85800000D03*
%TD*%
D11*
%TO.N,GND*%
%TO.C,U2*%
X106300000Y-51112500D03*
X106300000Y-54012500D03*
X107750000Y-51112500D03*
X107750000Y-54012500D03*
X109200000Y-51112500D03*
X109200000Y-54012500D03*
%TD*%
D12*
%TO.N,GND*%
%TO.C,J1*%
X72000000Y-43000000D03*
D13*
%TO.N,unconnected-(J1-Pin_2-Pad2)*%
X74540000Y-43000000D03*
%TO.N,GND*%
X72000000Y-45540000D03*
%TO.N,Fref_IN*%
X74540000Y-45540000D03*
%TO.N,Mute_RF*%
X72000000Y-48080000D03*
%TO.N,LD*%
X74540000Y-48080000D03*
%TO.N,DATA*%
X72000000Y-50620000D03*
%TO.N,CLK*%
X74540000Y-50620000D03*
%TO.N,CE*%
X72000000Y-53160000D03*
%TO.N,LE*%
X74540000Y-53160000D03*
%TO.N,unconnected-(J1-Pin_11-Pad11)*%
X72000000Y-55700000D03*
%TO.N,MUX*%
X74540000Y-55700000D03*
%TO.N,GND*%
X72000000Y-58240000D03*
X74540000Y-58240000D03*
%TO.N,LO_Buff_EN*%
X72000000Y-60780000D03*
%TO.N,~{RX_{EN}}*%
X74540000Y-60780000D03*
%TO.N,I2C_SCL*%
X72000000Y-63320000D03*
%TO.N,I2C_SDA*%
X74540000Y-63320000D03*
%TO.N,GND*%
X72000000Y-65860000D03*
X74540000Y-65860000D03*
%TD*%
D12*
%TO.N,Net-(J101-Pin_1)*%
%TO.C,J101*%
X142675000Y-58375000D03*
D13*
%TO.N,GND*%
X142675000Y-55835000D03*
X140135000Y-58375000D03*
%TO.N,Net-(J101-Pin_4)*%
X140135000Y-55835000D03*
%TD*%
D14*
%TO.N,Net-(J2-In)*%
%TO.C,J2*%
X96500000Y-75750000D03*
D15*
%TO.N,GND*%
X93960000Y-73210000D03*
X93960000Y-78290000D03*
X99040000Y-73210000D03*
X99040000Y-78290000D03*
%TD*%
D16*
%TO.N,/3V8*%
X85336136Y-85500000D03*
X137400000Y-85350000D03*
D17*
X69037500Y-66600000D03*
X74600000Y-38862500D03*
D16*
X137500000Y-83250000D03*
D17*
%TO.N,GND*%
X101000000Y-70000000D03*
X89800000Y-58250000D03*
X126100000Y-72000000D03*
D18*
X124414433Y-85800000D03*
D17*
X85000000Y-89000000D03*
X78000000Y-58600000D03*
X83500000Y-89000000D03*
D18*
X145700000Y-45100000D03*
D17*
X105050000Y-80950000D03*
X75400000Y-70600000D03*
D18*
X116891658Y-35600000D03*
D17*
X121000000Y-89000000D03*
D19*
X97800000Y-35400000D03*
D17*
X100500000Y-44062500D03*
D18*
X116365380Y-67800000D03*
D20*
X107500000Y-66300000D03*
D17*
X89500000Y-89000000D03*
D18*
X67000000Y-42382352D03*
D17*
X88250000Y-79500000D03*
D18*
X138241176Y-35600000D03*
D17*
X102400000Y-51500000D03*
D20*
X83750000Y-54500000D03*
D17*
X120169700Y-62230300D03*
X109000000Y-89000000D03*
X120800000Y-73500000D03*
X84700000Y-78500000D03*
D20*
X85750000Y-51750000D03*
D18*
X117797057Y-85900000D03*
D17*
X124250000Y-82350000D03*
D18*
X129304807Y-85800000D03*
X118576918Y-67800000D03*
X113400000Y-79200000D03*
D17*
X98800000Y-40200000D03*
D20*
X85500000Y-57000000D03*
D17*
X98700000Y-56000000D03*
X105050000Y-77550000D03*
X80500000Y-81500000D03*
D18*
X103125935Y-85900000D03*
D20*
X81203284Y-37994963D03*
D17*
X124500000Y-70750000D03*
D18*
X145700000Y-53400000D03*
D17*
X73000000Y-89000000D03*
D18*
X76650000Y-86500000D03*
X114323528Y-38000000D03*
D17*
X118750000Y-46000000D03*
X94000000Y-89000000D03*
X88250000Y-81250000D03*
X82000000Y-72900000D03*
D18*
X116764704Y-38000000D03*
D17*
X67125000Y-62900000D03*
D18*
X107000000Y-38000000D03*
D17*
X128550000Y-70200000D03*
X102000000Y-72750000D03*
D20*
X106000000Y-49000000D03*
D17*
X89750000Y-50500000D03*
D18*
X90500000Y-69356618D03*
D17*
X114600000Y-41300000D03*
X102000000Y-80550000D03*
D21*
X142500000Y-40000000D03*
D17*
X104300000Y-61000000D03*
X80600000Y-63500000D03*
X91900000Y-59000000D03*
X105600000Y-44200000D03*
X67200000Y-66700000D03*
D18*
X67000000Y-52147056D03*
D17*
X99250000Y-70000000D03*
X103700000Y-77200000D03*
X120100000Y-40500000D03*
X92400000Y-81500000D03*
X139000000Y-89000000D03*
D20*
X83600000Y-38200000D03*
D18*
X143300000Y-77600000D03*
D20*
X108250000Y-41250000D03*
D18*
X65000000Y-54764712D03*
X117250000Y-76550000D03*
D19*
X88248152Y-35400000D03*
D20*
X85750000Y-54500000D03*
D18*
X134500000Y-73544120D03*
X117350000Y-69250000D03*
X123919700Y-63230300D03*
X109727772Y-35600000D03*
X128882360Y-38000000D03*
D20*
X122300000Y-75700000D03*
X82000000Y-59750000D03*
D18*
X74400000Y-84500000D03*
D17*
X80500000Y-89000000D03*
D18*
X114503696Y-35600000D03*
D17*
X96400000Y-59400000D03*
D18*
X114153842Y-67800000D03*
D17*
X88000000Y-89000000D03*
D18*
X143400000Y-68600000D03*
X145700000Y-58282352D03*
D20*
X112900000Y-63900000D03*
D18*
X145600000Y-77600000D03*
X104900000Y-69900000D03*
D20*
X108627000Y-48500000D03*
D17*
X69000000Y-72800000D03*
D20*
X102000000Y-48500000D03*
D17*
X117950000Y-44100000D03*
X89750000Y-52750000D03*
X111500000Y-48800000D03*
X99400000Y-81500000D03*
D18*
X134400000Y-37900000D03*
X121667582Y-35600000D03*
D17*
X137500000Y-89000000D03*
X76000000Y-89000000D03*
D18*
X90500000Y-78952206D03*
X130750000Y-75058824D03*
X107339810Y-35600000D03*
D17*
X121750000Y-47500000D03*
X82500000Y-81500000D03*
X110300000Y-44900000D03*
X83900000Y-43900000D03*
X96500000Y-78300000D03*
D20*
X117900000Y-57300000D03*
D18*
X145700000Y-73200000D03*
X130750000Y-65000000D03*
D20*
X117750000Y-46250000D03*
D18*
X119279620Y-35600000D03*
D17*
X101600000Y-79000000D03*
D18*
X100884614Y-67500000D03*
D17*
X127000000Y-89000000D03*
D18*
X105571122Y-85900000D03*
X111882352Y-38000000D03*
D17*
X77400000Y-61200000D03*
D18*
X121647056Y-38000000D03*
X130750000Y-72441176D03*
D17*
X76500000Y-50500000D03*
D18*
X133607392Y-35600000D03*
D17*
X100800000Y-61000000D03*
X121400000Y-44100000D03*
X82000000Y-89000000D03*
X80500000Y-80200000D03*
X131050000Y-62100000D03*
D18*
X65000000Y-66970592D03*
X134500000Y-85750000D03*
D20*
X100500000Y-48500000D03*
D17*
X102000000Y-71050000D03*
D18*
X130750000Y-77500000D03*
D17*
X115500000Y-57500000D03*
X126800000Y-40300000D03*
X132300000Y-49600000D03*
D18*
X65000000Y-44882352D03*
D17*
X94750000Y-61500000D03*
D18*
X109441176Y-38000000D03*
D17*
X133000000Y-89000000D03*
X109800000Y-82600000D03*
D19*
X83472228Y-35400000D03*
D17*
X77887500Y-50500000D03*
X112000000Y-89000000D03*
X131000000Y-59850000D03*
D18*
X134500000Y-63779416D03*
X126441176Y-38000000D03*
X93345187Y-85900000D03*
X107600000Y-69250000D03*
D20*
X128300000Y-48400000D03*
X84800000Y-71800000D03*
D17*
X126000000Y-79650000D03*
D18*
X65000000Y-64529416D03*
D17*
X116500000Y-89000000D03*
D18*
X125516060Y-65320300D03*
D19*
X71532418Y-35400000D03*
D18*
X130750000Y-67441176D03*
D17*
X86500000Y-89000000D03*
X94150000Y-81500000D03*
D18*
X65000000Y-69411768D03*
D17*
X98500000Y-80400000D03*
X97000000Y-89000000D03*
X112100000Y-61700000D03*
X140500000Y-89000000D03*
X95750000Y-62500000D03*
X125169700Y-62230300D03*
D18*
X120788456Y-67800000D03*
D17*
X67225000Y-55800000D03*
X110400000Y-77300000D03*
X96200000Y-51519000D03*
X89900000Y-84300000D03*
X102600000Y-61000000D03*
D18*
X124500000Y-58000000D03*
D17*
X102000000Y-74150000D03*
D18*
X69000000Y-36426472D03*
X145700000Y-60723528D03*
D17*
X116200000Y-46200000D03*
X76500000Y-47750000D03*
X113500000Y-57500000D03*
X115600000Y-61700000D03*
D18*
X108016309Y-85900000D03*
D17*
X134500000Y-89000000D03*
X93800000Y-75800000D03*
D19*
X100187962Y-35400000D03*
D17*
X125500000Y-81200000D03*
D18*
X88300000Y-85900000D03*
D17*
X128250000Y-53000000D03*
X113500000Y-89000000D03*
X97500000Y-70000000D03*
D18*
X65000000Y-42441176D03*
D17*
X110500000Y-89000000D03*
X126500000Y-53000000D03*
D20*
X115500000Y-65200000D03*
D17*
X92250000Y-70000000D03*
D18*
X134500000Y-51455880D03*
D20*
X82250000Y-49000000D03*
D17*
X95500000Y-89000000D03*
D18*
X143400000Y-73200000D03*
D17*
X124800000Y-46500000D03*
X125500000Y-89000000D03*
D20*
X84000000Y-57000000D03*
D18*
X145700000Y-55841176D03*
D17*
X67200000Y-69900000D03*
D18*
X90500000Y-66957721D03*
X98235561Y-85900000D03*
X145700000Y-47800000D03*
X67000000Y-37500000D03*
D17*
X110500000Y-73750000D03*
X95750000Y-70000000D03*
D18*
X145700000Y-68600000D03*
X143200000Y-47800000D03*
D17*
X117400000Y-61700000D03*
D18*
X65000000Y-62088240D03*
X119450000Y-69250000D03*
D22*
X109200000Y-52600000D03*
D17*
X70000000Y-87000000D03*
D18*
X112115734Y-35600000D03*
X65000000Y-40000000D03*
D17*
X102000000Y-44062500D03*
X89500000Y-55800000D03*
X136000000Y-89000000D03*
X104050000Y-78500000D03*
X91000000Y-89000000D03*
X75400000Y-69000000D03*
D18*
X90900000Y-85900000D03*
D17*
X88250000Y-77750000D03*
X123000000Y-51500000D03*
D20*
X81000000Y-42200000D03*
X110800000Y-65100000D03*
D18*
X117200000Y-79150000D03*
D20*
X123550000Y-77750000D03*
D17*
X106000000Y-89000000D03*
D18*
X86400000Y-76293750D03*
D17*
X78000000Y-55600000D03*
D18*
X65000000Y-49764704D03*
X123000000Y-67500000D03*
D17*
X79000000Y-89000000D03*
D18*
X67000000Y-49705880D03*
X134500000Y-75985296D03*
D17*
X99600000Y-51400000D03*
D18*
X68600000Y-75800000D03*
X120400000Y-64600000D03*
X90500000Y-74154412D03*
D17*
X110400000Y-46600000D03*
D18*
X123000000Y-69250000D03*
X90500000Y-81351103D03*
D17*
X90000000Y-47750000D03*
D18*
X70900000Y-77400000D03*
X112906683Y-85900000D03*
D17*
X125000000Y-56250000D03*
D18*
X122500000Y-79100000D03*
D17*
X93800000Y-39200000D03*
D21*
X142500000Y-83000000D03*
D17*
X124000000Y-89000000D03*
D20*
X84900000Y-68300000D03*
D17*
X91400000Y-39200000D03*
X115750000Y-56250000D03*
X102700000Y-78100000D03*
D20*
X85750000Y-59750000D03*
D18*
X134500000Y-49014704D03*
D17*
X103000000Y-89000000D03*
D18*
X109730766Y-67800000D03*
D19*
X95412038Y-35400000D03*
D18*
X104400000Y-56200000D03*
D19*
X90636114Y-35400000D03*
D17*
X89912500Y-61200000D03*
D18*
X67000000Y-39941176D03*
D20*
X81000000Y-43200000D03*
D17*
X119500000Y-89000000D03*
X142000000Y-88100000D03*
X125750000Y-77950000D03*
D18*
X110461496Y-85900000D03*
D17*
X110300000Y-43100000D03*
X126500000Y-51500000D03*
D20*
X114500000Y-46250000D03*
D17*
X88250000Y-74500000D03*
D18*
X100680748Y-85900000D03*
X120800000Y-77600000D03*
D17*
X100000000Y-89000000D03*
X122500000Y-89000000D03*
D18*
X126859620Y-85800000D03*
D17*
X103500000Y-82500000D03*
X100800000Y-81500000D03*
D18*
X90500000Y-71755515D03*
X128831468Y-35600000D03*
D17*
X74500000Y-89000000D03*
D20*
X78200000Y-37600000D03*
D17*
X95000000Y-80500000D03*
D18*
X113450000Y-69400000D03*
D17*
X91500000Y-84300000D03*
X88250000Y-72750000D03*
D18*
X134500000Y-46573528D03*
X119205880Y-38000000D03*
D20*
X104141720Y-49027070D03*
D18*
X98673076Y-67500000D03*
X95790374Y-85900000D03*
D17*
X78000000Y-47800000D03*
D20*
X81750000Y-51750000D03*
D17*
X118000000Y-89000000D03*
X119700000Y-44100000D03*
D19*
X76308342Y-35400000D03*
D17*
X77000000Y-44300000D03*
D20*
X84000000Y-59750000D03*
D17*
X71500000Y-88000000D03*
X74000000Y-76000000D03*
D18*
X111000000Y-55500000D03*
X65000000Y-71852944D03*
D17*
X98500000Y-89000000D03*
X120500000Y-46000000D03*
X84500000Y-81800000D03*
D18*
X65000000Y-59647064D03*
X90500000Y-76553309D03*
X134500000Y-80867648D03*
D17*
X101500000Y-89000000D03*
X91250000Y-60500000D03*
D18*
X126443506Y-35600000D03*
D17*
X103000000Y-79500000D03*
X97400000Y-40200000D03*
D18*
X90500000Y-64558824D03*
D17*
X101800000Y-40700000D03*
D18*
X115351870Y-85900000D03*
X145600000Y-75600000D03*
X104951848Y-35600000D03*
D17*
X77500000Y-89000000D03*
X94750000Y-54750000D03*
D20*
X82000000Y-57000000D03*
D17*
X128700000Y-45000000D03*
X107800000Y-73500000D03*
D18*
X134500000Y-68661768D03*
D17*
X96500000Y-73100000D03*
D18*
X134500000Y-71102944D03*
D17*
X103750000Y-44062500D03*
X126200000Y-74050000D03*
D20*
X84800000Y-38000000D03*
D18*
X134500000Y-61338240D03*
X131750000Y-85800000D03*
X134500000Y-41691176D03*
D17*
X113800000Y-61700000D03*
D18*
X108050000Y-78300000D03*
X134500000Y-78426472D03*
D17*
X71000000Y-70500000D03*
X124900000Y-50100000D03*
D22*
X107700000Y-52600000D03*
D17*
X91500000Y-43900000D03*
X124700000Y-40300000D03*
X77250000Y-70750000D03*
D18*
X96461538Y-67500000D03*
D17*
X131500000Y-89000000D03*
D20*
X82250000Y-46250000D03*
D17*
X110400000Y-41300000D03*
X77250000Y-69000000D03*
D18*
X67000000Y-47264704D03*
D17*
X121750000Y-49000000D03*
D18*
X135800000Y-35600000D03*
D19*
X81084266Y-35400000D03*
D17*
X105700000Y-59600000D03*
D18*
X102563886Y-35600000D03*
D17*
X96700000Y-80500000D03*
X124750000Y-51500000D03*
D18*
X130750000Y-82441176D03*
D22*
X106400000Y-52600000D03*
D18*
X67000000Y-44823528D03*
D20*
X115700000Y-55300000D03*
D18*
X105307690Y-67800000D03*
D17*
X94000000Y-70000000D03*
X97200000Y-56000000D03*
D18*
X145700000Y-66000000D03*
X111942304Y-67800000D03*
X115350000Y-77850000D03*
X65000000Y-52205880D03*
D17*
X90300000Y-43900000D03*
X128500000Y-89000000D03*
D20*
X85750000Y-49000000D03*
D17*
X115000000Y-89000000D03*
D19*
X73920380Y-35400000D03*
D17*
X115300000Y-82600000D03*
D18*
X130750000Y-70000000D03*
X118300000Y-62800000D03*
X131219430Y-35600000D03*
X116000000Y-53000000D03*
X118750000Y-60250000D03*
D20*
X81750000Y-54500000D03*
D17*
X102350000Y-83750000D03*
D20*
X114500000Y-65200000D03*
D17*
X86300000Y-81800000D03*
X99100000Y-61000000D03*
D18*
X66600000Y-74000000D03*
D17*
X67125000Y-60600000D03*
X137000000Y-37900000D03*
X102100000Y-56000000D03*
D18*
X131250000Y-38000000D03*
D17*
X90600000Y-41500000D03*
D18*
X79198130Y-86500000D03*
D20*
X104700000Y-72250000D03*
D17*
X123350000Y-73450000D03*
D18*
X134500000Y-66220592D03*
X143300000Y-66000000D03*
D20*
X109900000Y-65100000D03*
D18*
X143300000Y-75600000D03*
D17*
X92500000Y-89000000D03*
D18*
X103096152Y-67500000D03*
X143500000Y-52700000D03*
X94250000Y-67500000D03*
D17*
X130000000Y-89000000D03*
X76500000Y-72500000D03*
D20*
X121500000Y-46250000D03*
X84000000Y-46250000D03*
D17*
X97650000Y-81500000D03*
X82900000Y-78600000D03*
D18*
X81650000Y-86500000D03*
D17*
X122700000Y-82700000D03*
X80500000Y-78700000D03*
X126950000Y-77100000D03*
D20*
X97750000Y-48500000D03*
X117000000Y-40500000D03*
X84000000Y-49000000D03*
D18*
X107519228Y-67800000D03*
D17*
X78600000Y-42400000D03*
D21*
X69500000Y-83000000D03*
D18*
X111600000Y-69400000D03*
D17*
X79000000Y-72500000D03*
D18*
X134500000Y-44132352D03*
X65000000Y-47323528D03*
X134500000Y-58897064D03*
D20*
X85750000Y-46250000D03*
D17*
X126250000Y-62250000D03*
X143500000Y-87000000D03*
X116300000Y-44100000D03*
D18*
X73600000Y-79400000D03*
X124055544Y-35600000D03*
D17*
X100400000Y-56000000D03*
X82050000Y-77300000D03*
D20*
X85800000Y-38000000D03*
D18*
X134500000Y-53897056D03*
D17*
X88250000Y-76250000D03*
X97600000Y-59900000D03*
D18*
X84000000Y-87500000D03*
D17*
X110300000Y-61600000D03*
X103600000Y-74200000D03*
D20*
X106000000Y-57600000D03*
D18*
X111550000Y-79200000D03*
D17*
X109250000Y-72450000D03*
D20*
X84000000Y-51750000D03*
D17*
X83800000Y-77300000D03*
D18*
X74400000Y-81900000D03*
D20*
X99250000Y-48500000D03*
D19*
X85860190Y-35400000D03*
D18*
X124000000Y-38000000D03*
D17*
X115400000Y-72500000D03*
D18*
X120750000Y-56500000D03*
X65000000Y-57205888D03*
D17*
X104500000Y-89000000D03*
X130800000Y-48100000D03*
D18*
X130750000Y-80000000D03*
D17*
X107500000Y-89000000D03*
D20*
X110900000Y-63300000D03*
X105500000Y-73050000D03*
D17*
X95900000Y-81500000D03*
X120950000Y-82700000D03*
D18*
X114700000Y-62800000D03*
D17*
X80500000Y-77200000D03*
D18*
X134500000Y-56338232D03*
X134500000Y-83308824D03*
D17*
X137500000Y-87200000D03*
D20*
X112000000Y-41250000D03*
D19*
X78696304Y-35400000D03*
D17*
X77987500Y-53200000D03*
D19*
X93024076Y-35400000D03*
D20*
%TO.N,Net-(U2-LD)*%
X110313137Y-49391962D03*
X88700000Y-43700000D03*
D19*
%TO.N,3V3_ADF*%
X88300000Y-62800000D03*
D18*
X93300000Y-54100000D03*
X93250000Y-55800000D03*
X86200000Y-72700000D03*
X86200000Y-74400000D03*
X122250000Y-58500000D03*
D20*
X103000000Y-72000000D03*
%TO.N,Net-(U2-MUXOUT)*%
X88500000Y-59800000D03*
X106048624Y-48201376D03*
%TO.N,Net-(U2-PDB_{RF})*%
X109500000Y-48700000D03*
X88500000Y-46500000D03*
%TO.N,Net-(U2-CE)*%
X95544902Y-50763453D03*
X88500000Y-57200000D03*
%TO.N,Net-(U2-LE)*%
X88500000Y-54750000D03*
X95685421Y-49900000D03*
%TO.N,Net-(U2-DATA)*%
X96338193Y-49300000D03*
X88500000Y-51700000D03*
%TO.N,Net-(U2-CLK)*%
X95945142Y-48603211D03*
X88500000Y-49200000D03*
D17*
%TO.N,Net-(U2-REF_{IN})*%
X105925000Y-45619000D03*
D20*
%TO.N,Net-(C36-Pad2)*%
X112200000Y-77300000D03*
X74000000Y-77500000D03*
%TO.N,Net-(U101-Vcc)*%
X120600000Y-76100000D03*
D23*
%TO.N,Net-(U2-CP_{OUT})*%
X120750000Y-54750000D03*
X103750000Y-54750000D03*
D20*
%TO.N,LO_Buff_EN*%
X116450000Y-41350000D03*
D23*
%TO.N,/5V6*%
X132000000Y-42000000D03*
X136950000Y-39350000D03*
%TO.N,Net-(U2-SW)*%
X103496325Y-52403675D03*
X123500000Y-56000000D03*
D20*
%TO.N,Net-(U7-A2)*%
X84900000Y-67100000D03*
%TO.N,Net-(U7-A1)*%
X84900000Y-69400000D03*
%TO.N,Net-(U7-A0)*%
X85100000Y-70600000D03*
%TO.N,Fref_IN*%
X101900000Y-41800000D03*
D17*
%TO.N,V_VCTCXO*%
X95800000Y-40200000D03*
%TO.N,Net-(U8-VDD)*%
X99131679Y-42531379D03*
%TO.N,VCTCXO_Out*%
X96000000Y-45600000D03*
D20*
%TO.N,3V3_VCTCXO*%
X87702297Y-38223000D03*
%TO.N,/3V3_LS*%
X110400000Y-74900000D03*
%TD*%
D24*
%TO.N,/3V8*%
X137400000Y-85350000D02*
X137400000Y-83000000D01*
D25*
X86575000Y-86475000D02*
X85300000Y-85200000D01*
X133302943Y-87750000D02*
X89653122Y-87750000D01*
X137400000Y-85350000D02*
X136200000Y-86550000D01*
X133302943Y-87750000D02*
G75*
G03*
X136199987Y-86549987I-43J4097100D01*
G01*
X89653122Y-87750000D02*
G75*
G02*
X86574993Y-86475007I-22J4353100D01*
G01*
D26*
%TO.N,3V3_ADF*%
X89614213Y-62900000D02*
X90262563Y-62900000D01*
X86200000Y-74400000D02*
X86200000Y-66314213D01*
D27*
X93300000Y-54100000D02*
X93275000Y-54125000D01*
D26*
X93250000Y-54185355D02*
X93250000Y-55800000D01*
X93250000Y-55800000D02*
X93250000Y-59912563D01*
D27*
X93250000Y-54185355D02*
G75*
G02*
X93275013Y-54125013I85400J-45D01*
G01*
D26*
X87200000Y-63900000D02*
G75*
G02*
X89614213Y-62900006I2414200J-2414200D01*
G01*
X92375000Y-62025000D02*
G75*
G02*
X90262563Y-62899955I-2112400J2112500D01*
G01*
X87200000Y-63900000D02*
G75*
G03*
X86200006Y-66314213I2414200J-2414200D01*
G01*
X92375000Y-62025000D02*
G75*
G03*
X93249955Y-59912563I-2112500J2112400D01*
G01*
D25*
%TO.N,/5V6*%
X133836827Y-40163172D02*
X132000000Y-42000000D01*
X136950000Y-39350000D02*
X135800000Y-39350000D01*
X133836827Y-40163172D02*
G75*
G02*
X135800000Y-39349986I1963173J-1963128D01*
G01*
%TD*%
%TA.AperFunction,Conductor*%
%TO.N,GND*%
G36*
X74139901Y-57932993D02*
G01*
X74074075Y-58047007D01*
X74040000Y-58174174D01*
X74040000Y-58305826D01*
X74074075Y-58432993D01*
X74139901Y-58547007D01*
X74207894Y-58615000D01*
X72332106Y-58615000D01*
X72400099Y-58547007D01*
X72465925Y-58432993D01*
X72500000Y-58305826D01*
X72500000Y-58174174D01*
X72465925Y-58047007D01*
X72400099Y-57932993D01*
X72332106Y-57865000D01*
X74207894Y-57865000D01*
X74139901Y-57932993D01*
G37*
%TD.AperFunction*%
%TA.AperFunction,Conductor*%
G36*
X144809367Y-33500497D02*
G01*
X144825049Y-33502242D01*
X144825070Y-33502019D01*
X144833155Y-33502752D01*
X144833164Y-33502754D01*
X144886388Y-33500600D01*
X144891391Y-33500500D01*
X144921994Y-33500500D01*
X144923893Y-33500517D01*
X145179333Y-33504892D01*
X145193532Y-33505955D01*
X145464376Y-33541973D01*
X145478380Y-33544662D01*
X145743299Y-33611545D01*
X145756885Y-33615820D01*
X146012372Y-33712681D01*
X146025384Y-33718491D01*
X146268054Y-33844048D01*
X146280323Y-33851320D01*
X146506957Y-34003903D01*
X146518306Y-34012531D01*
X146725936Y-34190145D01*
X146736214Y-34200016D01*
X146922068Y-34400290D01*
X146931143Y-34411272D01*
X147007462Y-34515291D01*
X147092773Y-34631567D01*
X147100535Y-34643533D01*
X147235795Y-34880923D01*
X147242131Y-34893701D01*
X147349234Y-35145048D01*
X147354061Y-35158469D01*
X147431591Y-35420445D01*
X147434846Y-35434331D01*
X147481784Y-35703494D01*
X147483422Y-35717663D01*
X147499295Y-35993132D01*
X147499500Y-36000265D01*
X147499500Y-86996249D01*
X147499274Y-87003736D01*
X147481728Y-87293794D01*
X147479923Y-87308659D01*
X147428219Y-87590798D01*
X147424635Y-87605336D01*
X147339306Y-87879167D01*
X147333997Y-87893168D01*
X147216275Y-88154736D01*
X147209316Y-88167995D01*
X147060928Y-88413459D01*
X147052422Y-88425782D01*
X146875526Y-88651573D01*
X146865596Y-88662781D01*
X146662781Y-88865596D01*
X146651573Y-88875526D01*
X146425782Y-89052422D01*
X146413459Y-89060928D01*
X146167995Y-89209316D01*
X146154736Y-89216275D01*
X145893168Y-89333997D01*
X145879167Y-89339306D01*
X145605336Y-89424635D01*
X145590798Y-89428219D01*
X145308659Y-89479923D01*
X145293794Y-89481728D01*
X145003736Y-89499274D01*
X144996249Y-89499500D01*
X66190733Y-89499500D01*
X66175055Y-89497757D01*
X66175035Y-89497980D01*
X66166941Y-89497246D01*
X66166935Y-89497246D01*
X66113704Y-89499399D01*
X66108695Y-89499500D01*
X66078287Y-89499500D01*
X66076164Y-89499482D01*
X66063077Y-89499257D01*
X65820498Y-89495103D01*
X65806275Y-89494039D01*
X65535166Y-89457984D01*
X65521160Y-89455294D01*
X65255984Y-89388346D01*
X65242378Y-89384065D01*
X64986641Y-89287108D01*
X64973618Y-89281293D01*
X64730717Y-89155616D01*
X64718446Y-89148343D01*
X64491571Y-88995594D01*
X64480218Y-88986962D01*
X64338342Y-88865596D01*
X64272386Y-88809174D01*
X64262102Y-88799297D01*
X64076066Y-88598823D01*
X64066982Y-88587828D01*
X63905197Y-88367318D01*
X63897435Y-88355352D01*
X63790685Y-88167995D01*
X63762037Y-88117715D01*
X63755706Y-88104947D01*
X63729893Y-88044368D01*
X63648493Y-87853332D01*
X63643670Y-87839922D01*
X63566055Y-87577650D01*
X63562806Y-87563782D01*
X63515825Y-87294341D01*
X63514188Y-87280175D01*
X63505088Y-87122215D01*
X63500705Y-87046121D01*
X63500500Y-87038990D01*
X63500500Y-85499993D01*
X83930836Y-85499993D01*
X83930836Y-85500006D01*
X83950000Y-85731297D01*
X83950002Y-85731308D01*
X84006978Y-85956300D01*
X84100211Y-86168848D01*
X84227152Y-86363147D01*
X84227155Y-86363151D01*
X84227157Y-86363153D01*
X84384352Y-86533913D01*
X84384355Y-86533915D01*
X84384358Y-86533918D01*
X84567501Y-86676464D01*
X84567507Y-86676468D01*
X84567510Y-86676470D01*
X84771633Y-86786936D01*
X84885623Y-86826068D01*
X84991151Y-86862297D01*
X84991153Y-86862297D01*
X84991155Y-86862298D01*
X85158304Y-86890190D01*
X85166263Y-86891787D01*
X86112340Y-87114141D01*
X86171649Y-87147170D01*
X86179307Y-87154828D01*
X86484855Y-87415792D01*
X86484862Y-87415797D01*
X86809950Y-87651987D01*
X87152567Y-87861942D01*
X87510601Y-88044368D01*
X87793568Y-88161576D01*
X87881849Y-88198143D01*
X88182995Y-88295990D01*
X88264007Y-88322313D01*
X88654736Y-88416117D01*
X88654740Y-88416117D01*
X88654750Y-88416120D01*
X89051606Y-88478973D01*
X89051619Y-88478975D01*
X89452211Y-88510501D01*
X89653126Y-88510500D01*
X133223014Y-88510500D01*
X133223019Y-88510501D01*
X133251568Y-88510500D01*
X133251630Y-88510518D01*
X133302951Y-88510517D01*
X133302951Y-88510518D01*
X133493805Y-88510516D01*
X133874335Y-88480564D01*
X134251343Y-88420849D01*
X134622503Y-88331738D01*
X134985528Y-88213782D01*
X135338179Y-88067707D01*
X135678282Y-87894414D01*
X136003741Y-87694971D01*
X136312548Y-87470608D01*
X136602801Y-87222709D01*
X136637294Y-87188215D01*
X136678241Y-87161039D01*
X137924033Y-86654150D01*
X137924032Y-86654148D01*
X137960054Y-86639492D01*
X137959992Y-86639377D01*
X137964503Y-86636936D01*
X138168626Y-86526470D01*
X138351784Y-86383913D01*
X138508979Y-86213153D01*
X138635924Y-86018849D01*
X138729157Y-85806300D01*
X138786134Y-85581305D01*
X138789376Y-85542179D01*
X138805300Y-85350006D01*
X138805300Y-85349993D01*
X138786135Y-85118702D01*
X138786131Y-85118682D01*
X138729159Y-84893708D01*
X138729157Y-84893700D01*
X138724108Y-84882191D01*
X138716759Y-84859917D01*
X138621522Y-84441725D01*
X138623672Y-84378502D01*
X138812558Y-83750031D01*
X138814277Y-83743664D01*
X138820427Y-83726199D01*
X138829157Y-83706300D01*
X138886134Y-83481305D01*
X138905300Y-83250000D01*
X138905300Y-83249993D01*
X138886135Y-83018702D01*
X138886133Y-83018691D01*
X138829157Y-82793699D01*
X138735924Y-82581151D01*
X138608983Y-82386852D01*
X138608980Y-82386849D01*
X138608979Y-82386847D01*
X138451784Y-82216087D01*
X138451779Y-82216083D01*
X138451777Y-82216081D01*
X138268634Y-82073535D01*
X138268628Y-82073531D01*
X138064504Y-81963064D01*
X138064495Y-81963061D01*
X137844984Y-81887702D01*
X137673282Y-81859050D01*
X137616049Y-81849500D01*
X137383951Y-81849500D01*
X137338164Y-81857140D01*
X137155015Y-81887702D01*
X136935504Y-81963061D01*
X136935495Y-81963064D01*
X136731371Y-82073531D01*
X136731365Y-82073535D01*
X136548222Y-82216081D01*
X136548219Y-82216084D01*
X136391016Y-82386852D01*
X136264075Y-82581151D01*
X136170842Y-82793699D01*
X136113866Y-83018691D01*
X136113864Y-83018702D01*
X136094700Y-83249993D01*
X136094700Y-83250006D01*
X136113865Y-83481301D01*
X136149960Y-83623838D01*
X136152029Y-83633670D01*
X136161277Y-83688541D01*
X136161278Y-83688542D01*
X136237462Y-84140598D01*
X136236090Y-84188739D01*
X136086899Y-84843841D01*
X136080927Y-84862852D01*
X135958943Y-85164023D01*
X135598842Y-86053073D01*
X135567186Y-86098399D01*
X135424143Y-86228047D01*
X135414736Y-86235767D01*
X135161528Y-86423561D01*
X135151410Y-86430322D01*
X134881003Y-86592398D01*
X134870271Y-86598134D01*
X134585294Y-86732920D01*
X134574052Y-86737577D01*
X134277232Y-86843783D01*
X134265587Y-86847316D01*
X133959773Y-86923921D01*
X133947838Y-86926295D01*
X133636003Y-86972553D01*
X133623894Y-86973746D01*
X133306333Y-86989351D01*
X133300247Y-86989500D01*
X122463736Y-86989500D01*
X122396697Y-86969815D01*
X122350942Y-86917011D01*
X122340998Y-86847853D01*
X122369446Y-86784969D01*
X122383318Y-86768726D01*
X122383326Y-86768714D01*
X122518450Y-86548213D01*
X122617417Y-86309285D01*
X122677788Y-86057820D01*
X122698079Y-85800000D01*
X122677788Y-85542179D01*
X122617417Y-85290714D01*
X122518450Y-85051786D01*
X122446291Y-84934036D01*
X121894159Y-85486167D01*
X121847570Y-85373690D01*
X121749076Y-85226283D01*
X121623717Y-85100924D01*
X121476310Y-85002430D01*
X121363830Y-84955839D01*
X121915962Y-84403707D01*
X121798213Y-84331549D01*
X121559285Y-84232582D01*
X121307820Y-84172211D01*
X121050000Y-84151920D01*
X120792179Y-84172211D01*
X120540714Y-84232582D01*
X120301786Y-84331549D01*
X120184036Y-84403707D01*
X120736169Y-84955839D01*
X120623690Y-85002430D01*
X120476283Y-85100924D01*
X120350924Y-85226283D01*
X120252430Y-85373690D01*
X120205839Y-85486168D01*
X119653707Y-84934036D01*
X119581549Y-85051786D01*
X119482582Y-85290714D01*
X119422211Y-85542179D01*
X119401920Y-85800000D01*
X119422211Y-86057820D01*
X119482582Y-86309285D01*
X119581549Y-86548213D01*
X119716673Y-86768714D01*
X119716681Y-86768726D01*
X119730554Y-86784969D01*
X119759125Y-86848730D01*
X119748688Y-86917816D01*
X119702557Y-86970292D01*
X119636264Y-86989500D01*
X89656169Y-86989500D01*
X89650085Y-86989351D01*
X89307060Y-86972500D01*
X89294950Y-86971307D01*
X88958257Y-86921365D01*
X88946322Y-86918991D01*
X88616147Y-86836288D01*
X88604502Y-86832756D01*
X88284011Y-86718083D01*
X88272769Y-86713426D01*
X87965072Y-86567898D01*
X87954339Y-86562161D01*
X87662386Y-86387171D01*
X87652269Y-86380411D01*
X87378873Y-86177648D01*
X87369466Y-86169928D01*
X87368276Y-86168849D01*
X87187582Y-86005077D01*
X87160830Y-85970388D01*
X87075544Y-85806300D01*
X86621103Y-84931965D01*
X86605465Y-84904072D01*
X86602820Y-84899354D01*
X86603199Y-84899141D01*
X86596867Y-84887705D01*
X86572060Y-84831151D01*
X86445119Y-84636852D01*
X86445116Y-84636849D01*
X86445115Y-84636847D01*
X86287920Y-84466087D01*
X86287915Y-84466083D01*
X86287913Y-84466081D01*
X86104770Y-84323535D01*
X86104764Y-84323531D01*
X85900640Y-84213064D01*
X85900631Y-84213061D01*
X85681120Y-84137702D01*
X85509418Y-84109050D01*
X85452185Y-84099500D01*
X85220087Y-84099500D01*
X85174300Y-84107140D01*
X84991151Y-84137702D01*
X84771640Y-84213061D01*
X84771631Y-84213064D01*
X84567507Y-84323531D01*
X84567501Y-84323535D01*
X84384358Y-84466081D01*
X84384355Y-84466084D01*
X84227152Y-84636852D01*
X84100211Y-84831151D01*
X84006978Y-85043699D01*
X83950002Y-85268691D01*
X83950000Y-85268702D01*
X83930836Y-85499993D01*
X63500500Y-85499993D01*
X63500500Y-77499996D01*
X73194435Y-77499996D01*
X73194435Y-77500003D01*
X73214630Y-77679249D01*
X73214631Y-77679254D01*
X73274211Y-77849523D01*
X73311177Y-77908353D01*
X73370184Y-78002262D01*
X73497738Y-78129816D01*
X73650478Y-78225789D01*
X73820745Y-78285368D01*
X73820750Y-78285369D01*
X73999996Y-78305565D01*
X74000000Y-78305565D01*
X74000004Y-78305565D01*
X74179249Y-78285369D01*
X74179252Y-78285368D01*
X74179255Y-78285368D01*
X74349522Y-78225789D01*
X74502262Y-78129816D01*
X74629816Y-78002262D01*
X74725789Y-77849522D01*
X74785368Y-77679255D01*
X74788718Y-77649522D01*
X74805565Y-77500003D01*
X74805565Y-77499996D01*
X74785369Y-77320750D01*
X74785368Y-77320745D01*
X74752338Y-77226350D01*
X74725789Y-77150478D01*
X74707106Y-77120745D01*
X74629815Y-76997737D01*
X74502262Y-76870184D01*
X74349523Y-76774211D01*
X74179254Y-76714631D01*
X74179249Y-76714630D01*
X74000004Y-76694435D01*
X73999996Y-76694435D01*
X73820750Y-76714630D01*
X73820745Y-76714631D01*
X73650476Y-76774211D01*
X73497737Y-76870184D01*
X73370184Y-76997737D01*
X73274211Y-77150476D01*
X73214631Y-77320745D01*
X73214630Y-77320750D01*
X73194435Y-77499996D01*
X63500500Y-77499996D01*
X63500500Y-66600000D01*
X68032159Y-66600000D01*
X68051475Y-66796129D01*
X68108688Y-66984733D01*
X68201586Y-67158532D01*
X68201590Y-67158539D01*
X68326616Y-67310883D01*
X68478960Y-67435909D01*
X68478967Y-67435913D01*
X68652766Y-67528811D01*
X68652769Y-67528811D01*
X68652773Y-67528814D01*
X68841368Y-67586024D01*
X69037500Y-67605341D01*
X69233632Y-67586024D01*
X69422227Y-67528814D01*
X69596038Y-67435910D01*
X69748383Y-67310883D01*
X69873410Y-67158538D01*
X69966314Y-66984727D01*
X70023524Y-66796132D01*
X70042841Y-66600000D01*
X70023524Y-66403868D01*
X69972298Y-66235000D01*
X70702858Y-66235000D01*
X70726566Y-66323483D01*
X70726570Y-66323492D01*
X70826399Y-66537578D01*
X70961894Y-66731082D01*
X71128917Y-66898105D01*
X71322421Y-67033600D01*
X71536507Y-67133429D01*
X71536516Y-67133433D01*
X71624999Y-67157142D01*
X72375000Y-67157142D01*
X72463483Y-67133433D01*
X72463492Y-67133429D01*
X72677578Y-67033600D01*
X72871082Y-66898105D01*
X73038105Y-66731082D01*
X73168425Y-66544968D01*
X73223002Y-66501344D01*
X73292501Y-66494151D01*
X73354855Y-66525673D01*
X73371575Y-66544968D01*
X73501894Y-66731082D01*
X73668917Y-66898105D01*
X73862421Y-67033600D01*
X74076507Y-67133429D01*
X74076516Y-67133433D01*
X74164999Y-67157142D01*
X74915000Y-67157142D01*
X75003483Y-67133433D01*
X75003492Y-67133429D01*
X75075190Y-67099996D01*
X84094435Y-67099996D01*
X84094435Y-67100003D01*
X84114630Y-67279249D01*
X84114631Y-67279254D01*
X84174211Y-67449523D01*
X84259981Y-67586024D01*
X84270184Y-67602262D01*
X84397738Y-67729816D01*
X84550478Y-67825789D01*
X84646456Y-67859373D01*
X84720745Y-67885368D01*
X84720750Y-67885369D01*
X84899996Y-67905565D01*
X84900000Y-67905565D01*
X84900004Y-67905565D01*
X85079249Y-67885369D01*
X85079252Y-67885368D01*
X85079255Y-67885368D01*
X85079256Y-67885367D01*
X85079259Y-67885367D01*
X85153544Y-67859373D01*
X85223323Y-67855810D01*
X85283951Y-67890539D01*
X85316178Y-67952532D01*
X85318500Y-67976414D01*
X85318500Y-68523585D01*
X85298815Y-68590624D01*
X85246011Y-68636379D01*
X85176853Y-68646323D01*
X85153546Y-68640627D01*
X85079257Y-68614632D01*
X85079249Y-68614630D01*
X84900004Y-68594435D01*
X84899996Y-68594435D01*
X84720750Y-68614630D01*
X84720745Y-68614631D01*
X84550476Y-68674211D01*
X84397737Y-68770184D01*
X84270184Y-68897737D01*
X84174211Y-69050476D01*
X84114631Y-69220745D01*
X84114630Y-69220750D01*
X84094435Y-69399996D01*
X84094435Y-69400003D01*
X84114630Y-69579249D01*
X84114631Y-69579254D01*
X84174211Y-69749523D01*
X84270184Y-69902262D01*
X84398514Y-70030592D01*
X84431999Y-70091915D01*
X84427015Y-70161607D01*
X84415827Y-70184244D01*
X84374212Y-70250474D01*
X84314631Y-70420745D01*
X84314630Y-70420750D01*
X84294435Y-70599996D01*
X84294435Y-70600003D01*
X84314630Y-70779249D01*
X84314631Y-70779254D01*
X84374211Y-70949523D01*
X84470184Y-71102262D01*
X84597738Y-71229816D01*
X84750478Y-71325789D01*
X84920745Y-71385368D01*
X84920750Y-71385369D01*
X85099996Y-71405565D01*
X85100000Y-71405565D01*
X85100003Y-71405565D01*
X85180616Y-71396482D01*
X85249438Y-71408536D01*
X85300818Y-71455885D01*
X85318500Y-71519702D01*
X85318500Y-71761662D01*
X85298815Y-71828701D01*
X85282181Y-71849343D01*
X85238402Y-71893121D01*
X85112900Y-72072357D01*
X85112898Y-72072361D01*
X85020426Y-72270668D01*
X85020422Y-72270677D01*
X84963793Y-72482020D01*
X84963793Y-72482024D01*
X84944723Y-72699997D01*
X84944723Y-72700002D01*
X84963793Y-72917975D01*
X84963793Y-72917979D01*
X85020422Y-73129322D01*
X85020424Y-73129326D01*
X85020425Y-73129330D01*
X85058041Y-73209998D01*
X85112898Y-73327639D01*
X85112900Y-73327643D01*
X85134434Y-73358396D01*
X85156761Y-73424602D01*
X85152952Y-73460400D01*
X85026217Y-73953259D01*
X85021861Y-73965432D01*
X85022276Y-73965583D01*
X85020425Y-73970668D01*
X84963793Y-74182020D01*
X84963793Y-74182023D01*
X84961866Y-74204047D01*
X84944723Y-74399997D01*
X84944723Y-74400002D01*
X84963793Y-74617975D01*
X84963793Y-74617979D01*
X85020422Y-74829322D01*
X85020424Y-74829326D01*
X85020425Y-74829330D01*
X85060539Y-74915354D01*
X85112897Y-75027638D01*
X85112898Y-75027639D01*
X85238402Y-75206877D01*
X85393123Y-75361598D01*
X85572361Y-75487102D01*
X85770670Y-75579575D01*
X85982023Y-75636207D01*
X86164926Y-75652208D01*
X86199998Y-75655277D01*
X86200000Y-75655277D01*
X86200002Y-75655277D01*
X86228254Y-75652805D01*
X86417977Y-75636207D01*
X86629330Y-75579575D01*
X86827639Y-75487102D01*
X87006877Y-75361598D01*
X87161598Y-75206877D01*
X87287102Y-75027639D01*
X87379575Y-74829330D01*
X87436207Y-74617977D01*
X87455277Y-74400000D01*
X87436207Y-74182023D01*
X87379575Y-73970670D01*
X87379573Y-73970665D01*
X87377720Y-73965573D01*
X87378143Y-73965418D01*
X87373779Y-73953255D01*
X87247046Y-73460399D01*
X87249415Y-73390571D01*
X87265565Y-73358396D01*
X87287102Y-73327639D01*
X87341959Y-73209998D01*
X92085223Y-73209998D01*
X92085223Y-73210001D01*
X92104306Y-73476810D01*
X92104307Y-73476817D01*
X92161163Y-73738181D01*
X92254643Y-73988812D01*
X92254645Y-73988816D01*
X92382833Y-74223575D01*
X92397072Y-74242596D01*
X93154107Y-73485561D01*
X93206740Y-73612626D01*
X93299762Y-73751844D01*
X93418156Y-73870238D01*
X93557374Y-73963260D01*
X93684437Y-74015891D01*
X92927401Y-74772926D01*
X92946423Y-74787166D01*
X93181183Y-74915354D01*
X93181187Y-74915356D01*
X93431818Y-75008836D01*
X93693182Y-75065692D01*
X93693189Y-75065693D01*
X93959999Y-75084777D01*
X93960001Y-75084777D01*
X94226810Y-75065693D01*
X94226817Y-75065692D01*
X94488181Y-75008836D01*
X94738812Y-74915356D01*
X94738816Y-74915354D01*
X94889912Y-74832849D01*
X94958184Y-74817997D01*
X95023649Y-74842413D01*
X95065521Y-74898347D01*
X95070505Y-74968038D01*
X95055071Y-75006463D01*
X95051659Y-75012030D01*
X95051656Y-75012036D01*
X94954049Y-75247681D01*
X94954044Y-75247698D01*
X94894502Y-75495710D01*
X94874489Y-75750000D01*
X94894502Y-76004289D01*
X94954044Y-76252301D01*
X94954049Y-76252318D01*
X95051656Y-76487963D01*
X95051658Y-76487966D01*
X95055068Y-76493531D01*
X95073310Y-76560977D01*
X95052193Y-76627579D01*
X94998420Y-76672191D01*
X94929064Y-76680649D01*
X94889912Y-76667150D01*
X94738816Y-76584645D01*
X94738812Y-76584643D01*
X94488181Y-76491163D01*
X94226817Y-76434307D01*
X94226810Y-76434306D01*
X93960001Y-76415223D01*
X93959999Y-76415223D01*
X93693189Y-76434306D01*
X93693182Y-76434307D01*
X93431818Y-76491163D01*
X93181187Y-76584643D01*
X93181183Y-76584645D01*
X92946418Y-76712837D01*
X92946415Y-76712839D01*
X92927402Y-76727071D01*
X92927401Y-76727072D01*
X93684437Y-77484108D01*
X93557374Y-77536740D01*
X93418156Y-77629762D01*
X93299762Y-77748156D01*
X93206740Y-77887374D01*
X93154108Y-78014437D01*
X92397072Y-77257401D01*
X92397071Y-77257402D01*
X92382839Y-77276415D01*
X92382837Y-77276418D01*
X92254645Y-77511183D01*
X92254643Y-77511187D01*
X92161163Y-77761818D01*
X92104307Y-78023182D01*
X92104306Y-78023189D01*
X92085223Y-78289998D01*
X92085223Y-78290001D01*
X92104306Y-78556810D01*
X92104307Y-78556817D01*
X92161163Y-78818181D01*
X92254643Y-79068812D01*
X92254645Y-79068816D01*
X92382833Y-79303575D01*
X92397072Y-79322596D01*
X93154107Y-78565561D01*
X93206740Y-78692626D01*
X93299762Y-78831844D01*
X93418156Y-78950238D01*
X93557374Y-79043260D01*
X93684437Y-79095891D01*
X92927401Y-79852926D01*
X92946423Y-79867166D01*
X93181183Y-79995354D01*
X93181187Y-79995356D01*
X93431818Y-80088836D01*
X93693182Y-80145692D01*
X93693189Y-80145693D01*
X93959999Y-80164777D01*
X93960001Y-80164777D01*
X94226810Y-80145693D01*
X94226817Y-80145692D01*
X94488181Y-80088836D01*
X94738812Y-79995356D01*
X94738816Y-79995354D01*
X94973582Y-79867162D01*
X94992597Y-79852927D01*
X94235561Y-79095891D01*
X94362626Y-79043260D01*
X94501844Y-78950238D01*
X94620238Y-78831844D01*
X94713260Y-78692626D01*
X94765891Y-78565561D01*
X95522927Y-79322597D01*
X95537162Y-79303582D01*
X95665354Y-79068816D01*
X95665356Y-79068812D01*
X95758836Y-78818181D01*
X95815692Y-78556817D01*
X95815693Y-78556810D01*
X95834777Y-78290001D01*
X95834777Y-78289998D01*
X95815693Y-78023189D01*
X95815692Y-78023182D01*
X95758836Y-77761818D01*
X95665356Y-77511187D01*
X95665354Y-77511183D01*
X95582849Y-77360087D01*
X95567997Y-77291814D01*
X95592414Y-77226350D01*
X95648347Y-77184478D01*
X95718039Y-77179494D01*
X95756471Y-77194933D01*
X95762033Y-77198341D01*
X95762036Y-77198343D01*
X95997681Y-77295950D01*
X95997683Y-77295950D01*
X95997689Y-77295953D01*
X96245714Y-77355498D01*
X96500000Y-77375511D01*
X96754286Y-77355498D01*
X97002311Y-77295953D01*
X97109459Y-77251571D01*
X97237963Y-77198343D01*
X97237964Y-77198341D01*
X97237967Y-77198341D01*
X97243523Y-77194935D01*
X97310968Y-77176688D01*
X97377571Y-77197801D01*
X97422187Y-77251571D01*
X97430651Y-77320926D01*
X97417150Y-77360087D01*
X97334645Y-77511183D01*
X97334643Y-77511187D01*
X97241163Y-77761818D01*
X97184307Y-78023182D01*
X97184306Y-78023189D01*
X97165223Y-78289998D01*
X97165223Y-78290001D01*
X97184306Y-78556810D01*
X97184307Y-78556817D01*
X97241163Y-78818181D01*
X97334643Y-79068812D01*
X97334645Y-79068816D01*
X97462833Y-79303575D01*
X97477072Y-79322596D01*
X98234107Y-78565561D01*
X98286740Y-78692626D01*
X98379762Y-78831844D01*
X98498156Y-78950238D01*
X98637374Y-79043260D01*
X98764437Y-79095891D01*
X98007401Y-79852926D01*
X98026423Y-79867166D01*
X98261183Y-79995354D01*
X98261187Y-79995356D01*
X98511818Y-80088836D01*
X98773182Y-80145692D01*
X98773189Y-80145693D01*
X99039999Y-80164777D01*
X99040001Y-80164777D01*
X99306810Y-80145693D01*
X99306817Y-80145692D01*
X99568181Y-80088836D01*
X99818812Y-79995356D01*
X99818816Y-79995354D01*
X100053582Y-79867162D01*
X100072597Y-79852927D01*
X99315561Y-79095891D01*
X99442626Y-79043260D01*
X99581844Y-78950238D01*
X99700238Y-78831844D01*
X99793260Y-78692626D01*
X99845891Y-78565561D01*
X100602927Y-79322597D01*
X100617162Y-79303582D01*
X100745354Y-79068816D01*
X100745356Y-79068812D01*
X100838836Y-78818181D01*
X100895692Y-78556817D01*
X100895693Y-78556810D01*
X100914777Y-78290001D01*
X100914777Y-78289998D01*
X100897611Y-78050000D01*
X107800000Y-78050000D01*
X107800000Y-83800000D01*
X122250000Y-83800000D01*
X122250000Y-78050000D01*
X112881440Y-78050000D01*
X112814401Y-78030315D01*
X112768646Y-77977511D01*
X112758702Y-77908353D01*
X112787727Y-77844797D01*
X112793759Y-77838319D01*
X112829816Y-77802262D01*
X112925789Y-77649522D01*
X112985368Y-77479255D01*
X112999312Y-77355497D01*
X113005565Y-77300003D01*
X113005565Y-77299996D01*
X112985369Y-77120750D01*
X112985368Y-77120745D01*
X112942326Y-76997738D01*
X112925789Y-76950478D01*
X112829816Y-76797738D01*
X112702262Y-76670184D01*
X112634457Y-76627579D01*
X112549523Y-76574211D01*
X112379254Y-76514631D01*
X112379249Y-76514630D01*
X112200004Y-76494435D01*
X112199996Y-76494435D01*
X112020750Y-76514630D01*
X112020745Y-76514631D01*
X111850476Y-76574211D01*
X111697737Y-76670184D01*
X111570184Y-76797737D01*
X111474211Y-76950476D01*
X111414631Y-77120745D01*
X111414630Y-77120750D01*
X111394435Y-77299996D01*
X111394435Y-77300003D01*
X111414630Y-77479249D01*
X111414631Y-77479254D01*
X111474211Y-77649523D01*
X111570184Y-77802262D01*
X111606241Y-77838319D01*
X111639726Y-77899642D01*
X111634742Y-77969334D01*
X111592870Y-78025267D01*
X111527406Y-78049684D01*
X111518560Y-78050000D01*
X107800000Y-78050000D01*
X100897611Y-78050000D01*
X100895693Y-78023189D01*
X100895692Y-78023182D01*
X100838836Y-77761818D01*
X100745356Y-77511187D01*
X100745354Y-77511183D01*
X100617166Y-77276424D01*
X100617166Y-77276423D01*
X100602926Y-77257401D01*
X99845891Y-78014436D01*
X99793260Y-77887374D01*
X99700238Y-77748156D01*
X99581844Y-77629762D01*
X99442626Y-77536740D01*
X99315561Y-77484107D01*
X100072596Y-76727072D01*
X100053575Y-76712833D01*
X99818816Y-76584645D01*
X99818812Y-76584643D01*
X99568181Y-76491163D01*
X99306817Y-76434307D01*
X99306810Y-76434306D01*
X99040001Y-76415223D01*
X99039999Y-76415223D01*
X98773189Y-76434306D01*
X98773182Y-76434307D01*
X98511818Y-76491163D01*
X98261187Y-76584643D01*
X98261183Y-76584645D01*
X98110087Y-76667150D01*
X98041814Y-76682002D01*
X97976349Y-76657585D01*
X97934478Y-76601651D01*
X97929494Y-76531960D01*
X97944936Y-76493523D01*
X97948343Y-76487963D01*
X98045950Y-76252318D01*
X98045949Y-76252318D01*
X98045953Y-76252311D01*
X98082520Y-76099996D01*
X119794435Y-76099996D01*
X119794435Y-76100003D01*
X119814630Y-76279249D01*
X119814631Y-76279254D01*
X119874211Y-76449523D01*
X119915122Y-76514632D01*
X119970184Y-76602262D01*
X120097738Y-76729816D01*
X120168392Y-76774211D01*
X120205833Y-76797737D01*
X120250478Y-76825789D01*
X120377352Y-76870184D01*
X120420745Y-76885368D01*
X120420750Y-76885369D01*
X120599996Y-76905565D01*
X120600000Y-76905565D01*
X120600004Y-76905565D01*
X120779249Y-76885369D01*
X120779252Y-76885368D01*
X120779255Y-76885368D01*
X120949522Y-76825789D01*
X121102262Y-76729816D01*
X121229816Y-76602262D01*
X121325789Y-76449522D01*
X121385368Y-76279255D01*
X121405565Y-76100000D01*
X121394781Y-76004289D01*
X121385369Y-75920750D01*
X121385368Y-75920745D01*
X121325788Y-75750476D01*
X121265970Y-75655277D01*
X121229816Y-75597738D01*
X121102262Y-75470184D01*
X120949523Y-75374211D01*
X120779254Y-75314631D01*
X120779249Y-75314630D01*
X120600004Y-75294435D01*
X120599996Y-75294435D01*
X120420750Y-75314630D01*
X120420745Y-75314631D01*
X120250476Y-75374211D01*
X120097737Y-75470184D01*
X119970184Y-75597737D01*
X119874211Y-75750476D01*
X119814631Y-75920745D01*
X119814630Y-75920750D01*
X119794435Y-76099996D01*
X98082520Y-76099996D01*
X98105498Y-76004286D01*
X98125511Y-75750000D01*
X98105498Y-75495714D01*
X98045953Y-75247689D01*
X97978473Y-75084777D01*
X97948343Y-75012036D01*
X97948341Y-75012033D01*
X97944933Y-75006471D01*
X97926688Y-74939025D01*
X97947804Y-74872423D01*
X98001576Y-74827809D01*
X98070932Y-74819349D01*
X98110087Y-74832849D01*
X98261183Y-74915354D01*
X98261187Y-74915356D01*
X98511818Y-75008836D01*
X98773182Y-75065692D01*
X98773189Y-75065693D01*
X99039999Y-75084777D01*
X99040001Y-75084777D01*
X99306810Y-75065693D01*
X99306817Y-75065692D01*
X99568181Y-75008836D01*
X99818812Y-74915356D01*
X99818816Y-74915354D01*
X99846942Y-74899996D01*
X109594435Y-74899996D01*
X109594435Y-74900003D01*
X109614630Y-75079249D01*
X109614631Y-75079254D01*
X109674211Y-75249523D01*
X109715122Y-75314632D01*
X109770184Y-75402262D01*
X109897738Y-75529816D01*
X109976926Y-75579573D01*
X110005833Y-75597737D01*
X110050478Y-75625789D01*
X110134750Y-75655277D01*
X110220745Y-75685368D01*
X110220750Y-75685369D01*
X110399996Y-75705565D01*
X110400000Y-75705565D01*
X110400004Y-75705565D01*
X110579249Y-75685369D01*
X110579252Y-75685368D01*
X110579255Y-75685368D01*
X110749522Y-75625789D01*
X110902262Y-75529816D01*
X111029816Y-75402262D01*
X111125789Y-75249522D01*
X111185368Y-75079255D01*
X111192942Y-75012033D01*
X111205565Y-74900003D01*
X111205565Y-74899996D01*
X111185369Y-74720750D01*
X111185368Y-74720745D01*
X111125789Y-74550478D01*
X111029816Y-74397738D01*
X110902262Y-74270184D01*
X110749523Y-74174211D01*
X110579254Y-74114631D01*
X110579249Y-74114630D01*
X110400004Y-74094435D01*
X110399996Y-74094435D01*
X110220750Y-74114630D01*
X110220745Y-74114631D01*
X110050476Y-74174211D01*
X109897737Y-74270184D01*
X109770184Y-74397737D01*
X109674211Y-74550476D01*
X109614631Y-74720745D01*
X109614630Y-74720750D01*
X109594435Y-74899996D01*
X99846942Y-74899996D01*
X100053582Y-74787162D01*
X100072597Y-74772927D01*
X99315561Y-74015891D01*
X99442626Y-73963260D01*
X99581844Y-73870238D01*
X99700238Y-73751844D01*
X99793260Y-73612626D01*
X99845891Y-73485561D01*
X100602927Y-74242597D01*
X100617162Y-74223582D01*
X100745354Y-73988816D01*
X100745356Y-73988812D01*
X100815779Y-73800000D01*
X107800000Y-73800000D01*
X122300000Y-73800000D01*
X122300000Y-68150001D01*
X122300000Y-68150000D01*
X122250172Y-68149826D01*
X107900000Y-68099999D01*
X107899999Y-68100000D01*
X107800000Y-73800000D01*
X100815779Y-73800000D01*
X100838836Y-73738181D01*
X100895692Y-73476817D01*
X100895693Y-73476810D01*
X100914777Y-73210001D01*
X100914777Y-73209998D01*
X100895693Y-72943189D01*
X100895692Y-72943182D01*
X100838836Y-72681818D01*
X100745356Y-72431187D01*
X100745354Y-72431183D01*
X100617166Y-72196424D01*
X100617166Y-72196423D01*
X100602926Y-72177401D01*
X99845891Y-72934436D01*
X99793260Y-72807374D01*
X99700238Y-72668156D01*
X99581844Y-72549762D01*
X99442626Y-72456740D01*
X99315562Y-72404108D01*
X99719673Y-71999996D01*
X102194435Y-71999996D01*
X102194435Y-72000003D01*
X102214630Y-72179249D01*
X102214631Y-72179254D01*
X102274211Y-72349523D01*
X102357465Y-72482020D01*
X102370184Y-72502262D01*
X102497738Y-72629816D01*
X102650478Y-72725789D01*
X102820745Y-72785368D01*
X102820750Y-72785369D01*
X102999996Y-72805565D01*
X103000000Y-72805565D01*
X103000004Y-72805565D01*
X103179249Y-72785369D01*
X103179252Y-72785368D01*
X103179255Y-72785368D01*
X103349522Y-72725789D01*
X103502262Y-72629816D01*
X103629816Y-72502262D01*
X103725789Y-72349522D01*
X103785368Y-72179255D01*
X103797412Y-72072361D01*
X103805565Y-72000003D01*
X103805565Y-71999996D01*
X103785369Y-71820750D01*
X103785368Y-71820745D01*
X103725788Y-71650476D01*
X103634156Y-71504645D01*
X103629816Y-71497738D01*
X103502262Y-71370184D01*
X103431608Y-71325789D01*
X103349523Y-71274211D01*
X103179254Y-71214631D01*
X103179249Y-71214630D01*
X103000004Y-71194435D01*
X102999996Y-71194435D01*
X102820750Y-71214630D01*
X102820745Y-71214631D01*
X102650476Y-71274211D01*
X102497737Y-71370184D01*
X102370184Y-71497737D01*
X102274211Y-71650476D01*
X102214631Y-71820745D01*
X102214630Y-71820750D01*
X102194435Y-71999996D01*
X99719673Y-71999996D01*
X100072597Y-71647072D01*
X100053575Y-71632833D01*
X99818816Y-71504645D01*
X99818812Y-71504643D01*
X99568181Y-71411163D01*
X99306817Y-71354307D01*
X99306810Y-71354306D01*
X99040001Y-71335223D01*
X99039999Y-71335223D01*
X98773189Y-71354306D01*
X98773182Y-71354307D01*
X98511818Y-71411163D01*
X98261187Y-71504643D01*
X98261183Y-71504645D01*
X98026418Y-71632837D01*
X98026415Y-71632839D01*
X98007402Y-71647071D01*
X98007401Y-71647072D01*
X98764437Y-72404108D01*
X98637374Y-72456740D01*
X98498156Y-72549762D01*
X98379762Y-72668156D01*
X98286740Y-72807374D01*
X98234108Y-72934437D01*
X97477072Y-72177401D01*
X97477071Y-72177402D01*
X97462839Y-72196415D01*
X97462837Y-72196418D01*
X97334645Y-72431183D01*
X97334643Y-72431187D01*
X97241163Y-72681818D01*
X97184307Y-72943182D01*
X97184306Y-72943189D01*
X97165223Y-73209998D01*
X97165223Y-73210001D01*
X97184306Y-73476810D01*
X97184307Y-73476817D01*
X97241163Y-73738181D01*
X97334643Y-73988812D01*
X97334645Y-73988816D01*
X97417150Y-74139912D01*
X97432002Y-74208185D01*
X97407585Y-74273649D01*
X97351652Y-74315521D01*
X97281960Y-74320505D01*
X97243531Y-74305068D01*
X97237966Y-74301658D01*
X97237963Y-74301656D01*
X97002318Y-74204049D01*
X97002301Y-74204044D01*
X96754289Y-74144502D01*
X96500000Y-74124489D01*
X96245710Y-74144502D01*
X95997698Y-74204044D01*
X95997681Y-74204049D01*
X95762036Y-74301656D01*
X95762030Y-74301659D01*
X95756463Y-74305071D01*
X95689016Y-74323310D01*
X95622415Y-74302190D01*
X95577806Y-74248414D01*
X95569351Y-74179058D01*
X95582849Y-74139912D01*
X95665354Y-73988816D01*
X95665356Y-73988812D01*
X95758836Y-73738181D01*
X95815692Y-73476817D01*
X95815693Y-73476810D01*
X95834777Y-73210001D01*
X95834777Y-73209998D01*
X95815693Y-72943189D01*
X95815692Y-72943182D01*
X95758836Y-72681818D01*
X95665356Y-72431187D01*
X95665354Y-72431183D01*
X95537166Y-72196424D01*
X95537166Y-72196423D01*
X95522926Y-72177401D01*
X94765891Y-72934437D01*
X94713260Y-72807374D01*
X94620238Y-72668156D01*
X94501844Y-72549762D01*
X94362626Y-72456740D01*
X94235562Y-72404108D01*
X94992597Y-71647072D01*
X94973575Y-71632833D01*
X94738816Y-71504645D01*
X94738812Y-71504643D01*
X94488181Y-71411163D01*
X94226817Y-71354307D01*
X94226810Y-71354306D01*
X93960001Y-71335223D01*
X93959999Y-71335223D01*
X93693189Y-71354306D01*
X93693182Y-71354307D01*
X93431818Y-71411163D01*
X93181187Y-71504643D01*
X93181183Y-71504645D01*
X92946418Y-71632837D01*
X92946415Y-71632839D01*
X92927402Y-71647071D01*
X92927401Y-71647072D01*
X93684437Y-72404108D01*
X93557374Y-72456740D01*
X93418156Y-72549762D01*
X93299762Y-72668156D01*
X93206740Y-72807374D01*
X93154108Y-72934437D01*
X92397072Y-72177401D01*
X92397071Y-72177402D01*
X92382839Y-72196415D01*
X92382837Y-72196418D01*
X92254645Y-72431183D01*
X92254643Y-72431187D01*
X92161163Y-72681818D01*
X92104307Y-72943182D01*
X92104306Y-72943189D01*
X92085223Y-73209998D01*
X87341959Y-73209998D01*
X87379575Y-73129330D01*
X87436207Y-72917977D01*
X87455277Y-72700000D01*
X87453498Y-72679670D01*
X87442133Y-72549762D01*
X87436207Y-72482023D01*
X87379575Y-72270670D01*
X87287102Y-72072362D01*
X87287100Y-72072359D01*
X87287099Y-72072357D01*
X87161597Y-71893121D01*
X87117819Y-71849343D01*
X87084334Y-71788020D01*
X87081500Y-71761662D01*
X87081500Y-66317689D01*
X87081695Y-66310737D01*
X87082824Y-66290624D01*
X87097034Y-66037579D01*
X87098588Y-66023780D01*
X87143834Y-65757482D01*
X87146923Y-65743947D01*
X87221699Y-65484390D01*
X87226291Y-65471270D01*
X87329647Y-65221744D01*
X87335680Y-65209215D01*
X87466331Y-64972820D01*
X87473729Y-64961046D01*
X87630031Y-64740758D01*
X87638687Y-64729904D01*
X87818638Y-64528538D01*
X87828465Y-64518713D01*
X88029900Y-64338699D01*
X88040762Y-64330035D01*
X88261054Y-64173730D01*
X88272817Y-64166339D01*
X88509229Y-64035680D01*
X88521735Y-64029657D01*
X88771273Y-63926297D01*
X88784393Y-63921705D01*
X89043954Y-63846927D01*
X89057485Y-63843839D01*
X89323781Y-63798594D01*
X89337575Y-63797040D01*
X89576635Y-63783616D01*
X89610846Y-63781695D01*
X89617798Y-63781500D01*
X90355035Y-63781500D01*
X90355925Y-63781456D01*
X90431472Y-63781457D01*
X90609028Y-63765925D01*
X90768008Y-63752019D01*
X90768012Y-63752018D01*
X90768026Y-63752017D01*
X91100734Y-63693357D01*
X91100738Y-63693356D01*
X91100746Y-63693354D01*
X91161148Y-63677170D01*
X91427064Y-63605923D01*
X91744531Y-63490380D01*
X92050720Y-63347609D01*
X92343301Y-63178695D01*
X92620048Y-62984924D01*
X92878853Y-62767771D01*
X92932291Y-62714334D01*
X92932344Y-62714287D01*
X92936936Y-62709694D01*
X92936940Y-62709692D01*
X92962385Y-62684245D01*
X92962524Y-62684169D01*
X92998360Y-62648330D01*
X92998361Y-62648331D01*
X93117804Y-62528883D01*
X93334960Y-62270075D01*
X93528733Y-61993326D01*
X93697649Y-61700741D01*
X93840422Y-61394548D01*
X93955966Y-61077077D01*
X94043401Y-60750744D01*
X94102062Y-60418032D01*
X94131502Y-60081474D01*
X94131500Y-59912552D01*
X94131500Y-59893368D01*
X94131500Y-58499997D01*
X120994723Y-58499997D01*
X120994723Y-58500002D01*
X121013793Y-58717975D01*
X121013793Y-58717979D01*
X121070422Y-58929322D01*
X121070424Y-58929326D01*
X121070425Y-58929330D01*
X121100784Y-58994435D01*
X121162897Y-59127638D01*
X121162898Y-59127639D01*
X121288402Y-59306877D01*
X121443123Y-59461598D01*
X121622361Y-59587102D01*
X121820670Y-59679575D01*
X122032023Y-59736207D01*
X122214926Y-59752208D01*
X122249998Y-59755277D01*
X122250000Y-59755277D01*
X122250002Y-59755277D01*
X122278254Y-59752805D01*
X122467977Y-59736207D01*
X122679330Y-59679575D01*
X122877639Y-59587102D01*
X123056877Y-59461598D01*
X123211598Y-59306877D01*
X123337102Y-59127639D01*
X123429575Y-58929330D01*
X123477626Y-58750000D01*
X138837858Y-58750000D01*
X138861566Y-58838483D01*
X138861570Y-58838492D01*
X138961399Y-59052578D01*
X139096894Y-59246082D01*
X139263917Y-59413105D01*
X139457421Y-59548600D01*
X139671507Y-59648429D01*
X139671516Y-59648433D01*
X139759999Y-59672142D01*
X139760000Y-59672141D01*
X139760000Y-58750000D01*
X138837858Y-58750000D01*
X123477626Y-58750000D01*
X123486207Y-58717977D01*
X123505277Y-58500000D01*
X123486207Y-58282023D01*
X123443865Y-58124000D01*
X123429577Y-58070677D01*
X123429576Y-58070676D01*
X123429575Y-58070670D01*
X123337102Y-57872362D01*
X123337100Y-57872359D01*
X123337099Y-57872357D01*
X123211599Y-57693124D01*
X123211596Y-57693121D01*
X123056877Y-57538402D01*
X122884236Y-57417517D01*
X122877638Y-57412897D01*
X122714639Y-57336890D01*
X122679330Y-57320425D01*
X122679326Y-57320424D01*
X122679322Y-57320422D01*
X122467977Y-57263793D01*
X122250002Y-57244723D01*
X122249998Y-57244723D01*
X122104682Y-57257436D01*
X122032023Y-57263793D01*
X122032020Y-57263793D01*
X121820677Y-57320422D01*
X121820668Y-57320426D01*
X121622361Y-57412898D01*
X121622357Y-57412900D01*
X121443121Y-57538402D01*
X121288402Y-57693121D01*
X121162900Y-57872357D01*
X121162898Y-57872361D01*
X121070426Y-58070668D01*
X121070422Y-58070677D01*
X121013793Y-58282020D01*
X121013793Y-58282024D01*
X120994723Y-58499997D01*
X94131500Y-58499997D01*
X94131500Y-57399081D01*
X94135407Y-57368200D01*
X94157400Y-57282671D01*
X94423780Y-56246740D01*
X94428146Y-56234582D01*
X94427720Y-56234427D01*
X94429573Y-56229334D01*
X94429572Y-56229334D01*
X94429575Y-56229330D01*
X94486207Y-56017977D01*
X94487780Y-55999999D01*
X122394785Y-55999999D01*
X122394785Y-56000000D01*
X122413602Y-56203082D01*
X122469417Y-56399247D01*
X122469422Y-56399260D01*
X122560327Y-56581821D01*
X122683237Y-56744581D01*
X122833958Y-56881980D01*
X122833960Y-56881982D01*
X122846033Y-56889457D01*
X123007363Y-56989348D01*
X123197544Y-57063024D01*
X123398024Y-57100500D01*
X123398026Y-57100500D01*
X123601974Y-57100500D01*
X123601976Y-57100500D01*
X123802456Y-57063024D01*
X123992637Y-56989348D01*
X124166041Y-56881981D01*
X124316764Y-56744579D01*
X124439673Y-56581821D01*
X124530582Y-56399250D01*
X124586397Y-56203083D01*
X124605215Y-56000000D01*
X124589926Y-55834999D01*
X138779341Y-55834999D01*
X138779341Y-55835000D01*
X138799936Y-56070403D01*
X138799938Y-56070413D01*
X138861094Y-56298655D01*
X138861096Y-56298659D01*
X138861097Y-56298663D01*
X138942957Y-56474211D01*
X138960965Y-56512830D01*
X138960967Y-56512834D01*
X139009273Y-56581821D01*
X139096501Y-56706396D01*
X139096506Y-56706402D01*
X139263597Y-56873493D01*
X139263603Y-56873498D01*
X139280671Y-56885449D01*
X139429048Y-56989344D01*
X139449594Y-57003730D01*
X139493219Y-57058307D01*
X139500413Y-57127805D01*
X139468890Y-57190160D01*
X139449595Y-57206880D01*
X139263922Y-57336890D01*
X139263920Y-57336891D01*
X139096891Y-57503920D01*
X139096886Y-57503926D01*
X138961400Y-57697420D01*
X138961399Y-57697422D01*
X138861570Y-57911507D01*
X138861566Y-57911516D01*
X138837857Y-57999999D01*
X138837858Y-58000000D01*
X139802894Y-58000000D01*
X139734901Y-58067993D01*
X139669075Y-58182007D01*
X139635000Y-58309174D01*
X139635000Y-58440826D01*
X139669075Y-58567993D01*
X139734901Y-58682007D01*
X139827993Y-58775099D01*
X139942007Y-58840925D01*
X140069174Y-58875000D01*
X140200826Y-58875000D01*
X140327993Y-58840925D01*
X140442007Y-58775099D01*
X140510000Y-58707106D01*
X140510000Y-59672142D01*
X140598483Y-59648433D01*
X140598492Y-59648429D01*
X140812578Y-59548600D01*
X141006078Y-59413108D01*
X141128133Y-59291053D01*
X141189456Y-59257568D01*
X141259148Y-59262552D01*
X141315082Y-59304423D01*
X141331997Y-59335401D01*
X141381202Y-59467328D01*
X141381206Y-59467335D01*
X141467452Y-59582544D01*
X141467455Y-59582547D01*
X141582664Y-59668793D01*
X141582671Y-59668797D01*
X141717517Y-59719091D01*
X141717516Y-59719091D01*
X141724444Y-59719835D01*
X141777127Y-59725500D01*
X143572872Y-59725499D01*
X143632483Y-59719091D01*
X143767331Y-59668796D01*
X143882546Y-59582546D01*
X143968796Y-59467331D01*
X144019091Y-59332483D01*
X144025500Y-59272873D01*
X144025499Y-57477128D01*
X144019091Y-57417517D01*
X144018002Y-57414598D01*
X143968797Y-57282671D01*
X143968793Y-57282664D01*
X143882547Y-57167455D01*
X143882544Y-57167452D01*
X143767335Y-57081206D01*
X143767328Y-57081202D01*
X143635401Y-57031997D01*
X143579467Y-56990126D01*
X143555050Y-56924662D01*
X143569902Y-56856389D01*
X143591053Y-56828133D01*
X143713108Y-56706078D01*
X143848600Y-56512578D01*
X143948429Y-56298492D01*
X143948433Y-56298483D01*
X143972142Y-56210000D01*
X143007106Y-56210000D01*
X143075099Y-56142007D01*
X143140925Y-56027993D01*
X143175000Y-55900826D01*
X143175000Y-55769174D01*
X143140925Y-55642007D01*
X143075099Y-55527993D01*
X143007106Y-55460000D01*
X143050000Y-55460000D01*
X143972142Y-55460000D01*
X143972142Y-55459999D01*
X143948433Y-55371516D01*
X143948429Y-55371507D01*
X143848600Y-55157422D01*
X143848599Y-55157420D01*
X143713113Y-54963926D01*
X143713108Y-54963920D01*
X143546082Y-54796894D01*
X143352578Y-54661399D01*
X143138490Y-54561568D01*
X143138487Y-54561567D01*
X143050000Y-54537856D01*
X143050000Y-55460000D01*
X143007106Y-55460000D01*
X142982007Y-55434901D01*
X142867993Y-55369075D01*
X142740826Y-55335000D01*
X142609174Y-55335000D01*
X142482007Y-55369075D01*
X142367993Y-55434901D01*
X142300000Y-55502894D01*
X142300000Y-54537857D01*
X142299999Y-54537856D01*
X142211512Y-54561567D01*
X142211509Y-54561568D01*
X141997422Y-54661399D01*
X141997420Y-54661400D01*
X141803926Y-54796886D01*
X141803920Y-54796891D01*
X141636891Y-54963920D01*
X141636890Y-54963922D01*
X141506880Y-55149595D01*
X141452303Y-55193219D01*
X141382804Y-55200412D01*
X141320450Y-55168890D01*
X141303730Y-55149594D01*
X141173494Y-54963597D01*
X141006402Y-54796506D01*
X141006395Y-54796501D01*
X140812834Y-54660967D01*
X140812830Y-54660965D01*
X140812828Y-54660964D01*
X140598663Y-54561097D01*
X140598659Y-54561096D01*
X140598655Y-54561094D01*
X140370413Y-54499938D01*
X140370403Y-54499936D01*
X140135001Y-54479341D01*
X140134999Y-54479341D01*
X139899596Y-54499936D01*
X139899586Y-54499938D01*
X139671344Y-54561094D01*
X139671335Y-54561098D01*
X139457171Y-54660964D01*
X139457169Y-54660965D01*
X139263597Y-54796505D01*
X139096505Y-54963597D01*
X138960965Y-55157169D01*
X138960964Y-55157171D01*
X138861098Y-55371335D01*
X138861094Y-55371344D01*
X138799938Y-55599586D01*
X138799936Y-55599596D01*
X138779341Y-55834999D01*
X124589926Y-55834999D01*
X124586397Y-55796917D01*
X124530582Y-55600750D01*
X124530007Y-55599596D01*
X124460497Y-55460000D01*
X124439673Y-55418179D01*
X124316764Y-55255421D01*
X124316762Y-55255418D01*
X124166041Y-55118019D01*
X124166039Y-55118017D01*
X123992642Y-55010655D01*
X123992635Y-55010651D01*
X123844033Y-54953083D01*
X123802456Y-54936976D01*
X123601976Y-54899500D01*
X123398024Y-54899500D01*
X123197544Y-54936976D01*
X123197541Y-54936976D01*
X123197541Y-54936977D01*
X123007364Y-55010651D01*
X123007357Y-55010655D01*
X122833960Y-55118017D01*
X122833958Y-55118019D01*
X122683237Y-55255418D01*
X122560327Y-55418178D01*
X122469422Y-55600739D01*
X122469417Y-55600752D01*
X122413602Y-55796917D01*
X122394785Y-55999999D01*
X94487780Y-55999999D01*
X94505277Y-55800000D01*
X94505007Y-55796917D01*
X94499970Y-55739344D01*
X94486207Y-55582023D01*
X94429575Y-55370670D01*
X94429573Y-55370665D01*
X94427720Y-55365573D01*
X94428143Y-55365418D01*
X94423779Y-55353255D01*
X94343140Y-55039653D01*
X94344489Y-54973054D01*
X94472489Y-54547565D01*
X94478851Y-54530883D01*
X94479034Y-54530488D01*
X94479575Y-54529330D01*
X94536207Y-54317977D01*
X94555277Y-54100000D01*
X94555055Y-54097468D01*
X94550232Y-54042337D01*
X94536207Y-53882023D01*
X94487146Y-53698924D01*
X94479577Y-53670677D01*
X94479576Y-53670676D01*
X94479575Y-53670670D01*
X94387102Y-53472362D01*
X94387100Y-53472359D01*
X94387099Y-53472357D01*
X94261599Y-53293124D01*
X94196097Y-53227622D01*
X94106877Y-53138402D01*
X93927639Y-53012898D01*
X93927640Y-53012898D01*
X93927638Y-53012897D01*
X93828484Y-52966661D01*
X93729330Y-52920425D01*
X93729326Y-52920424D01*
X93729322Y-52920422D01*
X93517977Y-52863793D01*
X93300002Y-52844723D01*
X93299998Y-52844723D01*
X93154682Y-52857436D01*
X93082023Y-52863793D01*
X93082020Y-52863793D01*
X92870677Y-52920422D01*
X92870668Y-52920426D01*
X92672361Y-53012898D01*
X92672357Y-53012900D01*
X92493121Y-53138402D01*
X92338402Y-53293121D01*
X92212900Y-53472357D01*
X92212898Y-53472361D01*
X92120426Y-53670668D01*
X92120422Y-53670677D01*
X92063793Y-53882020D01*
X92063793Y-53882024D01*
X92044723Y-54099997D01*
X92044723Y-54100002D01*
X92063793Y-54317975D01*
X92063793Y-54317979D01*
X92121299Y-54532593D01*
X92122686Y-54538308D01*
X92191198Y-54853007D01*
X92190129Y-54910266D01*
X92076217Y-55353259D01*
X92071861Y-55365432D01*
X92072276Y-55365583D01*
X92070425Y-55370668D01*
X92013793Y-55582020D01*
X92013793Y-55582023D01*
X92009422Y-55631980D01*
X91994993Y-55796917D01*
X91994723Y-55800000D01*
X92013793Y-56017977D01*
X92070425Y-56229330D01*
X92070426Y-56229332D01*
X92070428Y-56229339D01*
X92072277Y-56234421D01*
X92071862Y-56234571D01*
X92076216Y-56246738D01*
X92364593Y-57368201D01*
X92368500Y-57399082D01*
X92368500Y-59820620D01*
X92368499Y-59820646D01*
X92368499Y-59909096D01*
X92368304Y-59916047D01*
X92355651Y-60141417D01*
X92354094Y-60155235D01*
X92316871Y-60374330D01*
X92313777Y-60387887D01*
X92252257Y-60601441D01*
X92247665Y-60614565D01*
X92162623Y-60819886D01*
X92156590Y-60832415D01*
X92049091Y-61026929D01*
X92041693Y-61038703D01*
X91913094Y-61219954D01*
X91904425Y-61230826D01*
X91756614Y-61396233D01*
X91746784Y-61406063D01*
X91580797Y-61554390D01*
X91569926Y-61563059D01*
X91388679Y-61691655D01*
X91376905Y-61699053D01*
X91182399Y-61806548D01*
X91169871Y-61812581D01*
X90964549Y-61897624D01*
X90951424Y-61902216D01*
X90737878Y-61963734D01*
X90724321Y-61966828D01*
X90505230Y-62004049D01*
X90491412Y-62005606D01*
X90265248Y-62018304D01*
X90258297Y-62018499D01*
X90169641Y-62018499D01*
X90169621Y-62018500D01*
X89521330Y-62018500D01*
X89521208Y-62018506D01*
X89426657Y-62018506D01*
X89052977Y-62051197D01*
X89052973Y-62051197D01*
X88902352Y-62077756D01*
X88832913Y-62070012D01*
X88807934Y-62055957D01*
X88752735Y-62015852D01*
X88752729Y-62015848D01*
X88579807Y-61938857D01*
X88579802Y-61938855D01*
X88434001Y-61907865D01*
X88394646Y-61899500D01*
X88205354Y-61899500D01*
X88172897Y-61906398D01*
X88020197Y-61938855D01*
X88020192Y-61938857D01*
X87847270Y-62015848D01*
X87847265Y-62015851D01*
X87694129Y-62127111D01*
X87567466Y-62267785D01*
X87472821Y-62431715D01*
X87472818Y-62431722D01*
X87424110Y-62581631D01*
X87384672Y-62639307D01*
X87368180Y-62650699D01*
X87303940Y-62687788D01*
X87303928Y-62687796D01*
X86996656Y-62902949D01*
X86709310Y-63144062D01*
X86709298Y-63144073D01*
X86638080Y-63215291D01*
X86638079Y-63215290D01*
X86613008Y-63240362D01*
X86612988Y-63240372D01*
X86444062Y-63409299D01*
X86202943Y-63696654D01*
X85987801Y-64003909D01*
X85987785Y-64003935D01*
X85800238Y-64328776D01*
X85800230Y-64328791D01*
X85641704Y-64668752D01*
X85513409Y-65021243D01*
X85416330Y-65383558D01*
X85416326Y-65383574D01*
X85351192Y-65752972D01*
X85351192Y-65752976D01*
X85318500Y-66126656D01*
X85318500Y-66223585D01*
X85298815Y-66290624D01*
X85246011Y-66336379D01*
X85176853Y-66346323D01*
X85153546Y-66340627D01*
X85079257Y-66314632D01*
X85079249Y-66314630D01*
X84900004Y-66294435D01*
X84899996Y-66294435D01*
X84720750Y-66314630D01*
X84720745Y-66314631D01*
X84550476Y-66374211D01*
X84397737Y-66470184D01*
X84270184Y-66597737D01*
X84174211Y-66750476D01*
X84114631Y-66920745D01*
X84114630Y-66920750D01*
X84094435Y-67099996D01*
X75075190Y-67099996D01*
X75217578Y-67033600D01*
X75411082Y-66898105D01*
X75578105Y-66731082D01*
X75713600Y-66537578D01*
X75813429Y-66323492D01*
X75813433Y-66323483D01*
X75837142Y-66235000D01*
X74915000Y-66235000D01*
X74915000Y-67157142D01*
X74164999Y-67157142D01*
X74165000Y-67157141D01*
X74165000Y-66235000D01*
X72375000Y-66235000D01*
X72375000Y-67157142D01*
X71624999Y-67157142D01*
X71625000Y-67157141D01*
X71625000Y-66235000D01*
X70702858Y-66235000D01*
X69972298Y-66235000D01*
X69966314Y-66215273D01*
X69966311Y-66215269D01*
X69966311Y-66215266D01*
X69873413Y-66041467D01*
X69873409Y-66041460D01*
X69748383Y-65889116D01*
X69596039Y-65764090D01*
X69596032Y-65764086D01*
X69422233Y-65671188D01*
X69422227Y-65671186D01*
X69233632Y-65613976D01*
X69233629Y-65613975D01*
X69037500Y-65594659D01*
X68841370Y-65613975D01*
X68652766Y-65671188D01*
X68478967Y-65764086D01*
X68478960Y-65764090D01*
X68326616Y-65889116D01*
X68201590Y-66041460D01*
X68201586Y-66041467D01*
X68108688Y-66215266D01*
X68051475Y-66403870D01*
X68032159Y-66600000D01*
X63500500Y-66600000D01*
X63500500Y-48079999D01*
X70644341Y-48079999D01*
X70644341Y-48080000D01*
X70664936Y-48315403D01*
X70664938Y-48315413D01*
X70726094Y-48543655D01*
X70726096Y-48543659D01*
X70726097Y-48543663D01*
X70798998Y-48700000D01*
X70825965Y-48757830D01*
X70825967Y-48757834D01*
X70910987Y-48879254D01*
X70961501Y-48951396D01*
X70961506Y-48951402D01*
X71128597Y-49118493D01*
X71128603Y-49118498D01*
X71314158Y-49248425D01*
X71357783Y-49303002D01*
X71364977Y-49372500D01*
X71333454Y-49434855D01*
X71314158Y-49451575D01*
X71128597Y-49581505D01*
X70961505Y-49748597D01*
X70825965Y-49942169D01*
X70825964Y-49942171D01*
X70726098Y-50156335D01*
X70726094Y-50156344D01*
X70664938Y-50384586D01*
X70664936Y-50384596D01*
X70644341Y-50619999D01*
X70644341Y-50620000D01*
X70664936Y-50855403D01*
X70664938Y-50855413D01*
X70726094Y-51083655D01*
X70726096Y-51083659D01*
X70726097Y-51083663D01*
X70820703Y-51286546D01*
X70825965Y-51297830D01*
X70825967Y-51297834D01*
X70892791Y-51393268D01*
X70961501Y-51491396D01*
X70961506Y-51491402D01*
X71128597Y-51658493D01*
X71128603Y-51658498D01*
X71314158Y-51788425D01*
X71357783Y-51843002D01*
X71364977Y-51912500D01*
X71333454Y-51974855D01*
X71314158Y-51991575D01*
X71128597Y-52121505D01*
X70961505Y-52288597D01*
X70825965Y-52482169D01*
X70825964Y-52482171D01*
X70726098Y-52696335D01*
X70726094Y-52696344D01*
X70664938Y-52924586D01*
X70664936Y-52924596D01*
X70644341Y-53159999D01*
X70644341Y-53160000D01*
X70664936Y-53395403D01*
X70664938Y-53395413D01*
X70726094Y-53623655D01*
X70726096Y-53623659D01*
X70726097Y-53623663D01*
X70789976Y-53760651D01*
X70825965Y-53837830D01*
X70825967Y-53837834D01*
X70914751Y-53964630D01*
X70961501Y-54031396D01*
X70961506Y-54031402D01*
X71128597Y-54198493D01*
X71128603Y-54198498D01*
X71314158Y-54328425D01*
X71357783Y-54383002D01*
X71364977Y-54452500D01*
X71333454Y-54514855D01*
X71314158Y-54531575D01*
X71128597Y-54661505D01*
X70961505Y-54828597D01*
X70825965Y-55022169D01*
X70825964Y-55022171D01*
X70726098Y-55236335D01*
X70726094Y-55236344D01*
X70664938Y-55464586D01*
X70664936Y-55464596D01*
X70644341Y-55699999D01*
X70644341Y-55700000D01*
X70664936Y-55935403D01*
X70664938Y-55935413D01*
X70726094Y-56163655D01*
X70726096Y-56163659D01*
X70726097Y-56163663D01*
X70759652Y-56235621D01*
X70825965Y-56377830D01*
X70825967Y-56377834D01*
X70895251Y-56476781D01*
X70961501Y-56571396D01*
X70961506Y-56571402D01*
X71128597Y-56738493D01*
X71128603Y-56738498D01*
X71216403Y-56799976D01*
X71288524Y-56850476D01*
X71314594Y-56868730D01*
X71358219Y-56923307D01*
X71365413Y-56992805D01*
X71333890Y-57055160D01*
X71314595Y-57071880D01*
X71128922Y-57201890D01*
X71128920Y-57201891D01*
X70961891Y-57368920D01*
X70961886Y-57368926D01*
X70826400Y-57562420D01*
X70826399Y-57562422D01*
X70726570Y-57776507D01*
X70726566Y-57776516D01*
X70702857Y-57864999D01*
X70702858Y-57865000D01*
X71667894Y-57865000D01*
X71599901Y-57932993D01*
X71534075Y-58047007D01*
X71500000Y-58174174D01*
X71500000Y-58305826D01*
X71534075Y-58432993D01*
X71599901Y-58547007D01*
X71667894Y-58615000D01*
X70702858Y-58615000D01*
X70726566Y-58703483D01*
X70726570Y-58703492D01*
X70826399Y-58917578D01*
X70961894Y-59111082D01*
X71128917Y-59278105D01*
X71314595Y-59408119D01*
X71358219Y-59462696D01*
X71365412Y-59532195D01*
X71333890Y-59594549D01*
X71314595Y-59611269D01*
X71128594Y-59741508D01*
X70961505Y-59908597D01*
X70825965Y-60102169D01*
X70825964Y-60102171D01*
X70726098Y-60316335D01*
X70726094Y-60316344D01*
X70664938Y-60544586D01*
X70664936Y-60544596D01*
X70644341Y-60779999D01*
X70644341Y-60780000D01*
X70664936Y-61015403D01*
X70664938Y-61015413D01*
X70726094Y-61243655D01*
X70726096Y-61243659D01*
X70726097Y-61243663D01*
X70730000Y-61252032D01*
X70825965Y-61457830D01*
X70825967Y-61457834D01*
X70899647Y-61563059D01*
X70961501Y-61651396D01*
X70961506Y-61651402D01*
X71128597Y-61818493D01*
X71128603Y-61818498D01*
X71314158Y-61948425D01*
X71357783Y-62003002D01*
X71364977Y-62072500D01*
X71333454Y-62134855D01*
X71314158Y-62151575D01*
X71128597Y-62281505D01*
X70961505Y-62448597D01*
X70825965Y-62642169D01*
X70825964Y-62642171D01*
X70726098Y-62856335D01*
X70726094Y-62856344D01*
X70664938Y-63084586D01*
X70664936Y-63084596D01*
X70644341Y-63319999D01*
X70644341Y-63320000D01*
X70664936Y-63555403D01*
X70664938Y-63555413D01*
X70726094Y-63783655D01*
X70726096Y-63783659D01*
X70726097Y-63783663D01*
X70792609Y-63926297D01*
X70825965Y-63997830D01*
X70825967Y-63997834D01*
X70934281Y-64152521D01*
X70961501Y-64191396D01*
X70961506Y-64191402D01*
X71128597Y-64358493D01*
X71128603Y-64358498D01*
X71314594Y-64488730D01*
X71358219Y-64543307D01*
X71365413Y-64612805D01*
X71333890Y-64675160D01*
X71314595Y-64691880D01*
X71128922Y-64821890D01*
X71128920Y-64821891D01*
X70961891Y-64988920D01*
X70961886Y-64988926D01*
X70826400Y-65182420D01*
X70826399Y-65182422D01*
X70726570Y-65396507D01*
X70726566Y-65396516D01*
X70702857Y-65484999D01*
X70702858Y-65485000D01*
X71667894Y-65485000D01*
X71599901Y-65552993D01*
X71534075Y-65667007D01*
X71500000Y-65794174D01*
X71500000Y-65925826D01*
X71534075Y-66052993D01*
X71599901Y-66167007D01*
X71692993Y-66260099D01*
X71807007Y-66325925D01*
X71934174Y-66360000D01*
X72065826Y-66360000D01*
X72192993Y-66325925D01*
X72307007Y-66260099D01*
X72400099Y-66167007D01*
X72465925Y-66052993D01*
X72500000Y-65925826D01*
X72500000Y-65794174D01*
X72465925Y-65667007D01*
X72400099Y-65552993D01*
X72332106Y-65485000D01*
X74207894Y-65485000D01*
X74139901Y-65552993D01*
X74074075Y-65667007D01*
X74040000Y-65794174D01*
X74040000Y-65925826D01*
X74074075Y-66052993D01*
X74139901Y-66167007D01*
X74232993Y-66260099D01*
X74347007Y-66325925D01*
X74474174Y-66360000D01*
X74605826Y-66360000D01*
X74732993Y-66325925D01*
X74847007Y-66260099D01*
X74940099Y-66167007D01*
X75005925Y-66052993D01*
X75040000Y-65925826D01*
X75040000Y-65794174D01*
X75005925Y-65667007D01*
X74940099Y-65552993D01*
X74872106Y-65485000D01*
X75837142Y-65485000D01*
X75837142Y-65484999D01*
X75813433Y-65396516D01*
X75813429Y-65396507D01*
X75713600Y-65182422D01*
X75713599Y-65182420D01*
X75578113Y-64988926D01*
X75578108Y-64988920D01*
X75411078Y-64821890D01*
X75225405Y-64691879D01*
X75181780Y-64637302D01*
X75174588Y-64567804D01*
X75206110Y-64505449D01*
X75225406Y-64488730D01*
X75411401Y-64358495D01*
X75578495Y-64191401D01*
X75714035Y-63997830D01*
X75813903Y-63783663D01*
X75875063Y-63555408D01*
X75895659Y-63320000D01*
X75875063Y-63084592D01*
X75828626Y-62911285D01*
X75813905Y-62856344D01*
X75813904Y-62856343D01*
X75813903Y-62856337D01*
X75714035Y-62642171D01*
X75708425Y-62634158D01*
X75578494Y-62448597D01*
X75411402Y-62281506D01*
X75411396Y-62281501D01*
X75225842Y-62151575D01*
X75182217Y-62096998D01*
X75175023Y-62027500D01*
X75206546Y-61965145D01*
X75225842Y-61948425D01*
X75291835Y-61902216D01*
X75411401Y-61818495D01*
X75578495Y-61651401D01*
X75714035Y-61457830D01*
X75813903Y-61243663D01*
X75875063Y-61015408D01*
X75895659Y-60780000D01*
X75875063Y-60544592D01*
X75813903Y-60316337D01*
X75714035Y-60102171D01*
X75708425Y-60094158D01*
X75578494Y-59908597D01*
X75469892Y-59799996D01*
X87694435Y-59799996D01*
X87694435Y-59800003D01*
X87714630Y-59979249D01*
X87714631Y-59979254D01*
X87774211Y-60149523D01*
X87870184Y-60302262D01*
X87997738Y-60429816D01*
X88150478Y-60525789D01*
X88320745Y-60585368D01*
X88320750Y-60585369D01*
X88499996Y-60605565D01*
X88500000Y-60605565D01*
X88500004Y-60605565D01*
X88679249Y-60585369D01*
X88679252Y-60585368D01*
X88679255Y-60585368D01*
X88849522Y-60525789D01*
X89002262Y-60429816D01*
X89129816Y-60302262D01*
X89225789Y-60149522D01*
X89285368Y-59979255D01*
X89293329Y-59908599D01*
X89305565Y-59800003D01*
X89305565Y-59799996D01*
X89285369Y-59620750D01*
X89285368Y-59620745D01*
X89238636Y-59487193D01*
X89225789Y-59450478D01*
X89222307Y-59444937D01*
X89129815Y-59297737D01*
X89002262Y-59170184D01*
X88849523Y-59074211D01*
X88679254Y-59014631D01*
X88679249Y-59014630D01*
X88500004Y-58994435D01*
X88499996Y-58994435D01*
X88320750Y-59014630D01*
X88320745Y-59014631D01*
X88150476Y-59074211D01*
X87997737Y-59170184D01*
X87870184Y-59297737D01*
X87774211Y-59450476D01*
X87714631Y-59620745D01*
X87714630Y-59620750D01*
X87694435Y-59799996D01*
X75469892Y-59799996D01*
X75411402Y-59741506D01*
X75411401Y-59741505D01*
X75225405Y-59611269D01*
X75181781Y-59556692D01*
X75174588Y-59487193D01*
X75206110Y-59424839D01*
X75225405Y-59408119D01*
X75411082Y-59278105D01*
X75578105Y-59111082D01*
X75713600Y-58917578D01*
X75813429Y-58703492D01*
X75813433Y-58703483D01*
X75837142Y-58615000D01*
X74872106Y-58615000D01*
X74940099Y-58547007D01*
X75005925Y-58432993D01*
X75040000Y-58305826D01*
X75040000Y-58174174D01*
X75005925Y-58047007D01*
X74940099Y-57932993D01*
X74872106Y-57865000D01*
X75837142Y-57865000D01*
X75837142Y-57864999D01*
X75813433Y-57776516D01*
X75813429Y-57776507D01*
X75713600Y-57562422D01*
X75713599Y-57562420D01*
X75578113Y-57368926D01*
X75578108Y-57368920D01*
X75411078Y-57201890D01*
X75408373Y-57199996D01*
X87694435Y-57199996D01*
X87694435Y-57200003D01*
X87714630Y-57379249D01*
X87714631Y-57379254D01*
X87774211Y-57549523D01*
X87789796Y-57574326D01*
X87870184Y-57702262D01*
X87997738Y-57829816D01*
X88053733Y-57865000D01*
X88127762Y-57911516D01*
X88150478Y-57925789D01*
X88290832Y-57974901D01*
X88320745Y-57985368D01*
X88320750Y-57985369D01*
X88499996Y-58005565D01*
X88500000Y-58005565D01*
X88500004Y-58005565D01*
X88679249Y-57985369D01*
X88679252Y-57985368D01*
X88679255Y-57985368D01*
X88849522Y-57925789D01*
X89002262Y-57829816D01*
X89129816Y-57702262D01*
X89225789Y-57549522D01*
X89285368Y-57379255D01*
X89286532Y-57368926D01*
X89305565Y-57200003D01*
X89305565Y-57199996D01*
X89285369Y-57020750D01*
X89285368Y-57020745D01*
X89238026Y-56885449D01*
X89225789Y-56850478D01*
X89129816Y-56697738D01*
X89002262Y-56570184D01*
X88923041Y-56520406D01*
X88849523Y-56474211D01*
X88679254Y-56414631D01*
X88679249Y-56414630D01*
X88500004Y-56394435D01*
X88499996Y-56394435D01*
X88320750Y-56414630D01*
X88320745Y-56414631D01*
X88150476Y-56474211D01*
X87997737Y-56570184D01*
X87870184Y-56697737D01*
X87774211Y-56850476D01*
X87714631Y-57020745D01*
X87714630Y-57020750D01*
X87694435Y-57199996D01*
X75408373Y-57199996D01*
X75225405Y-57071879D01*
X75181780Y-57017302D01*
X75174588Y-56947804D01*
X75206110Y-56885449D01*
X75225406Y-56868730D01*
X75243031Y-56856389D01*
X75411401Y-56738495D01*
X75578495Y-56571401D01*
X75714035Y-56377830D01*
X75813903Y-56163663D01*
X75875063Y-55935408D01*
X75895659Y-55700000D01*
X75875063Y-55464592D01*
X75828626Y-55291285D01*
X75813905Y-55236344D01*
X75813904Y-55236343D01*
X75813903Y-55236337D01*
X75714035Y-55022171D01*
X75708425Y-55014158D01*
X75578494Y-54828597D01*
X75499893Y-54749996D01*
X87694435Y-54749996D01*
X87694435Y-54750003D01*
X87714630Y-54929249D01*
X87714631Y-54929254D01*
X87774211Y-55099523D01*
X87810592Y-55157422D01*
X87870184Y-55252262D01*
X87997738Y-55379816D01*
X88058791Y-55418178D01*
X88132648Y-55464586D01*
X88150478Y-55475789D01*
X88320745Y-55535368D01*
X88320750Y-55535369D01*
X88499996Y-55555565D01*
X88500000Y-55555565D01*
X88500004Y-55555565D01*
X88679249Y-55535369D01*
X88679252Y-55535368D01*
X88679255Y-55535368D01*
X88849522Y-55475789D01*
X89002262Y-55379816D01*
X89129816Y-55252262D01*
X89225789Y-55099522D01*
X89285368Y-54929255D01*
X89296709Y-54828599D01*
X89305565Y-54750003D01*
X89305565Y-54749996D01*
X89285369Y-54570750D01*
X89285368Y-54570745D01*
X89277030Y-54546917D01*
X89225789Y-54400478D01*
X89129816Y-54247738D01*
X89002262Y-54120184D01*
X88970143Y-54100002D01*
X88849523Y-54024211D01*
X88679254Y-53964631D01*
X88679249Y-53964630D01*
X88500004Y-53944435D01*
X88499996Y-53944435D01*
X88320750Y-53964630D01*
X88320745Y-53964631D01*
X88150476Y-54024211D01*
X87997737Y-54120184D01*
X87870184Y-54247737D01*
X87774211Y-54400476D01*
X87714631Y-54570745D01*
X87714630Y-54570750D01*
X87694435Y-54749996D01*
X75499893Y-54749996D01*
X75411402Y-54661506D01*
X75411396Y-54661501D01*
X75225842Y-54531575D01*
X75182217Y-54476998D01*
X75175023Y-54407500D01*
X75206546Y-54345145D01*
X75225842Y-54328425D01*
X75248026Y-54312891D01*
X75411401Y-54198495D01*
X75578495Y-54031401D01*
X75714035Y-53837830D01*
X75813903Y-53623663D01*
X75875063Y-53395408D01*
X75895659Y-53160000D01*
X75893769Y-53138403D01*
X75882789Y-53012897D01*
X75875063Y-52924592D01*
X75813903Y-52696337D01*
X75714035Y-52482171D01*
X75708425Y-52474158D01*
X75578494Y-52288597D01*
X75411402Y-52121506D01*
X75411396Y-52121501D01*
X75225842Y-51991575D01*
X75182217Y-51936998D01*
X75175023Y-51867500D01*
X75206546Y-51805145D01*
X75225842Y-51788425D01*
X75352121Y-51700003D01*
X75352131Y-51699996D01*
X87694435Y-51699996D01*
X87694435Y-51700003D01*
X87714630Y-51879249D01*
X87714631Y-51879254D01*
X87774211Y-52049523D01*
X87869135Y-52200592D01*
X87870184Y-52202262D01*
X87997738Y-52329816D01*
X88150478Y-52425789D01*
X88320745Y-52485368D01*
X88320750Y-52485369D01*
X88499996Y-52505565D01*
X88500000Y-52505565D01*
X88500004Y-52505565D01*
X88679249Y-52485369D01*
X88679252Y-52485368D01*
X88679255Y-52485368D01*
X88849522Y-52425789D01*
X88884718Y-52403674D01*
X102391110Y-52403674D01*
X102391110Y-52403675D01*
X102409927Y-52606757D01*
X102465742Y-52802922D01*
X102465747Y-52802935D01*
X102556652Y-52985496D01*
X102679562Y-53148256D01*
X102830283Y-53285655D01*
X102830285Y-53285657D01*
X102842345Y-53293124D01*
X103003688Y-53393023D01*
X103193869Y-53466699D01*
X103320120Y-53490299D01*
X103382399Y-53521966D01*
X103417672Y-53582278D01*
X103414738Y-53652086D01*
X103374530Y-53709227D01*
X103342128Y-53727813D01*
X103257370Y-53760648D01*
X103257357Y-53760655D01*
X103083960Y-53868017D01*
X103083958Y-53868019D01*
X102933237Y-54005418D01*
X102810327Y-54168178D01*
X102719422Y-54350739D01*
X102719417Y-54350752D01*
X102663602Y-54546917D01*
X102644785Y-54749999D01*
X102644785Y-54750000D01*
X102663602Y-54953082D01*
X102719417Y-55149247D01*
X102719422Y-55149260D01*
X102810327Y-55331821D01*
X102933237Y-55494581D01*
X103083958Y-55631980D01*
X103083960Y-55631982D01*
X103183141Y-55693392D01*
X103257363Y-55739348D01*
X103447544Y-55813024D01*
X103648024Y-55850500D01*
X103648026Y-55850500D01*
X103851974Y-55850500D01*
X103851976Y-55850500D01*
X104052456Y-55813024D01*
X104242637Y-55739348D01*
X104416041Y-55631981D01*
X104566764Y-55494579D01*
X104689673Y-55331821D01*
X104780582Y-55149250D01*
X104836397Y-54953083D01*
X104855184Y-54750337D01*
X105986424Y-54750337D01*
X106120858Y-54797377D01*
X106120861Y-54797378D01*
X106299997Y-54817562D01*
X106300003Y-54817562D01*
X106479138Y-54797378D01*
X106479141Y-54797377D01*
X106613574Y-54750337D01*
X107436424Y-54750337D01*
X107570858Y-54797377D01*
X107570861Y-54797378D01*
X107749997Y-54817562D01*
X107750003Y-54817562D01*
X107929138Y-54797378D01*
X107929141Y-54797377D01*
X108063573Y-54750337D01*
X108886424Y-54750337D01*
X109020858Y-54797377D01*
X109020861Y-54797378D01*
X109199997Y-54817562D01*
X109200003Y-54817562D01*
X109379138Y-54797378D01*
X109379141Y-54797377D01*
X109513573Y-54750337D01*
X109513235Y-54749999D01*
X119644785Y-54749999D01*
X119644785Y-54750000D01*
X119663602Y-54953082D01*
X119719417Y-55149247D01*
X119719422Y-55149260D01*
X119810327Y-55331821D01*
X119933237Y-55494581D01*
X120083958Y-55631980D01*
X120083960Y-55631982D01*
X120183141Y-55693392D01*
X120257363Y-55739348D01*
X120447544Y-55813024D01*
X120648024Y-55850500D01*
X120648026Y-55850500D01*
X120851974Y-55850500D01*
X120851976Y-55850500D01*
X121052456Y-55813024D01*
X121242637Y-55739348D01*
X121416041Y-55631981D01*
X121566764Y-55494579D01*
X121689673Y-55331821D01*
X121780582Y-55149250D01*
X121836397Y-54953083D01*
X121855215Y-54750000D01*
X121836397Y-54546917D01*
X121780582Y-54350750D01*
X121777791Y-54345145D01*
X121701356Y-54191642D01*
X121689673Y-54168179D01*
X121586383Y-54031401D01*
X121566762Y-54005418D01*
X121416041Y-53868019D01*
X121416039Y-53868017D01*
X121242642Y-53760655D01*
X121242635Y-53760651D01*
X121147546Y-53723814D01*
X121052456Y-53686976D01*
X120851976Y-53649500D01*
X120648024Y-53649500D01*
X120447544Y-53686976D01*
X120447541Y-53686976D01*
X120447541Y-53686977D01*
X120257364Y-53760651D01*
X120257357Y-53760655D01*
X120083960Y-53868017D01*
X120083958Y-53868019D01*
X119933237Y-54005418D01*
X119810327Y-54168178D01*
X119719422Y-54350739D01*
X119719417Y-54350752D01*
X119663602Y-54546917D01*
X119644785Y-54749999D01*
X109513235Y-54749999D01*
X109200001Y-54436764D01*
X109200000Y-54436764D01*
X108886424Y-54750337D01*
X108063573Y-54750337D01*
X107750001Y-54436764D01*
X107750000Y-54436764D01*
X107436424Y-54750337D01*
X106613574Y-54750337D01*
X106300001Y-54436764D01*
X106300000Y-54436764D01*
X105986424Y-54750337D01*
X104855184Y-54750337D01*
X104855215Y-54750000D01*
X104836397Y-54546917D01*
X104780582Y-54350750D01*
X104777791Y-54345145D01*
X104701356Y-54191642D01*
X104689673Y-54168179D01*
X104586383Y-54031401D01*
X104572108Y-54012497D01*
X105494938Y-54012497D01*
X105494938Y-54012502D01*
X105515122Y-54191642D01*
X105562160Y-54326073D01*
X105562161Y-54326074D01*
X105875736Y-54012500D01*
X105845899Y-53982663D01*
X106150000Y-53982663D01*
X106150000Y-54042337D01*
X106172836Y-54097468D01*
X106215032Y-54139664D01*
X106270163Y-54162500D01*
X106329837Y-54162500D01*
X106384968Y-54139664D01*
X106427164Y-54097468D01*
X106450000Y-54042337D01*
X106450000Y-54012500D01*
X106724264Y-54012500D01*
X107025000Y-54313236D01*
X107325736Y-54012500D01*
X107295899Y-53982663D01*
X107600000Y-53982663D01*
X107600000Y-54042337D01*
X107622836Y-54097468D01*
X107665032Y-54139664D01*
X107720163Y-54162500D01*
X107779837Y-54162500D01*
X107834968Y-54139664D01*
X107877164Y-54097468D01*
X107900000Y-54042337D01*
X107900000Y-54012500D01*
X108174264Y-54012500D01*
X108475000Y-54313236D01*
X108775736Y-54012500D01*
X108745899Y-53982663D01*
X109050000Y-53982663D01*
X109050000Y-54042337D01*
X109072836Y-54097468D01*
X109115032Y-54139664D01*
X109170163Y-54162500D01*
X109229837Y-54162500D01*
X109284968Y-54139664D01*
X109327164Y-54097468D01*
X109350000Y-54042337D01*
X109350000Y-54012499D01*
X109624264Y-54012499D01*
X109624264Y-54012500D01*
X109937837Y-54326073D01*
X109984877Y-54191641D01*
X109984878Y-54191638D01*
X110005062Y-54012502D01*
X110005062Y-54012497D01*
X109984878Y-53833361D01*
X109984877Y-53833358D01*
X109937837Y-53698925D01*
X109937837Y-53698924D01*
X109624264Y-54012499D01*
X109350000Y-54012499D01*
X109350000Y-53982663D01*
X109327164Y-53927532D01*
X109284968Y-53885336D01*
X109229837Y-53862500D01*
X109170163Y-53862500D01*
X109115032Y-53885336D01*
X109072836Y-53927532D01*
X109050000Y-53982663D01*
X108745899Y-53982663D01*
X108475000Y-53711764D01*
X108174264Y-54012500D01*
X107900000Y-54012500D01*
X107900000Y-53982663D01*
X107877164Y-53927532D01*
X107834968Y-53885336D01*
X107779837Y-53862500D01*
X107720163Y-53862500D01*
X107665032Y-53885336D01*
X107622836Y-53927532D01*
X107600000Y-53982663D01*
X107295899Y-53982663D01*
X107025000Y-53711764D01*
X106724264Y-54012500D01*
X106450000Y-54012500D01*
X106450000Y-53982663D01*
X106427164Y-53927532D01*
X106384968Y-53885336D01*
X106329837Y-53862500D01*
X106270163Y-53862500D01*
X106215032Y-53885336D01*
X106172836Y-53927532D01*
X106150000Y-53982663D01*
X105845899Y-53982663D01*
X105562160Y-53698924D01*
X105515122Y-53833357D01*
X105494938Y-54012497D01*
X104572108Y-54012497D01*
X104566762Y-54005418D01*
X104416041Y-53868019D01*
X104416039Y-53868017D01*
X104242642Y-53760655D01*
X104242635Y-53760651D01*
X104147546Y-53723814D01*
X104052456Y-53686976D01*
X103926205Y-53663375D01*
X103863925Y-53631708D01*
X103828652Y-53571395D01*
X103831586Y-53501587D01*
X103871795Y-53444447D01*
X103904195Y-53425861D01*
X103988962Y-53393023D01*
X104162366Y-53285656D01*
X104174428Y-53274660D01*
X105986424Y-53274660D01*
X106300000Y-53588236D01*
X106300001Y-53588236D01*
X106613574Y-53274661D01*
X106613573Y-53274660D01*
X107436424Y-53274660D01*
X107750000Y-53588236D01*
X107750001Y-53588236D01*
X108063574Y-53274661D01*
X108063573Y-53274660D01*
X108886424Y-53274660D01*
X109200000Y-53588236D01*
X109200001Y-53588236D01*
X109513574Y-53274661D01*
X109513573Y-53274660D01*
X109379142Y-53227622D01*
X109200003Y-53207438D01*
X109199997Y-53207438D01*
X109020857Y-53227622D01*
X108886424Y-53274660D01*
X108063573Y-53274660D01*
X107929142Y-53227622D01*
X107750003Y-53207438D01*
X107749997Y-53207438D01*
X107570857Y-53227622D01*
X107436424Y-53274660D01*
X106613573Y-53274660D01*
X106479142Y-53227622D01*
X106300003Y-53207438D01*
X106299997Y-53207438D01*
X106120857Y-53227622D01*
X105986424Y-53274660D01*
X104174428Y-53274660D01*
X104313089Y-53148254D01*
X104435998Y-52985496D01*
X104526907Y-52802925D01*
X104582722Y-52606758D01*
X104601540Y-52403675D01*
X104582722Y-52200592D01*
X104526907Y-52004425D01*
X104520508Y-51991575D01*
X104464580Y-51879255D01*
X104450181Y-51850337D01*
X105986424Y-51850337D01*
X106120858Y-51897377D01*
X106120861Y-51897378D01*
X106299997Y-51917562D01*
X106300003Y-51917562D01*
X106479138Y-51897378D01*
X106479141Y-51897377D01*
X106613574Y-51850337D01*
X107436424Y-51850337D01*
X107570858Y-51897377D01*
X107570861Y-51897378D01*
X107749997Y-51917562D01*
X107750003Y-51917562D01*
X107929138Y-51897378D01*
X107929141Y-51897377D01*
X108063573Y-51850337D01*
X108886424Y-51850337D01*
X109020858Y-51897377D01*
X109020861Y-51897378D01*
X109199997Y-51917562D01*
X109200003Y-51917562D01*
X109379138Y-51897378D01*
X109379141Y-51897377D01*
X109513574Y-51850337D01*
X109200001Y-51536764D01*
X109200000Y-51536764D01*
X108886424Y-51850337D01*
X108063573Y-51850337D01*
X107750001Y-51536764D01*
X107750000Y-51536764D01*
X107436424Y-51850337D01*
X106613574Y-51850337D01*
X106300001Y-51536764D01*
X106300000Y-51536764D01*
X105986424Y-51850337D01*
X104450181Y-51850337D01*
X104435998Y-51821854D01*
X104377029Y-51743766D01*
X104313087Y-51659093D01*
X104162366Y-51521694D01*
X104162364Y-51521692D01*
X103988967Y-51414330D01*
X103988960Y-51414326D01*
X103893871Y-51377489D01*
X103798781Y-51340651D01*
X103598301Y-51303175D01*
X103394349Y-51303175D01*
X103193869Y-51340651D01*
X103193866Y-51340651D01*
X103193866Y-51340652D01*
X103003689Y-51414326D01*
X103003682Y-51414330D01*
X102830285Y-51521692D01*
X102830283Y-51521694D01*
X102679562Y-51659093D01*
X102556652Y-51821853D01*
X102465747Y-52004414D01*
X102465742Y-52004427D01*
X102409927Y-52200592D01*
X102391110Y-52403674D01*
X88884718Y-52403674D01*
X89002262Y-52329816D01*
X89129816Y-52202262D01*
X89225789Y-52049522D01*
X89285368Y-51879255D01*
X89285369Y-51879249D01*
X89305565Y-51700003D01*
X89305565Y-51699996D01*
X89285369Y-51520750D01*
X89285368Y-51520745D01*
X89225788Y-51350476D01*
X89170331Y-51262217D01*
X89129816Y-51197738D01*
X89002262Y-51070184D01*
X88934382Y-51027532D01*
X88849523Y-50974211D01*
X88679254Y-50914631D01*
X88679249Y-50914630D01*
X88500004Y-50894435D01*
X88499996Y-50894435D01*
X88320750Y-50914630D01*
X88320745Y-50914631D01*
X88150476Y-50974211D01*
X87997737Y-51070184D01*
X87870184Y-51197737D01*
X87774211Y-51350476D01*
X87714631Y-51520745D01*
X87714630Y-51520750D01*
X87694435Y-51699996D01*
X75352131Y-51699996D01*
X75411401Y-51658495D01*
X75578495Y-51491401D01*
X75714035Y-51297830D01*
X75813903Y-51083663D01*
X75875063Y-50855408D01*
X75883109Y-50763449D01*
X94739337Y-50763449D01*
X94739337Y-50763456D01*
X94759532Y-50942702D01*
X94759533Y-50942707D01*
X94819113Y-51112976D01*
X94872373Y-51197738D01*
X94915086Y-51265715D01*
X95042640Y-51393269D01*
X95195380Y-51489242D01*
X95331190Y-51536764D01*
X95365647Y-51548821D01*
X95365652Y-51548822D01*
X95544898Y-51569018D01*
X95544902Y-51569018D01*
X95544906Y-51569018D01*
X95724151Y-51548822D01*
X95724154Y-51548821D01*
X95724157Y-51548821D01*
X95894424Y-51489242D01*
X96047164Y-51393269D01*
X96174718Y-51265715D01*
X96270691Y-51112975D01*
X96270858Y-51112497D01*
X105494938Y-51112497D01*
X105494938Y-51112502D01*
X105515122Y-51291642D01*
X105562160Y-51426073D01*
X105562161Y-51426074D01*
X105875736Y-51112500D01*
X105845899Y-51082663D01*
X106150000Y-51082663D01*
X106150000Y-51142337D01*
X106172836Y-51197468D01*
X106215032Y-51239664D01*
X106270163Y-51262500D01*
X106329837Y-51262500D01*
X106384968Y-51239664D01*
X106427164Y-51197468D01*
X106450000Y-51142337D01*
X106450000Y-51112500D01*
X106724264Y-51112500D01*
X107025000Y-51413236D01*
X107325736Y-51112500D01*
X107295899Y-51082663D01*
X107600000Y-51082663D01*
X107600000Y-51142337D01*
X107622836Y-51197468D01*
X107665032Y-51239664D01*
X107720163Y-51262500D01*
X107779837Y-51262500D01*
X107834968Y-51239664D01*
X107877164Y-51197468D01*
X107900000Y-51142337D01*
X107900000Y-51112500D01*
X108174264Y-51112500D01*
X108475000Y-51413236D01*
X108775736Y-51112500D01*
X108745899Y-51082663D01*
X109050000Y-51082663D01*
X109050000Y-51142337D01*
X109072836Y-51197468D01*
X109115032Y-51239664D01*
X109170163Y-51262500D01*
X109229837Y-51262500D01*
X109284968Y-51239664D01*
X109327164Y-51197468D01*
X109350000Y-51142337D01*
X109350000Y-51112499D01*
X109624264Y-51112499D01*
X109624264Y-51112500D01*
X109937837Y-51426073D01*
X109984877Y-51291641D01*
X109984878Y-51291638D01*
X110005062Y-51112502D01*
X110005062Y-51112497D01*
X109984878Y-50933361D01*
X109984877Y-50933358D01*
X109937837Y-50798925D01*
X109937837Y-50798924D01*
X109624264Y-51112499D01*
X109350000Y-51112499D01*
X109350000Y-51082663D01*
X109327164Y-51027532D01*
X109284968Y-50985336D01*
X109229837Y-50962500D01*
X109170163Y-50962500D01*
X109115032Y-50985336D01*
X109072836Y-51027532D01*
X109050000Y-51082663D01*
X108745899Y-51082663D01*
X108475000Y-50811764D01*
X108174264Y-51112500D01*
X107900000Y-51112500D01*
X107900000Y-51082663D01*
X107877164Y-51027532D01*
X107834968Y-50985336D01*
X107779837Y-50962500D01*
X107720163Y-50962500D01*
X107665032Y-50985336D01*
X107622836Y-51027532D01*
X107600000Y-51082663D01*
X107295899Y-51082663D01*
X107025000Y-50811764D01*
X106724264Y-51112500D01*
X106450000Y-51112500D01*
X106450000Y-51082663D01*
X106427164Y-51027532D01*
X106384968Y-50985336D01*
X106329837Y-50962500D01*
X106270163Y-50962500D01*
X106215032Y-50985336D01*
X106172836Y-51027532D01*
X106150000Y-51082663D01*
X105845899Y-51082663D01*
X105562160Y-50798924D01*
X105515122Y-50933357D01*
X105494938Y-51112497D01*
X96270858Y-51112497D01*
X96330270Y-50942708D01*
X96331323Y-50933361D01*
X96350467Y-50763456D01*
X96350467Y-50763449D01*
X96330271Y-50584203D01*
X96330269Y-50584193D01*
X96303725Y-50508337D01*
X96300162Y-50438558D01*
X96315771Y-50401410D01*
X96332579Y-50374660D01*
X105986424Y-50374660D01*
X106300000Y-50688236D01*
X106300001Y-50688236D01*
X106613574Y-50374661D01*
X106613573Y-50374660D01*
X107436424Y-50374660D01*
X107750000Y-50688236D01*
X107750001Y-50688236D01*
X108063574Y-50374661D01*
X108063573Y-50374660D01*
X108886424Y-50374660D01*
X109200000Y-50688236D01*
X109200001Y-50688236D01*
X109513574Y-50374661D01*
X109513573Y-50374660D01*
X109379142Y-50327622D01*
X109200003Y-50307438D01*
X109199997Y-50307438D01*
X109020857Y-50327622D01*
X108886424Y-50374660D01*
X108063573Y-50374660D01*
X107929142Y-50327622D01*
X107750003Y-50307438D01*
X107749997Y-50307438D01*
X107570857Y-50327622D01*
X107436424Y-50374660D01*
X106613573Y-50374660D01*
X106479142Y-50327622D01*
X106300003Y-50307438D01*
X106299997Y-50307438D01*
X106120857Y-50327622D01*
X105986424Y-50374660D01*
X96332579Y-50374660D01*
X96411210Y-50249522D01*
X96442118Y-50161188D01*
X96482839Y-50104414D01*
X96518202Y-50085104D01*
X96687715Y-50025789D01*
X96840455Y-49929816D01*
X96968009Y-49802262D01*
X97063982Y-49649522D01*
X97123561Y-49479255D01*
X97129585Y-49425789D01*
X97143758Y-49300003D01*
X97143758Y-49299996D01*
X97123562Y-49120750D01*
X97123561Y-49120745D01*
X97063981Y-48950476D01*
X97001148Y-48850478D01*
X96968009Y-48797738D01*
X96840455Y-48670184D01*
X96840453Y-48670182D01*
X96840450Y-48670180D01*
X96802553Y-48646368D01*
X96756261Y-48594034D01*
X96745304Y-48555257D01*
X96730511Y-48423961D01*
X96730510Y-48423956D01*
X96692527Y-48315408D01*
X96670931Y-48253689D01*
X96638058Y-48201372D01*
X105243059Y-48201372D01*
X105243059Y-48201379D01*
X105263254Y-48380625D01*
X105263255Y-48380630D01*
X105322835Y-48550899D01*
X105357831Y-48606594D01*
X105418808Y-48703638D01*
X105546362Y-48831192D01*
X105699102Y-48927165D01*
X105772174Y-48952734D01*
X105869369Y-48986744D01*
X105869374Y-48986745D01*
X106048620Y-49006941D01*
X106048624Y-49006941D01*
X106048628Y-49006941D01*
X106227873Y-48986745D01*
X106227876Y-48986744D01*
X106227879Y-48986744D01*
X106398146Y-48927165D01*
X106550886Y-48831192D01*
X106678440Y-48703638D01*
X106680728Y-48699996D01*
X108694435Y-48699996D01*
X108694435Y-48700003D01*
X108714630Y-48879249D01*
X108714631Y-48879254D01*
X108774211Y-49049523D01*
X108852558Y-49174211D01*
X108870184Y-49202262D01*
X108997738Y-49329816D01*
X109029861Y-49350000D01*
X109105833Y-49397737D01*
X109150478Y-49425789D01*
X109303258Y-49479249D01*
X109320745Y-49485368D01*
X109320750Y-49485369D01*
X109427568Y-49497404D01*
X109491982Y-49524470D01*
X109530727Y-49579670D01*
X109587347Y-49741483D01*
X109625537Y-49802262D01*
X109683321Y-49894224D01*
X109810875Y-50021778D01*
X109963615Y-50117751D01*
X110087757Y-50161190D01*
X110133882Y-50177330D01*
X110133887Y-50177331D01*
X110313133Y-50197527D01*
X110313137Y-50197527D01*
X110313141Y-50197527D01*
X110492386Y-50177331D01*
X110492389Y-50177330D01*
X110492392Y-50177330D01*
X110662659Y-50117751D01*
X110815399Y-50021778D01*
X110942953Y-49894224D01*
X111038926Y-49741484D01*
X111098505Y-49571217D01*
X111100842Y-49550476D01*
X111118702Y-49391965D01*
X111118702Y-49391958D01*
X111098506Y-49212712D01*
X111098505Y-49212707D01*
X111080666Y-49161726D01*
X111038926Y-49042440D01*
X111016620Y-49006941D01*
X110981719Y-48951396D01*
X110942953Y-48889700D01*
X110815399Y-48762146D01*
X110662660Y-48666173D01*
X110492391Y-48606593D01*
X110492387Y-48606592D01*
X110385568Y-48594557D01*
X110321154Y-48567490D01*
X110282410Y-48512292D01*
X110236340Y-48380631D01*
X110225789Y-48350478D01*
X110129816Y-48197738D01*
X110002262Y-48070184D01*
X109849523Y-47974211D01*
X109679254Y-47914631D01*
X109679249Y-47914630D01*
X109500004Y-47894435D01*
X109499996Y-47894435D01*
X109320750Y-47914630D01*
X109320745Y-47914631D01*
X109150476Y-47974211D01*
X108997737Y-48070184D01*
X108870184Y-48197737D01*
X108774211Y-48350476D01*
X108714631Y-48520745D01*
X108714630Y-48520750D01*
X108694435Y-48699996D01*
X106680728Y-48699996D01*
X106774413Y-48550898D01*
X106833992Y-48380631D01*
X106833993Y-48380625D01*
X106854189Y-48201379D01*
X106854189Y-48201372D01*
X106833993Y-48022126D01*
X106833992Y-48022121D01*
X106774413Y-47851854D01*
X106769852Y-47844596D01*
X106678439Y-47699113D01*
X106550886Y-47571560D01*
X106398147Y-47475587D01*
X106227878Y-47416007D01*
X106227873Y-47416006D01*
X106048628Y-47395811D01*
X106048620Y-47395811D01*
X105869374Y-47416006D01*
X105869369Y-47416007D01*
X105699100Y-47475587D01*
X105546361Y-47571560D01*
X105418808Y-47699113D01*
X105322835Y-47851852D01*
X105263255Y-48022121D01*
X105263254Y-48022126D01*
X105243059Y-48201372D01*
X96638058Y-48201372D01*
X96574958Y-48100949D01*
X96447404Y-47973395D01*
X96294665Y-47877422D01*
X96124396Y-47817842D01*
X96124391Y-47817841D01*
X95945146Y-47797646D01*
X95945138Y-47797646D01*
X95765892Y-47817841D01*
X95765887Y-47817842D01*
X95595618Y-47877422D01*
X95442879Y-47973395D01*
X95315326Y-48100948D01*
X95219353Y-48253687D01*
X95159773Y-48423956D01*
X95159772Y-48423961D01*
X95139577Y-48603207D01*
X95139577Y-48603214D01*
X95159772Y-48782460D01*
X95159773Y-48782465D01*
X95219353Y-48952734D01*
X95286142Y-49059028D01*
X95305142Y-49126265D01*
X95284774Y-49193100D01*
X95247121Y-49229993D01*
X95183161Y-49270182D01*
X95183158Y-49270184D01*
X95055605Y-49397737D01*
X94959632Y-49550476D01*
X94900052Y-49720745D01*
X94900051Y-49720750D01*
X94879856Y-49899996D01*
X94879856Y-49900003D01*
X94900052Y-50079252D01*
X94926598Y-50155118D01*
X94930159Y-50224897D01*
X94914550Y-50262044D01*
X94819113Y-50413929D01*
X94759533Y-50584198D01*
X94759532Y-50584203D01*
X94739337Y-50763449D01*
X75883109Y-50763449D01*
X75895659Y-50620000D01*
X75875063Y-50384592D01*
X75813903Y-50156337D01*
X75714035Y-49942171D01*
X75708425Y-49934158D01*
X75578494Y-49748597D01*
X75411402Y-49581506D01*
X75411396Y-49581501D01*
X75225842Y-49451575D01*
X75182217Y-49396998D01*
X75175023Y-49327500D01*
X75206546Y-49265145D01*
X75225842Y-49248425D01*
X75248026Y-49232891D01*
X75295005Y-49199996D01*
X87694435Y-49199996D01*
X87694435Y-49200003D01*
X87714630Y-49379249D01*
X87714631Y-49379254D01*
X87774211Y-49549523D01*
X87837045Y-49649522D01*
X87870184Y-49702262D01*
X87997738Y-49829816D01*
X88150478Y-49925789D01*
X88229540Y-49953454D01*
X88320745Y-49985368D01*
X88320750Y-49985369D01*
X88499996Y-50005565D01*
X88500000Y-50005565D01*
X88500004Y-50005565D01*
X88679249Y-49985369D01*
X88679252Y-49985368D01*
X88679255Y-49985368D01*
X88849522Y-49925789D01*
X89002262Y-49829816D01*
X89129816Y-49702262D01*
X89225789Y-49549522D01*
X89285368Y-49379255D01*
X89286129Y-49372500D01*
X89305565Y-49200003D01*
X89305565Y-49199996D01*
X89285369Y-49020750D01*
X89285368Y-49020745D01*
X89273471Y-48986745D01*
X89225789Y-48850478D01*
X89129816Y-48697738D01*
X89002262Y-48570184D01*
X88960054Y-48543663D01*
X88849523Y-48474211D01*
X88679254Y-48414631D01*
X88679249Y-48414630D01*
X88500004Y-48394435D01*
X88499996Y-48394435D01*
X88320750Y-48414630D01*
X88320745Y-48414631D01*
X88150476Y-48474211D01*
X87997737Y-48570184D01*
X87870184Y-48697737D01*
X87774211Y-48850476D01*
X87714631Y-49020745D01*
X87714630Y-49020750D01*
X87694435Y-49199996D01*
X75295005Y-49199996D01*
X75411401Y-49118495D01*
X75578495Y-48951401D01*
X75714035Y-48757830D01*
X75813903Y-48543663D01*
X75875063Y-48315408D01*
X75895659Y-48080000D01*
X75875063Y-47844592D01*
X75813903Y-47616337D01*
X75714035Y-47402171D01*
X75708425Y-47394158D01*
X75578494Y-47208597D01*
X75411402Y-47041506D01*
X75411396Y-47041501D01*
X75225842Y-46911575D01*
X75182217Y-46856998D01*
X75175023Y-46787500D01*
X75206546Y-46725145D01*
X75225842Y-46708425D01*
X75267502Y-46679254D01*
X75411401Y-46578495D01*
X75489900Y-46499996D01*
X87694435Y-46499996D01*
X87694435Y-46500003D01*
X87714630Y-46679249D01*
X87714631Y-46679254D01*
X87774211Y-46849523D01*
X87870184Y-47002262D01*
X87997738Y-47129816D01*
X88150478Y-47225789D01*
X88320745Y-47285368D01*
X88320750Y-47285369D01*
X88499996Y-47305565D01*
X88500000Y-47305565D01*
X88500004Y-47305565D01*
X88679249Y-47285369D01*
X88679252Y-47285368D01*
X88679255Y-47285368D01*
X88849522Y-47225789D01*
X89002262Y-47129816D01*
X89129816Y-47002262D01*
X89225789Y-46849522D01*
X89285368Y-46679255D01*
X89285369Y-46679249D01*
X89305565Y-46500003D01*
X89305565Y-46499996D01*
X89285369Y-46320750D01*
X89285368Y-46320745D01*
X89235258Y-46177539D01*
X89225789Y-46150478D01*
X89129816Y-45997738D01*
X89002262Y-45870184D01*
X88965376Y-45847007D01*
X88849523Y-45774211D01*
X88679254Y-45714631D01*
X88679249Y-45714630D01*
X88500004Y-45694435D01*
X88499996Y-45694435D01*
X88320750Y-45714630D01*
X88320745Y-45714631D01*
X88150476Y-45774211D01*
X87997737Y-45870184D01*
X87870184Y-45997737D01*
X87774211Y-46150476D01*
X87714631Y-46320745D01*
X87714630Y-46320750D01*
X87694435Y-46499996D01*
X75489900Y-46499996D01*
X75578495Y-46411401D01*
X75714035Y-46217830D01*
X75813903Y-46003663D01*
X75875063Y-45775408D01*
X75890410Y-45600000D01*
X94994659Y-45600000D01*
X95013975Y-45796129D01*
X95013976Y-45796132D01*
X95050034Y-45915000D01*
X95071188Y-45984733D01*
X95164086Y-46158532D01*
X95164090Y-46158539D01*
X95289116Y-46310883D01*
X95441460Y-46435909D01*
X95441467Y-46435913D01*
X95615266Y-46528811D01*
X95615269Y-46528811D01*
X95615273Y-46528814D01*
X95803868Y-46586024D01*
X96000000Y-46605341D01*
X96196132Y-46586024D01*
X96384727Y-46528814D01*
X96558538Y-46435910D01*
X96710883Y-46310883D01*
X96835910Y-46158538D01*
X96899270Y-46040000D01*
X96928811Y-45984733D01*
X96928811Y-45984732D01*
X96928814Y-45984727D01*
X96986024Y-45796132D01*
X97003470Y-45619000D01*
X104919659Y-45619000D01*
X104938975Y-45815129D01*
X104938976Y-45815132D01*
X104990422Y-45984727D01*
X104996188Y-46003733D01*
X105089086Y-46177532D01*
X105089090Y-46177539D01*
X105214116Y-46329883D01*
X105366460Y-46454909D01*
X105366467Y-46454913D01*
X105540266Y-46547811D01*
X105540269Y-46547811D01*
X105540273Y-46547814D01*
X105728868Y-46605024D01*
X105925000Y-46624341D01*
X106121132Y-46605024D01*
X106309727Y-46547814D01*
X106345274Y-46528814D01*
X106483532Y-46454913D01*
X106483538Y-46454910D01*
X106635883Y-46329883D01*
X106760910Y-46177538D01*
X106853814Y-46003727D01*
X106911024Y-45815132D01*
X106930341Y-45619000D01*
X106911024Y-45422868D01*
X106853814Y-45234273D01*
X106853811Y-45234269D01*
X106853811Y-45234266D01*
X106760913Y-45060467D01*
X106760909Y-45060460D01*
X106635883Y-44908116D01*
X106483539Y-44783090D01*
X106483532Y-44783086D01*
X106309733Y-44690188D01*
X106309727Y-44690186D01*
X106121132Y-44632976D01*
X106121129Y-44632975D01*
X105925000Y-44613659D01*
X105728870Y-44632975D01*
X105540266Y-44690188D01*
X105366467Y-44783086D01*
X105366460Y-44783090D01*
X105214116Y-44908116D01*
X105089090Y-45060460D01*
X105089086Y-45060467D01*
X104996188Y-45234266D01*
X104938975Y-45422870D01*
X104919659Y-45619000D01*
X97003470Y-45619000D01*
X97005341Y-45600000D01*
X96986024Y-45403868D01*
X96928814Y-45215273D01*
X96928811Y-45215269D01*
X96928811Y-45215266D01*
X96835913Y-45041467D01*
X96835909Y-45041460D01*
X96710883Y-44889116D01*
X96558539Y-44764090D01*
X96558532Y-44764086D01*
X96384733Y-44671188D01*
X96384727Y-44671186D01*
X96196132Y-44613976D01*
X96196129Y-44613975D01*
X96000000Y-44594659D01*
X95803870Y-44613975D01*
X95615266Y-44671188D01*
X95441467Y-44764086D01*
X95441460Y-44764090D01*
X95289116Y-44889116D01*
X95164090Y-45041460D01*
X95164086Y-45041467D01*
X95071188Y-45215266D01*
X95013975Y-45403870D01*
X94994659Y-45600000D01*
X75890410Y-45600000D01*
X75895659Y-45540000D01*
X75875063Y-45304592D01*
X75813903Y-45076337D01*
X75714035Y-44862171D01*
X75708731Y-44854595D01*
X75578494Y-44668597D01*
X75411402Y-44501506D01*
X75411396Y-44501501D01*
X75225842Y-44371575D01*
X75182217Y-44316998D01*
X75175023Y-44247500D01*
X75206546Y-44185145D01*
X75225842Y-44168425D01*
X75395651Y-44049523D01*
X75411401Y-44038495D01*
X75578495Y-43871401D01*
X75698514Y-43699996D01*
X87894435Y-43699996D01*
X87894435Y-43700003D01*
X87914630Y-43879249D01*
X87914631Y-43879254D01*
X87974211Y-44049523D01*
X88000960Y-44092093D01*
X88070184Y-44202262D01*
X88197738Y-44329816D01*
X88245026Y-44359529D01*
X88334042Y-44415462D01*
X88350478Y-44425789D01*
X88520133Y-44485154D01*
X88520745Y-44485368D01*
X88520750Y-44485369D01*
X88699996Y-44505565D01*
X88700000Y-44505565D01*
X88700004Y-44505565D01*
X88879249Y-44485369D01*
X88879252Y-44485368D01*
X88879255Y-44485368D01*
X89049522Y-44425789D01*
X89202262Y-44329816D01*
X89329816Y-44202262D01*
X89425789Y-44049522D01*
X89485368Y-43879255D01*
X89505565Y-43700000D01*
X89503067Y-43677830D01*
X89485369Y-43520750D01*
X89485368Y-43520745D01*
X89443152Y-43400099D01*
X89425789Y-43350478D01*
X89329816Y-43197738D01*
X89202262Y-43070184D01*
X89190864Y-43063022D01*
X89049523Y-42974211D01*
X88879254Y-42914631D01*
X88879249Y-42914630D01*
X88700004Y-42894435D01*
X88699996Y-42894435D01*
X88520750Y-42914630D01*
X88520745Y-42914631D01*
X88350476Y-42974211D01*
X88197737Y-43070184D01*
X88070184Y-43197737D01*
X87974211Y-43350476D01*
X87914631Y-43520745D01*
X87914630Y-43520750D01*
X87894435Y-43699996D01*
X75698514Y-43699996D01*
X75714035Y-43677830D01*
X75813903Y-43463663D01*
X75875063Y-43235408D01*
X75895659Y-43000000D01*
X75875063Y-42764592D01*
X75813903Y-42536337D01*
X75811591Y-42531379D01*
X98126338Y-42531379D01*
X98145654Y-42727508D01*
X98202867Y-42916112D01*
X98295765Y-43089911D01*
X98295769Y-43089918D01*
X98420795Y-43242262D01*
X98573139Y-43367288D01*
X98573146Y-43367292D01*
X98746945Y-43460190D01*
X98746948Y-43460190D01*
X98746952Y-43460193D01*
X98935547Y-43517403D01*
X99131679Y-43536720D01*
X99327811Y-43517403D01*
X99516406Y-43460193D01*
X99690217Y-43367289D01*
X99842562Y-43242262D01*
X99967589Y-43089917D01*
X100029435Y-42974211D01*
X100060490Y-42916112D01*
X100060490Y-42916111D01*
X100060493Y-42916106D01*
X100117703Y-42727511D01*
X100137020Y-42531379D01*
X100117703Y-42335247D01*
X100060493Y-42146652D01*
X100060490Y-42146648D01*
X100060490Y-42146645D01*
X99967592Y-41972846D01*
X99967588Y-41972839D01*
X99842562Y-41820495D01*
X99817584Y-41799996D01*
X101094435Y-41799996D01*
X101094435Y-41800003D01*
X101114630Y-41979249D01*
X101114631Y-41979254D01*
X101174211Y-42149523D01*
X101270184Y-42302262D01*
X101397738Y-42429816D01*
X101550478Y-42525789D01*
X101710608Y-42581821D01*
X101720745Y-42585368D01*
X101720750Y-42585369D01*
X101899996Y-42605565D01*
X101900000Y-42605565D01*
X101900004Y-42605565D01*
X102079249Y-42585369D01*
X102079252Y-42585368D01*
X102079255Y-42585368D01*
X102249522Y-42525789D01*
X102402262Y-42429816D01*
X102529816Y-42302262D01*
X102625789Y-42149522D01*
X102685368Y-41979255D01*
X102687368Y-41961503D01*
X102705565Y-41800003D01*
X102705565Y-41799996D01*
X102685369Y-41620750D01*
X102685368Y-41620745D01*
X102658988Y-41545355D01*
X102625789Y-41450478D01*
X102562652Y-41349996D01*
X115644435Y-41349996D01*
X115644435Y-41350003D01*
X115664630Y-41529249D01*
X115664631Y-41529254D01*
X115724211Y-41699523D01*
X115787347Y-41800003D01*
X115820184Y-41852262D01*
X115947738Y-41979816D01*
X116100478Y-42075789D01*
X116175828Y-42102155D01*
X116270745Y-42135368D01*
X116270750Y-42135369D01*
X116449996Y-42155565D01*
X116450000Y-42155565D01*
X116450004Y-42155565D01*
X116629249Y-42135369D01*
X116629252Y-42135368D01*
X116629255Y-42135368D01*
X116799522Y-42075789D01*
X116920141Y-41999999D01*
X130894785Y-41999999D01*
X130894785Y-42000000D01*
X130913602Y-42203082D01*
X130969417Y-42399247D01*
X130969422Y-42399260D01*
X131060327Y-42581821D01*
X131183237Y-42744581D01*
X131333958Y-42881980D01*
X131333960Y-42881982D01*
X131418254Y-42934174D01*
X131507363Y-42989348D01*
X131697544Y-43063024D01*
X131898024Y-43100500D01*
X131898026Y-43100500D01*
X132101974Y-43100500D01*
X132101976Y-43100500D01*
X132302456Y-43063024D01*
X132492637Y-42989348D01*
X132666041Y-42881981D01*
X132816764Y-42744579D01*
X132939673Y-42581821D01*
X132987705Y-42485356D01*
X132998778Y-42467211D01*
X133005121Y-42458580D01*
X133442286Y-41640768D01*
X133463956Y-41611550D01*
X134318065Y-40757442D01*
X134318068Y-40757441D01*
X134372165Y-40703343D01*
X134377165Y-40698617D01*
X134537963Y-40554915D01*
X134548805Y-40546268D01*
X134721840Y-40423491D01*
X134733593Y-40416106D01*
X134919272Y-40313483D01*
X134931772Y-40307463D01*
X135127792Y-40226267D01*
X135140883Y-40221687D01*
X135344762Y-40162949D01*
X135358282Y-40159864D01*
X135567441Y-40124325D01*
X135581237Y-40122771D01*
X135699155Y-40116148D01*
X135743988Y-40121883D01*
X136555683Y-40382363D01*
X136587383Y-40391407D01*
X136587384Y-40391407D01*
X136592620Y-40392901D01*
X136592559Y-40393112D01*
X136606449Y-40397103D01*
X136647544Y-40413024D01*
X136848024Y-40450500D01*
X136848026Y-40450500D01*
X137051974Y-40450500D01*
X137051976Y-40450500D01*
X137252456Y-40413024D01*
X137442637Y-40339348D01*
X137616041Y-40231981D01*
X137766764Y-40094579D01*
X137889673Y-39931821D01*
X137980582Y-39749250D01*
X138036397Y-39553083D01*
X138055215Y-39350000D01*
X138047658Y-39268450D01*
X138036397Y-39146917D01*
X137980582Y-38950750D01*
X137979605Y-38948788D01*
X137901646Y-38792224D01*
X137889673Y-38768179D01*
X137830704Y-38690091D01*
X137766762Y-38605418D01*
X137616041Y-38468019D01*
X137616039Y-38468017D01*
X137442642Y-38360655D01*
X137442635Y-38360651D01*
X137321158Y-38313591D01*
X137252456Y-38286976D01*
X137051976Y-38249500D01*
X136848024Y-38249500D01*
X136747784Y-38268238D01*
X136647542Y-38286976D01*
X136647534Y-38286979D01*
X136590666Y-38309009D01*
X136566340Y-38315681D01*
X136556673Y-38317298D01*
X136556657Y-38317302D01*
X135721019Y-38583631D01*
X135683367Y-38589486D01*
X135626248Y-38589486D01*
X135280418Y-38623547D01*
X135280405Y-38623549D01*
X134939581Y-38691345D01*
X134939579Y-38691345D01*
X134607024Y-38792225D01*
X134285971Y-38925212D01*
X133979500Y-39089028D01*
X133690553Y-39282099D01*
X133690547Y-39282103D01*
X133421923Y-39502562D01*
X133352038Y-39572451D01*
X133352036Y-39572453D01*
X132388449Y-40536039D01*
X132359225Y-40557714D01*
X131541433Y-40994870D01*
X131535520Y-40998252D01*
X131518760Y-41006235D01*
X131507373Y-41010646D01*
X131507361Y-41010652D01*
X131333957Y-41118020D01*
X131183237Y-41255418D01*
X131060327Y-41418178D01*
X130969422Y-41600739D01*
X130969417Y-41600752D01*
X130913602Y-41796917D01*
X130894785Y-41999999D01*
X116920141Y-41999999D01*
X116952262Y-41979816D01*
X117079816Y-41852262D01*
X117175789Y-41699522D01*
X117235368Y-41529255D01*
X117235369Y-41529249D01*
X117255565Y-41350003D01*
X117255565Y-41349996D01*
X117235369Y-41170750D01*
X117235368Y-41170745D01*
X117188187Y-41035909D01*
X117175789Y-41000478D01*
X117174390Y-40998252D01*
X117079815Y-40847737D01*
X116952262Y-40720184D01*
X116799523Y-40624211D01*
X116629254Y-40564631D01*
X116629249Y-40564630D01*
X116450004Y-40544435D01*
X116449996Y-40544435D01*
X116270750Y-40564630D01*
X116270745Y-40564631D01*
X116100476Y-40624211D01*
X115947737Y-40720184D01*
X115820184Y-40847737D01*
X115724211Y-41000476D01*
X115664631Y-41170745D01*
X115664630Y-41170750D01*
X115644435Y-41349996D01*
X102562652Y-41349996D01*
X102529816Y-41297738D01*
X102402262Y-41170184D01*
X102249523Y-41074211D01*
X102079254Y-41014631D01*
X102079249Y-41014630D01*
X101900004Y-40994435D01*
X101899996Y-40994435D01*
X101720750Y-41014630D01*
X101720745Y-41014631D01*
X101550476Y-41074211D01*
X101397737Y-41170184D01*
X101270184Y-41297737D01*
X101174211Y-41450476D01*
X101114631Y-41620745D01*
X101114630Y-41620750D01*
X101094435Y-41799996D01*
X99817584Y-41799996D01*
X99690218Y-41695469D01*
X99690211Y-41695465D01*
X99516412Y-41602567D01*
X99516406Y-41602565D01*
X99327811Y-41545355D01*
X99327808Y-41545354D01*
X99131679Y-41526038D01*
X98935549Y-41545354D01*
X98746945Y-41602567D01*
X98573146Y-41695465D01*
X98573139Y-41695469D01*
X98420795Y-41820495D01*
X98295769Y-41972839D01*
X98295765Y-41972846D01*
X98202867Y-42146645D01*
X98145654Y-42335249D01*
X98126338Y-42531379D01*
X75811591Y-42531379D01*
X75714035Y-42322171D01*
X75630649Y-42203082D01*
X75578494Y-42128597D01*
X75411402Y-41961506D01*
X75411395Y-41961501D01*
X75217834Y-41825967D01*
X75217830Y-41825965D01*
X75162139Y-41799996D01*
X75003663Y-41726097D01*
X75003659Y-41726096D01*
X75003655Y-41726094D01*
X74775413Y-41664938D01*
X74775403Y-41664936D01*
X74540001Y-41644341D01*
X74539999Y-41644341D01*
X74304596Y-41664936D01*
X74304586Y-41664938D01*
X74076344Y-41726094D01*
X74076335Y-41726098D01*
X73862171Y-41825964D01*
X73862169Y-41825965D01*
X73668600Y-41961503D01*
X73546284Y-42083819D01*
X73484961Y-42117303D01*
X73415269Y-42112319D01*
X73359336Y-42070447D01*
X73342421Y-42039470D01*
X73293354Y-41907913D01*
X73293350Y-41907906D01*
X73207190Y-41792812D01*
X73207187Y-41792809D01*
X73092093Y-41706649D01*
X73092086Y-41706645D01*
X72957379Y-41656403D01*
X72957372Y-41656401D01*
X72897844Y-41650000D01*
X72375000Y-41650000D01*
X72375000Y-42667894D01*
X72307007Y-42599901D01*
X72192993Y-42534075D01*
X72065826Y-42500000D01*
X71934174Y-42500000D01*
X71807007Y-42534075D01*
X71692993Y-42599901D01*
X71599901Y-42692993D01*
X71534075Y-42807007D01*
X71500000Y-42934174D01*
X71500000Y-43065826D01*
X71534075Y-43192993D01*
X71599901Y-43307007D01*
X71692993Y-43400099D01*
X71807007Y-43465925D01*
X71934174Y-43500000D01*
X72065826Y-43500000D01*
X72192993Y-43465925D01*
X72307007Y-43400099D01*
X72375000Y-43332106D01*
X72375000Y-45207894D01*
X72307007Y-45139901D01*
X72192993Y-45074075D01*
X72065826Y-45040000D01*
X71934174Y-45040000D01*
X71807007Y-45074075D01*
X71692993Y-45139901D01*
X71599901Y-45232993D01*
X71534075Y-45347007D01*
X71500000Y-45474174D01*
X71500000Y-45605826D01*
X71534075Y-45732993D01*
X71599901Y-45847007D01*
X71667894Y-45915000D01*
X70702858Y-45915000D01*
X70726566Y-46003483D01*
X70726570Y-46003492D01*
X70826399Y-46217578D01*
X70961894Y-46411082D01*
X71128917Y-46578105D01*
X71314595Y-46708119D01*
X71358219Y-46762696D01*
X71365412Y-46832195D01*
X71333890Y-46894549D01*
X71314595Y-46911269D01*
X71128594Y-47041508D01*
X70961505Y-47208597D01*
X70825965Y-47402169D01*
X70825964Y-47402171D01*
X70726098Y-47616335D01*
X70726094Y-47616344D01*
X70664938Y-47844586D01*
X70664936Y-47844596D01*
X70644341Y-48079999D01*
X63500500Y-48079999D01*
X63500500Y-43897844D01*
X70650000Y-43897844D01*
X70656401Y-43957372D01*
X70656403Y-43957379D01*
X70706645Y-44092086D01*
X70706649Y-44092093D01*
X70792809Y-44207187D01*
X70792812Y-44207190D01*
X70907906Y-44293350D01*
X70907913Y-44293354D01*
X71039986Y-44342614D01*
X71095920Y-44384485D01*
X71120337Y-44449949D01*
X71105486Y-44518222D01*
X71084335Y-44546477D01*
X70961886Y-44668926D01*
X70826400Y-44862420D01*
X70826399Y-44862422D01*
X70726570Y-45076507D01*
X70726566Y-45076516D01*
X70702857Y-45164999D01*
X70702858Y-45165000D01*
X71625000Y-45165000D01*
X71625000Y-43375000D01*
X70650000Y-43375000D01*
X70650000Y-43897844D01*
X63500500Y-43897844D01*
X63500500Y-42102155D01*
X70650000Y-42102155D01*
X70650000Y-42625000D01*
X71625000Y-42625000D01*
X71625000Y-41650000D01*
X71102155Y-41650000D01*
X71042627Y-41656401D01*
X71042620Y-41656403D01*
X70907913Y-41706645D01*
X70907906Y-41706649D01*
X70792812Y-41792809D01*
X70792809Y-41792812D01*
X70706649Y-41907906D01*
X70706645Y-41907913D01*
X70656403Y-42042620D01*
X70656401Y-42042627D01*
X70650000Y-42102155D01*
X63500500Y-42102155D01*
X63500500Y-40200000D01*
X94794659Y-40200000D01*
X94813975Y-40396129D01*
X94822277Y-40423498D01*
X94858963Y-40544435D01*
X94871188Y-40584733D01*
X94964086Y-40758532D01*
X94964090Y-40758539D01*
X95089116Y-40910883D01*
X95241460Y-41035909D01*
X95241467Y-41035913D01*
X95415266Y-41128811D01*
X95415269Y-41128811D01*
X95415273Y-41128814D01*
X95603868Y-41186024D01*
X95800000Y-41205341D01*
X95996132Y-41186024D01*
X96184727Y-41128814D01*
X96358538Y-41035910D01*
X96510883Y-40910883D01*
X96635910Y-40758538D01*
X96728814Y-40584727D01*
X96786024Y-40396132D01*
X96805341Y-40200000D01*
X96786024Y-40003868D01*
X96728814Y-39815273D01*
X96728811Y-39815269D01*
X96728811Y-39815266D01*
X96635913Y-39641467D01*
X96635909Y-39641460D01*
X96510883Y-39489116D01*
X96358539Y-39364090D01*
X96358532Y-39364086D01*
X96184733Y-39271188D01*
X96184727Y-39271186D01*
X95996132Y-39213976D01*
X95996129Y-39213975D01*
X95800000Y-39194659D01*
X95603870Y-39213975D01*
X95415266Y-39271188D01*
X95241467Y-39364086D01*
X95241460Y-39364090D01*
X95089116Y-39489116D01*
X94964090Y-39641460D01*
X94964086Y-39641467D01*
X94871188Y-39815266D01*
X94813975Y-40003870D01*
X94794659Y-40200000D01*
X63500500Y-40200000D01*
X63500500Y-38862500D01*
X73594659Y-38862500D01*
X73613975Y-39058629D01*
X73671188Y-39247233D01*
X73764086Y-39421032D01*
X73764090Y-39421039D01*
X73889116Y-39573383D01*
X74041460Y-39698409D01*
X74041467Y-39698413D01*
X74215266Y-39791311D01*
X74215269Y-39791311D01*
X74215273Y-39791314D01*
X74403868Y-39848524D01*
X74600000Y-39867841D01*
X74796132Y-39848524D01*
X74984727Y-39791314D01*
X75158538Y-39698410D01*
X75310883Y-39573383D01*
X75435910Y-39421038D01*
X75528814Y-39247227D01*
X75586024Y-39058632D01*
X75605341Y-38862500D01*
X75586024Y-38666368D01*
X75528814Y-38477773D01*
X75528811Y-38477769D01*
X75528811Y-38477766D01*
X75435913Y-38303967D01*
X75435909Y-38303960D01*
X75369463Y-38222996D01*
X86896732Y-38222996D01*
X86896732Y-38223003D01*
X86916927Y-38402249D01*
X86916928Y-38402254D01*
X86976508Y-38572523D01*
X87051170Y-38691346D01*
X87072481Y-38725262D01*
X87200035Y-38852816D01*
X87352775Y-38948789D01*
X87523042Y-39008368D01*
X87523047Y-39008369D01*
X87702293Y-39028565D01*
X87702297Y-39028565D01*
X87702301Y-39028565D01*
X87881546Y-39008369D01*
X87881549Y-39008368D01*
X87881552Y-39008368D01*
X88051819Y-38948789D01*
X88204559Y-38852816D01*
X88332113Y-38725262D01*
X88428086Y-38572522D01*
X88487665Y-38402255D01*
X88487666Y-38402249D01*
X88507862Y-38223003D01*
X88507862Y-38222996D01*
X88487666Y-38043750D01*
X88487665Y-38043745D01*
X88449154Y-37933688D01*
X88428086Y-37873478D01*
X88381917Y-37800000D01*
X102501920Y-37800000D01*
X102522211Y-38057820D01*
X102582582Y-38309285D01*
X102681549Y-38548213D01*
X102753707Y-38665962D01*
X103305839Y-38113830D01*
X103352430Y-38226310D01*
X103450924Y-38373717D01*
X103576283Y-38499076D01*
X103723690Y-38597570D01*
X103836168Y-38644160D01*
X103284036Y-39196291D01*
X103284036Y-39196292D01*
X103401786Y-39268450D01*
X103640714Y-39367417D01*
X103892179Y-39427788D01*
X104150000Y-39448079D01*
X104407820Y-39427788D01*
X104659285Y-39367417D01*
X104898209Y-39268451D01*
X105015961Y-39196291D01*
X104463830Y-38644160D01*
X104576310Y-38597570D01*
X104723717Y-38499076D01*
X104849076Y-38373717D01*
X104947570Y-38226310D01*
X104994160Y-38113830D01*
X105546291Y-38665961D01*
X105618451Y-38548209D01*
X105717417Y-38309285D01*
X105777788Y-38057820D01*
X105798079Y-37800000D01*
X105777788Y-37542179D01*
X105717417Y-37290714D01*
X105618450Y-37051786D01*
X105546291Y-36934036D01*
X104994160Y-37486168D01*
X104947570Y-37373690D01*
X104849076Y-37226283D01*
X104723717Y-37100924D01*
X104576310Y-37002430D01*
X104463830Y-36955839D01*
X105015962Y-36403707D01*
X104898213Y-36331549D01*
X104659285Y-36232582D01*
X104407820Y-36172211D01*
X104150000Y-36151920D01*
X103892179Y-36172211D01*
X103640714Y-36232582D01*
X103401786Y-36331549D01*
X103284036Y-36403707D01*
X103836169Y-36955839D01*
X103723690Y-37002430D01*
X103576283Y-37100924D01*
X103450924Y-37226283D01*
X103352430Y-37373690D01*
X103305839Y-37486168D01*
X102753707Y-36934036D01*
X102681549Y-37051786D01*
X102582582Y-37290714D01*
X102522211Y-37542179D01*
X102501920Y-37800000D01*
X88381917Y-37800000D01*
X88332113Y-37720738D01*
X88204559Y-37593184D01*
X88051820Y-37497211D01*
X87881551Y-37437631D01*
X87881546Y-37437630D01*
X87702301Y-37417435D01*
X87702293Y-37417435D01*
X87523047Y-37437630D01*
X87523042Y-37437631D01*
X87352773Y-37497211D01*
X87200034Y-37593184D01*
X87072481Y-37720737D01*
X86976508Y-37873476D01*
X86916928Y-38043745D01*
X86916927Y-38043750D01*
X86896732Y-38222996D01*
X75369463Y-38222996D01*
X75310883Y-38151616D01*
X75158539Y-38026590D01*
X75158532Y-38026586D01*
X74984733Y-37933688D01*
X74984727Y-37933686D01*
X74796132Y-37876476D01*
X74796129Y-37876475D01*
X74600000Y-37857159D01*
X74403870Y-37876475D01*
X74215266Y-37933688D01*
X74041467Y-38026586D01*
X74041460Y-38026590D01*
X73889116Y-38151616D01*
X73764090Y-38303960D01*
X73764086Y-38303967D01*
X73671188Y-38477766D01*
X73613975Y-38666370D01*
X73594659Y-38862500D01*
X63500500Y-38862500D01*
X63500500Y-36000385D01*
X63501074Y-35988469D01*
X63526136Y-35728867D01*
X63528315Y-35714801D01*
X63580749Y-35470117D01*
X63588480Y-35434038D01*
X63592251Y-35420332D01*
X63684205Y-35148287D01*
X63689520Y-35135110D01*
X63812041Y-34875406D01*
X63818825Y-34862934D01*
X63970319Y-34618959D01*
X63978493Y-34607341D01*
X64156927Y-34382361D01*
X64166375Y-34371759D01*
X64369442Y-34168686D01*
X64380039Y-34159242D01*
X64605021Y-33980796D01*
X64616641Y-33972620D01*
X64860595Y-33821130D01*
X64873077Y-33814339D01*
X65132774Y-33691812D01*
X65145969Y-33686490D01*
X65417992Y-33594533D01*
X65431701Y-33590760D01*
X65712479Y-33530584D01*
X65726527Y-33528408D01*
X66015911Y-33500462D01*
X66022963Y-33499984D01*
X66070316Y-33498144D01*
X66075076Y-33498053D01*
X144809367Y-33500497D01*
G37*
%TD.AperFunction*%
%TD*%
%TA.AperFunction,Conductor*%
%TO.N,/3V8*%
G36*
X137502158Y-83249896D02*
G01*
X138216822Y-83546779D01*
X138321733Y-83590361D01*
X138328059Y-83596700D01*
X138328450Y-83604534D01*
X137902504Y-85021777D01*
X137896841Y-85028713D01*
X137891299Y-85030109D01*
X136909893Y-85030109D01*
X136901620Y-85026682D01*
X136898356Y-85020353D01*
X136659749Y-83604534D01*
X136602296Y-83263626D01*
X136604300Y-83254901D01*
X136611889Y-83250147D01*
X136613812Y-83249984D01*
X137497662Y-83249002D01*
X137502158Y-83249896D01*
G37*
%TD.AperFunction*%
%TD*%
%TA.AperFunction,Conductor*%
%TO.N,/5V6*%
G36*
X132670815Y-40973760D02*
G01*
X133026239Y-41329184D01*
X133029666Y-41337457D01*
X133028284Y-41342973D01*
X132559318Y-42220273D01*
X132552396Y-42225953D01*
X132544539Y-42225573D01*
X132003792Y-42002562D01*
X131997451Y-41996240D01*
X131997437Y-41996207D01*
X131774426Y-41455458D01*
X131774440Y-41446505D01*
X131779725Y-41440681D01*
X132657029Y-40971714D01*
X132665938Y-40970837D01*
X132670815Y-40973760D01*
G37*
%TD.AperFunction*%
%TD*%
%TA.AperFunction,Conductor*%
%TO.N,/5V6*%
G36*
X136719082Y-38799685D02*
G01*
X136724514Y-38805586D01*
X136949128Y-39345492D01*
X136949142Y-39354447D01*
X136949129Y-39354480D01*
X136724522Y-39894394D01*
X136718180Y-39900716D01*
X136710144Y-39901040D01*
X135811177Y-39612554D01*
X135804347Y-39606764D01*
X135803053Y-39601559D01*
X135796949Y-39098679D01*
X135800275Y-39090366D01*
X135805094Y-39087390D01*
X136710160Y-38798932D01*
X136719082Y-38799685D01*
G37*
%TD.AperFunction*%
%TD*%
%TA.AperFunction,Conductor*%
%TO.N,3V3_ADF*%
G36*
X86500182Y-72703427D02*
G01*
X86503609Y-72711700D01*
X86500182Y-72719973D01*
X86494930Y-72723003D01*
X85553010Y-72974740D01*
X85544132Y-72973566D01*
X85538686Y-72966458D01*
X85539860Y-72957580D01*
X85542064Y-72954830D01*
X85815642Y-72703090D01*
X85823564Y-72700000D01*
X86491909Y-72700000D01*
X86500182Y-72703427D01*
G37*
%TD.AperFunction*%
%TD*%
%TA.AperFunction,Conductor*%
%TO.N,/3V8*%
G36*
X137396222Y-85347446D02*
G01*
X137402561Y-85353772D01*
X137402570Y-85353794D01*
X137739925Y-86170621D01*
X137739916Y-86179576D01*
X137733577Y-86185901D01*
X137733520Y-86185924D01*
X136389005Y-86732983D01*
X136380051Y-86732927D01*
X136376228Y-86730324D01*
X136023627Y-86369527D01*
X136020296Y-86361215D01*
X136021151Y-86356957D01*
X136427470Y-85353794D01*
X136564086Y-85016501D01*
X136570367Y-85010121D01*
X136579321Y-85010051D01*
X137396222Y-85347446D01*
G37*
%TD.AperFunction*%
%TD*%
%TA.AperFunction,Conductor*%
%TO.N,3V3_ADF*%
G36*
X93630201Y-54303427D02*
G01*
X93633259Y-54308786D01*
X93940383Y-55503162D01*
X93939125Y-55512028D01*
X93933543Y-55516880D01*
X93254491Y-55799133D01*
X93245536Y-55799144D01*
X93245509Y-55799133D01*
X92566456Y-55516880D01*
X92560132Y-55510540D01*
X92559616Y-55503162D01*
X92866741Y-54308786D01*
X92872120Y-54301627D01*
X92878072Y-54300000D01*
X93621928Y-54300000D01*
X93630201Y-54303427D01*
G37*
%TD.AperFunction*%
%TD*%
%TA.AperFunction,Conductor*%
%TO.N,3V3_ADF*%
G36*
X86580201Y-72903427D02*
G01*
X86583259Y-72908786D01*
X86890383Y-74103162D01*
X86889125Y-74112028D01*
X86883543Y-74116880D01*
X86204491Y-74399133D01*
X86195536Y-74399144D01*
X86195509Y-74399133D01*
X85516456Y-74116880D01*
X85510132Y-74110540D01*
X85509616Y-74103162D01*
X85816741Y-72908786D01*
X85822120Y-72901627D01*
X85828072Y-72900000D01*
X86571928Y-72900000D01*
X86580201Y-72903427D01*
G37*
%TD.AperFunction*%
%TD*%
%TA.AperFunction,Conductor*%
%TO.N,/3V8*%
G36*
X137898938Y-83553427D02*
G01*
X137902073Y-83559102D01*
X138229301Y-84995966D01*
X138227797Y-85004794D01*
X138222381Y-85009369D01*
X137404488Y-85349135D01*
X137395534Y-85349144D01*
X137395512Y-85349135D01*
X136577618Y-85009369D01*
X136571292Y-85003030D01*
X136570698Y-84995967D01*
X136897927Y-83559101D01*
X136903105Y-83551796D01*
X136909335Y-83550000D01*
X137890665Y-83550000D01*
X137898938Y-83553427D01*
G37*
%TD.AperFunction*%
%TD*%
%TA.AperFunction,Conductor*%
%TO.N,/3V8*%
G36*
X86166677Y-85159684D02*
G01*
X86172570Y-85165093D01*
X86752883Y-86281601D01*
X86753658Y-86290522D01*
X86750867Y-86295178D01*
X86397823Y-86656159D01*
X86389588Y-86659677D01*
X86386781Y-86659368D01*
X85005107Y-86334638D01*
X84997837Y-86329409D01*
X84996394Y-86320571D01*
X84996970Y-86318782D01*
X85008642Y-86290522D01*
X85333567Y-85503791D01*
X85339888Y-85497456D01*
X86157725Y-85159675D01*
X86166677Y-85159684D01*
G37*
%TD.AperFunction*%
%TD*%
%TA.AperFunction,Conductor*%
%TO.N,3V3_ADF*%
G36*
X93983153Y-54382957D02*
G01*
X93989477Y-54389297D01*
X93989866Y-54397131D01*
X93633506Y-55581724D01*
X93627841Y-55588660D01*
X93622302Y-55590054D01*
X92878427Y-55590054D01*
X92870154Y-55586627D01*
X92866995Y-55580843D01*
X92796896Y-55258860D01*
X92609167Y-54396555D01*
X92610755Y-54387744D01*
X92616106Y-54383265D01*
X93295510Y-54100865D01*
X93304462Y-54100855D01*
X93983153Y-54382957D01*
G37*
%TD.AperFunction*%
%TD*%
%TA.AperFunction,Conductor*%
%TO.N,3V3_ADF*%
G36*
X93933543Y-56083119D02*
G01*
X93939867Y-56089459D01*
X93940383Y-56096837D01*
X93633259Y-57291214D01*
X93627880Y-57298373D01*
X93621928Y-57300000D01*
X92878072Y-57300000D01*
X92869799Y-57296573D01*
X92866741Y-57291214D01*
X92559616Y-56096837D01*
X92560874Y-56087971D01*
X92566453Y-56083120D01*
X93245510Y-55800865D01*
X93254462Y-55800855D01*
X93933543Y-56083119D01*
G37*
%TD.AperFunction*%
%TD*%
M02*
