M48
; DRILL file {KiCad 8.0.9-8.0.9-0~ubuntu22.04.1} date 2026-02-07T13:45:32+0100
; FORMAT={-:-/ absolute / inch / decimal}
; #@! TF.CreationDate,2026-02-07T13:45:32+01:00
; #@! TF.GenerationSoftware,Kicad,Pcbnew,8.0.9-8.0.9-0~ubuntu22.04.1
; #@! TF.FileFunction,Plated,1,4,PTH
FMAT,2
INCH
; #@! TA.AperFunction,Plated,PTH,ViaDrill
T1C0.0118
; #@! TA.AperFunction,Plated,PTH,ComponentDrill
T2C0.0118
; #@! TA.AperFunction,Plated,PTH,ViaDrill
T3C0.0157
; #@! TA.AperFunction,Plated,PTH,ViaDrill
T4C0.0197
; #@! TA.AperFunction,Plated,PTH,ViaDrill
T5C0.0236
; #@! TA.AperFunction,Plated,PTH,ViaDrill
T6C0.0295
; #@! TA.AperFunction,Plated,PTH,ViaDrill
T7C0.0354
; #@! TA.AperFunction,Plated,PTH,ComponentDrill
T8C0.0394
; #@! TA.AperFunction,Plated,PTH,ComponentDrill
T9C0.0472
; #@! TA.AperFunction,Plated,PTH,ComponentDrill
T10C0.0669
; #@! TA.AperFunction,Plated,PTH,ComponentDrill
T11C0.0709
; #@! TA.AperFunction,Plated,PTH,ViaDrill
T12C0.1260
%
G90
G05
T1
X3.0787Y-1.4803
X3.189Y-1.6614
X3.189Y-1.7008
X3.197Y-1.4959
X3.2185Y-2.0374
X3.2185Y-2.1457
X3.2283Y-2.2441
X3.2283Y-2.3524
X3.2382Y-1.8209
X3.2382Y-1.9291
X3.2913Y-1.5039
X3.2972Y-2.1457
X3.3071Y-1.8209
X3.3071Y-1.9291
X3.3071Y-2.0374
X3.3071Y-2.2441
X3.3071Y-2.3524
X3.3386Y-1.4961
X3.3386Y-2.8268
X3.3425Y-2.6417
X3.3425Y-2.689
X3.3425Y-2.7323
X3.3504Y-2.7795
X3.3661Y-2.2441
X3.376Y-1.8209
X3.376Y-1.9291
X3.376Y-2.0374
X3.376Y-2.1457
X3.376Y-2.3524
X3.378Y-1.4961
X3.4528Y-1.5048
X3.4764Y-2.4724
X3.4843Y-1.8307
X3.4843Y-1.937
X3.4843Y-2.0354
X3.4843Y-2.1555
X3.4843Y-2.252
X3.4843Y-2.3543
X3.4921Y-1.7205
X3.7616Y-1.9986
X3.7671Y-1.9646
X3.7774Y-1.9135
X3.7928Y-1.9409
X3.8484Y-1.9094
X3.9075Y-1.9094
X3.9567Y-1.9094
X4.0118Y-1.6457
X4.0157Y-1.9094
X4.1001Y-1.9302
X4.1732Y-1.9291
X4.1732Y-2.2677
X4.1751Y-1.8977
X4.2618Y-1.624
X4.2767Y-1.9094
X4.311Y-1.9173
X4.343Y-1.9446
X4.4094Y-1.624
X4.5079Y-1.8209
X4.5551Y-2.1772
X4.5846Y-1.628
X4.5866Y-1.5709
X4.6358Y-1.8209
X4.6417Y-2.2559
X4.7835Y-1.8209
X5.0512Y-1.9055
T2
X4.185Y-2.0123
X4.185Y-2.1265
X4.2421Y-2.0123
X4.2421Y-2.1265
X4.2992Y-2.0123
X4.2992Y-2.1265
T3
X2.8162Y-1.3937
X2.9103Y-1.3937
X3.0043Y-1.3937
X3.0983Y-1.3937
X3.1923Y-1.3937
X3.2863Y-1.3937
X3.3803Y-1.3937
X3.4743Y-1.3937
X3.5684Y-1.3937
X3.6624Y-1.3937
X3.7564Y-1.3937
X3.8504Y-1.3937
X3.9444Y-1.3937
X4.189Y-2.0709
X4.2402Y-2.0709
X4.2992Y-2.0709
T4
X2.6427Y-2.3858
X2.6427Y-2.4764
X2.6457Y-2.626
X2.6457Y-2.752
X2.6467Y-2.1969
X2.7165Y-2.8661
X2.718Y-2.622
X2.7559Y-3.4252
X2.7953Y-2.7756
X2.815Y-3.4646
X2.874Y-3.5039
X2.9134Y-2.9921
X2.9331Y-3.5039
X2.937Y-1.53
X2.9685Y-2.7165
X2.9685Y-2.7795
X2.9921Y-3.5039
X3.0118Y-1.8799
X3.0118Y-1.9882
X3.0118Y-2.8543
X3.0315Y-1.7441
X3.0413Y-2.7165
X3.0413Y-2.7854
X3.0472Y-2.4094
X3.0512Y-3.5039
X3.0664Y-1.9882
X3.0704Y-2.0945
X3.0709Y-1.8819
X3.0709Y-2.189
X3.0709Y-2.3071
X3.0945Y-1.6693
X3.1102Y-2.8543
X3.1102Y-3.5039
X3.1693Y-3.0394
X3.1693Y-3.0984
X3.1693Y-3.1575
X3.1693Y-3.2087
X3.1693Y-3.5039
X3.1732Y-2.5
X3.2283Y-2.8701
X3.2283Y-3.5039
X3.2303Y-3.0433
X3.248Y-3.2087
X3.2638Y-3.0945
X3.2874Y-3.5039
X3.2992Y-3.0433
X3.3031Y-1.7283
X3.3268Y-3.2205
X3.3346Y-3.0906
X3.3465Y-3.5039
X3.3976Y-3.2205
X3.4055Y-3.5039
X3.4646Y-3.5039
X3.4724Y-3.2638
X3.4724Y-3.3189
X3.4744Y-2.8642
X3.4744Y-2.9331
X3.4744Y-3.002
X3.4744Y-3.061
X3.4744Y-3.1299
X3.4744Y-3.1988
X3.5236Y-2.1969
X3.5236Y-3.5039
X3.5335Y-1.9882
X3.5335Y-2.0768
X3.5354Y-2.2933
X3.5399Y-2.4094
X3.5433Y-1.8799
X3.5551Y-1.7283
X3.5669Y-1.6339
X3.5827Y-3.5039
X3.5925Y-2.3819
X3.5984Y-1.5433
X3.6024Y-1.7283
X3.6181Y-2.3228
X3.6319Y-2.7559
X3.6378Y-3.2087
X3.6417Y-3.5039
X3.6929Y-1.5433
X3.6929Y-2.9843
X3.7008Y-2.7559
X3.7008Y-3.5039
X3.7067Y-3.2087
X3.7303Y-2.1555
X3.7303Y-2.4213
X3.7402Y-3.1693
X3.7598Y-3.5039
X3.7697Y-2.4606
X3.7697Y-2.7559
X3.7717Y-1.5827
X3.7756Y-3.2087
X3.7795Y-1.7953
X3.7874Y-2.0283
X3.7953Y-2.3386
X3.7992Y-2.878
X3.7992Y-3.0827
X3.8071Y-3.1693
X3.8189Y-3.5039
X3.8268Y-2.2047
X3.8307Y-2.4646
X3.8346Y-1.5827
X3.8386Y-2.7559
X3.8425Y-2.3583
X3.8445Y-3.2087
X3.878Y-3.1654
X3.878Y-3.5039
X3.8858Y-2.2047
X3.8898Y-1.5827
X3.8898Y-2.5945
X3.9016Y-2.4016
X3.9028Y-1.6745
X3.9075Y-2.7559
X3.9134Y-3.2087
X3.9213Y-2.0236
X3.937Y-3.5039
X3.9528Y-2.2047
X3.9567Y-1.7347
X3.9685Y-2.4016
X3.9685Y-3.2087
X3.9961Y-3.5039
X4.0Y-3.2559
X4.0079Y-1.6024
X4.0157Y-1.7347
X4.0197Y-2.2047
X4.0315Y-2.0276
X4.0315Y-2.4016
X4.0394Y-3.2972
X4.0551Y-3.5039
X4.0846Y-1.7347
X4.0984Y-2.4016
X4.1142Y-3.5039
X4.1575Y-1.7402
X4.1575Y-2.4016
X4.1614Y-2.3465
X4.1703Y-1.796
X4.1732Y-3.5039
X4.2323Y-3.5039
X4.2717Y-2.6063
X4.2913Y-3.5039
X4.2992Y-2.3425
X4.2992Y-2.4016
X4.3031Y-2.2638
X4.3228Y-2.5748
X4.3386Y-2.4488
X4.3425Y-1.6969
X4.3425Y-1.7677
X4.3465Y-1.626
X4.3465Y-1.8346
X4.3504Y-3.5039
X4.3647Y-2.5734
X4.3819Y-2.4488
X4.3898Y-1.9213
X4.4094Y-3.5039
X4.4488Y-2.6299
X4.4685Y-2.2638
X4.4685Y-3.5039
X4.5118Y-1.626
X4.5276Y-3.5039
X4.5354Y-2.4409
X4.5472Y-2.2638
X4.5571Y-2.2146
X4.5748Y-1.8189
X4.5787Y-1.7362
X4.5866Y-2.4409
X4.5866Y-3.5039
X4.6437Y-1.7362
X4.6457Y-3.5039
X4.6693Y-2.5433
X4.6752Y-1.811
X4.7047Y-3.5039
X4.7126Y-1.7362
X4.7205Y-2.4488
X4.7205Y-2.4961
X4.7205Y-2.5433
X4.7283Y-1.5945
X4.7441Y-1.811
X4.7638Y-3.5039
X4.7795Y-1.7362
X4.7933Y-1.8701
X4.7933Y-1.9291
X4.8228Y-3.5039
X4.8425Y-2.0276
X4.8583Y-2.4134
X4.8819Y-3.5039
X4.9094Y-1.5866
X4.9114Y-2.0276
X4.9134Y-1.8307
X4.9173Y-1.9724
X4.9213Y-2.2146
X4.9213Y-2.4134
X4.9291Y-3.2835
X4.9409Y-3.5039
X4.9685Y-2.748
X4.9685Y-2.8071
X4.9685Y-2.8701
X4.9685Y-3.0512
X4.9685Y-3.1102
X4.9685Y-3.1732
X4.9685Y-3.2323
X4.9803Y-2.0276
X4.9803Y-2.0866
X4.9803Y-2.4134
X4.9921Y-1.5866
X5.0Y-3.5039
X5.0492Y-2.0866
X5.0591Y-3.5039
X5.0669Y-1.7717
X5.0709Y-2.5197
X5.1181Y-3.5039
X5.1339Y-1.8425
X5.1496Y-1.8937
X5.1772Y-3.5039
X5.2047Y-1.7283
X5.2067Y-2.1516
X5.2087Y-1.9528
X5.2205Y-2.3228
X5.2205Y-2.374
X5.2362Y-3.5039
X5.2953Y-3.5039
X5.3543Y-3.5039
X5.3937Y-1.4921
X5.4134Y-3.4331
X5.4134Y-3.5039
X5.4724Y-3.5039
X5.5315Y-3.5039
X5.5906Y-3.4685
X5.6496Y-3.4252
T5
X5.1969Y-1.6535
X5.3917Y-1.5492
T6
X2.5591Y-1.5748
X2.5591Y-1.6709
X2.5591Y-1.767
X2.5591Y-1.8631
X2.5591Y-1.9592
X2.5591Y-2.0553
X2.5591Y-2.1561
X2.5591Y-2.2522
X2.5591Y-2.3483
X2.5591Y-2.4444
X2.5591Y-2.5405
X2.5591Y-2.6366
X2.5591Y-2.7327
X2.5591Y-2.8289
X2.622Y-2.9134
X2.6378Y-1.4764
X2.6378Y-1.5725
X2.6378Y-1.6686
X2.6378Y-1.7647
X2.6378Y-1.8608
X2.6378Y-1.9569
X2.6378Y-2.053
X2.7008Y-2.9843
X2.7165Y-1.4341
X2.7913Y-3.0472
X2.8976Y-3.126
X2.9291Y-3.2244
X2.9291Y-3.3268
X3.0177Y-3.4055
X3.118Y-3.4055
X3.2146Y-3.4055
X3.3071Y-3.4449
X3.3937Y-2.8622
X3.3937Y-2.9291
X3.4016Y-3.0037
X3.4764Y-3.3819
X3.563Y-2.5417
X3.563Y-2.6361
X3.563Y-2.7306
X3.563Y-2.825
X3.563Y-2.9195
X3.563Y-3.0139
X3.563Y-3.1084
X3.563Y-3.2028
X3.5787Y-3.376
X3.6713Y-2.1969
X3.6732Y-2.1299
X3.675Y-3.376
X3.7106Y-2.6654
X3.7713Y-3.376
X3.7977Y-2.6654
X3.8675Y-3.376
X3.8848Y-2.6654
X3.9638Y-3.376
X3.9718Y-2.6654
X4.0379Y-1.4016
X4.0589Y-2.6654
X4.0601Y-3.376
X4.0747Y-2.0631
X4.0846Y-2.1555
X4.1102Y-2.2126
X4.132Y-1.4016
X4.146Y-2.6654
X4.1563Y-3.376
X4.2126Y-1.4843
X4.226Y-1.4016
X4.233Y-2.6654
X4.2526Y-3.376
X4.3087Y-1.4843
X4.32Y-1.4016
X4.3201Y-2.6654
X4.3489Y-3.376
X4.3701Y-2.185
X4.4048Y-1.4843
X4.4072Y-2.6654
X4.414Y-1.4016
X4.4331Y-2.4843
X4.4451Y-3.376
X4.4942Y-2.6654
X4.5009Y-1.4843
X4.508Y-1.4016
X4.5414Y-3.376
X4.5669Y-2.0866
X4.5813Y-2.6654
X4.597Y-1.4843
X4.602Y-1.4016
X4.626Y-2.4843
X4.6377Y-3.376
X4.6535Y-2.3937
X4.6684Y-2.6654
X4.6931Y-1.4843
X4.696Y-1.4016
X4.7539Y-2.1555
X4.7539Y-2.2244
X4.7555Y-2.6654
X4.7893Y-1.4843
X4.7901Y-1.4016
X4.813Y-2.3031
X4.8425Y-2.4843
X4.8425Y-2.6575
X4.8622Y-2.2047
X4.8819Y-1.4843
X4.8841Y-1.4016
X4.8982Y-3.372
X4.9016Y-2.2835
X4.9213Y-2.4843
X4.9213Y-2.5551
X4.9291Y-2.6811
X4.978Y-1.4843
X4.9781Y-1.4016
X4.9945Y-3.372
X5.0079Y-2.5551
X5.0721Y-1.4016
X5.0741Y-1.4843
X5.0907Y-3.372
X5.1661Y-1.4016
X5.1673Y-1.4843
X5.187Y-3.372
X5.1929Y-2.748
X5.1929Y-2.8441
X5.1929Y-2.9472
X5.1929Y-3.0433
X5.1929Y-3.1417
X5.1929Y-3.2378
X5.2087Y-2.4252
X5.2087Y-2.6181
X5.2601Y-1.4016
X5.2913Y-1.4921
X5.2953Y-1.6414
X5.2953Y-1.7375
X5.2953Y-1.8336
X5.2953Y-1.9297
X5.2953Y-2.0258
X5.2953Y-2.1219
X5.2953Y-2.218
X5.2953Y-2.3188
X5.2953Y-2.4149
X5.2953Y-2.511
X5.2953Y-2.6071
X5.2953Y-2.7032
X5.2953Y-2.7993
X5.2953Y-2.8954
X5.2953Y-2.9915
X5.2953Y-3.0877
X5.2953Y-3.1838
X5.2953Y-3.2799
X5.2953Y-3.3701
X5.3465Y-1.4016
X5.4426Y-1.4016
X5.6378Y-1.8819
X5.6417Y-2.5984
X5.6417Y-2.9764
X5.6417Y-3.0551
X5.6457Y-2.7008
X5.6457Y-2.8819
X5.6496Y-2.0748
X5.7323Y-2.9764
X5.7323Y-3.0551
X5.7362Y-1.7756
X5.7362Y-1.8819
X5.7362Y-2.1024
X5.7362Y-2.1985
X5.7362Y-2.2946
X5.7362Y-2.3907
X5.7362Y-2.5984
X5.7362Y-2.7008
X5.7362Y-2.8819
T7
X3.3597Y-3.3661
X5.4094Y-3.3602
X5.4134Y-3.2776
T8
X2.8346Y-1.6929
X2.8346Y-1.7929
X2.8346Y-1.8929
X2.8346Y-1.9929
X2.8346Y-2.0929
X2.8346Y-2.1929
X2.8346Y-2.2929
X2.8346Y-2.3929
X2.8346Y-2.4929
X2.8346Y-2.5929
X2.9346Y-1.6929
X2.9346Y-1.7929
X2.9346Y-1.8929
X2.9346Y-1.9929
X2.9346Y-2.0929
X2.9346Y-2.1929
X2.9346Y-2.2929
X2.9346Y-2.3929
X2.9346Y-2.4929
X2.9346Y-2.5929
X5.5171Y-2.1982
X5.5171Y-2.2982
X5.6171Y-2.1982
X5.6171Y-2.2982
T9
X3.7992Y-2.9823
T10
X3.6992Y-2.8823
X3.6992Y-3.0823
X3.8992Y-2.8823
X3.8992Y-3.0823
T11
X4.1024Y-1.4764
X4.7677Y-3.3661
T12
X2.7362Y-3.2677
X5.6102Y-1.5748
X5.6102Y-3.2677
M30
