%TF.GenerationSoftware,KiCad,Pcbnew,8.0.9-8.0.9-0~ubuntu22.04.1*%
%TF.CreationDate,2026-02-07T13:45:35+01:00*%
%TF.ProjectId,HW_0008_PrestoLO_2GHz_rev01a,48575f30-3030-4385-9f50-726573746f4c,rev?*%
%TF.SameCoordinates,Original*%
%TF.FileFunction,Copper,L4,Bot*%
%TF.FilePolarity,Positive*%
%FSLAX46Y46*%
G04 Gerber Fmt 4.6, Leading zero omitted, Abs format (unit mm)*
G04 Created by KiCad (PCBNEW 8.0.9-8.0.9-0~ubuntu22.04.1) date 2026-02-07 13:45:35*
%MOMM*%
%LPD*%
G01*
G04 APERTURE LIST*
G04 Aperture macros list*
%AMRoundRect*
0 Rectangle with rounded corners*
0 $1 Rounding radius*
0 $2 $3 $4 $5 $6 $7 $8 $9 X,Y pos of 4 corners*
0 Add a 4 corners polygon primitive as box body*
4,1,4,$2,$3,$4,$5,$6,$7,$8,$9,$2,$3,0*
0 Add four circle primitives for the rounded corners*
1,1,$1+$1,$2,$3*
1,1,$1+$1,$4,$5*
1,1,$1+$1,$6,$7*
1,1,$1+$1,$8,$9*
0 Add four rect primitives between the rounded corners*
20,1,$1+$1,$2,$3,$4,$5,0*
20,1,$1+$1,$4,$5,$6,$7,0*
20,1,$1+$1,$6,$7,$8,$9,0*
20,1,$1+$1,$8,$9,$2,$3,0*%
G04 Aperture macros list end*
%TA.AperFunction,ComponentPad*%
%ADD10C,2.286000*%
%TD*%
%TA.AperFunction,HeatsinkPad*%
%ADD11C,0.600000*%
%TD*%
%TA.AperFunction,HeatsinkPad*%
%ADD12R,3.500000X3.500000*%
%TD*%
%TA.AperFunction,ComponentPad*%
%ADD13R,1.700000X1.700000*%
%TD*%
%TA.AperFunction,ComponentPad*%
%ADD14O,1.700000X1.700000*%
%TD*%
%TA.AperFunction,SMDPad,CuDef*%
%ADD15RoundRect,0.250000X-0.450000X0.350000X-0.450000X-0.350000X0.450000X-0.350000X0.450000X0.350000X0*%
%TD*%
%TA.AperFunction,SMDPad,CuDef*%
%ADD16RoundRect,0.237500X0.237500X-0.300000X0.237500X0.300000X-0.237500X0.300000X-0.237500X-0.300000X0*%
%TD*%
%TA.AperFunction,SMDPad,CuDef*%
%ADD17RoundRect,0.237500X-0.250000X-0.237500X0.250000X-0.237500X0.250000X0.237500X-0.250000X0.237500X0*%
%TD*%
%TA.AperFunction,SMDPad,CuDef*%
%ADD18RoundRect,0.237500X-0.237500X0.250000X-0.237500X-0.250000X0.237500X-0.250000X0.237500X0.250000X0*%
%TD*%
%TA.AperFunction,SMDPad,CuDef*%
%ADD19RoundRect,0.150000X0.512500X0.150000X-0.512500X0.150000X-0.512500X-0.150000X0.512500X-0.150000X0*%
%TD*%
%TA.AperFunction,SMDPad,CuDef*%
%ADD20RoundRect,0.237500X0.300000X0.237500X-0.300000X0.237500X-0.300000X-0.237500X0.300000X-0.237500X0*%
%TD*%
%TA.AperFunction,SMDPad,CuDef*%
%ADD21RoundRect,0.237500X0.250000X0.237500X-0.250000X0.237500X-0.250000X-0.237500X0.250000X-0.237500X0*%
%TD*%
%TA.AperFunction,SMDPad,CuDef*%
%ADD22RoundRect,0.237500X-0.237500X0.287500X-0.237500X-0.287500X0.237500X-0.287500X0.237500X0.287500X0*%
%TD*%
%TA.AperFunction,SMDPad,CuDef*%
%ADD23RoundRect,0.237500X-0.237500X0.300000X-0.237500X-0.300000X0.237500X-0.300000X0.237500X0.300000X0*%
%TD*%
%TA.AperFunction,ComponentPad*%
%ADD24C,2.240000*%
%TD*%
%TA.AperFunction,ComponentPad*%
%ADD25C,2.740000*%
%TD*%
%TA.AperFunction,ViaPad*%
%ADD26C,1.800000*%
%TD*%
%TA.AperFunction,ViaPad*%
%ADD27C,1.000000*%
%TD*%
%TA.AperFunction,ViaPad*%
%ADD28C,1.500000*%
%TD*%
%TA.AperFunction,ViaPad*%
%ADD29C,0.800000*%
%TD*%
%TA.AperFunction,ViaPad*%
%ADD30C,0.600000*%
%TD*%
%TA.AperFunction,ViaPad*%
%ADD31C,5.000000*%
%TD*%
%TA.AperFunction,ViaPad*%
%ADD32C,0.700000*%
%TD*%
%TA.AperFunction,ViaPad*%
%ADD33C,1.200000*%
%TD*%
%TA.AperFunction,Conductor*%
%ADD34C,0.507000*%
%TD*%
%TA.AperFunction,Conductor*%
%ADD35C,0.254000*%
%TD*%
%TA.AperFunction,Conductor*%
%ADD36C,0.762000*%
%TD*%
%TA.AperFunction,Conductor*%
%ADD37C,0.200000*%
%TD*%
G04 APERTURE END LIST*
D10*
%TO.P,J103,1,Shield*%
%TO.N,GND*%
X104200000Y-37500000D03*
X121100000Y-85500000D03*
%TD*%
D11*
%TO.P,U105,33,PAD*%
%TO.N,GND*%
X106300000Y-51112500D03*
X106300000Y-54012500D03*
X107750000Y-51112500D03*
D12*
X107750000Y-52562500D03*
D11*
X107750000Y-54012500D03*
X109200000Y-51112500D03*
X109200000Y-54012500D03*
%TD*%
D13*
%TO.P,J101,1,Pin_1*%
%TO.N,GND*%
X72000000Y-43000000D03*
D14*
%TO.P,J101,2,Pin_2*%
%TO.N,unconnected-(J101-Pin_2-Pad2)*%
X74540000Y-43000000D03*
%TO.P,J101,3,Pin_3*%
%TO.N,GND*%
X72000000Y-45540000D03*
%TO.P,J101,4,Pin_4*%
%TO.N,Fref_IN*%
X74540000Y-45540000D03*
%TO.P,J101,5,Pin_5*%
%TO.N,Mute_RF*%
X72000000Y-48080000D03*
%TO.P,J101,6,Pin_6*%
%TO.N,LD*%
X74540000Y-48080000D03*
%TO.P,J101,7,Pin_7*%
%TO.N,DATA*%
X72000000Y-50620000D03*
%TO.P,J101,8,Pin_8*%
%TO.N,CLK*%
X74540000Y-50620000D03*
%TO.P,J101,9,Pin_9*%
%TO.N,CE*%
X72000000Y-53160000D03*
%TO.P,J101,10,Pin_10*%
%TO.N,LE*%
X74540000Y-53160000D03*
%TO.P,J101,11,Pin_11*%
%TO.N,unconnected-(J101-Pin_11-Pad11)*%
X72000000Y-55700000D03*
%TO.P,J101,12,Pin_12*%
%TO.N,MUX*%
X74540000Y-55700000D03*
%TO.P,J101,13,Pin_13*%
%TO.N,GND*%
X72000000Y-58240000D03*
%TO.P,J101,14,Pin_14*%
X74540000Y-58240000D03*
%TO.P,J101,15,Pin_15*%
%TO.N,LO_Buff_EN*%
X72000000Y-60780000D03*
%TO.P,J101,16,Pin_16*%
%TO.N,unconnected-(J101-Pin_16-Pad16)*%
X74540000Y-60780000D03*
%TO.P,J101,17,Pin_17*%
%TO.N,I2C_SCL*%
X72000000Y-63320000D03*
%TO.P,J101,18,Pin_18*%
%TO.N,I2C_SDA*%
X74540000Y-63320000D03*
%TO.P,J101,19,Pin_19*%
%TO.N,GND*%
X72000000Y-65860000D03*
%TO.P,J101,20,Pin_20*%
X74540000Y-65860000D03*
%TD*%
D15*
%TO.P,R121,1*%
%TO.N,Net-(U106-A0)*%
X87100000Y-68687500D03*
%TO.P,R121,2*%
%TO.N,GND*%
X87100000Y-70687500D03*
%TD*%
D16*
%TO.P,C138,1*%
%TO.N,GND*%
X88600000Y-40662500D03*
%TO.P,C138,2*%
%TO.N,Net-(U103-VOUT)*%
X88600000Y-38937500D03*
%TD*%
D17*
%TO.P,R112,1*%
%TO.N,Net-(U103-VOUT)*%
X90487500Y-40200000D03*
%TO.P,R112,2*%
%TO.N,Net-(U104-VC)*%
X92312500Y-40200000D03*
%TD*%
D15*
%TO.P,R117,1*%
%TO.N,Net-(U106-A2)*%
X83300000Y-68687500D03*
%TO.P,R117,2*%
%TO.N,GND*%
X83300000Y-70687500D03*
%TD*%
D18*
%TO.P,R111,1*%
%TO.N,3V3_VCTCXO*%
X100200000Y-39387500D03*
%TO.P,R111,2*%
%TO.N,Net-(FB110-Pad1)*%
X100200000Y-41212500D03*
%TD*%
%TO.P,R110,1*%
%TO.N,Net-(U105-CE)*%
X87300000Y-59487500D03*
%TO.P,R110,2*%
%TO.N,3V3_ADF*%
X87300000Y-61312500D03*
%TD*%
D15*
%TO.P,R120,1*%
%TO.N,3V3_ADF*%
X87100000Y-64600000D03*
%TO.P,R120,2*%
%TO.N,Net-(U106-A0)*%
X87100000Y-66600000D03*
%TD*%
D19*
%TO.P,U103,1,VOUT*%
%TO.N,Net-(U103-VOUT)*%
X86675000Y-38850000D03*
%TO.P,U103,2,VSS*%
%TO.N,GND*%
X86675000Y-39800000D03*
%TO.P,U103,3,VDD*%
%TO.N,Net-(U103-VDD)*%
X86675000Y-40750000D03*
%TO.P,U103,4,SDA*%
%TO.N,Net-(U103-SDA)*%
X84400000Y-40750000D03*
%TO.P,U103,5,SCL*%
%TO.N,Net-(U103-SCL)*%
X84400000Y-39800000D03*
%TO.P,U103,6,A0*%
%TO.N,GND*%
X84400000Y-38850000D03*
%TD*%
D20*
%TO.P,C124,1*%
%TO.N,GND*%
X87462500Y-43900000D03*
%TO.P,C124,2*%
%TO.N,Net-(U103-VDD)*%
X85737500Y-43900000D03*
%TD*%
D16*
%TO.P,C118,1*%
%TO.N,GND*%
X82400000Y-42662500D03*
%TO.P,C118,2*%
%TO.N,Net-(U103-SDA)*%
X82400000Y-40937500D03*
%TD*%
%TO.P,C119,1*%
%TO.N,GND*%
X87000000Y-47262500D03*
%TO.P,C119,2*%
%TO.N,Net-(U103-VDD)*%
X87000000Y-45537500D03*
%TD*%
D15*
%TO.P,R118,1*%
%TO.N,3V3_ADF*%
X79500000Y-64600000D03*
%TO.P,R118,2*%
%TO.N,Net-(U106-A1)*%
X79500000Y-66600000D03*
%TD*%
D21*
%TO.P,R113,1*%
%TO.N,Fref_IN*%
X103012500Y-42800000D03*
%TO.P,R113,2*%
%TO.N,VCTCXO_Out*%
X101187500Y-42800000D03*
%TD*%
D15*
%TO.P,R119,1*%
%TO.N,Net-(U106-A1)*%
X79500000Y-68687500D03*
%TO.P,R119,2*%
%TO.N,GND*%
X79500000Y-70687500D03*
%TD*%
D13*
%TO.P,J102,1,Pin_1*%
%TO.N,Net-(J102-Pin_1)*%
X142675000Y-58375000D03*
D14*
%TO.P,J102,2,Pin_2*%
%TO.N,GND*%
X142675000Y-55835000D03*
%TO.P,J102,3,Pin_3*%
X140135000Y-58375000D03*
%TO.P,J102,4,Pin_4*%
%TO.N,Net-(J102-Pin_4)*%
X140135000Y-55835000D03*
%TD*%
D22*
%TO.P,FB102,1*%
%TO.N,Net-(U103-VDD)*%
X91200000Y-46325000D03*
%TO.P,FB102,2*%
%TO.N,3V3_ADF*%
X91200000Y-48075000D03*
%TD*%
D17*
%TO.P,R102,1*%
%TO.N,I2C_SDA*%
X78800000Y-40800000D03*
%TO.P,R102,2*%
%TO.N,Net-(U103-SDA)*%
X80625000Y-40800000D03*
%TD*%
D23*
%TO.P,C114,1*%
%TO.N,GND*%
X77000000Y-37537500D03*
%TO.P,C114,2*%
%TO.N,I2C_SCL*%
X77000000Y-39262500D03*
%TD*%
D15*
%TO.P,R116,1*%
%TO.N,3V3_ADF*%
X83300000Y-64600000D03*
%TO.P,R116,2*%
%TO.N,Net-(U106-A2)*%
X83300000Y-66600000D03*
%TD*%
D22*
%TO.P,FB110,1*%
%TO.N,Net-(FB110-Pad1)*%
X97800000Y-41925000D03*
%TO.P,FB110,2*%
%TO.N,Net-(U104-VDD)*%
X97800000Y-43675000D03*
%TD*%
D24*
%TO.P,J104,1,In*%
%TO.N,Net-(J104-In)*%
X96500000Y-75750000D03*
D25*
%TO.P,J104,2,Ext*%
%TO.N,GND*%
X93960000Y-73210000D03*
X93960000Y-78290000D03*
X99040000Y-73210000D03*
X99040000Y-78290000D03*
%TD*%
D17*
%TO.P,R101,1*%
%TO.N,I2C_SCL*%
X78800000Y-39200000D03*
%TO.P,R101,2*%
%TO.N,Net-(U103-SCL)*%
X80625000Y-39200000D03*
%TD*%
D20*
%TO.P,C127,1*%
%TO.N,GND*%
X87462500Y-42300000D03*
%TO.P,C127,2*%
%TO.N,Net-(U103-VDD)*%
X85737500Y-42300000D03*
%TD*%
%TO.P,C169,1*%
%TO.N,Net-(U105-REF_{IN})*%
X104362500Y-45600000D03*
%TO.P,C169,2*%
%TO.N,VCTCXO_Out*%
X102637500Y-45600000D03*
%TD*%
D16*
%TO.P,C107,1*%
%TO.N,GND*%
X77000000Y-42662500D03*
%TO.P,C107,2*%
%TO.N,I2C_SDA*%
X77000000Y-40937500D03*
%TD*%
D23*
%TO.P,C121,1*%
%TO.N,GND*%
X82400000Y-37475000D03*
%TO.P,C121,2*%
%TO.N,Net-(U103-SCL)*%
X82400000Y-39200000D03*
%TD*%
D26*
%TO.N,/3V8*%
X85336136Y-85500000D03*
X137400000Y-85350000D03*
D27*
X69037500Y-66600000D03*
X74600000Y-38862500D03*
D26*
X137500000Y-83250000D03*
D27*
%TO.N,GND*%
X89800000Y-58250000D03*
X126200000Y-71300000D03*
D28*
X124414433Y-85650000D03*
D27*
X85000000Y-89000000D03*
X78000000Y-58600000D03*
X83500000Y-89000000D03*
D28*
X145700000Y-45100000D03*
D27*
X75400000Y-70600000D03*
D28*
X116891658Y-35600000D03*
D27*
X121000000Y-89000000D03*
D29*
X97800000Y-35400000D03*
D27*
X100500000Y-44062500D03*
D28*
X116365380Y-67700000D03*
D27*
X89500000Y-89000000D03*
D28*
X67000000Y-42382352D03*
D27*
X126200000Y-82100000D03*
X88250000Y-79500000D03*
D28*
X138241176Y-35600000D03*
D27*
X109200000Y-61000000D03*
X102400000Y-51500000D03*
D30*
X83750000Y-54500000D03*
D27*
X119900000Y-62200000D03*
X109000000Y-89000000D03*
X84700000Y-78500000D03*
X126500000Y-61300000D03*
D30*
X85750000Y-51750000D03*
D28*
X117797057Y-85750000D03*
X129304807Y-85650000D03*
X118576918Y-67700000D03*
D27*
X98800000Y-40200000D03*
D30*
X85500000Y-57000000D03*
D27*
X98700000Y-56000000D03*
X80500000Y-81500000D03*
D28*
X103125935Y-85750000D03*
D30*
X81203284Y-37994963D03*
D27*
X126200000Y-69800000D03*
D28*
X145700000Y-53400000D03*
D27*
X109300000Y-57500000D03*
X73000000Y-89000000D03*
D28*
X76650000Y-86500000D03*
X114323528Y-37700000D03*
D27*
X118750000Y-46000000D03*
X94000000Y-89000000D03*
X88250000Y-81250000D03*
X82000000Y-72900000D03*
D28*
X116764704Y-37700000D03*
D27*
X67125000Y-62900000D03*
D28*
X107000000Y-37700000D03*
D27*
X119900000Y-63400000D03*
D30*
X106000000Y-49000000D03*
D27*
X89750000Y-50500000D03*
D28*
X90500000Y-69356618D03*
D27*
X114600000Y-41300000D03*
D31*
X142500000Y-40000000D03*
D27*
X104100000Y-61000000D03*
X80600000Y-63500000D03*
X91900000Y-59000000D03*
X126200000Y-79000000D03*
X105600000Y-44200000D03*
X67200000Y-66700000D03*
D28*
X67000000Y-52147056D03*
D27*
X99250000Y-70000000D03*
X120100000Y-40500000D03*
X92400000Y-81500000D03*
X139000000Y-89000000D03*
D30*
X83600000Y-38200000D03*
D28*
X143300000Y-77600000D03*
D30*
X108250000Y-41250000D03*
D28*
X65000000Y-54764712D03*
D29*
X88248152Y-35400000D03*
D27*
X118600000Y-64600000D03*
D30*
X85750000Y-54500000D03*
D28*
X134500000Y-73544120D03*
X123000000Y-63100000D03*
X109727772Y-35600000D03*
X128882360Y-37700000D03*
D30*
X82000000Y-59750000D03*
D28*
X74400000Y-84500000D03*
D27*
X80500000Y-89000000D03*
D28*
X114503696Y-35600000D03*
D27*
X96400000Y-59400000D03*
D28*
X114153842Y-67700000D03*
D27*
X88000000Y-89000000D03*
D28*
X143400000Y-68600000D03*
X145700000Y-58282352D03*
X145600000Y-77600000D03*
D30*
X108627000Y-48500000D03*
D27*
X69000000Y-72800000D03*
D30*
X102000000Y-48500000D03*
D27*
X117950000Y-44100000D03*
X89750000Y-52750000D03*
X111500000Y-48800000D03*
X99400000Y-81500000D03*
D28*
X134400000Y-37900000D03*
X121667582Y-35600000D03*
D27*
X137500000Y-89000000D03*
X76000000Y-89000000D03*
D28*
X90500000Y-78952206D03*
X131900000Y-74858824D03*
X107339810Y-35600000D03*
D27*
X121750000Y-47500000D03*
X82500000Y-81500000D03*
X110300000Y-44900000D03*
X83900000Y-43900000D03*
X96500000Y-78300000D03*
D30*
X117900000Y-57300000D03*
D28*
X145700000Y-73200000D03*
D30*
X117750000Y-46250000D03*
D28*
X119279620Y-35600000D03*
X100884614Y-67700000D03*
D27*
X127000000Y-89000000D03*
D28*
X105571122Y-85750000D03*
X111882352Y-37700000D03*
D27*
X77400000Y-61200000D03*
D28*
X121647056Y-37700000D03*
X131900000Y-72241176D03*
D27*
X76500000Y-50500000D03*
D28*
X133607392Y-35600000D03*
D27*
X100800000Y-61000000D03*
X121400000Y-44100000D03*
X82000000Y-89000000D03*
X80500000Y-80200000D03*
X132250000Y-54650000D03*
D28*
X65000000Y-66970592D03*
X134500000Y-85600000D03*
D30*
X100500000Y-48500000D03*
D28*
X131900000Y-77300000D03*
D27*
X115500000Y-57500000D03*
X126800000Y-40300000D03*
X132300000Y-49600000D03*
D28*
X65000000Y-44882352D03*
D27*
X94750000Y-61500000D03*
D28*
X109441176Y-37700000D03*
D27*
X133000000Y-89000000D03*
D29*
X83472228Y-35400000D03*
D27*
X77887500Y-50500000D03*
X112000000Y-89000000D03*
X132600000Y-59000000D03*
D28*
X134500000Y-63779416D03*
X126441176Y-37700000D03*
X93345187Y-85750000D03*
D27*
X126200000Y-77500000D03*
D30*
X128300000Y-48400000D03*
X84800000Y-71800000D03*
D28*
X65000000Y-64529416D03*
D27*
X116500000Y-89000000D03*
D28*
X125000000Y-64900000D03*
D29*
X71532418Y-35400000D03*
D28*
X132300000Y-66500000D03*
D27*
X86500000Y-89000000D03*
X94150000Y-81500000D03*
D28*
X65000000Y-69411768D03*
D27*
X98500000Y-80400000D03*
X97000000Y-89000000D03*
X115200000Y-62000000D03*
X140500000Y-89000000D03*
X95750000Y-62500000D03*
D28*
X120788456Y-67700000D03*
D27*
X67225000Y-55800000D03*
X96200000Y-51519000D03*
X88200000Y-82900000D03*
X102400000Y-61000000D03*
D28*
X124500000Y-58000000D03*
D27*
X97300000Y-62600000D03*
D28*
X69000000Y-36426472D03*
D27*
X109200000Y-59500000D03*
D28*
X145700000Y-60723528D03*
D27*
X116200000Y-46200000D03*
X76500000Y-47750000D03*
X113500000Y-57500000D03*
D28*
X108016309Y-85750000D03*
D27*
X134500000Y-89000000D03*
X123400000Y-61300000D03*
X93800000Y-75800000D03*
D29*
X100187962Y-35400000D03*
D28*
X88300000Y-85900000D03*
D27*
X128250000Y-53000000D03*
X113500000Y-89000000D03*
X97500000Y-70000000D03*
D28*
X65000000Y-42441176D03*
D27*
X110500000Y-89000000D03*
X126500000Y-53000000D03*
X126200000Y-80600000D03*
X92250000Y-70000000D03*
D28*
X134500000Y-51455880D03*
D30*
X82250000Y-49000000D03*
D27*
X95500000Y-89000000D03*
D28*
X143400000Y-73200000D03*
D27*
X124800000Y-46500000D03*
X125500000Y-89000000D03*
D30*
X84000000Y-57000000D03*
D28*
X145700000Y-55841176D03*
D27*
X67200000Y-69900000D03*
D28*
X90500000Y-66957721D03*
X98235561Y-85750000D03*
X145700000Y-47800000D03*
X67000000Y-37500000D03*
D27*
X95750000Y-70000000D03*
D28*
X145700000Y-68600000D03*
X143200000Y-47800000D03*
X65000000Y-62088240D03*
D32*
X109200000Y-52600000D03*
D27*
X70000000Y-87000000D03*
D28*
X112115734Y-35600000D03*
X65000000Y-40000000D03*
D27*
X102000000Y-44062500D03*
X89500000Y-55800000D03*
X136000000Y-89000000D03*
X91000000Y-89000000D03*
X75400000Y-69000000D03*
D28*
X90900000Y-85750000D03*
D27*
X88250000Y-77750000D03*
X123000000Y-51500000D03*
D30*
X81000000Y-42200000D03*
D27*
X106000000Y-89000000D03*
D28*
X86400000Y-76293750D03*
D27*
X78000000Y-55600000D03*
D28*
X65000000Y-49764704D03*
X123000000Y-67500000D03*
D27*
X79000000Y-89000000D03*
D28*
X67000000Y-49705880D03*
X134500000Y-75985296D03*
X127200000Y-64900000D03*
D27*
X99600000Y-51400000D03*
D28*
X68600000Y-75800000D03*
X90500000Y-74154412D03*
D27*
X110400000Y-46600000D03*
D28*
X125200000Y-68100000D03*
X90500000Y-81351103D03*
D27*
X90000000Y-47750000D03*
D28*
X70900000Y-77400000D03*
X112906683Y-85750000D03*
D27*
X125000000Y-56250000D03*
X93800000Y-39200000D03*
X125200000Y-83400000D03*
D31*
X142500000Y-83000000D03*
D27*
X124000000Y-89000000D03*
D30*
X84900000Y-68300000D03*
D27*
X108500000Y-66200000D03*
X91400000Y-39200000D03*
X115750000Y-56250000D03*
D30*
X85750000Y-59750000D03*
D27*
X119900000Y-64600000D03*
D28*
X134500000Y-49014704D03*
D27*
X103000000Y-89000000D03*
D28*
X109730766Y-67700000D03*
D29*
X95412038Y-35400000D03*
D28*
X104400000Y-56200000D03*
D29*
X90636114Y-35400000D03*
D27*
X89912500Y-61200000D03*
D28*
X67000000Y-39941176D03*
D30*
X81000000Y-43200000D03*
D27*
X119500000Y-89000000D03*
X142000000Y-88100000D03*
D28*
X110461496Y-85750000D03*
D27*
X110300000Y-43100000D03*
X126500000Y-51500000D03*
D30*
X114500000Y-46250000D03*
D27*
X88250000Y-74500000D03*
D28*
X100680748Y-85750000D03*
D27*
X100000000Y-89000000D03*
X122500000Y-89000000D03*
D28*
X126859620Y-85650000D03*
D27*
X98800000Y-65900000D03*
X100800000Y-81500000D03*
D28*
X90500000Y-71755515D03*
X128831468Y-35600000D03*
D27*
X74500000Y-89000000D03*
D28*
X132300000Y-61600000D03*
D30*
X78200000Y-37600000D03*
D27*
X95000000Y-80500000D03*
X88200000Y-84300000D03*
X88250000Y-72750000D03*
D28*
X134500000Y-46573528D03*
X119205880Y-37700000D03*
D30*
X104141720Y-49027070D03*
D28*
X98673076Y-67700000D03*
X95790374Y-85750000D03*
D27*
X78000000Y-47800000D03*
D30*
X81750000Y-51750000D03*
D27*
X118000000Y-89000000D03*
X119700000Y-44100000D03*
D29*
X76308342Y-35400000D03*
D27*
X77000000Y-44300000D03*
D30*
X84000000Y-59750000D03*
D27*
X71500000Y-88000000D03*
X132600000Y-60300000D03*
X74000000Y-76000000D03*
D28*
X111000000Y-55500000D03*
X65000000Y-71852944D03*
D27*
X98500000Y-89000000D03*
X120500000Y-46000000D03*
X84500000Y-81800000D03*
D28*
X65000000Y-59647064D03*
X90500000Y-76553309D03*
X134500000Y-80867648D03*
D27*
X101500000Y-89000000D03*
X91250000Y-60500000D03*
D28*
X126443506Y-35600000D03*
D27*
X97400000Y-40200000D03*
X113000000Y-66800000D03*
D28*
X90500000Y-64558824D03*
D27*
X101800000Y-40700000D03*
X130400000Y-46800000D03*
D28*
X115351870Y-85750000D03*
X145600000Y-75600000D03*
X104951848Y-35600000D03*
D27*
X77500000Y-89000000D03*
X94750000Y-54750000D03*
D30*
X82000000Y-57000000D03*
D27*
X128700000Y-45000000D03*
D28*
X134500000Y-68661768D03*
D27*
X96500000Y-73100000D03*
D28*
X134500000Y-71102944D03*
D27*
X103750000Y-44062500D03*
X126200000Y-72900000D03*
D30*
X84800000Y-38000000D03*
D28*
X134500000Y-61338240D03*
X131750000Y-85650000D03*
X134500000Y-41691176D03*
D27*
X116500000Y-62000000D03*
D28*
X134500000Y-78426472D03*
D27*
X71000000Y-70500000D03*
X124900000Y-50100000D03*
D32*
X107700000Y-52600000D03*
D27*
X91500000Y-43900000D03*
X124700000Y-40300000D03*
X77250000Y-70750000D03*
D28*
X96461538Y-67700000D03*
D27*
X131500000Y-89000000D03*
X132200000Y-43900000D03*
D30*
X82250000Y-46250000D03*
D27*
X110400000Y-41300000D03*
X77250000Y-69000000D03*
D28*
X67000000Y-47264704D03*
D27*
X121750000Y-49000000D03*
D28*
X135800000Y-35600000D03*
D29*
X81084266Y-35400000D03*
D27*
X105700000Y-59600000D03*
X125000000Y-61300000D03*
D28*
X102563886Y-35600000D03*
D27*
X96700000Y-80500000D03*
X124750000Y-51500000D03*
D28*
X131900000Y-82241176D03*
D32*
X106400000Y-52600000D03*
D28*
X67000000Y-44823528D03*
D30*
X115700000Y-55300000D03*
D27*
X109800000Y-65400000D03*
D28*
X105307690Y-67700000D03*
D27*
X94000000Y-70000000D03*
X97200000Y-56000000D03*
D28*
X145700000Y-66000000D03*
X111942304Y-67700000D03*
X65000000Y-52205880D03*
D27*
X90300000Y-43900000D03*
X128500000Y-89000000D03*
D30*
X85750000Y-49000000D03*
D27*
X115000000Y-89000000D03*
D29*
X73920380Y-35400000D03*
D28*
X131900000Y-69800000D03*
X117500000Y-63100000D03*
X131219430Y-35600000D03*
X116000000Y-53000000D03*
X118200000Y-60800000D03*
D30*
X81750000Y-54500000D03*
D27*
X102600000Y-83750000D03*
X86300000Y-81800000D03*
X99100000Y-61000000D03*
D28*
X125000000Y-63100000D03*
D27*
X110864561Y-65364561D03*
D28*
X66600000Y-74000000D03*
D27*
X67125000Y-60600000D03*
X137000000Y-37900000D03*
X102100000Y-56000000D03*
D28*
X131250000Y-37700000D03*
D27*
X90600000Y-41500000D03*
D28*
X79198130Y-86500000D03*
D27*
X110200000Y-62200000D03*
D28*
X134500000Y-66220592D03*
D27*
X105600000Y-61000000D03*
D28*
X143300000Y-66000000D03*
X143300000Y-75600000D03*
D27*
X92500000Y-89000000D03*
D28*
X103096152Y-67700000D03*
X143500000Y-52700000D03*
X94250000Y-67700000D03*
D27*
X130000000Y-89000000D03*
X76500000Y-72500000D03*
X128800000Y-64000000D03*
D30*
X121500000Y-46250000D03*
X84000000Y-46250000D03*
D27*
X97650000Y-81500000D03*
X82900000Y-78600000D03*
D28*
X81650000Y-86500000D03*
D27*
X80500000Y-78700000D03*
D30*
X97750000Y-48500000D03*
X116500000Y-39900000D03*
X84000000Y-49000000D03*
D28*
X107519228Y-67700000D03*
D27*
X78600000Y-42400000D03*
D31*
X69500000Y-83000000D03*
D27*
X79000000Y-72500000D03*
D28*
X134500000Y-44132352D03*
X65000000Y-47323528D03*
X134500000Y-58897064D03*
D30*
X85750000Y-46250000D03*
D27*
X143500000Y-87000000D03*
X116300000Y-44100000D03*
D28*
X73600000Y-79400000D03*
X124055544Y-35600000D03*
D27*
X100400000Y-56000000D03*
X82050000Y-77300000D03*
D30*
X85800000Y-38000000D03*
D28*
X134500000Y-53897056D03*
D27*
X88250000Y-76250000D03*
X97600000Y-59900000D03*
D28*
X84000000Y-87500000D03*
D27*
X111300000Y-62200000D03*
D30*
X106000000Y-57600000D03*
X84000000Y-51750000D03*
D27*
X83800000Y-77300000D03*
D28*
X74400000Y-81900000D03*
D27*
X101600000Y-82700000D03*
D30*
X99250000Y-48500000D03*
D29*
X85860190Y-35400000D03*
D28*
X124000000Y-37700000D03*
X120750000Y-56500000D03*
X65000000Y-57205888D03*
D27*
X104500000Y-89000000D03*
X130800000Y-48100000D03*
D28*
X131900000Y-79800000D03*
D27*
X107500000Y-89000000D03*
X95900000Y-81500000D03*
D28*
X112600000Y-63100000D03*
D27*
X80500000Y-77200000D03*
D28*
X134500000Y-56338232D03*
X134500000Y-83308824D03*
D27*
X137500000Y-87200000D03*
D30*
X112000000Y-41250000D03*
D29*
X78696304Y-35400000D03*
D27*
X77987500Y-53200000D03*
D29*
X93024076Y-35400000D03*
D30*
%TO.N,3V3_ADF*%
X88300000Y-62800000D03*
D28*
X93300000Y-54100000D03*
X93250000Y-55800000D03*
X86200000Y-72700000D03*
X86200000Y-74400000D03*
X122250000Y-58500000D03*
D30*
%TO.N,Net-(U105-LD)*%
X110313137Y-49391962D03*
X88700000Y-43700000D03*
%TO.N,Net-(U105-MUXOUT)*%
X88500000Y-59800000D03*
X106048624Y-48201376D03*
%TO.N,Net-(U105-PDB_{RF})*%
X109500000Y-48700000D03*
X88500000Y-46500000D03*
%TO.N,Net-(U105-CE)*%
X95544902Y-50763453D03*
X88500000Y-57200000D03*
%TO.N,Net-(U105-LE)*%
X88500000Y-54750000D03*
X95685421Y-49900000D03*
%TO.N,Net-(U105-DATA)*%
X96338193Y-49300000D03*
X88500000Y-51700000D03*
D27*
%TO.N,Net-(U104-VC)*%
X95800000Y-40200000D03*
D30*
%TO.N,LO_Buff_EN*%
X116450000Y-41350000D03*
%TO.N,Net-(U105-CLK)*%
X95945142Y-48603211D03*
X88500000Y-49200000D03*
D27*
%TO.N,Net-(U104-VDD)*%
X99131679Y-42531379D03*
D33*
%TO.N,/5V6*%
X132000000Y-42000000D03*
X136950000Y-39350000D03*
D27*
%TO.N,Net-(U105-REF_{IN})*%
X105925000Y-45619000D03*
D33*
%TO.N,Net-(U105-CP_{OUT})*%
X120750000Y-54750000D03*
X103750000Y-54750000D03*
D30*
%TO.N,Fref_IN*%
X101900000Y-41800000D03*
%TO.N,Net-(U106-A2)*%
X84900000Y-67100000D03*
%TO.N,Net-(U106-A1)*%
X84900000Y-69400000D03*
%TO.N,Net-(U106-A0)*%
X85100000Y-70600000D03*
D33*
%TO.N,Net-(U105-SW)*%
X103496325Y-52403675D03*
X123500000Y-56000000D03*
D27*
%TO.N,VCTCXO_Out*%
X96000000Y-45600000D03*
D30*
%TO.N,3V3_VCTCXO*%
X87702297Y-38223000D03*
%TD*%
D34*
%TO.N,GND*%
X84631879Y-38850000D02*
X84536787Y-38850000D01*
X87034982Y-39800000D02*
X86863715Y-39800000D01*
X84835959Y-38850000D02*
X84791235Y-38850000D01*
X84869503Y-38850000D02*
X84847140Y-38850000D01*
X88113150Y-40175650D02*
X88600000Y-40662500D01*
D35*
X86506250Y-70687500D02*
X87100000Y-70687500D01*
D34*
X87163433Y-39800000D02*
X87206250Y-39800000D01*
X86368335Y-39800000D02*
X86396287Y-39800000D01*
X84492166Y-38850000D02*
X84430722Y-38850000D01*
D35*
X84800000Y-71800000D02*
X83824501Y-70824501D01*
X84800000Y-71800000D02*
X85492655Y-71107344D01*
X84430722Y-38850000D02*
X84400000Y-38850000D01*
D34*
X86481920Y-39800000D02*
X86396287Y-39800000D01*
X84791235Y-38850000D02*
X84746511Y-38850000D01*
X84880685Y-38850000D02*
X84869503Y-38850000D01*
X87077799Y-39800000D02*
X87034982Y-39800000D01*
X84835959Y-38850000D02*
X84847140Y-38850000D01*
X84631879Y-38850000D02*
X84657063Y-38850000D01*
X84746511Y-38850000D02*
X84701787Y-38850000D01*
D35*
X83493750Y-70687500D02*
X83300000Y-70687500D01*
D34*
X86804257Y-39800000D02*
X86692449Y-39800000D01*
D36*
X139830000Y-58370000D02*
X142370000Y-55830000D01*
D34*
X85033383Y-38913249D02*
X85653248Y-39533114D01*
X86368335Y-39800000D02*
X86321156Y-39800000D01*
X86692449Y-39800000D02*
X86580641Y-39800000D01*
X86580641Y-39800000D02*
X86567553Y-39800000D01*
X84701787Y-38850000D02*
X84657063Y-38850000D01*
X84492166Y-38850000D02*
X84536787Y-38850000D01*
X87163433Y-39800000D02*
X87077799Y-39800000D01*
X86863715Y-39800000D02*
X86804257Y-39800000D01*
X86567553Y-39800000D02*
X86481920Y-39800000D01*
X86297567Y-39800000D02*
X86321156Y-39800000D01*
X87206250Y-39800000D02*
G75*
G02*
X88113135Y-40175665I-50J-1282600D01*
G01*
X85033383Y-38913249D02*
G75*
G03*
X84880685Y-38849996I-152683J-152651D01*
G01*
D35*
X85492655Y-71107344D02*
G75*
G02*
X86506250Y-70687523I1013545J-1013556D01*
G01*
D34*
X86297567Y-39800000D02*
G75*
G02*
X85653265Y-39533097I33J911200D01*
G01*
D35*
X83493750Y-70687500D02*
G75*
G02*
X83824515Y-70824487I50J-467700D01*
G01*
D37*
%TO.N,3V3_ADF*%
X88300000Y-62800000D02*
X87312132Y-63787867D01*
D35*
X92250000Y-53050000D02*
X93300000Y-54100000D01*
D37*
X84600000Y-64600000D02*
X83300000Y-64600000D01*
D35*
X91200000Y-50515075D02*
X91200000Y-48312500D01*
D37*
X88300000Y-62800000D02*
X86930935Y-61430935D01*
X86800000Y-64600000D02*
X79500000Y-64600000D01*
X86900000Y-61356250D02*
X86900000Y-61312500D01*
X86900000Y-61356250D02*
G75*
G03*
X86930915Y-61430955I105600J-50D01*
G01*
X87312132Y-63787867D02*
G75*
G03*
X87100010Y-64300000I512168J-512133D01*
G01*
X86800000Y-64600000D02*
G75*
G03*
X87100000Y-64300000I0J300000D01*
G01*
D35*
X92250000Y-53050000D02*
G75*
G02*
X91200010Y-50515075I2534900J2534900D01*
G01*
%TO.N,Net-(U103-SDA)*%
X80650000Y-40775000D02*
X80625000Y-40800000D01*
X80710355Y-40750000D02*
X84400000Y-40750000D01*
X80710355Y-40750000D02*
G75*
G03*
X80650013Y-40775013I45J-85400D01*
G01*
%TO.N,Net-(U103-VDD)*%
X85737500Y-43734375D02*
X85737500Y-43382031D01*
X85737500Y-42088281D02*
X85737500Y-42177343D01*
X85737500Y-42221874D02*
X85737500Y-42399999D01*
X85737500Y-42399999D02*
X85737500Y-42578124D01*
X85737500Y-42088281D02*
X85737500Y-42043750D01*
X88127449Y-45400000D02*
X89620926Y-45400000D01*
X85737500Y-42578124D02*
X85737500Y-42756249D01*
X85737500Y-43024218D02*
X85737500Y-43382031D01*
X85989406Y-41435593D02*
X86675000Y-40750000D01*
X85737500Y-42756249D02*
X85737500Y-42934374D01*
X85737500Y-42177343D02*
X85737500Y-42221874D01*
X86437500Y-44700000D02*
X85925325Y-44187825D01*
X85737500Y-42934374D02*
X85737500Y-43024218D01*
X90737500Y-45862500D02*
X91200000Y-46325000D01*
X85989406Y-41435593D02*
G75*
G03*
X85737545Y-42043750I608194J-608107D01*
G01*
X90737500Y-45862500D02*
G75*
G03*
X89620926Y-45399989I-1116600J-1116600D01*
G01*
X86437500Y-44700000D02*
G75*
G03*
X88127449Y-45400021I1690000J1690000D01*
G01*
X85737500Y-43734375D02*
G75*
G03*
X85925307Y-44187843I641300J-25D01*
G01*
%TO.N,Net-(U103-SCL)*%
X82187867Y-39200000D02*
X80625000Y-39200000D01*
X82700000Y-39500000D02*
X82550000Y-39350000D01*
X83424264Y-39800000D02*
X84400000Y-39800000D01*
X82700000Y-39500000D02*
G75*
G03*
X83424264Y-39800015I724300J724300D01*
G01*
X82187867Y-39200000D02*
G75*
G02*
X82550009Y-39349991I33J-512100D01*
G01*
D37*
%TO.N,Net-(U105-CE)*%
X87823223Y-57376776D02*
X87650000Y-57550000D01*
X87300000Y-58394974D02*
X87300000Y-59487500D01*
X88250000Y-57200000D02*
X88500000Y-57200000D01*
X87650000Y-57550000D02*
G75*
G03*
X87299990Y-58394974I845000J-845000D01*
G01*
X88250000Y-57200000D02*
G75*
G03*
X87823235Y-57376788I0J-603500D01*
G01*
D35*
%TO.N,Net-(U103-VOUT)*%
X89445970Y-39158470D02*
X90487500Y-40200000D01*
X88912500Y-38937500D02*
X88661871Y-38937500D01*
X88450628Y-38850000D02*
X86675000Y-38850000D01*
X88556250Y-38893750D02*
G75*
G03*
X88661871Y-38937512I105650J105650D01*
G01*
X88556250Y-38893750D02*
G75*
G03*
X88450628Y-38849988I-105650J-105650D01*
G01*
X88912500Y-38937500D02*
G75*
G02*
X89445961Y-39158479I0J-754400D01*
G01*
%TO.N,Net-(U104-VC)*%
X95800000Y-40200000D02*
X92312500Y-40200000D01*
%TO.N,Net-(U104-VDD)*%
X97894029Y-43675000D02*
X97800000Y-43675000D01*
X98054546Y-43608511D02*
X99131679Y-42531379D01*
X98054546Y-43608511D02*
G75*
G02*
X97894029Y-43675022I-160546J160511D01*
G01*
D37*
%TO.N,I2C_SDA*%
X70756532Y-61356532D02*
X70500000Y-61100000D01*
X69600000Y-43587436D02*
X69600000Y-58927207D01*
D35*
X77234727Y-40800000D02*
X78800000Y-40800000D01*
D37*
X73863467Y-62643467D02*
X74540000Y-63320000D01*
X76423851Y-40600000D02*
X72587436Y-40600000D01*
X76831250Y-40768750D02*
X76931250Y-40868750D01*
X72310000Y-62000000D02*
G75*
G02*
X70756539Y-61356525I0J2196900D01*
G01*
X76931250Y-40868750D02*
G75*
G03*
X77068750Y-40868750I68750J68751D01*
G01*
D35*
X77234727Y-40800000D02*
G75*
G03*
X77068742Y-40868742I-27J-234700D01*
G01*
D37*
X72587436Y-40600000D02*
G75*
G03*
X70474989Y-41474989I-36J-2987400D01*
G01*
X73863467Y-62643467D02*
G75*
G03*
X72310000Y-61999990I-1553467J-1553433D01*
G01*
X76831250Y-40768750D02*
G75*
G03*
X76423851Y-40600020I-407350J-407350D01*
G01*
X69600000Y-58927207D02*
G75*
G03*
X70500002Y-61099998I3072800J7D01*
G01*
X69600000Y-43587436D02*
G75*
G02*
X70474989Y-41474989I2987400J36D01*
G01*
D35*
%TO.N,I2C_SCL*%
X77106694Y-39200000D02*
X78800000Y-39200000D01*
X68400000Y-52895000D02*
X68400000Y-54065000D01*
X68400000Y-52895000D02*
X68400000Y-51920000D01*
X68400000Y-58160000D02*
X68400000Y-57965000D01*
X68400000Y-54260000D02*
X68400000Y-54065000D01*
X68400000Y-43072792D02*
X68400000Y-48800000D01*
X68400000Y-55820000D02*
X68400000Y-56600000D01*
X68400000Y-57575000D02*
X68400000Y-57965000D01*
X68400000Y-48800000D02*
X68400000Y-51920000D01*
X68400000Y-56600000D02*
X68400000Y-57380000D01*
X71472792Y-40000000D02*
X75278508Y-40000000D01*
D37*
X69503086Y-60823086D02*
X72000000Y-63320000D01*
D35*
X76768750Y-39262500D02*
X76955805Y-39262500D01*
X68400000Y-57575000D02*
X68400000Y-57380000D01*
X68400000Y-54260000D02*
X68400000Y-55040000D01*
X76168749Y-39631249D02*
X76373981Y-39426018D01*
X68400000Y-55040000D02*
X68400000Y-55820000D01*
X77031250Y-39231250D02*
G75*
G02*
X77106694Y-39199998I75450J-75450D01*
G01*
D37*
X69503086Y-60823086D02*
G75*
G02*
X68400008Y-58160000I2663114J2663086D01*
G01*
D35*
X68400000Y-43072792D02*
G75*
G02*
X69300002Y-40900002I3072800J-8D01*
G01*
X77031250Y-39231250D02*
G75*
G02*
X76955805Y-39262502I-75450J75450D01*
G01*
X76168749Y-39631249D02*
G75*
G02*
X75278508Y-40000002I-890249J890249D01*
G01*
X76768750Y-39262500D02*
G75*
G03*
X76373954Y-39425991I-50J-558300D01*
G01*
X71472792Y-40000000D02*
G75*
G03*
X69300002Y-40900002I8J-3072800D01*
G01*
%TO.N,Net-(U105-REF_{IN})*%
X104394935Y-45619000D02*
X105925000Y-45619000D01*
X104372000Y-45609500D02*
X104362500Y-45600000D01*
X104372000Y-45609500D02*
G75*
G03*
X104394935Y-45618985I22900J22900D01*
G01*
%TO.N,Net-(FB110-Pad1)*%
X98006250Y-41718750D02*
X97800000Y-41925000D01*
X98504181Y-41512500D02*
X100400000Y-41512500D01*
X98006250Y-41718750D02*
G75*
G02*
X98504181Y-41512492I497950J-497950D01*
G01*
%TO.N,Fref_IN*%
X101900000Y-41800000D02*
X101950000Y-41750000D01*
X102052274Y-41839774D02*
X103012500Y-42800000D01*
X101956250Y-41800000D02*
X101900000Y-41800000D01*
X102052274Y-41839774D02*
G75*
G03*
X101956250Y-41800036I-95974J-96026D01*
G01*
D37*
%TO.N,Net-(U106-A2)*%
X84883080Y-67104419D02*
X83300000Y-68687500D01*
X84900000Y-67100000D02*
X84893750Y-67100000D01*
X83300000Y-66512500D02*
X83300000Y-68775000D01*
X84893750Y-67100000D02*
G75*
G03*
X84883053Y-67104392I-50J-15100D01*
G01*
%TO.N,Net-(U106-A1)*%
X84900000Y-69400000D02*
X84750000Y-69550000D01*
X81228445Y-69700000D02*
X84387867Y-69700000D01*
X79500000Y-68775000D02*
X79500000Y-66512500D01*
X80006250Y-69193750D02*
X79500000Y-68687500D01*
X81228445Y-69700000D02*
G75*
G02*
X80006216Y-69193784I-45J1728500D01*
G01*
X84387867Y-69700000D02*
G75*
G03*
X84750009Y-69550009I33J512100D01*
G01*
%TO.N,Net-(U106-A0)*%
X85218435Y-70569064D02*
X87100000Y-68687500D01*
X87100000Y-66512500D02*
X87100000Y-68775000D01*
X85100000Y-70600000D02*
X85143750Y-70600000D01*
X85218435Y-70569064D02*
G75*
G02*
X85143750Y-70600041I-74735J74664D01*
G01*
D35*
%TO.N,VCTCXO_Out*%
X100121576Y-43078423D02*
X98165685Y-45034314D01*
X102637500Y-45600000D02*
X95900000Y-45600000D01*
X100793750Y-42800000D02*
X101187500Y-42800000D01*
X96800000Y-45600000D02*
X96000000Y-45600000D01*
X100121576Y-43078423D02*
G75*
G02*
X100793750Y-42800036I672124J-672177D01*
G01*
X96800000Y-45600000D02*
G75*
G03*
X98165692Y-45034321I0J1931400D01*
G01*
%TO.N,3V3_VCTCXO*%
X87702297Y-38223000D02*
X87777297Y-38148000D01*
X87958363Y-38073000D02*
X97643876Y-38073000D01*
X99592750Y-38880250D02*
X100400000Y-39687500D01*
X97643876Y-38073000D02*
G75*
G02*
X99592757Y-38880243I24J-2756100D01*
G01*
X87958363Y-38073000D02*
G75*
G03*
X87777308Y-38148011I37J-256100D01*
G01*
%TD*%
%TA.AperFunction,Conductor*%
%TO.N,GND*%
G36*
X85908361Y-67132862D02*
G01*
X85934884Y-67177890D01*
X85965186Y-67269334D01*
X86057288Y-67418656D01*
X86181344Y-67542712D01*
X86181347Y-67542714D01*
X86186116Y-67546485D01*
X86226491Y-67603508D01*
X86229629Y-67673307D01*
X86194532Y-67733722D01*
X86186116Y-67741015D01*
X86181341Y-67744790D01*
X86057289Y-67868842D01*
X85965187Y-68018163D01*
X85965186Y-68018166D01*
X85910001Y-68184703D01*
X85910001Y-68184704D01*
X85910000Y-68184704D01*
X85899500Y-68287483D01*
X85899500Y-68987401D01*
X85879815Y-69054440D01*
X85863184Y-69075078D01*
X85846618Y-69091645D01*
X85833244Y-69105019D01*
X85771920Y-69138503D01*
X85702229Y-69133517D01*
X85646296Y-69091645D01*
X85628520Y-69058284D01*
X85627175Y-69054440D01*
X85625789Y-69050478D01*
X85529816Y-68897738D01*
X85402262Y-68770184D01*
X85299500Y-68705614D01*
X85249523Y-68674211D01*
X85079254Y-68614631D01*
X85079249Y-68614630D01*
X84900004Y-68594435D01*
X84899996Y-68594435D01*
X84720750Y-68614630D01*
X84720742Y-68614632D01*
X84665453Y-68633979D01*
X84595675Y-68637540D01*
X84535047Y-68602811D01*
X84502820Y-68540818D01*
X84500499Y-68516937D01*
X84500499Y-68387597D01*
X84520184Y-68320558D01*
X84536818Y-68299916D01*
X84652034Y-68184700D01*
X84803487Y-68033246D01*
X84840814Y-68007613D01*
X85209660Y-67843736D01*
X85229021Y-67834034D01*
X85243617Y-67827855D01*
X85249522Y-67825789D01*
X85402262Y-67729816D01*
X85529816Y-67602262D01*
X85625789Y-67449522D01*
X85685368Y-67279255D01*
X85693958Y-67203008D01*
X85721023Y-67138599D01*
X85778618Y-67099043D01*
X85848455Y-67096904D01*
X85908361Y-67132862D01*
G37*
%TD.AperFunction*%
%TA.AperFunction,Conductor*%
G36*
X75970758Y-41220185D02*
G01*
X76016513Y-41272989D01*
X76027077Y-41311898D01*
X76032931Y-41369200D01*
X76034826Y-41387753D01*
X76089090Y-41551511D01*
X76089092Y-41551515D01*
X76089093Y-41551518D01*
X76104632Y-41576710D01*
X76179659Y-41698349D01*
X76179661Y-41698351D01*
X76193982Y-41712672D01*
X76227467Y-41773995D01*
X76222483Y-41843687D01*
X76193985Y-41888032D01*
X76180052Y-41901965D01*
X76089551Y-42048688D01*
X76089546Y-42048699D01*
X76035319Y-42212347D01*
X76025000Y-42313345D01*
X76025000Y-42429709D01*
X76005315Y-42496748D01*
X75952511Y-42542503D01*
X75883353Y-42552447D01*
X75819797Y-42523422D01*
X75788618Y-42482114D01*
X75714035Y-42322171D01*
X75714034Y-42322169D01*
X75578494Y-42128597D01*
X75411402Y-41961506D01*
X75411395Y-41961501D01*
X75407870Y-41959033D01*
X75341055Y-41912248D01*
X75217834Y-41825967D01*
X75217830Y-41825965D01*
X75205767Y-41820340D01*
X75003663Y-41726097D01*
X75003659Y-41726096D01*
X75003655Y-41726094D01*
X74775413Y-41664938D01*
X74775403Y-41664936D01*
X74540001Y-41644341D01*
X74539999Y-41644341D01*
X74304596Y-41664936D01*
X74304586Y-41664938D01*
X74076344Y-41726094D01*
X74076335Y-41726098D01*
X73862171Y-41825964D01*
X73862169Y-41825965D01*
X73668600Y-41961503D01*
X73546284Y-42083819D01*
X73484961Y-42117303D01*
X73415269Y-42112319D01*
X73359336Y-42070447D01*
X73342421Y-42039470D01*
X73293354Y-41907913D01*
X73293350Y-41907906D01*
X73207190Y-41792812D01*
X73207187Y-41792809D01*
X73092093Y-41706649D01*
X73092086Y-41706645D01*
X72957379Y-41656403D01*
X72957372Y-41656401D01*
X72897844Y-41650000D01*
X72375000Y-41650000D01*
X72375000Y-42667894D01*
X72307007Y-42599901D01*
X72192993Y-42534075D01*
X72065826Y-42500000D01*
X71934174Y-42500000D01*
X71807007Y-42534075D01*
X71692993Y-42599901D01*
X71599901Y-42692993D01*
X71534075Y-42807007D01*
X71500000Y-42934174D01*
X71500000Y-43065826D01*
X71534075Y-43192993D01*
X71599901Y-43307007D01*
X71692993Y-43400099D01*
X71807007Y-43465925D01*
X71934174Y-43500000D01*
X72065826Y-43500000D01*
X72192993Y-43465925D01*
X72307007Y-43400099D01*
X72375000Y-43332106D01*
X72375000Y-45207894D01*
X72307007Y-45139901D01*
X72192993Y-45074075D01*
X72065826Y-45040000D01*
X71934174Y-45040000D01*
X71807007Y-45074075D01*
X71692993Y-45139901D01*
X71599901Y-45232993D01*
X71534075Y-45347007D01*
X71500000Y-45474174D01*
X71500000Y-45605826D01*
X71534075Y-45732993D01*
X71599901Y-45847007D01*
X71667894Y-45915000D01*
X70702858Y-45915000D01*
X70726566Y-46003483D01*
X70726570Y-46003492D01*
X70826399Y-46217578D01*
X70961894Y-46411082D01*
X71128917Y-46578105D01*
X71314595Y-46708119D01*
X71358219Y-46762696D01*
X71365412Y-46832195D01*
X71333890Y-46894549D01*
X71314595Y-46911269D01*
X71128594Y-47041508D01*
X70961505Y-47208597D01*
X70825965Y-47402169D01*
X70825964Y-47402171D01*
X70726098Y-47616335D01*
X70726094Y-47616344D01*
X70664938Y-47844586D01*
X70664936Y-47844596D01*
X70644341Y-48079999D01*
X70644341Y-48080000D01*
X70664936Y-48315403D01*
X70664938Y-48315413D01*
X70726094Y-48543655D01*
X70726096Y-48543659D01*
X70726097Y-48543663D01*
X70798998Y-48700000D01*
X70825965Y-48757830D01*
X70825967Y-48757834D01*
X70910987Y-48879254D01*
X70961501Y-48951396D01*
X70961506Y-48951402D01*
X71128597Y-49118493D01*
X71128603Y-49118498D01*
X71314158Y-49248425D01*
X71357783Y-49303002D01*
X71364977Y-49372500D01*
X71333454Y-49434855D01*
X71314158Y-49451575D01*
X71128597Y-49581505D01*
X70961505Y-49748597D01*
X70825965Y-49942169D01*
X70825964Y-49942171D01*
X70726098Y-50156335D01*
X70726094Y-50156344D01*
X70664938Y-50384586D01*
X70664936Y-50384596D01*
X70644341Y-50619999D01*
X70644341Y-50620000D01*
X70664936Y-50855403D01*
X70664938Y-50855413D01*
X70726094Y-51083655D01*
X70726096Y-51083659D01*
X70726097Y-51083663D01*
X70820703Y-51286546D01*
X70825965Y-51297830D01*
X70825967Y-51297834D01*
X70874859Y-51367658D01*
X70961501Y-51491396D01*
X70961506Y-51491402D01*
X71128597Y-51658493D01*
X71128603Y-51658498D01*
X71314158Y-51788425D01*
X71357783Y-51843002D01*
X71364977Y-51912500D01*
X71333454Y-51974855D01*
X71314158Y-51991575D01*
X71128597Y-52121505D01*
X70961505Y-52288597D01*
X70825965Y-52482169D01*
X70825964Y-52482171D01*
X70726098Y-52696335D01*
X70726094Y-52696344D01*
X70664938Y-52924586D01*
X70664936Y-52924596D01*
X70644341Y-53159999D01*
X70644341Y-53160000D01*
X70664936Y-53395403D01*
X70664938Y-53395413D01*
X70726094Y-53623655D01*
X70726096Y-53623659D01*
X70726097Y-53623663D01*
X70789976Y-53760651D01*
X70825965Y-53837830D01*
X70825967Y-53837834D01*
X70914751Y-53964630D01*
X70961501Y-54031396D01*
X70961506Y-54031402D01*
X71128597Y-54198493D01*
X71128603Y-54198498D01*
X71314158Y-54328425D01*
X71357783Y-54383002D01*
X71364977Y-54452500D01*
X71333454Y-54514855D01*
X71314158Y-54531575D01*
X71128597Y-54661505D01*
X70961505Y-54828597D01*
X70825965Y-55022169D01*
X70825964Y-55022171D01*
X70726098Y-55236335D01*
X70726094Y-55236344D01*
X70664938Y-55464586D01*
X70664936Y-55464596D01*
X70644341Y-55699999D01*
X70644341Y-55700000D01*
X70664936Y-55935403D01*
X70664938Y-55935413D01*
X70726094Y-56163655D01*
X70726096Y-56163659D01*
X70726097Y-56163663D01*
X70788965Y-56298483D01*
X70825965Y-56377830D01*
X70825967Y-56377834D01*
X70895251Y-56476781D01*
X70961501Y-56571396D01*
X70961506Y-56571402D01*
X71128597Y-56738493D01*
X71128603Y-56738498D01*
X71161586Y-56761593D01*
X71288524Y-56850476D01*
X71314594Y-56868730D01*
X71358219Y-56923307D01*
X71365413Y-56992805D01*
X71333890Y-57055160D01*
X71314595Y-57071880D01*
X71128922Y-57201890D01*
X71128920Y-57201891D01*
X70961891Y-57368920D01*
X70961886Y-57368926D01*
X70826400Y-57562420D01*
X70826399Y-57562422D01*
X70726570Y-57776507D01*
X70726566Y-57776516D01*
X70702857Y-57864999D01*
X70702858Y-57865000D01*
X71667894Y-57865000D01*
X71599901Y-57932993D01*
X71534075Y-58047007D01*
X71500000Y-58174174D01*
X71500000Y-58305826D01*
X71534075Y-58432993D01*
X71599901Y-58547007D01*
X71667894Y-58615000D01*
X70702858Y-58615000D01*
X70726566Y-58703483D01*
X70726570Y-58703492D01*
X70826399Y-58917578D01*
X70961894Y-59111082D01*
X71128917Y-59278105D01*
X71314595Y-59408119D01*
X71358219Y-59462696D01*
X71365412Y-59532195D01*
X71333890Y-59594549D01*
X71314595Y-59611269D01*
X71128594Y-59741508D01*
X70961505Y-59908597D01*
X70825966Y-60102168D01*
X70780656Y-60199335D01*
X70734483Y-60251774D01*
X70667289Y-60270925D01*
X70600408Y-60250709D01*
X70559747Y-60206911D01*
X70448696Y-60005980D01*
X70442670Y-59993466D01*
X70341899Y-59750185D01*
X70337307Y-59737062D01*
X70337061Y-59736207D01*
X70264408Y-59484023D01*
X70261317Y-59470477D01*
X70217208Y-59210872D01*
X70215653Y-59197071D01*
X70200695Y-58930731D01*
X70200500Y-58923778D01*
X70200500Y-43897844D01*
X70650000Y-43897844D01*
X70656401Y-43957372D01*
X70656403Y-43957379D01*
X70706645Y-44092086D01*
X70706649Y-44092093D01*
X70792809Y-44207187D01*
X70792812Y-44207190D01*
X70907906Y-44293350D01*
X70907913Y-44293354D01*
X71039986Y-44342614D01*
X71095920Y-44384485D01*
X71120337Y-44449949D01*
X71105486Y-44518222D01*
X71084335Y-44546477D01*
X70961886Y-44668926D01*
X70826400Y-44862420D01*
X70826399Y-44862422D01*
X70726570Y-45076507D01*
X70726566Y-45076516D01*
X70702857Y-45164999D01*
X70702858Y-45165000D01*
X71625000Y-45165000D01*
X71625000Y-43375000D01*
X70650000Y-43375000D01*
X70650000Y-43897844D01*
X70200500Y-43897844D01*
X70200500Y-43590908D01*
X70200695Y-43583957D01*
X70205409Y-43500000D01*
X70215116Y-43327112D01*
X70216670Y-43313324D01*
X70259175Y-43063138D01*
X70262264Y-43049603D01*
X70332513Y-42805756D01*
X70337104Y-42792637D01*
X70357010Y-42744581D01*
X70411439Y-42613174D01*
X70455280Y-42558771D01*
X70521574Y-42536706D01*
X70589273Y-42553985D01*
X70636884Y-42605122D01*
X70638976Y-42613976D01*
X70650000Y-42625000D01*
X71625000Y-42625000D01*
X71625000Y-41650000D01*
X71610171Y-41635171D01*
X71593633Y-41630315D01*
X71547878Y-41577511D01*
X71537934Y-41508353D01*
X71566959Y-41444797D01*
X71613220Y-41411439D01*
X71792648Y-41337119D01*
X71805768Y-41332527D01*
X72049603Y-41262281D01*
X72063149Y-41259190D01*
X72313323Y-41216685D01*
X72327118Y-41215131D01*
X72584244Y-41200694D01*
X72591188Y-41200500D01*
X72660343Y-41200500D01*
X75903719Y-41200500D01*
X75970758Y-41220185D01*
G37*
%TD.AperFunction*%
%TA.AperFunction,Conductor*%
G36*
X74139901Y-57932993D02*
G01*
X74074075Y-58047007D01*
X74040000Y-58174174D01*
X74040000Y-58305826D01*
X74074075Y-58432993D01*
X74139901Y-58547007D01*
X74207894Y-58615000D01*
X72332106Y-58615000D01*
X72400099Y-58547007D01*
X72465925Y-58432993D01*
X72500000Y-58305826D01*
X72500000Y-58174174D01*
X72465925Y-58047007D01*
X72400099Y-57932993D01*
X72332106Y-57865000D01*
X74207894Y-57865000D01*
X74139901Y-57932993D01*
G37*
%TD.AperFunction*%
%TA.AperFunction,Conductor*%
G36*
X141490160Y-56501110D02*
G01*
X141506879Y-56520405D01*
X141636890Y-56706078D01*
X141758946Y-56828134D01*
X141792431Y-56889457D01*
X141787447Y-56959149D01*
X141745575Y-57015082D01*
X141714598Y-57031997D01*
X141582671Y-57081202D01*
X141582664Y-57081206D01*
X141467455Y-57167452D01*
X141467452Y-57167455D01*
X141381206Y-57282664D01*
X141381202Y-57282671D01*
X141331997Y-57414598D01*
X141290126Y-57470532D01*
X141224661Y-57494949D01*
X141156388Y-57480097D01*
X141128134Y-57458946D01*
X141006078Y-57336890D01*
X140820405Y-57206879D01*
X140776780Y-57152302D01*
X140769588Y-57082804D01*
X140801110Y-57020449D01*
X140820406Y-57003730D01*
X141006401Y-56873495D01*
X141173495Y-56706401D01*
X141303730Y-56520405D01*
X141358307Y-56476781D01*
X141427805Y-56469587D01*
X141490160Y-56501110D01*
G37*
%TD.AperFunction*%
%TA.AperFunction,Conductor*%
G36*
X144809367Y-33500497D02*
G01*
X144825049Y-33502242D01*
X144825070Y-33502019D01*
X144833155Y-33502752D01*
X144833164Y-33502754D01*
X144886388Y-33500600D01*
X144891391Y-33500500D01*
X144921994Y-33500500D01*
X144923893Y-33500517D01*
X145179333Y-33504892D01*
X145193532Y-33505955D01*
X145464376Y-33541973D01*
X145478380Y-33544662D01*
X145743299Y-33611545D01*
X145756885Y-33615820D01*
X146012372Y-33712681D01*
X146025384Y-33718491D01*
X146268054Y-33844048D01*
X146280323Y-33851320D01*
X146506957Y-34003903D01*
X146518306Y-34012531D01*
X146725936Y-34190145D01*
X146736214Y-34200016D01*
X146922068Y-34400290D01*
X146931143Y-34411272D01*
X147007462Y-34515291D01*
X147092773Y-34631567D01*
X147100535Y-34643533D01*
X147235795Y-34880923D01*
X147242131Y-34893701D01*
X147349234Y-35145048D01*
X147354061Y-35158469D01*
X147431591Y-35420445D01*
X147434846Y-35434331D01*
X147481784Y-35703494D01*
X147483422Y-35717663D01*
X147499295Y-35993132D01*
X147499500Y-36000265D01*
X147499500Y-86996249D01*
X147499274Y-87003736D01*
X147481728Y-87293794D01*
X147479923Y-87308659D01*
X147428219Y-87590798D01*
X147424635Y-87605336D01*
X147339306Y-87879167D01*
X147333997Y-87893168D01*
X147216275Y-88154736D01*
X147209316Y-88167995D01*
X147060928Y-88413459D01*
X147052422Y-88425782D01*
X146875526Y-88651573D01*
X146865596Y-88662781D01*
X146662781Y-88865596D01*
X146651573Y-88875526D01*
X146425782Y-89052422D01*
X146413459Y-89060928D01*
X146167995Y-89209316D01*
X146154736Y-89216275D01*
X145893168Y-89333997D01*
X145879167Y-89339306D01*
X145605336Y-89424635D01*
X145590798Y-89428219D01*
X145308659Y-89479923D01*
X145293794Y-89481728D01*
X145003736Y-89499274D01*
X144996249Y-89499500D01*
X66190733Y-89499500D01*
X66175055Y-89497757D01*
X66175035Y-89497980D01*
X66166941Y-89497246D01*
X66166935Y-89497246D01*
X66113704Y-89499399D01*
X66108695Y-89499500D01*
X66078287Y-89499500D01*
X66076164Y-89499482D01*
X66063077Y-89499257D01*
X65820498Y-89495103D01*
X65806275Y-89494039D01*
X65535166Y-89457984D01*
X65521160Y-89455294D01*
X65255984Y-89388346D01*
X65242378Y-89384065D01*
X64986641Y-89287108D01*
X64973618Y-89281293D01*
X64730717Y-89155616D01*
X64718446Y-89148343D01*
X64491571Y-88995594D01*
X64480218Y-88986962D01*
X64338342Y-88865596D01*
X64272386Y-88809174D01*
X64262102Y-88799297D01*
X64076066Y-88598823D01*
X64066982Y-88587828D01*
X63905197Y-88367318D01*
X63897435Y-88355352D01*
X63790685Y-88167995D01*
X63762037Y-88117715D01*
X63755706Y-88104947D01*
X63648494Y-87853333D01*
X63643670Y-87839922D01*
X63566055Y-87577650D01*
X63562806Y-87563782D01*
X63515825Y-87294341D01*
X63514188Y-87280175D01*
X63500705Y-87046121D01*
X63500500Y-87038990D01*
X63500500Y-85499993D01*
X83930836Y-85499993D01*
X83930836Y-85500006D01*
X83950000Y-85731297D01*
X83950002Y-85731308D01*
X84006978Y-85956300D01*
X84100211Y-86168848D01*
X84227152Y-86363147D01*
X84227155Y-86363151D01*
X84227157Y-86363153D01*
X84384352Y-86533913D01*
X84384355Y-86533915D01*
X84384358Y-86533918D01*
X84567501Y-86676464D01*
X84567507Y-86676468D01*
X84567510Y-86676470D01*
X84771633Y-86786936D01*
X84885623Y-86826068D01*
X84991151Y-86862297D01*
X84991153Y-86862297D01*
X84991155Y-86862298D01*
X85220087Y-86900500D01*
X85220088Y-86900500D01*
X85452184Y-86900500D01*
X85452185Y-86900500D01*
X85681117Y-86862298D01*
X85900639Y-86786936D01*
X86104762Y-86676470D01*
X86155556Y-86636936D01*
X86166265Y-86628600D01*
X86287920Y-86533913D01*
X86445115Y-86363153D01*
X86572060Y-86168849D01*
X86665293Y-85956300D01*
X86722270Y-85731305D01*
X86722271Y-85731297D01*
X86741436Y-85500006D01*
X86741436Y-85500000D01*
X119451920Y-85500000D01*
X119472211Y-85757820D01*
X119532582Y-86009285D01*
X119631549Y-86248213D01*
X119703707Y-86365962D01*
X120255839Y-85813830D01*
X120302430Y-85926310D01*
X120400924Y-86073717D01*
X120526283Y-86199076D01*
X120673690Y-86297570D01*
X120786168Y-86344160D01*
X120234036Y-86896291D01*
X120234036Y-86896292D01*
X120351786Y-86968450D01*
X120590714Y-87067417D01*
X120842179Y-87127788D01*
X121100000Y-87148079D01*
X121357820Y-87127788D01*
X121609285Y-87067417D01*
X121848209Y-86968451D01*
X121965961Y-86896291D01*
X121413830Y-86344160D01*
X121526310Y-86297570D01*
X121673717Y-86199076D01*
X121799076Y-86073717D01*
X121897570Y-85926310D01*
X121944160Y-85813830D01*
X122496291Y-86365961D01*
X122568451Y-86248209D01*
X122667417Y-86009285D01*
X122727788Y-85757820D01*
X122748079Y-85500000D01*
X122736273Y-85349993D01*
X135994700Y-85349993D01*
X135994700Y-85350006D01*
X136013864Y-85581297D01*
X136013866Y-85581308D01*
X136070842Y-85806300D01*
X136164075Y-86018848D01*
X136291016Y-86213147D01*
X136291019Y-86213151D01*
X136291021Y-86213153D01*
X136448216Y-86383913D01*
X136448219Y-86383915D01*
X136448222Y-86383918D01*
X136631365Y-86526464D01*
X136631371Y-86526468D01*
X136631374Y-86526470D01*
X136835497Y-86636936D01*
X136949487Y-86676068D01*
X137055015Y-86712297D01*
X137055017Y-86712297D01*
X137055019Y-86712298D01*
X137283951Y-86750500D01*
X137283952Y-86750500D01*
X137516048Y-86750500D01*
X137516049Y-86750500D01*
X137744981Y-86712298D01*
X137964503Y-86636936D01*
X138168626Y-86526470D01*
X138351784Y-86383913D01*
X138508979Y-86213153D01*
X138635924Y-86018849D01*
X138729157Y-85806300D01*
X138786134Y-85581305D01*
X138786135Y-85581297D01*
X138805300Y-85350006D01*
X138805300Y-85349993D01*
X138786135Y-85118702D01*
X138786133Y-85118691D01*
X138729157Y-84893699D01*
X138635924Y-84681151D01*
X138508980Y-84486849D01*
X138508979Y-84486847D01*
X138464285Y-84438296D01*
X138433363Y-84375642D01*
X138441224Y-84306215D01*
X138464280Y-84270338D01*
X138608979Y-84113153D01*
X138735924Y-83918849D01*
X138829157Y-83706300D01*
X138886134Y-83481305D01*
X138905300Y-83250000D01*
X138905300Y-83249993D01*
X138886135Y-83018702D01*
X138886133Y-83018691D01*
X138829157Y-82793699D01*
X138735924Y-82581151D01*
X138608983Y-82386852D01*
X138608980Y-82386849D01*
X138608979Y-82386847D01*
X138451784Y-82216087D01*
X138451779Y-82216083D01*
X138451777Y-82216081D01*
X138268634Y-82073535D01*
X138268628Y-82073531D01*
X138064504Y-81963064D01*
X138064495Y-81963061D01*
X137844984Y-81887702D01*
X137673282Y-81859050D01*
X137616049Y-81849500D01*
X137383951Y-81849500D01*
X137338164Y-81857140D01*
X137155015Y-81887702D01*
X136935504Y-81963061D01*
X136935495Y-81963064D01*
X136731371Y-82073531D01*
X136731365Y-82073535D01*
X136548222Y-82216081D01*
X136548219Y-82216084D01*
X136391016Y-82386852D01*
X136264075Y-82581151D01*
X136170842Y-82793699D01*
X136113866Y-83018691D01*
X136113864Y-83018702D01*
X136094700Y-83249993D01*
X136094700Y-83250006D01*
X136113864Y-83481297D01*
X136113866Y-83481308D01*
X136170842Y-83706300D01*
X136264075Y-83918848D01*
X136382101Y-84099500D01*
X136391021Y-84113153D01*
X136413620Y-84137702D01*
X136435714Y-84161703D01*
X136466636Y-84224358D01*
X136458775Y-84293784D01*
X136435714Y-84329667D01*
X136291018Y-84486849D01*
X136164075Y-84681151D01*
X136070842Y-84893699D01*
X136013866Y-85118691D01*
X136013864Y-85118702D01*
X135994700Y-85349993D01*
X122736273Y-85349993D01*
X122727788Y-85242179D01*
X122667417Y-84990714D01*
X122568450Y-84751786D01*
X122496291Y-84634036D01*
X121944160Y-85186168D01*
X121897570Y-85073690D01*
X121799076Y-84926283D01*
X121673717Y-84800924D01*
X121526310Y-84702430D01*
X121413830Y-84655839D01*
X121965962Y-84103707D01*
X121848213Y-84031549D01*
X121609285Y-83932582D01*
X121357820Y-83872211D01*
X121100000Y-83851920D01*
X120842179Y-83872211D01*
X120590714Y-83932582D01*
X120351786Y-84031549D01*
X120234036Y-84103707D01*
X120786169Y-84655839D01*
X120673690Y-84702430D01*
X120526283Y-84800924D01*
X120400924Y-84926283D01*
X120302430Y-85073690D01*
X120255839Y-85186168D01*
X119703707Y-84634036D01*
X119631549Y-84751786D01*
X119532582Y-84990714D01*
X119472211Y-85242179D01*
X119451920Y-85500000D01*
X86741436Y-85500000D01*
X86741436Y-85499993D01*
X86722271Y-85268702D01*
X86722269Y-85268691D01*
X86665293Y-85043699D01*
X86572060Y-84831151D01*
X86445119Y-84636852D01*
X86445116Y-84636849D01*
X86445115Y-84636847D01*
X86287920Y-84466087D01*
X86287915Y-84466083D01*
X86287913Y-84466081D01*
X86104770Y-84323535D01*
X86104764Y-84323531D01*
X85900640Y-84213064D01*
X85900631Y-84213061D01*
X85681120Y-84137702D01*
X85477396Y-84103707D01*
X85452185Y-84099500D01*
X85220087Y-84099500D01*
X85194876Y-84103707D01*
X84991151Y-84137702D01*
X84771640Y-84213061D01*
X84771631Y-84213064D01*
X84567507Y-84323531D01*
X84567501Y-84323535D01*
X84384358Y-84466081D01*
X84384355Y-84466084D01*
X84227152Y-84636852D01*
X84100211Y-84831151D01*
X84006978Y-85043699D01*
X83950002Y-85268691D01*
X83950000Y-85268702D01*
X83930836Y-85499993D01*
X63500500Y-85499993D01*
X63500500Y-71087486D01*
X78300001Y-71087486D01*
X78310494Y-71190197D01*
X78365641Y-71356619D01*
X78365643Y-71356624D01*
X78457684Y-71505845D01*
X78581654Y-71629815D01*
X78730875Y-71721856D01*
X78730880Y-71721858D01*
X78897302Y-71777005D01*
X78897309Y-71777006D01*
X79000019Y-71787499D01*
X79124999Y-71787499D01*
X79875000Y-71787499D01*
X79999972Y-71787499D01*
X79999986Y-71787498D01*
X80102697Y-71777005D01*
X80269119Y-71721858D01*
X80269124Y-71721856D01*
X80418345Y-71629815D01*
X80542315Y-71505845D01*
X80634356Y-71356624D01*
X80634358Y-71356619D01*
X80689505Y-71190197D01*
X80689506Y-71190190D01*
X80699999Y-71087486D01*
X82100001Y-71087486D01*
X82110494Y-71190197D01*
X82165641Y-71356619D01*
X82165643Y-71356624D01*
X82257684Y-71505845D01*
X82381654Y-71629815D01*
X82530875Y-71721856D01*
X82530880Y-71721858D01*
X82697302Y-71777005D01*
X82697309Y-71777006D01*
X82800019Y-71787499D01*
X82924999Y-71787499D01*
X82925000Y-71787498D01*
X82925000Y-71062500D01*
X82100001Y-71062500D01*
X82100001Y-71087486D01*
X80699999Y-71087486D01*
X80700000Y-71087473D01*
X80700000Y-71062500D01*
X79875000Y-71062500D01*
X79875000Y-71787499D01*
X79124999Y-71787499D01*
X79125000Y-71787498D01*
X79125000Y-71062500D01*
X78300001Y-71062500D01*
X78300001Y-71087486D01*
X63500500Y-71087486D01*
X63500500Y-66600000D01*
X68032159Y-66600000D01*
X68051475Y-66796129D01*
X68108688Y-66984733D01*
X68201586Y-67158532D01*
X68201590Y-67158539D01*
X68326616Y-67310883D01*
X68478960Y-67435909D01*
X68478967Y-67435913D01*
X68652766Y-67528811D01*
X68652769Y-67528811D01*
X68652773Y-67528814D01*
X68841368Y-67586024D01*
X69037500Y-67605341D01*
X69233632Y-67586024D01*
X69422227Y-67528814D01*
X69596038Y-67435910D01*
X69748383Y-67310883D01*
X69873410Y-67158538D01*
X69966314Y-66984727D01*
X70023524Y-66796132D01*
X70042841Y-66600000D01*
X70023524Y-66403868D01*
X69972298Y-66235000D01*
X70702858Y-66235000D01*
X70726566Y-66323483D01*
X70726570Y-66323492D01*
X70826399Y-66537578D01*
X70961894Y-66731082D01*
X71128917Y-66898105D01*
X71322421Y-67033600D01*
X71536507Y-67133429D01*
X71536516Y-67133433D01*
X71624999Y-67157142D01*
X72375000Y-67157142D01*
X72463483Y-67133433D01*
X72463492Y-67133429D01*
X72677578Y-67033600D01*
X72871082Y-66898105D01*
X73038105Y-66731082D01*
X73168425Y-66544968D01*
X73223002Y-66501344D01*
X73292501Y-66494151D01*
X73354855Y-66525673D01*
X73371575Y-66544968D01*
X73501894Y-66731082D01*
X73668917Y-66898105D01*
X73862421Y-67033600D01*
X74076507Y-67133429D01*
X74076516Y-67133433D01*
X74164999Y-67157142D01*
X74915000Y-67157142D01*
X75003483Y-67133433D01*
X75003492Y-67133429D01*
X75217578Y-67033600D01*
X75411082Y-66898105D01*
X75578105Y-66731082D01*
X75713600Y-66537578D01*
X75813429Y-66323492D01*
X75813433Y-66323483D01*
X75837142Y-66235000D01*
X74915000Y-66235000D01*
X74915000Y-67157142D01*
X74164999Y-67157142D01*
X74165000Y-67157141D01*
X74165000Y-66235000D01*
X72375000Y-66235000D01*
X72375000Y-67157142D01*
X71624999Y-67157142D01*
X71625000Y-67157141D01*
X71625000Y-66235000D01*
X70702858Y-66235000D01*
X69972298Y-66235000D01*
X69966314Y-66215273D01*
X69966311Y-66215269D01*
X69966311Y-66215266D01*
X69873413Y-66041467D01*
X69873409Y-66041460D01*
X69748383Y-65889116D01*
X69596039Y-65764090D01*
X69596032Y-65764086D01*
X69422233Y-65671188D01*
X69422227Y-65671186D01*
X69233632Y-65613976D01*
X69233629Y-65613975D01*
X69037500Y-65594659D01*
X68841370Y-65613975D01*
X68652766Y-65671188D01*
X68478967Y-65764086D01*
X68478960Y-65764090D01*
X68326616Y-65889116D01*
X68201590Y-66041460D01*
X68201586Y-66041467D01*
X68108688Y-66215266D01*
X68051475Y-66403870D01*
X68032159Y-66600000D01*
X63500500Y-66600000D01*
X63500500Y-58221805D01*
X67772499Y-58221805D01*
X67797803Y-58349010D01*
X67797556Y-58349059D01*
X67800867Y-58366197D01*
X67832741Y-58730511D01*
X67832741Y-58730513D01*
X67898951Y-59106009D01*
X67898955Y-59106026D01*
X67997639Y-59474325D01*
X68128053Y-59832638D01*
X68128056Y-59832646D01*
X68289191Y-60178203D01*
X68289208Y-60178238D01*
X68479843Y-60508430D01*
X68479849Y-60508440D01*
X68647929Y-60748484D01*
X68669995Y-60779999D01*
X68698561Y-60820795D01*
X68698562Y-60820796D01*
X68943643Y-61112875D01*
X68943662Y-61112897D01*
X69022563Y-61191799D01*
X69022567Y-61191802D01*
X70667233Y-62836468D01*
X70700718Y-62897791D01*
X70699327Y-62956241D01*
X70664939Y-63084583D01*
X70664936Y-63084596D01*
X70644341Y-63319999D01*
X70644341Y-63320000D01*
X70664936Y-63555403D01*
X70664938Y-63555413D01*
X70726094Y-63783655D01*
X70726096Y-63783659D01*
X70726097Y-63783663D01*
X70794646Y-63930666D01*
X70825965Y-63997830D01*
X70825967Y-63997834D01*
X70895547Y-64097203D01*
X70961501Y-64191396D01*
X70961506Y-64191402D01*
X71128597Y-64358493D01*
X71128603Y-64358498D01*
X71314594Y-64488730D01*
X71358219Y-64543307D01*
X71365413Y-64612805D01*
X71333890Y-64675160D01*
X71314595Y-64691880D01*
X71128922Y-64821890D01*
X71128920Y-64821891D01*
X70961891Y-64988920D01*
X70961886Y-64988926D01*
X70826400Y-65182420D01*
X70826399Y-65182422D01*
X70726570Y-65396507D01*
X70726566Y-65396516D01*
X70702857Y-65484999D01*
X70702858Y-65485000D01*
X71667894Y-65485000D01*
X71599901Y-65552993D01*
X71534075Y-65667007D01*
X71500000Y-65794174D01*
X71500000Y-65925826D01*
X71534075Y-66052993D01*
X71599901Y-66167007D01*
X71692993Y-66260099D01*
X71807007Y-66325925D01*
X71934174Y-66360000D01*
X72065826Y-66360000D01*
X72192993Y-66325925D01*
X72307007Y-66260099D01*
X72400099Y-66167007D01*
X72465925Y-66052993D01*
X72500000Y-65925826D01*
X72500000Y-65794174D01*
X72465925Y-65667007D01*
X72400099Y-65552993D01*
X72332106Y-65485000D01*
X74207894Y-65485000D01*
X74139901Y-65552993D01*
X74074075Y-65667007D01*
X74040000Y-65794174D01*
X74040000Y-65925826D01*
X74074075Y-66052993D01*
X74139901Y-66167007D01*
X74232993Y-66260099D01*
X74347007Y-66325925D01*
X74474174Y-66360000D01*
X74605826Y-66360000D01*
X74732993Y-66325925D01*
X74847007Y-66260099D01*
X74940099Y-66167007D01*
X75005925Y-66052993D01*
X75040000Y-65925826D01*
X75040000Y-65794174D01*
X75005925Y-65667007D01*
X74940099Y-65552993D01*
X74872106Y-65485000D01*
X75837142Y-65485000D01*
X75837142Y-65484999D01*
X75813433Y-65396516D01*
X75813429Y-65396507D01*
X75713600Y-65182422D01*
X75713599Y-65182420D01*
X75578113Y-64988926D01*
X75578108Y-64988920D01*
X75411078Y-64821890D01*
X75225405Y-64691879D01*
X75181780Y-64637302D01*
X75174588Y-64567804D01*
X75206110Y-64505449D01*
X75225406Y-64488730D01*
X75411401Y-64358495D01*
X75569913Y-64199983D01*
X78299500Y-64199983D01*
X78299500Y-65000001D01*
X78299501Y-65000019D01*
X78310000Y-65102796D01*
X78310001Y-65102799D01*
X78350776Y-65225848D01*
X78365186Y-65269334D01*
X78443626Y-65396507D01*
X78457289Y-65418657D01*
X78550951Y-65512319D01*
X78584436Y-65573642D01*
X78579452Y-65643334D01*
X78550951Y-65687681D01*
X78457289Y-65781342D01*
X78365187Y-65930663D01*
X78365186Y-65930666D01*
X78310001Y-66097203D01*
X78310001Y-66097204D01*
X78310000Y-66097204D01*
X78299500Y-66199983D01*
X78299500Y-67000001D01*
X78299501Y-67000019D01*
X78310000Y-67102796D01*
X78310001Y-67102799D01*
X78328472Y-67158539D01*
X78365186Y-67269334D01*
X78457288Y-67418656D01*
X78581344Y-67542712D01*
X78581347Y-67542714D01*
X78586116Y-67546485D01*
X78626491Y-67603508D01*
X78629629Y-67673307D01*
X78594532Y-67733722D01*
X78586116Y-67741015D01*
X78581341Y-67744790D01*
X78457289Y-67868842D01*
X78365187Y-68018163D01*
X78365186Y-68018166D01*
X78310001Y-68184703D01*
X78310001Y-68184704D01*
X78310000Y-68184704D01*
X78299500Y-68287483D01*
X78299500Y-69087501D01*
X78299501Y-69087519D01*
X78310000Y-69190296D01*
X78310001Y-69190299D01*
X78365185Y-69356831D01*
X78365187Y-69356836D01*
X78457289Y-69506157D01*
X78551304Y-69600172D01*
X78584789Y-69661495D01*
X78579805Y-69731187D01*
X78551305Y-69775534D01*
X78457682Y-69869157D01*
X78365643Y-70018375D01*
X78365641Y-70018380D01*
X78310494Y-70184802D01*
X78310493Y-70184809D01*
X78300000Y-70287513D01*
X78300000Y-70312500D01*
X80699998Y-70312500D01*
X80710738Y-70301760D01*
X80772061Y-70268274D01*
X80826011Y-70268549D01*
X80832383Y-70270002D01*
X80837730Y-70271223D01*
X81097669Y-70300504D01*
X81228461Y-70300500D01*
X82036638Y-70300500D01*
X82077505Y-70312500D01*
X83176000Y-70312500D01*
X83243039Y-70332185D01*
X83288794Y-70384989D01*
X83300000Y-70436500D01*
X83300000Y-70687500D01*
X83551000Y-70687500D01*
X83618039Y-70707185D01*
X83663794Y-70759989D01*
X83675000Y-70811500D01*
X83675000Y-71787499D01*
X83799972Y-71787499D01*
X83799986Y-71787498D01*
X83902697Y-71777005D01*
X84069119Y-71721858D01*
X84069124Y-71721856D01*
X84218345Y-71629815D01*
X84342315Y-71505845D01*
X84434356Y-71356624D01*
X84434359Y-71356617D01*
X84447539Y-71316843D01*
X84487311Y-71259398D01*
X84551827Y-71232574D01*
X84620603Y-71244889D01*
X84631212Y-71250849D01*
X84750478Y-71325789D01*
X84920745Y-71385368D01*
X84920750Y-71385369D01*
X85099996Y-71405565D01*
X85100000Y-71405565D01*
X85100004Y-71405565D01*
X85279249Y-71385369D01*
X85279252Y-71385368D01*
X85279255Y-71385368D01*
X85449522Y-71325789D01*
X85602262Y-71229816D01*
X85701923Y-71130154D01*
X85763242Y-71096672D01*
X85832934Y-71101656D01*
X85888868Y-71143527D01*
X85907324Y-71184113D01*
X85908364Y-71183769D01*
X85958253Y-71334322D01*
X85960655Y-71404150D01*
X85924923Y-71464192D01*
X85872641Y-71493101D01*
X85770675Y-71520423D01*
X85770668Y-71520426D01*
X85572361Y-71612898D01*
X85572357Y-71612900D01*
X85393121Y-71738402D01*
X85238402Y-71893121D01*
X85112900Y-72072357D01*
X85112898Y-72072361D01*
X85020426Y-72270668D01*
X85020422Y-72270677D01*
X84963793Y-72482020D01*
X84963793Y-72482024D01*
X84944723Y-72699997D01*
X84944723Y-72700002D01*
X84963793Y-72917975D01*
X84963793Y-72917979D01*
X85020422Y-73129322D01*
X85020424Y-73129326D01*
X85020425Y-73129330D01*
X85058041Y-73209998D01*
X85112897Y-73327638D01*
X85112898Y-73327639D01*
X85218797Y-73478878D01*
X85241123Y-73545081D01*
X85224113Y-73612849D01*
X85218796Y-73621122D01*
X85112900Y-73772357D01*
X85112898Y-73772361D01*
X85020426Y-73970668D01*
X85020422Y-73970677D01*
X84963793Y-74182020D01*
X84963793Y-74182023D01*
X84961866Y-74204047D01*
X84944723Y-74399997D01*
X84944723Y-74400002D01*
X84963793Y-74617975D01*
X84963793Y-74617979D01*
X85020422Y-74829322D01*
X85020424Y-74829326D01*
X85020425Y-74829330D01*
X85022066Y-74832849D01*
X85112897Y-75027638D01*
X85112898Y-75027639D01*
X85238402Y-75206877D01*
X85393123Y-75361598D01*
X85572361Y-75487102D01*
X85770670Y-75579575D01*
X85982023Y-75636207D01*
X86164926Y-75652208D01*
X86199998Y-75655277D01*
X86200000Y-75655277D01*
X86200002Y-75655277D01*
X86228254Y-75652805D01*
X86417977Y-75636207D01*
X86629330Y-75579575D01*
X86827639Y-75487102D01*
X87006877Y-75361598D01*
X87161598Y-75206877D01*
X87287102Y-75027639D01*
X87379575Y-74829330D01*
X87436207Y-74617977D01*
X87455277Y-74400000D01*
X87436207Y-74182023D01*
X87379575Y-73970670D01*
X87287102Y-73772362D01*
X87287100Y-73772359D01*
X87287099Y-73772357D01*
X87181203Y-73621122D01*
X87158876Y-73554916D01*
X87175886Y-73487149D01*
X87181190Y-73478896D01*
X87287102Y-73327639D01*
X87341959Y-73209998D01*
X92085223Y-73209998D01*
X92085223Y-73210001D01*
X92104306Y-73476810D01*
X92104307Y-73476817D01*
X92161163Y-73738181D01*
X92254643Y-73988812D01*
X92254645Y-73988816D01*
X92382833Y-74223575D01*
X92397072Y-74242596D01*
X93154107Y-73485561D01*
X93206740Y-73612626D01*
X93299762Y-73751844D01*
X93418156Y-73870238D01*
X93557374Y-73963260D01*
X93684437Y-74015891D01*
X92927401Y-74772926D01*
X92946423Y-74787166D01*
X93181183Y-74915354D01*
X93181187Y-74915356D01*
X93431818Y-75008836D01*
X93693182Y-75065692D01*
X93693189Y-75065693D01*
X93959999Y-75084777D01*
X93960001Y-75084777D01*
X94226810Y-75065693D01*
X94226817Y-75065692D01*
X94488181Y-75008836D01*
X94738812Y-74915356D01*
X94738816Y-74915354D01*
X94889912Y-74832849D01*
X94958184Y-74817997D01*
X95023649Y-74842413D01*
X95065521Y-74898347D01*
X95070505Y-74968038D01*
X95055071Y-75006463D01*
X95051659Y-75012030D01*
X95051656Y-75012036D01*
X94954049Y-75247681D01*
X94954044Y-75247698D01*
X94894502Y-75495710D01*
X94874489Y-75750000D01*
X94894502Y-76004289D01*
X94954044Y-76252301D01*
X94954049Y-76252318D01*
X95051656Y-76487963D01*
X95051658Y-76487966D01*
X95055068Y-76493531D01*
X95073310Y-76560977D01*
X95052193Y-76627579D01*
X94998420Y-76672191D01*
X94929064Y-76680649D01*
X94889912Y-76667150D01*
X94738816Y-76584645D01*
X94738812Y-76584643D01*
X94488181Y-76491163D01*
X94226817Y-76434307D01*
X94226810Y-76434306D01*
X93960001Y-76415223D01*
X93959999Y-76415223D01*
X93693189Y-76434306D01*
X93693182Y-76434307D01*
X93431818Y-76491163D01*
X93181187Y-76584643D01*
X93181183Y-76584645D01*
X92946418Y-76712837D01*
X92946415Y-76712839D01*
X92927402Y-76727071D01*
X92927401Y-76727072D01*
X93684437Y-77484108D01*
X93557374Y-77536740D01*
X93418156Y-77629762D01*
X93299762Y-77748156D01*
X93206740Y-77887374D01*
X93154108Y-78014437D01*
X92397072Y-77257401D01*
X92397071Y-77257402D01*
X92382839Y-77276415D01*
X92382837Y-77276418D01*
X92254645Y-77511183D01*
X92254643Y-77511187D01*
X92161163Y-77761818D01*
X92104307Y-78023182D01*
X92104306Y-78023189D01*
X92085223Y-78289998D01*
X92085223Y-78290001D01*
X92104306Y-78556810D01*
X92104307Y-78556817D01*
X92161163Y-78818181D01*
X92254643Y-79068812D01*
X92254645Y-79068816D01*
X92382833Y-79303575D01*
X92397072Y-79322596D01*
X93154107Y-78565561D01*
X93206740Y-78692626D01*
X93299762Y-78831844D01*
X93418156Y-78950238D01*
X93557374Y-79043260D01*
X93684437Y-79095891D01*
X92927401Y-79852926D01*
X92946423Y-79867166D01*
X93181183Y-79995354D01*
X93181187Y-79995356D01*
X93431818Y-80088836D01*
X93693182Y-80145692D01*
X93693189Y-80145693D01*
X93959999Y-80164777D01*
X93960001Y-80164777D01*
X94226810Y-80145693D01*
X94226817Y-80145692D01*
X94488181Y-80088836D01*
X94738812Y-79995356D01*
X94738816Y-79995354D01*
X94973582Y-79867162D01*
X94992597Y-79852927D01*
X94235561Y-79095891D01*
X94362626Y-79043260D01*
X94501844Y-78950238D01*
X94620238Y-78831844D01*
X94713260Y-78692626D01*
X94765891Y-78565561D01*
X95522927Y-79322597D01*
X95537162Y-79303582D01*
X95665354Y-79068816D01*
X95665356Y-79068812D01*
X95758836Y-78818181D01*
X95815692Y-78556817D01*
X95815693Y-78556810D01*
X95834777Y-78290001D01*
X95834777Y-78289998D01*
X95815693Y-78023189D01*
X95815692Y-78023182D01*
X95758836Y-77761818D01*
X95665356Y-77511187D01*
X95665354Y-77511183D01*
X95582849Y-77360087D01*
X95567997Y-77291814D01*
X95592414Y-77226350D01*
X95648347Y-77184478D01*
X95718039Y-77179494D01*
X95756471Y-77194933D01*
X95762033Y-77198341D01*
X95762036Y-77198343D01*
X95997681Y-77295950D01*
X95997683Y-77295950D01*
X95997689Y-77295953D01*
X96245714Y-77355498D01*
X96500000Y-77375511D01*
X96754286Y-77355498D01*
X97002311Y-77295953D01*
X97109459Y-77251571D01*
X97237963Y-77198343D01*
X97237964Y-77198341D01*
X97237967Y-77198341D01*
X97243523Y-77194935D01*
X97310968Y-77176688D01*
X97377571Y-77197801D01*
X97422187Y-77251571D01*
X97430651Y-77320926D01*
X97417150Y-77360087D01*
X97334645Y-77511183D01*
X97334643Y-77511187D01*
X97241163Y-77761818D01*
X97184307Y-78023182D01*
X97184306Y-78023189D01*
X97165223Y-78289998D01*
X97165223Y-78290001D01*
X97184306Y-78556810D01*
X97184307Y-78556817D01*
X97241163Y-78818181D01*
X97334643Y-79068812D01*
X97334645Y-79068816D01*
X97462833Y-79303575D01*
X97477072Y-79322596D01*
X98234107Y-78565561D01*
X98286740Y-78692626D01*
X98379762Y-78831844D01*
X98498156Y-78950238D01*
X98637374Y-79043260D01*
X98764437Y-79095891D01*
X98007401Y-79852926D01*
X98026423Y-79867166D01*
X98261183Y-79995354D01*
X98261187Y-79995356D01*
X98511818Y-80088836D01*
X98773182Y-80145692D01*
X98773189Y-80145693D01*
X99039999Y-80164777D01*
X99040001Y-80164777D01*
X99306810Y-80145693D01*
X99306817Y-80145692D01*
X99568181Y-80088836D01*
X99818812Y-79995356D01*
X99818816Y-79995354D01*
X100053582Y-79867162D01*
X100072597Y-79852927D01*
X99315561Y-79095891D01*
X99442626Y-79043260D01*
X99581844Y-78950238D01*
X99700238Y-78831844D01*
X99793260Y-78692626D01*
X99845891Y-78565561D01*
X100602927Y-79322597D01*
X100617162Y-79303582D01*
X100745354Y-79068816D01*
X100745356Y-79068812D01*
X100838836Y-78818181D01*
X100895692Y-78556817D01*
X100895693Y-78556810D01*
X100914777Y-78290001D01*
X100914777Y-78289998D01*
X100895693Y-78023189D01*
X100895692Y-78023182D01*
X100838836Y-77761818D01*
X100745356Y-77511187D01*
X100745354Y-77511183D01*
X100617166Y-77276424D01*
X100617166Y-77276423D01*
X100602926Y-77257401D01*
X99845891Y-78014436D01*
X99793260Y-77887374D01*
X99700238Y-77748156D01*
X99581844Y-77629762D01*
X99442626Y-77536740D01*
X99315561Y-77484107D01*
X100072596Y-76727072D01*
X100053575Y-76712833D01*
X99818816Y-76584645D01*
X99818812Y-76584643D01*
X99568181Y-76491163D01*
X99306817Y-76434307D01*
X99306810Y-76434306D01*
X99040001Y-76415223D01*
X99039999Y-76415223D01*
X98773189Y-76434306D01*
X98773182Y-76434307D01*
X98511818Y-76491163D01*
X98261187Y-76584643D01*
X98261183Y-76584645D01*
X98110087Y-76667150D01*
X98041814Y-76682002D01*
X97976349Y-76657585D01*
X97934478Y-76601651D01*
X97929494Y-76531960D01*
X97944936Y-76493523D01*
X97948343Y-76487963D01*
X98045950Y-76252318D01*
X98045949Y-76252318D01*
X98045953Y-76252311D01*
X98105498Y-76004286D01*
X98125511Y-75750000D01*
X98105498Y-75495714D01*
X98045953Y-75247689D01*
X97970568Y-75065693D01*
X97948343Y-75012036D01*
X97948341Y-75012033D01*
X97944933Y-75006471D01*
X97926688Y-74939025D01*
X97947804Y-74872423D01*
X98001576Y-74827809D01*
X98070932Y-74819349D01*
X98110087Y-74832849D01*
X98261183Y-74915354D01*
X98261187Y-74915356D01*
X98511818Y-75008836D01*
X98773182Y-75065692D01*
X98773189Y-75065693D01*
X99039999Y-75084777D01*
X99040001Y-75084777D01*
X99306810Y-75065693D01*
X99306817Y-75065692D01*
X99568181Y-75008836D01*
X99818812Y-74915356D01*
X99818816Y-74915354D01*
X100053582Y-74787162D01*
X100072597Y-74772927D01*
X99315561Y-74015891D01*
X99442626Y-73963260D01*
X99581844Y-73870238D01*
X99700238Y-73751844D01*
X99793260Y-73612626D01*
X99845891Y-73485561D01*
X100602927Y-74242597D01*
X100617162Y-74223582D01*
X100745354Y-73988816D01*
X100745356Y-73988812D01*
X100838836Y-73738181D01*
X100895692Y-73476817D01*
X100895693Y-73476810D01*
X100914777Y-73210001D01*
X100914777Y-73209998D01*
X100895693Y-72943189D01*
X100895692Y-72943182D01*
X100838836Y-72681818D01*
X100745356Y-72431187D01*
X100745354Y-72431183D01*
X100617166Y-72196424D01*
X100617166Y-72196423D01*
X100602926Y-72177401D01*
X99845891Y-72934436D01*
X99793260Y-72807374D01*
X99700238Y-72668156D01*
X99581844Y-72549762D01*
X99442626Y-72456740D01*
X99315562Y-72404108D01*
X100072597Y-71647072D01*
X100053575Y-71632833D01*
X99818816Y-71504645D01*
X99818812Y-71504643D01*
X99568181Y-71411163D01*
X99306817Y-71354307D01*
X99306810Y-71354306D01*
X99040001Y-71335223D01*
X99039999Y-71335223D01*
X98773189Y-71354306D01*
X98773182Y-71354307D01*
X98511818Y-71411163D01*
X98261187Y-71504643D01*
X98261183Y-71504645D01*
X98026418Y-71632837D01*
X98026415Y-71632839D01*
X98007402Y-71647071D01*
X98007401Y-71647072D01*
X98764437Y-72404108D01*
X98637374Y-72456740D01*
X98498156Y-72549762D01*
X98379762Y-72668156D01*
X98286740Y-72807374D01*
X98234108Y-72934437D01*
X97477072Y-72177401D01*
X97477071Y-72177402D01*
X97462839Y-72196415D01*
X97462837Y-72196418D01*
X97334645Y-72431183D01*
X97334643Y-72431187D01*
X97241163Y-72681818D01*
X97184307Y-72943182D01*
X97184306Y-72943189D01*
X97165223Y-73209998D01*
X97165223Y-73210001D01*
X97184306Y-73476810D01*
X97184307Y-73476817D01*
X97241163Y-73738181D01*
X97334643Y-73988812D01*
X97334645Y-73988816D01*
X97417150Y-74139912D01*
X97432002Y-74208185D01*
X97407585Y-74273649D01*
X97351652Y-74315521D01*
X97281960Y-74320505D01*
X97243531Y-74305068D01*
X97237966Y-74301658D01*
X97237963Y-74301656D01*
X97002318Y-74204049D01*
X97002301Y-74204044D01*
X96754289Y-74144502D01*
X96500000Y-74124489D01*
X96245710Y-74144502D01*
X95997698Y-74204044D01*
X95997681Y-74204049D01*
X95762036Y-74301656D01*
X95762030Y-74301659D01*
X95756463Y-74305071D01*
X95689016Y-74323310D01*
X95622415Y-74302190D01*
X95577806Y-74248414D01*
X95569351Y-74179058D01*
X95582849Y-74139912D01*
X95665354Y-73988816D01*
X95665356Y-73988812D01*
X95758836Y-73738181D01*
X95815692Y-73476817D01*
X95815693Y-73476810D01*
X95834777Y-73210001D01*
X95834777Y-73209998D01*
X95815693Y-72943189D01*
X95815692Y-72943182D01*
X95758836Y-72681818D01*
X95665356Y-72431187D01*
X95665354Y-72431183D01*
X95537166Y-72196424D01*
X95537166Y-72196423D01*
X95522926Y-72177401D01*
X94765891Y-72934437D01*
X94713260Y-72807374D01*
X94620238Y-72668156D01*
X94501844Y-72549762D01*
X94362626Y-72456740D01*
X94235562Y-72404108D01*
X94992597Y-71647072D01*
X94973575Y-71632833D01*
X94738816Y-71504645D01*
X94738812Y-71504643D01*
X94488181Y-71411163D01*
X94226817Y-71354307D01*
X94226810Y-71354306D01*
X93960001Y-71335223D01*
X93959999Y-71335223D01*
X93693189Y-71354306D01*
X93693182Y-71354307D01*
X93431818Y-71411163D01*
X93181187Y-71504643D01*
X93181183Y-71504645D01*
X92946418Y-71632837D01*
X92946415Y-71632839D01*
X92927402Y-71647071D01*
X92927401Y-71647072D01*
X93684437Y-72404108D01*
X93557374Y-72456740D01*
X93418156Y-72549762D01*
X93299762Y-72668156D01*
X93206740Y-72807374D01*
X93154108Y-72934437D01*
X92397072Y-72177401D01*
X92397071Y-72177402D01*
X92382839Y-72196415D01*
X92382837Y-72196418D01*
X92254645Y-72431183D01*
X92254643Y-72431187D01*
X92161163Y-72681818D01*
X92104307Y-72943182D01*
X92104306Y-72943189D01*
X92085223Y-73209998D01*
X87341959Y-73209998D01*
X87379575Y-73129330D01*
X87436207Y-72917977D01*
X87455277Y-72700000D01*
X87453498Y-72679670D01*
X87442133Y-72549762D01*
X87436207Y-72482023D01*
X87379575Y-72270670D01*
X87287102Y-72072362D01*
X87287100Y-72072359D01*
X87287099Y-72072357D01*
X87224266Y-71982622D01*
X87201939Y-71916416D01*
X87218949Y-71848649D01*
X87269897Y-71800836D01*
X87325841Y-71787499D01*
X87599972Y-71787499D01*
X87599986Y-71787498D01*
X87702697Y-71777005D01*
X87869119Y-71721858D01*
X87869124Y-71721856D01*
X88018345Y-71629815D01*
X88142315Y-71505845D01*
X88234356Y-71356624D01*
X88234358Y-71356619D01*
X88289505Y-71190197D01*
X88289506Y-71190190D01*
X88299999Y-71087486D01*
X88300000Y-71087473D01*
X88300000Y-71062500D01*
X87224000Y-71062500D01*
X87156961Y-71042815D01*
X87111206Y-70990011D01*
X87100000Y-70938500D01*
X87100000Y-70436500D01*
X87119685Y-70369461D01*
X87172489Y-70323706D01*
X87224000Y-70312500D01*
X88299999Y-70312500D01*
X88299999Y-70287528D01*
X88299998Y-70287513D01*
X88289505Y-70184802D01*
X88234358Y-70018380D01*
X88234356Y-70018375D01*
X88142315Y-69869154D01*
X88048695Y-69775534D01*
X88015210Y-69714211D01*
X88020194Y-69644519D01*
X88048691Y-69600176D01*
X88142712Y-69506156D01*
X88234814Y-69356834D01*
X88289999Y-69190297D01*
X88300500Y-69087509D01*
X88300499Y-68287492D01*
X88289999Y-68184703D01*
X88234814Y-68018166D01*
X88142712Y-67868844D01*
X88018656Y-67744788D01*
X88018655Y-67744787D01*
X88013888Y-67741018D01*
X87973509Y-67683997D01*
X87970369Y-67614198D01*
X88005463Y-67553782D01*
X88013888Y-67546482D01*
X88018651Y-67542714D01*
X88018656Y-67542712D01*
X88142712Y-67418656D01*
X88234814Y-67269334D01*
X88289999Y-67102797D01*
X88300500Y-67000009D01*
X88300499Y-66199992D01*
X88289999Y-66097203D01*
X88234814Y-65930666D01*
X88142712Y-65781344D01*
X88049049Y-65687681D01*
X88015564Y-65626358D01*
X88020548Y-65556666D01*
X88049049Y-65512319D01*
X88076369Y-65484999D01*
X88142712Y-65418656D01*
X88234814Y-65269334D01*
X88289999Y-65102797D01*
X88300500Y-65000009D01*
X88300499Y-64199992D01*
X88299621Y-64191401D01*
X88289999Y-64097203D01*
X88289998Y-64097200D01*
X88257070Y-63997830D01*
X88234814Y-63930666D01*
X88234810Y-63930659D01*
X88206275Y-63884396D01*
X88187835Y-63817004D01*
X88208758Y-63750340D01*
X88259524Y-63706864D01*
X88617830Y-63540236D01*
X88630117Y-63533878D01*
X88646135Y-63526973D01*
X88649522Y-63525789D01*
X88802262Y-63429816D01*
X88929816Y-63302262D01*
X89025789Y-63149522D01*
X89085368Y-62979255D01*
X89095644Y-62888054D01*
X89105565Y-62800003D01*
X89105565Y-62799996D01*
X89085369Y-62620750D01*
X89085368Y-62620745D01*
X89025788Y-62450476D01*
X88929815Y-62297737D01*
X88802262Y-62170184D01*
X88649524Y-62074212D01*
X88649523Y-62074211D01*
X88649522Y-62074211D01*
X88643125Y-62071972D01*
X88621911Y-62061532D01*
X88621701Y-62061912D01*
X88617830Y-62059763D01*
X88312792Y-61917905D01*
X88260305Y-61871787D01*
X88241084Y-61804613D01*
X88247375Y-61766465D01*
X88265174Y-61712753D01*
X88275500Y-61611677D01*
X88275499Y-61013324D01*
X88265174Y-60912247D01*
X88211443Y-60750101D01*
X88209042Y-60680275D01*
X88244773Y-60620233D01*
X88307294Y-60589040D01*
X88343031Y-60587879D01*
X88422181Y-60596797D01*
X88499997Y-60605565D01*
X88500000Y-60605565D01*
X88500004Y-60605565D01*
X88679249Y-60585369D01*
X88679252Y-60585368D01*
X88679255Y-60585368D01*
X88849522Y-60525789D01*
X89002262Y-60429816D01*
X89129816Y-60302262D01*
X89225789Y-60149522D01*
X89285368Y-59979255D01*
X89293329Y-59908599D01*
X89305565Y-59800003D01*
X89305565Y-59799996D01*
X89285369Y-59620750D01*
X89285368Y-59620745D01*
X89232787Y-59470477D01*
X89225789Y-59450478D01*
X89222307Y-59444937D01*
X89129815Y-59297737D01*
X89002262Y-59170184D01*
X88849523Y-59074211D01*
X88679254Y-59014631D01*
X88679249Y-59014630D01*
X88500004Y-58994435D01*
X88499996Y-58994435D01*
X88343927Y-59012019D01*
X88275105Y-58999964D01*
X88223726Y-58952615D01*
X88212339Y-58927802D01*
X88210908Y-58923484D01*
X88120340Y-58776650D01*
X87998350Y-58654660D01*
X87998349Y-58654659D01*
X87959402Y-58630636D01*
X87912678Y-58578687D01*
X87900500Y-58525098D01*
X87900500Y-58499997D01*
X120994723Y-58499997D01*
X120994723Y-58500002D01*
X121013793Y-58717975D01*
X121013793Y-58717979D01*
X121070422Y-58929322D01*
X121070424Y-58929326D01*
X121070425Y-58929330D01*
X121081283Y-58952615D01*
X121162897Y-59127638D01*
X121162898Y-59127639D01*
X121288402Y-59306877D01*
X121443123Y-59461598D01*
X121622361Y-59587102D01*
X121820670Y-59679575D01*
X122032023Y-59736207D01*
X122214926Y-59752208D01*
X122249998Y-59755277D01*
X122250000Y-59755277D01*
X122250002Y-59755277D01*
X122278254Y-59752805D01*
X122467977Y-59736207D01*
X122679330Y-59679575D01*
X122877639Y-59587102D01*
X123056877Y-59461598D01*
X123211598Y-59306877D01*
X123337102Y-59127639D01*
X123429575Y-58929330D01*
X123477626Y-58750000D01*
X138837858Y-58750000D01*
X138861566Y-58838483D01*
X138861570Y-58838492D01*
X138961399Y-59052578D01*
X139096894Y-59246082D01*
X139263917Y-59413105D01*
X139457421Y-59548600D01*
X139671507Y-59648429D01*
X139671516Y-59648433D01*
X139759999Y-59672142D01*
X139760000Y-59672141D01*
X139760000Y-58750000D01*
X138837858Y-58750000D01*
X123477626Y-58750000D01*
X123486207Y-58717977D01*
X123505277Y-58500000D01*
X123486207Y-58282023D01*
X123430864Y-58075480D01*
X123429577Y-58070677D01*
X123429576Y-58070676D01*
X123429575Y-58070670D01*
X123337102Y-57872362D01*
X123337100Y-57872359D01*
X123337099Y-57872357D01*
X123211599Y-57693124D01*
X123211596Y-57693121D01*
X123056877Y-57538402D01*
X122884236Y-57417517D01*
X122877638Y-57412897D01*
X122714639Y-57336890D01*
X122679330Y-57320425D01*
X122679326Y-57320424D01*
X122679322Y-57320422D01*
X122467977Y-57263793D01*
X122250002Y-57244723D01*
X122249998Y-57244723D01*
X122104682Y-57257436D01*
X122032023Y-57263793D01*
X122032020Y-57263793D01*
X121820677Y-57320422D01*
X121820668Y-57320426D01*
X121622361Y-57412898D01*
X121622357Y-57412900D01*
X121443121Y-57538402D01*
X121288402Y-57693121D01*
X121162900Y-57872357D01*
X121162898Y-57872361D01*
X121070426Y-58070668D01*
X121070422Y-58070677D01*
X121013793Y-58282020D01*
X121013793Y-58282023D01*
X121011711Y-58305826D01*
X120994723Y-58499997D01*
X87900500Y-58499997D01*
X87900500Y-58401082D01*
X87901097Y-58388927D01*
X87904867Y-58350653D01*
X87910728Y-58291153D01*
X87915467Y-58267331D01*
X87942213Y-58179166D01*
X87951509Y-58156725D01*
X87994939Y-58075474D01*
X88008437Y-58055274D01*
X88067696Y-57983067D01*
X88125439Y-57943735D01*
X88195284Y-57941864D01*
X88204502Y-57944693D01*
X88320737Y-57985366D01*
X88320743Y-57985367D01*
X88320745Y-57985368D01*
X88320746Y-57985368D01*
X88320750Y-57985369D01*
X88499996Y-58005565D01*
X88500000Y-58005565D01*
X88500004Y-58005565D01*
X88679249Y-57985369D01*
X88679252Y-57985368D01*
X88679255Y-57985368D01*
X88849522Y-57925789D01*
X89002262Y-57829816D01*
X89129816Y-57702262D01*
X89225789Y-57549522D01*
X89285368Y-57379255D01*
X89286532Y-57368926D01*
X89305565Y-57200003D01*
X89305565Y-57199996D01*
X89285369Y-57020750D01*
X89285368Y-57020745D01*
X89237929Y-56885172D01*
X89225789Y-56850478D01*
X89129816Y-56697738D01*
X89002262Y-56570184D01*
X88923041Y-56520406D01*
X88849523Y-56474211D01*
X88679254Y-56414631D01*
X88679249Y-56414630D01*
X88500004Y-56394435D01*
X88499996Y-56394435D01*
X88320750Y-56414630D01*
X88320745Y-56414631D01*
X88150476Y-56474211D01*
X87997736Y-56570185D01*
X87945752Y-56622168D01*
X87896395Y-56652414D01*
X87787789Y-56687707D01*
X87787782Y-56687709D01*
X87618910Y-56773762D01*
X87465584Y-56885172D01*
X87403268Y-56947496D01*
X87403264Y-56947500D01*
X87263354Y-57087411D01*
X87263353Y-57087411D01*
X87225382Y-57125381D01*
X87225382Y-57125382D01*
X87198463Y-57152302D01*
X87164364Y-57186401D01*
X87164267Y-57186510D01*
X87142178Y-57208600D01*
X87085343Y-57282669D01*
X87019160Y-57368920D01*
X86998899Y-57395324D01*
X86998893Y-57395332D01*
X86881219Y-57599148D01*
X86881210Y-57599165D01*
X86791147Y-57816590D01*
X86791143Y-57816600D01*
X86730229Y-58043924D01*
X86730226Y-58043938D01*
X86699501Y-58277281D01*
X86699501Y-58310783D01*
X86699500Y-58310811D01*
X86699500Y-58315917D01*
X86699500Y-58391585D01*
X86699500Y-58394961D01*
X86699500Y-58432993D01*
X86699499Y-58475469D01*
X86699500Y-58475486D01*
X86699500Y-58525098D01*
X86679815Y-58592137D01*
X86640598Y-58630636D01*
X86601650Y-58654659D01*
X86479661Y-58776648D01*
X86389093Y-58923481D01*
X86389091Y-58923486D01*
X86379439Y-58952615D01*
X86334826Y-59087247D01*
X86334826Y-59087248D01*
X86334825Y-59087248D01*
X86324500Y-59188315D01*
X86324500Y-59786669D01*
X86324501Y-59786687D01*
X86334825Y-59887752D01*
X86365147Y-59979255D01*
X86389092Y-60051516D01*
X86467233Y-60178203D01*
X86479661Y-60198351D01*
X86593629Y-60312319D01*
X86627114Y-60373642D01*
X86622130Y-60443334D01*
X86593629Y-60487681D01*
X86479661Y-60601648D01*
X86389093Y-60748481D01*
X86389091Y-60748486D01*
X86365132Y-60820791D01*
X86334826Y-60912247D01*
X86334826Y-60912248D01*
X86334825Y-60912248D01*
X86324500Y-61013315D01*
X86324500Y-61123815D01*
X86320275Y-61155907D01*
X86299500Y-61233441D01*
X86299500Y-61423272D01*
X86299496Y-61431576D01*
X86299500Y-61431656D01*
X86299500Y-61435308D01*
X86305925Y-61459287D01*
X86307777Y-61467238D01*
X86322127Y-61539536D01*
X86324500Y-61563675D01*
X86324500Y-61611667D01*
X86324501Y-61611687D01*
X86334825Y-61712752D01*
X86369865Y-61818493D01*
X86389092Y-61876516D01*
X86479660Y-62023350D01*
X86601650Y-62145340D01*
X86748484Y-62235908D01*
X86912247Y-62290174D01*
X86912250Y-62290174D01*
X86912917Y-62290317D01*
X86913292Y-62290520D01*
X86918675Y-62292304D01*
X86918357Y-62293263D01*
X86974355Y-62323590D01*
X87362708Y-62711943D01*
X87387455Y-62747318D01*
X87387629Y-62747692D01*
X87398060Y-62816779D01*
X87387682Y-62852189D01*
X87387508Y-62852564D01*
X87362708Y-62888054D01*
X86942695Y-63308067D01*
X86942657Y-63308102D01*
X86923822Y-63326938D01*
X86923795Y-63326952D01*
X86826102Y-63424650D01*
X86826092Y-63424661D01*
X86805892Y-63450987D01*
X86749464Y-63492190D01*
X86707518Y-63499500D01*
X86599999Y-63499500D01*
X86599980Y-63499501D01*
X86497203Y-63510000D01*
X86497200Y-63510001D01*
X86330668Y-63565185D01*
X86330663Y-63565187D01*
X86181342Y-63657289D01*
X86057289Y-63781342D01*
X86035293Y-63817004D01*
X85965191Y-63930659D01*
X85961395Y-63936813D01*
X85959600Y-63935706D01*
X85920313Y-63980337D01*
X85854092Y-63999500D01*
X84545908Y-63999500D01*
X84478869Y-63979815D01*
X84440363Y-63935728D01*
X84438605Y-63936813D01*
X84434812Y-63930663D01*
X84342712Y-63781344D01*
X84218656Y-63657288D01*
X84069334Y-63565186D01*
X83902797Y-63510001D01*
X83902795Y-63510000D01*
X83800010Y-63499500D01*
X82799998Y-63499500D01*
X82799980Y-63499501D01*
X82697203Y-63510000D01*
X82697200Y-63510001D01*
X82530668Y-63565185D01*
X82530663Y-63565187D01*
X82381342Y-63657289D01*
X82257289Y-63781342D01*
X82235293Y-63817004D01*
X82165191Y-63930659D01*
X82161395Y-63936813D01*
X82159600Y-63935706D01*
X82120313Y-63980337D01*
X82054092Y-63999500D01*
X80745908Y-63999500D01*
X80678869Y-63979815D01*
X80640363Y-63935728D01*
X80638605Y-63936813D01*
X80634812Y-63930663D01*
X80542712Y-63781344D01*
X80418656Y-63657288D01*
X80269334Y-63565186D01*
X80102797Y-63510001D01*
X80102795Y-63510000D01*
X80000010Y-63499500D01*
X78999998Y-63499500D01*
X78999980Y-63499501D01*
X78897203Y-63510000D01*
X78897200Y-63510001D01*
X78730668Y-63565185D01*
X78730663Y-63565187D01*
X78581342Y-63657289D01*
X78457289Y-63781342D01*
X78365187Y-63930663D01*
X78365185Y-63930668D01*
X78346669Y-63986546D01*
X78310001Y-64097203D01*
X78310001Y-64097204D01*
X78310000Y-64097204D01*
X78299500Y-64199983D01*
X75569913Y-64199983D01*
X75578495Y-64191401D01*
X75714035Y-63997830D01*
X75813903Y-63783663D01*
X75875063Y-63555408D01*
X75895659Y-63320000D01*
X75875063Y-63084592D01*
X75813903Y-62856337D01*
X75714035Y-62642171D01*
X75699033Y-62620745D01*
X75578494Y-62448597D01*
X75411402Y-62281506D01*
X75411396Y-62281501D01*
X75225842Y-62151575D01*
X75182217Y-62096998D01*
X75175023Y-62027500D01*
X75206546Y-61965145D01*
X75225842Y-61948425D01*
X75269429Y-61917905D01*
X75411401Y-61818495D01*
X75578495Y-61651401D01*
X75714035Y-61457830D01*
X75813903Y-61243663D01*
X75875063Y-61015408D01*
X75895659Y-60780000D01*
X75875063Y-60544592D01*
X75813903Y-60316337D01*
X75714035Y-60102171D01*
X75708425Y-60094158D01*
X75578494Y-59908597D01*
X75411402Y-59741506D01*
X75411401Y-59741505D01*
X75225405Y-59611269D01*
X75181781Y-59556692D01*
X75174588Y-59487193D01*
X75206110Y-59424839D01*
X75225405Y-59408119D01*
X75411082Y-59278105D01*
X75578105Y-59111082D01*
X75713600Y-58917578D01*
X75813429Y-58703492D01*
X75813433Y-58703483D01*
X75837142Y-58615000D01*
X74872106Y-58615000D01*
X74940099Y-58547007D01*
X75005925Y-58432993D01*
X75040000Y-58305826D01*
X75040000Y-58174174D01*
X75005925Y-58047007D01*
X74940099Y-57932993D01*
X74872106Y-57865000D01*
X75837142Y-57865000D01*
X75837142Y-57864999D01*
X75813433Y-57776516D01*
X75813429Y-57776507D01*
X75713600Y-57562422D01*
X75713599Y-57562420D01*
X75578113Y-57368926D01*
X75578108Y-57368920D01*
X75411078Y-57201890D01*
X75225405Y-57071879D01*
X75181780Y-57017302D01*
X75174588Y-56947804D01*
X75206110Y-56885449D01*
X75225406Y-56868730D01*
X75243031Y-56856389D01*
X75411401Y-56738495D01*
X75578495Y-56571401D01*
X75714035Y-56377830D01*
X75813903Y-56163663D01*
X75875063Y-55935408D01*
X75895659Y-55700000D01*
X75875063Y-55464592D01*
X75828626Y-55291285D01*
X75813905Y-55236344D01*
X75813904Y-55236343D01*
X75813903Y-55236337D01*
X75714035Y-55022171D01*
X75708425Y-55014158D01*
X75578494Y-54828597D01*
X75499893Y-54749996D01*
X87694435Y-54749996D01*
X87694435Y-54750003D01*
X87714630Y-54929249D01*
X87714631Y-54929254D01*
X87774211Y-55099523D01*
X87819979Y-55172362D01*
X87870184Y-55252262D01*
X87997738Y-55379816D01*
X88058791Y-55418178D01*
X88132648Y-55464586D01*
X88150478Y-55475789D01*
X88320745Y-55535368D01*
X88320750Y-55535369D01*
X88499996Y-55555565D01*
X88500000Y-55555565D01*
X88500004Y-55555565D01*
X88679249Y-55535369D01*
X88679252Y-55535368D01*
X88679255Y-55535368D01*
X88849522Y-55475789D01*
X89002262Y-55379816D01*
X89129816Y-55252262D01*
X89225789Y-55099522D01*
X89285368Y-54929255D01*
X89285369Y-54929249D01*
X89305565Y-54750003D01*
X89305565Y-54749996D01*
X89285369Y-54570750D01*
X89285368Y-54570745D01*
X89281991Y-54561094D01*
X89225789Y-54400478D01*
X89129816Y-54247738D01*
X89002262Y-54120184D01*
X88970143Y-54100002D01*
X88849523Y-54024211D01*
X88679254Y-53964631D01*
X88679249Y-53964630D01*
X88500004Y-53944435D01*
X88499996Y-53944435D01*
X88320750Y-53964630D01*
X88320745Y-53964631D01*
X88150476Y-54024211D01*
X87997737Y-54120184D01*
X87870184Y-54247737D01*
X87774211Y-54400476D01*
X87714631Y-54570745D01*
X87714630Y-54570750D01*
X87694435Y-54749996D01*
X75499893Y-54749996D01*
X75411402Y-54661506D01*
X75411396Y-54661501D01*
X75225842Y-54531575D01*
X75182217Y-54476998D01*
X75175023Y-54407500D01*
X75206546Y-54345145D01*
X75225842Y-54328425D01*
X75304583Y-54273290D01*
X75411401Y-54198495D01*
X75578495Y-54031401D01*
X75714035Y-53837830D01*
X75813903Y-53623663D01*
X75875063Y-53395408D01*
X75895659Y-53160000D01*
X75893769Y-53138403D01*
X75882789Y-53012897D01*
X75875063Y-52924592D01*
X75813903Y-52696337D01*
X75714035Y-52482171D01*
X75708425Y-52474158D01*
X75578494Y-52288597D01*
X75411402Y-52121506D01*
X75411396Y-52121501D01*
X75225842Y-51991575D01*
X75182217Y-51936998D01*
X75175023Y-51867500D01*
X75206546Y-51805145D01*
X75225842Y-51788425D01*
X75352121Y-51700003D01*
X75352131Y-51699996D01*
X87694435Y-51699996D01*
X87694435Y-51700003D01*
X87714630Y-51879249D01*
X87714631Y-51879254D01*
X87774211Y-52049523D01*
X87842456Y-52158133D01*
X87870184Y-52202262D01*
X87997738Y-52329816D01*
X88150478Y-52425789D01*
X88320745Y-52485368D01*
X88320750Y-52485369D01*
X88499996Y-52505565D01*
X88500000Y-52505565D01*
X88500004Y-52505565D01*
X88679249Y-52485369D01*
X88679252Y-52485368D01*
X88679255Y-52485368D01*
X88849522Y-52425789D01*
X89002262Y-52329816D01*
X89129816Y-52202262D01*
X89225789Y-52049522D01*
X89285368Y-51879255D01*
X89285369Y-51879249D01*
X89305565Y-51700003D01*
X89305565Y-51699996D01*
X89285369Y-51520750D01*
X89285368Y-51520745D01*
X89252802Y-51427676D01*
X89225789Y-51350478D01*
X89129816Y-51197738D01*
X89002262Y-51070184D01*
X88934382Y-51027532D01*
X88849523Y-50974211D01*
X88679254Y-50914631D01*
X88679249Y-50914630D01*
X88500004Y-50894435D01*
X88499996Y-50894435D01*
X88320750Y-50914630D01*
X88320745Y-50914631D01*
X88150476Y-50974211D01*
X87997737Y-51070184D01*
X87870184Y-51197737D01*
X87774211Y-51350476D01*
X87714631Y-51520745D01*
X87714630Y-51520750D01*
X87694435Y-51699996D01*
X75352131Y-51699996D01*
X75411401Y-51658495D01*
X75578495Y-51491401D01*
X75714035Y-51297830D01*
X75813903Y-51083663D01*
X75875063Y-50855408D01*
X75895659Y-50620000D01*
X75875063Y-50384592D01*
X75813903Y-50156337D01*
X75714035Y-49942171D01*
X75708425Y-49934158D01*
X75578494Y-49748597D01*
X75411402Y-49581506D01*
X75411396Y-49581501D01*
X75225842Y-49451575D01*
X75182217Y-49396998D01*
X75175023Y-49327500D01*
X75206546Y-49265145D01*
X75225842Y-49248425D01*
X75248026Y-49232891D01*
X75295005Y-49199996D01*
X87694435Y-49199996D01*
X87694435Y-49200003D01*
X87714630Y-49379249D01*
X87714631Y-49379254D01*
X87774211Y-49549523D01*
X87837045Y-49649522D01*
X87870184Y-49702262D01*
X87997738Y-49829816D01*
X88150478Y-49925789D01*
X88229540Y-49953454D01*
X88320745Y-49985368D01*
X88320750Y-49985369D01*
X88499996Y-50005565D01*
X88500000Y-50005565D01*
X88500004Y-50005565D01*
X88679249Y-49985369D01*
X88679252Y-49985368D01*
X88679255Y-49985368D01*
X88849522Y-49925789D01*
X89002262Y-49829816D01*
X89129816Y-49702262D01*
X89225789Y-49549522D01*
X89285368Y-49379255D01*
X89286129Y-49372500D01*
X89305565Y-49200003D01*
X89305565Y-49199996D01*
X89285369Y-49020750D01*
X89285368Y-49020745D01*
X89273471Y-48986745D01*
X89225789Y-48850478D01*
X89129816Y-48697738D01*
X89002262Y-48570184D01*
X88960054Y-48543663D01*
X88849523Y-48474211D01*
X88679254Y-48414631D01*
X88679249Y-48414630D01*
X88500004Y-48394435D01*
X88499996Y-48394435D01*
X88320750Y-48414630D01*
X88320745Y-48414631D01*
X88150476Y-48474211D01*
X87997737Y-48570184D01*
X87870184Y-48697737D01*
X87774211Y-48850476D01*
X87714631Y-49020745D01*
X87714630Y-49020750D01*
X87694435Y-49199996D01*
X75295005Y-49199996D01*
X75411401Y-49118495D01*
X75578495Y-48951401D01*
X75714035Y-48757830D01*
X75813903Y-48543663D01*
X75875063Y-48315408D01*
X75895659Y-48080000D01*
X75875063Y-47844592D01*
X75819574Y-47637500D01*
X86027642Y-47637500D01*
X86035319Y-47712652D01*
X86089546Y-47876300D01*
X86089551Y-47876311D01*
X86180052Y-48023034D01*
X86180055Y-48023038D01*
X86301961Y-48144944D01*
X86301965Y-48144947D01*
X86448688Y-48235448D01*
X86448699Y-48235453D01*
X86612348Y-48289680D01*
X86624999Y-48290972D01*
X86625000Y-48290972D01*
X87375000Y-48290972D01*
X87387651Y-48289680D01*
X87551300Y-48235453D01*
X87551311Y-48235448D01*
X87698034Y-48144947D01*
X87698038Y-48144944D01*
X87819944Y-48023038D01*
X87819947Y-48023034D01*
X87910448Y-47876311D01*
X87910453Y-47876300D01*
X87964680Y-47712651D01*
X87972359Y-47637500D01*
X87375000Y-47637500D01*
X87375000Y-48290972D01*
X86625000Y-48290972D01*
X86625000Y-47637500D01*
X86027642Y-47637500D01*
X75819574Y-47637500D01*
X75813903Y-47616337D01*
X75714035Y-47402171D01*
X75708425Y-47394158D01*
X75578494Y-47208597D01*
X75411402Y-47041506D01*
X75411396Y-47041501D01*
X75225842Y-46911575D01*
X75182217Y-46856998D01*
X75175023Y-46787500D01*
X75206546Y-46725145D01*
X75225842Y-46708425D01*
X75267502Y-46679254D01*
X75411401Y-46578495D01*
X75578495Y-46411401D01*
X75714035Y-46217830D01*
X75813903Y-46003663D01*
X75875063Y-45775408D01*
X75895659Y-45540000D01*
X75875063Y-45304592D01*
X75828626Y-45131285D01*
X75813905Y-45076344D01*
X75813904Y-45076343D01*
X75813903Y-45076337D01*
X75714035Y-44862171D01*
X75709298Y-44855405D01*
X75578494Y-44668597D01*
X75411402Y-44501506D01*
X75411396Y-44501501D01*
X75225842Y-44371575D01*
X75182217Y-44316998D01*
X75175023Y-44247500D01*
X75206546Y-44185145D01*
X75225842Y-44168425D01*
X75251327Y-44150580D01*
X75411401Y-44038495D01*
X75578495Y-43871401D01*
X75714035Y-43677830D01*
X75813903Y-43463663D01*
X75858198Y-43298346D01*
X75894562Y-43238688D01*
X75957409Y-43208158D01*
X76026785Y-43216452D01*
X76080663Y-43260937D01*
X76087402Y-43272827D01*
X76180052Y-43423034D01*
X76180055Y-43423038D01*
X76301961Y-43544944D01*
X76301965Y-43544947D01*
X76448688Y-43635448D01*
X76448699Y-43635453D01*
X76612348Y-43689680D01*
X76624999Y-43690972D01*
X76625000Y-43690972D01*
X77375000Y-43690972D01*
X77387651Y-43689680D01*
X77551300Y-43635453D01*
X77551311Y-43635448D01*
X77698034Y-43544947D01*
X77698038Y-43544944D01*
X77819944Y-43423038D01*
X77819947Y-43423034D01*
X77910448Y-43276311D01*
X77910453Y-43276300D01*
X77964680Y-43112651D01*
X77972359Y-43037500D01*
X81427642Y-43037500D01*
X81435319Y-43112652D01*
X81489546Y-43276300D01*
X81489551Y-43276311D01*
X81580052Y-43423034D01*
X81580055Y-43423038D01*
X81701961Y-43544944D01*
X81701965Y-43544947D01*
X81848688Y-43635448D01*
X81848699Y-43635453D01*
X82012348Y-43689680D01*
X82025000Y-43690972D01*
X82775000Y-43690972D01*
X82787651Y-43689680D01*
X82951300Y-43635453D01*
X82951311Y-43635448D01*
X83098034Y-43544947D01*
X83098038Y-43544944D01*
X83219944Y-43423038D01*
X83219947Y-43423034D01*
X83310448Y-43276311D01*
X83310453Y-43276300D01*
X83364680Y-43112651D01*
X83372359Y-43037500D01*
X82775000Y-43037500D01*
X82775000Y-43690972D01*
X82025000Y-43690972D01*
X82025000Y-43037500D01*
X81427642Y-43037500D01*
X77972359Y-43037500D01*
X77375000Y-43037500D01*
X77375000Y-43690972D01*
X76625000Y-43690972D01*
X76625000Y-42786500D01*
X76644685Y-42719461D01*
X76697489Y-42673706D01*
X76749000Y-42662500D01*
X77000000Y-42662500D01*
X77000000Y-42411500D01*
X77019685Y-42344461D01*
X77072489Y-42298706D01*
X77124000Y-42287500D01*
X77972358Y-42287500D01*
X77972358Y-42287499D01*
X77964680Y-42212347D01*
X77910453Y-42048699D01*
X77910448Y-42048688D01*
X77819947Y-41901965D01*
X77819944Y-41901961D01*
X77806017Y-41888034D01*
X77772532Y-41826711D01*
X77777516Y-41757019D01*
X77806017Y-41712672D01*
X77820340Y-41698350D01*
X77870323Y-41617313D01*
X77922268Y-41570591D01*
X77991230Y-41559368D01*
X78055313Y-41587211D01*
X78063541Y-41594731D01*
X78089150Y-41620340D01*
X78235984Y-41710908D01*
X78399747Y-41765174D01*
X78500823Y-41775500D01*
X79099176Y-41775499D01*
X79099184Y-41775498D01*
X79099187Y-41775498D01*
X79154530Y-41769844D01*
X79200253Y-41765174D01*
X79364016Y-41710908D01*
X79510850Y-41620340D01*
X79624819Y-41506371D01*
X79686142Y-41472886D01*
X79755834Y-41477870D01*
X79800181Y-41506371D01*
X79914150Y-41620340D01*
X80060984Y-41710908D01*
X80224747Y-41765174D01*
X80325823Y-41775500D01*
X80924176Y-41775499D01*
X80924184Y-41775498D01*
X80924187Y-41775498D01*
X80979530Y-41769844D01*
X81025253Y-41765174D01*
X81189016Y-41710908D01*
X81335850Y-41620340D01*
X81345994Y-41610195D01*
X81407314Y-41576710D01*
X81477006Y-41581692D01*
X81532941Y-41623561D01*
X81539214Y-41632778D01*
X81579657Y-41698346D01*
X81579660Y-41698350D01*
X81593982Y-41712672D01*
X81627467Y-41773995D01*
X81622483Y-41843687D01*
X81593985Y-41888032D01*
X81580052Y-41901965D01*
X81489551Y-42048688D01*
X81489546Y-42048699D01*
X81435319Y-42212348D01*
X81427641Y-42287500D01*
X83372358Y-42287500D01*
X83372358Y-42287499D01*
X83364680Y-42212347D01*
X83310453Y-42048699D01*
X83310448Y-42048688D01*
X83219947Y-41901965D01*
X83219944Y-41901961D01*
X83206017Y-41888034D01*
X83172532Y-41826711D01*
X83177516Y-41757019D01*
X83206017Y-41712672D01*
X83220340Y-41698350D01*
X83310908Y-41551516D01*
X83328114Y-41499591D01*
X83367885Y-41442148D01*
X83432401Y-41415324D01*
X83501176Y-41427639D01*
X83508939Y-41431864D01*
X83602589Y-41487247D01*
X83627102Y-41501744D01*
X83643028Y-41506371D01*
X83784926Y-41547597D01*
X83784929Y-41547597D01*
X83784931Y-41547598D01*
X83821806Y-41550500D01*
X84664035Y-41550500D01*
X84731074Y-41570185D01*
X84776829Y-41622989D01*
X84786773Y-41692147D01*
X84769574Y-41739595D01*
X84767675Y-41742674D01*
X84764093Y-41748481D01*
X84764091Y-41748486D01*
X84749404Y-41792809D01*
X84709826Y-41912247D01*
X84709826Y-41912248D01*
X84709825Y-41912248D01*
X84699500Y-42013315D01*
X84699500Y-42586669D01*
X84699501Y-42586687D01*
X84709825Y-42687752D01*
X84728656Y-42744579D01*
X84762255Y-42845973D01*
X84764092Y-42851515D01*
X84764093Y-42851518D01*
X84854661Y-42998351D01*
X84868629Y-43012319D01*
X84902114Y-43073642D01*
X84897130Y-43143334D01*
X84868629Y-43187681D01*
X84854661Y-43201648D01*
X84764093Y-43348481D01*
X84764091Y-43348486D01*
X84757227Y-43369200D01*
X84709826Y-43512247D01*
X84709826Y-43512248D01*
X84709825Y-43512248D01*
X84699500Y-43613315D01*
X84699500Y-44186669D01*
X84699501Y-44186687D01*
X84709825Y-44287752D01*
X84733610Y-44359529D01*
X84764092Y-44451516D01*
X84854660Y-44598350D01*
X84976650Y-44720340D01*
X85123484Y-44810908D01*
X85287247Y-44865174D01*
X85388323Y-44875500D01*
X85674218Y-44875499D01*
X85741257Y-44895183D01*
X85761899Y-44911818D01*
X85935573Y-45085492D01*
X85935594Y-45085515D01*
X85988181Y-45138102D01*
X86021666Y-45199425D01*
X86024500Y-45225783D01*
X86024500Y-45886669D01*
X86024501Y-45886687D01*
X86034825Y-45987752D01*
X86089092Y-46151515D01*
X86089093Y-46151518D01*
X86105143Y-46177539D01*
X86172292Y-46286405D01*
X86179661Y-46298351D01*
X86193982Y-46312672D01*
X86227467Y-46373995D01*
X86222483Y-46443687D01*
X86193985Y-46488032D01*
X86180052Y-46501965D01*
X86089551Y-46648688D01*
X86089546Y-46648699D01*
X86035319Y-46812348D01*
X86027641Y-46887500D01*
X87729542Y-46887500D01*
X87796581Y-46907185D01*
X87834534Y-46945526D01*
X87870184Y-47002262D01*
X87997738Y-47129816D01*
X88150478Y-47225789D01*
X88200619Y-47243334D01*
X88320745Y-47285368D01*
X88320750Y-47285369D01*
X88499996Y-47305565D01*
X88500000Y-47305565D01*
X88500004Y-47305565D01*
X88679249Y-47285369D01*
X88679252Y-47285368D01*
X88679255Y-47285368D01*
X88849522Y-47225789D01*
X89002262Y-47129816D01*
X89129816Y-47002262D01*
X89225789Y-46849522D01*
X89285368Y-46679255D01*
X89285369Y-46679249D01*
X89305565Y-46500003D01*
X89305565Y-46499996D01*
X89285369Y-46320750D01*
X89285366Y-46320737D01*
X89240478Y-46192455D01*
X89236916Y-46122676D01*
X89271644Y-46062049D01*
X89333638Y-46029821D01*
X89357519Y-46027500D01*
X89616038Y-46027500D01*
X89625768Y-46027881D01*
X89760045Y-46038452D01*
X89779262Y-46041496D01*
X89842372Y-46056648D01*
X89905486Y-46071800D01*
X89923983Y-46077811D01*
X90043916Y-46127490D01*
X90061232Y-46136313D01*
X90165292Y-46200081D01*
X90212166Y-46251892D01*
X90224500Y-46305807D01*
X90224500Y-46661669D01*
X90224501Y-46661687D01*
X90234825Y-46762752D01*
X90263579Y-46849523D01*
X90289092Y-46926516D01*
X90360018Y-47041506D01*
X90379661Y-47073351D01*
X90418629Y-47112319D01*
X90452114Y-47173642D01*
X90447130Y-47243334D01*
X90418629Y-47287681D01*
X90379661Y-47326648D01*
X90289093Y-47473481D01*
X90289092Y-47473484D01*
X90234826Y-47637247D01*
X90234826Y-47637248D01*
X90234825Y-47637248D01*
X90224500Y-47738315D01*
X90224500Y-48411669D01*
X90224501Y-48411687D01*
X90234825Y-48512752D01*
X90252964Y-48567490D01*
X90286992Y-48670180D01*
X90289092Y-48676515D01*
X90289093Y-48676518D01*
X90303577Y-48700000D01*
X90379660Y-48823350D01*
X90501650Y-48945340D01*
X90513593Y-48952706D01*
X90560320Y-49004652D01*
X90572500Y-49058247D01*
X90572500Y-50582556D01*
X90572510Y-50582769D01*
X90572510Y-50698992D01*
X90604567Y-51065428D01*
X90604567Y-51065432D01*
X90668438Y-51427670D01*
X90668441Y-51427683D01*
X90763636Y-51782965D01*
X90763639Y-51782972D01*
X90763641Y-51782979D01*
X90809580Y-51909197D01*
X90889444Y-52128628D01*
X90889452Y-52128647D01*
X91028011Y-52425789D01*
X91044900Y-52462008D01*
X91228818Y-52780564D01*
X91228822Y-52780570D01*
X91228829Y-52780581D01*
X91439800Y-53081880D01*
X91676243Y-53363661D01*
X91698042Y-53385460D01*
X91727074Y-53431260D01*
X92029223Y-54273290D01*
X92029223Y-54273291D01*
X92116705Y-54517088D01*
X92119764Y-54526864D01*
X92120424Y-54529327D01*
X92120428Y-54529338D01*
X92120947Y-54530451D01*
X92125271Y-54540957D01*
X92127160Y-54546222D01*
X92131165Y-54556996D01*
X92131361Y-54557505D01*
X92131363Y-54557509D01*
X92159173Y-54617683D01*
X92159174Y-54617685D01*
X92159175Y-54617686D01*
X92162484Y-54623243D01*
X92162332Y-54623333D01*
X92171093Y-54637989D01*
X92212897Y-54727638D01*
X92212898Y-54727639D01*
X92294002Y-54843468D01*
X92316329Y-54909672D01*
X92299319Y-54977440D01*
X92291420Y-54988627D01*
X92291507Y-54988688D01*
X92162900Y-55172357D01*
X92162898Y-55172361D01*
X92070426Y-55370668D01*
X92070422Y-55370677D01*
X92013793Y-55582020D01*
X92013793Y-55582023D01*
X92009422Y-55631980D01*
X91994723Y-55799997D01*
X91994723Y-55800002D01*
X92013793Y-56017975D01*
X92013793Y-56017979D01*
X92070422Y-56229322D01*
X92070424Y-56229326D01*
X92070425Y-56229330D01*
X92102672Y-56298483D01*
X92162897Y-56427638D01*
X92162898Y-56427639D01*
X92288402Y-56606877D01*
X92443123Y-56761598D01*
X92622361Y-56887102D01*
X92820670Y-56979575D01*
X93032023Y-57036207D01*
X93214926Y-57052208D01*
X93249998Y-57055277D01*
X93250000Y-57055277D01*
X93250002Y-57055277D01*
X93278254Y-57052805D01*
X93467977Y-57036207D01*
X93679330Y-56979575D01*
X93877639Y-56887102D01*
X94056877Y-56761598D01*
X94211598Y-56606877D01*
X94337102Y-56427639D01*
X94429575Y-56229330D01*
X94486207Y-56017977D01*
X94487780Y-55999999D01*
X122394785Y-55999999D01*
X122394785Y-56000000D01*
X122413602Y-56203082D01*
X122469417Y-56399247D01*
X122469422Y-56399260D01*
X122560327Y-56581821D01*
X122683237Y-56744581D01*
X122833958Y-56881980D01*
X122833960Y-56881982D01*
X122846033Y-56889457D01*
X123007363Y-56989348D01*
X123197544Y-57063024D01*
X123398024Y-57100500D01*
X123398026Y-57100500D01*
X123601974Y-57100500D01*
X123601976Y-57100500D01*
X123802456Y-57063024D01*
X123992637Y-56989348D01*
X124166041Y-56881981D01*
X124316764Y-56744579D01*
X124439673Y-56581821D01*
X124530582Y-56399250D01*
X124586397Y-56203083D01*
X124605215Y-56000000D01*
X124589926Y-55834999D01*
X138779341Y-55834999D01*
X138779341Y-55835000D01*
X138799936Y-56070403D01*
X138799938Y-56070413D01*
X138861094Y-56298655D01*
X138861096Y-56298659D01*
X138861097Y-56298663D01*
X138942957Y-56474211D01*
X138960965Y-56512830D01*
X138960967Y-56512834D01*
X139009273Y-56581821D01*
X139096501Y-56706396D01*
X139096506Y-56706402D01*
X139263597Y-56873493D01*
X139263603Y-56873498D01*
X139280275Y-56885172D01*
X139429048Y-56989344D01*
X139449594Y-57003730D01*
X139493219Y-57058307D01*
X139500413Y-57127805D01*
X139468890Y-57190160D01*
X139449595Y-57206880D01*
X139263922Y-57336890D01*
X139263920Y-57336891D01*
X139096891Y-57503920D01*
X139096886Y-57503926D01*
X138961400Y-57697420D01*
X138961399Y-57697422D01*
X138861570Y-57911507D01*
X138861566Y-57911516D01*
X138837857Y-57999999D01*
X138837858Y-58000000D01*
X139802894Y-58000000D01*
X139734901Y-58067993D01*
X139669075Y-58182007D01*
X139635000Y-58309174D01*
X139635000Y-58440826D01*
X139669075Y-58567993D01*
X139734901Y-58682007D01*
X139827993Y-58775099D01*
X139942007Y-58840925D01*
X140069174Y-58875000D01*
X140200826Y-58875000D01*
X140327993Y-58840925D01*
X140442007Y-58775099D01*
X140510000Y-58707106D01*
X140510000Y-59672142D01*
X140598483Y-59648433D01*
X140598492Y-59648429D01*
X140812578Y-59548600D01*
X141006078Y-59413108D01*
X141128133Y-59291053D01*
X141189456Y-59257568D01*
X141259148Y-59262552D01*
X141315082Y-59304423D01*
X141331997Y-59335401D01*
X141381202Y-59467328D01*
X141381206Y-59467335D01*
X141467452Y-59582544D01*
X141467455Y-59582547D01*
X141582664Y-59668793D01*
X141582671Y-59668797D01*
X141717517Y-59719091D01*
X141717516Y-59719091D01*
X141724444Y-59719835D01*
X141777127Y-59725500D01*
X143572872Y-59725499D01*
X143632483Y-59719091D01*
X143767331Y-59668796D01*
X143882546Y-59582546D01*
X143968796Y-59467331D01*
X144019091Y-59332483D01*
X144025500Y-59272873D01*
X144025499Y-57477128D01*
X144019091Y-57417517D01*
X144018002Y-57414598D01*
X143968797Y-57282671D01*
X143968793Y-57282664D01*
X143882547Y-57167455D01*
X143882544Y-57167452D01*
X143767335Y-57081206D01*
X143767328Y-57081202D01*
X143635401Y-57031997D01*
X143579467Y-56990126D01*
X143555050Y-56924662D01*
X143569902Y-56856389D01*
X143591053Y-56828133D01*
X143713108Y-56706078D01*
X143848600Y-56512578D01*
X143948429Y-56298492D01*
X143948433Y-56298483D01*
X143972142Y-56210000D01*
X143007106Y-56210000D01*
X143075099Y-56142007D01*
X143140925Y-56027993D01*
X143175000Y-55900826D01*
X143175000Y-55769174D01*
X143140925Y-55642007D01*
X143075099Y-55527993D01*
X143007106Y-55460000D01*
X143050000Y-55460000D01*
X143972142Y-55460000D01*
X143972142Y-55459999D01*
X143948433Y-55371516D01*
X143948429Y-55371507D01*
X143848600Y-55157422D01*
X143848599Y-55157420D01*
X143713113Y-54963926D01*
X143713108Y-54963920D01*
X143546082Y-54796894D01*
X143352578Y-54661399D01*
X143138490Y-54561568D01*
X143138487Y-54561567D01*
X143050000Y-54537856D01*
X143050000Y-55460000D01*
X143007106Y-55460000D01*
X142982007Y-55434901D01*
X142867993Y-55369075D01*
X142740826Y-55335000D01*
X142609174Y-55335000D01*
X142482007Y-55369075D01*
X142367993Y-55434901D01*
X142300000Y-55502894D01*
X142300000Y-54537857D01*
X142299999Y-54537856D01*
X142211512Y-54561567D01*
X142211509Y-54561568D01*
X141997422Y-54661399D01*
X141997420Y-54661400D01*
X141803926Y-54796886D01*
X141803920Y-54796891D01*
X141636891Y-54963920D01*
X141636890Y-54963922D01*
X141506880Y-55149595D01*
X141452303Y-55193219D01*
X141382804Y-55200412D01*
X141320450Y-55168890D01*
X141303730Y-55149594D01*
X141173494Y-54963597D01*
X141006402Y-54796506D01*
X141006395Y-54796501D01*
X140812834Y-54660967D01*
X140812830Y-54660965D01*
X140763558Y-54637989D01*
X140598663Y-54561097D01*
X140598659Y-54561096D01*
X140598655Y-54561094D01*
X140370413Y-54499938D01*
X140370403Y-54499936D01*
X140135001Y-54479341D01*
X140134999Y-54479341D01*
X139899596Y-54499936D01*
X139899586Y-54499938D01*
X139671344Y-54561094D01*
X139671335Y-54561098D01*
X139457171Y-54660964D01*
X139457169Y-54660965D01*
X139263597Y-54796505D01*
X139096505Y-54963597D01*
X138960965Y-55157169D01*
X138960964Y-55157171D01*
X138861098Y-55371335D01*
X138861094Y-55371344D01*
X138799938Y-55599586D01*
X138799936Y-55599596D01*
X138779341Y-55834999D01*
X124589926Y-55834999D01*
X124586397Y-55796917D01*
X124530582Y-55600750D01*
X124530007Y-55599596D01*
X124460497Y-55460000D01*
X124439673Y-55418179D01*
X124316764Y-55255421D01*
X124316762Y-55255418D01*
X124166041Y-55118019D01*
X124166039Y-55118017D01*
X123992642Y-55010655D01*
X123992635Y-55010651D01*
X123844033Y-54953083D01*
X123802456Y-54936976D01*
X123601976Y-54899500D01*
X123398024Y-54899500D01*
X123197544Y-54936976D01*
X123197541Y-54936976D01*
X123197541Y-54936977D01*
X123007364Y-55010651D01*
X123007357Y-55010655D01*
X122833960Y-55118017D01*
X122833958Y-55118019D01*
X122683237Y-55255418D01*
X122560327Y-55418178D01*
X122469422Y-55600739D01*
X122469417Y-55600752D01*
X122413602Y-55796917D01*
X122394785Y-55999999D01*
X94487780Y-55999999D01*
X94505277Y-55800000D01*
X94505007Y-55796917D01*
X94499970Y-55739344D01*
X94486207Y-55582023D01*
X94432026Y-55379816D01*
X94429577Y-55370677D01*
X94429576Y-55370676D01*
X94429575Y-55370670D01*
X94337102Y-55172362D01*
X94337100Y-55172359D01*
X94337099Y-55172357D01*
X94255997Y-55056531D01*
X94233670Y-54990325D01*
X94250680Y-54922558D01*
X94258579Y-54911372D01*
X94258492Y-54911311D01*
X94261593Y-54906881D01*
X94261598Y-54906877D01*
X94387102Y-54727639D01*
X94479575Y-54529330D01*
X94536207Y-54317977D01*
X94555277Y-54100000D01*
X94555055Y-54097468D01*
X94550232Y-54042337D01*
X94536207Y-53882023D01*
X94487146Y-53698924D01*
X94479577Y-53670677D01*
X94479576Y-53670676D01*
X94479575Y-53670670D01*
X94387102Y-53472362D01*
X94387100Y-53472359D01*
X94387099Y-53472357D01*
X94261599Y-53293124D01*
X94196097Y-53227622D01*
X94106877Y-53138402D01*
X93927639Y-53012898D01*
X93927640Y-53012898D01*
X93927638Y-53012897D01*
X93765809Y-52937435D01*
X93760254Y-52934673D01*
X93745751Y-52927004D01*
X93745732Y-52926996D01*
X93741223Y-52925383D01*
X93730600Y-52921017D01*
X93729328Y-52920424D01*
X93726391Y-52919637D01*
X93716719Y-52916616D01*
X92648268Y-52534347D01*
X92598162Y-52500868D01*
X92510070Y-52403674D01*
X102391110Y-52403674D01*
X102391110Y-52403675D01*
X102409927Y-52606757D01*
X102465742Y-52802922D01*
X102465747Y-52802935D01*
X102556652Y-52985496D01*
X102679562Y-53148256D01*
X102830283Y-53285655D01*
X102830285Y-53285657D01*
X102842345Y-53293124D01*
X103003688Y-53393023D01*
X103193869Y-53466699D01*
X103320120Y-53490299D01*
X103382399Y-53521966D01*
X103417672Y-53582278D01*
X103414738Y-53652086D01*
X103374530Y-53709227D01*
X103342128Y-53727813D01*
X103257370Y-53760648D01*
X103257357Y-53760655D01*
X103083960Y-53868017D01*
X103083958Y-53868019D01*
X102933237Y-54005418D01*
X102810327Y-54168178D01*
X102719422Y-54350739D01*
X102719417Y-54350752D01*
X102663602Y-54546917D01*
X102644785Y-54749999D01*
X102644785Y-54750000D01*
X102663602Y-54953082D01*
X102719417Y-55149247D01*
X102719422Y-55149260D01*
X102810327Y-55331821D01*
X102933237Y-55494581D01*
X103083958Y-55631980D01*
X103083960Y-55631982D01*
X103183141Y-55693392D01*
X103257363Y-55739348D01*
X103447544Y-55813024D01*
X103648024Y-55850500D01*
X103648026Y-55850500D01*
X103851974Y-55850500D01*
X103851976Y-55850500D01*
X104052456Y-55813024D01*
X104242637Y-55739348D01*
X104416041Y-55631981D01*
X104566764Y-55494579D01*
X104689673Y-55331821D01*
X104780582Y-55149250D01*
X104836397Y-54953083D01*
X104855184Y-54750337D01*
X105986424Y-54750337D01*
X106120858Y-54797377D01*
X106120861Y-54797378D01*
X106299997Y-54817562D01*
X106300003Y-54817562D01*
X106479138Y-54797378D01*
X106479141Y-54797377D01*
X106613574Y-54750337D01*
X107436424Y-54750337D01*
X107570858Y-54797377D01*
X107570861Y-54797378D01*
X107749997Y-54817562D01*
X107750003Y-54817562D01*
X107929138Y-54797378D01*
X107929141Y-54797377D01*
X108063573Y-54750337D01*
X108886424Y-54750337D01*
X109020858Y-54797377D01*
X109020861Y-54797378D01*
X109199997Y-54817562D01*
X109200003Y-54817562D01*
X109379138Y-54797378D01*
X109379141Y-54797377D01*
X109513573Y-54750337D01*
X109513235Y-54749999D01*
X119644785Y-54749999D01*
X119644785Y-54750000D01*
X119663602Y-54953082D01*
X119719417Y-55149247D01*
X119719422Y-55149260D01*
X119810327Y-55331821D01*
X119933237Y-55494581D01*
X120083958Y-55631980D01*
X120083960Y-55631982D01*
X120183141Y-55693392D01*
X120257363Y-55739348D01*
X120447544Y-55813024D01*
X120648024Y-55850500D01*
X120648026Y-55850500D01*
X120851974Y-55850500D01*
X120851976Y-55850500D01*
X121052456Y-55813024D01*
X121242637Y-55739348D01*
X121416041Y-55631981D01*
X121566764Y-55494579D01*
X121689673Y-55331821D01*
X121780582Y-55149250D01*
X121836397Y-54953083D01*
X121855215Y-54750000D01*
X121843469Y-54623243D01*
X121836397Y-54546917D01*
X121830436Y-54525965D01*
X121780582Y-54350750D01*
X121777791Y-54345145D01*
X121701356Y-54191642D01*
X121689673Y-54168179D01*
X121586383Y-54031401D01*
X121566762Y-54005418D01*
X121416041Y-53868019D01*
X121416039Y-53868017D01*
X121242642Y-53760655D01*
X121242635Y-53760651D01*
X121147546Y-53723814D01*
X121052456Y-53686976D01*
X120851976Y-53649500D01*
X120648024Y-53649500D01*
X120447544Y-53686976D01*
X120447541Y-53686976D01*
X120447541Y-53686977D01*
X120257364Y-53760651D01*
X120257357Y-53760655D01*
X120083960Y-53868017D01*
X120083958Y-53868019D01*
X119933237Y-54005418D01*
X119810327Y-54168178D01*
X119719422Y-54350739D01*
X119719417Y-54350752D01*
X119663602Y-54546917D01*
X119644785Y-54749999D01*
X109513235Y-54749999D01*
X109200001Y-54436764D01*
X109200000Y-54436764D01*
X108886424Y-54750337D01*
X108063573Y-54750337D01*
X107750001Y-54436764D01*
X107750000Y-54436764D01*
X107436424Y-54750337D01*
X106613574Y-54750337D01*
X106300001Y-54436764D01*
X106300000Y-54436764D01*
X105986424Y-54750337D01*
X104855184Y-54750337D01*
X104855215Y-54750000D01*
X104843469Y-54623243D01*
X104836397Y-54546917D01*
X104830436Y-54525965D01*
X104780582Y-54350750D01*
X104777791Y-54345145D01*
X104701356Y-54191642D01*
X104689673Y-54168179D01*
X104586383Y-54031401D01*
X104572108Y-54012497D01*
X105494938Y-54012497D01*
X105494938Y-54012502D01*
X105515122Y-54191642D01*
X105562160Y-54326073D01*
X105562161Y-54326074D01*
X105875736Y-54012500D01*
X105845899Y-53982663D01*
X106150000Y-53982663D01*
X106150000Y-54042337D01*
X106172836Y-54097468D01*
X106215032Y-54139664D01*
X106270163Y-54162500D01*
X106329837Y-54162500D01*
X106384968Y-54139664D01*
X106427164Y-54097468D01*
X106450000Y-54042337D01*
X106450000Y-54012500D01*
X106724264Y-54012500D01*
X107025000Y-54313236D01*
X107325736Y-54012500D01*
X107295899Y-53982663D01*
X107600000Y-53982663D01*
X107600000Y-54042337D01*
X107622836Y-54097468D01*
X107665032Y-54139664D01*
X107720163Y-54162500D01*
X107779837Y-54162500D01*
X107834968Y-54139664D01*
X107877164Y-54097468D01*
X107900000Y-54042337D01*
X107900000Y-54012500D01*
X108174264Y-54012500D01*
X108475000Y-54313236D01*
X108775736Y-54012500D01*
X108745899Y-53982663D01*
X109050000Y-53982663D01*
X109050000Y-54042337D01*
X109072836Y-54097468D01*
X109115032Y-54139664D01*
X109170163Y-54162500D01*
X109229837Y-54162500D01*
X109284968Y-54139664D01*
X109327164Y-54097468D01*
X109350000Y-54042337D01*
X109350000Y-54012499D01*
X109624264Y-54012499D01*
X109624264Y-54012500D01*
X109937837Y-54326073D01*
X109984877Y-54191641D01*
X109984878Y-54191638D01*
X110005062Y-54012502D01*
X110005062Y-54012497D01*
X109984878Y-53833361D01*
X109984877Y-53833358D01*
X109937837Y-53698925D01*
X109937837Y-53698924D01*
X109624264Y-54012499D01*
X109350000Y-54012499D01*
X109350000Y-53982663D01*
X109327164Y-53927532D01*
X109284968Y-53885336D01*
X109229837Y-53862500D01*
X109170163Y-53862500D01*
X109115032Y-53885336D01*
X109072836Y-53927532D01*
X109050000Y-53982663D01*
X108745899Y-53982663D01*
X108475000Y-53711764D01*
X108174264Y-54012500D01*
X107900000Y-54012500D01*
X107900000Y-53982663D01*
X107877164Y-53927532D01*
X107834968Y-53885336D01*
X107779837Y-53862500D01*
X107720163Y-53862500D01*
X107665032Y-53885336D01*
X107622836Y-53927532D01*
X107600000Y-53982663D01*
X107295899Y-53982663D01*
X107025000Y-53711764D01*
X106724264Y-54012500D01*
X106450000Y-54012500D01*
X106450000Y-53982663D01*
X106427164Y-53927532D01*
X106384968Y-53885336D01*
X106329837Y-53862500D01*
X106270163Y-53862500D01*
X106215032Y-53885336D01*
X106172836Y-53927532D01*
X106150000Y-53982663D01*
X105845899Y-53982663D01*
X105562160Y-53698924D01*
X105515122Y-53833357D01*
X105494938Y-54012497D01*
X104572108Y-54012497D01*
X104566762Y-54005418D01*
X104416041Y-53868019D01*
X104416039Y-53868017D01*
X104242642Y-53760655D01*
X104242635Y-53760651D01*
X104147546Y-53723814D01*
X104052456Y-53686976D01*
X103926205Y-53663375D01*
X103863925Y-53631708D01*
X103828652Y-53571395D01*
X103831586Y-53501587D01*
X103871795Y-53444447D01*
X103904195Y-53425861D01*
X103988962Y-53393023D01*
X104162366Y-53285656D01*
X104174428Y-53274660D01*
X105986424Y-53274660D01*
X106300000Y-53588236D01*
X106300001Y-53588236D01*
X106613574Y-53274661D01*
X106613573Y-53274660D01*
X107436424Y-53274660D01*
X107750000Y-53588236D01*
X107750001Y-53588236D01*
X108063574Y-53274661D01*
X108063573Y-53274660D01*
X108886424Y-53274660D01*
X109200000Y-53588236D01*
X109200001Y-53588236D01*
X109513574Y-53274661D01*
X109513573Y-53274660D01*
X109379142Y-53227622D01*
X109200003Y-53207438D01*
X109199997Y-53207438D01*
X109020857Y-53227622D01*
X108886424Y-53274660D01*
X108063573Y-53274660D01*
X107929142Y-53227622D01*
X107750003Y-53207438D01*
X107749997Y-53207438D01*
X107570857Y-53227622D01*
X107436424Y-53274660D01*
X106613573Y-53274660D01*
X106479142Y-53227622D01*
X106300003Y-53207438D01*
X106299997Y-53207438D01*
X106120857Y-53227622D01*
X105986424Y-53274660D01*
X104174428Y-53274660D01*
X104313089Y-53148254D01*
X104435998Y-52985496D01*
X104526907Y-52802925D01*
X104582722Y-52606758D01*
X104601540Y-52403675D01*
X104582722Y-52200592D01*
X104526907Y-52004425D01*
X104520508Y-51991575D01*
X104464580Y-51879255D01*
X104450181Y-51850337D01*
X105986424Y-51850337D01*
X106120858Y-51897377D01*
X106120861Y-51897378D01*
X106299997Y-51917562D01*
X106300003Y-51917562D01*
X106479138Y-51897378D01*
X106479141Y-51897377D01*
X106613574Y-51850337D01*
X107436424Y-51850337D01*
X107570858Y-51897377D01*
X107570861Y-51897378D01*
X107749997Y-51917562D01*
X107750003Y-51917562D01*
X107929138Y-51897378D01*
X107929141Y-51897377D01*
X108063573Y-51850337D01*
X108886424Y-51850337D01*
X109020858Y-51897377D01*
X109020861Y-51897378D01*
X109199997Y-51917562D01*
X109200003Y-51917562D01*
X109379138Y-51897378D01*
X109379141Y-51897377D01*
X109513574Y-51850337D01*
X109200001Y-51536764D01*
X109200000Y-51536764D01*
X108886424Y-51850337D01*
X108063573Y-51850337D01*
X107750001Y-51536764D01*
X107750000Y-51536764D01*
X107436424Y-51850337D01*
X106613574Y-51850337D01*
X106300001Y-51536764D01*
X106300000Y-51536764D01*
X105986424Y-51850337D01*
X104450181Y-51850337D01*
X104435998Y-51821854D01*
X104377029Y-51743766D01*
X104313087Y-51659093D01*
X104162366Y-51521694D01*
X104162364Y-51521692D01*
X103988967Y-51414330D01*
X103988960Y-51414326D01*
X103883760Y-51373572D01*
X103798781Y-51340651D01*
X103598301Y-51303175D01*
X103394349Y-51303175D01*
X103193869Y-51340651D01*
X103193866Y-51340651D01*
X103193866Y-51340652D01*
X103003689Y-51414326D01*
X103003682Y-51414330D01*
X102830285Y-51521692D01*
X102830283Y-51521694D01*
X102679562Y-51659093D01*
X102556652Y-51821853D01*
X102465747Y-52004414D01*
X102465742Y-52004427D01*
X102409927Y-52200592D01*
X102391110Y-52403674D01*
X92510070Y-52403674D01*
X92502900Y-52395763D01*
X92495180Y-52386357D01*
X92329541Y-52163018D01*
X92322783Y-52152903D01*
X92308233Y-52128628D01*
X92179841Y-51914417D01*
X92174107Y-51903690D01*
X92171121Y-51897377D01*
X92055230Y-51652343D01*
X92050575Y-51641102D01*
X91956902Y-51379303D01*
X91953372Y-51367670D01*
X91885812Y-51097950D01*
X91883439Y-51086017D01*
X91860796Y-50933361D01*
X91842643Y-50810980D01*
X91841451Y-50798876D01*
X91839711Y-50763449D01*
X94739337Y-50763449D01*
X94739337Y-50763456D01*
X94759532Y-50942702D01*
X94759533Y-50942707D01*
X94819113Y-51112976D01*
X94872373Y-51197738D01*
X94915086Y-51265715D01*
X95042640Y-51393269D01*
X95195380Y-51489242D01*
X95331190Y-51536764D01*
X95365647Y-51548821D01*
X95365652Y-51548822D01*
X95544898Y-51569018D01*
X95544902Y-51569018D01*
X95544906Y-51569018D01*
X95724151Y-51548822D01*
X95724154Y-51548821D01*
X95724157Y-51548821D01*
X95894424Y-51489242D01*
X96047164Y-51393269D01*
X96174718Y-51265715D01*
X96270691Y-51112975D01*
X96270858Y-51112497D01*
X105494938Y-51112497D01*
X105494938Y-51112502D01*
X105515122Y-51291642D01*
X105562160Y-51426073D01*
X105562161Y-51426074D01*
X105875736Y-51112500D01*
X105845899Y-51082663D01*
X106150000Y-51082663D01*
X106150000Y-51142337D01*
X106172836Y-51197468D01*
X106215032Y-51239664D01*
X106270163Y-51262500D01*
X106329837Y-51262500D01*
X106384968Y-51239664D01*
X106427164Y-51197468D01*
X106450000Y-51142337D01*
X106450000Y-51112500D01*
X106724264Y-51112500D01*
X107025000Y-51413236D01*
X107325736Y-51112500D01*
X107295899Y-51082663D01*
X107600000Y-51082663D01*
X107600000Y-51142337D01*
X107622836Y-51197468D01*
X107665032Y-51239664D01*
X107720163Y-51262500D01*
X107779837Y-51262500D01*
X107834968Y-51239664D01*
X107877164Y-51197468D01*
X107900000Y-51142337D01*
X107900000Y-51112500D01*
X108174264Y-51112500D01*
X108475000Y-51413236D01*
X108775736Y-51112500D01*
X108745899Y-51082663D01*
X109050000Y-51082663D01*
X109050000Y-51142337D01*
X109072836Y-51197468D01*
X109115032Y-51239664D01*
X109170163Y-51262500D01*
X109229837Y-51262500D01*
X109284968Y-51239664D01*
X109327164Y-51197468D01*
X109350000Y-51142337D01*
X109350000Y-51112499D01*
X109624264Y-51112499D01*
X109624264Y-51112500D01*
X109937837Y-51426073D01*
X109984877Y-51291641D01*
X109984878Y-51291638D01*
X110005062Y-51112502D01*
X110005062Y-51112497D01*
X109984878Y-50933361D01*
X109984877Y-50933358D01*
X109937837Y-50798925D01*
X109937837Y-50798924D01*
X109624264Y-51112499D01*
X109350000Y-51112499D01*
X109350000Y-51082663D01*
X109327164Y-51027532D01*
X109284968Y-50985336D01*
X109229837Y-50962500D01*
X109170163Y-50962500D01*
X109115032Y-50985336D01*
X109072836Y-51027532D01*
X109050000Y-51082663D01*
X108745899Y-51082663D01*
X108475000Y-50811764D01*
X108174264Y-51112500D01*
X107900000Y-51112500D01*
X107900000Y-51082663D01*
X107877164Y-51027532D01*
X107834968Y-50985336D01*
X107779837Y-50962500D01*
X107720163Y-50962500D01*
X107665032Y-50985336D01*
X107622836Y-51027532D01*
X107600000Y-51082663D01*
X107295899Y-51082663D01*
X107025000Y-50811764D01*
X106724264Y-51112500D01*
X106450000Y-51112500D01*
X106450000Y-51082663D01*
X106427164Y-51027532D01*
X106384968Y-50985336D01*
X106329837Y-50962500D01*
X106270163Y-50962500D01*
X106215032Y-50985336D01*
X106172836Y-51027532D01*
X106150000Y-51082663D01*
X105845899Y-51082663D01*
X105562160Y-50798924D01*
X105515122Y-50933357D01*
X105494938Y-51112497D01*
X96270858Y-51112497D01*
X96330270Y-50942708D01*
X96331323Y-50933361D01*
X96350467Y-50763456D01*
X96350467Y-50763449D01*
X96330271Y-50584203D01*
X96330269Y-50584193D01*
X96303725Y-50508337D01*
X96300162Y-50438558D01*
X96315771Y-50401410D01*
X96332579Y-50374660D01*
X105986424Y-50374660D01*
X106300000Y-50688236D01*
X106300001Y-50688236D01*
X106613574Y-50374661D01*
X106613573Y-50374660D01*
X107436424Y-50374660D01*
X107750000Y-50688236D01*
X107750001Y-50688236D01*
X108063574Y-50374661D01*
X108063573Y-50374660D01*
X108886424Y-50374660D01*
X109200000Y-50688236D01*
X109200001Y-50688236D01*
X109513574Y-50374661D01*
X109513573Y-50374660D01*
X109379142Y-50327622D01*
X109200003Y-50307438D01*
X109199997Y-50307438D01*
X109020857Y-50327622D01*
X108886424Y-50374660D01*
X108063573Y-50374660D01*
X107929142Y-50327622D01*
X107750003Y-50307438D01*
X107749997Y-50307438D01*
X107570857Y-50327622D01*
X107436424Y-50374660D01*
X106613573Y-50374660D01*
X106479142Y-50327622D01*
X106300003Y-50307438D01*
X106299997Y-50307438D01*
X106120857Y-50327622D01*
X105986424Y-50374660D01*
X96332579Y-50374660D01*
X96411210Y-50249522D01*
X96442118Y-50161188D01*
X96482839Y-50104414D01*
X96518202Y-50085104D01*
X96687715Y-50025789D01*
X96840455Y-49929816D01*
X96968009Y-49802262D01*
X97063982Y-49649522D01*
X97123561Y-49479255D01*
X97129585Y-49425789D01*
X97143758Y-49300003D01*
X97143758Y-49299996D01*
X97123562Y-49120750D01*
X97123561Y-49120745D01*
X97064771Y-48952733D01*
X97063982Y-48950478D01*
X97049333Y-48927165D01*
X97001148Y-48850478D01*
X96968009Y-48797738D01*
X96840455Y-48670184D01*
X96840453Y-48670182D01*
X96840450Y-48670180D01*
X96802553Y-48646368D01*
X96756261Y-48594034D01*
X96745304Y-48555257D01*
X96730511Y-48423961D01*
X96730510Y-48423956D01*
X96692527Y-48315408D01*
X96670931Y-48253689D01*
X96659469Y-48235448D01*
X96638058Y-48201372D01*
X105243059Y-48201372D01*
X105243059Y-48201379D01*
X105263254Y-48380625D01*
X105263255Y-48380630D01*
X105322835Y-48550899D01*
X105357831Y-48606594D01*
X105418808Y-48703638D01*
X105546362Y-48831192D01*
X105699102Y-48927165D01*
X105772174Y-48952734D01*
X105869369Y-48986744D01*
X105869374Y-48986745D01*
X106048620Y-49006941D01*
X106048624Y-49006941D01*
X106048628Y-49006941D01*
X106227873Y-48986745D01*
X106227876Y-48986744D01*
X106227879Y-48986744D01*
X106398146Y-48927165D01*
X106550886Y-48831192D01*
X106678440Y-48703638D01*
X106680728Y-48699996D01*
X108694435Y-48699996D01*
X108694435Y-48700003D01*
X108714630Y-48879249D01*
X108714631Y-48879254D01*
X108774211Y-49049523D01*
X108852558Y-49174211D01*
X108870184Y-49202262D01*
X108997738Y-49329816D01*
X109029861Y-49350000D01*
X109105833Y-49397737D01*
X109150478Y-49425789D01*
X109303258Y-49479249D01*
X109320745Y-49485368D01*
X109320750Y-49485369D01*
X109427568Y-49497404D01*
X109491982Y-49524470D01*
X109530727Y-49579670D01*
X109587347Y-49741483D01*
X109625537Y-49802262D01*
X109683321Y-49894224D01*
X109810875Y-50021778D01*
X109963615Y-50117751D01*
X110087757Y-50161190D01*
X110133882Y-50177330D01*
X110133887Y-50177331D01*
X110313133Y-50197527D01*
X110313137Y-50197527D01*
X110313141Y-50197527D01*
X110492386Y-50177331D01*
X110492389Y-50177330D01*
X110492392Y-50177330D01*
X110662659Y-50117751D01*
X110815399Y-50021778D01*
X110942953Y-49894224D01*
X111038926Y-49741484D01*
X111098505Y-49571217D01*
X111100842Y-49550476D01*
X111118702Y-49391965D01*
X111118702Y-49391958D01*
X111098506Y-49212712D01*
X111098505Y-49212707D01*
X111080666Y-49161726D01*
X111038926Y-49042440D01*
X111016620Y-49006941D01*
X110981719Y-48951396D01*
X110942953Y-48889700D01*
X110815399Y-48762146D01*
X110662660Y-48666173D01*
X110492391Y-48606593D01*
X110492387Y-48606592D01*
X110385568Y-48594557D01*
X110321154Y-48567490D01*
X110282410Y-48512292D01*
X110247203Y-48411676D01*
X110225789Y-48350478D01*
X110129816Y-48197738D01*
X110002262Y-48070184D01*
X109927230Y-48023038D01*
X109849523Y-47974211D01*
X109679254Y-47914631D01*
X109679249Y-47914630D01*
X109500004Y-47894435D01*
X109499996Y-47894435D01*
X109320750Y-47914630D01*
X109320745Y-47914631D01*
X109150476Y-47974211D01*
X108997737Y-48070184D01*
X108870184Y-48197737D01*
X108774211Y-48350476D01*
X108714631Y-48520745D01*
X108714630Y-48520750D01*
X108694435Y-48699996D01*
X106680728Y-48699996D01*
X106774413Y-48550898D01*
X106833992Y-48380631D01*
X106833993Y-48380625D01*
X106854189Y-48201379D01*
X106854189Y-48201372D01*
X106833993Y-48022126D01*
X106833992Y-48022121D01*
X106774413Y-47851854D01*
X106769852Y-47844596D01*
X106703077Y-47738324D01*
X106678440Y-47699114D01*
X106550886Y-47571560D01*
X106398147Y-47475587D01*
X106227878Y-47416007D01*
X106227873Y-47416006D01*
X106048628Y-47395811D01*
X106048620Y-47395811D01*
X105869374Y-47416006D01*
X105869369Y-47416007D01*
X105699100Y-47475587D01*
X105546361Y-47571560D01*
X105418808Y-47699113D01*
X105322835Y-47851852D01*
X105263255Y-48022121D01*
X105263254Y-48022126D01*
X105243059Y-48201372D01*
X96638058Y-48201372D01*
X96574957Y-48100948D01*
X96447404Y-47973395D01*
X96294665Y-47877422D01*
X96124396Y-47817842D01*
X96124391Y-47817841D01*
X95945146Y-47797646D01*
X95945138Y-47797646D01*
X95765892Y-47817841D01*
X95765887Y-47817842D01*
X95595618Y-47877422D01*
X95442879Y-47973395D01*
X95315326Y-48100948D01*
X95219353Y-48253687D01*
X95159773Y-48423956D01*
X95159772Y-48423961D01*
X95139577Y-48603207D01*
X95139577Y-48603214D01*
X95159772Y-48782460D01*
X95159773Y-48782465D01*
X95219353Y-48952734D01*
X95286142Y-49059028D01*
X95305142Y-49126265D01*
X95284774Y-49193100D01*
X95247121Y-49229993D01*
X95183161Y-49270182D01*
X95183158Y-49270184D01*
X95055605Y-49397737D01*
X94959632Y-49550476D01*
X94900052Y-49720745D01*
X94900051Y-49720750D01*
X94879856Y-49899996D01*
X94879856Y-49900003D01*
X94900052Y-50079252D01*
X94926598Y-50155118D01*
X94930159Y-50224897D01*
X94914550Y-50262044D01*
X94819113Y-50413929D01*
X94759533Y-50584198D01*
X94759532Y-50584203D01*
X94739337Y-50763449D01*
X91839711Y-50763449D01*
X91836016Y-50688236D01*
X91827648Y-50517886D01*
X91827500Y-50511804D01*
X91827500Y-50508337D01*
X91827501Y-50438887D01*
X91827500Y-50438882D01*
X91827500Y-49058247D01*
X91847185Y-48991208D01*
X91886405Y-48952707D01*
X91898350Y-48945340D01*
X92020340Y-48823350D01*
X92110908Y-48676516D01*
X92165174Y-48512753D01*
X92175500Y-48411677D01*
X92175499Y-47738324D01*
X92165174Y-47637247D01*
X92110908Y-47473484D01*
X92020340Y-47326650D01*
X91981371Y-47287681D01*
X91947886Y-47226358D01*
X91952870Y-47156666D01*
X91981371Y-47112319D01*
X92020340Y-47073350D01*
X92110908Y-46926516D01*
X92165174Y-46762753D01*
X92175500Y-46661677D01*
X92175499Y-45988324D01*
X92165174Y-45887247D01*
X92110908Y-45723484D01*
X92020340Y-45576650D01*
X91898350Y-45454660D01*
X91751516Y-45364092D01*
X91587753Y-45309826D01*
X91587751Y-45309825D01*
X91486684Y-45299500D01*
X91486677Y-45299500D01*
X91097250Y-45299500D01*
X91030211Y-45279815D01*
X91019937Y-45272447D01*
X90928370Y-45199425D01*
X90899814Y-45176652D01*
X90689967Y-45044795D01*
X90683056Y-45041467D01*
X90466677Y-44937262D01*
X90466675Y-44937261D01*
X90355102Y-44898219D01*
X90232750Y-44855405D01*
X90229202Y-44854595D01*
X89991126Y-44800253D01*
X89991119Y-44800252D01*
X89744857Y-44772501D01*
X89682735Y-44772500D01*
X89682734Y-44772500D01*
X89682732Y-44772500D01*
X89620937Y-44772500D01*
X89620925Y-44772499D01*
X89544744Y-44772499D01*
X89544743Y-44772499D01*
X89537149Y-44772499D01*
X89537133Y-44772500D01*
X88459511Y-44772500D01*
X88392472Y-44752815D01*
X88346717Y-44700011D01*
X88336773Y-44630853D01*
X88353971Y-44583406D01*
X88380961Y-44539646D01*
X88432908Y-44492920D01*
X88501870Y-44481696D01*
X88514106Y-44483852D01*
X88520741Y-44485366D01*
X88520745Y-44485368D01*
X88520748Y-44485368D01*
X88520751Y-44485369D01*
X88699996Y-44505565D01*
X88700000Y-44505565D01*
X88700004Y-44505565D01*
X88879249Y-44485369D01*
X88879252Y-44485368D01*
X88879255Y-44485368D01*
X89049522Y-44425789D01*
X89202262Y-44329816D01*
X89329816Y-44202262D01*
X89425789Y-44049522D01*
X89485368Y-43879255D01*
X89497002Y-43776000D01*
X89505565Y-43700003D01*
X89505565Y-43699996D01*
X89485369Y-43520750D01*
X89485368Y-43520745D01*
X89443152Y-43400099D01*
X89425789Y-43350478D01*
X89424537Y-43348486D01*
X89376998Y-43272827D01*
X89329816Y-43197738D01*
X89202262Y-43070184D01*
X89195326Y-43065826D01*
X89049523Y-42974211D01*
X88879254Y-42914631D01*
X88879249Y-42914630D01*
X88700004Y-42894435D01*
X88699996Y-42894435D01*
X88602878Y-42905377D01*
X88534056Y-42893322D01*
X88482677Y-42845973D01*
X88465053Y-42778362D01*
X88471289Y-42743152D01*
X88489681Y-42687649D01*
X88490973Y-42675000D01*
X87837500Y-42675000D01*
X87837500Y-43776000D01*
X87817815Y-43843039D01*
X87765011Y-43888794D01*
X87713500Y-43900000D01*
X87211500Y-43900000D01*
X87144461Y-43880315D01*
X87098706Y-43827511D01*
X87087500Y-43776000D01*
X87087500Y-42424000D01*
X87107185Y-42356961D01*
X87159989Y-42311206D01*
X87211500Y-42300000D01*
X87462500Y-42300000D01*
X87462500Y-42049000D01*
X87482185Y-41981961D01*
X87534989Y-41936206D01*
X87586500Y-41925000D01*
X88490972Y-41925000D01*
X88490972Y-41924999D01*
X88489680Y-41912347D01*
X88489680Y-41912346D01*
X88462394Y-41830000D01*
X88349000Y-41830000D01*
X88281961Y-41810315D01*
X88236206Y-41757511D01*
X88225000Y-41706000D01*
X88225000Y-40786500D01*
X88244685Y-40719461D01*
X88297489Y-40673706D01*
X88349000Y-40662500D01*
X88851000Y-40662500D01*
X88918039Y-40682185D01*
X88963794Y-40734989D01*
X88975000Y-40786500D01*
X88975000Y-41690972D01*
X88987651Y-41689680D01*
X89151300Y-41635453D01*
X89151311Y-41635448D01*
X89298034Y-41544947D01*
X89298038Y-41544944D01*
X89419944Y-41423038D01*
X89419947Y-41423034D01*
X89510448Y-41276311D01*
X89510453Y-41276300D01*
X89564681Y-41112651D01*
X89566364Y-41096175D01*
X89592758Y-41031483D01*
X89649937Y-40991330D01*
X89719748Y-40988464D01*
X89770112Y-41016967D01*
X89770987Y-41015862D01*
X89776647Y-41020338D01*
X89776649Y-41020339D01*
X89776650Y-41020340D01*
X89923484Y-41110908D01*
X90087247Y-41165174D01*
X90188323Y-41175500D01*
X90786676Y-41175499D01*
X90786684Y-41175498D01*
X90786687Y-41175498D01*
X90866245Y-41167371D01*
X90887753Y-41165174D01*
X91051516Y-41110908D01*
X91198350Y-41020340D01*
X91312319Y-40906371D01*
X91373642Y-40872886D01*
X91443334Y-40877870D01*
X91487681Y-40906371D01*
X91601650Y-41020340D01*
X91748484Y-41110908D01*
X91912247Y-41165174D01*
X92013323Y-41175500D01*
X92611676Y-41175499D01*
X92611684Y-41175498D01*
X92611687Y-41175498D01*
X92691245Y-41167371D01*
X92712753Y-41165174D01*
X92876516Y-41110908D01*
X93023350Y-41020340D01*
X93145340Y-40898350D01*
X93152708Y-40886403D01*
X93204654Y-40839680D01*
X93258247Y-40827500D01*
X94962038Y-40827500D01*
X95029077Y-40847185D01*
X95057891Y-40872835D01*
X95089116Y-40910883D01*
X95241460Y-41035909D01*
X95241467Y-41035913D01*
X95415266Y-41128811D01*
X95415269Y-41128811D01*
X95415273Y-41128814D01*
X95603868Y-41186024D01*
X95800000Y-41205341D01*
X95996132Y-41186024D01*
X96184727Y-41128814D01*
X96218231Y-41110906D01*
X96358532Y-41035913D01*
X96358538Y-41035910D01*
X96510883Y-40910883D01*
X96635910Y-40758538D01*
X96728814Y-40584727D01*
X96786024Y-40396132D01*
X96805341Y-40200000D01*
X96786024Y-40003868D01*
X96728814Y-39815273D01*
X96728811Y-39815269D01*
X96728811Y-39815266D01*
X96635913Y-39641467D01*
X96635909Y-39641460D01*
X96510883Y-39489116D01*
X96358539Y-39364090D01*
X96358532Y-39364086D01*
X96184733Y-39271188D01*
X96184727Y-39271186D01*
X95996132Y-39213976D01*
X95996129Y-39213975D01*
X95800000Y-39194659D01*
X95603870Y-39213975D01*
X95415266Y-39271188D01*
X95241467Y-39364086D01*
X95241460Y-39364090D01*
X95089116Y-39489116D01*
X95057891Y-39527165D01*
X95000145Y-39566499D01*
X94962038Y-39572500D01*
X93258247Y-39572500D01*
X93191208Y-39552815D01*
X93152709Y-39513597D01*
X93145340Y-39501650D01*
X93023350Y-39379660D01*
X92876516Y-39289092D01*
X92712753Y-39234826D01*
X92712751Y-39234825D01*
X92611678Y-39224500D01*
X92013330Y-39224500D01*
X92013312Y-39224501D01*
X91912247Y-39234825D01*
X91748484Y-39289092D01*
X91748481Y-39289093D01*
X91601648Y-39379661D01*
X91487681Y-39493629D01*
X91426358Y-39527114D01*
X91356666Y-39522130D01*
X91312319Y-39493629D01*
X91198351Y-39379661D01*
X91198350Y-39379660D01*
X91051516Y-39289092D01*
X90887753Y-39234826D01*
X90887751Y-39234825D01*
X90786684Y-39224500D01*
X90786677Y-39224500D01*
X90450781Y-39224500D01*
X90383742Y-39204815D01*
X90363100Y-39188181D01*
X90087100Y-38912181D01*
X90053615Y-38850858D01*
X90058599Y-38781166D01*
X90100471Y-38725233D01*
X90165935Y-38700816D01*
X90174781Y-38700500D01*
X97567685Y-38700500D01*
X97567689Y-38700501D01*
X97640401Y-38700500D01*
X97647353Y-38700695D01*
X97665396Y-38701708D01*
X97875269Y-38713492D01*
X97889068Y-38715046D01*
X98110690Y-38752701D01*
X98124222Y-38755789D01*
X98340237Y-38818020D01*
X98353356Y-38822611D01*
X98561019Y-38908627D01*
X98573548Y-38914660D01*
X98770283Y-39023391D01*
X98782057Y-39030789D01*
X98965377Y-39160861D01*
X98976249Y-39169531D01*
X99146328Y-39321523D01*
X99151382Y-39326302D01*
X99188181Y-39363101D01*
X99221666Y-39424424D01*
X99224500Y-39450781D01*
X99224500Y-39686668D01*
X99224501Y-39686687D01*
X99234825Y-39787752D01*
X99264239Y-39876516D01*
X99289092Y-39951516D01*
X99377335Y-40094581D01*
X99379661Y-40098351D01*
X99493629Y-40212319D01*
X99527114Y-40273642D01*
X99522130Y-40343334D01*
X99493629Y-40387681D01*
X99379661Y-40501648D01*
X99289093Y-40648481D01*
X99289091Y-40648486D01*
X99238883Y-40800004D01*
X99199110Y-40857449D01*
X99134594Y-40884272D01*
X99121177Y-40885000D01*
X98587973Y-40885000D01*
X98587941Y-40884998D01*
X98555530Y-40884998D01*
X98555506Y-40884991D01*
X98416882Y-40884995D01*
X98243816Y-40907784D01*
X98243799Y-40907788D01*
X98243516Y-40907864D01*
X98243403Y-40907866D01*
X98239834Y-40908577D01*
X98239711Y-40907960D01*
X98194630Y-40909107D01*
X98194487Y-40910514D01*
X98168567Y-40907866D01*
X98153934Y-40906371D01*
X98086678Y-40899500D01*
X97513330Y-40899500D01*
X97513312Y-40899501D01*
X97412247Y-40909825D01*
X97248484Y-40964092D01*
X97248481Y-40964093D01*
X97101648Y-41054661D01*
X96979661Y-41176648D01*
X96889093Y-41323481D01*
X96889091Y-41323486D01*
X96882389Y-41343712D01*
X96834826Y-41487247D01*
X96834826Y-41487248D01*
X96834825Y-41487248D01*
X96824500Y-41588315D01*
X96824500Y-42261669D01*
X96824501Y-42261687D01*
X96834825Y-42362752D01*
X96855121Y-42424000D01*
X96880305Y-42500000D01*
X96889092Y-42526515D01*
X96889093Y-42526518D01*
X96895377Y-42536706D01*
X96949837Y-42625000D01*
X96979661Y-42673351D01*
X97018629Y-42712319D01*
X97052114Y-42773642D01*
X97047130Y-42843334D01*
X97018629Y-42887681D01*
X96979661Y-42926648D01*
X96889093Y-43073481D01*
X96889091Y-43073486D01*
X96884720Y-43086677D01*
X96834826Y-43237247D01*
X96834826Y-43237248D01*
X96834825Y-43237248D01*
X96824500Y-43338315D01*
X96824500Y-44011669D01*
X96824501Y-44011687D01*
X96834825Y-44112752D01*
X96889092Y-44276515D01*
X96889093Y-44276518D01*
X96921967Y-44329815D01*
X96979660Y-44423350D01*
X97101650Y-44545340D01*
X97248484Y-44635908D01*
X97272798Y-44643965D01*
X97330242Y-44683736D01*
X97357065Y-44748252D01*
X97344750Y-44817028D01*
X97297207Y-44868228D01*
X97281245Y-44876231D01*
X97211936Y-44904939D01*
X97193430Y-44910952D01*
X97087374Y-44936413D01*
X97017592Y-44932922D01*
X97010977Y-44930401D01*
X96966111Y-44911818D01*
X96395567Y-44675503D01*
X96395562Y-44675501D01*
X96395547Y-44675495D01*
X96394006Y-44674904D01*
X96394008Y-44674897D01*
X96389685Y-44673239D01*
X96384729Y-44671186D01*
X96377649Y-44669039D01*
X96372337Y-44667296D01*
X96344980Y-44657631D01*
X96344902Y-44657619D01*
X96344802Y-44657605D01*
X96326577Y-44653546D01*
X96196130Y-44613975D01*
X96000000Y-44594659D01*
X95803870Y-44613975D01*
X95615266Y-44671188D01*
X95441467Y-44764086D01*
X95441460Y-44764090D01*
X95289116Y-44889116D01*
X95164090Y-45041460D01*
X95164086Y-45041467D01*
X95071188Y-45215266D01*
X95013975Y-45403870D01*
X94994659Y-45600000D01*
X95013975Y-45796129D01*
X95013976Y-45796132D01*
X95050034Y-45915000D01*
X95071188Y-45984733D01*
X95164086Y-46158532D01*
X95164090Y-46158539D01*
X95289116Y-46310883D01*
X95441460Y-46435909D01*
X95441467Y-46435913D01*
X95615266Y-46528811D01*
X95615269Y-46528811D01*
X95615273Y-46528814D01*
X95803868Y-46586024D01*
X96000000Y-46605341D01*
X96196132Y-46586024D01*
X96384727Y-46528814D01*
X96384739Y-46528807D01*
X96389329Y-46526906D01*
X96393536Y-46525337D01*
X96395562Y-46524497D01*
X96395569Y-46524496D01*
X97089830Y-46236937D01*
X97137280Y-46227500D01*
X101641753Y-46227500D01*
X101708792Y-46247185D01*
X101747290Y-46286402D01*
X101754660Y-46298350D01*
X101876650Y-46420340D01*
X102023484Y-46510908D01*
X102187247Y-46565174D01*
X102288323Y-46575500D01*
X102986676Y-46575499D01*
X102986684Y-46575498D01*
X102986687Y-46575498D01*
X103042030Y-46569844D01*
X103087753Y-46565174D01*
X103251516Y-46510908D01*
X103398350Y-46420340D01*
X103412319Y-46406371D01*
X103473642Y-46372886D01*
X103543334Y-46377870D01*
X103587681Y-46406371D01*
X103601650Y-46420340D01*
X103748484Y-46510908D01*
X103912247Y-46565174D01*
X104013323Y-46575500D01*
X104711676Y-46575499D01*
X104711684Y-46575498D01*
X104711687Y-46575498D01*
X104767030Y-46569844D01*
X104812753Y-46565174D01*
X104976516Y-46510908D01*
X105113072Y-46426679D01*
X105180462Y-46408240D01*
X105225616Y-46417656D01*
X105529430Y-46543495D01*
X105529450Y-46543502D01*
X105530979Y-46544089D01*
X105530975Y-46544097D01*
X105535297Y-46545753D01*
X105540266Y-46547811D01*
X105540269Y-46547811D01*
X105540273Y-46547814D01*
X105547369Y-46549966D01*
X105552644Y-46551697D01*
X105579964Y-46561351D01*
X105580143Y-46561376D01*
X105598359Y-46565434D01*
X105728868Y-46605024D01*
X105925000Y-46624341D01*
X106121132Y-46605024D01*
X106309727Y-46547814D01*
X106312420Y-46546375D01*
X106483532Y-46454913D01*
X106483538Y-46454910D01*
X106635883Y-46329883D01*
X106760910Y-46177538D01*
X106835253Y-46038452D01*
X106853811Y-46003733D01*
X106853811Y-46003732D01*
X106853814Y-46003727D01*
X106911024Y-45815132D01*
X106930341Y-45619000D01*
X106911024Y-45422868D01*
X106853814Y-45234273D01*
X106853811Y-45234269D01*
X106853811Y-45234266D01*
X106760913Y-45060467D01*
X106760909Y-45060460D01*
X106635883Y-44908116D01*
X106483539Y-44783090D01*
X106483532Y-44783086D01*
X106309733Y-44690188D01*
X106309727Y-44690186D01*
X106157354Y-44643964D01*
X106121129Y-44632975D01*
X105925000Y-44613659D01*
X105728869Y-44632975D01*
X105540270Y-44690186D01*
X105535628Y-44692109D01*
X105531436Y-44693673D01*
X105258613Y-44806673D01*
X105189144Y-44814140D01*
X105129068Y-44784067D01*
X105129013Y-44784138D01*
X105128673Y-44783869D01*
X105126665Y-44782864D01*
X105123482Y-44779792D01*
X105123351Y-44779661D01*
X105123350Y-44779660D01*
X105027174Y-44720338D01*
X104976518Y-44689093D01*
X104976513Y-44689091D01*
X104935483Y-44675495D01*
X104812753Y-44634826D01*
X104812751Y-44634825D01*
X104711678Y-44624500D01*
X104013330Y-44624500D01*
X104013312Y-44624501D01*
X103912247Y-44634825D01*
X103748484Y-44689092D01*
X103748481Y-44689093D01*
X103601648Y-44779661D01*
X103587681Y-44793629D01*
X103526358Y-44827114D01*
X103456666Y-44822130D01*
X103412319Y-44793629D01*
X103398351Y-44779661D01*
X103398350Y-44779660D01*
X103302174Y-44720338D01*
X103251518Y-44689093D01*
X103251513Y-44689091D01*
X103210483Y-44675495D01*
X103087753Y-44634826D01*
X103087751Y-44634825D01*
X102986678Y-44624500D01*
X102288330Y-44624500D01*
X102288312Y-44624501D01*
X102187247Y-44634825D01*
X102023484Y-44689092D01*
X102023481Y-44689093D01*
X101876648Y-44779661D01*
X101754661Y-44901648D01*
X101754660Y-44901650D01*
X101747291Y-44913596D01*
X101695346Y-44960320D01*
X101641753Y-44972500D01*
X99414280Y-44972500D01*
X99347241Y-44952815D01*
X99301486Y-44900011D01*
X99291542Y-44830853D01*
X99320567Y-44767297D01*
X99326599Y-44760819D01*
X99839918Y-44247500D01*
X100401402Y-43686015D01*
X100462723Y-43652532D01*
X100532415Y-43657516D01*
X100554172Y-43668156D01*
X100623484Y-43710908D01*
X100787247Y-43765174D01*
X100888323Y-43775500D01*
X101486676Y-43775499D01*
X101486684Y-43775498D01*
X101486687Y-43775498D01*
X101542030Y-43769844D01*
X101587753Y-43765174D01*
X101751516Y-43710908D01*
X101898350Y-43620340D01*
X102012319Y-43506371D01*
X102073642Y-43472886D01*
X102143334Y-43477870D01*
X102187681Y-43506371D01*
X102301650Y-43620340D01*
X102448484Y-43710908D01*
X102612247Y-43765174D01*
X102713323Y-43775500D01*
X103311676Y-43775499D01*
X103311684Y-43775498D01*
X103311687Y-43775498D01*
X103367030Y-43769844D01*
X103412753Y-43765174D01*
X103576516Y-43710908D01*
X103723350Y-43620340D01*
X103845340Y-43498350D01*
X103935908Y-43351516D01*
X103990174Y-43187753D01*
X104000500Y-43086677D01*
X104000499Y-42513324D01*
X103990174Y-42412247D01*
X103935908Y-42248484D01*
X103845340Y-42101650D01*
X103723350Y-41979660D01*
X103607018Y-41907906D01*
X103576518Y-41889093D01*
X103576513Y-41889091D01*
X103573317Y-41888032D01*
X103412753Y-41834826D01*
X103412751Y-41834825D01*
X103311684Y-41824500D01*
X103311677Y-41824500D01*
X102975781Y-41824500D01*
X102908742Y-41804815D01*
X102888100Y-41788181D01*
X102686382Y-41586463D01*
X102657021Y-41539736D01*
X102653353Y-41529254D01*
X102625789Y-41450478D01*
X102622219Y-41444797D01*
X102562652Y-41349996D01*
X115644435Y-41349996D01*
X115644435Y-41350003D01*
X115664630Y-41529249D01*
X115664631Y-41529254D01*
X115724211Y-41699523D01*
X115771951Y-41775500D01*
X115820184Y-41852262D01*
X115947738Y-41979816D01*
X116001064Y-42013323D01*
X116057843Y-42049000D01*
X116100478Y-42075789D01*
X116204875Y-42112319D01*
X116270745Y-42135368D01*
X116270750Y-42135369D01*
X116449996Y-42155565D01*
X116450000Y-42155565D01*
X116450004Y-42155565D01*
X116629249Y-42135369D01*
X116629252Y-42135368D01*
X116629255Y-42135368D01*
X116799522Y-42075789D01*
X116920141Y-41999999D01*
X130894785Y-41999999D01*
X130894785Y-42000000D01*
X130913602Y-42203082D01*
X130969417Y-42399247D01*
X130969422Y-42399260D01*
X131060327Y-42581821D01*
X131183237Y-42744581D01*
X131333958Y-42881980D01*
X131333960Y-42881982D01*
X131386692Y-42914632D01*
X131507363Y-42989348D01*
X131697544Y-43063024D01*
X131898024Y-43100500D01*
X131898026Y-43100500D01*
X132101974Y-43100500D01*
X132101976Y-43100500D01*
X132302456Y-43063024D01*
X132492637Y-42989348D01*
X132666041Y-42881981D01*
X132816764Y-42744579D01*
X132939673Y-42581821D01*
X133030582Y-42399250D01*
X133086397Y-42203083D01*
X133105215Y-42000000D01*
X133103543Y-41981961D01*
X133086397Y-41796917D01*
X133072616Y-41748484D01*
X133030582Y-41600750D01*
X133024394Y-41588323D01*
X132974065Y-41487248D01*
X132939673Y-41418179D01*
X132868163Y-41323484D01*
X132816762Y-41255418D01*
X132666041Y-41118019D01*
X132666039Y-41118017D01*
X132492642Y-41010655D01*
X132492635Y-41010651D01*
X132376586Y-40965694D01*
X132302456Y-40936976D01*
X132101976Y-40899500D01*
X131898024Y-40899500D01*
X131697544Y-40936976D01*
X131697541Y-40936976D01*
X131697541Y-40936977D01*
X131507364Y-41010651D01*
X131507357Y-41010655D01*
X131333960Y-41118017D01*
X131333958Y-41118019D01*
X131183237Y-41255418D01*
X131060327Y-41418178D01*
X130969422Y-41600739D01*
X130969417Y-41600752D01*
X130913602Y-41796917D01*
X130894785Y-41999999D01*
X116920141Y-41999999D01*
X116952262Y-41979816D01*
X117079816Y-41852262D01*
X117175789Y-41699522D01*
X117235368Y-41529255D01*
X117237723Y-41508353D01*
X117255565Y-41350003D01*
X117255565Y-41349996D01*
X117235369Y-41170750D01*
X117235368Y-41170745D01*
X117214429Y-41110906D01*
X117175789Y-41000478D01*
X117079816Y-40847738D01*
X116952262Y-40720184D01*
X116860459Y-40662500D01*
X116799523Y-40624211D01*
X116629254Y-40564631D01*
X116629249Y-40564630D01*
X116450004Y-40544435D01*
X116449996Y-40544435D01*
X116270750Y-40564630D01*
X116270745Y-40564631D01*
X116100476Y-40624211D01*
X115947737Y-40720184D01*
X115820184Y-40847737D01*
X115724211Y-41000476D01*
X115664631Y-41170745D01*
X115664630Y-41170750D01*
X115644435Y-41349996D01*
X102562652Y-41349996D01*
X102551675Y-41332526D01*
X102529816Y-41297738D01*
X102402262Y-41170184D01*
X102386688Y-41160398D01*
X102249523Y-41074211D01*
X102079254Y-41014631D01*
X102079249Y-41014630D01*
X101900004Y-40994435D01*
X101899996Y-40994435D01*
X101720750Y-41014630D01*
X101720745Y-41014631D01*
X101550476Y-41074211D01*
X101397737Y-41170184D01*
X101387180Y-41180742D01*
X101325857Y-41214227D01*
X101256165Y-41209243D01*
X101200232Y-41167371D01*
X101175815Y-41101907D01*
X101175499Y-41093061D01*
X101175499Y-40913330D01*
X101175498Y-40913313D01*
X101165174Y-40812247D01*
X101156642Y-40786500D01*
X101110908Y-40648484D01*
X101020340Y-40501650D01*
X100906371Y-40387681D01*
X100872886Y-40326358D01*
X100877870Y-40256666D01*
X100906371Y-40212319D01*
X100946190Y-40172500D01*
X101020340Y-40098350D01*
X101110908Y-39951516D01*
X101165174Y-39787753D01*
X101175500Y-39686677D01*
X101175499Y-39349999D01*
X135844785Y-39349999D01*
X135844785Y-39350000D01*
X135863602Y-39553082D01*
X135919417Y-39749247D01*
X135919422Y-39749260D01*
X136010327Y-39931821D01*
X136133237Y-40094581D01*
X136283958Y-40231980D01*
X136283960Y-40231982D01*
X136351244Y-40273642D01*
X136457363Y-40339348D01*
X136647544Y-40413024D01*
X136848024Y-40450500D01*
X136848026Y-40450500D01*
X137051974Y-40450500D01*
X137051976Y-40450500D01*
X137252456Y-40413024D01*
X137442637Y-40339348D01*
X137616041Y-40231981D01*
X137744122Y-40115219D01*
X137766762Y-40094581D01*
X137798488Y-40052569D01*
X137889673Y-39931821D01*
X137980582Y-39749250D01*
X138036397Y-39553083D01*
X138055215Y-39350000D01*
X138036397Y-39146917D01*
X137980582Y-38950750D01*
X137962611Y-38914660D01*
X137915450Y-38819946D01*
X137889673Y-38768179D01*
X137820552Y-38676648D01*
X137766762Y-38605418D01*
X137616041Y-38468019D01*
X137616039Y-38468017D01*
X137442642Y-38360655D01*
X137442635Y-38360651D01*
X137316960Y-38311965D01*
X137252456Y-38286976D01*
X137051976Y-38249500D01*
X136848024Y-38249500D01*
X136647544Y-38286976D01*
X136647541Y-38286976D01*
X136647541Y-38286977D01*
X136457364Y-38360651D01*
X136457357Y-38360655D01*
X136283960Y-38468017D01*
X136283958Y-38468019D01*
X136133237Y-38605418D01*
X136010327Y-38768178D01*
X135919422Y-38950739D01*
X135919417Y-38950752D01*
X135863602Y-39146917D01*
X135844785Y-39349999D01*
X101175499Y-39349999D01*
X101175499Y-39088324D01*
X101173363Y-39067417D01*
X101165174Y-38987247D01*
X101163523Y-38982266D01*
X101110908Y-38823484D01*
X101020340Y-38676650D01*
X100898350Y-38554660D01*
X100789183Y-38487325D01*
X100751518Y-38464093D01*
X100751513Y-38464091D01*
X100750069Y-38463612D01*
X100587753Y-38409826D01*
X100587751Y-38409825D01*
X100486684Y-38399500D01*
X100486677Y-38399500D01*
X100050796Y-38399500D01*
X99983757Y-38379815D01*
X99963116Y-38363182D01*
X99918925Y-38318992D01*
X99661940Y-38108090D01*
X99661939Y-38108089D01*
X99661935Y-38108086D01*
X99633088Y-38088811D01*
X99385508Y-37923383D01*
X99092316Y-37766671D01*
X99092309Y-37766667D01*
X99082297Y-37762520D01*
X98785165Y-37639445D01*
X98785164Y-37639444D01*
X98785160Y-37639443D01*
X98467020Y-37542939D01*
X98467015Y-37542938D01*
X98467013Y-37542937D01*
X98267783Y-37503309D01*
X98251147Y-37500000D01*
X102551920Y-37500000D01*
X102572211Y-37757820D01*
X102632582Y-38009285D01*
X102731549Y-38248213D01*
X102803707Y-38365962D01*
X103355839Y-37813830D01*
X103402430Y-37926310D01*
X103500924Y-38073717D01*
X103626283Y-38199076D01*
X103773690Y-38297570D01*
X103886168Y-38344160D01*
X103334036Y-38896291D01*
X103334036Y-38896292D01*
X103451786Y-38968450D01*
X103690714Y-39067417D01*
X103942179Y-39127788D01*
X104200000Y-39148079D01*
X104457820Y-39127788D01*
X104709285Y-39067417D01*
X104948209Y-38968451D01*
X105065961Y-38896291D01*
X104513830Y-38344160D01*
X104626310Y-38297570D01*
X104773717Y-38199076D01*
X104899076Y-38073717D01*
X104997570Y-37926310D01*
X105044160Y-37813830D01*
X105596291Y-38365961D01*
X105668451Y-38248209D01*
X105767417Y-38009285D01*
X105827788Y-37757820D01*
X105848079Y-37500000D01*
X105827788Y-37242179D01*
X105767417Y-36990714D01*
X105668450Y-36751786D01*
X105596291Y-36634036D01*
X105044160Y-37186168D01*
X104997570Y-37073690D01*
X104899076Y-36926283D01*
X104773717Y-36800924D01*
X104626310Y-36702430D01*
X104513830Y-36655839D01*
X105065962Y-36103707D01*
X104948213Y-36031549D01*
X104709285Y-35932582D01*
X104457820Y-35872211D01*
X104200000Y-35851920D01*
X103942179Y-35872211D01*
X103690714Y-35932582D01*
X103451786Y-36031549D01*
X103334036Y-36103707D01*
X103886169Y-36655839D01*
X103773690Y-36702430D01*
X103626283Y-36800924D01*
X103500924Y-36926283D01*
X103402430Y-37073690D01*
X103355839Y-37186168D01*
X102803707Y-36634036D01*
X102731549Y-36751786D01*
X102632582Y-36990714D01*
X102572211Y-37242179D01*
X102551920Y-37500000D01*
X98251147Y-37500000D01*
X98140952Y-37478082D01*
X98140948Y-37478081D01*
X98140940Y-37478080D01*
X97897869Y-37454142D01*
X97810098Y-37445498D01*
X97810095Y-37445498D01*
X97643871Y-37445500D01*
X88041993Y-37445500D01*
X88041792Y-37445488D01*
X88009653Y-37445492D01*
X88009601Y-37445477D01*
X87925087Y-37445488D01*
X87884116Y-37438529D01*
X87881552Y-37437632D01*
X87881550Y-37437631D01*
X87881548Y-37437631D01*
X87881544Y-37437630D01*
X87702301Y-37417435D01*
X87702293Y-37417435D01*
X87523047Y-37437630D01*
X87523042Y-37437631D01*
X87352773Y-37497211D01*
X87200034Y-37593184D01*
X87072481Y-37720737D01*
X86976508Y-37873476D01*
X86943974Y-37966455D01*
X86903252Y-38023231D01*
X86838299Y-38048978D01*
X86826932Y-38049500D01*
X86096798Y-38049500D01*
X86059932Y-38052401D01*
X86059926Y-38052402D01*
X85902106Y-38098254D01*
X85902103Y-38098255D01*
X85760637Y-38181917D01*
X85760629Y-38181923D01*
X85644423Y-38298129D01*
X85644413Y-38298142D01*
X85643934Y-38298953D01*
X85643393Y-38299457D01*
X85639639Y-38304298D01*
X85638857Y-38303691D01*
X85592860Y-38346631D01*
X85524117Y-38359127D01*
X85459530Y-38332474D01*
X85435216Y-38304410D01*
X85434963Y-38304607D01*
X85431341Y-38299937D01*
X85430476Y-38298939D01*
X85430185Y-38298447D01*
X85430178Y-38298438D01*
X85314061Y-38182321D01*
X85314052Y-38182314D01*
X85172696Y-38098717D01*
X85172693Y-38098716D01*
X85014995Y-38052900D01*
X85014989Y-38052899D01*
X84978149Y-38050000D01*
X84700000Y-38050000D01*
X84700000Y-38726000D01*
X84680315Y-38793039D01*
X84627511Y-38838794D01*
X84576000Y-38850000D01*
X84224000Y-38850000D01*
X84156961Y-38830315D01*
X84111206Y-38777511D01*
X84100000Y-38726000D01*
X84100000Y-38050000D01*
X83821850Y-38050000D01*
X83785010Y-38052899D01*
X83785004Y-38052900D01*
X83627306Y-38098716D01*
X83627303Y-38098717D01*
X83514102Y-38165664D01*
X83446378Y-38182847D01*
X83380115Y-38160687D01*
X83336352Y-38106221D01*
X83328983Y-38036741D01*
X83333275Y-38019928D01*
X83364680Y-37925151D01*
X83372359Y-37850000D01*
X81427642Y-37850000D01*
X81435319Y-37925152D01*
X81489546Y-38088800D01*
X81489551Y-38088811D01*
X81580052Y-38235534D01*
X81580055Y-38235538D01*
X81593982Y-38249465D01*
X81627467Y-38310788D01*
X81622483Y-38380480D01*
X81593980Y-38424830D01*
X81575178Y-38443631D01*
X81513854Y-38477114D01*
X81444162Y-38472128D01*
X81399818Y-38443628D01*
X81335851Y-38379661D01*
X81335850Y-38379660D01*
X81237492Y-38318992D01*
X81189018Y-38289093D01*
X81189013Y-38289091D01*
X81182630Y-38286976D01*
X81025253Y-38234826D01*
X81025251Y-38234825D01*
X80924178Y-38224500D01*
X80325830Y-38224500D01*
X80325812Y-38224501D01*
X80224747Y-38234825D01*
X80060984Y-38289092D01*
X80060981Y-38289093D01*
X79914148Y-38379661D01*
X79800181Y-38493629D01*
X79738858Y-38527114D01*
X79669166Y-38522130D01*
X79624819Y-38493629D01*
X79510851Y-38379661D01*
X79510850Y-38379660D01*
X79412492Y-38318992D01*
X79364018Y-38289093D01*
X79364013Y-38289091D01*
X79357630Y-38286976D01*
X79200253Y-38234826D01*
X79200251Y-38234825D01*
X79099178Y-38224500D01*
X78500830Y-38224500D01*
X78500812Y-38224501D01*
X78399747Y-38234825D01*
X78235984Y-38289092D01*
X78235981Y-38289093D01*
X78089148Y-38379661D01*
X77981431Y-38487379D01*
X77920108Y-38520864D01*
X77850416Y-38515880D01*
X77806069Y-38487379D01*
X77806017Y-38487327D01*
X77772532Y-38426004D01*
X77777516Y-38356312D01*
X77806021Y-38311960D01*
X77819947Y-38298035D01*
X77910448Y-38151311D01*
X77910453Y-38151300D01*
X77964680Y-37987651D01*
X77972359Y-37912500D01*
X76027642Y-37912500D01*
X76035319Y-37987652D01*
X76089546Y-38151300D01*
X76089551Y-38151311D01*
X76180052Y-38298034D01*
X76180055Y-38298038D01*
X76193982Y-38311965D01*
X76227467Y-38373288D01*
X76222483Y-38442980D01*
X76193984Y-38487325D01*
X76179661Y-38501648D01*
X76089093Y-38648481D01*
X76089091Y-38648486D01*
X76034826Y-38812245D01*
X76034825Y-38812252D01*
X76031854Y-38841334D01*
X76005457Y-38906025D01*
X75996170Y-38916418D01*
X75977305Y-38935280D01*
X75977227Y-38935352D01*
X75930313Y-38982266D01*
X75930307Y-38982273D01*
X75872134Y-39040435D01*
X75872059Y-39040518D01*
X75801805Y-39110772D01*
X75740482Y-39144257D01*
X75670790Y-39139273D01*
X75614857Y-39097401D01*
X75590440Y-39031937D01*
X75590721Y-39010937D01*
X75591562Y-39002402D01*
X75605341Y-38862500D01*
X75586024Y-38666368D01*
X75528814Y-38477773D01*
X75528811Y-38477769D01*
X75528811Y-38477766D01*
X75435913Y-38303967D01*
X75435909Y-38303960D01*
X75310883Y-38151616D01*
X75158539Y-38026590D01*
X75158532Y-38026586D01*
X74984733Y-37933688D01*
X74984727Y-37933686D01*
X74796132Y-37876476D01*
X74796129Y-37876475D01*
X74600000Y-37857159D01*
X74403870Y-37876475D01*
X74215266Y-37933688D01*
X74041467Y-38026586D01*
X74041460Y-38026590D01*
X73889116Y-38151616D01*
X73764090Y-38303960D01*
X73764086Y-38303967D01*
X73671188Y-38477766D01*
X73613975Y-38666370D01*
X73594659Y-38862500D01*
X73613976Y-39058634D01*
X73644987Y-39160861D01*
X73658320Y-39204815D01*
X73660653Y-39212504D01*
X73661277Y-39282371D01*
X73624029Y-39341484D01*
X73560735Y-39371075D01*
X73541993Y-39372500D01*
X71524155Y-39372500D01*
X71524144Y-39372497D01*
X71311231Y-39372497D01*
X71311230Y-39372498D01*
X70989341Y-39400660D01*
X70671143Y-39456768D01*
X70671136Y-39456769D01*
X70550414Y-39489117D01*
X70359032Y-39540398D01*
X70359029Y-39540399D01*
X70359028Y-39540399D01*
X70190486Y-39601744D01*
X70055402Y-39650911D01*
X70055398Y-39650912D01*
X70055392Y-39650915D01*
X70055384Y-39650918D01*
X69762568Y-39787461D01*
X69762552Y-39787469D01*
X69482740Y-39949020D01*
X69482725Y-39949029D01*
X69218044Y-40134361D01*
X68970527Y-40342054D01*
X68970526Y-40342055D01*
X68912600Y-40399979D01*
X68912592Y-40399987D01*
X68856291Y-40456289D01*
X68856289Y-40456291D01*
X68798124Y-40514454D01*
X68798062Y-40514522D01*
X68742051Y-40570535D01*
X68534363Y-40818046D01*
X68349031Y-41082727D01*
X68349022Y-41082742D01*
X68187472Y-41362554D01*
X68187464Y-41362570D01*
X68050921Y-41655385D01*
X68050918Y-41655393D01*
X68050915Y-41655399D01*
X68050914Y-41655403D01*
X68010961Y-41765173D01*
X67957394Y-41912346D01*
X67940401Y-41959033D01*
X67856772Y-42271139D01*
X67841639Y-42356961D01*
X67800663Y-42589342D01*
X67772501Y-42911229D01*
X67772500Y-42911232D01*
X67772500Y-42974211D01*
X67772500Y-43010987D01*
X67772500Y-43010989D01*
X67772500Y-48738197D01*
X67772500Y-51858197D01*
X67772500Y-52833197D01*
X67772500Y-54003197D01*
X67772500Y-54198197D01*
X67772500Y-54978197D01*
X67772500Y-55758197D01*
X67772500Y-56538197D01*
X67772500Y-57318197D01*
X67772500Y-57513197D01*
X67772500Y-57903197D01*
X67772500Y-58221803D01*
X67772500Y-58221805D01*
X67772499Y-58221805D01*
X63500500Y-58221805D01*
X63500500Y-37162500D01*
X76027641Y-37162500D01*
X76625000Y-37162500D01*
X77375000Y-37162500D01*
X77972358Y-37162500D01*
X77972358Y-37162499D01*
X77965973Y-37100000D01*
X81427641Y-37100000D01*
X82025000Y-37100000D01*
X82775000Y-37100000D01*
X83372358Y-37100000D01*
X83372358Y-37099999D01*
X83364680Y-37024847D01*
X83310453Y-36861199D01*
X83310448Y-36861188D01*
X83219947Y-36714465D01*
X83219944Y-36714461D01*
X83098038Y-36592555D01*
X83098034Y-36592552D01*
X82951311Y-36502051D01*
X82951298Y-36502045D01*
X82787651Y-36447819D01*
X82787648Y-36447818D01*
X82775000Y-36446525D01*
X82775000Y-37100000D01*
X82025000Y-37100000D01*
X82025000Y-36446526D01*
X82024999Y-36446525D01*
X82012351Y-36447818D01*
X82012348Y-36447819D01*
X81848701Y-36502045D01*
X81848688Y-36502051D01*
X81701965Y-36592552D01*
X81701961Y-36592555D01*
X81580055Y-36714461D01*
X81580052Y-36714465D01*
X81489551Y-36861188D01*
X81489546Y-36861199D01*
X81435319Y-37024848D01*
X81427641Y-37100000D01*
X77965973Y-37100000D01*
X77964680Y-37087347D01*
X77910453Y-36923699D01*
X77910448Y-36923688D01*
X77819947Y-36776965D01*
X77819944Y-36776961D01*
X77698038Y-36655055D01*
X77698034Y-36655052D01*
X77551311Y-36564551D01*
X77551298Y-36564545D01*
X77387651Y-36510319D01*
X77387648Y-36510318D01*
X77375000Y-36509025D01*
X77375000Y-37162500D01*
X76625000Y-37162500D01*
X76625000Y-36509026D01*
X76624999Y-36509025D01*
X76612351Y-36510318D01*
X76612348Y-36510319D01*
X76448701Y-36564545D01*
X76448688Y-36564551D01*
X76301965Y-36655052D01*
X76301961Y-36655055D01*
X76180055Y-36776961D01*
X76180052Y-36776965D01*
X76089551Y-36923688D01*
X76089546Y-36923699D01*
X76035319Y-37087348D01*
X76027641Y-37162500D01*
X63500500Y-37162500D01*
X63500500Y-36000385D01*
X63501074Y-35988469D01*
X63512298Y-35872211D01*
X63526136Y-35728862D01*
X63528315Y-35714801D01*
X63580749Y-35470117D01*
X63588480Y-35434038D01*
X63592251Y-35420332D01*
X63684205Y-35148287D01*
X63689520Y-35135110D01*
X63812041Y-34875406D01*
X63818825Y-34862934D01*
X63970319Y-34618959D01*
X63978493Y-34607341D01*
X64156927Y-34382361D01*
X64166375Y-34371759D01*
X64369442Y-34168686D01*
X64380039Y-34159242D01*
X64605021Y-33980796D01*
X64616641Y-33972620D01*
X64860595Y-33821130D01*
X64873077Y-33814339D01*
X65132774Y-33691812D01*
X65145969Y-33686490D01*
X65417992Y-33594533D01*
X65431701Y-33590760D01*
X65712479Y-33530584D01*
X65726527Y-33528408D01*
X66015911Y-33500462D01*
X66022963Y-33499984D01*
X66070316Y-33498144D01*
X66075076Y-33498053D01*
X144809367Y-33500497D01*
G37*
%TD.AperFunction*%
%TD*%
%TA.AperFunction,Conductor*%
%TO.N,VCTCXO_Out*%
G36*
X96201956Y-45143005D02*
G01*
X96202380Y-45143192D01*
X96215540Y-45149311D01*
X96904057Y-45469446D01*
X96910114Y-45476041D01*
X96910724Y-45478528D01*
X96941902Y-45715352D01*
X96939584Y-45724002D01*
X96935100Y-45727550D01*
X96202315Y-46057006D01*
X96193364Y-46057273D01*
X96186846Y-46051133D01*
X96186716Y-46050833D01*
X96052076Y-45727550D01*
X96000880Y-45604624D01*
X96000864Y-45595673D01*
X96186659Y-45149309D01*
X96193001Y-45142990D01*
X96201956Y-45143005D01*
G37*
%TD.AperFunction*%
%TD*%
%TA.AperFunction,Conductor*%
%TO.N,3V3_ADF*%
G36*
X92347709Y-52963694D02*
G01*
X93575455Y-53402955D01*
X93582091Y-53408968D01*
X93582530Y-53417912D01*
X93582329Y-53418435D01*
X93302553Y-54096219D01*
X93296229Y-54102559D01*
X93296202Y-54102570D01*
X92618424Y-54382334D01*
X92609469Y-54382323D01*
X92603145Y-54375983D01*
X92602948Y-54375471D01*
X92505018Y-54102559D01*
X92161714Y-53145837D01*
X92162145Y-53136894D01*
X92164544Y-53133524D01*
X92335591Y-52966342D01*
X92343902Y-52963011D01*
X92347709Y-52963694D01*
G37*
%TD.AperFunction*%
%TD*%
%TA.AperFunction,Conductor*%
%TO.N,Net-(U106-A2)*%
G36*
X84633020Y-66989377D02*
G01*
X84896184Y-67097436D01*
X84902536Y-67103748D01*
X84902563Y-67103815D01*
X85010485Y-67366644D01*
X85010458Y-67375599D01*
X85004413Y-67381780D01*
X84548782Y-67584217D01*
X84539830Y-67584445D01*
X84535758Y-67581798D01*
X84405898Y-67451938D01*
X84402471Y-67443665D01*
X84403637Y-67438575D01*
X84618044Y-66995105D01*
X84624729Y-66989151D01*
X84633020Y-66989377D01*
G37*
%TD.AperFunction*%
%TD*%
%TA.AperFunction,Conductor*%
%TO.N,VCTCXO_Out*%
G36*
X96202129Y-45142527D02*
G01*
X96992777Y-45470008D01*
X96999109Y-45476339D01*
X97000000Y-45480817D01*
X97000000Y-45719182D01*
X96996573Y-45727455D01*
X96992777Y-45729991D01*
X96202131Y-46057471D01*
X96193176Y-46057471D01*
X96186853Y-46051159D01*
X96053125Y-45729991D01*
X96000871Y-45604495D01*
X96000855Y-45595544D01*
X96186853Y-45148839D01*
X96193197Y-45142519D01*
X96202129Y-45142527D01*
G37*
%TD.AperFunction*%
%TD*%
%TA.AperFunction,Conductor*%
%TO.N,Net-(U106-A1)*%
G36*
X84696184Y-69196389D02*
G01*
X84697728Y-69197681D01*
X84899325Y-69398312D01*
X84901895Y-69402161D01*
X85009416Y-69664039D01*
X85009388Y-69672994D01*
X85003037Y-69679306D01*
X85000894Y-69679954D01*
X84417849Y-69796909D01*
X84409064Y-69795177D01*
X84404077Y-69787739D01*
X84403852Y-69785715D01*
X84399683Y-69603537D01*
X84401794Y-69596565D01*
X84679890Y-69199264D01*
X84687441Y-69194452D01*
X84696184Y-69196389D01*
G37*
%TD.AperFunction*%
%TD*%
%TA.AperFunction,Conductor*%
%TO.N,Net-(U106-A0)*%
G36*
X85490693Y-70160397D02*
G01*
X85493688Y-70162566D01*
X85623522Y-70292400D01*
X85626949Y-70300673D01*
X85625246Y-70306751D01*
X85382357Y-70706262D01*
X85375131Y-70711551D01*
X85367916Y-70711007D01*
X85103815Y-70602563D01*
X85097463Y-70596251D01*
X85097436Y-70596184D01*
X84989972Y-70334470D01*
X84989999Y-70325515D01*
X84996351Y-70319203D01*
X84997119Y-70318919D01*
X85481765Y-70159723D01*
X85490693Y-70160397D01*
G37*
%TD.AperFunction*%
%TD*%
%TA.AperFunction,Conductor*%
%TO.N,3V3_ADF*%
G36*
X88033174Y-62689439D02*
G01*
X88196804Y-62756629D01*
X88296184Y-62797436D01*
X88302536Y-62803748D01*
X88302563Y-62803815D01*
X88410559Y-63066824D01*
X88410532Y-63075779D01*
X88404670Y-63081877D01*
X87953867Y-63291523D01*
X87944920Y-63291904D01*
X87940660Y-63289187D01*
X87810812Y-63159339D01*
X87807385Y-63151066D01*
X87808474Y-63146136D01*
X88018124Y-62695327D01*
X88024718Y-62689273D01*
X88033174Y-62689439D01*
G37*
%TD.AperFunction*%
%TD*%
%TA.AperFunction,Conductor*%
%TO.N,3V3_ADF*%
G36*
X87953864Y-62308475D02*
G01*
X88404671Y-62518123D01*
X88410726Y-62524718D01*
X88410559Y-62533175D01*
X88302563Y-62796184D01*
X88296251Y-62802536D01*
X88296184Y-62802563D01*
X88033175Y-62910559D01*
X88024220Y-62910532D01*
X88018123Y-62904671D01*
X87808475Y-62453865D01*
X87808095Y-62444920D01*
X87810810Y-62440662D01*
X87940661Y-62310811D01*
X87948933Y-62307385D01*
X87953864Y-62308475D01*
G37*
%TD.AperFunction*%
%TD*%
%TA.AperFunction,Conductor*%
%TO.N,Net-(U105-REF_{IN})*%
G36*
X105738146Y-45167840D02*
G01*
X105924127Y-45614503D01*
X105924144Y-45623457D01*
X105924127Y-45623497D01*
X105738146Y-46070159D01*
X105731802Y-46076480D01*
X105722868Y-46076471D01*
X104932223Y-45748991D01*
X104925891Y-45742660D01*
X104925000Y-45738182D01*
X104925000Y-45499817D01*
X104928427Y-45491544D01*
X104932221Y-45489008D01*
X105722871Y-45161528D01*
X105731823Y-45161528D01*
X105738146Y-45167840D01*
G37*
%TD.AperFunction*%
%TD*%
M02*
