%TF.GenerationSoftware,KiCad,Pcbnew,8.0.9-8.0.9-0~ubuntu22.04.1*%
%TF.CreationDate,2026-02-07T13:45:35+01:00*%
%TF.ProjectId,HW_0008_PrestoLO_2GHz_rev01a,48575f30-3030-4385-9f50-726573746f4c,rev?*%
%TF.SameCoordinates,Original*%
%TF.FileFunction,Soldermask,Bot*%
%TF.FilePolarity,Negative*%
%FSLAX46Y46*%
G04 Gerber Fmt 4.6, Leading zero omitted, Abs format (unit mm)*
G04 Created by KiCad (PCBNEW 8.0.9-8.0.9-0~ubuntu22.04.1) date 2026-02-07 13:45:35*
%MOMM*%
%LPD*%
G01*
G04 APERTURE LIST*
G04 Aperture macros list*
%AMRoundRect*
0 Rectangle with rounded corners*
0 $1 Rounding radius*
0 $2 $3 $4 $5 $6 $7 $8 $9 X,Y pos of 4 corners*
0 Add a 4 corners polygon primitive as box body*
4,1,4,$2,$3,$4,$5,$6,$7,$8,$9,$2,$3,0*
0 Add four circle primitives for the rounded corners*
1,1,$1+$1,$2,$3*
1,1,$1+$1,$4,$5*
1,1,$1+$1,$6,$7*
1,1,$1+$1,$8,$9*
0 Add four rect primitives between the rounded corners*
20,1,$1+$1,$2,$3,$4,$5,0*
20,1,$1+$1,$4,$5,$6,$7,0*
20,1,$1+$1,$6,$7,$8,$9,0*
20,1,$1+$1,$8,$9,$2,$3,0*%
G04 Aperture macros list end*
%ADD10C,3.050000*%
%ADD11C,2.286000*%
%ADD12R,1.700000X1.700000*%
%ADD13O,1.700000X1.700000*%
%ADD14RoundRect,0.250000X-0.450000X0.350000X-0.450000X-0.350000X0.450000X-0.350000X0.450000X0.350000X0*%
%ADD15RoundRect,0.237500X0.237500X-0.300000X0.237500X0.300000X-0.237500X0.300000X-0.237500X-0.300000X0*%
%ADD16RoundRect,0.237500X-0.250000X-0.237500X0.250000X-0.237500X0.250000X0.237500X-0.250000X0.237500X0*%
%ADD17RoundRect,0.237500X-0.237500X0.250000X-0.237500X-0.250000X0.237500X-0.250000X0.237500X0.250000X0*%
%ADD18RoundRect,0.150000X0.512500X0.150000X-0.512500X0.150000X-0.512500X-0.150000X0.512500X-0.150000X0*%
%ADD19RoundRect,0.237500X0.300000X0.237500X-0.300000X0.237500X-0.300000X-0.237500X0.300000X-0.237500X0*%
%ADD20RoundRect,0.237500X0.250000X0.237500X-0.250000X0.237500X-0.250000X-0.237500X0.250000X-0.237500X0*%
%ADD21RoundRect,0.237500X-0.237500X0.287500X-0.237500X-0.287500X0.237500X-0.287500X0.237500X0.287500X0*%
%ADD22RoundRect,0.237500X-0.237500X0.300000X-0.237500X-0.300000X0.237500X-0.300000X0.237500X0.300000X0*%
%ADD23C,2.240000*%
%ADD24C,2.740000*%
G04 APERTURE END LIST*
D10*
X144025000Y-40000000D02*
G75*
G02*
X140975000Y-40000000I-1525000J0D01*
G01*
X140975000Y-40000000D02*
G75*
G02*
X144025000Y-40000000I1525000J0D01*
G01*
X71025000Y-83000000D02*
G75*
G02*
X67975000Y-83000000I-1525000J0D01*
G01*
X67975000Y-83000000D02*
G75*
G02*
X71025000Y-83000000I1525000J0D01*
G01*
X144025000Y-83000000D02*
G75*
G02*
X140975000Y-83000000I-1525000J0D01*
G01*
X140975000Y-83000000D02*
G75*
G02*
X144025000Y-83000000I1525000J0D01*
G01*
D11*
%TO.C,J103*%
X104200000Y-37500000D03*
X121100000Y-85500000D03*
%TD*%
D12*
%TO.C,J101*%
X72000000Y-43000000D03*
D13*
X74540000Y-43000000D03*
X72000000Y-45540000D03*
X74540000Y-45540000D03*
X72000000Y-48080000D03*
X74540000Y-48080000D03*
X72000000Y-50620000D03*
X74540000Y-50620000D03*
X72000000Y-53160000D03*
X74540000Y-53160000D03*
X72000000Y-55700000D03*
X74540000Y-55700000D03*
X72000000Y-58240000D03*
X74540000Y-58240000D03*
X72000000Y-60780000D03*
X74540000Y-60780000D03*
X72000000Y-63320000D03*
X74540000Y-63320000D03*
X72000000Y-65860000D03*
X74540000Y-65860000D03*
%TD*%
D14*
%TO.C,R121*%
X87100000Y-68687500D03*
X87100000Y-70687500D03*
%TD*%
D15*
%TO.C,C138*%
X88600000Y-40662500D03*
X88600000Y-38937500D03*
%TD*%
D16*
%TO.C,R112*%
X90487500Y-40200000D03*
X92312500Y-40200000D03*
%TD*%
D14*
%TO.C,R117*%
X83300000Y-68687500D03*
X83300000Y-70687500D03*
%TD*%
D17*
%TO.C,R111*%
X100200000Y-39387500D03*
X100200000Y-41212500D03*
%TD*%
%TO.C,R110*%
X87300000Y-59487500D03*
X87300000Y-61312500D03*
%TD*%
D14*
%TO.C,R120*%
X87100000Y-64600000D03*
X87100000Y-66600000D03*
%TD*%
D18*
%TO.C,U103*%
X86675000Y-38850000D03*
X86675000Y-39800000D03*
X86675000Y-40750000D03*
X84400000Y-40750000D03*
X84400000Y-39800000D03*
X84400000Y-38850000D03*
%TD*%
D19*
%TO.C,C124*%
X87462500Y-43900000D03*
X85737500Y-43900000D03*
%TD*%
D15*
%TO.C,C118*%
X82400000Y-42662500D03*
X82400000Y-40937500D03*
%TD*%
%TO.C,C119*%
X87000000Y-47262500D03*
X87000000Y-45537500D03*
%TD*%
D14*
%TO.C,R118*%
X79500000Y-64600000D03*
X79500000Y-66600000D03*
%TD*%
D20*
%TO.C,R113*%
X103012500Y-42800000D03*
X101187500Y-42800000D03*
%TD*%
D14*
%TO.C,R119*%
X79500000Y-68687500D03*
X79500000Y-70687500D03*
%TD*%
D12*
%TO.C,J102*%
X142675000Y-58375000D03*
D13*
X142675000Y-55835000D03*
X140135000Y-58375000D03*
X140135000Y-55835000D03*
%TD*%
D21*
%TO.C,FB102*%
X91200000Y-46325000D03*
X91200000Y-48075000D03*
%TD*%
D16*
%TO.C,R102*%
X78800000Y-40800000D03*
X80625000Y-40800000D03*
%TD*%
D22*
%TO.C,C114*%
X77000000Y-37537500D03*
X77000000Y-39262500D03*
%TD*%
D14*
%TO.C,R116*%
X83300000Y-64600000D03*
X83300000Y-66600000D03*
%TD*%
D21*
%TO.C,FB110*%
X97800000Y-41925000D03*
X97800000Y-43675000D03*
%TD*%
D23*
%TO.C,J104*%
X96500000Y-75750000D03*
D24*
X93960000Y-73210000D03*
X93960000Y-78290000D03*
X99040000Y-73210000D03*
X99040000Y-78290000D03*
%TD*%
D16*
%TO.C,R101*%
X78800000Y-39200000D03*
X80625000Y-39200000D03*
%TD*%
D19*
%TO.C,C127*%
X87462500Y-42300000D03*
X85737500Y-42300000D03*
%TD*%
%TO.C,C169*%
X104362500Y-45600000D03*
X102637500Y-45600000D03*
%TD*%
D15*
%TO.C,C107*%
X77000000Y-42662500D03*
X77000000Y-40937500D03*
%TD*%
D22*
%TO.C,C121*%
X82400000Y-37475000D03*
X82400000Y-39200000D03*
%TD*%
M02*
